<svg version="1.1" viewBox="0.0 0.0 803.0 690.0" fill="none" stroke="none" stroke-linecap="square" stroke-miterlimit="10" width="803" height="690" xmlns:xlink="http://www.w3.org/1999/xlink" xmlns="http://www.w3.org/2000/svg"><path fill="#ffffff" d="M0 0L803.0 0L803.0 690.0L0 690.0L0 0Z" fill-rule="nonzero"/><path fill="#d0e0e3" d="M401.5 34.5C456.51917 34.5 510.37885 50.314632 556.66394 80.060234L479.08197 200.78012C455.93942 185.90732 429.00958 178.0 401.5 178.0Z" fill-rule="nonzero"/><path fill="#3c78d8" d="M556.66394 80.060234C673.83307 155.36029 720.0256 303.9162 666.2157 432.38104L533.85785 376.94052C560.76276 312.7081 537.66656 238.43015 479.08197 200.78012Z" fill-rule="nonzero"/><path fill="#6d9eeb" d="M118.860176 271.66296C143.04576 134.49966 262.22073 34.5 401.5 34.5L401.5 178.0C331.86035 178.0 272.2729 227.99983 260.18008 296.58148Z" fill-rule="nonzero"/><path fill="#a4c2f4" d="M254.07458 567.7412C151.9852 506.62 98.1982 388.8429 118.860176 271.66296L260.18008 296.58148C249.84909 355.17145 276.74258 414.06 327.7873 444.6206Z" fill-rule="nonzero"/><path fill="#4285f4" d="M666.2157 432.38104C634.05475 509.16156 570.14136 568.1955 491.0536 594.1704C411.96585 620.1453 325.49658 610.50183 254.07458 567.7412L327.7873 444.6206C363.4983 466.00092 406.7329 470.82266 446.2768 457.8352C485.82068 444.84775 517.7774 415.33078 533.85785 376.94052Z" fill-rule="nonzero"/><path fill="#000000" d="M422.28357 121.516014L427.06482 120.984764Q427.2367 122.43789 427.97107 123.141014Q428.70544 123.84414 429.9242 123.84414Q431.45544 123.84414 432.51794 122.43789Q433.59607 121.03164 433.89294 116.609764Q432.03357 118.766014 429.2367 118.766014Q426.20544 118.766014 423.9867 116.422264Q421.78357 114.078514 421.78357 110.31289Q421.78357 106.391014 424.1117 104.00039Q426.43982 101.59414 430.0492 101.59414Q433.97107 101.59414 436.4867 104.62539Q439.00232 107.65664 439.00232 114.59414Q439.00232 121.672264 436.37732 124.797264Q433.75232 127.922264 429.5492 127.922264Q426.53357 127.922264 424.65857 126.31289Q422.7992 124.703514 422.28357 121.516014ZM433.45544 110.71914Q433.45544 108.328514 432.3617 107.016014Q431.26794 105.68789 429.81482 105.68789Q428.45544 105.68789 427.5492 106.766014Q426.64294 107.84414 426.64294 110.31289Q426.64294 112.81289 427.62732 113.984764Q428.6117 115.141014 430.08044 115.141014Q431.50232 115.141014 432.47107 114.016014Q433.45544 112.891014 433.45544 110.71914ZM443.22107 127.46914L443.22107 122.53164L448.1742 122.53164L448.1742 127.46914L443.22107 127.46914ZM464.81482 127.46914L459.87732 127.46914L459.87732 108.859764Q457.15857 111.391014 453.4867 112.59414L453.4867 108.109764Q455.4242 107.484764 457.68982 105.71914Q459.95544 103.953514 460.7992 101.59414L464.81482 101.59414L464.81482 127.46914ZM472.20544 108.06289Q472.20544 104.59414 473.72107 102.93789Q475.25232 101.266014 477.84607 101.266014Q480.53357 101.266014 482.0492 102.922264Q483.58044 104.578514 483.58044 108.06289Q483.58044 111.53164 482.0492 113.203514Q480.53357 114.859764 477.93982 114.859764Q475.25232 114.859764 473.72107 113.203514Q472.20544 111.547264 472.20544 108.06289ZM476.06482 108.03164Q476.06482 110.547264 476.64294 111.40664Q477.08044 112.03164 477.84607 112.03164Q478.64294 112.03164 479.08044 111.40664Q479.64294 110.547264 479.64294 108.03164Q479.64294 105.516014 479.08044 104.672264Q478.64294 104.016014 477.84607 104.016014Q477.08044 104.016014 476.64294 104.65664Q476.06482 105.516014 476.06482 108.03164ZM481.6117 128.45352L477.95544 128.45352L491.68982 101.266014L495.2367 101.266014L481.6117 128.45352ZM489.59607 121.68789Q489.59607 118.21914 491.1117 116.547264Q492.62732 114.87539 495.26794 114.87539Q497.9242 114.87539 499.43982 116.547264Q500.97107 118.21914 500.97107 121.68789Q500.97107 125.172264 499.43982 126.84414Q497.9242 128.5004 495.33044 128.5004Q492.62732 128.5004 491.1117 126.84414Q489.59607 125.172264 489.59607 121.68789ZM493.43982 121.672264Q493.43982 124.18789 494.01794 125.03164Q494.45544 125.672264 495.2367 125.672264Q496.03357 125.672264 496.45544 125.047264Q497.03357 124.18789 497.03357 121.672264Q497.03357 119.15664 496.47107 118.297264Q496.03357 117.65664 495.2367 117.65664Q494.43982 117.65664 494.01794 118.297264Q493.43982 119.15664 493.43982 121.672264Z" fill-rule="nonzero"/><path fill="#000000" d="M573.7615 265.49414L573.7615 270.0879L556.43335 270.0879Q556.7146 267.47852 558.12085 265.1504Q559.5271 262.82227 563.68335 258.97852Q567.0271 255.86914 567.7771 254.75977Q568.7927 253.22852 568.7927 251.72852Q568.7927 250.08789 567.9021 249.19727Q567.0271 248.30664 565.4646 248.30664Q563.9177 248.30664 562.99585 249.24414Q562.0896 250.16602 561.949 252.33789L557.0271 251.83789Q557.4646 247.75977 559.7771 245.99414Q562.1052 244.21289 565.574 244.21289Q569.4021 244.21289 571.574 246.27539Q573.7615 248.32227 573.7615 251.38477Q573.7615 253.11914 573.1365 254.69727Q572.5115 256.2754 571.1521 257.99414Q570.2615 259.13477 567.9177 261.29102Q565.574 263.43164 564.949 264.13477Q564.3396 264.8379 563.949 265.49414L573.7615 265.49414ZM593.7615 265.49414L593.7615 270.0879L576.43335 270.0879Q576.7146 267.47852 578.12085 265.1504Q579.5271 262.82227 583.68335 258.97852Q587.0271 255.86914 587.7771 254.75977Q588.7927 253.22852 588.7927 251.72852Q588.7927 250.08789 587.9021 249.19727Q587.0271 248.30664 585.4646 248.30664Q583.9177 248.30664 582.99585 249.24414Q582.0896 250.16602 581.949 252.33789L577.0271 251.83789Q577.4646 247.75977 579.7771 245.99414Q582.1052 244.21289 585.574 244.21289Q589.4021 244.21289 591.574 246.27539Q593.7615 248.32227 593.7615 251.38477Q593.7615 253.11914 593.1365 254.69727Q592.5115 256.2754 591.1521 257.99414Q590.2615 259.13477 587.9177 261.29102Q585.574 263.43164 584.949 264.13477Q584.3396 264.8379 583.949 265.49414L593.7615 265.49414ZM598.12085 270.0879L598.12085 265.1504L603.074 265.1504L603.074 270.0879L598.12085 270.0879ZM623.7615 265.49414L623.7615 270.0879L606.43335 270.0879Q606.7146 267.47852 608.12085 265.1504Q609.5271 262.82227 613.68335 258.97852Q617.0271 255.86914 617.7771 254.75977Q618.7927 253.22852 618.7927 251.72852Q618.7927 250.08789 617.9021 249.19727Q617.0271 248.30664 615.4646 248.30664Q613.9177 248.30664 612.99585 249.24414Q612.0896 250.16602 611.949 252.33789L607.0271 251.83789Q607.4646 247.75977 609.7771 245.99414Q612.1052 244.21289 615.574 244.21289Q619.4021 244.21289 621.574 246.27539Q623.7615 248.32227 623.7615 251.38477Q623.7615 253.11914 623.1365 254.69727Q622.5115 256.2754 621.1521 257.99414Q620.2615 259.13477 617.9177 261.29102Q615.574 263.43164 614.949 264.13477Q614.3396 264.8379 613.949 265.49414L623.7615 265.49414ZM627.1052 250.68164Q627.1052 247.21289 628.62085 245.55664Q630.1521 243.88477 632.74585 243.88477Q635.43335 243.88477 636.949 245.54102Q638.4802 247.19727 638.4802 250.68164Q638.4802 254.15039 636.949 255.82227Q635.43335 257.47852 632.8396 257.47852Q630.1521 257.47852 628.62085 255.82227Q627.1052 254.16602 627.1052 250.68164ZM630.9646 250.65039Q630.9646 253.16602 631.5427 254.02539Q631.9802 254.65039 632.74585 254.65039Q633.5427 254.65039 633.9802 254.02539Q634.5427 253.16602 634.5427 250.65039Q634.5427 248.13477 633.9802 247.29102Q633.5427 246.63477 632.74585 246.63477Q631.9802 246.63477 631.5427 247.27539Q630.9646 248.13477 630.9646 250.65039ZM636.5115 271.07227L632.8552 271.07227L646.5896 243.88477L650.1365 243.88477L636.5115 271.07227ZM644.49585 264.30664Q644.49585 260.8379 646.0115 259.16602Q647.5271 257.49414 650.1677 257.49414Q652.824 257.49414 654.3396 259.16602Q655.87085 260.8379 655.87085 264.30664Q655.87085 267.79102 654.3396 269.4629Q652.824 271.11914 650.2302 271.11914Q647.5271 271.11914 646.0115 269.4629Q644.49585 267.79102 644.49585 264.30664ZM648.3396 264.29102Q648.3396 266.80664 648.9177 267.6504Q649.3552 268.29102 650.1365 268.29102Q650.93335 268.29102 651.3552 267.66602Q651.93335 266.80664 651.93335 264.29102Q651.93335 261.7754 651.37085 260.91602Q650.93335 260.2754 650.1365 260.2754Q649.3396 260.2754 648.9177 260.91602Q648.3396 261.7754 648.3396 264.29102Z" fill-rule="nonzero"/><path fill="#000000" d="M435.38394 533.90906L435.38394 538.5028L418.05582 538.5028Q418.33707 535.89343 419.74332 533.5653Q421.14957 531.2372 425.30582 527.39343Q428.64957 524.28406 429.39957 523.1747Q430.4152 521.64343 430.4152 520.14343Q430.4152 518.5028 429.52457 517.6122Q428.64957 516.72156 427.08707 516.72156Q425.5402 516.72156 424.61832 517.65906Q423.71207 518.58093 423.57144 520.7528L418.64957 520.2528Q419.08707 516.1747 421.39957 514.40906Q423.7277 512.6278 427.19644 512.6278Q431.02457 512.6278 433.19644 514.6903Q435.38394 516.7372 435.38394 519.7997Q435.38394 521.53406 434.75894 523.1122Q434.13394 524.6903 432.77457 526.40906Q431.88394 527.5497 429.5402 529.70593Q427.19644 531.84656 426.57144 532.5497Q425.96207 533.2528 425.57144 533.90906L435.38394 533.90906ZM438.69644 517.6747L438.69644 513.08093L455.58707 513.08093L455.58707 516.6747Q453.49332 518.72156 451.32144 522.58093Q449.1652 526.4247 448.02457 530.76843Q446.89957 535.09656 446.9152 538.5028L442.1652 538.5028Q442.27457 533.15906 444.3527 527.6122Q446.44644 522.0497 449.93082 517.6747L438.69644 517.6747ZM459.74332 538.5028L459.74332 533.5653L464.69644 533.5653L464.69644 538.5028L459.74332 538.5028ZM468.52457 531.65906L473.30582 531.08093Q473.52457 532.90906 474.52457 533.8778Q475.5402 534.84656 476.96207 534.84656Q478.49332 534.84656 479.52457 533.6903Q480.57144 532.51843 480.57144 530.5497Q480.57144 528.6903 479.57144 527.6122Q478.57144 526.51843 477.13394 526.51843Q476.18082 526.51843 474.86832 526.8778L475.4152 522.8622Q477.4152 522.90906 478.46207 521.9872Q479.52457 521.0653 479.52457 519.53406Q479.52457 518.2372 478.74332 517.47156Q477.9777 516.6903 476.69644 516.6903Q475.43082 516.6903 474.52457 517.5653Q473.63394 518.4403 473.44644 520.1278L468.88394 519.3622Q469.36832 517.01843 470.32144 515.6278Q471.27457 514.22156 472.99332 513.4247Q474.71207 512.6278 476.83707 512.6278Q480.4777 512.6278 482.6652 514.9403Q484.4777 516.84656 484.4777 519.2372Q484.4777 522.6278 480.77457 524.64343Q482.99332 525.1278 484.30582 526.78406Q485.63394 528.4247 485.63394 530.76843Q485.63394 534.15906 483.14957 536.5497Q480.68082 538.9403 476.99332 538.9403Q473.49332 538.9403 471.18082 536.9247Q468.88394 534.90906 468.52457 531.65906ZM488.7277 519.09656Q488.7277 515.6278 490.24332 513.97156Q491.77457 512.2997 494.36832 512.2997Q497.05582 512.2997 498.57144 513.95593Q500.1027 515.6122 500.1027 519.09656Q500.1027 522.5653 498.57144 524.2372Q497.05582 525.89343 494.46207 525.89343Q491.77457 525.89343 490.24332 524.2372Q488.7277 522.58093 488.7277 519.09656ZM492.58707 519.0653Q492.58707 521.58093 493.1652 522.4403Q493.6027 523.0653 494.36832 523.0653Q495.1652 523.0653 495.6027 522.4403Q496.1652 521.58093 496.1652 519.0653Q496.1652 516.5497 495.6027 515.70593Q495.1652 515.0497 494.36832 515.0497Q493.6027 515.0497 493.1652 515.6903Q492.58707 516.5497 492.58707 519.0653ZM498.13394 539.4872L494.4777 539.4872L508.21207 512.2997L511.75894 512.2997L498.13394 539.4872ZM506.11832 532.72156Q506.11832 529.2528 507.63394 527.58093Q509.14957 525.90906 511.7902 525.90906Q514.4464 525.90906 515.96204 527.58093Q517.4933 529.2528 517.4933 532.72156Q517.4933 536.20593 515.96204 537.8778Q514.4464 539.53406 511.8527 539.53406Q509.14957 539.53406 507.63394 537.8778Q506.11832 536.20593 506.11832 532.72156ZM509.96207 532.70593Q509.96207 535.22156 510.5402 536.0653Q510.9777 536.70593 511.75894 536.70593Q512.5558 536.70593 512.97766 536.08093Q513.5558 535.22156 513.5558 532.70593Q513.5558 530.1903 512.9933 529.33093Q512.5558 528.6903 511.75894 528.6903Q510.96207 528.6903 510.5402 529.33093Q509.96207 530.1903 509.96207 532.70593Z" fill-rule="nonzero"/><path fill="#000000" d="M168.37358 423.4181L163.43608 423.4181L163.43608 404.80872Q160.71733 407.33997 157.04546 408.5431L157.04546 404.05872Q158.98296 403.43372 161.24858 401.6681Q163.5142 399.90247 164.35796 397.5431L168.37358 397.5431L168.37358 423.4181ZM175.84233 417.46497L180.62358 416.93372Q180.79546 418.38684 181.52983 419.08997Q182.2642 419.7931 183.48296 419.7931Q185.0142 419.7931 186.0767 418.38684Q187.15483 416.9806 187.4517 412.55872Q185.59233 414.71497 182.79546 414.71497Q179.7642 414.71497 177.54546 412.37122Q175.34233 410.02747 175.34233 406.26184Q175.34233 402.33997 177.67046 399.94934Q179.99858 397.5431 183.60796 397.5431Q187.52983 397.5431 190.04546 400.57434Q192.56108 403.6056 192.56108 410.5431Q192.56108 417.62122 189.93608 420.74622Q187.31108 423.87122 183.10796 423.87122Q180.09233 423.87122 178.21733 422.26184Q176.35796 420.65247 175.84233 417.46497ZM187.0142 406.6681Q187.0142 404.27747 185.92046 402.96497Q184.8267 401.63684 183.37358 401.63684Q182.0142 401.63684 181.10796 402.71497Q180.2017 403.7931 180.2017 406.26184Q180.2017 408.76184 181.18608 409.93372Q182.17046 411.08997 183.6392 411.08997Q185.06108 411.08997 186.02983 409.96497Q187.0142 408.83997 187.0142 406.6681ZM196.77983 423.4181L196.77983 418.4806L201.73296 418.4806L201.73296 423.4181L196.77983 423.4181ZM222.42046 418.82434L222.42046 423.4181L205.09233 423.4181Q205.37358 420.80872 206.77983 418.4806Q208.18608 416.15247 212.34233 412.30872Q215.68608 409.19934 216.43608 408.08997Q217.4517 406.55872 217.4517 405.05872Q217.4517 403.4181 216.56108 402.52747Q215.68608 401.63684 214.12358 401.63684Q212.5767 401.63684 211.65483 402.57434Q210.74858 403.49622 210.60796 405.6681L205.68608 405.1681Q206.12358 401.08997 208.43608 399.32434Q210.7642 397.5431 214.23296 397.5431Q218.06108 397.5431 220.23296 399.6056Q222.42046 401.65247 222.42046 404.71497Q222.42046 406.44934 221.79546 408.02747Q221.17046 409.6056 219.81108 411.32434Q218.92046 412.46497 216.5767 414.62122Q214.23296 416.76184 213.60796 417.46497Q212.99858 418.1681 212.60796 418.82434L222.42046 418.82434ZM225.7642 404.01184Q225.7642 400.5431 227.27983 398.88684Q228.81108 397.21497 231.40483 397.21497Q234.09233 397.21497 235.60796 398.87122Q237.1392 400.52747 237.1392 404.01184Q237.1392 407.4806 235.60796 409.15247Q234.09233 410.80872 231.49858 410.80872Q228.81108 410.80872 227.27983 409.15247Q225.7642 407.49622 225.7642 404.01184ZM229.62358 403.9806Q229.62358 406.49622 230.2017 407.3556Q230.6392 407.9806 231.40483 407.9806Q232.2017 407.9806 232.6392 407.3556Q233.2017 406.49622 233.2017 403.9806Q233.2017 401.46497 232.6392 400.62122Q232.2017 399.96497 231.40483 399.96497Q230.6392 399.96497 230.2017 400.6056Q229.62358 401.46497 229.62358 403.9806ZM235.17046 424.40247L231.5142 424.40247L245.24858 397.21497L248.79546 397.21497L235.17046 424.40247ZM243.15483 417.63684Q243.15483 414.1681 244.67046 412.49622Q246.18608 410.82434 248.8267 410.82434Q251.48296 410.82434 252.99858 412.49622Q254.52983 414.1681 254.52983 417.63684Q254.52983 421.12122 252.99858 422.7931Q251.48296 424.44934 248.8892 424.44934Q246.18608 424.44934 244.67046 422.7931Q243.15483 421.12122 243.15483 417.63684ZM246.99858 417.62122Q246.99858 420.13684 247.5767 420.9806Q248.0142 421.62122 248.79546 421.62122Q249.59233 421.62122 250.0142 420.99622Q250.59233 420.13684 250.59233 417.62122Q250.59233 415.1056 250.02983 414.24622Q249.59233 413.6056 248.79546 413.6056Q247.99858 413.6056 247.5767 414.24622Q246.99858 415.1056 246.99858 417.62122Z" fill-rule="nonzero"/><path fill="#000000" d="M229.85872 164.51518L229.85872 169.10893L212.5306 169.10893Q212.81184 166.49956 214.2181 164.17143Q215.62434 161.8433 219.7806 157.99956Q223.12434 154.89018 223.87434 153.7808Q224.88997 152.24956 224.88997 150.74956Q224.88997 149.10893 223.99934 148.2183Q223.12434 147.32768 221.56184 147.32768Q220.01497 147.32768 219.0931 148.26518Q218.18684 149.18706 218.04622 151.35893L213.12434 150.85893Q213.56184 146.7808 215.87434 145.01518Q218.20247 143.23393 221.67122 143.23393Q225.49934 143.23393 227.67122 145.29643Q229.85872 147.3433 229.85872 150.4058Q229.85872 152.14018 229.23372 153.7183Q228.60872 155.29643 227.24934 157.01518Q226.35872 158.1558 224.01497 160.31206Q221.67122 162.45268 221.04622 163.1558Q220.43684 163.85893 220.04622 164.51518L229.85872 164.51518ZM249.85872 164.51518L249.85872 169.10893L232.5306 169.10893Q232.81184 166.49956 234.2181 164.17143Q235.62434 161.8433 239.7806 157.99956Q243.12434 154.89018 243.87434 153.7808Q244.88997 152.24956 244.88997 150.74956Q244.88997 149.10893 243.99934 148.2183Q243.12434 147.32768 241.56184 147.32768Q240.01497 147.32768 239.0931 148.26518Q238.18684 149.18706 238.04622 151.35893L233.12434 150.85893Q233.56184 146.7808 235.87434 145.01518Q238.20247 143.23393 241.67122 143.23393Q245.49934 143.23393 247.67122 145.29643Q249.85872 147.3433 249.85872 150.4058Q249.85872 152.14018 249.23372 153.7183Q248.60872 155.29643 247.24934 157.01518Q246.35872 158.1558 244.01497 160.31206Q241.67122 162.45268 241.04622 163.1558Q240.43684 163.85893 240.04622 164.51518L249.85872 164.51518ZM254.2181 169.10893L254.2181 164.17143L259.1712 164.17143L259.1712 169.10893L254.2181 169.10893ZM279.8587 164.51518L279.8587 169.10893L262.53058 169.10893Q262.81183 166.49956 264.21808 164.17143Q265.62433 161.8433 269.78058 157.99956Q273.12433 154.89018 273.87433 153.7808Q274.88995 152.24956 274.88995 150.74956Q274.88995 149.10893 273.99933 148.2183Q273.12433 147.32768 271.56183 147.32768Q270.01495 147.32768 269.09308 148.26518Q268.18683 149.18706 268.0462 151.35893L263.12433 150.85893Q263.56183 146.7808 265.87433 145.01518Q268.20245 143.23393 271.6712 143.23393Q275.49933 143.23393 277.6712 145.29643Q279.8587 147.3433 279.8587 150.4058Q279.8587 152.14018 279.2337 153.7183Q278.6087 155.29643 277.24933 157.01518Q276.3587 158.1558 274.01495 160.31206Q271.6712 162.45268 271.0462 163.1558Q270.43683 163.85893 270.0462 164.51518L279.8587 164.51518ZM283.20245 149.70268Q283.20245 146.23393 284.71808 144.57768Q286.24933 142.9058 288.84308 142.9058Q291.53058 142.9058 293.0462 144.56206Q294.57745 146.2183 294.57745 149.70268Q294.57745 153.17143 293.0462 154.8433Q291.53058 156.49956 288.93683 156.49956Q286.24933 156.49956 284.71808 154.8433Q283.20245 153.18706 283.20245 149.70268ZM287.06183 149.67143Q287.06183 152.18706 287.63995 153.04643Q288.07745 153.67143 288.84308 153.67143Q289.63995 153.67143 290.07745 153.04643Q290.63995 152.18706 290.63995 149.67143Q290.63995 147.1558 290.07745 146.31206Q289.63995 145.6558 288.84308 145.6558Q288.07745 145.6558 287.63995 146.29643Q287.06183 147.1558 287.06183 149.67143ZM292.6087 170.0933L288.95245 170.0933L302.68683 142.9058L306.2337 142.9058L292.6087 170.0933ZM300.59308 163.32768Q300.59308 159.85893 302.1087 158.18706Q303.62433 156.51518 306.26495 156.51518Q308.9212 156.51518 310.43683 158.18706Q311.96808 159.85893 311.96808 163.32768Q311.96808 166.81206 310.43683 168.48393Q308.9212 170.14018 306.32745 170.14018Q303.62433 170.14018 302.1087 168.48393Q300.59308 166.81206 300.59308 163.32768ZM304.43683 163.31206Q304.43683 165.82768 305.01495 166.67143Q305.45245 167.31206 306.2337 167.31206Q307.03058 167.31206 307.45245 166.68706Q308.03058 165.82768 308.03058 163.31206Q308.03058 160.79643 307.46808 159.93706Q307.03058 159.29643 306.2337 159.29643Q305.43683 159.29643 305.01495 159.93706Q304.43683 160.79643 304.43683 163.31206Z" fill-rule="nonzero"/><path fill="#d0e0e3" d="M137.5 643.5C137.5 646.8137 134.8137 649.5 131.5 649.5C128.1863 649.5 125.5 646.8137 125.5 643.5C125.5 640.1863 128.1863 637.5 131.5 637.5C134.8137 637.5 137.5 640.1863 137.5 643.5Z" fill-rule="nonzero"/><path fill="#1a1a1a" d="M146.15625 645.4375L146.15625 642.90625Q147.39062 641.5469 149.04688 641.5469Q149.65625 641.5469 150.17188 641.6719Q150.70312 641.7969 152.03125 642.34375Q153.375 642.875 153.85938 642.875Q154.40625 642.875 155.125 642.5469Q155.84375 642.2031 156.53125 641.46875L156.53125 644.1094Q156.07812 644.5781 155.26562 645.0Q154.46875 645.40625 153.60938 645.40625Q153.125 645.40625 152.65625 645.2969Q152.1875 645.1719 151.1875 644.7344Q149.6875 644.0781 148.82812 644.0781Q147.45312 644.0781 146.15625 645.4375ZM167.625 647.9531L167.625 650.5L158.0 650.5Q158.15625 649.0469 158.9375 647.7656Q159.71875 646.46875 162.01562 644.3281Q163.875 642.59375 164.29688 641.9844Q164.85938 641.1406 164.85938 640.2969Q164.85938 639.3906 164.35938 638.90625Q163.875 638.40625 163.01562 638.40625Q162.15625 638.40625 161.64062 638.9219Q161.14062 639.4375 161.0625 640.6406L158.32812 640.3594Q158.5625 638.09375 159.84375 637.1094Q161.14062 636.125 163.07812 636.125Q165.20312 636.125 166.40625 637.2656Q167.625 638.40625 167.625 640.1094Q167.625 641.0781 167.26562 641.9531Q166.92188 642.8281 166.17188 643.78125Q165.67188 644.4219 164.375 645.6094Q163.07812 646.7969 162.73438 647.1875Q162.39062 647.5781 162.17188 647.9531L167.625 647.9531ZM174.73438 650.5L174.73438 647.625L168.875 647.625L168.875 645.21875L175.07812 636.125L177.39062 636.125L177.39062 645.2031L179.17188 645.2031L179.17188 647.625L177.39062 647.625L177.39062 650.5L174.73438 650.5ZM174.73438 645.2031L174.73438 640.3125L171.4375 645.2031L174.73438 645.2031Z" fill-rule="nonzero"/><path fill="#1a1a1a" d="M197.17188 651.90625Q195.34375 651.90625 193.78125 650.0625Q192.65625 651.2031 190.32812 652.5L188.84375 650.34375Q191.23438 649.0625 192.29688 648.0469Q191.0625 645.4219 190.92188 642.84375L184.45312 642.84375L184.45312 646.1875Q184.45312 650.09375 182.17188 652.46875L180.4375 650.7344Q182.07812 648.9219 182.07812 645.7969L182.07812 640.5469L190.82812 640.5469L190.82812 639.71875L181.375 639.71875L181.375 637.4219L184.34375 637.4219L184.34375 634.2969L186.26562 634.2969Q187.9375 634.5 186.71875 635.375L186.71875 637.4219L188.79688 637.4219L188.79688 633.5156L190.71875 633.5156Q192.39062 633.71875 191.17188 634.59375L191.17188 634.9219L196.5625 634.9219L196.5625 637.21875L191.17188 637.21875L191.17188 637.4219L198.35938 637.4219L198.35938 639.71875L195.9375 639.5156Q196.125 639.3906 196.67188 640.21875L196.35938 640.5469L198.28125 640.5469L198.28125 642.84375L193.29688 642.84375Q193.35938 644.6875 194.01562 646.0625Q194.60938 645.15625 195.28125 643.03125L197.32812 644.0625Q198.26562 644.9844 197.15625 645.15625Q196.67188 646.4531 195.42188 648.2031Q196.10938 649.0625 196.54688 649.0625Q196.5625 649.0625 196.73438 647.15625L199.0 648.1094Q198.71875 651.90625 197.17188 651.90625ZM183.34375 649.8906Q184.51562 647.5469 184.79688 645.4219L186.76562 646.0469Q188.26562 646.6875 186.92188 647.1875Q186.70312 648.7344 185.45312 650.9375L183.34375 649.8906ZM193.45312 639.71875L193.20312 639.71875L193.20312 640.5469L194.09375 640.6875Q194.03125 640.7969 193.01562 640.1719L193.45312 639.71875ZM191.01562 643.28125L191.01562 645.5781L188.98438 645.5781L188.98438 650.7969Q188.98438 652.1406 187.48438 652.1406L185.65625 652.1406L185.29688 649.84375L186.9375 649.84375Q186.9375 649.9375 186.84375 649.9375L186.84375 645.5781L184.1875 645.5781L184.1875 643.28125L191.01562 643.28125ZM190.07812 649.9531Q189.45312 648.0781 188.5 646.34375L190.42188 645.2656Q191.51562 646.8594 192.10938 648.53125L190.07812 649.9531Z" fill-rule="nonzero"/><path fill="#3c78d8" d="M227.5 643.5C227.5 646.8137 224.8137 649.5 221.5 649.5C218.1863 649.5 215.5 646.8137 215.5 643.5C215.5 640.1863 218.1863 637.5 221.5 637.5C224.8137 637.5 227.5 640.1863 227.5 643.5Z" fill-rule="nonzero"/><path fill="#1a1a1a" d="M245.625 647.9531L245.625 650.5L236.0 650.5Q236.15625 649.0469 236.9375 647.7656Q237.71875 646.46875 240.01562 644.3281Q241.875 642.59375 242.29688 641.9844Q242.85938 641.1406 242.85938 640.2969Q242.85938 639.3906 242.35938 638.90625Q241.875 638.40625 241.01562 638.40625Q240.15625 638.40625 239.64062 638.9219Q239.14062 639.4375 239.0625 640.6406L236.32812 640.3594Q236.5625 638.09375 237.84375 637.1094Q239.14062 636.125 241.07812 636.125Q243.20312 636.125 244.40625 637.2656Q245.625 638.40625 245.625 640.1094Q245.625 641.0781 245.26562 641.9531Q244.92188 642.8281 244.17188 643.78125Q243.67188 644.4219 242.375 645.6094Q241.07812 646.7969 240.73438 647.1875Q240.39062 647.5781 240.17188 647.9531L245.625 647.9531ZM247.39062 646.8125L250.125 646.53125Q250.23438 647.46875 250.8125 648.0156Q251.39062 648.5469 252.14062 648.5469Q253.0 648.5469 253.59375 647.8594Q254.20312 647.15625 254.20312 645.75Q254.20312 644.4219 253.60938 643.7656Q253.01562 643.1094 252.0625 643.1094Q250.89062 643.1094 249.95312 644.15625L247.71875 643.8281L249.125 636.375L256.39062 636.375L256.39062 638.9531L251.20312 638.9531L250.78125 641.375Q251.70312 640.9219 252.65625 640.9219Q254.48438 640.9219 255.75 642.25Q257.01562 643.5781 257.01562 645.6875Q257.01562 647.46875 256.0 648.84375Q254.59375 650.75 252.10938 650.75Q250.14062 650.75 248.89062 649.6875Q247.64062 648.6094 247.39062 646.8125Z" fill-rule="nonzero"/><path fill="#1a1a1a" d="M275.17188 651.90625Q273.34375 651.90625 271.78125 650.0625Q270.65625 651.2031 268.32812 652.5L266.84375 650.34375Q269.23438 649.0625 270.29688 648.0469Q269.0625 645.4219 268.92188 642.84375L262.45312 642.84375L262.45312 646.1875Q262.45312 650.09375 260.17188 652.46875L258.4375 650.7344Q260.07812 648.9219 260.07812 645.7969L260.07812 640.5469L268.82812 640.5469L268.82812 639.71875L259.375 639.71875L259.375 637.4219L262.34375 637.4219L262.34375 634.2969L264.26562 634.2969Q265.9375 634.5 264.71875 635.375L264.71875 637.4219L266.79688 637.4219L266.79688 633.5156L268.71875 633.5156Q270.39062 633.71875 269.17188 634.59375L269.17188 634.9219L274.5625 634.9219L274.5625 637.21875L269.17188 637.21875L269.17188 637.4219L276.35938 637.4219L276.35938 639.71875L273.9375 639.5156Q274.125 639.3906 274.67188 640.21875L274.35938 640.5469L276.28125 640.5469L276.28125 642.84375L271.29688 642.84375Q271.35938 644.6875 272.01562 646.0625Q272.60938 645.15625 273.28125 643.03125L275.32812 644.0625Q276.26562 644.9844 275.15625 645.15625Q274.67188 646.4531 273.42188 648.2031Q274.10938 649.0625 274.54688 649.0625Q274.5625 649.0625 274.73438 647.15625L277.0 648.1094Q276.71875 651.90625 275.17188 651.90625ZM261.34375 649.8906Q262.51562 647.5469 262.79688 645.4219L264.76562 646.0469Q266.26562 646.6875 264.92188 647.1875Q264.70312 648.7344 263.45312 650.9375L261.34375 649.8906ZM271.45312 639.71875L271.20312 639.71875L271.20312 640.5469L272.09375 640.6875Q272.03125 640.7969 271.01562 640.1719L271.45312 639.71875ZM269.01562 643.28125L269.01562 645.5781L266.98438 645.5781L266.98438 650.7969Q266.98438 652.1406 265.48438 652.1406L263.65625 652.1406L263.29688 649.84375L264.9375 649.84375Q264.9375 649.9375 264.84375 649.9375L264.84375 645.5781L262.1875 645.5781L262.1875 643.28125L269.01562 643.28125ZM268.07812 649.9531Q267.45312 648.0781 266.5 646.34375L268.42188 645.2656Q269.51562 646.8594 270.10938 648.53125L268.07812 649.9531ZM284.23438 640.15625Q285.90625 640.15625 287.95312 641.3906Q289.96875 642.5781 291.26562 642.5781Q292.10938 642.5781 293.01562 641.6875Q293.4375 641.25 294.10938 640.0L296.34375 641.90625Q295.23438 643.40625 294.28125 644.2969Q292.90625 645.5781 291.03125 645.5781Q289.59375 645.5781 287.15625 644.1094Q285.45312 643.0781 284.39062 643.0781Q283.25 643.0781 282.67188 643.7969Q281.95312 644.65625 281.78125 645.5156L279.32812 643.9844Q280.15625 642.4219 281.29688 641.3594Q282.59375 640.15625 284.23438 640.15625Z" fill-rule="nonzero"/><path fill="#1a1a1a" d="M307.625 647.9531L307.625 650.5L298.0 650.5Q298.15625 649.0469 298.9375 647.7656Q299.71875 646.46875 302.01562 644.3281Q303.875 642.59375 304.29688 641.9844Q304.85938 641.1406 304.85938 640.2969Q304.85938 639.3906 304.35938 638.90625Q303.875 638.40625 303.01562 638.40625Q302.15625 638.40625 301.64062 638.9219Q301.14062 639.4375 301.0625 640.6406L298.32812 640.3594Q298.5625 638.09375 299.84375 637.1094Q301.14062 636.125 303.07812 636.125Q305.20312 636.125 306.40625 637.2656Q307.625 638.40625 307.625 640.1094Q307.625 641.0781 307.26562 641.9531Q306.92188 642.8281 306.17188 643.78125Q305.67188 644.4219 304.375 645.6094Q303.07812 646.7969 302.73438 647.1875Q302.39062 647.5781 302.17188 647.9531L307.625 647.9531ZM309.40625 647.1875L312.0625 646.8906Q312.15625 647.7031 312.5625 648.09375Q312.98438 648.4844 313.65625 648.4844Q314.5 648.4844 315.09375 647.7031Q315.70312 646.9219 315.85938 644.46875Q314.82812 645.6719 313.28125 645.6719Q311.59375 645.6719 310.35938 644.375Q309.14062 643.0625 309.14062 640.96875Q309.14062 638.7969 310.42188 637.46875Q311.71875 636.125 313.71875 636.125Q315.90625 636.125 317.29688 637.8125Q318.70312 639.5 318.70312 643.34375Q318.70312 647.28125 317.23438 649.0156Q315.78125 650.75 313.45312 650.75Q311.76562 650.75 310.73438 649.8594Q309.70312 648.96875 309.40625 647.1875ZM315.625 641.1875Q315.625 639.8594 315.01562 639.1406Q314.40625 638.40625 313.59375 638.40625Q312.84375 638.40625 312.32812 639.0Q311.82812 639.59375 311.82812 640.96875Q311.82812 642.3594 312.375 643.0156Q312.92188 643.65625 313.75 643.65625Q314.53125 643.65625 315.07812 643.03125Q315.625 642.40625 315.625 641.1875Z" fill-rule="nonzero"/><path fill="#1a1a1a" d="M337.17188 651.90625Q335.34375 651.90625 333.78125 650.0625Q332.65625 651.2031 330.32812 652.5L328.84375 650.34375Q331.23438 649.0625 332.29688 648.0469Q331.0625 645.4219 330.92188 642.84375L324.45312 642.84375L324.45312 646.1875Q324.45312 650.09375 322.17188 652.46875L320.4375 650.7344Q322.07812 648.9219 322.07812 645.7969L322.07812 640.5469L330.82812 640.5469L330.82812 639.71875L321.375 639.71875L321.375 637.4219L324.34375 637.4219L324.34375 634.2969L326.26562 634.2969Q327.9375 634.5 326.71875 635.375L326.71875 637.4219L328.79688 637.4219L328.79688 633.5156L330.71875 633.5156Q332.39062 633.71875 331.17188 634.59375L331.17188 634.9219L336.5625 634.9219L336.5625 637.21875L331.17188 637.21875L331.17188 637.4219L338.35938 637.4219L338.35938 639.71875L335.9375 639.5156Q336.125 639.3906 336.67188 640.21875L336.35938 640.5469L338.28125 640.5469L338.28125 642.84375L333.29688 642.84375Q333.35938 644.6875 334.01562 646.0625Q334.60938 645.15625 335.28125 643.03125L337.32812 644.0625Q338.26562 644.9844 337.15625 645.15625Q336.67188 646.4531 335.42188 648.2031Q336.10938 649.0625 336.54688 649.0625Q336.5625 649.0625 336.73438 647.15625L339.0 648.1094Q338.71875 651.90625 337.17188 651.90625ZM323.34375 649.8906Q324.51562 647.5469 324.79688 645.4219L326.76562 646.0469Q328.26562 646.6875 326.92188 647.1875Q326.70312 648.7344 325.45312 650.9375L323.34375 649.8906ZM333.45312 639.71875L333.20312 639.71875L333.20312 640.5469L334.09375 640.6875Q334.03125 640.7969 333.01562 640.1719L333.45312 639.71875ZM331.01562 643.28125L331.01562 645.5781L328.98438 645.5781L328.98438 650.7969Q328.98438 652.1406 327.48438 652.1406L325.65625 652.1406L325.29688 649.84375L326.9375 649.84375Q326.9375 649.9375 326.84375 649.9375L326.84375 645.5781L324.1875 645.5781L324.1875 643.28125L331.01562 643.28125ZM330.07812 649.9531Q329.45312 648.0781 328.5 646.34375L330.42188 645.2656Q331.51562 646.8594 332.10938 648.53125L330.07812 649.9531Z" fill-rule="nonzero"/><path fill="#4285f4" d="M367.5 643.5C367.5 646.8137 364.81372 649.5 361.5 649.5C358.18628 649.5 355.5 646.8137 355.5 643.5C355.5 640.1863 358.18628 637.5 361.5 637.5C364.81372 637.5 367.5 640.1863 367.5 643.5Z" fill-rule="nonzero"/><path fill="#1a1a1a" d="M376.25 646.7031L378.90625 646.375Q379.03125 647.3906 379.59375 647.9375Q380.15625 648.46875 380.9375 648.46875Q381.79688 648.46875 382.375 647.8281Q382.95312 647.1719 382.95312 646.0781Q382.95312 645.0469 382.39062 644.4531Q381.84375 643.84375 381.03125 643.84375Q380.51562 643.84375 379.78125 644.0469L380.07812 641.8125Q381.1875 641.84375 381.76562 641.3281Q382.35938 640.8125 382.35938 639.96875Q382.35938 639.2344 381.92188 638.8125Q381.5 638.375 380.79688 638.375Q380.09375 638.375 379.59375 638.875Q379.09375 639.3594 378.98438 640.2969L376.45312 639.8594Q376.71875 638.5625 377.25 637.7969Q377.78125 637.0156 378.73438 636.5781Q379.6875 636.125 380.875 636.125Q382.89062 636.125 384.10938 637.40625Q385.125 638.46875 385.125 639.7969Q385.125 641.6875 383.0625 642.7969Q384.29688 643.0625 385.03125 643.9844Q385.76562 644.90625 385.76562 646.2031Q385.76562 648.09375 384.39062 649.4219Q383.01562 650.75 380.95312 650.75Q379.01562 650.75 377.73438 649.625Q376.45312 648.5 376.25 646.7031ZM391.98438 636.125Q394.0625 636.125 395.23438 637.6094Q396.64062 639.3594 396.64062 643.4375Q396.64062 647.5 395.23438 649.28125Q394.0625 650.75 391.98438 650.75Q389.90625 650.75 388.625 649.1406Q387.34375 647.53125 387.34375 643.40625Q387.34375 639.3594 388.75 637.59375Q389.90625 636.125 391.98438 636.125ZM391.98438 638.40625Q391.48438 638.40625 391.09375 638.71875Q390.70312 639.03125 390.5 639.8594Q390.21875 640.9219 390.21875 643.4375Q390.21875 645.9531 390.46875 646.90625Q390.71875 647.84375 391.09375 648.15625Q391.48438 648.46875 391.98438 648.46875Q392.48438 648.46875 392.875 648.15625Q393.26562 647.8281 393.48438 647.0156Q393.76562 645.9531 393.76562 643.4375Q393.76562 640.9219 393.51562 639.9844Q393.26562 639.03125 392.875 638.71875Q392.48438 638.40625 391.98438 638.40625Z" fill-rule="nonzero"/><path fill="#1a1a1a" d="M404.23438 640.15625Q405.90625 640.15625 407.95312 641.3906Q409.96875 642.5781 411.26562 642.5781Q412.10938 642.5781 413.01562 641.6875Q413.4375 641.25 414.10938 640.0L416.34375 641.90625Q415.23438 643.40625 414.28125 644.2969Q412.90625 645.5781 411.03125 645.5781Q409.59375 645.5781 407.15625 644.1094Q405.45312 643.0781 404.39062 643.0781Q403.25 643.0781 402.67188 643.7969Q401.95312 644.65625 401.78125 645.5156L399.32812 643.9844Q400.15625 642.4219 401.29688 641.3594Q402.59375 640.15625 404.23438 640.15625Z" fill-rule="nonzero"/><path fill="#1a1a1a" d="M418.25 646.7031L420.90625 646.375Q421.03125 647.3906 421.59375 647.9375Q422.15625 648.46875 422.9375 648.46875Q423.79688 648.46875 424.375 647.8281Q424.95312 647.1719 424.95312 646.0781Q424.95312 645.0469 424.39062 644.4531Q423.84375 643.84375 423.03125 643.84375Q422.51562 643.84375 421.78125 644.0469L422.07812 641.8125Q423.1875 641.84375 423.76562 641.3281Q424.35938 640.8125 424.35938 639.96875Q424.35938 639.2344 423.92188 638.8125Q423.5 638.375 422.79688 638.375Q422.09375 638.375 421.59375 638.875Q421.09375 639.3594 420.98438 640.2969L418.45312 639.8594Q418.71875 638.5625 419.25 637.7969Q419.78125 637.0156 420.73438 636.5781Q421.6875 636.125 422.875 636.125Q424.89062 636.125 426.10938 637.40625Q427.125 638.46875 427.125 639.7969Q427.125 641.6875 425.0625 642.7969Q426.29688 643.0625 427.03125 643.9844Q427.76562 644.90625 427.76562 646.2031Q427.76562 648.09375 426.39062 649.4219Q425.01562 650.75 422.95312 650.75Q421.01562 650.75 419.73438 649.625Q418.45312 648.5 418.25 646.7031ZM434.73438 650.5L434.73438 647.625L428.875 647.625L428.875 645.21875L435.07812 636.125L437.39062 636.125L437.39062 645.2031L439.17188 645.2031L439.17188 647.625L437.39062 647.625L437.39062 650.5L434.73438 650.5ZM434.73438 645.2031L434.73438 640.3125L431.4375 645.2031L434.73438 645.2031Z" fill-rule="nonzero"/><path fill="#1a1a1a" d="M457.17188 651.90625Q455.34375 651.90625 453.78125 650.0625Q452.65625 651.2031 450.32812 652.5L448.84375 650.34375Q451.23438 649.0625 452.29688 648.0469Q451.0625 645.4219 450.92188 642.84375L444.45312 642.84375L444.45312 646.1875Q444.45312 650.09375 442.17188 652.46875L440.4375 650.7344Q442.07812 648.9219 442.07812 645.7969L442.07812 640.5469L450.82812 640.5469L450.82812 639.71875L441.375 639.71875L441.375 637.4219L444.34375 637.4219L444.34375 634.2969L446.26562 634.2969Q447.9375 634.5 446.71875 635.375L446.71875 637.4219L448.79688 637.4219L448.79688 633.5156L450.71875 633.5156Q452.39062 633.71875 451.17188 634.59375L451.17188 634.9219L456.5625 634.9219L456.5625 637.21875L451.17188 637.21875L451.17188 637.4219L458.35938 637.4219L458.35938 639.71875L455.9375 639.5156Q456.125 639.3906 456.67188 640.21875L456.35938 640.5469L458.28125 640.5469L458.28125 642.84375L453.29688 642.84375Q453.35938 644.6875 454.01562 646.0625Q454.60938 645.15625 455.28125 643.03125L457.32812 644.0625Q458.26562 644.9844 457.15625 645.15625Q456.67188 646.4531 455.42188 648.2031Q456.10938 649.0625 456.54688 649.0625Q456.5625 649.0625 456.73438 647.15625L459.0 648.1094Q458.71875 651.90625 457.17188 651.90625ZM443.34375 649.8906Q444.51562 647.5469 444.79688 645.4219L446.76562 646.0469Q448.26562 646.6875 446.92188 647.1875Q446.70312 648.7344 445.45312 650.9375L443.34375 649.8906ZM453.45312 639.71875L453.20312 639.71875L453.20312 640.5469L454.09375 640.6875Q454.03125 640.7969 453.01562 640.1719L453.45312 639.71875ZM451.01562 643.28125L451.01562 645.5781L448.98438 645.5781L448.98438 650.7969Q448.98438 652.1406 447.48438 652.1406L445.65625 652.1406L445.29688 649.84375L446.9375 649.84375Q446.9375 649.9375 446.84375 649.9375L446.84375 645.5781L444.1875 645.5781L444.1875 643.28125L451.01562 643.28125ZM450.07812 649.9531Q449.45312 648.0781 448.5 646.34375L450.42188 645.2656Q451.51562 646.8594 452.10938 648.53125L450.07812 649.9531Z" fill-rule="nonzero"/><path fill="#a4c2f4" d="M487.5 643.5C487.5 646.8137 484.81372 649.5 481.5 649.5C478.18628 649.5 475.5 646.8137 475.5 643.5C475.5 640.1863 478.18628 637.5 481.5 637.5C484.81372 637.5 487.5 640.1863 487.5 643.5Z" fill-rule="nonzero"/><path fill="#1a1a1a" d="M496.25 646.7031L498.90625 646.375Q499.03125 647.3906 499.59375 647.9375Q500.15625 648.46875 500.9375 648.46875Q501.79688 648.46875 502.375 647.8281Q502.95312 647.1719 502.95312 646.0781Q502.95312 645.0469 502.39062 644.4531Q501.84375 643.84375 501.03125 643.84375Q500.51562 643.84375 499.78125 644.0469L500.07812 641.8125Q501.1875 641.84375 501.76562 641.3281Q502.35938 640.8125 502.35938 639.96875Q502.35938 639.2344 501.92188 638.8125Q501.5 638.375 500.79688 638.375Q500.09375 638.375 499.59375 638.875Q499.09375 639.3594 498.98438 640.2969L496.45312 639.8594Q496.71875 638.5625 497.25 637.7969Q497.78125 637.0156 498.73438 636.5781Q499.6875 636.125 500.875 636.125Q502.89062 636.125 504.10938 637.40625Q505.125 638.46875 505.125 639.7969Q505.125 641.6875 503.0625 642.7969Q504.29688 643.0625 505.03125 643.9844Q505.76562 644.90625 505.76562 646.2031Q505.76562 648.09375 504.39062 649.4219Q503.01562 650.75 500.95312 650.75Q499.01562 650.75 497.73438 649.625Q496.45312 648.5 496.25 646.7031ZM507.39062 646.8125L510.125 646.53125Q510.23438 647.46875 510.8125 648.0156Q511.39062 648.5469 512.1406 648.5469Q513.0 648.5469 513.59375 647.8594Q514.2031 647.15625 514.2031 645.75Q514.2031 644.4219 513.6094 643.7656Q513.0156 643.1094 512.0625 643.1094Q510.89062 643.1094 509.95312 644.15625L507.71875 643.8281L509.125 636.375L516.3906 636.375L516.3906 638.9531L511.20312 638.9531L510.78125 641.375Q511.70312 640.9219 512.65625 640.9219Q514.4844 640.9219 515.75 642.25Q517.0156 643.5781 517.0156 645.6875Q517.0156 647.46875 516.0 648.84375Q514.59375 650.75 512.1094 650.75Q510.14062 650.75 508.89062 649.6875Q507.64062 648.6094 507.39062 646.8125Z" fill-rule="nonzero"/><path fill="#1a1a1a" d="M524.2344 640.15625Q525.90625 640.15625 527.9531 641.3906Q529.96875 642.5781 531.2656 642.5781Q532.1094 642.5781 533.0156 641.6875Q533.4375 641.25 534.1094 640.0L536.34375 641.90625Q535.2344 643.40625 534.28125 644.2969Q532.90625 645.5781 531.03125 645.5781Q529.59375 645.5781 527.15625 644.1094Q525.4531 643.0781 524.3906 643.0781Q523.25 643.0781 522.6719 643.7969Q521.9531 644.65625 521.78125 645.5156L519.3281 643.9844Q520.15625 642.4219 521.2969 641.3594Q522.59375 640.15625 524.2344 640.15625Z" fill-rule="nonzero"/><path fill="#1a1a1a" d="M538.25 646.7031L540.90625 646.375Q541.03125 647.3906 541.59375 647.9375Q542.15625 648.46875 542.9375 648.46875Q543.7969 648.46875 544.375 647.8281Q544.9531 647.1719 544.9531 646.0781Q544.9531 645.0469 544.3906 644.4531Q543.84375 643.84375 543.03125 643.84375Q542.5156 643.84375 541.78125 644.0469L542.0781 641.8125Q543.1875 641.84375 543.7656 641.3281Q544.3594 640.8125 544.3594 639.96875Q544.3594 639.2344 543.9219 638.8125Q543.5 638.375 542.7969 638.375Q542.09375 638.375 541.59375 638.875Q541.09375 639.3594 540.9844 640.2969L538.4531 639.8594Q538.71875 638.5625 539.25 637.7969Q539.78125 637.0156 540.7344 636.5781Q541.6875 636.125 542.875 636.125Q544.8906 636.125 546.1094 637.40625Q547.125 638.46875 547.125 639.7969Q547.125 641.6875 545.0625 642.7969Q546.2969 643.0625 547.03125 643.9844Q547.7656 644.90625 547.7656 646.2031Q547.7656 648.09375 546.3906 649.4219Q545.0156 650.75 542.9531 650.75Q541.0156 650.75 539.7344 649.625Q538.4531 648.5 538.25 646.7031ZM549.40625 647.1875L552.0625 646.8906Q552.15625 647.7031 552.5625 648.09375Q552.9844 648.4844 553.65625 648.4844Q554.5 648.4844 555.09375 647.7031Q555.7031 646.9219 555.8594 644.46875Q554.8281 645.6719 553.28125 645.6719Q551.59375 645.6719 550.3594 644.375Q549.1406 643.0625 549.1406 640.96875Q549.1406 638.7969 550.4219 637.46875Q551.71875 636.125 553.71875 636.125Q555.90625 636.125 557.2969 637.8125Q558.7031 639.5 558.7031 643.34375Q558.7031 647.28125 557.2344 649.0156Q555.78125 650.75 553.4531 650.75Q551.7656 650.75 550.7344 649.8594Q549.7031 648.96875 549.40625 647.1875ZM555.625 641.1875Q555.625 639.8594 555.0156 639.1406Q554.40625 638.40625 553.59375 638.40625Q552.84375 638.40625 552.3281 639.0Q551.8281 639.59375 551.8281 640.96875Q551.8281 642.3594 552.375 643.0156Q552.9219 643.65625 553.75 643.65625Q554.53125 643.65625 555.0781 643.03125Q555.625 642.40625 555.625 641.1875Z" fill-rule="nonzero"/><path fill="#1a1a1a" d="M577.1719 651.90625Q575.34375 651.90625 573.78125 650.0625Q572.65625 651.2031 570.3281 652.5L568.84375 650.34375Q571.2344 649.0625 572.2969 648.0469Q571.0625 645.4219 570.9219 642.84375L564.4531 642.84375L564.4531 646.1875Q564.4531 650.09375 562.1719 652.46875L560.4375 650.7344Q562.0781 648.9219 562.0781 645.7969L562.0781 640.5469L570.8281 640.5469L570.8281 639.71875L561.375 639.71875L561.375 637.4219L564.34375 637.4219L564.34375 634.2969L566.2656 634.2969Q567.9375 634.5 566.71875 635.375L566.71875 637.4219L568.7969 637.4219L568.7969 633.5156L570.71875 633.5156Q572.3906 633.71875 571.1719 634.59375L571.1719 634.9219L576.5625 634.9219L576.5625 637.21875L571.1719 637.21875L571.1719 637.4219L578.3594 637.4219L578.3594 639.71875L575.9375 639.5156Q576.125 639.3906 576.6719 640.21875L576.3594 640.5469L578.28125 640.5469L578.28125 642.84375L573.2969 642.84375Q573.3594 644.6875 574.0156 646.0625Q574.6094 645.15625 575.28125 643.03125L577.3281 644.0625Q578.2656 644.9844 577.15625 645.15625Q576.6719 646.4531 575.4219 648.2031Q576.1094 649.0625 576.5469 649.0625Q576.5625 649.0625 576.7344 647.15625L579.0 648.1094Q578.71875 651.90625 577.1719 651.90625ZM563.34375 649.8906Q564.5156 647.5469 564.7969 645.4219L566.7656 646.0469Q568.2656 646.6875 566.9219 647.1875Q566.7031 648.7344 565.4531 650.9375L563.34375 649.8906ZM573.4531 639.71875L573.2031 639.71875L573.2031 640.5469L574.09375 640.6875Q574.03125 640.7969 573.0156 640.1719L573.4531 639.71875ZM571.0156 643.28125L571.0156 645.5781L568.9844 645.5781L568.9844 650.7969Q568.9844 652.1406 567.4844 652.1406L565.65625 652.1406L565.2969 649.84375L566.9375 649.84375Q566.9375 649.9375 566.84375 649.9375L566.84375 645.5781L564.1875 645.5781L564.1875 643.28125L571.0156 643.28125ZM570.0781 649.9531Q569.4531 648.0781 568.5 646.34375L570.4219 645.2656Q571.5156 646.8594 572.1094 648.53125L570.0781 649.9531Z" fill-rule="nonzero"/><path fill="#6d9eeb" d="M607.5 643.5C607.5 646.8137 604.8137 649.5 601.5 649.5C598.1863 649.5 595.5 646.8137 595.5 643.5C595.5 640.1863 598.1863 637.5 601.5 637.5C604.8137 637.5 607.5 640.1863 607.5 643.5Z" fill-rule="nonzero"/><path fill="#1a1a1a" d="M621.7344 650.5L621.7344 647.625L615.875 647.625L615.875 645.21875L622.0781 636.125L624.3906 636.125L624.3906 645.2031L626.1719 645.2031L626.1719 647.625L624.3906 647.625L624.3906 650.5L621.7344 650.5ZM621.7344 645.2031L621.7344 640.3125L618.4375 645.2031L621.7344 645.2031ZM631.9844 636.125Q634.0625 636.125 635.2344 637.6094Q636.6406 639.3594 636.6406 643.4375Q636.6406 647.5 635.2344 649.28125Q634.0625 650.75 631.9844 650.75Q629.90625 650.75 628.625 649.1406Q627.34375 647.53125 627.34375 643.40625Q627.34375 639.3594 628.75 637.59375Q629.90625 636.125 631.9844 636.125ZM631.9844 638.40625Q631.4844 638.40625 631.09375 638.71875Q630.7031 639.03125 630.5 639.8594Q630.21875 640.9219 630.21875 643.4375Q630.21875 645.9531 630.46875 646.90625Q630.71875 647.84375 631.09375 648.15625Q631.4844 648.46875 631.9844 648.46875Q632.4844 648.46875 632.875 648.15625Q633.2656 647.8281 633.4844 647.0156Q633.7656 645.9531 633.7656 643.4375Q633.7656 640.9219 633.5156 639.9844Q633.2656 639.03125 632.875 638.71875Q632.4844 638.40625 631.9844 638.40625Z" fill-rule="nonzero"/><path fill="#1a1a1a" d="M655.1719 651.90625Q653.34375 651.90625 651.78125 650.0625Q650.65625 651.2031 648.3281 652.5L646.84375 650.34375Q649.2344 649.0625 650.2969 648.0469Q649.0625 645.4219 648.9219 642.84375L642.4531 642.84375L642.4531 646.1875Q642.4531 650.09375 640.1719 652.46875L638.4375 650.7344Q640.0781 648.9219 640.0781 645.7969L640.0781 640.5469L648.8281 640.5469L648.8281 639.71875L639.375 639.71875L639.375 637.4219L642.34375 637.4219L642.34375 634.2969L644.2656 634.2969Q645.9375 634.5 644.71875 635.375L644.71875 637.4219L646.7969 637.4219L646.7969 633.5156L648.71875 633.5156Q650.3906 633.71875 649.1719 634.59375L649.1719 634.9219L654.5625 634.9219L654.5625 637.21875L649.1719 637.21875L649.1719 637.4219L656.3594 637.4219L656.3594 639.71875L653.9375 639.5156Q654.125 639.3906 654.6719 640.21875L654.3594 640.5469L656.28125 640.5469L656.28125 642.84375L651.2969 642.84375Q651.3594 644.6875 652.0156 646.0625Q652.6094 645.15625 653.28125 643.03125L655.3281 644.0625Q656.2656 644.9844 655.15625 645.15625Q654.6719 646.4531 653.4219 648.2031Q654.1094 649.0625 654.5469 649.0625Q654.5625 649.0625 654.7344 647.15625L657.0 648.1094Q656.71875 651.90625 655.1719 651.90625ZM641.34375 649.8906Q642.5156 647.5469 642.7969 645.4219L644.7656 646.0469Q646.2656 646.6875 644.9219 647.1875Q644.7031 648.7344 643.4531 650.9375L641.34375 649.8906ZM651.4531 639.71875L651.2031 639.71875L651.2031 640.5469L652.09375 640.6875Q652.03125 640.7969 651.0156 640.1719L651.4531 639.71875ZM649.0156 643.28125L649.0156 645.5781L646.9844 645.5781L646.9844 650.7969Q646.9844 652.1406 645.4844 652.1406L643.65625 652.1406L643.2969 649.84375L644.9375 649.84375Q644.9375 649.9375 644.84375 649.9375L644.84375 645.5781L642.1875 645.5781L642.1875 643.28125L649.0156 643.28125ZM648.0781 649.9531Q647.4531 648.0781 646.5 646.34375L648.4219 645.2656Q649.5156 646.8594 650.1094 648.53125L648.0781 649.9531ZM664.2344 640.15625Q665.90625 640.15625 667.9531 641.3906Q669.96875 642.5781 671.2656 642.5781Q672.1094 642.5781 673.0156 641.6875Q673.4375 641.25 674.1094 640.0L676.34375 641.90625Q675.2344 643.40625 674.28125 644.2969Q672.90625 645.5781 671.03125 645.5781Q669.59375 645.5781 667.15625 644.1094Q665.4531 643.0781 664.3906 643.0781Q663.25 643.0781 662.6719 643.7969Q661.9531 644.65625 661.78125 645.5156L659.3281 643.9844Q660.15625 642.4219 661.2969 641.3594Q662.59375 640.15625 664.2344 640.15625Z" fill-rule="nonzero"/></svg>