<svg version="1.1" viewBox="0.0 0.0 798.0 690.0" fill="none" stroke="none" stroke-linecap="square" stroke-miterlimit="10" width="798" height="690" xmlns:xlink="http://www.w3.org/1999/xlink" xmlns="http://www.w3.org/2000/svg"><path fill="#ffffff" d="M0 0L798.0 0L798.0 690.0L0 690.0L0 0Z" fill-rule="nonzero"/><path fill="#ff0000" d="M121.01663 250.126C153.59901 123.22603 267.98392 34.5 399.0 34.5L399.0 178.0C333.49194 178.0 276.2995 222.36302 260.00833 285.813Z" fill-rule="nonzero"/><path fill="#4285f4" d="M399.0 34.5C521.6767 34.5 630.78937 112.4731 670.5265 228.5357C710.2636 344.5983 671.8379 473.08508 574.9043 548.2745C477.97073 623.46387 343.9645 628.729 241.43045 561.3767C138.8964 494.0244 90.50819 368.94855 121.01663 250.126L260.00833 285.813C244.75409 345.22427 268.94818 407.7622 320.21524 441.43835C371.48227 475.1145 438.48538 472.48193 486.95215 434.88724C535.41895 397.29254 554.6318 333.04916 534.76324 275.01785C514.8947 216.98656 460.33835 178.0 399.0 178.0Z" fill-rule="nonzero"/><path fill="#000000" d="M480.9595 483.25275L480.9595 478.659L497.85013 478.659L497.85013 482.25275Q495.75638 484.29962 493.5845 488.159Q491.42825 492.00275 490.28763 496.3465Q489.16263 500.67462 489.17825 504.08087L484.42825 504.08087Q484.53763 498.73712 486.61575 493.19025Q488.7095 487.62775 492.19388 483.25275L480.9595 483.25275ZM501.06888 498.12775L505.85013 497.5965Q506.022 499.04962 506.75638 499.75275Q507.49075 500.45587 508.7095 500.45587Q510.24075 500.45587 511.30325 499.04962Q512.38135 497.64337 512.6782 493.2215Q510.81888 495.37775 508.022 495.37775Q504.99075 495.37775 502.772 493.034Q500.56888 490.69025 500.56888 486.92462Q500.56888 483.00275 502.897 480.61212Q505.22513 478.20587 508.8345 478.20587Q512.75635 478.20587 515.272 481.23712Q517.7876 484.26837 517.7876 491.20587Q517.7876 498.284 515.1626 501.409Q512.5376 504.534 508.3345 504.534Q505.31888 504.534 503.44388 502.92462Q501.5845 501.31525 501.06888 498.12775ZM512.2407 487.33087Q512.2407 484.94025 511.147 483.62775Q510.05325 482.29962 508.60013 482.29962Q507.24075 482.29962 506.3345 483.37775Q505.42825 484.45587 505.42825 486.92462Q505.42825 489.42462 506.41263 490.5965Q507.397 491.75275 508.86575 491.75275Q510.28763 491.75275 511.25638 490.62775Q512.2407 489.50275 512.2407 487.33087ZM522.00635 504.08087L522.00635 499.14337L526.9595 499.14337L526.9595 504.08087L522.00635 504.08087ZM539.3032 478.20587Q543.0532 478.20587 545.1626 480.87775Q547.6782 484.034 547.6782 491.37775Q547.6782 498.69025 545.147 501.87775Q543.0532 504.51837 539.3032 504.51837Q535.5532 504.51837 533.2407 501.62775Q530.94385 498.73712 530.94385 491.31525Q530.94385 484.034 533.4751 480.8465Q535.56885 478.20587 539.3032 478.20587ZM539.3032 482.29962Q538.4126 482.29962 537.7095 482.87775Q537.00635 483.44025 536.6157 484.92462Q536.1157 486.83087 536.1157 491.37775Q536.1157 495.909 536.56885 497.61212Q537.022 499.29962 537.7095 499.86212Q538.4126 500.42462 539.3032 500.42462Q540.2095 500.42462 540.9126 499.86212Q541.6157 499.284 541.9907 497.79962Q542.50635 495.909 542.50635 491.37775Q542.50635 486.83087 542.0532 485.14337Q541.6001 483.44025 540.897 482.87775Q540.2095 482.29962 539.3032 482.29962ZM550.9907 484.67462Q550.9907 481.20587 552.50635 479.54962Q554.0376 477.87775 556.63135 477.87775Q559.31885 477.87775 560.8345 479.534Q562.3657 481.19025 562.3657 484.67462Q562.3657 488.14337 560.8345 489.81525Q559.31885 491.4715 556.7251 491.4715Q554.0376 491.4715 552.50635 489.81525Q550.9907 488.159 550.9907 484.67462ZM554.8501 484.64337Q554.8501 487.159 555.4282 488.01837Q555.8657 488.64337 556.63135 488.64337Q557.4282 488.64337 557.8657 488.01837Q558.4282 487.159 558.4282 484.64337Q558.4282 482.12775 557.8657 481.284Q557.4282 480.62775 556.63135 480.62775Q555.8657 480.62775 555.4282 481.26837Q554.8501 482.12775 554.8501 484.64337ZM560.397 505.06525L556.7407 505.06525L570.4751 477.87775L574.022 477.87775L560.397 505.06525ZM568.38135 498.29962Q568.38135 494.83087 569.897 493.159Q571.4126 491.48712 574.0532 491.48712Q576.7095 491.48712 578.2251 493.159Q579.75635 494.83087 579.75635 498.29962Q579.75635 501.784 578.2251 503.45587Q576.7095 505.11212 574.1157 505.11212Q571.4126 505.11212 569.897 503.45587Q568.38135 501.784 568.38135 498.29962ZM572.2251 498.284Q572.2251 500.79962 572.8032 501.64337Q573.2407 502.284 574.022 502.284Q574.81885 502.284 575.2407 501.659Q575.81885 500.79962 575.81885 498.284Q575.81885 495.76837 575.25635 494.909Q574.81885 494.26837 574.022 494.26837Q573.2251 494.26837 572.8032 494.909Q572.2251 495.76837 572.2251 498.284Z" fill-rule="nonzero"/><path fill="#000000" d="M233.79051 159.32538L233.79051 163.91913L216.46239 163.91913Q216.74364 161.30975 218.14989 158.98163Q219.55614 156.6535 223.71239 152.80975Q227.05614 149.70038 227.80614 148.591Q228.82176 147.05975 228.82176 145.55975Q228.82176 143.91913 227.93114 143.0285Q227.05614 142.13788 225.49364 142.13788Q223.94676 142.13788 223.02489 143.07538Q222.11864 143.99725 221.97801 146.16913L217.05614 145.66913Q217.49364 141.591 219.80614 139.82538Q222.13426 138.04413 225.60301 138.04413Q229.43114 138.04413 231.60301 140.10663Q233.79051 142.1535 233.79051 145.216Q233.79051 146.95038 233.16551 148.5285Q232.54051 150.10663 231.18114 151.82538Q230.29051 152.966 227.94676 155.12225Q225.60301 157.26288 224.97801 157.966Q224.36864 158.66913 223.97801 159.32538L233.79051 159.32538ZM249.74364 163.91913L244.80614 163.91913L244.80614 145.30975Q242.08739 147.841 238.41551 149.04413L238.41551 144.55975Q240.35301 143.93475 242.61864 142.16913Q244.88426 140.4035 245.72801 138.04413L249.74364 138.04413L249.74364 163.91913ZM258.1499 163.91913L258.1499 158.98163L263.10303 158.98163L263.10303 163.91913L258.1499 163.91913ZM275.44678 138.04413Q279.19678 138.04413 281.30615 140.716Q283.82178 143.87225 283.82178 151.216Q283.82178 158.5285 281.29053 161.716Q279.19678 164.35663 275.44678 164.35663Q271.69678 164.35663 269.38428 161.466Q267.0874 158.57538 267.0874 151.1535Q267.0874 143.87225 269.61865 140.68475Q271.7124 138.04413 275.44678 138.04413ZM275.44678 142.13788Q274.55615 142.13788 273.85303 142.716Q273.1499 143.2785 272.75928 144.76288Q272.25928 146.66913 272.25928 151.216Q272.25928 155.74725 272.7124 157.45038Q273.16553 159.13788 273.85303 159.70038Q274.55615 160.26288 275.44678 160.26288Q276.35303 160.26288 277.05615 159.70038Q277.75928 159.12225 278.13428 157.63788Q278.6499 155.74725 278.6499 151.216Q278.6499 146.66913 278.19678 144.98163Q277.74365 143.2785 277.04053 142.716Q276.35303 142.13788 275.44678 142.13788ZM287.13428 144.51288Q287.13428 141.04413 288.6499 139.38788Q290.18115 137.716 292.7749 137.716Q295.4624 137.716 296.97803 139.37225Q298.50928 141.0285 298.50928 144.51288Q298.50928 147.98163 296.97803 149.6535Q295.4624 151.30975 292.86865 151.30975Q290.18115 151.30975 288.6499 149.6535Q287.13428 147.99725 287.13428 144.51288ZM290.99365 144.48163Q290.99365 146.99725 291.57178 147.85663Q292.00928 148.48163 292.7749 148.48163Q293.57178 148.48163 294.00928 147.85663Q294.57178 146.99725 294.57178 144.48163Q294.57178 141.966 294.00928 141.12225Q293.57178 140.466 292.7749 140.466Q292.00928 140.466 291.57178 141.10663Q290.99365 141.966 290.99365 144.48163ZM296.54053 164.9035L292.88428 164.9035L306.61865 137.716L310.16553 137.716L296.54053 164.9035ZM304.5249 158.13788Q304.5249 154.66913 306.04053 152.99725Q307.55615 151.32538 310.19678 151.32538Q312.85303 151.32538 314.36865 152.99725Q315.8999 154.66913 315.8999 158.13788Q315.8999 161.62225 314.36865 163.29413Q312.85303 164.95038 310.25928 164.95038Q307.55615 164.95038 306.04053 163.29413Q304.5249 161.62225 304.5249 158.13788ZM308.36865 158.12225Q308.36865 160.63788 308.94678 161.48163Q309.38428 162.12225 310.16553 162.12225Q310.9624 162.12225 311.38428 161.49725Q311.9624 160.63788 311.9624 158.12225Q311.9624 155.60663 311.3999 154.74725Q310.9624 154.10663 310.16553 154.10663Q309.36865 154.10663 308.94678 154.74725Q308.36865 155.60663 308.36865 158.12225Z" fill-rule="nonzero"/><path fill="#4285f4" d="M363.0 643.5C363.0 646.8137 360.31372 649.5 357.0 649.5C353.68628 649.5 351.0 646.8137 351.0 643.5C351.0 640.1863 353.68628 637.5 357.0 637.5C360.31372 637.5 363.0 640.1863 363.0 643.5Z" fill-rule="nonzero"/><path fill="#1a1a1a" d="M386.79688 646.125L382.14062 646.125Q381.375 651.3906 373.48438 652.5781L372.5625 650.0469Q378.8125 649.5625 379.70312 646.125L373.57812 646.125L373.57812 644.0625L380.09375 644.0625Q380.14062 643.5 380.1875 642.9219L376.89062 642.9219L376.89062 643.625L374.51562 643.625L374.51562 634.1406L388.375 634.1406L388.375 643.3906L386.0 643.3906L386.0 642.9219L382.5625 642.9219Q382.51562 643.5625 382.46875 644.0625L389.60938 644.0625L388.6875 650.0781Q388.39062 651.9844 385.70312 651.9844L383.10938 651.9844L383.10938 649.6875L385.625 649.6875Q386.28125 649.6875 386.3125 649.34375L386.79688 646.125ZM386.0 636.2031L382.67188 636.2031L382.67188 637.4219L386.0 637.4219L386.0 636.2031ZM380.29688 636.2031L376.89062 636.2031L376.89062 637.4219L380.29688 637.4219L380.29688 636.2031ZM380.29688 639.4844L376.89062 639.4844L376.89062 640.8594L380.29688 640.8594L380.29688 639.4844ZM382.67188 639.4844L382.67188 640.8594L386.0 640.8594L386.0 639.4844L382.67188 639.4844Z" fill-rule="nonzero"/><path fill="#ff0000" d="M419.0 643.5C419.0 646.8137 416.31372 649.5 413.0 649.5C409.68628 649.5 407.0 646.8137 407.0 643.5C407.0 640.1863 409.68628 637.5 413.0 637.5C416.31372 637.5 419.0 640.1863 419.0 643.5Z" fill-rule="nonzero"/><path fill="#1a1a1a" d="M446.40625 638.2031L446.40625 640.7344L442.42188 640.7344Q441.6875 643.7656 440.40625 645.71875Q443.0 647.09375 445.76562 648.96875L444.23438 651.3906Q441.40625 649.1875 438.8125 647.78125Q436.28125 650.3906 429.45312 651.40625L428.67188 648.71875Q434.51562 648.1406 436.45312 646.5625Q435.29688 645.9375 433.6875 645.4844L432.85938 646.8125L430.57812 645.5469Q432.67188 642.40625 433.29688 640.7344L428.32812 640.7344L428.32812 638.2031L434.25 638.2031Q435.21875 635.96875 435.78125 633.8281L437.84375 634.3125Q439.78125 635.09375 437.95312 635.5781Q437.39062 637.1875 436.98438 638.2031L446.40625 638.2031ZM434.78125 643.4219Q436.375 643.84375 438.125 644.65625Q439.375 642.90625 439.79688 640.7344L436.03125 640.7344Q435.51562 641.90625 434.78125 643.4219Z" fill-rule="nonzero"/></svg>