<svg version="1.1" viewBox="0.0 0.0 798.0 690.0" fill="none" stroke="none" stroke-linecap="square" stroke-miterlimit="10" width="798" height="690" xmlns:xlink="http://www.w3.org/1999/xlink" xmlns="http://www.w3.org/2000/svg"><path fill="#ffffff" d="M0 0L798.0 0L798.0 690.0L0 690.0L0 0Z" fill-rule="nonzero"/><path fill="#d0e0e3" d="M399.0 34.5C447.34204 34.5 494.90085 46.711025 537.2633 69.999985L468.13165 195.74998C446.95044 184.10551 423.17102 178.0 399.0 178.0Z" fill-rule="nonzero"/><path fill="#6fa8dc" d="M537.2633 69.999985C670.0312 142.98973 723.1945 306.6097 658.68536 443.69867L528.8427 382.59933C561.0973 314.05487 534.51556 232.24487 468.13165 195.74998Z" fill-rule="nonzero"/><path fill="#cfe2f3" d="M156.67789 167.71771C209.32399 84.76072 300.7479 34.5 399.0 34.5L399.0 178.0C349.87396 178.0 304.162 203.13036 277.83893 244.60886Z" fill-rule="nonzero"/><path fill="#a4c2f4" d="M177.8627 504.44067C98.60799 408.6382 90.05536 272.69803 156.67789 167.71771L277.83893 244.60886C244.52768 297.099 248.804 365.0691 288.43134 412.97034Z" fill-rule="nonzero"/><path fill="#4285f4" d="M658.68536 443.69867C616.8517 532.5998 532.448 593.92267 434.97064 606.23694C337.4933 618.55115 240.49095 580.1452 177.8627 504.44067L288.43134 412.97034C319.74548 450.8226 368.24664 470.02557 416.98532 463.86847C465.724 457.71133 507.92584 427.0499 528.8427 382.59933Z" fill-rule="nonzero"/><path fill="#000000" d="M417.08685 110.47387Q415.16498 109.66137 414.28998 108.25512Q413.4306 106.833244 413.4306 105.145744Q413.4306 102.270744 415.44623 100.395744Q417.46185 98.50512 421.16498 98.50512Q424.83685 98.50512 426.8681 100.395744Q428.89935 102.270744 428.89935 105.145744Q428.89935 106.94262 427.96185 108.34887Q427.03998 109.739494 425.35248 110.47387Q427.4931 111.333244 428.60248 112.989494Q429.72748 114.645744 429.72748 116.801994Q429.72748 120.364494 427.44623 122.59887Q425.1806 124.833244 421.39935 124.833244Q417.88373 124.833244 415.53998 122.989494Q412.77435 120.81762 412.77435 117.020744Q412.77435 114.926994 413.8056 113.176994Q414.85248 111.426994 417.08685 110.47387ZM418.10248 105.50512Q418.10248 106.97387 418.9306 107.801994Q419.77435 108.63012 421.16498 108.63012Q422.57123 108.63012 423.41498 107.801994Q424.25873 106.958244 424.25873 105.489494Q424.25873 104.09887 423.41498 103.270744Q422.58685 102.426994 421.21185 102.426994Q419.78998 102.426994 418.94623 103.270744Q418.10248 104.114494 418.10248 105.50512ZM417.64935 116.53637Q417.64935 118.583244 418.69623 119.72387Q419.7431 120.864494 421.3056 120.864494Q422.83685 120.864494 423.83685 119.770744Q424.83685 118.66137 424.83685 116.59887Q424.83685 114.78637 423.82123 113.69262Q422.8056 112.583244 421.2431 112.583244Q419.4306 112.583244 418.53998 113.833244Q417.64935 115.083244 417.64935 116.53637ZM433.89935 124.38012L433.89935 119.44262L438.85248 119.44262L438.85248 124.38012L433.89935 124.38012ZM451.19623 98.50512Q454.94623 98.50512 457.0556 101.176994Q459.57123 104.333244 459.57123 111.676994Q459.57123 118.989494 457.03998 122.176994Q454.94623 124.81762 451.19623 124.81762Q447.44623 124.81762 445.13373 121.926994Q442.83685 119.03637 442.83685 111.614494Q442.83685 104.333244 445.3681 101.145744Q447.46185 98.50512 451.19623 98.50512ZM451.19623 102.59887Q450.3056 102.59887 449.60248 103.176994Q448.89935 103.739494 448.50873 105.22387Q448.00873 107.13012 448.00873 111.676994Q448.00873 116.208244 448.46185 117.91137Q448.91498 119.59887 449.60248 120.16137Q450.3056 120.72387 451.19623 120.72387Q452.10248 120.72387 452.8056 120.16137Q453.50873 119.583244 453.88373 118.09887Q454.39935 116.208244 454.39935 111.676994Q454.39935 107.13012 453.94623 105.44262Q453.4931 103.739494 452.78998 103.176994Q452.10248 102.59887 451.19623 102.59887ZM462.88373 104.97387Q462.88373 101.50512 464.39935 99.84887Q465.9306 98.176994 468.52435 98.176994Q471.21185 98.176994 472.72748 99.833244Q474.25873 101.489494 474.25873 104.97387Q474.25873 108.44262 472.72748 110.114494Q471.21185 111.770744 468.6181 111.770744Q465.9306 111.770744 464.39935 110.114494Q462.88373 108.458244 462.88373 104.97387ZM466.7431 104.94262Q466.7431 107.458244 467.32123 108.31762Q467.75873 108.94262 468.52435 108.94262Q469.32123 108.94262 469.75873 108.31762Q470.32123 107.458244 470.32123 104.94262Q470.32123 102.426994 469.75873 101.583244Q469.32123 100.926994 468.52435 100.926994Q467.75873 100.926994 467.32123 101.56762Q466.7431 102.426994 466.7431 104.94262ZM472.28998 125.364494L468.63373 125.364494L482.3681 98.176994L485.91498 98.176994L472.28998 125.364494ZM480.27435 118.59887Q480.27435 115.13012 481.78998 113.458244Q483.3056 111.78637 485.94623 111.78637Q488.60248 111.78637 490.1181 113.458244Q491.64935 115.13012 491.64935 118.59887Q491.64935 122.083244 490.1181 123.75512Q488.60248 125.41137 486.00873 125.41137Q483.3056 125.41137 481.78998 123.75512Q480.27435 122.083244 480.27435 118.59887ZM484.1181 118.583244Q484.1181 121.09887 484.69623 121.94262Q485.13373 122.583244 485.91498 122.583244Q486.71185 122.583244 487.13373 121.958244Q487.71185 121.09887 487.71185 118.583244Q487.71185 116.06762 487.14935 115.208244Q486.71185 114.56762 485.91498 114.56762Q485.1181 114.56762 484.69623 115.208244Q484.1181 116.06762 484.1181 118.583244Z" fill-rule="nonzero"/><path fill="#000000" d="M570.43365 262.89035L570.43365 267.4841L553.1055 267.4841Q553.3868 264.87473 554.793 262.5466Q556.1993 260.21848 560.3555 256.37473Q563.6993 253.26535 564.4493 252.15598Q565.4649 250.62473 565.4649 249.12473Q565.4649 247.4841 564.5743 246.59348Q563.6993 245.70285 562.1368 245.70285Q560.5899 245.70285 559.668 246.64035Q558.7618 247.56223 558.62115 249.7341L553.6993 249.2341Q554.1368 245.15598 556.4493 243.39035Q558.7774 241.6091 562.24615 241.6091Q566.0743 241.6091 568.24615 243.6716Q570.43365 245.71848 570.43365 248.78098Q570.43365 250.51535 569.80865 252.09348Q569.18365 253.6716 567.8243 255.39035Q566.93365 256.53098 564.5899 258.68723Q562.24615 260.82785 561.62115 261.53098Q561.0118 262.2341 560.62115 262.89035L570.43365 262.89035ZM583.43365 267.4841L583.43365 262.2966L572.8868 262.2966L572.8868 257.96848L584.05865 241.6091L588.2149 241.6091L588.2149 257.95285L591.418 257.95285L591.418 262.2966L588.2149 262.2966L588.2149 267.4841L583.43365 267.4841ZM583.43365 257.95285L583.43365 249.15598L577.5118 257.95285L583.43365 257.95285ZM594.793 267.4841L594.793 262.5466L599.74615 262.5466L599.74615 267.4841L594.793 267.4841ZM612.0899 241.6091Q615.8399 241.6091 617.9493 244.28098Q620.4649 247.43723 620.4649 254.78098Q620.4649 262.09348 617.93365 265.28098Q615.8399 267.9216 612.0899 267.9216Q608.3399 267.9216 606.0274 265.03098Q603.7305 262.14035 603.7305 254.71848Q603.7305 247.43723 606.2618 244.24973Q608.3555 241.6091 612.0899 241.6091ZM612.0899 245.70285Q611.1993 245.70285 610.49615 246.28098Q609.793 246.84348 609.4024 248.32785Q608.9024 250.2341 608.9024 254.78098Q608.9024 259.31223 609.3555 261.01535Q609.80865 262.70285 610.49615 263.26535Q611.1993 263.82785 612.0899 263.82785Q612.99615 263.82785 613.6993 263.26535Q614.4024 262.68723 614.7774 261.20285Q615.293 259.31223 615.293 254.78098Q615.293 250.2341 614.8399 248.5466Q614.3868 246.84348 613.68365 246.28098Q612.99615 245.70285 612.0899 245.70285ZM623.7774 248.07785Q623.7774 244.6091 625.293 242.95285Q626.8243 241.28098 629.418 241.28098Q632.1055 241.28098 633.62115 242.93723Q635.1524 244.59348 635.1524 248.07785Q635.1524 251.5466 633.62115 253.21848Q632.1055 254.87473 629.5118 254.87473Q626.8243 254.87473 625.293 253.21848Q623.7774 251.56223 623.7774 248.07785ZM627.6368 248.0466Q627.6368 250.56223 628.2149 251.4216Q628.6524 252.0466 629.418 252.0466Q630.2149 252.0466 630.6524 251.4216Q631.2149 250.56223 631.2149 248.0466Q631.2149 245.53098 630.6524 244.68723Q630.2149 244.03098 629.418 244.03098Q628.6524 244.03098 628.2149 244.6716Q627.6368 245.53098 627.6368 248.0466ZM633.18365 268.46848L629.5274 268.46848L643.2618 241.28098L646.80865 241.28098L633.18365 268.46848ZM641.168 261.70285Q641.168 258.2341 642.68365 256.56223Q644.1993 254.89035 646.8399 254.89035Q649.49615 254.89035 651.0118 256.56223Q652.543 258.2341 652.543 261.70285Q652.543 265.18723 651.0118 266.8591Q649.49615 268.51535 646.9024 268.51535Q644.1993 268.51535 642.68365 266.8591Q641.168 265.18723 641.168 261.70285ZM645.0118 261.68723Q645.0118 264.20285 645.5899 265.0466Q646.0274 265.68723 646.80865 265.68723Q647.6055 265.68723 648.0274 265.06223Q648.6055 264.20285 648.6055 261.68723Q648.6055 259.1716 648.043 258.31223Q647.6055 257.6716 646.80865 257.6716Q646.0118 257.6716 645.5899 258.31223Q645.0118 259.1716 645.0118 261.68723Z" fill-rule="nonzero"/><path fill="#000000" d="M376.2561 544.0238L381.03735 543.4457Q381.2561 545.2738 382.2561 546.24255Q383.27173 547.2113 384.6936 547.2113Q386.22485 547.2113 387.2561 546.05505Q388.30298 544.8832 388.30298 542.9144Q388.30298 541.05505 387.30298 539.9769Q386.30298 538.8832 384.86548 538.8832Q383.91235 538.8832 382.59985 539.24255L383.14673 535.2269Q385.14673 535.2738 386.1936 534.3519Q387.2561 533.43005 387.2561 531.8988Q387.2561 530.6019 386.47485 529.8363Q385.70923 529.05505 384.42798 529.05505Q383.16235 529.05505 382.2561 529.93005Q381.36548 530.80505 381.17798 532.49255L376.61548 531.7269Q377.09985 529.3832 378.05298 527.99255Q379.0061 526.5863 380.72485 525.7894Q382.4436 524.99255 384.5686 524.99255Q388.20923 524.99255 390.39673 527.30505Q392.20923 529.2113 392.20923 531.6019Q392.20923 534.99255 388.5061 537.0082Q390.72485 537.49255 392.03735 539.1488Q393.36548 540.7894 393.36548 543.1332Q393.36548 546.5238 390.8811 548.9144Q388.41235 551.30505 384.72485 551.30505Q381.22485 551.30505 378.91235 549.2894Q376.61548 547.2738 376.2561 544.0238ZM413.11548 546.2738L413.11548 550.86755L395.78735 550.86755Q396.0686 548.2582 397.47485 545.93005Q398.8811 543.6019 403.03735 539.7582Q406.3811 536.6488 407.1311 535.5394Q408.14673 534.0082 408.14673 532.5082Q408.14673 530.86755 407.2561 529.9769Q406.3811 529.0863 404.8186 529.0863Q403.27173 529.0863 402.34985 530.0238Q401.4436 530.9457 401.30298 533.11755L396.3811 532.61755Q396.8186 528.5394 399.1311 526.7738Q401.45923 524.99255 404.92798 524.99255Q408.7561 524.99255 410.92798 527.05505Q413.11548 529.1019 413.11548 532.1644Q413.11548 533.8988 412.49048 535.4769Q411.86548 537.05505 410.5061 538.7738Q409.61548 539.9144 407.27173 542.0707Q404.92798 544.2113 404.30298 544.9144Q403.6936 545.61755 403.30298 546.2738L413.11548 546.2738ZM417.47485 550.86755L417.47485 545.93005L422.42798 545.93005L422.42798 550.86755L417.47485 550.86755ZM434.77173 524.99255Q438.52173 524.99255 440.6311 527.6644Q443.14673 530.8207 443.14673 538.1644Q443.14673 545.4769 440.61548 548.6644Q438.52173 551.30505 434.77173 551.30505Q431.02173 551.30505 428.70923 548.4144Q426.41235 545.5238 426.41235 538.1019Q426.41235 530.8207 428.9436 527.6332Q431.03735 524.99255 434.77173 524.99255ZM434.77173 529.0863Q433.8811 529.0863 433.17798 529.6644Q432.47485 530.2269 432.08423 531.7113Q431.58423 533.61755 431.58423 538.1644Q431.58423 542.6957 432.03735 544.3988Q432.49048 546.0863 433.17798 546.6488Q433.8811 547.2113 434.77173 547.2113Q435.67798 547.2113 436.3811 546.6488Q437.08423 546.0707 437.45923 544.5863Q437.97485 542.6957 437.97485 538.1644Q437.97485 533.61755 437.52173 531.93005Q437.0686 530.2269 436.36548 529.6644Q435.67798 529.0863 434.77173 529.0863ZM446.45923 531.4613Q446.45923 527.99255 447.97485 526.3363Q449.5061 524.6644 452.09985 524.6644Q454.78735 524.6644 456.30298 526.3207Q457.83423 527.9769 457.83423 531.4613Q457.83423 534.93005 456.30298 536.6019Q454.78735 538.2582 452.1936 538.2582Q449.5061 538.2582 447.97485 536.6019Q446.45923 534.9457 446.45923 531.4613ZM450.3186 531.43005Q450.3186 533.9457 450.89673 534.80505Q451.33423 535.43005 452.09985 535.43005Q452.89673 535.43005 453.33423 534.80505Q453.89673 533.9457 453.89673 531.43005Q453.89673 528.9144 453.33423 528.0707Q452.89673 527.4144 452.09985 527.4144Q451.33423 527.4144 450.89673 528.05505Q450.3186 528.9144 450.3186 531.43005ZM455.86548 551.8519L452.20923 551.8519L465.9436 524.6644L469.49048 524.6644L455.86548 551.8519ZM463.84985 545.0863Q463.84985 541.61755 465.36548 539.9457Q466.8811 538.2738 469.52173 538.2738Q472.17798 538.2738 473.6936 539.9457Q475.22485 541.61755 475.22485 545.0863Q475.22485 548.5707 473.6936 550.24255Q472.17798 551.8988 469.58423 551.8988Q466.8811 551.8988 465.36548 550.24255Q463.84985 548.5707 463.84985 545.0863ZM467.6936 545.0707Q467.6936 547.5863 468.27173 548.43005Q468.70923 549.0707 469.49048 549.0707Q470.28735 549.0707 470.70923 548.4457Q471.28735 547.5863 471.28735 545.0707Q471.28735 542.55505 470.72485 541.6957Q470.28735 541.05505 469.49048 541.05505Q468.6936 541.05505 468.27173 541.6957Q467.6936 542.55505 467.6936 545.0707Z" fill-rule="nonzero"/><path fill="#000000" d="M150.8935 342.9219L150.8935 347.51566L133.56537 347.51566Q133.84662 344.90628 135.25287 342.57816Q136.65912 340.25003 140.81537 336.40628Q144.15912 333.2969 144.90912 332.18753Q145.92474 330.65628 145.92474 329.15628Q145.92474 327.51566 145.03412 326.62503Q144.15912 325.7344 142.59662 325.7344Q141.04974 325.7344 140.12787 326.6719Q139.22162 327.59378 139.081 329.76566L134.15912 329.26566Q134.59662 325.18753 136.90912 323.4219Q139.23724 321.64066 142.706 321.64066Q146.53412 321.64066 148.706 323.70316Q150.8935 325.75003 150.8935 328.81253Q150.8935 330.5469 150.2685 332.12503Q149.6435 333.70316 148.28412 335.4219Q147.3935 336.56253 145.04974 338.71878Q142.706 340.8594 142.081 341.56253Q141.47162 342.26566 141.081 342.9219L150.8935 342.9219ZM162.54974 321.64066Q166.29974 321.64066 168.40912 324.31253Q170.92474 327.46878 170.92474 334.81253Q170.92474 342.12503 168.3935 345.31253Q166.29974 347.95316 162.54974 347.95316Q158.79974 347.95316 156.48724 345.06253Q154.19037 342.1719 154.19037 334.75003Q154.19037 327.46878 156.72162 324.28128Q158.81537 321.64066 162.54974 321.64066ZM162.54974 325.7344Q161.65912 325.7344 160.956 326.31253Q160.25287 326.87503 159.86224 328.3594Q159.36224 330.26566 159.36224 334.81253Q159.36224 339.34378 159.81537 341.0469Q160.2685 342.7344 160.956 343.2969Q161.65912 343.8594 162.54974 343.8594Q163.456 343.8594 164.15912 343.2969Q164.86224 342.71878 165.23724 341.2344Q165.75287 339.34378 165.75287 334.81253Q165.75287 330.26566 165.29974 328.57816Q164.84662 326.87503 164.1435 326.31253Q163.456 325.7344 162.54974 325.7344ZM175.25287 347.51566L175.25287 342.57816L180.206 342.57816L180.206 347.51566L175.25287 347.51566ZM192.54974 321.64066Q196.29974 321.64066 198.40912 324.31253Q200.92474 327.46878 200.92474 334.81253Q200.92474 342.12503 198.3935 345.31253Q196.29974 347.95316 192.54974 347.95316Q188.79974 347.95316 186.48724 345.06253Q184.19037 342.1719 184.19037 334.75003Q184.19037 327.46878 186.72162 324.28128Q188.81537 321.64066 192.54974 321.64066ZM192.54974 325.7344Q191.65912 325.7344 190.956 326.31253Q190.25287 326.87503 189.86224 328.3594Q189.36224 330.26566 189.36224 334.81253Q189.36224 339.34378 189.81537 341.0469Q190.2685 342.7344 190.956 343.2969Q191.65912 343.8594 192.54974 343.8594Q193.456 343.8594 194.15912 343.2969Q194.86224 342.71878 195.23724 341.2344Q195.75287 339.34378 195.75287 334.81253Q195.75287 330.26566 195.29974 328.57816Q194.84662 326.87503 194.1435 326.31253Q193.456 325.7344 192.54974 325.7344ZM204.23724 328.1094Q204.23724 324.64066 205.75287 322.9844Q207.28412 321.31253 209.87787 321.31253Q212.56537 321.31253 214.081 322.96878Q215.61224 324.62503 215.61224 328.1094Q215.61224 331.57816 214.081 333.25003Q212.56537 334.90628 209.97162 334.90628Q207.28412 334.90628 205.75287 333.25003Q204.23724 331.59378 204.23724 328.1094ZM208.09662 328.07816Q208.09662 330.59378 208.67474 331.45316Q209.11224 332.07816 209.87787 332.07816Q210.67474 332.07816 211.11224 331.45316Q211.67474 330.59378 211.67474 328.07816Q211.67474 325.56253 211.11224 324.71878Q210.67474 324.06253 209.87787 324.06253Q209.11224 324.06253 208.67474 324.70316Q208.09662 325.56253 208.09662 328.07816ZM213.6435 348.50003L209.98724 348.50003L223.72162 321.31253L227.2685 321.31253L213.6435 348.50003ZM221.62787 341.7344Q221.62787 338.26566 223.1435 336.59378Q224.65912 334.9219 227.29974 334.9219Q229.956 334.9219 231.47162 336.59378Q233.00287 338.26566 233.00287 341.7344Q233.00287 345.21878 231.47162 346.89066Q229.956 348.5469 227.36224 348.5469Q224.65912 348.5469 223.1435 346.89066Q221.62787 345.21878 221.62787 341.7344ZM225.47162 341.71878Q225.47162 344.2344 226.04974 345.07816Q226.48724 345.71878 227.2685 345.71878Q228.06537 345.71878 228.48724 345.09378Q229.06537 344.2344 229.06537 341.71878Q229.06537 339.20316 228.50287 338.34378Q228.06537 337.70316 227.2685 337.70316Q226.47162 337.70316 226.04974 338.34378Q225.47162 339.20316 225.47162 341.71878Z" fill-rule="nonzero"/><path fill="#000000" d="M257.9744 145.37498L253.0369 145.37498L253.0369 126.76561Q250.31815 129.29686 246.64627 130.49998L246.64627 126.01561Q248.58377 125.39061 250.8494 123.624985Q253.11502 121.85936 253.95877 119.499985L257.9744 119.499985L257.9744 145.37498ZM282.06815 125.92186L277.2869 126.437485Q277.11502 124.968735 276.36502 124.26561Q275.63065 123.562485 274.45877 123.562485Q272.89627 123.562485 271.80252 124.968735Q270.7244 126.374985 270.44315 130.81248Q272.2869 128.64061 275.0369 128.64061Q278.13065 128.64061 280.33377 130.99998Q282.5369 133.34373 282.5369 137.07811Q282.5369 141.03123 280.20877 143.42186Q277.89627 145.81248 274.25565 145.81248Q270.36502 145.81248 267.8494 142.78123Q265.33377 139.74998 265.33377 132.84373Q265.33377 125.749985 267.94315 122.624985Q270.56815 119.499985 274.75565 119.499985Q277.69315 119.499985 279.61502 121.14061Q281.5369 122.781235 282.06815 125.92186ZM270.86502 136.68748Q270.86502 139.09373 271.9744 140.40623Q273.08377 141.71873 274.50565 141.71873Q275.88065 141.71873 276.7869 140.65623Q277.70877 139.57811 277.70877 137.12498Q277.70877 134.60936 276.7244 133.45311Q275.74002 132.28123 274.25565 132.28123Q272.83377 132.28123 271.8494 133.40623Q270.86502 134.51561 270.86502 136.68748ZM286.38065 145.37498L286.38065 140.43748L291.33377 140.43748L291.33377 145.37498L286.38065 145.37498ZM303.67752 119.499985Q307.42752 119.499985 309.5369 122.17186Q312.05252 125.32811 312.05252 132.67186Q312.05252 139.98436 309.52127 143.17186Q307.42752 145.81248 303.67752 145.81248Q299.92752 145.81248 297.61502 142.92186Q295.31815 140.03123 295.31815 132.60936Q295.31815 125.32811 297.8494 122.14061Q299.94315 119.499985 303.67752 119.499985ZM303.67752 123.593735Q302.7869 123.593735 302.08377 124.17186Q301.38065 124.73436 300.99002 126.218735Q300.49002 128.12498 300.49002 132.67186Q300.49002 137.20311 300.94315 138.90623Q301.39627 140.59373 302.08377 141.15623Q302.7869 141.71873 303.67752 141.71873Q304.58377 141.71873 305.2869 141.15623Q305.99002 140.57811 306.36502 139.09373Q306.88065 137.20311 306.88065 132.67186Q306.88065 128.12498 306.42752 126.437485Q305.9744 124.73436 305.27127 124.17186Q304.58377 123.593735 303.67752 123.593735ZM315.36502 125.968735Q315.36502 122.499985 316.88065 120.843735Q318.4119 119.17186 321.00565 119.17186Q323.69315 119.17186 325.20877 120.82811Q326.74002 122.48436 326.74002 125.968735Q326.74002 129.43748 325.20877 131.10936Q323.69315 132.76561 321.0994 132.76561Q318.4119 132.76561 316.88065 131.10936Q315.36502 129.45311 315.36502 125.968735ZM319.2244 125.937485Q319.2244 128.45311 319.80252 129.31248Q320.24002 129.93748 321.00565 129.93748Q321.80252 129.93748 322.24002 129.31248Q322.80252 128.45311 322.80252 125.937485Q322.80252 123.42186 322.24002 122.57811Q321.80252 121.92186 321.00565 121.92186Q320.24002 121.92186 319.80252 122.562485Q319.2244 123.42186 319.2244 125.937485ZM324.77127 146.35936L321.11502 146.35936L334.8494 119.17186L338.39627 119.17186L324.77127 146.35936ZM332.75565 139.59373Q332.75565 136.12498 334.27127 134.45311Q335.7869 132.78123 338.42752 132.78123Q341.08377 132.78123 342.5994 134.45311Q344.13065 136.12498 344.13065 139.59373Q344.13065 143.07811 342.5994 144.74998Q341.08377 146.40623 338.49002 146.40623Q335.7869 146.40623 334.27127 144.74998Q332.75565 143.07811 332.75565 139.59373ZM336.5994 139.57811Q336.5994 142.09373 337.17752 142.93748Q337.61502 143.57811 338.39627 143.57811Q339.19315 143.57811 339.61502 142.95311Q340.19315 142.09373 340.19315 139.57811Q340.19315 137.06248 339.63065 136.20311Q339.19315 135.56248 338.39627 135.56248Q337.5994 135.56248 337.17752 136.20311Q336.5994 137.06248 336.5994 139.57811Z" fill-rule="nonzero"/><path fill="#d0e0e3" d="M66.5 643.5C66.5 646.8137 63.81371 649.5 60.5 649.5C57.18629 649.5 54.5 646.8137 54.5 643.5C54.5 640.1863 57.18629 637.5 60.5 637.5C63.81371 637.5 66.5 640.1863 66.5 643.5Z" fill-rule="nonzero"/><path fill="#1a1a1a" d="M79.984375 636.125Q82.0625 636.125 83.234375 637.6094Q84.640625 639.3594 84.640625 643.4375Q84.640625 647.5 83.234375 649.28125Q82.0625 650.75 79.984375 650.75Q77.90625 650.75 76.625 649.1406Q75.34375 647.53125 75.34375 643.40625Q75.34375 639.3594 76.75 637.59375Q77.90625 636.125 79.984375 636.125ZM79.984375 638.40625Q79.484375 638.40625 79.09375 638.71875Q78.703125 639.03125 78.5 639.8594Q78.21875 640.9219 78.21875 643.4375Q78.21875 645.9531 78.46875 646.90625Q78.71875 647.84375 79.09375 648.15625Q79.484375 648.46875 79.984375 648.46875Q80.484375 648.46875 80.875 648.15625Q81.265625 647.8281 81.484375 647.0156Q81.765625 645.9531 81.765625 643.4375Q81.765625 640.9219 81.515625 639.9844Q81.265625 639.03125 80.875 638.71875Q80.484375 638.40625 79.984375 638.40625ZM86.15625 645.4375L86.15625 642.90625Q87.390625 641.5469 89.046875 641.5469Q89.65625 641.5469 90.171875 641.6719Q90.703125 641.7969 92.03125 642.34375Q93.375 642.875 93.859375 642.875Q94.40625 642.875 95.125 642.5469Q95.84375 642.2031 96.53125 641.46875L96.53125 644.1094Q96.078125 644.5781 95.265625 645.0Q94.46875 645.40625 93.609375 645.40625Q93.125 645.40625 92.65625 645.2969Q92.1875 645.1719 91.1875 644.7344Q89.6875 644.0781 88.828125 644.0781Q87.453125 644.0781 86.15625 645.4375ZM98.390625 646.8125L101.125 646.53125Q101.234375 647.46875 101.8125 648.0156Q102.390625 648.5469 103.140625 648.5469Q104.0 648.5469 104.59375 647.8594Q105.203125 647.15625 105.203125 645.75Q105.203125 644.4219 104.609375 643.7656Q104.015625 643.1094 103.0625 643.1094Q101.890625 643.1094 100.953125 644.15625L98.71875 643.8281L100.125 636.375L107.390625 636.375L107.390625 638.9531L102.203125 638.9531L101.78125 641.375Q102.703125 640.9219 103.65625 640.9219Q105.484375 640.9219 106.75 642.25Q108.015625 643.5781 108.015625 645.6875Q108.015625 647.46875 107.0 648.84375Q105.59375 650.75 103.109375 650.75Q101.140625 650.75 99.890625 649.6875Q98.640625 648.6094 98.390625 646.8125ZM113.984375 636.125Q116.0625 636.125 117.234375 637.6094Q118.640625 639.3594 118.640625 643.4375Q118.640625 647.5 117.234375 649.28125Q116.0625 650.75 113.984375 650.75Q111.90625 650.75 110.625 649.1406Q109.34375 647.53125 109.34375 643.40625Q109.34375 639.3594 110.75 637.59375Q111.90625 636.125 113.984375 636.125ZM113.984375 638.40625Q113.484375 638.40625 113.09375 638.71875Q112.703125 639.03125 112.5 639.8594Q112.21875 640.9219 112.21875 643.4375Q112.21875 645.9531 112.46875 646.90625Q112.71875 647.84375 113.09375 648.15625Q113.484375 648.46875 113.984375 648.46875Q114.484375 648.46875 114.875 648.15625Q115.265625 647.8281 115.484375 647.0156Q115.765625 645.9531 115.765625 643.4375Q115.765625 640.9219 115.515625 639.9844Q115.265625 639.03125 114.875 638.71875Q114.484375 638.40625 113.984375 638.40625Z" fill-rule="nonzero"/><path fill="#1a1a1a" d="M127.0 637.7656L121.21875 637.7656L121.21875 635.2344L138.75 635.2344L138.75 637.7656L129.60938 637.7656Q129.60938 639.0156 129.5 640.2344L137.34375 640.2344Q137.34375 645.8594 136.46875 648.875Q135.76562 651.4375 133.26562 651.4375L129.875 651.4375L129.42188 648.90625L132.71875 648.90625Q133.73438 648.90625 133.96875 648.1094Q134.57812 646.0469 134.64062 642.7656L129.14062 642.7656Q127.921875 648.5625 122.515625 651.4844L120.875 649.0781Q127.0 646.0156 127.0 638.6875L127.0 637.7656Z" fill-rule="nonzero"/><path fill="#6fa8dc" d="M167.5 643.5C167.5 646.8137 164.8137 649.5 161.5 649.5C158.1863 649.5 155.5 646.8137 155.5 643.5C155.5 640.1863 158.1863 637.5 161.5 637.5C164.8137 637.5 167.5 640.1863 167.5 643.5Z" fill-rule="nonzero"/><path fill="#1a1a1a" d="M176.39062 646.8125L179.125 646.53125Q179.23438 647.46875 179.8125 648.0156Q180.39062 648.5469 181.14062 648.5469Q182.0 648.5469 182.59375 647.8594Q183.20312 647.15625 183.20312 645.75Q183.20312 644.4219 182.60938 643.7656Q182.01562 643.1094 181.0625 643.1094Q179.89062 643.1094 178.95312 644.15625L176.71875 643.8281L178.125 636.375L185.39062 636.375L185.39062 638.9531L180.20312 638.9531L179.78125 641.375Q180.70312 640.9219 181.65625 640.9219Q183.48438 640.9219 184.75 642.25Q186.01562 643.5781 186.01562 645.6875Q186.01562 647.46875 185.0 648.84375Q183.59375 650.75 181.10938 650.75Q179.14062 650.75 177.89062 649.6875Q176.64062 648.6094 176.39062 646.8125ZM191.98438 636.125Q194.0625 636.125 195.23438 637.6094Q196.64062 639.3594 196.64062 643.4375Q196.64062 647.5 195.23438 649.28125Q194.0625 650.75 191.98438 650.75Q189.90625 650.75 188.625 649.1406Q187.34375 647.53125 187.34375 643.40625Q187.34375 639.3594 188.75 637.59375Q189.90625 636.125 191.98438 636.125ZM191.98438 638.40625Q191.48438 638.40625 191.09375 638.71875Q190.70312 639.03125 190.5 639.8594Q190.21875 640.9219 190.21875 643.4375Q190.21875 645.9531 190.46875 646.90625Q190.71875 647.84375 191.09375 648.15625Q191.48438 648.46875 191.98438 648.46875Q192.48438 648.46875 192.875 648.15625Q193.26562 647.8281 193.48438 647.0156Q193.76562 645.9531 193.76562 643.4375Q193.76562 640.9219 193.51562 639.9844Q193.26562 639.03125 192.875 638.71875Q192.48438 638.40625 191.98438 638.40625Z" fill-rule="nonzero"/><path fill="#1a1a1a" d="M205.0 637.7656L199.21875 637.7656L199.21875 635.2344L216.75 635.2344L216.75 637.7656L207.60938 637.7656Q207.60938 639.0156 207.5 640.2344L215.34375 640.2344Q215.34375 645.8594 214.46875 648.875Q213.76562 651.4375 211.26562 651.4375L207.875 651.4375L207.42188 648.90625L210.71875 648.90625Q211.73438 648.90625 211.96875 648.1094Q212.57812 646.0469 212.64062 642.7656L207.14062 642.7656Q205.92188 648.5625 200.51562 651.4844L198.875 649.0781Q205.0 646.0156 205.0 638.6875L205.0 637.7656ZM224.23438 640.15625Q225.90625 640.15625 227.95312 641.3906Q229.96875 642.5781 231.26562 642.5781Q232.10938 642.5781 233.01562 641.6875Q233.4375 641.25 234.10938 640.0L236.34375 641.90625Q235.23438 643.40625 234.28125 644.2969Q232.90625 645.5781 231.03125 645.5781Q229.59375 645.5781 227.15625 644.1094Q225.45312 643.0781 224.39062 643.0781Q223.25 643.0781 222.67188 643.7969Q221.95312 644.65625 221.78125 645.5156L219.32812 643.9844Q220.15625 642.4219 221.29688 641.3594Q222.59375 640.15625 224.23438 640.15625Z" fill-rule="nonzero"/><path fill="#1a1a1a" d="M245.375 650.5L242.625 650.5L242.625 640.15625Q241.125 641.5625 239.07812 642.2344L239.07812 639.75Q240.15625 639.3906 241.40625 638.4219Q242.67188 637.4375 243.14062 636.125L245.375 636.125L245.375 650.5ZM253.98438 636.125Q256.0625 636.125 257.23438 637.6094Q258.64062 639.3594 258.64062 643.4375Q258.64062 647.5 257.23438 649.28125Q256.0625 650.75 253.98438 650.75Q251.90625 650.75 250.625 649.1406Q249.34375 647.53125 249.34375 643.40625Q249.34375 639.3594 250.75 637.59375Q251.90625 636.125 253.98438 636.125ZM253.98438 638.40625Q253.48438 638.40625 253.09375 638.71875Q252.70312 639.03125 252.5 639.8594Q252.21875 640.9219 252.21875 643.4375Q252.21875 645.9531 252.46875 646.90625Q252.71875 647.84375 253.09375 648.15625Q253.48438 648.46875 253.98438 648.46875Q254.48438 648.46875 254.875 648.15625Q255.26562 647.8281 255.48438 647.0156Q255.76562 645.9531 255.76562 643.4375Q255.76562 640.9219 255.51562 639.9844Q255.26562 639.03125 254.875 638.71875Q254.48438 638.40625 253.98438 638.40625ZM264.98438 636.125Q267.0625 636.125 268.23438 637.6094Q269.64062 639.3594 269.64062 643.4375Q269.64062 647.5 268.23438 649.28125Q267.0625 650.75 264.98438 650.75Q262.90625 650.75 261.625 649.1406Q260.34375 647.53125 260.34375 643.40625Q260.34375 639.3594 261.75 637.59375Q262.90625 636.125 264.98438 636.125ZM264.98438 638.40625Q264.48438 638.40625 264.09375 638.71875Q263.70312 639.03125 263.5 639.8594Q263.21875 640.9219 263.21875 643.4375Q263.21875 645.9531 263.46875 646.90625Q263.71875 647.84375 264.09375 648.15625Q264.48438 648.46875 264.98438 648.46875Q265.48438 648.46875 265.875 648.15625Q266.26562 647.8281 266.48438 647.0156Q266.76562 645.9531 266.76562 643.4375Q266.76562 640.9219 266.51562 639.9844Q266.26562 639.03125 265.875 638.71875Q265.48438 638.40625 264.98438 638.40625Z" fill-rule="nonzero"/><path fill="#1a1a1a" d="M278.0 637.7656L272.21875 637.7656L272.21875 635.2344L289.75 635.2344L289.75 637.7656L280.60938 637.7656Q280.60938 639.0156 280.5 640.2344L288.34375 640.2344Q288.34375 645.8594 287.46875 648.875Q286.76562 651.4375 284.26562 651.4375L280.875 651.4375L280.42188 648.90625L283.71875 648.90625Q284.73438 648.90625 284.96875 648.1094Q285.57812 646.0469 285.64062 642.7656L280.14062 642.7656Q278.92188 648.5625 273.51562 651.4844L271.875 649.0781Q278.0 646.0156 278.0 638.6875L278.0 637.7656Z" fill-rule="nonzero"/><path fill="#4285f4" d="M318.5 643.5C318.5 646.8137 315.81372 649.5 312.5 649.5C309.18628 649.5 306.5 646.8137 306.5 643.5C306.5 640.1863 309.18628 637.5 312.5 637.5C315.81372 637.5 318.5 640.1863 318.5 643.5Z" fill-rule="nonzero"/><path fill="#1a1a1a" d="M334.375 650.5L331.625 650.5L331.625 640.15625Q330.125 641.5625 328.07812 642.2344L328.07812 639.75Q329.15625 639.3906 330.40625 638.4219Q331.67188 637.4375 332.14062 636.125L334.375 636.125L334.375 650.5ZM342.98438 636.125Q345.0625 636.125 346.23438 637.6094Q347.64062 639.3594 347.64062 643.4375Q347.64062 647.5 346.23438 649.28125Q345.0625 650.75 342.98438 650.75Q340.90625 650.75 339.625 649.1406Q338.34375 647.53125 338.34375 643.40625Q338.34375 639.3594 339.75 637.59375Q340.90625 636.125 342.98438 636.125ZM342.98438 638.40625Q342.48438 638.40625 342.09375 638.71875Q341.70312 639.03125 341.5 639.8594Q341.21875 640.9219 341.21875 643.4375Q341.21875 645.9531 341.46875 646.90625Q341.71875 647.84375 342.09375 648.15625Q342.48438 648.46875 342.98438 648.46875Q343.48438 648.46875 343.875 648.15625Q344.26562 647.8281 344.48438 647.0156Q344.76562 645.9531 344.76562 643.4375Q344.76562 640.9219 344.51562 639.9844Q344.26562 639.03125 343.875 638.71875Q343.48438 638.40625 342.98438 638.40625ZM353.98438 636.125Q356.0625 636.125 357.23438 637.6094Q358.64062 639.3594 358.64062 643.4375Q358.64062 647.5 357.23438 649.28125Q356.0625 650.75 353.98438 650.75Q351.90625 650.75 350.625 649.1406Q349.34375 647.53125 349.34375 643.40625Q349.34375 639.3594 350.75 637.59375Q351.90625 636.125 353.98438 636.125ZM353.98438 638.40625Q353.48438 638.40625 353.09375 638.71875Q352.70312 639.03125 352.5 639.8594Q352.21875 640.9219 352.21875 643.4375Q352.21875 645.9531 352.46875 646.90625Q352.71875 647.84375 353.09375 648.15625Q353.48438 648.46875 353.98438 648.46875Q354.48438 648.46875 354.875 648.15625Q355.26562 647.8281 355.48438 647.0156Q355.76562 645.9531 355.76562 643.4375Q355.76562 640.9219 355.51562 639.9844Q355.26562 639.03125 354.875 638.71875Q354.48438 638.40625 353.98438 638.40625Z" fill-rule="nonzero"/><path fill="#1a1a1a" d="M367.0 637.7656L361.21875 637.7656L361.21875 635.2344L378.75 635.2344L378.75 637.7656L369.60938 637.7656Q369.60938 639.0156 369.5 640.2344L377.34375 640.2344Q377.34375 645.8594 376.46875 648.875Q375.76562 651.4375 373.26562 651.4375L369.875 651.4375L369.42188 648.90625L372.71875 648.90625Q373.73438 648.90625 373.96875 648.1094Q374.57812 646.0469 374.64062 642.7656L369.14062 642.7656Q367.92188 648.5625 362.51562 651.4844L360.875 649.0781Q367.0 646.0156 367.0 638.6875L367.0 637.7656ZM386.23438 640.15625Q387.90625 640.15625 389.95312 641.3906Q391.96875 642.5781 393.26562 642.5781Q394.10938 642.5781 395.01562 641.6875Q395.4375 641.25 396.10938 640.0L398.34375 641.90625Q397.23438 643.40625 396.28125 644.2969Q394.90625 645.5781 393.03125 645.5781Q391.59375 645.5781 389.15625 644.1094Q387.45312 643.0781 386.39062 643.0781Q385.25 643.0781 384.67188 643.7969Q383.95312 644.65625 383.78125 645.5156L381.32812 643.9844Q382.15625 642.4219 383.29688 641.3594Q384.59375 640.15625 386.23438 640.15625Z" fill-rule="nonzero"/><path fill="#1a1a1a" d="M407.375 650.5L404.625 650.5L404.625 640.15625Q403.125 641.5625 401.07812 642.2344L401.07812 639.75Q402.15625 639.3906 403.40625 638.4219Q404.67188 637.4375 405.14062 636.125L407.375 636.125L407.375 650.5ZM411.39062 646.8125L414.125 646.53125Q414.23438 647.46875 414.8125 648.0156Q415.39062 648.5469 416.14062 648.5469Q417.0 648.5469 417.59375 647.8594Q418.20312 647.15625 418.20312 645.75Q418.20312 644.4219 417.60938 643.7656Q417.01562 643.1094 416.0625 643.1094Q414.89062 643.1094 413.95312 644.15625L411.71875 643.8281L413.125 636.375L420.39062 636.375L420.39062 638.9531L415.20312 638.9531L414.78125 641.375Q415.70312 640.9219 416.65625 640.9219Q418.48438 640.9219 419.75 642.25Q421.01562 643.5781 421.01562 645.6875Q421.01562 647.46875 420.0 648.84375Q418.59375 650.75 416.10938 650.75Q414.14062 650.75 412.89062 649.6875Q411.64062 648.6094 411.39062 646.8125ZM426.98438 636.125Q429.0625 636.125 430.23438 637.6094Q431.64062 639.3594 431.64062 643.4375Q431.64062 647.5 430.23438 649.28125Q429.0625 650.75 426.98438 650.75Q424.90625 650.75 423.625 649.1406Q422.34375 647.53125 422.34375 643.40625Q422.34375 639.3594 423.75 637.59375Q424.90625 636.125 426.98438 636.125ZM426.98438 638.40625Q426.48438 638.40625 426.09375 638.71875Q425.70312 639.03125 425.5 639.8594Q425.21875 640.9219 425.21875 643.4375Q425.21875 645.9531 425.46875 646.90625Q425.71875 647.84375 426.09375 648.15625Q426.48438 648.46875 426.98438 648.46875Q427.48438 648.46875 427.875 648.15625Q428.26562 647.8281 428.48438 647.0156Q428.76562 645.9531 428.76562 643.4375Q428.76562 640.9219 428.51562 639.9844Q428.26562 639.03125 427.875 638.71875Q427.48438 638.40625 426.98438 638.40625Z" fill-rule="nonzero"/><path fill="#1a1a1a" d="M440.0 637.7656L434.21875 637.7656L434.21875 635.2344L451.75 635.2344L451.75 637.7656L442.60938 637.7656Q442.60938 639.0156 442.5 640.2344L450.34375 640.2344Q450.34375 645.8594 449.46875 648.875Q448.76562 651.4375 446.26562 651.4375L442.875 651.4375L442.42188 648.90625L445.71875 648.90625Q446.73438 648.90625 446.96875 648.1094Q447.57812 646.0469 447.64062 642.7656L442.14062 642.7656Q440.92188 648.5625 435.51562 651.4844L433.875 649.0781Q440.0 646.0156 440.0 638.6875L440.0 637.7656Z" fill-rule="nonzero"/><path fill="#a4c2f4" d="M480.5 643.5C480.5 646.8137 477.81372 649.5 474.5 649.5C471.18628 649.5 468.5 646.8137 468.5 643.5C468.5 640.1863 471.18628 637.5 474.5 637.5C477.81372 637.5 480.5 640.1863 480.5 643.5Z" fill-rule="nonzero"/><path fill="#1a1a1a" d="M496.375 650.5L493.625 650.5L493.625 640.15625Q492.125 641.5625 490.07812 642.2344L490.07812 639.75Q491.15625 639.3906 492.40625 638.4219Q493.67188 637.4375 494.14062 636.125L496.375 636.125L496.375 650.5ZM500.39062 646.8125L503.125 646.53125Q503.23438 647.46875 503.8125 648.0156Q504.39062 648.5469 505.14062 648.5469Q506.0 648.5469 506.59375 647.8594Q507.20312 647.15625 507.20312 645.75Q507.20312 644.4219 506.60938 643.7656Q506.01562 643.1094 505.0625 643.1094Q503.89062 643.1094 502.95312 644.15625L500.71875 643.8281L502.125 636.375L509.39062 636.375L509.39062 638.9531L504.20312 638.9531L503.78125 641.375Q504.70312 640.9219 505.65625 640.9219Q507.48438 640.9219 508.75 642.25Q510.01562 643.5781 510.01562 645.6875Q510.01562 647.46875 509.0 648.84375Q507.59375 650.75 505.10938 650.75Q503.14062 650.75 501.89062 649.6875Q500.64062 648.6094 500.39062 646.8125ZM515.9844 636.125Q518.0625 636.125 519.2344 637.6094Q520.6406 639.3594 520.6406 643.4375Q520.6406 647.5 519.2344 649.28125Q518.0625 650.75 515.9844 650.75Q513.90625 650.75 512.625 649.1406Q511.34375 647.53125 511.34375 643.40625Q511.34375 639.3594 512.75 637.59375Q513.90625 636.125 515.9844 636.125ZM515.9844 638.40625Q515.4844 638.40625 515.09375 638.71875Q514.7031 639.03125 514.5 639.8594Q514.21875 640.9219 514.21875 643.4375Q514.21875 645.9531 514.46875 646.90625Q514.71875 647.84375 515.09375 648.15625Q515.4844 648.46875 515.9844 648.46875Q516.4844 648.46875 516.875 648.15625Q517.2656 647.8281 517.4844 647.0156Q517.7656 645.9531 517.7656 643.4375Q517.7656 640.9219 517.5156 639.9844Q517.2656 639.03125 516.875 638.71875Q516.4844 638.40625 515.9844 638.40625Z" fill-rule="nonzero"/><path fill="#1a1a1a" d="M529.0 637.7656L523.21875 637.7656L523.21875 635.2344L540.75 635.2344L540.75 637.7656L531.6094 637.7656Q531.6094 639.0156 531.5 640.2344L539.34375 640.2344Q539.34375 645.8594 538.46875 648.875Q537.7656 651.4375 535.2656 651.4375L531.875 651.4375L531.4219 648.90625L534.71875 648.90625Q535.7344 648.90625 535.96875 648.1094Q536.5781 646.0469 536.6406 642.7656L531.1406 642.7656Q529.9219 648.5625 524.5156 651.4844L522.875 649.0781Q529.0 646.0156 529.0 638.6875L529.0 637.7656ZM548.2344 640.15625Q549.90625 640.15625 551.9531 641.3906Q553.96875 642.5781 555.2656 642.5781Q556.1094 642.5781 557.0156 641.6875Q557.4375 641.25 558.1094 640.0L560.34375 641.90625Q559.2344 643.40625 558.28125 644.2969Q556.90625 645.5781 555.03125 645.5781Q553.59375 645.5781 551.15625 644.1094Q549.4531 643.0781 548.3906 643.0781Q547.25 643.0781 546.6719 643.7969Q545.9531 644.65625 545.78125 645.5156L543.3281 643.9844Q544.15625 642.4219 545.2969 641.3594Q546.59375 640.15625 548.2344 640.15625Z" fill-rule="nonzero"/><path fill="#1a1a1a" d="M571.625 647.9531L571.625 650.5L562.0 650.5Q562.15625 649.0469 562.9375 647.7656Q563.71875 646.46875 566.0156 644.3281Q567.875 642.59375 568.2969 641.9844Q568.8594 641.1406 568.8594 640.2969Q568.8594 639.3906 568.3594 638.90625Q567.875 638.40625 567.0156 638.40625Q566.15625 638.40625 565.6406 638.9219Q565.1406 639.4375 565.0625 640.6406L562.3281 640.3594Q562.5625 638.09375 563.84375 637.1094Q565.1406 636.125 567.0781 636.125Q569.2031 636.125 570.40625 637.2656Q571.625 638.40625 571.625 640.1094Q571.625 641.0781 571.2656 641.9531Q570.9219 642.8281 570.1719 643.78125Q569.6719 644.4219 568.375 645.6094Q567.0781 646.7969 566.7344 647.1875Q566.3906 647.5781 566.1719 647.9531L571.625 647.9531ZM577.9844 636.125Q580.0625 636.125 581.2344 637.6094Q582.6406 639.3594 582.6406 643.4375Q582.6406 647.5 581.2344 649.28125Q580.0625 650.75 577.9844 650.75Q575.90625 650.75 574.625 649.1406Q573.34375 647.53125 573.34375 643.40625Q573.34375 639.3594 574.75 637.59375Q575.90625 636.125 577.9844 636.125ZM577.9844 638.40625Q577.4844 638.40625 577.09375 638.71875Q576.7031 639.03125 576.5 639.8594Q576.21875 640.9219 576.21875 643.4375Q576.21875 645.9531 576.46875 646.90625Q576.71875 647.84375 577.09375 648.15625Q577.4844 648.46875 577.9844 648.46875Q578.4844 648.46875 578.875 648.15625Q579.2656 647.8281 579.4844 647.0156Q579.7656 645.9531 579.7656 643.4375Q579.7656 640.9219 579.5156 639.9844Q579.2656 639.03125 578.875 638.71875Q578.4844 638.40625 577.9844 638.40625ZM588.9844 636.125Q591.0625 636.125 592.2344 637.6094Q593.6406 639.3594 593.6406 643.4375Q593.6406 647.5 592.2344 649.28125Q591.0625 650.75 588.9844 650.75Q586.90625 650.75 585.625 649.1406Q584.34375 647.53125 584.34375 643.40625Q584.34375 639.3594 585.75 637.59375Q586.90625 636.125 588.9844 636.125ZM588.9844 638.40625Q588.4844 638.40625 588.09375 638.71875Q587.7031 639.03125 587.5 639.8594Q587.21875 640.9219 587.21875 643.4375Q587.21875 645.9531 587.46875 646.90625Q587.71875 647.84375 588.09375 648.15625Q588.4844 648.46875 588.9844 648.46875Q589.4844 648.46875 589.875 648.15625Q590.2656 647.8281 590.4844 647.0156Q590.7656 645.9531 590.7656 643.4375Q590.7656 640.9219 590.5156 639.9844Q590.2656 639.03125 589.875 638.71875Q589.4844 638.40625 588.9844 638.40625Z" fill-rule="nonzero"/><path fill="#1a1a1a" d="M602.0 637.7656L596.21875 637.7656L596.21875 635.2344L613.75 635.2344L613.75 637.7656L604.6094 637.7656Q604.6094 639.0156 604.5 640.2344L612.34375 640.2344Q612.34375 645.8594 611.46875 648.875Q610.7656 651.4375 608.2656 651.4375L604.875 651.4375L604.4219 648.90625L607.71875 648.90625Q608.7344 648.90625 608.96875 648.1094Q609.5781 646.0469 609.6406 642.7656L604.1406 642.7656Q602.9219 648.5625 597.5156 651.4844L595.875 649.0781Q602.0 646.0156 602.0 638.6875L602.0 637.7656Z" fill-rule="nonzero"/><path fill="#cfe2f3" d="M642.5 643.5C642.5 646.8137 639.8137 649.5 636.5 649.5C633.1863 649.5 630.5 646.8137 630.5 643.5C630.5 640.1863 633.1863 637.5 636.5 637.5C639.8137 637.5 642.5 640.1863 642.5 643.5Z" fill-rule="nonzero"/><path fill="#1a1a1a" d="M660.625 647.9531L660.625 650.5L651.0 650.5Q651.15625 649.0469 651.9375 647.7656Q652.71875 646.46875 655.0156 644.3281Q656.875 642.59375 657.2969 641.9844Q657.8594 641.1406 657.8594 640.2969Q657.8594 639.3906 657.3594 638.90625Q656.875 638.40625 656.0156 638.40625Q655.15625 638.40625 654.6406 638.9219Q654.1406 639.4375 654.0625 640.6406L651.3281 640.3594Q651.5625 638.09375 652.84375 637.1094Q654.1406 636.125 656.0781 636.125Q658.2031 636.125 659.40625 637.2656Q660.625 638.40625 660.625 640.1094Q660.625 641.0781 660.2656 641.9531Q659.9219 642.8281 659.1719 643.78125Q658.6719 644.4219 657.375 645.6094Q656.0781 646.7969 655.7344 647.1875Q655.3906 647.5781 655.1719 647.9531L660.625 647.9531ZM666.9844 636.125Q669.0625 636.125 670.2344 637.6094Q671.6406 639.3594 671.6406 643.4375Q671.6406 647.5 670.2344 649.28125Q669.0625 650.75 666.9844 650.75Q664.90625 650.75 663.625 649.1406Q662.34375 647.53125 662.34375 643.40625Q662.34375 639.3594 663.75 637.59375Q664.90625 636.125 666.9844 636.125ZM666.9844 638.40625Q666.4844 638.40625 666.09375 638.71875Q665.7031 639.03125 665.5 639.8594Q665.21875 640.9219 665.21875 643.4375Q665.21875 645.9531 665.46875 646.90625Q665.71875 647.84375 666.09375 648.15625Q666.4844 648.46875 666.9844 648.46875Q667.4844 648.46875 667.875 648.15625Q668.2656 647.8281 668.4844 647.0156Q668.7656 645.9531 668.7656 643.4375Q668.7656 640.9219 668.5156 639.9844Q668.2656 639.03125 667.875 638.71875Q667.4844 638.40625 666.9844 638.40625ZM677.9844 636.125Q680.0625 636.125 681.2344 637.6094Q682.6406 639.3594 682.6406 643.4375Q682.6406 647.5 681.2344 649.28125Q680.0625 650.75 677.9844 650.75Q675.90625 650.75 674.625 649.1406Q673.34375 647.53125 673.34375 643.40625Q673.34375 639.3594 674.75 637.59375Q675.90625 636.125 677.9844 636.125ZM677.9844 638.40625Q677.4844 638.40625 677.09375 638.71875Q676.7031 639.03125 676.5 639.8594Q676.21875 640.9219 676.21875 643.4375Q676.21875 645.9531 676.46875 646.90625Q676.71875 647.84375 677.09375 648.15625Q677.4844 648.46875 677.9844 648.46875Q678.4844 648.46875 678.875 648.15625Q679.2656 647.8281 679.4844 647.0156Q679.7656 645.9531 679.7656 643.4375Q679.7656 640.9219 679.5156 639.9844Q679.2656 639.03125 678.875 638.71875Q678.4844 638.40625 677.9844 638.40625Z" fill-rule="nonzero"/><path fill="#1a1a1a" d="M691.0 637.7656L685.21875 637.7656L685.21875 635.2344L702.75 635.2344L702.75 637.7656L693.6094 637.7656Q693.6094 639.0156 693.5 640.2344L701.34375 640.2344Q701.34375 645.8594 700.46875 648.875Q699.7656 651.4375 697.2656 651.4375L693.875 651.4375L693.4219 648.90625L696.71875 648.90625Q697.7344 648.90625 697.96875 648.1094Q698.5781 646.0469 698.6406 642.7656L693.1406 642.7656Q691.9219 648.5625 686.5156 651.4844L684.875 649.0781Q691.0 646.0156 691.0 638.6875L691.0 637.7656ZM718.1875 634.9531L720.125 635.15625Q721.78125 635.3594 720.5625 636.2344L720.5625 641.65625Q720.5625 644.4844 719.7344 646.0781L723.53125 649.1719L721.84375 651.4219L718.5625 648.1406Q716.71875 650.6875 710.90625 652.0625L710.0 649.53125Q714.4219 648.8594 716.28125 647.0Q718.1875 645.0781 718.1875 641.1094L718.1875 634.9531ZM716.3906 644.40625Q713.59375 646.6719 707.46875 650.28125Q707.1406 651.59375 706.21875 650.2969L705.21875 648.21875Q706.09375 647.9219 707.3125 647.28125L706.84375 635.4219L708.9531 635.625Q710.6094 635.8281 709.40625 636.7031L709.75 646.0469Q712.65625 644.3594 715.1875 642.375L716.3906 644.40625ZM712.5469 635.75Q714.4219 637.0625 716.03125 639.2344L713.8125 640.90625Q712.21875 638.6719 710.6094 637.5625L712.5469 635.75ZM731.8594 648.0469L731.8594 634.21875L734.03125 634.21875Q735.8125 634.5781 734.46875 635.46875L734.46875 639.375L740.7969 639.375L740.7969 641.90625L734.46875 641.90625L734.46875 648.0469L742.59375 648.0469L742.59375 650.5781L724.8281 650.5781L724.8281 648.0469L731.8594 648.0469Z" fill-rule="nonzero"/></svg>