<svg version="1.1" viewBox="0.0 0.0 798.0 690.0" fill="none" stroke="none" stroke-linecap="square" stroke-miterlimit="10" width="798" height="690" xmlns:xlink="http://www.w3.org/1999/xlink" xmlns="http://www.w3.org/2000/svg"><path fill="#ffffff" d="M0 0L798.0 0L798.0 690.0L0 690.0L0 0Z" fill-rule="nonzero"/><path fill="#a4c2f4" d="M399.0 34.5C507.57236 34.5 606.85046 95.76755 655.5325 192.81401L527.26624 257.157C502.92523 208.63377 453.28616 178.0 399.0 178.0Z" fill-rule="nonzero"/><path fill="#6d9eeb" d="M655.5325 192.81401C724.71655 330.7308 672.47455 498.66702 537.2633 573.0L468.13165 447.25C535.73724 410.0835 561.8583 326.1154 527.26624 257.157Z" fill-rule="nonzero"/><path fill="#4285f4" d="M537.2633 573.0C432.1762 630.77216 302.2475 617.1161 211.46829 538.75757C120.68909 460.39908 88.19915 333.8591 130.00008 221.45982C171.801 109.06053 279.07953 34.5 399.0 34.5L399.0 178.0C339.03976 178.0 285.40048 215.28026 264.50003 271.47992C243.59958 327.67957 259.84454 390.94955 305.23413 430.12878C350.62375 469.30804 415.5881 476.13608 468.13165 447.25Z" fill-rule="nonzero"/><path fill="#000000" d="M474.71573 150.82344L469.77823 150.82344L469.77823 132.21407Q467.05948 134.74532 463.3876 135.94844L463.3876 131.46407Q465.3251 130.83907 467.59073 129.07344Q469.85635 127.307816 470.7001 124.94844L474.71573 124.94844L474.71573 150.82344ZM482.0751 129.99532L482.0751 125.401566L498.96573 125.401566L498.96573 128.99532Q496.87198 131.04219 494.7001 134.90157Q492.54385 138.74532 491.40323 143.08907Q490.27823 147.41719 490.29385 150.82344L485.54385 150.82344Q485.65323 145.47969 487.73135 139.93282Q489.8251 134.37032 493.30948 129.99532L482.0751 129.99532ZM503.12198 150.82344L503.12198 145.88594L508.0751 145.88594L508.0751 150.82344L503.12198 150.82344ZM528.80945 131.37032L524.0282 131.88594Q523.8563 130.41719 523.1063 129.71407Q522.37195 129.01094 521.2001 129.01094Q519.6376 129.01094 518.5438 130.41719Q517.4657 131.82344 517.18445 136.26094Q519.0282 134.08907 521.7782 134.08907Q524.87195 134.08907 527.0751 136.44844Q529.2782 138.79219 529.2782 142.52657Q529.2782 146.47969 526.9501 148.87032Q524.6376 151.26094 520.99695 151.26094Q517.1063 151.26094 514.5907 148.22969Q512.0751 145.19844 512.0751 138.29219Q512.0751 131.19844 514.68445 128.07344Q517.30945 124.94844 521.49695 124.94844Q524.43445 124.94844 526.3563 126.589066Q528.2782 128.22969 528.80945 131.37032ZM517.6063 142.13594Q517.6063 144.54219 518.7157 145.85469Q519.8251 147.16719 521.24695 147.16719Q522.62195 147.16719 523.5282 146.10469Q524.4501 145.02657 524.4501 142.57344Q524.4501 140.05782 523.4657 138.90157Q522.4813 137.72969 520.99695 137.72969Q519.5751 137.72969 518.5907 138.85469Q517.6063 139.96407 517.6063 142.13594ZM532.1063 131.41719Q532.1063 127.94844 533.62195 126.29219Q535.1532 124.620316 537.74695 124.620316Q540.43445 124.620316 541.9501 126.276566Q543.4813 127.932816 543.4813 131.41719Q543.4813 134.88594 541.9501 136.55782Q540.43445 138.21407 537.8407 138.21407Q535.1532 138.21407 533.62195 136.55782Q532.1063 134.90157 532.1063 131.41719ZM535.9657 131.38594Q535.9657 133.90157 536.5438 134.76094Q536.9813 135.38594 537.74695 135.38594Q538.5438 135.38594 538.9813 134.76094Q539.5438 133.90157 539.5438 131.38594Q539.5438 128.87032 538.9813 128.02657Q538.5438 127.370316 537.74695 127.370316Q536.9813 127.370316 536.5438 128.01094Q535.9657 128.87032 535.9657 131.38594ZM541.5126 151.80782L537.8563 151.80782L551.5907 124.620316L555.1376 124.620316L541.5126 151.80782ZM549.49695 145.04219Q549.49695 141.57344 551.0126 139.90157Q552.5282 138.22969 555.1688 138.22969Q557.8251 138.22969 559.3407 139.90157Q560.87195 141.57344 560.87195 145.04219Q560.87195 148.52657 559.3407 150.19844Q557.8251 151.85469 555.2313 151.85469Q552.5282 151.85469 551.0126 150.19844Q549.49695 148.52657 549.49695 145.04219ZM553.3407 145.02657Q553.3407 147.54219 553.9188 148.38594Q554.3563 149.02657 555.1376 149.02657Q555.93445 149.02657 556.3563 148.40157Q556.93445 147.54219 556.93445 145.02657Q556.93445 142.51094 556.37195 141.65157Q555.93445 141.01094 555.1376 141.01094Q554.3407 141.01094 553.9188 141.65157Q553.3407 142.51094 553.3407 145.02657Z" fill-rule="nonzero"/><path fill="#000000" d="M571.25336 393.34445L571.25336 397.9382L553.92523 397.9382Q554.2065 395.32883 555.61273 393.0007Q557.019 390.67258 561.17523 386.82883Q564.519 383.71945 565.269 382.61008Q566.2846 381.07883 566.2846 379.57883Q566.2846 377.9382 565.394 377.04758Q564.519 376.15695 562.9565 376.15695Q561.4096 376.15695 560.48773 377.09445Q559.5815 378.01633 559.44086 380.1882L554.519 379.6882Q554.9565 375.61008 557.269 373.84445Q559.5971 372.0632 563.06586 372.0632Q566.894 372.0632 569.06586 374.1257Q571.25336 376.17258 571.25336 379.23508Q571.25336 380.96945 570.62836 382.54758Q570.00336 384.1257 568.644 385.84445Q567.75336 386.98508 565.4096 389.14133Q563.06586 391.28195 562.44086 391.98508Q561.8315 392.6882 561.44086 393.34445L571.25336 393.34445ZM584.25336 397.9382L584.25336 392.7507L573.7065 392.7507L573.7065 388.42258L584.87836 372.0632L589.0346 372.0632L589.0346 388.40695L592.23773 388.40695L592.23773 392.7507L589.0346 392.7507L589.0346 397.9382L584.25336 397.9382ZM584.25336 388.40695L584.25336 379.61008L578.3315 388.40695L584.25336 388.40695ZM595.61273 397.9382L595.61273 393.0007L600.56586 393.0007L600.56586 397.9382L595.61273 397.9382ZM614.25336 397.9382L614.25336 392.7507L603.7065 392.7507L603.7065 388.42258L614.87836 372.0632L619.0346 372.0632L619.0346 388.40695L622.23773 388.40695L622.23773 392.7507L619.0346 392.7507L619.0346 397.9382L614.25336 397.9382ZM614.25336 388.40695L614.25336 379.61008L608.3315 388.40695L614.25336 388.40695ZM624.5971 378.53195Q624.5971 375.0632 626.11273 373.40695Q627.644 371.73508 630.23773 371.73508Q632.92523 371.73508 634.44086 373.39133Q635.9721 375.04758 635.9721 378.53195Q635.9721 382.0007 634.44086 383.67258Q632.92523 385.32883 630.3315 385.32883Q627.644 385.32883 626.11273 383.67258Q624.5971 382.01633 624.5971 378.53195ZM628.4565 378.5007Q628.4565 381.01633 629.0346 381.8757Q629.4721 382.5007 630.23773 382.5007Q631.0346 382.5007 631.4721 381.8757Q632.0346 381.01633 632.0346 378.5007Q632.0346 375.98508 631.4721 375.14133Q631.0346 374.48508 630.23773 374.48508Q629.4721 374.48508 629.0346 375.1257Q628.4565 375.98508 628.4565 378.5007ZM634.00336 398.92258L630.3471 398.92258L644.0815 371.73508L647.62836 371.73508L634.00336 398.92258ZM641.98773 392.15695Q641.98773 388.6882 643.50336 387.01633Q645.019 385.34445 647.6596 385.34445Q650.31586 385.34445 651.8315 387.01633Q653.36273 388.6882 653.36273 392.15695Q653.36273 395.64133 651.8315 397.3132Q650.31586 398.96945 647.7221 398.96945Q645.019 398.96945 643.50336 397.3132Q641.98773 395.64133 641.98773 392.15695ZM645.8315 392.14133Q645.8315 394.65695 646.4096 395.5007Q646.8471 396.14133 647.62836 396.14133Q648.42523 396.14133 648.8471 395.51633Q649.42523 394.65695 649.42523 392.14133Q649.42523 389.6257 648.86273 388.76633Q648.42523 388.1257 647.62836 388.1257Q646.8315 388.1257 646.4096 388.76633Q645.8315 389.6257 645.8315 392.14133Z" fill-rule="nonzero"/><path fill="#000000" d="M140.60623 380.9055L145.5281 380.38986Q145.74686 382.06174 146.7781 383.0461Q147.82498 384.01486 149.16873 384.01486Q150.7156 384.01486 151.79373 382.76486Q152.87186 381.49924 152.87186 378.968Q152.87186 376.593 151.79373 375.4055Q150.73123 374.218 149.0281 374.218Q146.9031 374.218 145.2156 376.1086L141.2156 375.5305L143.74686 362.1086L156.80936 362.1086L156.80936 366.7336L147.48123 366.7336L146.7156 371.1086Q148.37186 370.2805 150.0906 370.2805Q153.37186 370.2805 155.6531 372.6711Q157.94998 375.06174 157.94998 378.87424Q157.94998 382.06174 156.10623 384.56174Q153.5906 387.968 149.12186 387.968Q145.55936 387.968 143.30936 386.06174Q141.05936 384.13986 140.60623 380.9055ZM164.7781 373.62424Q162.85623 372.81174 161.98123 371.4055Q161.12186 369.9836 161.12186 368.2961Q161.12186 365.4211 163.13748 363.5461Q165.1531 361.6555 168.85623 361.6555Q172.5281 361.6555 174.55936 363.5461Q176.5906 365.4211 176.5906 368.2961Q176.5906 370.093 175.6531 371.49924Q174.73123 372.88986 173.04373 373.62424Q175.18436 374.4836 176.29373 376.13986Q177.41873 377.7961 177.41873 379.95236Q177.41873 383.51486 175.13748 385.74924Q172.87186 387.9836 169.0906 387.9836Q165.57498 387.9836 163.23123 386.13986Q160.4656 383.968 160.4656 380.1711Q160.4656 378.07736 161.49686 376.32736Q162.54373 374.57736 164.7781 373.62424ZM165.79373 368.6555Q165.79373 370.12424 166.62186 370.95236Q167.4656 371.7805 168.85623 371.7805Q170.26248 371.7805 171.10623 370.95236Q171.94998 370.1086 171.94998 368.63986Q171.94998 367.24924 171.10623 366.4211Q170.2781 365.57736 168.9031 365.57736Q167.48123 365.57736 166.63748 366.4211Q165.79373 367.26486 165.79373 368.6555ZM165.3406 379.68674Q165.3406 381.7336 166.38748 382.87424Q167.43436 384.01486 168.99686 384.01486Q170.5281 384.01486 171.5281 382.9211Q172.5281 381.81174 172.5281 379.74924Q172.5281 377.93674 171.51248 376.843Q170.49686 375.7336 168.93436 375.7336Q167.12186 375.7336 166.23123 376.9836Q165.3406 378.2336 165.3406 379.68674ZM181.5906 387.5305L181.5906 382.593L186.54373 382.593L186.54373 387.5305L181.5906 387.5305ZM198.88748 361.6555Q202.63748 361.6555 204.74686 364.32736Q207.26248 367.4836 207.26248 374.82736Q207.26248 382.13986 204.73123 385.32736Q202.63748 387.968 198.88748 387.968Q195.13748 387.968 192.82498 385.07736Q190.5281 382.18674 190.5281 374.76486Q190.5281 367.4836 193.05936 364.2961Q195.1531 361.6555 198.88748 361.6555ZM198.88748 365.74924Q197.99686 365.74924 197.29373 366.32736Q196.5906 366.88986 196.19998 368.37424Q195.69998 370.2805 195.69998 374.82736Q195.69998 379.3586 196.1531 381.06174Q196.60623 382.74924 197.29373 383.31174Q197.99686 383.87424 198.88748 383.87424Q199.79373 383.87424 200.49686 383.31174Q201.19998 382.7336 201.57498 381.24924Q202.0906 379.3586 202.0906 374.82736Q202.0906 370.2805 201.63748 368.593Q201.18436 366.88986 200.48123 366.32736Q199.79373 365.74924 198.88748 365.74924ZM210.57498 368.12424Q210.57498 364.6555 212.0906 362.99924Q213.62186 361.32736 216.2156 361.32736Q218.9031 361.32736 220.41873 362.9836Q221.94998 364.63986 221.94998 368.12424Q221.94998 371.593 220.41873 373.26486Q218.9031 374.9211 216.30936 374.9211Q213.62186 374.9211 212.0906 373.26486Q210.57498 371.6086 210.57498 368.12424ZM214.43436 368.093Q214.43436 370.6086 215.01248 371.468Q215.44998 372.093 216.2156 372.093Q217.01248 372.093 217.44998 371.468Q218.01248 370.6086 218.01248 368.093Q218.01248 365.57736 217.44998 364.7336Q217.01248 364.07736 216.2156 364.07736Q215.44998 364.07736 215.01248 364.718Q214.43436 365.57736 214.43436 368.093ZM219.98123 388.51486L216.32498 388.51486L230.05936 361.32736L233.60623 361.32736L219.98123 388.51486ZM227.9656 381.74924Q227.9656 378.2805 229.48123 376.6086Q230.99686 374.93674 233.63748 374.93674Q236.29373 374.93674 237.80936 376.6086Q239.3406 378.2805 239.3406 381.74924Q239.3406 385.2336 237.80936 386.9055Q236.29373 388.56174 233.69998 388.56174Q230.99686 388.56174 229.48123 386.9055Q227.9656 385.2336 227.9656 381.74924ZM231.80936 381.7336Q231.80936 384.24924 232.38748 385.093Q232.82498 385.7336 233.60623 385.7336Q234.4031 385.7336 234.82498 385.1086Q235.4031 384.24924 235.4031 381.7336Q235.4031 379.218 234.8406 378.3586Q234.4031 377.718 233.60623 377.718Q232.80936 377.718 232.38748 378.3586Q231.80936 379.218 231.80936 381.7336Z" fill-rule="nonzero"/><path fill="#a4c2f4" d="M221.5 643.5C221.5 646.8137 218.8137 649.5 215.5 649.5C212.1863 649.5 209.5 646.8137 209.5 643.5C209.5 640.1863 212.1863 637.5 215.5 637.5C218.8137 637.5 221.5 640.1863 221.5 643.5Z" fill-rule="nonzero"/><path fill="#1a1a1a" d="M244.96875 647.2969Q241.25 651.3594 237.17188 651.3594Q234.1875 651.3594 232.75 649.90625Q231.60938 648.78125 231.60938 645.71875L231.60938 634.84375L233.70312 634.84375Q235.23438 635.1875 234.21875 636.0625L234.21875 645.71875Q234.21875 647.5 234.79688 648.09375Q235.54688 648.8281 237.09375 648.8281Q239.95312 648.8281 243.28125 645.1719L244.96875 647.2969ZM262.26562 638.2344Q259.10938 638.2344 257.625 638.75Q255.98438 639.34375 254.5625 640.7656Q253.20312 642.1406 253.20312 644.3125Q253.20312 646.0156 254.25 647.0781Q255.70312 648.5156 260.5625 648.6875L259.64062 651.21875Q254.57812 650.9531 252.67188 649.0469Q250.75 647.1406 250.75 644.3906Q250.75 640.5156 252.46875 639.25Q250.4375 639.5625 246.25 640.15625L245.5625 637.53125Q253.6875 636.9531 261.79688 635.5625L262.26562 638.2344ZM272.15625 646.03125Q271.3125 648.1875 270.48438 649.1875Q269.26562 650.65625 267.98438 650.65625Q265.76562 650.65625 264.71875 648.1406Q264.14062 646.7344 264.14062 642.28125Q264.14062 639.1406 264.5 635.4531L266.59375 635.9531Q268.45312 636.40625 266.96875 637.3594Q266.67188 640.03125 266.67188 642.3594Q266.67188 645.5 267.04688 646.78125Q267.34375 647.8125 267.82812 647.8125Q268.4375 647.8125 268.95312 646.78125Q269.32812 646.03125 269.89062 644.4531L272.15625 646.03125ZM276.34375 636.53125Q280.15625 640.53125 281.01562 646.25L278.125 647.0Q277.14062 641.21875 273.96875 637.8906L276.34375 636.53125ZM293.26562 649.25Q293.98438 649.15625 294.75 648.40625Q295.5625 647.5781 295.5625 646.1875Q295.5625 644.6406 294.67188 643.7344Q293.76562 642.84375 291.75 642.84375Q289.29688 642.84375 288.0 643.78125Q286.71875 644.6875 284.35938 647.3906L282.40625 645.65625Q288.3125 639.75 290.60938 636.78125Q288.98438 636.9844 286.0625 637.25L285.26562 634.6094Q289.60938 634.6094 292.5 634.2344L293.40625 633.8281L294.45312 634.875Q295.90625 636.2031 294.0 636.5625Q291.73438 639.1094 290.28125 640.71875Q290.6875 640.625 291.82812 640.625Q294.96875 640.625 296.48438 642.15625Q298.01562 643.6719 298.01562 646.03125Q298.01562 648.46875 296.64062 649.8281Q294.65625 651.8281 291.59375 651.8281Q288.6875 651.8281 287.32812 650.4531Q286.1875 649.3281 286.1875 647.75Q286.1875 646.6406 287.01562 645.8281Q287.90625 644.9219 289.09375 644.9219Q290.67188 644.9219 291.71875 645.9844Q292.90625 647.1719 293.26562 649.25ZM290.96875 649.59375Q290.73438 648.09375 290.14062 647.4844Q289.70312 647.0625 289.32812 647.0625Q288.875 647.0625 288.67188 647.25Q288.40625 647.53125 288.40625 647.8281Q288.40625 648.3594 288.90625 648.875Q289.57812 649.53125 290.65625 649.53125Q290.96875 649.53125 290.96875 649.59375Z" fill-rule="nonzero"/><path fill="#6d9eeb" d="M326.5 643.5C326.5 646.8137 323.81372 649.5 320.5 649.5C317.18628 649.5 314.5 646.8137 314.5 643.5C314.5 640.1863 317.18628 637.5 320.5 637.5C323.81372 637.5 326.5 640.1863 326.5 643.5Z" fill-rule="nonzero"/><path fill="#1a1a1a" d="M335.45312 640.7344Q341.5 638.28125 344.0 633.6094L345.92188 634.0625Q347.54688 634.2969 346.07812 635.21875L346.10938 635.1719Q349.71875 638.6406 354.17188 639.8906L353.29688 642.75Q347.46875 640.4375 344.75 637.0Q342.92188 639.375 342.10938 639.9219L349.45312 639.9219L349.45312 642.4531L339.8125 642.4531L339.8125 641.5625Q338.45312 642.4844 336.5625 643.1875L335.45312 640.7344ZM349.3125 642.7969L351.10938 644.0Q352.01562 644.90625 350.90625 645.0625Q349.34375 649.6406 347.82812 652.40625L345.1875 651.3125Q347.03125 648.0469 347.84375 645.8906L338.01562 645.8906L338.01562 643.3594L348.96875 643.3594L349.3125 642.7969ZM369.70312 640.4844Q369.84375 643.0625 369.70312 645.75Q371.8125 646.53125 374.35938 648.34375L372.98438 650.53125Q371.01562 649.03125 369.6875 648.3906Q369.6875 649.3281 368.70312 650.2969Q367.65625 651.3594 365.6875 651.3594Q363.71875 651.3594 362.67188 650.2969Q361.76562 649.40625 361.76562 647.9844Q361.76562 646.71875 362.51562 645.9844Q363.5625 644.9219 365.60938 644.9219Q366.67188 644.9219 367.26562 645.0625Q367.39062 642.90625 367.26562 640.6094L361.45312 641.0L361.45312 638.53125L367.0625 638.21875Q367.0 636.4531 366.70312 634.2969L368.84375 634.2969Q370.73438 634.6406 369.39062 635.53125Q369.45312 636.9531 369.51562 638.1094L373.75 637.875L373.75 640.3281L369.70312 640.4844ZM357.14062 651.03125Q356.76562 648.40625 356.76562 645.4844Q356.76562 639.1094 357.8125 634.8594L359.95312 635.25Q361.34375 635.84375 360.07812 636.46875Q359.29688 638.9844 359.29688 645.4844Q359.29688 648.40625 359.76562 650.5781L357.14062 651.03125ZM367.25 647.4375Q366.25 647.1406 365.60938 647.1406Q364.6875 647.1406 364.32812 647.4844Q364.0625 647.7656 364.0625 647.9844Q364.0625 648.4375 364.25 648.6406Q364.6875 649.0625 365.60938 649.0625Q366.51562 649.0625 366.85938 648.65625Q367.29688 648.15625 367.25 647.4375ZM389.96875 647.2969Q386.25 651.3594 382.17188 651.3594Q379.1875 651.3594 377.75 649.90625Q376.60938 648.78125 376.60938 645.71875L376.60938 634.84375L378.70312 634.84375Q380.23438 635.1875 379.21875 636.0625L379.21875 645.71875Q379.21875 647.5 379.79688 648.09375Q380.54688 648.8281 382.09375 648.8281Q384.95312 648.8281 388.28125 645.1719L389.96875 647.2969ZM407.26562 638.2344Q404.10938 638.2344 402.625 638.75Q400.98438 639.34375 399.5625 640.7656Q398.20312 642.1406 398.20312 644.3125Q398.20312 646.0156 399.25 647.0781Q400.70312 648.5156 405.5625 648.6875L404.64062 651.21875Q399.57812 650.9531 397.67188 649.0469Q395.75 647.1406 395.75 644.3906Q395.75 640.5156 397.46875 639.25Q395.4375 639.5625 391.25 640.15625L390.5625 637.53125Q398.6875 636.9531 406.79688 635.5625L407.26562 638.2344ZM417.15625 646.03125Q416.3125 648.1875 415.48438 649.1875Q414.26562 650.65625 412.98438 650.65625Q410.76562 650.65625 409.71875 648.1406Q409.14062 646.7344 409.14062 642.28125Q409.14062 639.1406 409.5 635.4531L411.59375 635.9531Q413.45312 636.40625 411.96875 637.3594Q411.67188 640.03125 411.67188 642.3594Q411.67188 645.5 412.04688 646.78125Q412.34375 647.8125 412.82812 647.8125Q413.4375 647.8125 413.95312 646.78125Q414.32812 646.03125 414.89062 644.4531L417.15625 646.03125ZM421.34375 636.53125Q425.15625 640.53125 426.01562 646.25L423.125 647.0Q422.14062 641.21875 418.96875 637.8906L421.34375 636.53125ZM439.67188 640.8594Q441.5625 641.2031 440.20312 642.1094L440.20312 646.125Q441.90625 646.6719 444.4375 647.9844L443.0625 650.1719Q441.03125 648.9844 440.125 648.6875Q439.95312 649.96875 439.0625 650.84375Q438.01562 651.90625 436.20312 651.90625Q433.84375 651.90625 432.875 650.9219Q431.96875 650.03125 431.96875 648.6094Q431.96875 647.4219 432.875 646.53125Q434.0 645.3906 436.125 645.3906Q437.51562 645.3906 437.82812 645.4844L437.82812 640.8594L439.67188 640.8594ZM430.70312 639.875Q430.0625 639.9531 427.79688 639.9531L427.45312 637.5Q429.85938 637.5 431.51562 637.375Q431.82812 636.25 432.46875 633.46875L434.3125 634.09375Q436.04688 634.78125 434.51562 635.3906L434.03125 637.125Q434.71875 637.03125 436.5 636.5469L437.07812 639.0Q434.45312 639.5625 433.29688 639.625Q432.125 643.375 429.5 648.4531L427.20312 647.2969Q429.8125 642.6719 430.70312 639.875ZM438.54688 636.5469Q441.10938 637.3594 444.5625 638.6875L443.53125 641.09375Q439.89062 639.5469 437.60938 638.875L438.54688 636.5469ZM437.82812 647.8125Q437.23438 647.6094 436.125 647.6094Q435.04688 647.6094 434.6875 647.9531Q434.42188 648.2344 434.42188 648.6094Q434.42188 648.9844 434.60938 649.1875Q434.96875 649.53125 435.96875 649.53125Q436.89062 649.53125 437.25 649.1875Q437.82812 648.59375 437.82812 647.8125ZM454.15625 646.03125Q453.3125 648.1875 452.48438 649.1875Q451.26562 650.65625 449.98438 650.65625Q447.76562 650.65625 446.71875 648.1406Q446.14062 646.7344 446.14062 642.28125Q446.14062 639.1406 446.5 635.4531L448.59375 635.9531Q450.45312 636.40625 448.96875 637.3594Q448.67188 640.03125 448.67188 642.3594Q448.67188 645.5 449.04688 646.78125Q449.34375 647.8125 449.82812 647.8125Q450.4375 647.8125 450.95312 646.78125Q451.32812 646.03125 451.89062 644.4531L454.15625 646.03125ZM458.34375 636.53125Q462.15625 640.53125 463.01562 646.25L460.125 647.0Q459.14062 641.21875 455.96875 637.8906L458.34375 636.53125Z" fill-rule="nonzero"/><path fill="#4285f4" d="M491.5 643.5C491.5 646.8137 488.81372 649.5 485.5 649.5C482.18628 649.5 479.5 646.8137 479.5 643.5C479.5 640.1863 482.18628 637.5 485.5 637.5C488.81372 637.5 491.5 640.1863 491.5 643.5Z" fill-rule="nonzero"/><path fill="#1a1a1a" d="M514.96875 647.2969Q511.25 651.3594 507.17188 651.3594Q504.1875 651.3594 502.75 649.90625Q501.60938 648.78125 501.60938 645.71875L501.60938 634.84375L503.70312 634.84375Q505.23438 635.1875 504.21875 636.0625L504.21875 645.71875Q504.21875 647.5 504.79688 648.09375Q505.54688 648.8281 507.09375 648.8281Q509.95312 648.8281 513.28125 645.1719L514.96875 647.2969ZM532.2656 638.2344Q529.1094 638.2344 527.625 638.75Q525.9844 639.34375 524.5625 640.7656Q523.2031 642.1406 523.2031 644.3125Q523.2031 646.0156 524.25 647.0781Q525.7031 648.5156 530.5625 648.6875L529.6406 651.21875Q524.5781 650.9531 522.6719 649.0469Q520.75 647.1406 520.75 644.3906Q520.75 640.5156 522.46875 639.25Q520.4375 639.5625 516.25 640.15625L515.5625 637.53125Q523.6875 636.9531 531.7969 635.5625L532.2656 638.2344ZM542.15625 646.03125Q541.3125 648.1875 540.4844 649.1875Q539.2656 650.65625 537.9844 650.65625Q535.7656 650.65625 534.71875 648.1406Q534.1406 646.7344 534.1406 642.28125Q534.1406 639.1406 534.5 635.4531L536.59375 635.9531Q538.4531 636.40625 536.96875 637.3594Q536.6719 640.03125 536.6719 642.3594Q536.6719 645.5 537.0469 646.78125Q537.34375 647.8125 537.8281 647.8125Q538.4375 647.8125 538.9531 646.78125Q539.3281 646.03125 539.8906 644.4531L542.15625 646.03125ZM546.34375 636.53125Q550.15625 640.53125 551.0156 646.25L548.125 647.0Q547.1406 641.21875 543.96875 637.8906L546.34375 636.53125ZM564.6719 640.8594Q566.5625 641.2031 565.2031 642.1094L565.2031 646.125Q566.90625 646.6719 569.4375 647.9844L568.0625 650.1719Q566.03125 648.9844 565.125 648.6875Q564.9531 649.96875 564.0625 650.84375Q563.0156 651.90625 561.2031 651.90625Q558.84375 651.90625 557.875 650.9219Q556.96875 650.03125 556.96875 648.6094Q556.96875 647.4219 557.875 646.53125Q559.0 645.3906 561.125 645.3906Q562.5156 645.3906 562.8281 645.4844L562.8281 640.8594L564.6719 640.8594ZM555.7031 639.875Q555.0625 639.9531 552.7969 639.9531L552.4531 637.5Q554.8594 637.5 556.5156 637.375Q556.8281 636.25 557.46875 633.46875L559.3125 634.09375Q561.0469 634.78125 559.5156 635.3906L559.03125 637.125Q559.71875 637.03125 561.5 636.5469L562.0781 639.0Q559.4531 639.5625 558.2969 639.625Q557.125 643.375 554.5 648.4531L552.2031 647.2969Q554.8125 642.6719 555.7031 639.875ZM563.5469 636.5469Q566.1094 637.3594 569.5625 638.6875L568.53125 641.09375Q564.8906 639.5469 562.6094 638.875L563.5469 636.5469ZM562.8281 647.8125Q562.2344 647.6094 561.125 647.6094Q560.0469 647.6094 559.6875 647.9531Q559.4219 648.2344 559.4219 648.6094Q559.4219 648.9844 559.6094 649.1875Q559.96875 649.53125 560.96875 649.53125Q561.8906 649.53125 562.25 649.1875Q562.8281 648.59375 562.8281 647.8125ZM579.15625 646.03125Q578.3125 648.1875 577.4844 649.1875Q576.2656 650.65625 574.9844 650.65625Q572.7656 650.65625 571.71875 648.1406Q571.1406 646.7344 571.1406 642.28125Q571.1406 639.1406 571.5 635.4531L573.59375 635.9531Q575.4531 636.40625 573.96875 637.3594Q573.6719 640.03125 573.6719 642.3594Q573.6719 645.5 574.0469 646.78125Q574.34375 647.8125 574.8281 647.8125Q575.4375 647.8125 575.9531 646.78125Q576.3281 646.03125 576.8906 644.4531L579.15625 646.03125ZM583.34375 636.53125Q587.15625 640.53125 588.0156 646.25L585.125 647.0Q584.1406 641.21875 580.96875 637.8906L583.34375 636.53125Z" fill-rule="nonzero"/></svg>