<svg version="1.1" viewBox="0.0 0.0 802.0 685.0" fill="none" stroke="none" stroke-linecap="square" stroke-miterlimit="10" width="802" height="685" xmlns:xlink="http://www.w3.org/1999/xlink" xmlns="http://www.w3.org/2000/svg"><path fill="#ffffff" d="M0 0L802.0 0L802.0 685.0L0 685.0L0 0Z" fill-rule="nonzero"/><path stroke="#333333" stroke-width="1.0" stroke-linecap="butt" d="M100.5 600.5L767.5 600.5" fill-rule="nonzero"/><path stroke="#cccccc" stroke-width="1.0" stroke-linecap="butt" d="M100.5 448.5L767.5 448.5" fill-rule="nonzero"/><path stroke="#cccccc" stroke-width="1.0" stroke-linecap="butt" d="M100.5 297.5L767.5 297.5" fill-rule="nonzero"/><path stroke="#cccccc" stroke-width="1.0" stroke-linecap="butt" d="M100.5 145.5L767.5 145.5" fill-rule="nonzero"/><clipPath id="id_0"><path d="M100.25 145.41667L767.75 145.41667L767.75 600.75L100.25 600.75L100.25 145.41667Z" clip-rule="nonzero"/></clipPath><path stroke="#000000" stroke-width="2.0" stroke-linecap="butt" stroke-opacity="0.0" clip-path="url(#id_0)" d="M225.0 601.0L144.0 601.0L144.0 584.0L225.0 584.0Z" fill-rule="nonzero"/><path fill="#4285f4" clip-path="url(#id_0)" d="M225.0 601.0L144.0 601.0L144.0 584.0L225.0 584.0Z" fill-rule="nonzero"/><path stroke="#000000" stroke-width="2.0" stroke-linecap="butt" stroke-opacity="0.0" clip-path="url(#id_0)" d="M350.0 601.0L269.0 601.0L269.0 540.0L350.0 540.0Z" fill-rule="nonzero"/><path fill="#4285f4" clip-path="url(#id_0)" d="M350.0 601.0L269.0 601.0L269.0 540.0L350.0 540.0Z" fill-rule="nonzero"/><path stroke="#000000" stroke-width="2.0" stroke-linecap="butt" stroke-opacity="0.0" clip-path="url(#id_0)" d="M475.0 601.0L394.0 601.0L394.0 505.0L475.0 505.0Z" fill-rule="nonzero"/><path fill="#4285f4" clip-path="url(#id_0)" d="M475.0 601.0L394.0 601.0L394.0 505.0L475.0 505.0Z" fill-rule="nonzero"/><path stroke="#000000" stroke-width="2.0" stroke-linecap="butt" stroke-opacity="0.0" clip-path="url(#id_0)" d="M600.0 601.0L519.0 601.0L519.0 429.0L600.0 429.0Z" fill-rule="nonzero"/><path fill="#4285f4" clip-path="url(#id_0)" d="M600.0 601.0L519.0 601.0L519.0 429.0L600.0 429.0Z" fill-rule="nonzero"/><path stroke="#000000" stroke-width="2.0" stroke-linecap="butt" stroke-opacity="0.0" clip-path="url(#id_0)" d="M725.0 601.0L644.0 601.0L644.0 335.0L725.0 335.0Z" fill-rule="nonzero"/><path fill="#4285f4" clip-path="url(#id_0)" d="M725.0 601.0L644.0 601.0L644.0 335.0L725.0 335.0Z" fill-rule="nonzero"/><path stroke="#000000" stroke-width="2.0" stroke-linecap="butt" stroke-opacity="0.0" clip-path="url(#id_0)" d="M225.0 584.0L144.0 584.0L144.0 584.0L225.0 584.0Z" fill-rule="nonzero"/><path fill="#f39800" clip-path="url(#id_0)" d="M225.0 584.0L144.0 584.0L144.0 584.0L225.0 584.0Z" fill-rule="nonzero"/><path stroke="#000000" stroke-width="2.0" stroke-linecap="butt" stroke-opacity="0.0" clip-path="url(#id_0)" d="M350.0 540.0L269.0 540.0L269.0 540.0L350.0 540.0Z" fill-rule="nonzero"/><path fill="#f39800" clip-path="url(#id_0)" d="M350.0 540.0L269.0 540.0L269.0 540.0L350.0 540.0Z" fill-rule="nonzero"/><path stroke="#000000" stroke-width="2.0" stroke-linecap="butt" stroke-opacity="0.0" clip-path="url(#id_0)" d="M475.0 505.0L394.0 505.0L394.0 500.0C394.0 498.89542 394.89542 498.0 396.0 498.0L473.0 498.0C474.10458 498.0 475.0 498.89542 475.0 500.0Z" fill-rule="nonzero"/><path fill="#f39800" clip-path="url(#id_0)" d="M475.0 505.0L394.0 505.0L394.0 500.0C394.0 498.89542 394.89542 498.0 396.0 498.0L473.0 498.0C474.10458 498.0 475.0 498.89542 475.0 500.0Z" fill-rule="nonzero"/><path stroke="#000000" stroke-width="2.0" stroke-linecap="butt" stroke-opacity="0.0" clip-path="url(#id_0)" d="M600.0 429.0L519.0 429.0L519.0 343.0C519.0 341.89542 519.89545 341.0 521.0 341.0L598.0 341.0C599.10455 341.0 600.0 341.89542 600.0 343.0Z" fill-rule="nonzero"/><path fill="#f39800" clip-path="url(#id_0)" d="M600.0 429.0L519.0 429.0L519.0 343.0C519.0 341.89542 519.89545 341.0 521.0 341.0L598.0 341.0C599.10455 341.0 600.0 341.89542 600.0 343.0Z" fill-rule="nonzero"/><path stroke="#000000" stroke-width="2.0" stroke-linecap="butt" stroke-opacity="0.0" clip-path="url(#id_0)" d="M725.0 335.0L644.0 335.0L644.0 198.0C644.0 196.89543 644.89545 196.0 646.0 196.0L723.0 196.0C724.10455 196.0 725.0 196.89543 725.0 198.0Z" fill-rule="nonzero"/><path fill="#f39800" clip-path="url(#id_0)" d="M725.0 335.0L644.0 335.0L644.0 198.0C644.0 196.89543 644.89545 196.0 646.0 196.0L723.0 196.0C724.10455 196.0 725.0 196.89543 725.0 198.0Z" fill-rule="nonzero"/><path stroke="#ffffff" stroke-width="3.0" stroke-linejoin="round" stroke-linecap="round" d="M178.17188 540.05444L173.23438 540.05444L173.23438 521.44507Q170.51562 523.9763 166.84375 525.17944L166.84375 520.69507Q168.78125 520.07007 171.04688 518.30444Q173.3125 516.5388 174.15625 514.17944L178.17188 514.17944L178.17188 540.05444ZM198.17188 540.05444L193.23438 540.05444L193.23438 521.44507Q190.51562 523.9763 186.84375 525.17944L186.84375 520.69507Q188.78125 520.07007 191.04688 518.30444Q193.3125 516.5388 194.15625 514.17944L198.17188 514.17944L198.17188 540.05444Z" fill-rule="nonzero"/><path fill="#4285f4" d="M178.17188 540.05444L173.23438 540.05444L173.23438 521.44507Q170.51562 523.9763 166.84375 525.17944L166.84375 520.69507Q168.78125 520.07007 171.04688 518.30444Q173.3125 516.5388 174.15625 514.17944L178.17188 514.17944L178.17188 540.05444ZM198.17188 540.05444L193.23438 540.05444L193.23438 521.44507Q190.51562 523.9763 186.84375 525.17944L186.84375 520.69507Q188.78125 520.07007 191.04688 518.30444Q193.3125 516.5388 194.15625 514.17944L198.17188 514.17944L198.17188 540.05444Z" fill-rule="nonzero"/><path stroke="#ffffff" stroke-width="3.0" stroke-linejoin="round" stroke-linecap="round" d="M300.21875 496.03888L300.21875 490.85138L289.67188 490.85138L289.67188 486.52325L300.84375 470.16388L305.0 470.16388L305.0 486.50763L308.20312 486.50763L308.20312 490.85138L305.0 490.85138L305.0 496.03888L300.21875 496.03888ZM300.21875 486.50763L300.21875 477.71075L294.29688 486.50763L300.21875 486.50763ZM318.875 470.16388Q322.625 470.16388 324.73438 472.83575Q327.25 475.992 327.25 483.33575Q327.25 490.64825 324.71875 493.83575Q322.625 496.47638 318.875 496.47638Q315.125 496.47638 312.8125 493.58575Q310.51562 490.69513 310.51562 483.27325Q310.51562 475.992 313.04688 472.8045Q315.14062 470.16388 318.875 470.16388ZM318.875 474.25763Q317.98438 474.25763 317.28125 474.83575Q316.57812 475.39825 316.1875 476.88263Q315.6875 478.78888 315.6875 483.33575Q315.6875 487.867 316.14062 489.57013Q316.59375 491.25763 317.28125 491.82013Q317.98438 492.38263 318.875 492.38263Q319.78125 492.38263 320.48438 491.82013Q321.1875 491.242 321.5625 489.75763Q322.07812 487.867 322.07812 483.33575Q322.07812 478.78888 321.625 477.10138Q321.17188 475.39825 320.46875 474.83575Q319.78125 474.25763 318.875 474.25763Z" fill-rule="nonzero"/><path fill="#4285f4" d="M300.21875 496.03888L300.21875 490.85138L289.67188 490.85138L289.67188 486.52325L300.84375 470.16388L305.0 470.16388L305.0 486.50763L308.20312 486.50763L308.20312 490.85138L305.0 490.85138L305.0 496.03888L300.21875 496.03888ZM300.21875 486.50763L300.21875 477.71075L294.29688 486.50763L300.21875 486.50763ZM318.875 470.16388Q322.625 470.16388 324.73438 472.83575Q327.25 475.992 327.25 483.33575Q327.25 490.64825 324.71875 493.83575Q322.625 496.47638 318.875 496.47638Q315.125 496.47638 312.8125 493.58575Q310.51562 490.69513 310.51562 483.27325Q310.51562 475.992 313.04688 472.8045Q315.14062 470.16388 318.875 470.16388ZM318.875 474.25763Q317.98438 474.25763 317.28125 474.83575Q316.57812 475.39825 316.1875 476.88263Q315.6875 478.78888 315.6875 483.33575Q315.6875 487.867 316.14062 489.57013Q316.59375 491.25763 317.28125 491.82013Q317.98438 492.38263 318.875 492.38263Q319.78125 492.38263 320.48438 491.82013Q321.1875 491.242 321.5625 489.75763Q322.07812 487.867 322.07812 483.33575Q322.07812 478.78888 321.625 477.10138Q321.17188 475.39825 320.46875 474.83575Q319.78125 474.25763 318.875 474.25763Z" fill-rule="nonzero"/><path stroke="#ffffff" stroke-width="3.0" stroke-linejoin="round" stroke-linecap="round" d="M671.349 180.76709L671.349 185.36084L654.0209 185.36084Q654.3021 182.75146 655.7084 180.42334Q657.1146 178.09521 661.2709 174.25146Q664.6146 171.14209 665.3646 170.03271Q666.38025 168.50146 666.38025 167.00146Q666.38025 165.36084 665.4896 164.47021Q664.6146 163.57959 663.0521 163.57959Q661.50525 163.57959 660.5834 164.51709Q659.6771 165.43896 659.5365 167.61084L654.6146 167.11084Q655.0521 163.03271 657.3646 161.26709Q659.69275 159.48584 663.1615 159.48584Q666.9896 159.48584 669.1615 161.54834Q671.349 163.59521 671.349 166.65771Q671.349 168.39209 670.724 169.97021Q670.099 171.54834 668.7396 173.26709Q667.849 174.40771 665.50525 176.56396Q663.1615 178.70459 662.5365 179.40771Q661.9271 180.11084 661.5365 180.76709L671.349 180.76709ZM691.3959 165.90771L686.6146 166.42334Q686.44275 164.95459 685.69275 164.25146Q684.9584 163.54834 683.7865 163.54834Q682.224 163.54834 681.13025 164.95459Q680.0521 166.36084 679.7709 170.79834Q681.6146 168.62646 684.3646 168.62646Q687.4584 168.62646 689.6615 170.98584Q691.8646 173.32959 691.8646 177.06396Q691.8646 181.01709 689.5365 183.40771Q687.224 185.79834 683.5834 185.79834Q679.69275 185.79834 677.1771 182.76709Q674.6615 179.73584 674.6615 172.82959Q674.6615 165.73584 677.2709 162.61084Q679.8959 159.48584 684.0834 159.48584Q687.0209 159.48584 688.94275 161.12646Q690.8646 162.76709 691.3959 165.90771ZM680.19275 176.67334Q680.19275 179.07959 681.3021 180.39209Q682.4115 181.70459 683.8334 181.70459Q685.2084 181.70459 686.1146 180.64209Q687.0365 179.56396 687.0365 177.11084Q687.0365 174.59521 686.0521 173.43896Q685.06775 172.26709 683.5834 172.26709Q682.1615 172.26709 681.1771 173.39209Q680.19275 174.50146 680.19275 176.67334ZM694.6615 164.53271L694.6615 159.93896L711.5521 159.93896L711.5521 163.53271Q709.4584 165.57959 707.2865 169.43896Q705.13025 173.28271 703.9896 177.62646Q702.8646 181.95459 702.88025 185.36084L698.13025 185.36084Q698.2396 180.01709 700.31775 174.47021Q702.4115 168.90771 705.8959 164.53271L694.6615 164.53271Z" fill-rule="nonzero"/><path fill="#4285f4" d="M671.349 180.76709L671.349 185.36084L654.0209 185.36084Q654.3021 182.75146 655.7084 180.42334Q657.1146 178.09521 661.2709 174.25146Q664.6146 171.14209 665.3646 170.03271Q666.38025 168.50146 666.38025 167.00146Q666.38025 165.36084 665.4896 164.47021Q664.6146 163.57959 663.0521 163.57959Q661.50525 163.57959 660.5834 164.51709Q659.6771 165.43896 659.5365 167.61084L654.6146 167.11084Q655.0521 163.03271 657.3646 161.26709Q659.69275 159.48584 663.1615 159.48584Q666.9896 159.48584 669.1615 161.54834Q671.349 163.59521 671.349 166.65771Q671.349 168.39209 670.724 169.97021Q670.099 171.54834 668.7396 173.26709Q667.849 174.40771 665.50525 176.56396Q663.1615 178.70459 662.5365 179.40771Q661.9271 180.11084 661.5365 180.76709L671.349 180.76709ZM691.3959 165.90771L686.6146 166.42334Q686.44275 164.95459 685.69275 164.25146Q684.9584 163.54834 683.7865 163.54834Q682.224 163.54834 681.13025 164.95459Q680.0521 166.36084 679.7709 170.79834Q681.6146 168.62646 684.3646 168.62646Q687.4584 168.62646 689.6615 170.98584Q691.8646 173.32959 691.8646 177.06396Q691.8646 181.01709 689.5365 183.40771Q687.224 185.79834 683.5834 185.79834Q679.69275 185.79834 677.1771 182.76709Q674.6615 179.73584 674.6615 172.82959Q674.6615 165.73584 677.2709 162.61084Q679.8959 159.48584 684.0834 159.48584Q687.0209 159.48584 688.94275 161.12646Q690.8646 162.76709 691.3959 165.90771ZM680.19275 176.67334Q680.19275 179.07959 681.3021 180.39209Q682.4115 181.70459 683.8334 181.70459Q685.2084 181.70459 686.1146 180.64209Q687.0365 179.56396 687.0365 177.11084Q687.0365 174.59521 686.0521 173.43896Q685.06775 172.26709 683.5834 172.26709Q682.1615 172.26709 681.1771 173.39209Q680.19275 174.50146 680.19275 176.67334ZM694.6615 164.53271L694.6615 159.93896L711.5521 159.93896L711.5521 163.53271Q709.4584 165.57959 707.2865 169.43896Q705.13025 173.28271 703.9896 177.62646Q702.8646 181.95459 702.88025 185.36084L698.13025 185.36084Q698.2396 180.01709 700.31775 174.47021Q702.4115 168.90771 705.8959 164.53271L694.6615 164.53271Z" fill-rule="nonzero"/><path stroke="#ffffff" stroke-width="3.0" stroke-linejoin="round" stroke-linecap="round" d="M432.26562 434.08798L427.48438 434.6036Q427.3125 433.13486 426.5625 432.43173Q425.82812 431.7286 424.65625 431.7286Q423.09375 431.7286 422.0 433.13486Q420.92188 434.5411 420.64062 438.9786Q422.48438 436.80673 425.23438 436.80673Q428.32812 436.80673 430.53125 439.1661Q432.73438 441.50986 432.73438 445.24423Q432.73438 449.19736 430.40625 451.58798Q428.09375 453.9786 424.45312 453.9786Q420.5625 453.9786 418.04688 450.94736Q415.53125 447.9161 415.53125 441.00986Q415.53125 433.9161 418.14062 430.7911Q420.76562 427.6661 424.95312 427.6661Q427.89062 427.6661 429.8125 429.30673Q431.73438 430.94736 432.26562 434.08798ZM421.0625 444.8536Q421.0625 447.25986 422.17188 448.57236Q423.28125 449.88486 424.70312 449.88486Q426.07812 449.88486 426.98438 448.82236Q427.90625 447.74423 427.90625 445.2911Q427.90625 442.77548 426.92188 441.61923Q425.9375 440.44736 424.45312 440.44736Q423.03125 440.44736 422.04688 441.57236Q421.0625 442.68173 421.0625 444.8536ZM439.76562 439.63486Q437.84375 438.82236 436.96875 437.4161Q436.10938 435.99423 436.10938 434.30673Q436.10938 431.43173 438.125 429.55673Q440.14062 427.6661 443.84375 427.6661Q447.51562 427.6661 449.54688 429.55673Q451.57812 431.43173 451.57812 434.30673Q451.57812 436.1036 450.64062 437.50986Q449.71875 438.90048 448.03125 439.63486Q450.17188 440.49423 451.28125 442.15048Q452.40625 443.80673 452.40625 445.96298Q452.40625 449.52548 450.125 451.75986Q447.85938 453.99423 444.07812 453.99423Q440.5625 453.99423 438.21875 452.15048Q435.45312 449.9786 435.45312 446.18173Q435.45312 444.08798 436.48438 442.33798Q437.53125 440.58798 439.76562 439.63486ZM440.78125 434.6661Q440.78125 436.13486 441.60938 436.96298Q442.45312 437.7911 443.84375 437.7911Q445.25 437.7911 446.09375 436.96298Q446.9375 436.11923 446.9375 434.65048Q446.9375 433.25986 446.09375 432.43173Q445.26562 431.58798 443.89062 431.58798Q442.46875 431.58798 441.625 432.43173Q440.78125 433.27548 440.78125 434.6661ZM440.32812 445.69736Q440.32812 447.74423 441.375 448.88486Q442.42188 450.02548 443.98438 450.02548Q445.51562 450.02548 446.51562 448.93173Q447.51562 447.82236 447.51562 445.75986Q447.51562 443.94736 446.5 442.8536Q445.48438 441.74423 443.92188 441.74423Q442.10938 441.74423 441.21875 442.99423Q440.32812 444.24423 440.32812 445.69736Z" fill-rule="nonzero"/><path fill="#4285f4" d="M432.26562 434.08798L427.48438 434.6036Q427.3125 433.13486 426.5625 432.43173Q425.82812 431.7286 424.65625 431.7286Q423.09375 431.7286 422.0 433.13486Q420.92188 434.5411 420.64062 438.9786Q422.48438 436.80673 425.23438 436.80673Q428.32812 436.80673 430.53125 439.1661Q432.73438 441.50986 432.73438 445.24423Q432.73438 449.19736 430.40625 451.58798Q428.09375 453.9786 424.45312 453.9786Q420.5625 453.9786 418.04688 450.94736Q415.53125 447.9161 415.53125 441.00986Q415.53125 433.9161 418.14062 430.7911Q420.76562 427.6661 424.95312 427.6661Q427.89062 427.6661 429.8125 429.30673Q431.73438 430.94736 432.26562 434.08798ZM421.0625 444.8536Q421.0625 447.25986 422.17188 448.57236Q423.28125 449.88486 424.70312 449.88486Q426.07812 449.88486 426.98438 448.82236Q427.90625 447.74423 427.90625 445.2911Q427.90625 442.77548 426.92188 441.61923Q425.9375 440.44736 424.45312 440.44736Q423.03125 440.44736 422.04688 441.57236Q421.0625 442.68173 421.0625 444.8536ZM439.76562 439.63486Q437.84375 438.82236 436.96875 437.4161Q436.10938 435.99423 436.10938 434.30673Q436.10938 431.43173 438.125 429.55673Q440.14062 427.6661 443.84375 427.6661Q447.51562 427.6661 449.54688 429.55673Q451.57812 431.43173 451.57812 434.30673Q451.57812 436.1036 450.64062 437.50986Q449.71875 438.90048 448.03125 439.63486Q450.17188 440.49423 451.28125 442.15048Q452.40625 443.80673 452.40625 445.96298Q452.40625 449.52548 450.125 451.75986Q447.85938 453.99423 444.07812 453.99423Q440.5625 453.99423 438.21875 452.15048Q435.45312 449.9786 435.45312 446.18173Q435.45312 444.08798 436.48438 442.33798Q437.53125 440.58798 439.76562 439.63486ZM440.78125 434.6661Q440.78125 436.13486 441.60938 436.96298Q442.45312 437.7911 443.84375 437.7911Q445.25 437.7911 446.09375 436.96298Q446.9375 436.11923 446.9375 434.65048Q446.9375 433.25986 446.09375 432.43173Q445.26562 431.58798 443.89062 431.58798Q442.46875 431.58798 441.625 432.43173Q440.78125 433.27548 440.78125 434.6661ZM440.32812 445.69736Q440.32812 447.74423 441.375 448.88486Q442.42188 450.02548 443.98438 450.02548Q445.51562 450.02548 446.51562 448.93173Q447.51562 447.82236 447.51562 445.75986Q447.51562 443.94736 446.5 442.8536Q445.48438 441.74423 443.92188 441.74423Q442.10938 441.74423 441.21875 442.99423Q440.32812 444.24423 440.32812 445.69736Z" fill-rule="nonzero"/><path stroke="#ffffff" stroke-width="3.0" stroke-linejoin="round" stroke-linecap="round" d="M543.1719 297.21L538.2344 297.21L538.2344 278.60062Q535.5156 281.13187 531.84375 282.335L531.84375 277.85062Q533.78125 277.22562 536.0469 275.46Q538.3125 273.69437 539.15625 271.335L543.1719 271.335L543.1719 297.21ZM550.53125 276.38187L550.53125 271.78812L567.4219 271.78812L567.4219 275.38187Q565.3281 277.42874 563.15625 281.28812Q561.0 285.13187 559.8594 289.47562Q558.7344 293.80374 558.75 297.21L554.0 297.21Q554.1094 291.86624 556.1875 286.31937Q558.28125 280.75687 561.7656 276.38187L550.53125 276.38187ZM583.1719 297.21L578.2344 297.21L578.2344 278.60062Q575.5156 281.13187 571.84375 282.335L571.84375 277.85062Q573.78125 277.22562 576.0469 275.46Q578.3125 273.69437 579.15625 271.335L583.1719 271.335L583.1719 297.21Z" fill-rule="nonzero"/><path fill="#4285f4" d="M543.1719 297.21L538.2344 297.21L538.2344 278.60062Q535.5156 281.13187 531.84375 282.335L531.84375 277.85062Q533.78125 277.22562 536.0469 275.46Q538.3125 273.69437 539.15625 271.335L543.1719 271.335L543.1719 297.21ZM550.53125 276.38187L550.53125 271.78812L567.4219 271.78812L567.4219 275.38187Q565.3281 277.42874 563.15625 281.28812Q561.0 285.13187 559.8594 289.47562Q558.7344 293.80374 558.75 297.21L554.0 297.21Q554.1094 291.86624 556.1875 286.31937Q558.28125 280.75687 561.7656 276.38187L550.53125 276.38187ZM583.1719 297.21L578.2344 297.21L578.2344 278.60062Q575.5156 281.13187 571.84375 282.335L571.84375 277.85062Q573.78125 277.22562 576.0469 275.46Q578.3125 273.69437 579.15625 271.335L583.1719 271.335L583.1719 297.21Z" fill-rule="nonzero"/><path fill="#000000" d="M76.484375 589.6875Q79.609375 589.6875 81.359375 591.90625Q83.453125 594.5469 83.453125 600.65625Q83.453125 606.75 81.34375 609.4219Q79.609375 611.6094 76.484375 611.6094Q73.34375 611.6094 71.421875 609.2031Q69.515625 606.7969 69.515625 600.6094Q69.515625 594.5469 71.625 591.8906Q73.359375 589.6875 76.484375 589.6875ZM76.484375 593.09375Q75.734375 593.09375 75.140625 593.5781Q74.5625 594.0469 74.234375 595.28125Q73.8125 596.875 73.8125 600.65625Q73.8125 604.4375 74.1875 605.8594Q74.578125 607.2656 75.15625 607.7344Q75.734375 608.2031 76.484375 608.2031Q77.234375 608.2031 77.8125 607.7344Q78.40625 607.25 78.71875 606.0156Q79.15625 604.4375 79.15625 600.65625Q79.15625 596.875 78.765625 595.46875Q78.390625 594.0469 77.8125 593.5781Q77.234375 593.09375 76.484375 593.09375Z" fill-rule="nonzero"/><path fill="#000000" d="M46.0625 459.47223L41.9375 459.47223L41.9375 443.9566Q39.6875 446.06598 36.625 447.0816L36.625 443.34723Q38.234375 442.81598 40.125 441.34723Q42.015625 439.87848 42.71875 437.90973L46.0625 437.90973L46.0625 459.47223ZM59.484375 437.90973Q62.609375 437.90973 64.359375 440.12848Q66.453125 442.7691 66.453125 448.87848Q66.453125 454.97223 64.34375 457.6441Q62.609375 459.8316 59.484375 459.8316Q56.34375 459.8316 54.421875 457.42535Q52.515625 455.0191 52.515625 448.8316Q52.515625 442.7691 54.625 440.11285Q56.359375 437.90973 59.484375 437.90973ZM59.484375 441.31598Q58.734375 441.31598 58.140625 441.80035Q57.5625 442.2691 57.234375 443.50348Q56.8125 445.09723 56.8125 448.87848Q56.8125 452.65973 57.1875 454.0816Q57.578125 455.48785 58.15625 455.9566Q58.734375 456.42535 59.484375 456.42535Q60.234375 456.42535 60.8125 455.9566Q61.40625 455.47223 61.71875 454.23785Q62.15625 452.65973 62.15625 448.87848Q62.15625 445.09723 61.765625 443.69098Q61.390625 442.2691 60.8125 441.80035Q60.234375 441.31598 59.484375 441.31598ZM76.484375 437.90973Q79.609375 437.90973 81.359375 440.12848Q83.453125 442.7691 83.453125 448.87848Q83.453125 454.97223 81.34375 457.6441Q79.609375 459.8316 76.484375 459.8316Q73.34375 459.8316 71.421875 457.42535Q69.515625 455.0191 69.515625 448.8316Q69.515625 442.7691 71.625 440.11285Q73.359375 437.90973 76.484375 437.90973ZM76.484375 441.31598Q75.734375 441.31598 75.140625 441.80035Q74.5625 442.2691 74.234375 443.50348Q73.8125 445.09723 73.8125 448.87848Q73.8125 452.65973 74.1875 454.0816Q74.578125 455.48785 75.15625 455.9566Q75.734375 456.42535 76.484375 456.42535Q77.234375 456.42535 77.8125 455.9566Q78.40625 455.47223 78.71875 454.23785Q79.15625 452.65973 79.15625 448.87848Q79.15625 445.09723 78.765625 443.69098Q78.390625 442.2691 77.8125 441.80035Q77.234375 441.31598 76.484375 441.31598Z" fill-rule="nonzero"/><path fill="#000000" d="M49.421875 303.86633L49.421875 307.69446L35.0 307.69446Q35.234375 305.52258 36.40625 303.58508Q37.578125 301.64758 41.03125 298.42883Q43.8125 295.8507 44.453125 294.9132Q45.296875 293.64758 45.296875 292.39758Q45.296875 291.02258 44.546875 290.2882Q43.8125 289.5382 42.515625 289.5382Q41.21875 289.5382 40.453125 290.31946Q39.703125 291.1007 39.578125 292.89758L35.484375 292.49133Q35.84375 289.08508 37.78125 287.61633Q39.71875 286.13196 42.609375 286.13196Q45.796875 286.13196 47.609375 287.8507Q49.421875 289.55383 49.421875 292.1007Q49.421875 293.55383 48.90625 294.86633Q48.390625 296.17883 47.265625 297.61633Q46.515625 298.56946 44.5625 300.36633Q42.609375 302.14758 42.09375 302.74133Q41.578125 303.31946 41.25 303.86633L49.421875 303.86633ZM59.484375 286.13196Q62.609375 286.13196 64.359375 288.3507Q66.453125 290.99133 66.453125 297.1007Q66.453125 303.19446 64.34375 305.86633Q62.609375 308.05383 59.484375 308.05383Q56.34375 308.05383 54.421875 305.64758Q52.515625 303.24133 52.515625 297.05383Q52.515625 290.99133 54.625 288.33508Q56.359375 286.13196 59.484375 286.13196ZM59.484375 289.5382Q58.734375 289.5382 58.140625 290.02258Q57.5625 290.49133 57.234375 291.7257Q56.8125 293.31946 56.8125 297.1007Q56.8125 300.88196 57.1875 302.30383Q57.578125 303.71008 58.15625 304.17883Q58.734375 304.64758 59.484375 304.64758Q60.234375 304.64758 60.8125 304.17883Q61.40625 303.69446 61.71875 302.46008Q62.15625 300.88196 62.15625 297.1007Q62.15625 293.31946 61.765625 291.9132Q61.390625 290.49133 60.8125 290.02258Q60.234375 289.5382 59.484375 289.5382ZM76.484375 286.13196Q79.609375 286.13196 81.359375 288.3507Q83.453125 290.99133 83.453125 297.1007Q83.453125 303.19446 81.34375 305.86633Q79.609375 308.05383 76.484375 308.05383Q73.34375 308.05383 71.421875 305.64758Q69.515625 303.24133 69.515625 297.05383Q69.515625 290.99133 71.625 288.33508Q73.359375 286.13196 76.484375 286.13196ZM76.484375 289.5382Q75.734375 289.5382 75.140625 290.02258Q74.5625 290.49133 74.234375 291.7257Q73.8125 293.31946 73.8125 297.1007Q73.8125 300.88196 74.1875 302.30383Q74.578125 303.71008 75.15625 304.17883Q75.734375 304.64758 76.484375 304.64758Q77.234375 304.64758 77.8125 304.17883Q78.40625 303.69446 78.71875 302.46008Q79.15625 300.88196 79.15625 297.1007Q79.15625 293.31946 78.765625 291.9132Q78.390625 290.49133 77.8125 290.02258Q77.234375 289.5382 76.484375 289.5382Z" fill-rule="nonzero"/><path fill="#000000" d="M35.375 150.21355L39.359375 149.72917Q39.546875 151.26042 40.375 152.07292Q41.21875 152.8698 42.40625 152.8698Q43.6875 152.8698 44.546875 151.90105Q45.421875 150.9323 45.421875 149.29167Q45.421875 147.7448 44.578125 146.83855Q43.75 145.9323 42.5625 145.9323Q41.765625 145.9323 40.671875 146.22917L41.125 142.88542Q42.796875 142.91667 43.671875 142.15105Q44.546875 141.38542 44.546875 140.10417Q44.546875 139.02605 43.90625 138.38542Q43.265625 137.7448 42.1875 137.7448Q41.140625 137.7448 40.390625 138.47917Q39.640625 139.19792 39.484375 140.60417L35.6875 139.96355Q36.078125 138.01042 36.875 136.85417Q37.671875 135.6823 39.09375 135.02605Q40.53125 134.35417 42.3125 134.35417Q45.34375 134.35417 47.171875 136.29167Q48.671875 137.8698 48.671875 139.85417Q48.671875 142.6823 45.59375 144.3698Q47.4375 144.77605 48.53125 146.15105Q49.640625 147.52605 49.640625 149.46355Q49.640625 152.29167 47.578125 154.29167Q45.515625 156.27605 42.4375 156.27605Q39.53125 156.27605 37.609375 154.60417Q35.6875 152.9323 35.375 150.21355ZM59.484375 134.35417Q62.609375 134.35417 64.359375 136.57292Q66.453125 139.21355 66.453125 145.32292Q66.453125 151.41667 64.34375 154.08855Q62.609375 156.27605 59.484375 156.27605Q56.34375 156.27605 54.421875 153.8698Q52.515625 151.46355 52.515625 145.27605Q52.515625 139.21355 54.625 136.5573Q56.359375 134.35417 59.484375 134.35417ZM59.484375 137.76042Q58.734375 137.76042 58.140625 138.2448Q57.5625 138.71355 57.234375 139.94792Q56.8125 141.54167 56.8125 145.32292Q56.8125 149.10417 57.1875 150.52605Q57.578125 151.9323 58.15625 152.40105Q58.734375 152.8698 59.484375 152.8698Q60.234375 152.8698 60.8125 152.40105Q61.40625 151.91667 61.71875 150.6823Q62.15625 149.10417 62.15625 145.32292Q62.15625 141.54167 61.765625 140.13542Q61.390625 138.71355 60.8125 138.2448Q60.234375 137.76042 59.484375 137.76042ZM76.484375 134.35417Q79.609375 134.35417 81.359375 136.57292Q83.453125 139.21355 83.453125 145.32292Q83.453125 151.41667 81.34375 154.08855Q79.609375 156.27605 76.484375 156.27605Q73.34375 156.27605 71.421875 153.8698Q69.515625 151.46355 69.515625 145.27605Q69.515625 139.21355 71.625 136.5573Q73.359375 134.35417 76.484375 134.35417ZM76.484375 137.76042Q75.734375 137.76042 75.140625 138.2448Q74.5625 138.71355 74.234375 139.94792Q73.8125 141.54167 73.8125 145.32292Q73.8125 149.10417 74.1875 150.52605Q74.578125 151.9323 75.15625 152.40105Q75.734375 152.8698 76.484375 152.8698Q77.234375 152.8698 77.8125 152.40105Q78.40625 151.91667 78.71875 150.6823Q79.15625 149.10417 79.15625 145.32292Q79.15625 141.54167 78.765625 140.13542Q78.390625 138.71355 77.8125 138.2448Q77.234375 137.76042 76.484375 137.76042Z" fill-rule="nonzero"/><path fill="#000000" d="M150.13916 639.9219L150.13916 643.75L135.71729 643.75Q135.95166 641.5781 137.12354 639.6406Q138.29541 637.7031 141.74854 634.4844Q144.52979 631.90625 145.17041 630.96875Q146.01416 629.7031 146.01416 628.4531Q146.01416 627.0781 145.26416 626.34375Q144.52979 625.59375 143.23291 625.59375Q141.93604 625.59375 141.17041 626.375Q140.42041 627.15625 140.29541 628.9531L136.20166 628.5469Q136.56104 625.1406 138.49854 623.6719Q140.43604 622.1875 143.32666 622.1875Q146.51416 622.1875 148.32666 623.90625Q150.13916 625.6094 150.13916 628.15625Q150.13916 629.6094 149.62354 630.9219Q149.10791 632.2344 147.98291 633.6719Q147.23291 634.625 145.27979 636.4219Q143.32666 638.2031 142.81104 638.7969Q142.29541 639.375 141.96729 639.9219L150.13916 639.9219ZM160.20166 622.1875Q163.32666 622.1875 165.07666 624.40625Q167.17041 627.0469 167.17041 633.15625Q167.17041 639.25 165.06104 641.9219Q163.32666 644.1094 160.20166 644.1094Q157.06104 644.1094 155.13916 641.7031Q153.23291 639.2969 153.23291 633.1094Q153.23291 627.0469 155.34229 624.3906Q157.07666 622.1875 160.20166 622.1875ZM160.20166 625.59375Q159.45166 625.59375 158.85791 626.0781Q158.27979 626.5469 157.95166 627.78125Q157.52979 629.375 157.52979 633.15625Q157.52979 636.9375 157.90479 638.3594Q158.29541 639.7656 158.87354 640.2344Q159.45166 640.7031 160.20166 640.7031Q160.95166 640.7031 161.52979 640.2344Q162.12354 639.75 162.43604 638.5156Q162.87354 636.9375 162.87354 633.15625Q162.87354 629.375 162.48291 627.96875Q162.10791 626.5469 161.52979 626.0781Q160.95166 625.59375 160.20166 625.59375ZM180.77979 643.75L176.65479 643.75L176.65479 628.2344Q174.40479 630.34375 171.34229 631.3594L171.34229 627.625Q172.95166 627.09375 174.84229 625.625Q176.73291 624.15625 177.43604 622.1875L180.77979 622.1875L180.77979 643.75ZM187.32666 638.78125L191.31104 638.34375Q191.46729 639.5625 192.07666 640.15625Q192.68604 640.7344 193.70166 640.7344Q194.98291 640.7344 195.87354 639.5625Q196.76416 638.3906 197.01416 634.7031Q195.46729 636.5 193.12354 636.5Q190.59229 636.5 188.74854 634.5469Q186.92041 632.59375 186.92041 629.4531Q186.92041 626.1875 188.85791 624.1875Q190.79541 622.1875 193.81104 622.1875Q197.07666 622.1875 199.17041 624.71875Q201.26416 627.2344 201.26416 633.03125Q201.26416 638.9219 199.07666 641.53125Q196.88916 644.125 193.38916 644.125Q190.87354 644.125 189.31104 642.7969Q187.76416 641.4531 187.32666 638.78125ZM196.63916 629.7969Q196.63916 627.7969 195.71729 626.7031Q194.81104 625.59375 193.60791 625.59375Q192.46729 625.59375 191.71729 626.5Q190.96729 627.40625 190.96729 629.4531Q190.96729 631.53125 191.77979 632.5156Q192.60791 633.4844 193.82666 633.4844Q195.01416 633.4844 195.82666 632.5469Q196.63916 631.6094 196.63916 629.7969Z" fill-rule="nonzero"/><path fill="#000000" d="M213.32666 625.46875Q211.23291 629.125 207.35791 632.15625L204.93604 629.0469Q210.07666 625.28125 211.95166 618.21875L215.40479 619.125Q216.87354 620.6094 215.17041 620.84375L214.71729 621.9844L230.93604 621.9844L230.93604 625.46875L222.38916 625.46875L222.38916 628.2031L229.42041 628.2031L229.42041 631.6719L222.38916 631.6719L222.38916 635.7031L232.23291 635.7031L232.23291 639.1719L222.38916 639.1719L222.38916 646.21875L218.79541 646.21875L218.79541 639.1719L205.31104 639.1719L205.31104 635.7031L210.59229 635.7031L210.59229 628.2031L218.79541 628.2031L218.79541 625.46875L213.32666 625.46875ZM214.18604 635.7031L218.79541 635.7031L218.79541 631.6719L214.18604 631.6719L214.18604 635.7031Z" fill-rule="nonzero"/><path fill="#000000" d="M274.90552 639.9219L274.90552 643.75L260.48364 643.75Q260.71802 641.5781 261.8899 639.6406Q263.06177 637.7031 266.5149 634.4844Q269.29614 631.90625 269.93677 630.96875Q270.78052 629.7031 270.78052 628.4531Q270.78052 627.0781 270.03052 626.34375Q269.29614 625.59375 267.99927 625.59375Q266.7024 625.59375 265.93677 626.375Q265.18677 627.15625 265.06177 628.9531L260.96802 628.5469Q261.3274 625.1406 263.2649 623.6719Q265.2024 622.1875 268.09302 622.1875Q271.28052 622.1875 273.09302 623.90625Q274.90552 625.6094 274.90552 628.15625Q274.90552 629.6094 274.3899 630.9219Q273.87427 632.2344 272.74927 633.6719Q271.99927 634.625 270.04614 636.4219Q268.09302 638.2031 267.5774 638.7969Q267.06177 639.375 266.73364 639.9219L274.90552 639.9219ZM284.96802 622.1875Q288.09302 622.1875 289.84302 624.40625Q291.93677 627.0469 291.93677 633.15625Q291.93677 639.25 289.8274 641.9219Q288.09302 644.1094 284.96802 644.1094Q281.8274 644.1094 279.90552 641.7031Q277.99927 639.2969 277.99927 633.1094Q277.99927 627.0469 280.10864 624.3906Q281.84302 622.1875 284.96802 622.1875ZM284.96802 625.59375Q284.21802 625.59375 283.62427 626.0781Q283.04614 626.5469 282.71802 627.78125Q282.29614 629.375 282.29614 633.15625Q282.29614 636.9375 282.67114 638.3594Q283.06177 639.7656 283.6399 640.2344Q284.21802 640.7031 284.96802 640.7031Q285.71802 640.7031 286.29614 640.2344Q286.8899 639.75 287.2024 638.5156Q287.6399 636.9375 287.6399 633.15625Q287.6399 629.375 287.24927 627.96875Q286.87427 626.5469 286.29614 626.0781Q285.71802 625.59375 284.96802 625.59375ZM308.90552 639.9219L308.90552 643.75L294.48364 643.75Q294.71802 641.5781 295.8899 639.6406Q297.06177 637.7031 300.5149 634.4844Q303.29614 631.90625 303.93677 630.96875Q304.78052 629.7031 304.78052 628.4531Q304.78052 627.0781 304.03052 626.34375Q303.29614 625.59375 301.99927 625.59375Q300.7024 625.59375 299.93677 626.375Q299.18677 627.15625 299.06177 628.9531L294.96802 628.5469Q295.3274 625.1406 297.2649 623.6719Q299.2024 622.1875 302.09302 622.1875Q305.28052 622.1875 307.09302 623.90625Q308.90552 625.6094 308.90552 628.15625Q308.90552 629.6094 308.3899 630.9219Q307.87427 632.2344 306.74927 633.6719Q305.99927 634.625 304.04614 636.4219Q302.09302 638.2031 301.5774 638.7969Q301.06177 639.375 300.73364 639.9219L308.90552 639.9219ZM318.96802 622.1875Q322.09302 622.1875 323.84302 624.40625Q325.93677 627.0469 325.93677 633.15625Q325.93677 639.25 323.8274 641.9219Q322.09302 644.1094 318.96802 644.1094Q315.8274 644.1094 313.90552 641.7031Q311.99927 639.2969 311.99927 633.1094Q311.99927 627.0469 314.10864 624.3906Q315.84302 622.1875 318.96802 622.1875ZM318.96802 625.59375Q318.21802 625.59375 317.62427 626.0781Q317.04614 626.5469 316.71802 627.78125Q316.29614 629.375 316.29614 633.15625Q316.29614 636.9375 316.67114 638.3594Q317.06177 639.7656 317.6399 640.2344Q318.21802 640.7031 318.96802 640.7031Q319.71802 640.7031 320.29614 640.2344Q320.8899 639.75 321.2024 638.5156Q321.6399 636.9375 321.6399 633.15625Q321.6399 629.375 321.24927 627.96875Q320.87427 626.5469 320.29614 626.0781Q319.71802 625.59375 318.96802 625.59375Z" fill-rule="nonzero"/><path fill="#000000" d="M338.09302 625.46875Q335.99927 629.125 332.12427 632.15625L329.7024 629.0469Q334.84302 625.28125 336.71802 618.21875L340.17114 619.125Q341.6399 620.6094 339.93677 620.84375L339.48364 621.9844L355.7024 621.9844L355.7024 625.46875L347.15552 625.46875L347.15552 628.2031L354.18677 628.2031L354.18677 631.6719L347.15552 631.6719L347.15552 635.7031L356.99927 635.7031L356.99927 639.1719L347.15552 639.1719L347.15552 646.21875L343.56177 646.21875L343.56177 639.1719L330.0774 639.1719L330.0774 635.7031L335.35864 635.7031L335.35864 628.2031L343.56177 628.2031L343.56177 625.46875L338.09302 625.46875ZM338.9524 635.7031L343.56177 635.7031L343.56177 631.6719L338.9524 631.6719L338.9524 635.7031Z" fill-rule="nonzero"/><path fill="#000000" d="M399.67188 639.9219L399.67188 643.75L385.25 643.75Q385.48438 641.5781 386.65625 639.6406Q387.82812 637.7031 391.28125 634.4844Q394.0625 631.90625 394.70312 630.96875Q395.54688 629.7031 395.54688 628.4531Q395.54688 627.0781 394.79688 626.34375Q394.0625 625.59375 392.76562 625.59375Q391.46875 625.59375 390.70312 626.375Q389.95312 627.15625 389.82812 628.9531L385.73438 628.5469Q386.09375 625.1406 388.03125 623.6719Q389.96875 622.1875 392.85938 622.1875Q396.04688 622.1875 397.85938 623.90625Q399.67188 625.6094 399.67188 628.15625Q399.67188 629.6094 399.15625 630.9219Q398.64062 632.2344 397.51562 633.6719Q396.76562 634.625 394.8125 636.4219Q392.85938 638.2031 392.34375 638.7969Q391.82812 639.375 391.5 639.9219L399.67188 639.9219ZM409.73438 622.1875Q412.85938 622.1875 414.60938 624.40625Q416.70312 627.0469 416.70312 633.15625Q416.70312 639.25 414.59375 641.9219Q412.85938 644.1094 409.73438 644.1094Q406.59375 644.1094 404.67188 641.7031Q402.76562 639.2969 402.76562 633.1094Q402.76562 627.0469 404.875 624.3906Q406.60938 622.1875 409.73438 622.1875ZM409.73438 625.59375Q408.98438 625.59375 408.39062 626.0781Q407.8125 626.5469 407.48438 627.78125Q407.0625 629.375 407.0625 633.15625Q407.0625 636.9375 407.4375 638.3594Q407.82812 639.7656 408.40625 640.2344Q408.98438 640.7031 409.73438 640.7031Q410.48438 640.7031 411.0625 640.2344Q411.65625 639.75 411.96875 638.5156Q412.40625 636.9375 412.40625 633.15625Q412.40625 629.375 412.01562 627.96875Q411.64062 626.5469 411.0625 626.0781Q410.48438 625.59375 409.73438 625.59375ZM433.67188 639.9219L433.67188 643.75L419.25 643.75Q419.48438 641.5781 420.65625 639.6406Q421.82812 637.7031 425.28125 634.4844Q428.0625 631.90625 428.70312 630.96875Q429.54688 629.7031 429.54688 628.4531Q429.54688 627.0781 428.79688 626.34375Q428.0625 625.59375 426.76562 625.59375Q425.46875 625.59375 424.70312 626.375Q423.95312 627.15625 423.82812 628.9531L419.73438 628.5469Q420.09375 625.1406 422.03125 623.6719Q423.96875 622.1875 426.85938 622.1875Q430.04688 622.1875 431.85938 623.90625Q433.67188 625.6094 433.67188 628.15625Q433.67188 629.6094 433.15625 630.9219Q432.64062 632.2344 431.51562 633.6719Q430.76562 634.625 428.8125 636.4219Q426.85938 638.2031 426.34375 638.7969Q425.82812 639.375 425.5 639.9219L433.67188 639.9219ZM447.3125 643.75L443.1875 643.75L443.1875 628.2344Q440.9375 630.34375 437.875 631.3594L437.875 627.625Q439.48438 627.09375 441.375 625.625Q443.26562 624.15625 443.96875 622.1875L447.3125 622.1875L447.3125 643.75Z" fill-rule="nonzero"/><path fill="#000000" d="M462.85938 625.46875Q460.76562 629.125 456.89062 632.15625L454.46875 629.0469Q459.60938 625.28125 461.48438 618.21875L464.9375 619.125Q466.40625 620.6094 464.70312 620.84375L464.25 621.9844L480.46875 621.9844L480.46875 625.46875L471.92188 625.46875L471.92188 628.2031L478.95312 628.2031L478.95312 631.6719L471.92188 631.6719L471.92188 635.7031L481.76562 635.7031L481.76562 639.1719L471.92188 639.1719L471.92188 646.21875L468.32812 646.21875L468.32812 639.1719L454.84375 639.1719L454.84375 635.7031L460.125 635.7031L460.125 628.2031L468.32812 628.2031L468.32812 625.46875L462.85938 625.46875ZM463.71875 635.7031L468.32812 635.7031L468.32812 631.6719L463.71875 631.6719L463.71875 635.7031Z" fill-rule="nonzero"/><path fill="#000000" d="M524.43823 639.9219L524.43823 643.75L510.01636 643.75Q510.25073 641.5781 511.4226 639.6406Q512.5945 637.7031 516.0476 634.4844Q518.82886 631.90625 519.4695 630.96875Q520.31323 629.7031 520.31323 628.4531Q520.31323 627.0781 519.56323 626.34375Q518.82886 625.59375 517.532 625.59375Q516.2351 625.59375 515.4695 626.375Q514.7195 627.15625 514.5945 628.9531L510.50073 628.5469Q510.8601 625.1406 512.7976 623.6719Q514.7351 622.1875 517.62573 622.1875Q520.81323 622.1875 522.62573 623.90625Q524.43823 625.6094 524.43823 628.15625Q524.43823 629.6094 523.9226 630.9219Q523.407 632.2344 522.282 633.6719Q521.532 634.625 519.57886 636.4219Q517.62573 638.2031 517.1101 638.7969Q516.5945 639.375 516.26636 639.9219L524.43823 639.9219ZM534.50073 622.1875Q537.62573 622.1875 539.37573 624.40625Q541.4695 627.0469 541.4695 633.15625Q541.4695 639.25 539.3601 641.9219Q537.62573 644.1094 534.50073 644.1094Q531.3601 644.1094 529.43823 641.7031Q527.532 639.2969 527.532 633.1094Q527.532 627.0469 529.64136 624.3906Q531.37573 622.1875 534.50073 622.1875ZM534.50073 625.59375Q533.75073 625.59375 533.157 626.0781Q532.57886 626.5469 532.25073 627.78125Q531.82886 629.375 531.82886 633.15625Q531.82886 636.9375 532.20386 638.3594Q532.5945 639.7656 533.1726 640.2344Q533.75073 640.7031 534.50073 640.7031Q535.25073 640.7031 535.82886 640.2344Q536.4226 639.75 536.7351 638.5156Q537.1726 636.9375 537.1726 633.15625Q537.1726 629.375 536.782 627.96875Q536.407 626.5469 535.82886 626.0781Q535.25073 625.59375 534.50073 625.59375ZM558.43823 639.9219L558.43823 643.75L544.01636 643.75Q544.25073 641.5781 545.4226 639.6406Q546.5945 637.7031 550.0476 634.4844Q552.82886 631.90625 553.4695 630.96875Q554.31323 629.7031 554.31323 628.4531Q554.31323 627.0781 553.56323 626.34375Q552.82886 625.59375 551.532 625.59375Q550.2351 625.59375 549.4695 626.375Q548.7195 627.15625 548.5945 628.9531L544.50073 628.5469Q544.8601 625.1406 546.7976 623.6719Q548.7351 622.1875 551.62573 622.1875Q554.81323 622.1875 556.62573 623.90625Q558.43823 625.6094 558.43823 628.15625Q558.43823 629.6094 557.9226 630.9219Q557.407 632.2344 556.282 633.6719Q555.532 634.625 553.57886 636.4219Q551.62573 638.2031 551.1101 638.7969Q550.5945 639.375 550.26636 639.9219L558.43823 639.9219ZM575.43823 639.9219L575.43823 643.75L561.01636 643.75Q561.25073 641.5781 562.4226 639.6406Q563.5945 637.7031 567.0476 634.4844Q569.82886 631.90625 570.4695 630.96875Q571.31323 629.7031 571.31323 628.4531Q571.31323 627.0781 570.56323 626.34375Q569.82886 625.59375 568.532 625.59375Q567.2351 625.59375 566.4695 626.375Q565.7195 627.15625 565.5945 628.9531L561.50073 628.5469Q561.8601 625.1406 563.7976 623.6719Q565.7351 622.1875 568.62573 622.1875Q571.81323 622.1875 573.62573 623.90625Q575.43823 625.6094 575.43823 628.15625Q575.43823 629.6094 574.9226 630.9219Q574.407 632.2344 573.282 633.6719Q572.532 634.625 570.57886 636.4219Q568.62573 638.2031 568.1101 638.7969Q567.5945 639.375 567.26636 639.9219L575.43823 639.9219Z" fill-rule="nonzero"/><path fill="#000000" d="M587.62573 625.46875Q585.532 629.125 581.657 632.15625L579.2351 629.0469Q584.37573 625.28125 586.25073 618.21875L589.70386 619.125Q591.1726 620.6094 589.4695 620.84375L589.01636 621.9844L605.2351 621.9844L605.2351 625.46875L596.68823 625.46875L596.68823 628.2031L603.7195 628.2031L603.7195 631.6719L596.68823 631.6719L596.68823 635.7031L606.532 635.7031L606.532 639.1719L596.68823 639.1719L596.68823 646.21875L593.0945 646.21875L593.0945 639.1719L579.6101 639.1719L579.6101 635.7031L584.89136 635.7031L584.89136 628.2031L593.0945 628.2031L593.0945 625.46875L587.62573 625.46875ZM588.4851 635.7031L593.0945 635.7031L593.0945 631.6719L588.4851 631.6719L588.4851 635.7031Z" fill-rule="nonzero"/><path fill="#000000" d="M649.2046 639.9219L649.2046 643.75L634.7827 643.75Q635.0171 641.5781 636.18896 639.6406Q637.36084 637.7031 640.81396 634.4844Q643.5952 631.90625 644.23584 630.96875Q645.0796 629.7031 645.0796 628.4531Q645.0796 627.0781 644.3296 626.34375Q643.5952 625.59375 642.29834 625.59375Q641.00146 625.59375 640.23584 626.375Q639.48584 627.15625 639.36084 628.9531L635.2671 628.5469Q635.62646 625.1406 637.56396 623.6719Q639.50146 622.1875 642.3921 622.1875Q645.5796 622.1875 647.3921 623.90625Q649.2046 625.6094 649.2046 628.15625Q649.2046 629.6094 648.68896 630.9219Q648.17334 632.2344 647.04834 633.6719Q646.29834 634.625 644.3452 636.4219Q642.3921 638.2031 641.87646 638.7969Q641.36084 639.375 641.0327 639.9219L649.2046 639.9219ZM659.2671 622.1875Q662.3921 622.1875 664.1421 624.40625Q666.23584 627.0469 666.23584 633.15625Q666.23584 639.25 664.12646 641.9219Q662.3921 644.1094 659.2671 644.1094Q656.12646 644.1094 654.2046 641.7031Q652.29834 639.2969 652.29834 633.1094Q652.29834 627.0469 654.4077 624.3906Q656.1421 622.1875 659.2671 622.1875ZM659.2671 625.59375Q658.5171 625.59375 657.92334 626.0781Q657.3452 626.5469 657.0171 627.78125Q656.5952 629.375 656.5952 633.15625Q656.5952 636.9375 656.9702 638.3594Q657.36084 639.7656 657.93896 640.2344Q658.5171 640.7031 659.2671 640.7031Q660.0171 640.7031 660.5952 640.2344Q661.18896 639.75 661.50146 638.5156Q661.93896 636.9375 661.93896 633.15625Q661.93896 629.375 661.54834 627.96875Q661.17334 626.5469 660.5952 626.0781Q660.0171 625.59375 659.2671 625.59375ZM683.2046 639.9219L683.2046 643.75L668.7827 643.75Q669.0171 641.5781 670.18896 639.6406Q671.36084 637.7031 674.81396 634.4844Q677.5952 631.90625 678.23584 630.96875Q679.0796 629.7031 679.0796 628.4531Q679.0796 627.0781 678.3296 626.34375Q677.5952 625.59375 676.29834 625.59375Q675.00146 625.59375 674.23584 626.375Q673.48584 627.15625 673.36084 628.9531L669.2671 628.5469Q669.62646 625.1406 671.56396 623.6719Q673.50146 622.1875 676.3921 622.1875Q679.5796 622.1875 681.3921 623.90625Q683.2046 625.6094 683.2046 628.15625Q683.2046 629.6094 682.68896 630.9219Q682.17334 632.2344 681.04834 633.6719Q680.29834 634.625 678.3452 636.4219Q676.3921 638.2031 675.87646 638.7969Q675.36084 639.375 675.0327 639.9219L683.2046 639.9219ZM686.1577 638.0469L690.1421 637.5625Q690.3296 639.09375 691.1577 639.90625Q692.00146 640.7031 693.18896 640.7031Q694.4702 640.7031 695.3296 639.7344Q696.2046 638.7656 696.2046 637.125Q696.2046 635.5781 695.36084 634.6719Q694.5327 633.7656 693.3452 633.7656Q692.54834 633.7656 691.4546 634.0625L691.9077 630.71875Q693.5796 630.75 694.4546 629.9844Q695.3296 629.21875 695.3296 627.9375Q695.3296 626.8594 694.68896 626.21875Q694.04834 625.5781 692.9702 625.5781Q691.92334 625.5781 691.17334 626.3125Q690.42334 627.03125 690.2671 628.4375L686.4702 627.7969Q686.86084 625.84375 687.6577 624.6875Q688.4546 623.5156 689.87646 622.8594Q691.31396 622.1875 693.0952 622.1875Q696.12646 622.1875 697.9546 624.125Q699.4546 625.7031 699.4546 627.6875Q699.4546 630.5156 696.37646 632.2031Q698.2202 632.6094 699.31396 633.9844Q700.42334 635.3594 700.42334 637.2969Q700.42334 640.125 698.36084 642.125Q696.29834 644.1094 693.2202 644.1094Q690.31396 644.1094 688.3921 642.4375Q686.4702 640.7656 686.1577 638.0469Z" fill-rule="nonzero"/><path fill="#000000" d="M712.3921 625.46875Q710.29834 629.125 706.42334 632.15625L704.00146 629.0469Q709.1421 625.28125 711.0171 618.21875L714.4702 619.125Q715.93896 620.6094 714.23584 620.84375L713.7827 621.9844L730.00146 621.9844L730.00146 625.46875L721.4546 625.46875L721.4546 628.2031L728.48584 628.2031L728.48584 631.6719L721.4546 631.6719L721.4546 635.7031L731.29834 635.7031L731.29834 639.1719L721.4546 639.1719L721.4546 646.21875L717.86084 646.21875L717.86084 639.1719L704.37646 639.1719L704.37646 635.7031L709.6577 635.7031L709.6577 628.2031L717.86084 628.2031L717.86084 625.46875L712.3921 625.46875ZM713.25146 635.7031L717.86084 635.7031L717.86084 631.6719L713.25146 631.6719L713.25146 635.7031Z" fill-rule="nonzero"/><path fill="#f39800" d="M250.5 88.083336C250.5 87.53105 250.94771 87.083336 251.5 87.083336L261.5 87.083336C262.05228 87.083336 262.5 87.53105 262.5 88.083336L262.5 98.083336C262.5 98.63562 262.05228 99.083336 261.5 99.083336L251.5 99.083336C250.94771 99.083336 250.5 98.63562 250.5 98.083336Z" fill-rule="nonzero"/><path fill="#1a1a1a" d="M285.79688 89.28646Q284.3125 97.770836 275.57812 101.645836L273.5625 99.520836Q281.5625 96.25521 282.98438 89.302086L277.46875 89.302086Q275.75 92.13021 273.53125 94.177086L271.25 92.69271Q275.625 88.75521 276.85938 83.520836L279.10938 84.302086Q280.4375 84.958336 279.125 85.458336Q278.85938 86.31771 278.625 86.770836L283.45312 86.770836L284.34375 86.28646L285.95312 87.91146Q286.98438 88.927086 285.79688 89.28646ZM285.8125 87.677086Q284.35938 85.583336 282.84375 84.38021L284.5 82.97396Q286.125 84.395836 287.5625 86.31771L285.8125 87.677086ZM288.14062 86.770836Q286.625 84.88021 285.3125 83.677086L286.82812 82.16146Q288.3125 83.53646 289.65625 85.25521L288.14062 86.770836ZM302.03125 96.81771Q304.79688 95.75521 307.95312 91.41146L309.54688 93.583336Q306.34375 97.97396 301.71875 99.81771L300.875 100.22396L299.17188 98.958336L299.42188 98.34896L299.42188 85.44271L301.51562 85.44271Q303.04688 85.78646 302.03125 86.66146L302.03125 96.81771ZM290.5 99.583336Q294.65625 95.59896 294.65625 90.22396L294.65625 86.302086L296.75 86.302086Q298.28125 86.645836 297.26562 87.520836L297.26562 90.145836Q297.26562 96.88021 292.76562 101.052086L290.5 99.583336ZM310.4375 93.677086L310.4375 91.145836L328.67188 91.145836L328.67188 93.677086L310.4375 93.677086ZM343.90625 85.833336Q344.35938 85.833336 344.64062 85.56771Q344.90625 85.28646 344.90625 84.833336Q344.90625 84.38021 344.64062 84.09896Q344.35938 83.833336 343.90625 83.833336Q343.45312 83.833336 343.17188 84.09896Q342.90625 84.38021 342.90625 84.833336Q342.90625 85.28646 343.17188 85.56771Q343.45312 85.833336 343.90625 85.833336ZM343.90625 87.427086Q342.79688 87.427086 342.0625 86.677086Q341.3125 85.94271 341.3125 84.833336Q341.3125 83.72396 342.0625 82.989586Q342.79688 82.239586 343.90625 82.239586Q345.01562 82.239586 345.75 82.989586Q346.5 83.72396 346.5 84.833336Q346.5 85.94271 345.75 86.677086Q345.01562 87.427086 343.90625 87.427086ZM329.51562 88.44271L329.51562 85.91146L341.60938 85.91146L343.9375 87.59896Q343.51562 97.56771 332.67188 100.614586L330.67188 98.177086Q340.78125 95.833336 341.20312 88.44271L329.51562 88.44271ZM358.125 84.63021Q360.8125 88.00521 366.125 89.66146L365.01562 92.22396Q359.23438 90.09896 356.5 86.31771Q355.34375 88.708336 353.84375 89.739586L361.60938 89.739586L361.60938 92.03646L352.04688 92.03646L352.04688 91.09896Q351.26562 91.739586 349.04688 92.75521L347.45312 90.614586Q353.46875 87.81771 355.32812 83.19271L357.67188 83.645836Q359.3125 83.88021 358.125 84.63021ZM353.01562 101.645836L350.64062 101.645836L350.64062 93.09896L363.09375 93.09896L363.09375 101.41146L360.71875 101.41146L360.71875 100.552086L353.01562 100.552086L353.01562 101.645836ZM353.01562 98.25521L360.71875 98.25521L360.71875 95.395836L353.01562 95.395836L353.01562 98.25521ZM379.78125 89.50521L379.78125 83.25521L381.71875 83.25521Q383.60938 83.63021 382.15625 84.44271L382.15625 89.50521L386.14062 89.50521L386.14062 91.802086L382.15625 91.802086L382.15625 101.489586L379.78125 101.489586L379.78125 91.802086L375.5625 91.802086L375.5625 89.50521L379.78125 89.50521ZM375.75 101.25521L373.375 101.25521L373.375 100.47396L370.98438 100.47396L370.98438 101.56771L368.60938 101.56771L368.60938 94.34896L375.75 94.34896L375.75 101.25521ZM370.98438 96.41146L370.98438 98.41146L373.375 98.41146L373.375 96.41146L370.98438 96.41146ZM375.28125 91.69271L375.28125 93.989586L369.07812 93.989586L369.07812 91.69271L375.28125 91.69271ZM369.07812 89.114586L375.28125 89.114586L375.28125 91.41146L369.07812 91.41146L369.07812 89.114586ZM367.59375 86.53646L376.6875 86.53646L376.6875 88.833336L367.59375 88.833336L367.59375 86.53646ZM375.28125 83.72396L375.28125 86.020836L369.07812 86.020836L369.07812 83.72396L375.28125 83.72396Z" fill-rule="nonzero"/><path fill="#4285f4" d="M402.5 88.083336C402.5 87.53105 402.94772 87.083336 403.5 87.083336L413.5 87.083336C414.05228 87.083336 414.5 87.53105 414.5 88.083336L414.5 98.083336C414.5 98.63562 414.05228 99.083336 413.5 99.083336L403.5 99.083336C402.94772 99.083336 402.5 98.63562 402.5 98.083336Z" fill-rule="nonzero"/><path fill="#1a1a1a" d="M437.0625 86.53646L440.65625 86.53646L440.65625 89.06771L437.0625 89.06771L437.0625 90.677086L441.98438 90.677086L441.98438 93.208336L437.5 93.208336Q438.51562 95.00521 442.65625 97.489586L441.32812 100.052086Q437.84375 97.53646 437.0625 96.395836L437.0625 101.88021L434.6875 101.88021L434.6875 96.72396Q433.75 98.31771 430.42188 100.56771L429.17188 98.302086Q432.76562 95.802086 434.29688 93.208336L430.07812 93.208336L430.07812 90.677086L434.6875 90.677086L434.6875 89.06771L433.17188 89.06771Q432.78125 89.97396 431.59375 91.38021L429.76562 89.44271Q431.375 87.75521 432.3125 84.50521L434.29688 84.989586Q435.78125 85.739586 434.3125 86.114586L434.17188 86.53646L434.6875 86.53646L434.6875 83.020836L436.60938 83.020836Q438.28125 83.22396 437.0625 84.09896L437.0625 86.53646ZM428.70312 101.88021L426.32812 101.88021L426.32812 95.69271Q426.3125 95.75521 424.40625 97.84896L422.9375 95.47396Q425.5 92.833336 426.17188 89.38021L423.67188 89.38021L423.67188 86.84896L426.32812 86.84896L426.32812 83.020836L428.26562 83.020836Q429.92188 83.427086 428.70312 84.13021L428.70312 86.84896L430.89062 86.84896L430.89062 89.38021L428.70312 89.38021L428.70312 91.020836Q430.14062 91.958336 431.46875 93.66146L429.73438 95.84896Q428.59375 93.989586 428.67188 94.00521L428.70312 101.88021ZM457.79688 96.59896Q458.6875 98.25521 459.23438 98.25521Q459.23438 98.28646 459.21875 98.13021L459.4375 96.270836L461.95312 97.41146L461.59375 99.583336Q461.29688 101.25521 459.78125 101.25521Q457.1875 101.25521 455.4375 97.833336Q453.82812 94.69271 453.75 89.458336L444.14062 89.458336L444.14062 86.927086L453.67188 86.927086L453.67188 83.333336L455.84375 83.333336Q457.625 83.69271 456.28125 84.583336L456.28125 86.927086L461.75 86.927086L461.75 89.458336L456.3125 89.458336Q456.59375 94.41146 457.79688 96.59896ZM454.85938 98.50521Q450.09375 99.53646 445.90625 100.270836Q445.60938 101.59896 444.64062 100.239586L444.14062 97.739586Q446.53125 97.552086 448.04688 97.302086L448.04688 93.59896L444.92188 93.59896L444.92188 91.302086L453.46875 91.302086L453.46875 93.59896L450.42188 93.59896L450.42188 96.94271Q451.75 96.770836 454.48438 96.22396L454.85938 98.50521ZM457.92188 83.645836Q459.3125 84.333336 460.70312 85.63021L458.65625 87.333336Q457.65625 86.333336 455.95312 85.38021L457.92188 83.645836ZM475.60938 89.270836Q474.17188 88.489586 472.73438 86.020836Q471.32812 88.31771 470.01562 89.270836L475.60938 89.270836ZM481.125 91.78646Q479.39062 91.38021 477.76562 90.458336L477.76562 91.802086L468.125 91.802086L468.125 90.614586Q466.59375 91.69271 464.29688 92.364586L463.3125 89.708336Q469.03125 88.16146 471.75 83.145836L473.65625 83.41146Q475.3125 83.614586 474.25 84.395836Q476.4375 87.677086 482.21875 89.16146L481.125 91.78646ZM479.04688 101.78646Q478.23438 100.645836 477.53125 100.020836L466.53125 101.239586Q465.98438 101.770836 465.28125 101.25521L464.5625 98.677086L468.04688 98.50521L469.79688 95.31771L464.45312 95.31771L464.45312 92.78646L481.28125 92.78646L481.28125 95.31771L472.67188 95.31771L470.84375 98.34896L475.53125 98.00521Q475.21875 97.72396 473.53125 96.458336L475.65625 95.03646Q479.6875 98.052086 481.39062 100.333336L479.04688 101.78646ZM489.17188 86.614586L490.23438 86.614586L490.71875 86.13021L492.51562 87.927086L491.65625 88.552086Q490.75 90.28646 489.45312 91.895836Q490.90625 92.34896 492.71875 93.59896L491.48438 96.09896Q489.78125 94.708336 489.17188 94.34896L489.17188 101.802086L486.79688 101.802086L486.79688 94.56771Q486.03125 95.239586 484.125 96.34896L483.07812 94.03646Q487.0625 91.88021 488.76562 88.91146L483.90625 88.91146L483.90625 86.614586L486.79688 86.614586L486.79688 83.25521L488.71875 83.25521Q490.39062 83.458336 489.17188 84.333336L489.17188 86.614586ZM497.32812 83.72396Q499.10938 84.083336 497.76562 84.97396L497.76562 88.489586L501.35938 88.489586L501.35938 91.020836L497.76562 91.020836L497.76562 98.333336L502.0625 98.333336L502.0625 100.864586L490.54688 100.864586L490.54688 98.333336L495.15625 98.333336L495.15625 91.020836L491.79688 91.020836L491.79688 88.489586L495.15625 88.489586L495.15625 83.72396L497.32812 83.72396ZM517.7969 89.28646Q516.3125 97.770836 507.57812 101.645836L505.5625 99.520836Q513.5625 96.25521 514.9844 89.302086L509.46875 89.302086Q507.75 92.13021 505.53125 94.177086L503.25 92.69271Q507.625 88.75521 508.85938 83.520836L511.10938 84.302086Q512.4375 84.958336 511.125 85.458336Q510.85938 86.31771 510.625 86.770836L515.4531 86.770836L516.34375 86.28646L517.9531 87.91146Q518.9844 88.927086 517.7969 89.28646ZM531.4219 92.802086Q531.4219 98.91146 525.4844 101.72396L523.2344 99.802086Q528.7344 97.302086 528.8125 92.72396L528.8125 84.50521L530.90625 84.50521Q532.6094 84.84896 531.4219 85.739586L531.4219 92.802086ZM523.375 94.927086L520.7656 94.927086L520.7656 85.28646L522.90625 85.28646Q524.71875 85.47396 523.375 86.520836L523.375 94.927086ZM543.875 92.677086Q544.0 97.864586 538.28125 101.458336L536.3906 99.333336Q541.2344 96.708336 541.2344 92.41146L541.2344 88.645836L543.2969 88.645836Q544.9531 88.833336 543.84375 89.78646L543.84375 90.81771Q545.9531 89.239586 546.90625 87.927086L534.625 88.38021L534.40625 85.770836L549.0 85.364586L549.75 85.145836L551.09375 86.770836Q551.9219 87.84896 550.5781 87.69271Q548.34375 90.583336 544.75 93.489586L543.875 92.677086Z" fill-rule="nonzero"/><path fill="#757575" d="M652.7344 57.453125L650.8594 57.453125Q649.3594 55.203125 648.5781 52.78125Q647.7969 50.34375 647.7969 48.0625Q647.7969 45.234375 648.7656 42.71875Q649.6094 40.53125 650.8906 38.6875L652.7656 38.6875Q651.4219 41.640625 650.9219 43.71875Q650.4219 45.796875 650.4219 48.125Q650.4219 49.71875 650.71875 51.40625Q651.0156 53.078125 651.53125 54.59375Q651.875 55.59375 652.7344 57.453125Z" fill-rule="nonzero"/><path fill="#757575" d="M669.4375 40.09375L671.125 40.09375L671.125 48.953125L668.75 48.953125L668.75 48.484375L665.2656 48.484375L665.2656 49.3125L673.46875 49.3125L673.46875 51.609375L665.2656 51.609375L665.2656 54.890625L662.8906 54.890625L662.8906 51.609375L654.84375 51.609375L654.84375 49.3125L662.8906 49.3125L662.8906 48.484375L659.4844 48.484375L659.4844 49.109375L657.1094 49.109375L657.1094 40.09375L666.59375 40.09375L669.2031 36.109375L671.03125 37.359375Q672.34375 38.40625 670.7656 38.40625L669.4375 40.09375ZM663.625 36.3125Q665.4219 37.8125 666.1719 39.21875L664.0156 40.796875Q663.2031 39.265625 661.65625 37.8125L663.625 36.3125ZM662.8906 43.21875L662.8906 42.390625L659.4844 42.390625L659.4844 43.21875L662.8906 43.21875ZM668.75 43.21875L668.75 42.390625L665.2656 42.390625L665.2656 43.21875L668.75 43.21875ZM662.8906 46.1875L662.8906 45.515625L659.4844 45.515625L659.4844 46.1875L662.8906 46.1875ZM668.75 46.1875L668.75 45.515625L665.2656 45.515625L665.2656 46.1875L668.75 46.1875ZM659.0 40.84375Q658.2031 39.265625 656.8125 37.96875L658.7969 36.453125Q660.34375 37.90625 661.1719 39.46875L659.0 40.84375ZM690.9219 44.421875Q690.3281 47.5625 688.9531 51.265625L693.3906 51.265625L693.3906 53.5625L679.53125 53.5625L679.53125 51.265625L686.3594 51.265625Q687.6719 46.890625 688.4531 42.71875L690.8906 43.40625Q691.71875 43.953125 690.9219 44.421875ZM677.2656 54.8125L677.4219 45.46875Q677.53125 45.578125 675.90625 47.421875L674.4219 45.125Q677.6719 41.953125 678.4219 36.375L680.71875 37.078125Q682.0469 37.734375 680.75 38.234375Q680.1719 40.640625 679.4375 41.984375L679.59375 41.921875Q680.28125 42.609375 679.6406 43.0L679.6406 54.8125L677.2656 54.8125ZM683.6719 43.515625Q685.0156 46.390625 685.71875 49.828125L683.1406 50.71875Q682.4375 47.1875 681.1875 44.3125L683.6719 43.515625ZM692.53125 40.484375L692.53125 42.78125L680.3906 42.78125L680.3906 40.484375L685.15625 40.484375L685.15625 36.65625L687.0781 36.65625Q688.75 36.859375 687.53125 37.734375L687.53125 40.484375L692.53125 40.484375Z" fill-rule="nonzero"/><path fill="#757575" d="M695.71875 45.625L695.71875 42.875L698.4531 42.875L698.4531 45.625L695.71875 45.625ZM695.71875 53.25L695.71875 50.5L698.4531 50.5L698.4531 53.25L695.71875 53.25Z" fill-rule="nonzero"/><path fill="#757575" d="M720.2344 37.515625L720.2344 40.046875L712.5 40.046875L712.125 41.8125L718.2031 41.8125L718.2031 54.5L715.59375 54.5L715.59375 53.484375L706.9531 53.484375L706.9531 54.8125L704.34375 54.8125L704.34375 41.8125L709.40625 41.8125L709.7344 40.046875L702.0781 40.046875L702.0781 37.515625L720.2344 37.515625ZM706.9531 48.796875L706.9531 51.1875L715.59375 51.1875L715.59375 48.796875L706.9531 48.796875ZM715.59375 46.5L715.59375 44.109375L706.9531 44.109375L706.9531 46.5L715.59375 46.5ZM728.25 40.515625L722.46875 40.515625L722.46875 37.984375L740.0 37.984375L740.0 40.515625L730.8594 40.515625Q730.8594 41.765625 730.75 42.984375L738.59375 42.984375Q738.59375 48.609375 737.71875 51.625Q737.0156 54.1875 734.5156 54.1875L731.125 54.1875L730.6719 51.65625L733.96875 51.65625Q734.9844 51.65625 735.21875 50.859375Q735.8281 48.796875 735.8906 45.515625L730.3906 45.515625Q729.1719 51.3125 723.7656 54.234375L722.125 51.828125Q728.25 48.765625 728.25 41.4375L728.25 40.515625ZM758.9844 52.609375Q758.9844 54.265625 757.3281 54.265625L754.9844 54.265625L754.2969 51.734375L756.46875 51.734375Q756.46875 51.828125 756.375 51.828125L756.375 47.0L745.7031 47.0L745.7031 54.34375L743.09375 54.34375L743.09375 37.671875L758.9844 37.671875L758.9844 52.609375ZM756.375 39.96875L752.1875 39.96875L752.1875 44.703125L756.375 44.703125L756.375 39.96875ZM745.7031 39.96875L745.7031 44.703125L749.8125 44.703125L749.8125 39.96875L745.7031 39.96875Z" fill-rule="nonzero"/><path fill="#757575" d="M761.4219 57.453125Q762.2344 55.71875 762.5625 54.78125Q762.90625 53.859375 763.1875 52.65625Q763.46875 51.4375 763.59375 50.359375Q763.7344 49.265625 763.7344 48.125Q763.7344 45.796875 763.2344 43.71875Q762.75 41.640625 761.40625 38.6875L763.2656 38.6875Q764.75 40.78125 765.5625 43.140625Q766.375 45.5 766.375 47.921875Q766.375 49.953125 765.7344 52.296875Q765.0 54.90625 763.3125 57.453125L761.4219 57.453125Z" fill-rule="nonzero"/></svg>