<svg version="1.1" viewBox="0.0 0.0 782.0 668.0" fill="none" stroke="none" stroke-linecap="square" stroke-miterlimit="10" width="782" height="668" xmlns:xlink="http://www.w3.org/1999/xlink" xmlns="http://www.w3.org/2000/svg"><path fill="#ffffff" d="M0 0L782.0 0L782.0 668.0L0 668.0L0 0Z" fill-rule="nonzero"/><path stroke="#333333" stroke-width="1.0" stroke-linecap="butt" d="M99.5 537.5L748.5 537.5" fill-rule="nonzero"/><path stroke="#cccccc" stroke-width="1.0" stroke-linecap="butt" d="M99.5 404.5L748.5 404.5" fill-rule="nonzero"/><path stroke="#cccccc" stroke-width="1.0" stroke-linecap="butt" d="M99.5 271.5L748.5 271.5" fill-rule="nonzero"/><path stroke="#cccccc" stroke-width="1.0" stroke-linecap="butt" d="M99.5 138.5L748.5 138.5" fill-rule="nonzero"/><clipPath id="id_0"><path d="M99.4 138.79565L748.6 138.79565L748.6 537.26624L99.4 537.26624L99.4 138.79565Z" clip-rule="nonzero"/></clipPath><path stroke="#000000" stroke-width="2.0" stroke-linecap="butt" stroke-opacity="0.0" clip-path="url(#id_0)" d="M201.0 537.0L135.0 537.0L135.0 524.0L201.0 524.0Z" fill-rule="nonzero"/><path fill="#4285f4" clip-path="url(#id_0)" d="M201.0 537.0L135.0 537.0L135.0 524.0L201.0 524.0Z" fill-rule="nonzero"/><path stroke="#000000" stroke-width="2.0" stroke-linecap="butt" stroke-opacity="0.0" clip-path="url(#id_0)" d="M304.0 537.0L238.0 537.0L238.0 483.0L304.0 483.0Z" fill-rule="nonzero"/><path fill="#4285f4" clip-path="url(#id_0)" d="M304.0 537.0L238.0 537.0L238.0 483.0L304.0 483.0Z" fill-rule="nonzero"/><path stroke="#000000" stroke-width="2.0" stroke-linecap="butt" stroke-opacity="0.0" clip-path="url(#id_0)" d="M406.0 537.0L340.0 537.0L340.0 454.0L406.0 454.0Z" fill-rule="nonzero"/><path fill="#4285f4" clip-path="url(#id_0)" d="M406.0 537.0L340.0 537.0L340.0 454.0L406.0 454.0Z" fill-rule="nonzero"/><path stroke="#000000" stroke-width="2.0" stroke-linecap="butt" stroke-opacity="0.0" clip-path="url(#id_0)" d="M508.0 537.0L442.0 537.0L442.0 387.0L508.0 387.0Z" fill-rule="nonzero"/><path fill="#4285f4" clip-path="url(#id_0)" d="M508.0 537.0L442.0 537.0L442.0 387.0L508.0 387.0Z" fill-rule="nonzero"/><path stroke="#000000" stroke-width="2.0" stroke-linecap="butt" stroke-opacity="0.0" clip-path="url(#id_0)" d="M610.0 537.0L544.0 537.0L544.0 305.0L610.0 305.0Z" fill-rule="nonzero"/><path fill="#4285f4" clip-path="url(#id_0)" d="M610.0 537.0L544.0 537.0L544.0 305.0L610.0 305.0Z" fill-rule="nonzero"/><path stroke="#000000" stroke-width="2.0" stroke-linecap="butt" stroke-opacity="0.0" clip-path="url(#id_0)" d="M713.0 537.0L647.0 537.0L647.0 270.0L713.0 270.0Z" fill-rule="nonzero"/><path fill="#4285f4" clip-path="url(#id_0)" d="M713.0 537.0L647.0 537.0L647.0 270.0L713.0 270.0Z" fill-rule="nonzero"/><path stroke="#000000" stroke-width="2.0" stroke-linecap="butt" stroke-opacity="0.0" clip-path="url(#id_0)" d="M201.0 524.0L135.0 524.0L135.0 524.0L201.0 524.0Z" fill-rule="nonzero"/><path fill="#f39800" clip-path="url(#id_0)" d="M201.0 524.0L135.0 524.0L135.0 524.0L201.0 524.0Z" fill-rule="nonzero"/><path stroke="#000000" stroke-width="2.0" stroke-linecap="butt" stroke-opacity="0.0" clip-path="url(#id_0)" d="M304.0 483.0L238.0 483.0L238.0 483.0L304.0 483.0Z" fill-rule="nonzero"/><path fill="#f39800" clip-path="url(#id_0)" d="M304.0 483.0L238.0 483.0L238.0 483.0L304.0 483.0Z" fill-rule="nonzero"/><path stroke="#000000" stroke-width="2.0" stroke-linecap="butt" stroke-opacity="0.0" clip-path="url(#id_0)" d="M406.0 454.0L340.0 454.0L340.0 449.0C340.0 447.89542 340.89542 447.0 342.0 447.0L404.0 447.0C405.10458 447.0 406.0 447.89542 406.0 449.0Z" fill-rule="nonzero"/><path fill="#f39800" clip-path="url(#id_0)" d="M406.0 454.0L340.0 454.0L340.0 449.0C340.0 447.89542 340.89542 447.0 342.0 447.0L404.0 447.0C405.10458 447.0 406.0 447.89542 406.0 449.0Z" fill-rule="nonzero"/><path stroke="#000000" stroke-width="2.0" stroke-linecap="butt" stroke-opacity="0.0" clip-path="url(#id_0)" d="M508.0 387.0L442.0 387.0L442.0 312.0C442.0 310.89542 442.89542 310.0 444.0 310.0L506.0 310.0C507.10458 310.0 508.0 310.89542 508.0 312.0Z" fill-rule="nonzero"/><path fill="#f39800" clip-path="url(#id_0)" d="M508.0 387.0L442.0 387.0L442.0 312.0C442.0 310.89542 442.89542 310.0 444.0 310.0L506.0 310.0C507.10458 310.0 508.0 310.89542 508.0 312.0Z" fill-rule="nonzero"/><path stroke="#000000" stroke-width="2.0" stroke-linecap="butt" stroke-opacity="0.0" clip-path="url(#id_0)" d="M610.0 305.0L544.0 305.0L544.0 185.0C544.0 183.89543 544.89545 183.0 546.0 183.0L608.0 183.0C609.10455 183.0 610.0 183.89543 610.0 185.0Z" fill-rule="nonzero"/><path fill="#f39800" clip-path="url(#id_0)" d="M610.0 305.0L544.0 305.0L544.0 185.0C544.0 183.89543 544.89545 183.0 546.0 183.0L608.0 183.0C609.10455 183.0 610.0 183.89543 610.0 185.0Z" fill-rule="nonzero"/><path stroke="#000000" stroke-width="2.0" stroke-linecap="butt" stroke-opacity="0.0" clip-path="url(#id_0)" d="M713.0 270.0L647.0 270.0L647.0 270.0L713.0 270.0Z" fill-rule="nonzero"/><path fill="#f39800" clip-path="url(#id_0)" d="M713.0 270.0L647.0 270.0L647.0 270.0L713.0 270.0Z" fill-rule="nonzero"/><path stroke="#ffffff" stroke-width="3.0" stroke-linejoin="round" stroke-linecap="round" d="M162.17188 479.9839L157.23438 479.9839L157.23438 461.3745Q154.51562 463.90576 150.84375 465.1089L150.84375 460.6245Q152.78125 459.9995 155.04688 458.2339Q157.3125 456.46826 158.15625 454.1089L162.17188 454.1089L162.17188 479.9839ZM177.875 454.1089Q181.625 454.1089 183.73438 456.78076Q186.25 459.937 186.25 467.28076Q186.25 474.59326 183.71875 477.78076Q181.625 480.4214 177.875 480.4214Q174.125 480.4214 171.8125 477.53076Q169.51562 474.64014 169.51562 467.21826Q169.51562 459.937 172.04688 456.7495Q174.14062 454.1089 177.875 454.1089ZM177.875 458.20264Q176.98438 458.20264 176.28125 458.78076Q175.57812 459.34326 175.1875 460.82764Q174.6875 462.7339 174.6875 467.28076Q174.6875 471.812 175.14062 473.51514Q175.59375 475.20264 176.28125 475.76514Q176.98438 476.32764 177.875 476.32764Q178.78125 476.32764 179.48438 475.76514Q180.1875 475.187 180.5625 473.70264Q181.07812 471.812 181.07812 467.28076Q181.07812 462.7339 180.625 461.0464Q180.17188 459.34326 179.46875 458.78076Q178.78125 458.20264 177.875 458.20264Z" fill-rule="nonzero"/><path fill="#4285f4" d="M162.17188 479.9839L157.23438 479.9839L157.23438 461.3745Q154.51562 463.90576 150.84375 465.1089L150.84375 460.6245Q152.78125 459.9995 155.04688 458.2339Q157.3125 456.46826 158.15625 454.1089L162.17188 454.1089L162.17188 479.9839ZM177.875 454.1089Q181.625 454.1089 183.73438 456.78076Q186.25 459.937 186.25 467.28076Q186.25 474.59326 183.71875 477.78076Q181.625 480.4214 177.875 480.4214Q174.125 480.4214 171.8125 477.53076Q169.51562 474.64014 169.51562 467.21826Q169.51562 459.937 172.04688 456.7495Q174.14062 454.1089 177.875 454.1089ZM177.875 458.20264Q176.98438 458.20264 176.28125 458.78076Q175.57812 459.34326 175.1875 460.82764Q174.6875 462.7339 174.6875 467.28076Q174.6875 471.812 175.14062 473.51514Q175.59375 475.20264 176.28125 475.76514Q176.98438 476.32764 177.875 476.32764Q178.78125 476.32764 179.48438 475.76514Q180.1875 475.187 180.5625 473.70264Q181.07812 471.812 181.07812 467.28076Q181.07812 462.7339 180.625 461.0464Q180.17188 459.34326 179.46875 458.78076Q178.78125 458.20264 177.875 458.20264Z" fill-rule="nonzero"/><path stroke="#ffffff" stroke-width="3.0" stroke-linejoin="round" stroke-linecap="round" d="M262.21875 438.8086L262.21875 433.6211L251.67188 433.6211L251.67188 429.29297L262.84375 412.9336L267.0 412.9336L267.0 429.27734L270.20312 429.27734L270.20312 433.6211L267.0 433.6211L267.0 438.8086L262.21875 438.8086ZM262.21875 429.27734L262.21875 420.48047L256.29688 429.27734L262.21875 429.27734ZM285.17188 438.8086L280.23438 438.8086L280.23438 420.19922Q277.51562 422.73047 273.84375 423.9336L273.84375 419.44922Q275.78125 418.82422 278.04688 417.0586Q280.3125 415.29297 281.15625 412.9336L285.17188 412.9336L285.17188 438.8086Z" fill-rule="nonzero"/><path fill="#4285f4" d="M262.21875 438.8086L262.21875 433.6211L251.67188 433.6211L251.67188 429.29297L262.84375 412.9336L267.0 412.9336L267.0 429.27734L270.20312 429.27734L270.20312 433.6211L267.0 433.6211L267.0 438.8086L262.21875 438.8086ZM262.21875 429.27734L262.21875 420.48047L256.29688 429.27734L262.21875 429.27734ZM285.17188 438.8086L280.23438 438.8086L280.23438 420.19922Q277.51562 422.73047 273.84375 423.9336L273.84375 419.44922Q275.78125 418.82422 278.04688 417.0586Q280.3125 415.29297 281.15625 412.9336L285.17188 412.9336L285.17188 438.8086Z" fill-rule="nonzero"/><path stroke="#ffffff" stroke-width="3.0" stroke-linejoin="round" stroke-linecap="round" d="M564.4192 165.63776L564.4192 170.2315L547.09106 170.2315Q547.3723 167.62213 548.77856 165.294Q550.1848 162.96588 554.34106 159.12213Q557.6848 156.01276 558.4348 154.90338Q559.45044 153.37213 559.45044 151.87213Q559.45044 150.2315 558.5598 149.34088Q557.6848 148.45026 556.1223 148.45026Q554.57544 148.45026 553.65356 149.38776Q552.7473 150.30963 552.6067 152.4815L547.6848 151.9815Q548.1223 147.90338 550.4348 146.13776Q552.76294 144.3565 556.2317 144.3565Q560.0598 144.3565 562.2317 146.419Q564.4192 148.46588 564.4192 151.52838Q564.4192 153.26276 563.7942 154.84088Q563.1692 156.419 561.8098 158.13776Q560.9192 159.27838 558.57544 161.43463Q556.2317 163.57526 555.6067 164.27838Q554.9973 164.9815 554.6067 165.63776L564.4192 165.63776ZM584.46606 150.77838L579.6848 151.294Q579.51294 149.82526 578.76294 149.12213Q578.02856 148.419 576.8567 148.419Q575.2942 148.419 574.20044 149.82526Q573.1223 151.2315 572.84106 155.669Q574.6848 153.49713 577.4348 153.49713Q580.52856 153.49713 582.7317 155.8565Q584.9348 158.20026 584.9348 161.93463Q584.9348 165.88776 582.6067 168.27838Q580.2942 170.669 576.65356 170.669Q572.76294 170.669 570.2473 167.63776Q567.7317 164.6065 567.7317 157.70026Q567.7317 150.6065 570.34106 147.4815Q572.96606 144.3565 577.15356 144.3565Q580.09106 144.3565 582.01294 145.99713Q583.9348 147.63776 584.46606 150.77838ZM573.26294 161.544Q573.26294 163.95026 574.3723 165.26276Q575.4817 166.57526 576.90356 166.57526Q578.27856 166.57526 579.1848 165.51276Q580.1067 164.43463 580.1067 161.9815Q580.1067 159.46588 579.1223 158.30963Q578.13794 157.13776 576.65356 157.13776Q575.2317 157.13776 574.2473 158.26276Q573.26294 159.37213 573.26294 161.544ZM587.7317 149.40338L587.7317 144.80963L604.6223 144.80963L604.6223 148.40338Q602.52856 150.45026 600.3567 154.30963Q598.20044 158.15338 597.0598 162.49713Q595.9348 166.82526 595.95044 170.2315L591.20044 170.2315Q591.3098 164.88776 593.38794 159.34088Q595.4817 153.77838 598.96606 149.40338L587.7317 149.40338Z" fill-rule="nonzero"/><path fill="#4285f4" d="M564.4192 165.63776L564.4192 170.2315L547.09106 170.2315Q547.3723 167.62213 548.77856 165.294Q550.1848 162.96588 554.34106 159.12213Q557.6848 156.01276 558.4348 154.90338Q559.45044 153.37213 559.45044 151.87213Q559.45044 150.2315 558.5598 149.34088Q557.6848 148.45026 556.1223 148.45026Q554.57544 148.45026 553.65356 149.38776Q552.7473 150.30963 552.6067 152.4815L547.6848 151.9815Q548.1223 147.90338 550.4348 146.13776Q552.76294 144.3565 556.2317 144.3565Q560.0598 144.3565 562.2317 146.419Q564.4192 148.46588 564.4192 151.52838Q564.4192 153.26276 563.7942 154.84088Q563.1692 156.419 561.8098 158.13776Q560.9192 159.27838 558.57544 161.43463Q556.2317 163.57526 555.6067 164.27838Q554.9973 164.9815 554.6067 165.63776L564.4192 165.63776ZM584.46606 150.77838L579.6848 151.294Q579.51294 149.82526 578.76294 149.12213Q578.02856 148.419 576.8567 148.419Q575.2942 148.419 574.20044 149.82526Q573.1223 151.2315 572.84106 155.669Q574.6848 153.49713 577.4348 153.49713Q580.52856 153.49713 582.7317 155.8565Q584.9348 158.20026 584.9348 161.93463Q584.9348 165.88776 582.6067 168.27838Q580.2942 170.669 576.65356 170.669Q572.76294 170.669 570.2473 167.63776Q567.7317 164.6065 567.7317 157.70026Q567.7317 150.6065 570.34106 147.4815Q572.96606 144.3565 577.15356 144.3565Q580.09106 144.3565 582.01294 145.99713Q583.9348 147.63776 584.46606 150.77838ZM573.26294 161.544Q573.26294 163.95026 574.3723 165.26276Q575.4817 166.57526 576.90356 166.57526Q578.27856 166.57526 579.1848 165.51276Q580.1067 164.43463 580.1067 161.9815Q580.1067 159.46588 579.1223 158.30963Q578.13794 157.13776 576.65356 157.13776Q575.2317 157.13776 574.2473 158.26276Q573.26294 159.37213 573.26294 161.544ZM587.7317 149.40338L587.7317 144.80963L604.6223 144.80963L604.6223 148.40338Q602.52856 150.45026 600.3567 154.30963Q598.20044 158.15338 597.0598 162.49713Q595.9348 166.82526 595.95044 170.2315L591.20044 170.2315Q591.3098 164.88776 593.38794 159.34088Q595.4817 153.77838 598.96606 149.40338L587.7317 149.40338Z" fill-rule="nonzero"/><path stroke="#ffffff" stroke-width="3.0" stroke-linejoin="round" stroke-linecap="round" d="M668.21875 221.6972L668.21875 226.29095L650.8906 226.29095Q651.1719 223.68158 652.5781 221.35345Q653.9844 219.02533 658.1406 215.18158Q661.4844 212.0722 662.2344 210.96283Q663.25 209.43158 663.25 207.93158Q663.25 206.29095 662.3594 205.40033Q661.4844 204.5097 659.9219 204.5097Q658.375 204.5097 657.4531 205.4472Q656.5469 206.36908 656.40625 208.54095L651.4844 208.04095Q651.9219 203.96283 654.2344 202.1972Q656.5625 200.41595 660.03125 200.41595Q663.8594 200.41595 666.03125 202.47845Q668.21875 204.52533 668.21875 207.58783Q668.21875 209.3222 667.59375 210.90033Q666.96875 212.47845 665.6094 214.1972Q664.71875 215.33783 662.375 217.49408Q660.03125 219.6347 659.40625 220.33783Q658.7969 221.04095 658.40625 221.6972L668.21875 221.6972ZM679.875 200.41595Q683.625 200.41595 685.7344 203.08783Q688.25 206.24408 688.25 213.58783Q688.25 220.90033 685.71875 224.08783Q683.625 226.72845 679.875 226.72845Q676.125 226.72845 673.8125 223.83783Q671.5156 220.9472 671.5156 213.52533Q671.5156 206.24408 674.0469 203.05658Q676.1406 200.41595 679.875 200.41595ZM679.875 204.5097Q678.9844 204.5097 678.28125 205.08783Q677.5781 205.65033 677.1875 207.1347Q676.6875 209.04095 676.6875 213.58783Q676.6875 218.11908 677.1406 219.8222Q677.59375 221.5097 678.28125 222.0722Q678.9844 222.6347 679.875 222.6347Q680.78125 222.6347 681.4844 222.0722Q682.1875 221.49408 682.5625 220.0097Q683.0781 218.11908 683.0781 213.58783Q683.0781 209.04095 682.625 207.35345Q682.1719 205.65033 681.46875 205.08783Q680.78125 204.5097 679.875 204.5097ZM704.1719 226.29095L699.2344 226.29095L699.2344 207.68158Q696.5156 210.21283 692.84375 211.41595L692.84375 206.93158Q694.78125 206.30658 697.0469 204.54095Q699.3125 202.77533 700.15625 200.41595L704.1719 200.41595L704.1719 226.29095Z" fill-rule="nonzero"/><path fill="#4285f4" d="M668.21875 221.6972L668.21875 226.29095L650.8906 226.29095Q651.1719 223.68158 652.5781 221.35345Q653.9844 219.02533 658.1406 215.18158Q661.4844 212.0722 662.2344 210.96283Q663.25 209.43158 663.25 207.93158Q663.25 206.29095 662.3594 205.40033Q661.4844 204.5097 659.9219 204.5097Q658.375 204.5097 657.4531 205.4472Q656.5469 206.36908 656.40625 208.54095L651.4844 208.04095Q651.9219 203.96283 654.2344 202.1972Q656.5625 200.41595 660.03125 200.41595Q663.8594 200.41595 666.03125 202.47845Q668.21875 204.52533 668.21875 207.58783Q668.21875 209.3222 667.59375 210.90033Q666.96875 212.47845 665.6094 214.1972Q664.71875 215.33783 662.375 217.49408Q660.03125 219.6347 659.40625 220.33783Q658.7969 221.04095 658.40625 221.6972L668.21875 221.6972ZM679.875 200.41595Q683.625 200.41595 685.7344 203.08783Q688.25 206.24408 688.25 213.58783Q688.25 220.90033 685.71875 224.08783Q683.625 226.72845 679.875 226.72845Q676.125 226.72845 673.8125 223.83783Q671.5156 220.9472 671.5156 213.52533Q671.5156 206.24408 674.0469 203.05658Q676.1406 200.41595 679.875 200.41595ZM679.875 204.5097Q678.9844 204.5097 678.28125 205.08783Q677.5781 205.65033 677.1875 207.1347Q676.6875 209.04095 676.6875 213.58783Q676.6875 218.11908 677.1406 219.8222Q677.59375 221.5097 678.28125 222.0722Q678.9844 222.6347 679.875 222.6347Q680.78125 222.6347 681.4844 222.0722Q682.1875 221.49408 682.5625 220.0097Q683.0781 218.11908 683.0781 213.58783Q683.0781 209.04095 682.625 207.35345Q682.1719 205.65033 681.46875 205.08783Q680.78125 204.5097 679.875 204.5097ZM704.1719 226.29095L699.2344 226.29095L699.2344 207.68158Q696.5156 210.21283 692.84375 211.41595L692.84375 206.93158Q694.78125 206.30658 697.0469 204.54095Q699.3125 202.77533 700.15625 200.41595L704.1719 200.41595L704.1719 226.29095Z" fill-rule="nonzero"/><path stroke="#ffffff" stroke-width="3.0" stroke-linejoin="round" stroke-linecap="round" d="M371.26562 383.49313L366.48438 384.00876Q366.3125 382.54 365.5625 381.83688Q364.82812 381.13376 363.65625 381.13376Q362.09375 381.13376 361.0 382.54Q359.92188 383.94626 359.64062 388.38376Q361.48438 386.21188 364.23438 386.21188Q367.32812 386.21188 369.53125 388.57126Q371.73438 390.915 371.73438 394.64938Q371.73438 398.6025 369.40625 400.99313Q367.09375 403.38376 363.45312 403.38376Q359.5625 403.38376 357.04688 400.3525Q354.53125 397.32126 354.53125 390.415Q354.53125 383.32126 357.14062 380.19626Q359.76562 377.07126 363.95312 377.07126Q366.89062 377.07126 368.8125 378.71188Q370.73438 380.3525 371.26562 383.49313ZM360.0625 394.25876Q360.0625 396.665 361.17188 397.9775Q362.28125 399.29 363.70312 399.29Q365.07812 399.29 365.98438 398.2275Q366.90625 397.14938 366.90625 394.69626Q366.90625 392.18063 365.92188 391.02438Q364.9375 389.8525 363.45312 389.8525Q362.03125 389.8525 361.04688 390.9775Q360.0625 392.08688 360.0625 394.25876ZM378.76562 389.04Q376.84375 388.2275 375.96875 386.82126Q375.10938 385.39938 375.10938 383.71188Q375.10938 380.83688 377.125 378.96188Q379.14062 377.07126 382.84375 377.07126Q386.51562 377.07126 388.54688 378.96188Q390.57812 380.83688 390.57812 383.71188Q390.57812 385.50876 389.64062 386.915Q388.71875 388.30563 387.03125 389.04Q389.17188 389.89938 390.28125 391.55563Q391.40625 393.21188 391.40625 395.36813Q391.40625 398.93063 389.125 401.165Q386.85938 403.39938 383.07812 403.39938Q379.5625 403.39938 377.21875 401.55563Q374.45312 399.38376 374.45312 395.58688Q374.45312 393.49313 375.48438 391.74313Q376.53125 389.99313 378.76562 389.04ZM379.78125 384.07126Q379.78125 385.54 380.60938 386.36813Q381.45312 387.19626 382.84375 387.19626Q384.25 387.19626 385.09375 386.36813Q385.9375 385.52438 385.9375 384.05563Q385.9375 382.665 385.09375 381.83688Q384.26562 380.99313 382.89062 380.99313Q381.46875 380.99313 380.625 381.83688Q379.78125 382.68063 379.78125 384.07126ZM379.32812 395.1025Q379.32812 397.14938 380.375 398.29Q381.42188 399.43063 382.98438 399.43063Q384.51562 399.43063 385.51562 398.33688Q386.51562 397.2275 386.51562 395.165Q386.51562 393.3525 385.5 392.25876Q384.48438 391.14938 382.92188 391.14938Q381.10938 391.14938 380.21875 392.39938Q379.32812 393.64938 379.32812 395.1025Z" fill-rule="nonzero"/><path fill="#4285f4" d="M371.26562 383.49313L366.48438 384.00876Q366.3125 382.54 365.5625 381.83688Q364.82812 381.13376 363.65625 381.13376Q362.09375 381.13376 361.0 382.54Q359.92188 383.94626 359.64062 388.38376Q361.48438 386.21188 364.23438 386.21188Q367.32812 386.21188 369.53125 388.57126Q371.73438 390.915 371.73438 394.64938Q371.73438 398.6025 369.40625 400.99313Q367.09375 403.38376 363.45312 403.38376Q359.5625 403.38376 357.04688 400.3525Q354.53125 397.32126 354.53125 390.415Q354.53125 383.32126 357.14062 380.19626Q359.76562 377.07126 363.95312 377.07126Q366.89062 377.07126 368.8125 378.71188Q370.73438 380.3525 371.26562 383.49313ZM360.0625 394.25876Q360.0625 396.665 361.17188 397.9775Q362.28125 399.29 363.70312 399.29Q365.07812 399.29 365.98438 398.2275Q366.90625 397.14938 366.90625 394.69626Q366.90625 392.18063 365.92188 391.02438Q364.9375 389.8525 363.45312 389.8525Q362.03125 389.8525 361.04688 390.9775Q360.0625 392.08688 360.0625 394.25876ZM378.76562 389.04Q376.84375 388.2275 375.96875 386.82126Q375.10938 385.39938 375.10938 383.71188Q375.10938 380.83688 377.125 378.96188Q379.14062 377.07126 382.84375 377.07126Q386.51562 377.07126 388.54688 378.96188Q390.57812 380.83688 390.57812 383.71188Q390.57812 385.50876 389.64062 386.915Q388.71875 388.30563 387.03125 389.04Q389.17188 389.89938 390.28125 391.55563Q391.40625 393.21188 391.40625 395.36813Q391.40625 398.93063 389.125 401.165Q386.85938 403.39938 383.07812 403.39938Q379.5625 403.39938 377.21875 401.55563Q374.45312 399.38376 374.45312 395.58688Q374.45312 393.49313 375.48438 391.74313Q376.53125 389.99313 378.76562 389.04ZM379.78125 384.07126Q379.78125 385.54 380.60938 386.36813Q381.45312 387.19626 382.84375 387.19626Q384.25 387.19626 385.09375 386.36813Q385.9375 385.52438 385.9375 384.05563Q385.9375 382.665 385.09375 381.83688Q384.26562 380.99313 382.89062 380.99313Q381.46875 380.99313 380.625 381.83688Q379.78125 382.68063 379.78125 384.07126ZM379.32812 395.1025Q379.32812 397.14938 380.375 398.29Q381.42188 399.43063 382.98438 399.43063Q384.51562 399.43063 385.51562 398.33688Q386.51562 397.2275 386.51562 395.165Q386.51562 393.3525 385.5 392.25876Q384.48438 391.14938 382.92188 391.14938Q381.10938 391.14938 380.21875 392.39938Q379.32812 393.64938 379.32812 395.1025Z" fill-rule="nonzero"/><path stroke="#ffffff" stroke-width="3.0" stroke-linejoin="round" stroke-linecap="round" d="M459.17188 266.138L454.23438 266.138L454.23438 247.52864Q451.51562 250.05989 447.84375 251.26302L447.84375 246.77864Q449.78125 246.15364 452.04688 244.38802Q454.3125 242.62239 455.15625 240.26302L459.17188 240.26302L459.17188 266.138ZM466.53125 245.30989L466.53125 240.71614L483.42188 240.71614L483.42188 244.30989Q481.32812 246.35677 479.15625 250.21614Q477.0 254.05989 475.85938 258.40363Q474.73438 262.73175 474.75 266.138L470.0 266.138Q470.10938 260.79425 472.1875 255.24739Q474.28125 249.68489 477.76562 245.30989L466.53125 245.30989ZM499.17188 266.138L494.23438 266.138L494.23438 247.52864Q491.51562 250.05989 487.84375 251.26302L487.84375 246.77864Q489.78125 246.15364 492.04688 244.38802Q494.3125 242.62239 495.15625 240.26302L499.17188 240.26302L499.17188 266.138Z" fill-rule="nonzero"/><path fill="#4285f4" d="M459.17188 266.138L454.23438 266.138L454.23438 247.52863Q451.51562 250.05988 447.84375 251.263L447.84375 246.77863Q449.78125 246.15363 452.04688 244.388Q454.3125 242.62238 455.15625 240.263L459.17188 240.263L459.17188 266.138ZM466.53125 245.30988L466.53125 240.71613L483.42188 240.71613L483.42188 244.30988Q481.32812 246.35675 479.15625 250.21613Q477.0 254.05988 475.85938 258.40363Q474.73438 262.73175 474.75 266.138L470.0 266.138Q470.10938 260.79425 472.1875 255.24738Q474.28125 249.68488 477.76562 245.30988L466.53125 245.30988ZM499.17188 266.138L494.23438 266.138L494.23438 247.52863Q491.51562 250.05988 487.84375 251.263L487.84375 246.77863Q489.78125 246.15363 492.04688 244.388Q494.3125 242.62238 495.15625 240.263L499.17188 240.263L499.17188 266.138Z" fill-rule="nonzero"/><path fill="#000000" d="M75.63438 526.20374Q78.75938 526.20374 80.50938 528.4225Q82.60313 531.0631 82.60313 537.1725Q82.60313 543.26624 80.49375 545.9381Q78.75938 548.1256 75.63438 548.1256Q72.49375 548.1256 70.57188 545.71936Q68.66563 543.3131 68.66563 537.1256Q68.66563 531.0631 70.775 528.40686Q72.50938 526.20374 75.63438 526.20374ZM75.63438 529.61Q74.88438 529.61 74.29063 530.09436Q73.7125 530.5631 73.38438 531.7975Q72.9625 533.39124 72.9625 537.1725Q72.9625 540.95374 73.3375 542.3756Q73.72813 543.78186 74.30625 544.2506Q74.88438 544.71936 75.63438 544.71936Q76.38438 544.71936 76.9625 544.2506Q77.55625 543.76624 77.86875 542.53186Q78.30625 540.95374 78.30625 537.1725Q78.30625 533.39124 77.91563 531.985Q77.54063 530.5631 76.9625 530.09436Q76.38438 529.61 75.63438 529.61Z" fill-rule="nonzero"/><path fill="#000000" d="M45.2125 414.94272L41.0875 414.94272L41.0875 399.4271Q38.8375 401.53647 35.775 402.5521L35.775 398.81772Q37.384377 398.28647 39.275 396.81772Q41.165627 395.34897 41.86875 393.38022L45.2125 393.38022L45.2125 414.94272ZM58.634377 393.38022Q61.759377 393.38022 63.509377 395.59897Q65.60313 398.2396 65.60313 404.34897Q65.60313 410.44272 63.49375 413.1146Q61.759377 415.3021 58.634377 415.3021Q55.49375 415.3021 53.571877 412.89584Q51.665627 410.4896 51.665627 404.3021Q51.665627 398.2396 53.775 395.58334Q55.509377 393.38022 58.634377 393.38022ZM58.634377 396.78647Q57.884377 396.78647 57.290627 397.27084Q56.7125 397.7396 56.384377 398.97397Q55.9625 400.56772 55.9625 404.34897Q55.9625 408.13022 56.3375 409.5521Q56.728127 410.95834 57.30625 411.4271Q57.884377 411.89584 58.634377 411.89584Q59.384377 411.89584 59.9625 411.4271Q60.55625 410.94272 60.86875 409.70834Q61.30625 408.13022 61.30625 404.34897Q61.30625 400.56772 60.915627 399.16147Q60.540627 397.7396 59.9625 397.27084Q59.384377 396.78647 58.634377 396.78647ZM75.63438 393.38022Q78.75938 393.38022 80.50938 395.59897Q82.60313 398.2396 82.60313 404.34897Q82.60313 410.44272 80.49375 413.1146Q78.75938 415.3021 75.63438 415.3021Q72.49375 415.3021 70.57188 412.89584Q68.66563 410.4896 68.66563 404.3021Q68.66563 398.2396 70.775 395.58334Q72.50938 393.38022 75.63438 393.38022ZM75.63438 396.78647Q74.88438 396.78647 74.29063 397.27084Q73.7125 397.7396 73.38438 398.97397Q72.9625 400.56772 72.9625 404.34897Q72.9625 408.13022 73.3375 409.5521Q73.72813 410.95834 74.30625 411.4271Q74.88438 411.89584 75.63438 411.89584Q76.38438 411.89584 76.9625 411.4271Q77.55625 410.94272 77.86875 409.70834Q78.30625 408.13022 78.30625 404.34897Q78.30625 400.56772 77.91563 399.16147Q77.54063 397.7396 76.9625 397.27084Q76.38438 396.78647 75.63438 396.78647Z" fill-rule="nonzero"/><path fill="#000000" d="M48.571877 278.29105L48.571877 282.11917L34.15 282.11917Q34.384377 279.9473 35.55625 278.0098Q36.728127 276.0723 40.18125 272.85355Q42.9625 270.27542 43.603127 269.33792Q44.446877 268.0723 44.446877 266.8223Q44.446877 265.4473 43.696877 264.71292Q42.9625 263.96292 41.665627 263.96292Q40.36875 263.96292 39.603127 264.74417Q38.853127 265.52542 38.728127 267.3223L34.634377 266.91605Q34.99375 263.5098 36.93125 262.04105Q38.86875 260.55667 41.759377 260.55667Q44.946877 260.55667 46.759377 262.27542Q48.571877 263.97855 48.571877 266.52542Q48.571877 267.97855 48.05625 269.29105Q47.540627 270.60355 46.415627 272.04105Q45.665627 272.99417 43.7125 274.79105Q41.759377 276.5723 41.24375 277.16605Q40.728127 277.74417 40.4 278.29105L48.571877 278.29105ZM58.634377 260.55667Q61.759377 260.55667 63.509377 262.77542Q65.60313 265.41605 65.60313 271.52542Q65.60313 277.61917 63.49375 280.29105Q61.759377 282.47855 58.634377 282.47855Q55.49375 282.47855 53.571877 280.0723Q51.665627 277.66605 51.665627 271.47855Q51.665627 265.41605 53.775 262.7598Q55.509377 260.55667 58.634377 260.55667ZM58.634377 263.96292Q57.884377 263.96292 57.290627 264.4473Q56.7125 264.91605 56.384377 266.15042Q55.9625 267.74417 55.9625 271.52542Q55.9625 275.30667 56.3375 276.72855Q56.728127 278.1348 57.30625 278.60355Q57.884377 279.0723 58.634377 279.0723Q59.384377 279.0723 59.9625 278.60355Q60.55625 278.11917 60.86875 276.8848Q61.30625 275.30667 61.30625 271.52542Q61.30625 267.74417 60.915627 266.33792Q60.540627 264.91605 59.9625 264.4473Q59.384377 263.96292 58.634377 263.96292ZM75.63438 260.55667Q78.75938 260.55667 80.50938 262.77542Q82.60313 265.41605 82.60313 271.52542Q82.60313 277.61917 80.49375 280.29105Q78.75938 282.47855 75.63438 282.47855Q72.49375 282.47855 70.57188 280.0723Q68.66563 277.66605 68.66563 271.47855Q68.66563 265.41605 70.775 262.7598Q72.50938 260.55667 75.63438 260.55667ZM75.63438 263.96292Q74.88438 263.96292 74.29063 264.4473Q73.7125 264.91605 73.38438 266.15042Q72.9625 267.74417 72.9625 271.52542Q72.9625 275.30667 73.3375 276.72855Q73.72813 278.1348 74.30625 278.60355Q74.88438 279.0723 75.63438 279.0723Q76.38438 279.0723 76.9625 278.60355Q77.55625 278.11917 77.86875 276.8848Q78.30625 275.30667 78.30625 271.52542Q78.30625 267.74417 77.91563 266.33792Q77.54063 264.91605 76.9625 264.4473Q76.38438 263.96292 75.63438 263.96292Z" fill-rule="nonzero"/><path fill="#000000" d="M34.525 143.59253L38.509377 143.10815Q38.696877 144.6394 39.525 145.4519Q40.36875 146.24878 41.55625 146.24878Q42.8375 146.24878 43.696877 145.28003Q44.571877 144.31128 44.571877 142.67065Q44.571877 141.12378 43.728127 140.21753Q42.9 139.31128 41.7125 139.31128Q40.915627 139.31128 39.821877 139.60815L40.275 136.2644Q41.946877 136.29565 42.821877 135.53003Q43.696877 134.7644 43.696877 133.48315Q43.696877 132.40503 43.05625 131.7644Q42.415627 131.12378 41.3375 131.12378Q40.290627 131.12378 39.540627 131.85815Q38.790627 132.5769 38.634377 133.98315L34.8375 133.34253Q35.228127 131.3894 36.025 130.23315Q36.821877 129.06128 38.24375 128.40503Q39.68125 127.733154 41.4625 127.733154Q44.49375 127.733154 46.321877 129.67065Q47.821877 131.24878 47.821877 133.23315Q47.821877 136.06128 44.74375 137.74878Q46.5875 138.15503 47.68125 139.53003Q48.790627 140.90503 48.790627 142.84253Q48.790627 145.67065 46.728127 147.67065Q44.665627 149.65503 41.5875 149.65503Q38.68125 149.65503 36.759377 147.98315Q34.8375 146.31128 34.525 143.59253ZM58.634377 127.733154Q61.759377 127.733154 63.509377 129.9519Q65.60313 132.59253 65.60313 138.7019Q65.60313 144.79565 63.49375 147.46753Q61.759377 149.65503 58.634377 149.65503Q55.49375 149.65503 53.571877 147.24878Q51.665627 144.84253 51.665627 138.65503Q51.665627 132.59253 53.775 129.93628Q55.509377 127.733154 58.634377 127.733154ZM58.634377 131.1394Q57.884377 131.1394 57.290627 131.62378Q56.7125 132.09253 56.384377 133.3269Q55.9625 134.92065 55.9625 138.7019Q55.9625 142.48315 56.3375 143.90503Q56.728127 145.31128 57.30625 145.78003Q57.884377 146.24878 58.634377 146.24878Q59.384377 146.24878 59.9625 145.78003Q60.55625 145.29565 60.86875 144.06128Q61.30625 142.48315 61.30625 138.7019Q61.30625 134.92065 60.915627 133.5144Q60.540627 132.09253 59.9625 131.62378Q59.384377 131.1394 58.634377 131.1394ZM75.63438 127.733154Q78.75938 127.733154 80.50938 129.9519Q82.60313 132.59253 82.60313 138.7019Q82.60313 144.79565 80.49375 147.46753Q78.75938 149.65503 75.63438 149.65503Q72.49375 149.65503 70.57188 147.24878Q68.66563 144.84253 68.66563 138.65503Q68.66563 132.59253 70.775 129.93628Q72.50938 127.733154 75.63438 127.733154ZM75.63438 131.1394Q74.88438 131.1394 74.29063 131.62378Q73.7125 132.09253 73.38438 133.3269Q72.9625 134.92065 72.9625 138.7019Q72.9625 142.48315 73.3375 143.90503Q73.72813 145.31128 74.30625 145.78003Q74.88438 146.24878 75.63438 146.24878Q76.38438 146.24878 76.9625 145.78003Q77.55625 145.29565 77.86875 144.06128Q78.30625 142.48315 78.30625 138.7019Q78.30625 134.92065 77.91563 133.5144Q77.54063 132.09253 76.9625 131.62378Q76.38438 131.1394 75.63438 131.1394Z" fill-rule="nonzero"/><path fill="#000000" d="M126.2703 628.5896L128.97719 631.29645L118.77938 641.49426Q117.40936 639.7928 116.86798 637.5941Q116.32661 635.3955 116.49233 630.67773Q116.63596 626.8881 116.42604 625.7722Q116.12774 624.28064 115.24385 623.3968Q114.27158 622.4245 113.22196 622.43555Q112.172356 622.4245 111.255325 623.3415Q110.338295 624.25854 110.34934 625.35236Q110.37144 626.4351 111.553635 627.79407L108.37165 630.40155Q106.217186 627.73883 106.548645 625.33026Q106.86905 622.91064 108.91303 620.86664Q111.16694 618.61273 113.66391 618.54645Q116.14983 618.4691 117.950745 620.27Q118.978264 621.29755 119.54173 622.5902Q120.10521 623.8829 120.32618 625.6949Q120.46981 626.8992 120.35932 629.5508Q120.23779 632.1914 120.29303 632.9758Q120.33723 633.74927 120.491905 634.368L126.2703 628.5896ZM120.84547 608.9342Q123.055176 606.7245 125.8615 607.05597Q129.20921 607.4427 133.52919 611.76263Q137.83812 616.0716 138.23587 619.45245Q138.55627 622.2256 136.34657 624.4353Q134.12581 626.65607 131.06537 626.3136Q128.01598 625.96 123.64075 621.5848Q119.35391 617.298 118.96721 613.92816Q118.63576 611.1439 120.84547 608.9342ZM123.25404 611.3428Q122.72372 611.8731 122.64638 612.6355Q122.56904 613.37573 123.209854 614.4806Q124.03849 615.9058 126.71224 618.5796Q129.38599 621.25336 130.65657 621.9936Q131.92715 622.71173 132.6674 622.6344Q133.40765 622.55707 133.93799 622.02673Q134.46832 621.4964 134.54565 620.75616Q134.623 619.99384 133.97113 618.9Q133.1646 617.47473 130.49084 614.80096Q127.81709 612.12726 126.54652 611.4091Q125.27593 610.6688 124.535675 610.74615Q123.78438 610.81244 123.25404 611.3428ZM150.64339 609.63025L147.72658 612.5471L136.75537 601.57587Q136.65593 604.65845 135.20857 607.5421L132.56796 604.9015Q133.33032 603.3878 133.62863 601.0124Q133.92694 598.63696 133.03201 596.7477L135.3964 594.3833L150.64339 609.63025ZM151.7593 601.4875L154.2673 598.3608Q155.23958 599.11206 156.09032 599.101Q156.93001 599.0789 157.64816 598.3608Q158.55414 597.4548 158.35527 595.9964Q158.1564 594.53796 155.72572 591.7537Q155.9025 594.1181 154.24521 595.7754Q152.45535 597.56525 149.77055 597.4879Q147.0968 597.39954 144.87605 595.1788Q142.5669 592.8696 142.5227 590.0854Q142.47852 587.30115 144.61089 585.1688Q146.92003 582.8597 150.1904 583.169Q153.44972 583.46735 157.54872 587.56635Q161.71402 591.7316 162.01234 595.12354Q162.2996 598.5044 159.82472 600.97925Q158.04591 602.75806 156.00192 602.9238Q153.95795 603.06744 151.7593 601.4875ZM151.9913 588.5497Q150.57709 587.13544 149.15184 587.0139Q147.72658 586.8703 146.87584 587.721Q146.06929 588.5275 146.17978 589.6987Q146.29025 590.8699 147.73763 592.3172Q149.20708 593.7867 150.47766 593.9082Q151.74825 594.0076 152.61003 593.1459Q153.44972 592.30615 153.36133 591.0687Q153.27293 589.8313 151.9913 588.5497Z" fill-rule="nonzero"/><path fill="#000000" d="M160.55392 573.86615Q161.66983 577.98724 161.10635 582.68286L157.50453 582.2409Q158.46576 576.0427 154.84183 569.81134L157.7476 568.1209Q159.49327 568.1209 158.57623 569.3031L159.19496 570.7394L170.71858 559.21576L172.96144 561.4586L166.9179 567.5022L169.07236 569.6566L174.0442 564.6848L176.276 566.9166L171.30417 571.8884L174.37566 574.95996L181.33624 567.9994L183.56804 570.23114L176.60747 577.1918L181.59036 582.1746L179.27016 584.4948L174.28726 579.51196L164.75238 589.0468L162.52057 586.815L166.25497 583.0806L160.95168 577.77734L166.75217 571.97687L164.5977 569.8224L160.55392 573.86615ZM168.57516 580.76044L172.05547 577.28015L168.98396 574.2086L165.50368 577.68896L168.57516 580.76044Z" fill-rule="nonzero"/><path fill="#000000" d="M228.50652 628.5896L231.21341 631.29645L221.0156 641.49426Q219.64558 639.7928 219.1042 637.5942Q218.56282 635.3955 218.72855 630.67773Q218.87218 626.8881 218.66226 625.7722Q218.36395 624.28064 217.48006 623.3968Q216.5078 622.4245 215.45818 622.43555Q214.40857 622.4245 213.49155 623.34155Q212.57451 624.25854 212.58556 625.35236Q212.60765 626.4351 213.78986 627.79407L210.60786 630.40155Q208.4534 627.73883 208.78487 625.33026Q209.10527 622.91064 211.14925 620.86664Q213.40315 618.61273 215.90012 618.54645Q218.38605 618.4691 220.18695 620.27Q221.21448 621.29755 221.77795 622.5902Q222.34142 623.88293 222.5624 625.6949Q222.70602 626.8992 222.59554 629.5508Q222.474 632.1914 222.52925 632.9758Q222.57344 633.74927 222.72812 634.368L228.50652 628.5896ZM223.08168 608.9342Q225.29138 606.7245 228.09772 607.05597Q231.44542 607.4427 235.7654 611.76263Q240.07434 616.0716 240.47208 619.45245Q240.7925 622.22565 238.58278 624.4353Q236.36203 626.65607 233.30157 626.3136Q230.25218 625.96 225.87695 621.5848Q221.59012 617.298 221.20341 613.92816Q220.87196 611.1439 223.08168 608.9342ZM225.49026 611.34283Q224.95993 611.87317 224.88258 612.6355Q224.80525 613.37573 225.44606 614.4806Q226.2747 615.9059 228.94846 618.5796Q231.6222 621.25336 232.89278 621.9936Q234.16336 622.71173 234.90361 622.6344Q235.64388 622.55707 236.1742 622.02673Q236.70453 621.4964 236.78188 620.75616Q236.8592 619.99384 236.20735 618.9Q235.4008 617.47473 232.72705 614.801Q230.0533 612.12726 228.78273 611.4091Q227.51215 610.6688 226.77188 610.7462Q226.02058 610.8125 225.49026 611.34283ZM252.54814 604.548L255.25504 607.2548L245.05722 617.45264Q243.68721 615.75116 243.14583 613.5525Q242.60445 611.3539 242.77017 606.6361Q242.9138 602.8465 242.70389 601.7306Q242.40558 600.239 241.5217 599.35516Q240.54942 598.3829 239.49982 598.3939Q238.4502 598.3829 237.53317 599.29987Q236.61613 600.2169 236.62718 601.3107Q236.64929 602.3935 237.83148 603.75244L234.6495 606.3599Q232.49504 603.6972 232.82649 601.28864Q233.1469 598.869 235.19087 596.825Q237.44478 594.5711 239.94176 594.5048Q242.42767 594.4275 244.22859 596.2284Q245.2561 597.2559 245.81958 598.5486Q246.38306 599.84125 246.60402 601.65326Q246.74765 602.85754 246.63718 605.50916Q246.51564 608.1498 246.57088 608.9342Q246.61507 609.70764 246.76974 610.32635L252.54814 604.548ZM247.1233 584.8926Q249.33301 582.68286 252.13934 583.01434Q255.48705 583.40106 259.80704 587.721Q264.11597 592.02997 264.5137 595.4108Q264.8341 598.184 262.62442 600.3937Q260.40366 602.61444 257.3432 602.272Q254.29381 601.9184 249.9186 597.54315Q245.63176 593.25635 245.24506 589.88654Q244.91359 587.1023 247.1233 584.8926ZM249.53189 587.30115Q249.00156 587.8315 248.92422 588.5939Q248.84688 589.3341 249.48769 590.43896Q250.31633 591.8642 252.99008 594.53796Q255.66383 597.21173 256.93442 597.95197Q258.205 598.6701 258.94525 598.5928Q259.6855 598.51544 260.21582 597.9851Q260.74615 597.4548 260.8235 596.71454Q260.90085 595.9522 260.24896 594.8584Q259.44244 593.4331 256.76868 590.7594Q254.09494 588.08563 252.82436 587.3675Q251.55377 586.6272 250.81352 586.7045Q250.06223 586.7709 249.53189 587.30115Z" fill-rule="nonzero"/><path fill="#000000" d="M262.79013 573.86615Q263.90604 577.98724 263.34256 582.68286L259.74075 582.24097Q260.70197 576.0427 257.07803 569.81134L259.9838 568.1209Q261.7295 568.1209 260.81244 569.3031L261.43118 570.73944L272.9548 559.21576L275.19766 561.4586L269.1541 567.5022L271.30856 569.6567L276.28043 564.6848L278.5122 566.9166L273.54037 571.8885L276.61188 574.95996L283.57245 567.9994L285.80426 570.2312L278.84366 577.1918L283.82657 582.1747L281.50638 584.4949L276.52347 579.51196L266.9886 589.0469L264.75677 586.81506L268.49118 583.0806L263.1879 577.77734L268.98837 571.97687L266.8339 569.8224L262.79013 573.86615ZM270.81137 580.76044L274.2917 577.28015L271.22018 574.2087L267.7399 577.68896L270.81137 580.76044Z" fill-rule="nonzero"/><path fill="#000000" d="M330.74274 628.5896L333.44965 631.29645L323.25183 641.49426Q321.8818 639.7928 321.34042 637.5941Q320.79904 635.39545 320.96478 630.67773Q321.1084 626.8881 320.8985 625.7722Q320.6002 624.28064 319.7163 623.3967Q318.74402 622.4245 317.6944 622.43555Q316.6448 622.4245 315.72778 623.3415Q314.81073 624.25854 314.82178 625.35236Q314.8439 626.4351 316.0261 627.79407L312.84412 630.40155Q310.68964 627.73883 311.0211 625.33026Q311.3415 622.91064 313.38547 620.86664Q315.63937 618.61273 318.13635 618.54645Q320.62228 618.4691 322.4232 620.27Q323.4507 621.29755 324.0142 622.5902Q324.57767 623.8829 324.7986 625.6949Q324.94226 626.8992 324.83176 629.5508Q324.71024 632.1914 324.76547 632.9758Q324.80966 633.74927 324.96436 634.368L330.74274 628.5896ZM325.3179 608.9342Q327.52762 606.7245 330.33395 607.05597Q333.68164 607.4427 338.00165 611.76263Q342.31058 616.0716 342.7083 619.45245Q343.02872 622.2256 340.819 624.4353Q338.59827 626.65607 335.5378 626.3136Q332.4884 625.96 328.1132 621.5848Q323.82635 617.298 323.43967 613.92816Q323.1082 611.1439 325.3179 608.9342ZM327.7265 611.3428Q327.19617 611.8731 327.1188 612.6355Q327.04147 613.37573 327.68228 614.4806Q328.51093 615.9058 331.1847 618.5796Q333.85843 621.25336 335.12903 621.9936Q336.3996 622.71173 337.13986 622.6344Q337.8801 622.55707 338.41043 622.02673Q338.94077 621.4964 339.0181 620.75616Q339.09543 619.99384 338.44357 618.9Q337.63702 617.47473 334.9633 614.80096Q332.28955 612.12726 331.01895 611.4091Q329.74838 610.6688 329.00812 610.74615Q328.2568 610.81244 327.7265 611.3428ZM354.78436 604.5479L357.49127 607.2548L347.29346 617.45264Q345.92343 615.75116 345.38205 613.5525Q344.8407 611.3538 345.0064 606.6361Q345.15005 602.8465 344.94012 601.7306Q344.6418 600.239 343.75793 599.3551Q342.78564 598.3829 341.73605 598.3939Q340.68643 598.3829 339.7694 599.29987Q338.8524 600.2169 338.86343 601.3107Q338.88553 602.3935 340.06772 603.75244L336.88574 606.3599Q334.73126 603.6972 335.0627 601.28864Q335.38312 598.869 337.42712 596.825Q339.681 594.5711 342.17798 594.5048Q344.6639 594.4275 346.4648 596.2284Q347.49234 597.2559 348.05582 598.5486Q348.6193 599.84125 348.84024 601.6532Q348.9839 602.85754 348.8734 605.50916Q348.75186 608.1498 348.8071 608.9342Q348.85132 609.70764 349.00598 610.32635L354.78436 604.5479ZM367.13666 597.60944L364.21982 600.52625L353.24863 589.55505Q353.1492 592.63763 351.70184 595.5213L349.06122 592.8807Q349.82358 591.367 350.1219 588.9916Q350.4202 586.61615 349.52527 584.72687L351.88965 582.3625L367.13666 597.60944Z" fill-rule="nonzero"/><path fill="#000000" d="M365.02637 573.86615Q366.14227 577.98724 365.5788 582.68286L361.97696 582.2409Q362.9382 576.0427 359.31427 569.81134L362.22003 568.1209Q363.9657 568.1209 363.04868 569.3031L363.6674 570.7394L375.19104 559.21576L377.4339 561.4586L371.39032 567.5022L373.5448 569.6566L378.51663 564.6848L380.74844 566.9166L375.7766 571.8884L378.8481 574.95996L385.8087 567.9994L388.0405 570.23114L381.0799 577.1918L386.0628 582.1746L383.7426 584.4948L378.7597 579.51196L369.22482 589.0468L366.993 586.815L370.72742 583.0806L365.42413 577.77734L371.2246 571.9768L369.07013 569.8224L365.02637 573.86615ZM373.0476 580.76044L376.5279 577.28015L373.45642 574.2086L369.9761 577.6889L373.0476 580.76044Z" fill-rule="nonzero"/><path fill="#000000" d="M432.97894 628.5896L435.68585 631.29645L425.48804 641.49426Q424.118 639.7928 423.57663 637.5941Q423.03525 635.3955 423.201 630.67773Q423.34464 626.8881 423.1347 625.7722Q422.8364 624.28064 421.9525 623.3968Q420.98022 622.4245 419.93063 622.43555Q418.881 622.4245 417.964 623.34155Q417.04697 624.25854 417.058 625.35236Q417.0801 626.4351 418.2623 627.79407L415.08032 630.40155Q412.92584 627.73883 413.2573 625.33026Q413.5777 622.91064 415.6217 620.86664Q417.87558 618.61273 420.37256 618.54645Q422.8585 618.4691 424.6594 620.27Q425.68692 621.29755 426.2504 622.5902Q426.81387 623.8829 427.03482 625.6949Q427.17847 626.8992 427.068 629.5508Q426.94644 632.1914 427.00168 632.9758Q427.0459 633.74927 427.20056 634.368L432.97894 628.5896ZM427.5541 608.9342Q429.76382 606.7245 432.57016 607.05597Q435.91788 607.4427 440.23785 611.76263Q444.54678 616.0716 444.94452 619.45245Q445.26492 622.22565 443.05524 624.4353Q440.83447 626.65607 437.77402 626.3136Q434.7246 625.96 430.3494 621.5848Q426.06256 617.298 425.67587 613.92816Q425.34442 611.1439 427.5541 608.9342ZM429.9627 611.34283Q429.43237 611.8731 429.35504 612.6355Q429.27768 613.37573 429.91852 614.4806Q430.74713 615.9059 433.4209 618.5796Q436.09464 621.25336 437.36523 621.9936Q438.6358 622.71173 439.37607 622.6344Q440.1163 622.55707 440.64664 622.02673Q441.17697 621.4964 441.2543 620.75616Q441.33167 619.99384 440.67978 618.9Q439.87323 617.47473 437.1995 614.801Q434.52576 612.12726 433.25516 611.4091Q431.9846 610.6688 431.24432 610.7462Q430.49304 610.8125 429.9627 611.34283ZM457.02057 604.548L459.72748 607.2548L449.52966 617.45264Q448.15964 615.75116 447.6183 613.5525Q447.0769 611.3539 447.2426 606.6361Q447.38626 602.8465 447.17633 601.7306Q446.87802 600.239 445.99414 599.35516Q445.02185 598.3829 443.97226 598.3939Q442.92264 598.3829 442.0056 599.29987Q441.0886 600.2169 441.09964 601.3107Q441.12173 602.3935 442.30392 603.75244L439.12195 606.3599Q436.96747 603.6972 437.29892 601.28864Q437.61935 598.869 439.66333 596.825Q441.91724 594.5711 444.41418 594.5048Q446.90012 594.4275 448.70102 596.2284Q449.72855 597.2559 450.29202 598.5486Q450.8555 599.84125 451.07648 601.65326Q451.2201 602.85754 451.10962 605.50916Q450.98807 608.1498 451.04333 608.9342Q451.08752 609.70764 451.2422 610.32635L457.02057 604.548ZM469.0414 592.52716L471.7483 595.234L461.55048 605.4318Q460.18048 603.73035 459.6391 601.5317Q459.09772 599.33307 459.26343 594.6153Q459.40707 590.8257 459.19714 589.7098Q458.89883 588.2182 458.01495 587.33435Q457.0427 586.36206 455.99307 586.3731Q454.94345 586.36206 454.02643 587.27905Q453.1094 588.1961 453.12045 589.2899Q453.14255 590.3727 454.32474 591.7316L451.14276 594.3391Q448.98828 591.6764 449.31973 589.2678Q449.64017 586.8482 451.68414 584.8042Q453.93805 582.5503 456.435 582.484Q458.92093 582.4067 460.72183 584.2076Q461.74936 585.2351 462.31284 586.5278Q462.8763 587.82043 463.0973 589.63245Q463.2409 590.83673 463.13043 593.48834Q463.00888 596.12897 463.06415 596.9134Q463.10834 597.6868 463.263 598.30554L469.0414 592.52716Z" fill-rule="nonzero"/><path fill="#000000" d="M467.26257 573.86615Q468.37848 577.98724 467.815 582.68286L464.2132 582.24097Q465.1744 576.0427 461.55048 569.81134L464.45624 568.1209Q466.20193 568.1209 465.28488 569.3031L465.90363 570.7394L477.42722 559.2158L479.67007 561.4587L473.62656 567.5022L475.781 569.6567L480.75284 564.6848L482.98465 566.9166L478.01282 571.8885L481.08432 574.95996L488.04486 567.9994L490.27667 570.2312L483.3161 577.1918L488.299 582.1747L485.97882 584.4949L480.9959 579.51196L471.46103 589.0469L469.22922 586.81506L472.96362 583.0806L467.66034 577.77734L473.46082 571.97687L471.30634 569.8224L467.26257 573.86615ZM475.2838 580.76044L478.76413 577.28015L475.69263 574.2087L472.21234 577.68896L475.2838 580.76044Z" fill-rule="nonzero"/><path fill="#000000" d="M535.2152 628.5896L537.92206 631.29645L527.72424 641.49426Q526.35425 639.7928 525.81287 637.5941Q525.2715 635.39545 525.4372 630.67773Q525.5809 626.8881 525.3709 625.7722Q525.07263 624.28064 524.1887 623.3967Q523.2165 622.4245 522.1669 622.43555Q521.11725 622.4245 520.2002 623.3415Q519.2832 624.25854 519.29425 625.35236Q519.31635 626.4351 520.49854 627.79407L517.3165 630.40155Q515.16205 627.73883 515.4935 625.33026Q515.81396 622.91064 517.8579 620.86664Q520.1118 618.61273 522.6088 618.54645Q525.0947 618.4691 526.8956 620.27Q527.92316 621.29755 528.48663 622.5902Q529.0501 623.8829 529.27106 625.6948Q529.4147 626.8992 529.3042 629.5508Q529.1827 632.1914 529.2379 632.9758Q529.2821 633.74927 529.43677 634.368L535.2152 628.5896ZM529.79034 608.9342Q532.00006 606.7245 534.8064 607.05597Q538.1541 607.4427 542.47406 611.76263Q546.783 616.0716 547.1808 619.45245Q547.50116 622.2256 545.29144 624.4353Q543.0707 626.65607 540.01025 626.3136Q536.9609 625.96 532.58563 621.5848Q528.29877 617.298 527.9121 613.92816Q527.5806 611.1439 529.79034 608.9342ZM532.1989 611.3428Q531.6686 611.8731 531.59125 612.6355Q531.5139 613.37573 532.1547 614.4806Q532.9834 615.9058 535.6571 618.5796Q538.3309 621.25336 539.60144 621.9936Q540.872 622.71173 541.6123 622.6344Q542.35254 622.55707 542.8829 622.02673Q543.4132 621.4964 543.49054 620.75616Q543.5679 619.99384 542.916 618.9Q542.1095 617.47473 539.4357 614.80096Q536.76196 612.12726 535.4914 611.40906Q534.2208 610.6688 533.4806 610.74615Q532.72925 610.81244 532.1989 611.3428ZM559.25684 604.5479L561.9637 607.2548L551.7659 617.45264Q550.3959 615.75116 549.8545 613.5525Q549.3131 611.3538 549.4789 606.6361Q549.6225 602.84644 549.41254 601.7306Q549.11426 600.239 548.23035 599.3551Q547.2581 598.3829 546.2085 598.3939Q545.1589 598.3829 544.2418 599.29987Q543.3248 600.2169 543.3359 601.3107Q543.358 602.3935 544.54016 603.75244L541.35815 606.3599Q539.20374 603.6972 539.53516 601.28864Q539.8556 598.869 541.89954 596.825Q544.15344 594.5711 546.65045 594.5048Q549.13635 594.4275 550.93726 596.2284Q551.9648 597.2559 552.52826 598.5486Q553.09174 599.84125 553.3127 601.6532Q553.4563 602.85754 553.3458 605.50916Q553.2243 608.1498 553.27954 608.9342Q553.3237 609.70764 553.47845 610.32635L559.25684 604.5479ZM560.01917 601.134L562.494 597.97406Q563.70935 598.92426 564.86945 598.9132Q566.02954 598.88007 566.86926 598.04034Q567.77527 597.1344 567.6979 595.8417Q567.6316 594.53796 566.4715 593.37787Q565.3777 592.28406 564.14026 592.23987Q562.9139 592.18463 562.0742 593.0243Q561.51074 593.58777 560.94727 594.5711L558.90326 591.8863Q560.10754 590.7262 560.1849 589.5661Q560.2622 588.406 559.35626 587.50006Q558.5939 586.7377 557.6879 586.7377Q556.7819 586.7377 556.0196 587.50006Q555.27936 588.2403 555.2683 589.2899Q555.2462 590.3285 556.13007 591.43335L552.9923 593.6651Q551.88745 592.0079 551.6333 590.6268Q551.36816 589.2347 551.90955 587.7652Q552.4509 586.2736 553.71045 585.0141Q555.8539 582.8707 558.51654 582.94806Q560.6931 583.0033 562.0963 584.40643Q564.09607 586.40625 563.11273 589.77606Q564.70374 588.7596 566.4494 588.95844Q568.2061 589.1463 569.5762 590.5163Q571.5759 592.51605 571.53174 595.3887Q571.4765 598.25024 569.2999 600.4268Q567.24493 602.4819 564.70374 602.6586Q562.1626 602.8354 560.01917 601.134Z" fill-rule="nonzero"/><path fill="#000000" d="M569.49884 573.86615Q570.61475 577.98724 570.0513 582.68286L566.4494 582.2409Q567.41064 576.0427 563.78674 569.81134L566.6925 568.1209Q568.4382 568.1209 567.5211 569.3031L568.13983 570.7394L579.66345 559.21576L581.9063 561.4586L575.8628 567.5022L578.0172 569.6566L582.9891 564.6848L585.2209 566.9166L580.249 571.8884L583.32056 574.95996L590.2811 567.9994L592.51294 570.23114L585.55237 577.1918L590.5352 582.1746L588.215 584.4948L583.2322 579.51196L573.69727 589.0468L571.46545 586.815L575.1999 583.0806L569.89655 577.77734L575.697 571.9768L573.5426 569.8224L569.49884 573.86615ZM577.5201 580.76044L581.00037 577.28015L577.92883 574.2086L574.44855 577.6889L577.5201 580.76044Z" fill-rule="nonzero"/><path fill="#000000" d="M637.4514 628.5896L640.15826 631.29645L629.9605 641.49426Q628.59045 639.7928 628.0491 637.5941Q627.5077 635.3955 627.67346 630.67773Q627.8171 626.8881 627.6071 625.7722Q627.30884 624.28064 626.4249 623.3968Q625.4527 622.4245 624.4031 622.43555Q623.35345 622.4245 622.4364 623.34155Q621.5194 624.25854 621.53046 625.35236Q621.55255 626.4351 622.73474 627.79407L619.55273 630.40155Q617.3983 627.73883 617.72974 625.33026Q618.0502 622.91064 620.0941 620.86664Q622.348 618.61273 624.84503 618.54645Q627.33093 618.4691 629.13184 620.27Q630.15936 621.29755 630.72284 622.5902Q631.2863 623.8829 631.50726 625.6949Q631.6509 626.8992 631.5404 629.5508Q631.4189 632.1914 631.4741 632.9758Q631.5183 633.74927 631.67303 634.368L637.4514 628.5896ZM632.02655 608.9342Q634.23627 606.7245 637.0426 607.05597Q640.3903 607.4427 644.71027 611.76263Q649.0192 616.0716 649.417 619.45245Q649.73737 622.22565 647.52765 624.4353Q645.3069 626.65607 642.24646 626.3136Q639.1971 625.96 634.82184 621.5848Q630.53503 617.298 630.1483 613.92816Q629.81683 611.1439 632.02655 608.9342ZM634.4351 611.34283Q633.9048 611.8731 633.82745 612.6355Q633.7501 613.37573 634.3909 614.4806Q635.2196 615.9059 637.8933 618.5796Q640.5671 621.25336 641.83765 621.9936Q643.1083 622.71173 643.8485 622.6344Q644.58875 622.55707 645.1191 622.02673Q645.6494 621.4964 645.72675 620.75616Q645.8041 619.99384 645.1522 618.9Q644.3457 617.47473 641.67194 614.801Q638.99817 612.12726 637.7276 611.4091Q636.45703 610.6688 635.7168 610.74615Q634.96545 610.8125 634.4351 611.34283ZM661.49304 604.548L664.1999 607.2548L654.00214 617.45264Q652.6321 615.75116 652.0907 613.5525Q651.5493 611.3539 651.7151 606.6361Q651.8587 602.8465 651.64874 601.7306Q651.35046 600.239 650.46655 599.35516Q649.4943 598.3829 648.4447 598.3939Q647.3951 598.3829 646.478 599.29987Q645.56104 600.2169 645.5721 601.3107Q645.5942 602.3935 646.77637 603.75244L643.59436 606.3599Q641.43994 603.6972 641.77136 601.28864Q642.0918 598.869 644.13574 596.825Q646.38965 594.5711 648.88666 594.5048Q651.37256 594.4275 653.17346 596.2284Q654.201 597.2559 654.76447 598.5486Q655.32794 599.84125 655.5489 601.65326Q655.69257 602.85754 655.58203 605.50916Q655.4605 608.1498 655.51575 608.9342Q655.55994 609.70764 655.71466 610.32635L661.49304 604.548ZM672.0996 599.35516L669.0392 596.2947L662.8299 602.50397L660.28876 599.9628L657.2283 583.7325L659.67004 581.2908L669.3043 590.9251L671.19366 589.03577L673.74585 591.588L671.85657 593.4773L674.917 596.5378L672.0996 599.35516ZM666.48694 593.7425L661.2941 588.5497L662.9956 597.2338L666.48694 593.7425Z" fill-rule="nonzero"/><path fill="#000000" d="M671.73505 573.86615Q672.85095 577.98724 672.2875 582.68286L668.6856 582.24097Q669.64685 576.0427 666.02295 569.81134L668.9287 568.1209Q670.6744 568.1209 669.7573 569.3031L670.37604 570.7394L681.89966 559.21576L684.1425 561.4586L678.099 567.5022L680.2535 569.6567L685.2253 564.6848L687.4571 566.9166L682.4852 571.8884L685.55676 574.95996L692.51733 567.9994L694.74915 570.2312L687.7886 577.1918L692.7714 582.1746L690.45123 584.4949L685.4684 579.51196L675.9335 589.0469L673.70166 586.81506L677.4361 583.0806L672.13275 577.77734L677.9332 571.97687L675.7788 569.8224L671.73505 573.86615ZM679.7563 580.76044L683.2366 577.28015L680.16504 574.2087L676.68475 577.68896L679.7563 580.76044Z" fill-rule="nonzero"/><path fill="#f39800" d="M218.72772 81.06087C218.72772 80.50858 219.17545 80.06087 219.72772 80.06087L229.72772 80.06087C230.28001 80.06087 230.72772 80.50858 230.72772 81.06087L230.72772 91.06087C230.72772 91.61315 230.28001 92.06087 229.72772 92.06087L219.72772 92.06087C219.17545 92.06087 218.72772 91.61315 218.72772 91.06087Z" fill-rule="nonzero"/><path fill="#1a1a1a" d="M253.85272 82.29524Q252.36835 90.77962 243.72772 94.60774L241.85272 92.63899Q249.79022 89.40462 251.24335 82.27962L245.54022 82.27962Q243.82147 85.13899 241.6496 87.12337L239.54022 85.76399Q243.8371 81.87337 245.07147 76.71712L247.2121 77.46712Q248.3371 78.02962 247.18085 78.45149Q246.91522 79.35774 246.5871 79.93587L251.61835 79.93587L252.44647 79.46712L254.0246 81.04524Q254.94647 81.96712 253.85272 82.29524ZM253.97772 80.62337Q252.55585 78.59212 251.13397 77.43587L252.63397 76.17024Q254.19647 77.52962 255.57147 79.37337L253.97772 80.62337ZM256.2746 79.70149Q254.82147 77.88899 253.5871 76.74837L254.97772 75.35774Q256.38397 76.67024 257.66522 78.32649L256.2746 79.70149ZM270.69647 90.02962Q273.61835 88.88899 276.7121 84.63899L278.19647 86.65462Q275.04022 90.96712 270.43085 92.79524L269.6496 93.18587L268.05585 91.99837L268.2746 91.43587L268.2746 78.60774L270.25897 78.60774Q271.60272 78.90462 270.69647 79.68587L270.69647 90.02962ZM259.41522 92.63899Q263.50897 88.70149 263.50897 83.29524L263.50897 79.46712L265.49335 79.46712Q266.8371 79.76399 265.93085 80.54524L265.93085 83.21712Q265.93085 89.92024 261.50897 93.99837L259.41522 92.63899ZM279.91522 86.65462L279.91522 84.31087L297.9621 84.31087L297.9621 86.65462L279.91522 86.65462ZM313.91522 78.99837Q314.41522 78.99837 314.7121 78.70149Q315.00897 78.40462 315.00897 77.90462Q315.00897 77.40462 314.7121 77.10774Q314.41522 76.81087 313.91522 76.81087Q313.41522 76.81087 313.11835 77.10774Q312.82147 77.40462 312.82147 77.90462Q312.82147 78.40462 313.11835 78.70149Q313.41522 78.99837 313.91522 78.99837ZM313.91522 80.40462Q312.85272 80.40462 312.13397 79.68587Q311.41522 78.96712 311.41522 77.90462Q311.41522 76.84212 312.13397 76.12337Q312.85272 75.40462 313.91522 75.40462Q314.97772 75.40462 315.69647 76.12337Q316.41522 76.84212 316.41522 77.90462Q316.41522 78.96712 315.69647 79.68587Q314.97772 80.40462 313.91522 80.40462ZM299.61835 81.42024L299.61835 79.07649L311.60272 79.07649L313.8371 80.71712Q313.43085 90.56087 302.7121 93.57649L300.85272 91.31087Q310.88397 88.98274 311.32147 81.42024L299.61835 81.42024ZM328.63397 77.67024Q331.3996 81.15462 336.63397 82.79524L335.60272 85.17024Q329.91522 83.09212 327.11835 79.21712Q325.91522 81.70149 324.16522 82.90462L332.1496 82.90462L332.1496 85.01399L322.7746 85.01399L322.7746 83.96712Q321.85272 84.73274 319.7121 85.71712L318.22772 83.71712Q324.16522 80.95149 326.0246 76.37337L328.29022 76.81087Q329.68085 77.01399 328.63397 77.67024ZM323.55585 94.62337L321.36835 94.62337L321.36835 86.26399L333.63397 86.26399L333.63397 94.38899L331.44647 94.38899L331.44647 93.52962L323.55585 93.52962L323.55585 94.62337ZM323.55585 91.42024L331.44647 91.42024L331.44647 88.37337L323.55585 88.37337L323.55585 91.42024ZM351.13397 82.67024L351.13397 76.42024L352.9621 76.42024Q354.60272 76.74837 353.32147 77.46712L353.32147 82.67024L357.30585 82.67024L357.30585 84.77962L353.32147 84.77962L353.32147 94.46712L351.13397 94.46712L351.13397 84.77962L346.91522 84.77962L346.91522 82.67024L351.13397 82.67024ZM346.91522 94.23274L344.72772 94.23274L344.72772 93.45149L342.1496 93.45149L342.1496 94.54524L339.9621 94.54524L339.9621 87.51399L346.91522 87.51399L346.91522 94.23274ZM342.1496 89.38899L342.1496 91.57649L344.72772 91.57649L344.72772 89.38899L342.1496 89.38899ZM346.44647 84.85774L346.44647 86.96712L340.43085 86.96712L340.43085 84.85774L346.44647 84.85774ZM340.43085 82.27962L346.44647 82.27962L346.44647 84.38899L340.43085 84.38899L340.43085 82.27962ZM338.94647 79.70149L347.85272 79.70149L347.85272 81.81087L338.94647 81.81087L338.94647 79.70149ZM346.44647 76.88899L346.44647 78.99837L340.43085 78.99837L340.43085 76.88899L346.44647 76.88899Z" fill-rule="nonzero"/><path fill="#4285f4" d="M374.47772 81.06087C374.47772 80.50858 374.92545 80.06087 375.47772 80.06087L385.47772 80.06087C386.03 80.06087 386.47772 80.50858 386.47772 81.06087L386.47772 91.06087C386.47772 91.61315 386.03 92.06087 385.47772 92.06087L375.47772 92.06087C374.92545 92.06087 374.47772 91.61315 374.47772 91.06087Z" fill-rule="nonzero"/><path fill="#1a1a1a" d="M408.85272 79.70149L412.44647 79.70149L412.44647 82.04524L408.85272 82.04524L408.85272 83.84212L413.7746 83.84212L413.7746 86.18587L409.22772 86.18587Q410.3371 88.15462 414.41522 90.60774L413.18085 92.98274Q409.79022 90.54524 408.85272 89.15462L408.85272 94.85774L406.66522 94.85774L406.66522 89.45149Q405.57147 91.32649 402.3371 93.51399L401.18085 91.40462Q404.7121 88.93587 406.35272 86.18587L402.05585 86.18587L402.05585 83.84212L406.66522 83.84212L406.66522 82.04524L404.99335 82.04524Q404.5871 82.99837 403.47772 84.31087L401.7746 82.51399Q403.3371 80.87337 404.25897 77.68587L406.1496 78.15462Q407.3996 78.77962 406.13397 79.10774L405.93085 79.70149L406.66522 79.70149L406.66522 76.18587L408.47772 76.18587Q409.91522 76.37337 408.85272 77.12337L408.85272 79.70149ZM400.49335 94.85774L398.30585 94.85774L398.30585 88.26399Q398.10272 88.77962 396.30585 90.76399L394.94647 88.56087Q397.4621 85.95149 398.16522 82.35774L395.6496 82.35774L395.6496 80.01399L398.30585 80.01399L398.30585 76.18587L400.13397 76.18587Q401.55585 76.54524 400.49335 77.15462L400.49335 80.01399L402.68085 80.01399L402.68085 82.35774L400.49335 82.35774L400.49335 84.13899Q401.9621 85.09212 403.22772 86.73274L401.63397 88.76399Q400.55585 86.99837 400.49335 86.93587L400.49335 94.85774ZM430.22772 89.70149Q431.1496 91.42024 431.74335 91.42024Q431.79022 91.42024 431.82147 91.21712L432.0246 89.46712L434.35272 90.52962L434.00897 92.63899Q433.72772 94.23274 432.29022 94.23274Q429.75897 94.23274 428.0246 90.85774Q426.43085 87.74837 426.35272 82.43587L416.74335 82.43587L416.74335 80.09212L426.2746 80.09212L426.2746 76.49837L428.3371 76.49837Q429.88397 76.81087 428.69647 77.60774L428.69647 80.09212L434.16522 80.09212L434.16522 82.43587L428.7121 82.43587Q429.00897 87.49837 430.22772 89.70149ZM427.25897 91.51399Q422.5871 92.51399 418.3371 93.24837Q418.07147 94.43587 417.22772 93.26399L416.75897 90.90462Q419.05585 90.71712 420.6496 90.45149L420.6496 86.57649L417.5246 86.57649L417.5246 84.46712L425.88397 84.46712L425.88397 86.57649L422.8371 86.57649L422.8371 90.12337Q424.2746 89.93587 426.93085 89.40462L427.25897 91.51399ZM430.44647 76.82649Q431.75897 77.48274 433.07147 78.70149L431.18085 80.27962Q430.22772 79.32649 428.63397 78.43587L430.44647 76.82649ZM449.10272 82.43587Q447.38397 81.49837 445.88397 78.90462Q444.3996 81.32649 442.86835 82.43587L449.10272 82.43587ZM454.19647 84.74837Q452.57147 84.37337 450.80585 83.35774L450.80585 84.77962L441.35272 84.77962L441.35272 83.51399Q439.69647 84.67024 437.49335 85.31087L436.57147 82.84212Q442.22772 81.31087 444.93085 76.31087L446.79022 76.57649Q448.19647 76.76399 447.24335 77.43587Q449.50897 80.84212 455.2121 82.29524L454.19647 84.74837ZM452.2121 94.73274Q451.43085 93.65462 450.69647 92.99837L439.61835 94.21712Q439.11835 94.71712 438.50897 94.26399L437.82147 91.82649L441.24335 91.67024L443.0871 88.29524L437.68085 88.29524L437.68085 85.95149L454.32147 85.95149L454.32147 88.29524L445.74335 88.29524L443.80585 91.52962L448.8996 91.15462Q448.41522 90.71712 446.82147 89.52962L448.79022 88.23274Q452.74335 91.20149 454.38397 93.37337L452.2121 94.73274ZM462.8371 79.77962L464.04022 79.77962L464.47772 79.34212L466.13397 80.99837L465.35272 81.54524Q464.43085 83.31087 463.05585 85.01399Q464.61835 85.51399 466.36835 86.70149L465.2121 89.01399Q463.60272 87.70149 462.8371 87.26399L462.8371 94.77962L460.6496 94.77962L460.6496 87.43587Q459.74335 88.23274 457.93085 89.27962L456.9621 87.13899Q460.88397 85.01399 462.68085 81.88899L457.75897 81.88899L457.75897 79.77962L460.6496 79.77962L460.6496 76.42024L462.4621 76.42024Q463.8996 76.60774 462.8371 77.35774L462.8371 79.77962ZM471.07147 76.88899Q472.61835 77.20149 471.43085 77.99837L471.43085 81.65462L475.0246 81.65462L475.0246 83.99837L471.43085 83.99837L471.43085 91.49837L475.72772 91.49837L475.72772 93.84212L464.3996 93.84212L464.3996 91.49837L469.00897 91.49837L469.00897 83.99837L465.6496 83.99837L465.6496 81.65462L469.00897 81.65462L469.00897 76.88899L471.07147 76.88899ZM492.10272 82.29524Q490.61835 90.77962 481.97772 94.60774L480.10272 92.63899Q488.04022 89.40462 489.49335 82.27962L483.79022 82.27962Q482.07147 85.13899 479.8996 87.12337L477.79022 85.76399Q482.0871 81.87337 483.32147 76.71712L485.4621 77.46712Q486.5871 78.02962 485.43085 78.45149Q485.16522 79.35774 484.8371 79.93587L489.86835 79.93587L490.69647 79.46712L492.2746 81.04524Q493.19647 81.96712 492.10272 82.29524ZM506.3371 85.87337Q506.3371 91.93587 500.50897 94.68587L498.41522 92.90462Q503.8371 90.43587 503.91522 85.79524L503.91522 77.67024L505.8996 77.67024Q507.3996 77.96712 506.3371 78.76399L506.3371 85.87337ZM498.29022 87.90462L495.86835 87.90462L495.86835 78.45149L497.91522 78.45149Q499.49335 78.60774 498.29022 79.54524L498.29022 87.90462ZM519.3996 85.51399Q519.5402 90.88899 513.93085 94.40462L512.1652 92.42024Q516.9621 89.82649 516.9621 85.48274L516.9621 81.81087L518.93085 81.81087Q520.36835 81.96712 519.384 82.81087L519.384 84.07649Q521.6652 82.37337 522.74335 80.90462L510.35272 81.35774L510.13397 78.93587L524.6496 78.52962L525.3527 78.32649L526.6652 79.90462Q527.3371 80.81087 526.1652 80.65462Q523.8996 83.59212 520.384 86.45149L519.3996 85.51399Z" fill-rule="nonzero"/><path fill="#757575" d="M630.45935 56.603127L628.58435 56.603127Q627.08435 54.353127 626.3031 51.93125Q625.52185 49.49375 625.52185 47.2125Q625.52185 44.384377 626.4906 41.86875Q627.33435 39.68125 628.6156 37.8375L630.4906 37.8375Q629.14685 40.790627 628.64685 42.86875Q628.14685 44.946877 628.14685 47.275Q628.14685 48.86875 628.4437 50.55625Q628.7406 52.228127 629.2562 53.74375Q629.6 54.74375 630.45935 56.603127Z" fill-rule="nonzero"/><path fill="#757575" d="M646.8812 39.43125L648.6625 39.43125L648.6625 48.103127L646.475 48.103127L646.475 47.634377L642.8031 47.634377L642.8031 48.65L651.0062 48.65L651.0062 50.759377L642.8031 50.759377L642.8031 54.040627L640.6156 54.040627L640.6156 50.759377L632.5687 50.759377L632.5687 48.65L640.6156 48.65L640.6156 47.634377L637.02185 47.634377L637.02185 48.259377L634.83435 48.259377L634.83435 39.43125L644.27185 39.43125L646.85 35.478127L648.6156 36.68125Q649.70935 37.55625 648.35 37.55625L646.8812 39.43125ZM641.2562 35.665627Q642.975 37.11875 643.6781 38.43125L641.6781 39.9Q640.9125 38.446877 639.4281 37.05625L641.2562 35.665627ZM640.6156 42.55625L640.6156 41.540627L637.02185 41.540627L637.02185 42.55625L640.6156 42.55625ZM646.475 42.55625L646.475 41.540627L642.8031 41.540627L642.8031 42.55625L646.475 42.55625ZM640.6156 45.525L640.6156 44.665627L637.02185 44.665627L637.02185 45.525L640.6156 45.525ZM646.475 45.525L646.475 44.665627L642.8031 44.665627L642.8031 45.525L646.475 45.525ZM636.6625 39.9625Q635.9125 38.446877 634.58435 37.228127L636.4125 35.821877Q637.89685 37.2125 638.6781 38.68125L636.6625 39.9625ZM669.1 43.61875Q668.4906 46.775 667.08435 50.603127L671.5531 50.603127L671.5531 52.7125L657.8812 52.7125L657.8812 50.603127L664.6781 50.603127Q666.02185 46.15 666.77185 42.0875L669.1 42.74375Q669.7875 43.196877 669.1 43.61875ZM655.6156 53.9625L655.6781 44.7125Q655.70935 44.775 654.1781 46.509377L652.7875 44.384377Q656.02185 41.228127 656.7562 35.74375L658.9281 36.4Q660.0687 36.978127 658.9281 37.4Q658.33435 39.853127 657.70935 41.228127L657.8031 41.259377Q658.3812 41.8375 657.8031 42.18125L657.8031 53.9625L655.6156 53.9625ZM661.8812 42.884377Q663.1781 45.665627 663.8656 49.009377L661.475 49.8375Q660.7875 46.4 659.5687 43.61875L661.8812 42.884377ZM670.6937 39.821877L670.6937 41.93125L658.7406 41.93125L658.7406 39.821877L663.5062 39.821877L663.5062 35.99375L665.3187 35.99375Q666.7562 36.18125 665.6937 36.93125L665.6937 39.821877L670.6937 39.821877Z" fill-rule="nonzero"/><path fill="#757575" d="M674.6937 44.775L674.6937 42.025L677.4281 42.025L677.4281 44.775L674.6937 44.775ZM674.6937 52.4L674.6937 49.65L677.4281 49.65L677.4281 52.4L674.6937 52.4Z" fill-rule="nonzero"/><path fill="#757575" d="M699.02185 36.853127L699.02185 39.196877L691.3031 39.196877L690.89685 41.15L696.9906 41.15L696.9906 53.65L694.5687 53.65L694.5687 52.634377L685.7406 52.634377L685.7406 53.9625L683.3187 53.9625L683.3187 41.15L688.3656 41.15L688.725 39.196877L681.0531 39.196877L681.0531 36.853127L699.02185 36.853127ZM685.7406 47.946877L685.7406 50.525L694.5687 50.525L694.5687 47.946877L685.7406 47.946877ZM694.5687 45.8375L694.5687 43.259377L685.7406 43.259377L685.7406 45.8375L694.5687 45.8375ZM707.85 39.665627L702.0687 39.665627L702.0687 37.321877L719.4125 37.321877L719.4125 39.665627L710.27185 39.665627Q710.27185 41.009377 710.14685 42.321877L718.0062 42.321877Q718.0062 47.8375 717.1312 50.8375Q716.4437 53.3375 714.02185 53.3375L710.70935 53.3375L710.2875 50.99375L713.475 50.99375Q714.5687 50.99375 714.8187 50.11875Q715.4281 48.05625 715.5062 44.665627L709.8187 44.665627Q708.6 50.49375 703.3031 53.353127L701.77185 51.103127Q707.85 48.071877 707.85 40.68125L707.85 39.665627ZM739.02185 51.853127Q739.02185 53.415627 737.45935 53.415627L735.1937 53.415627L734.5531 51.071877L736.6 51.071877Q736.6 51.071877 736.6 51.071877L736.6 46.15L725.7406 46.15L725.7406 53.49375L723.3187 53.49375L723.3187 37.009377L739.02185 37.009377L739.02185 51.853127ZM736.6 39.11875L732.225 39.11875L732.225 44.040627L736.6 44.040627L736.6 39.11875ZM725.7406 39.11875L725.7406 44.040627L730.0375 44.040627L730.0375 39.11875L725.7406 39.11875Z" fill-rule="nonzero"/><path fill="#757575" d="M742.27185 56.603127Q743.08435 54.86875 743.4125 53.93125Q743.7562 53.009377 744.0375 51.80625Q744.3187 50.5875 744.4437 49.509377Q744.58435 48.415627 744.58435 47.275Q744.58435 44.946877 744.08435 42.86875Q743.6 40.790627 742.2562 37.8375L744.1156 37.8375Q745.6 39.93125 746.4125 42.290627Q747.225 44.65 747.225 47.071877Q747.225 49.103127 746.58435 51.446877Q745.85 54.05625 744.1625 56.603127L742.27185 56.603127Z" fill-rule="nonzero"/></svg>