<svg version="1.1" viewBox="0.0 0.0 802.0 685.0" fill="none" stroke="none" stroke-linecap="square" stroke-miterlimit="10" width="802" height="685" xmlns:xlink="http://www.w3.org/1999/xlink" xmlns="http://www.w3.org/2000/svg"><path fill="#ffffff" d="M0 0L802.0 0L802.0 685.0L0 685.0L0 0Z" fill-rule="nonzero"/><path stroke="#333333" stroke-width="1.0" stroke-linecap="butt" d="M100.5 600.5L767.5 600.5" fill-rule="nonzero"/><path stroke="#cccccc" stroke-width="1.0" stroke-linecap="butt" d="M100.5 447.5L767.5 447.5" fill-rule="nonzero"/><path stroke="#cccccc" stroke-width="1.0" stroke-linecap="butt" d="M100.5 294.5L767.5 294.5" fill-rule="nonzero"/><path stroke="#cccccc" stroke-width="1.0" stroke-linecap="butt" d="M100.5 141.5L767.5 141.5" fill-rule="nonzero"/><clipPath id="id_0"><path d="M100.25 141.27174L767.75 141.27174L767.75 600.75L100.25 600.75L100.25 141.27174Z" clip-rule="nonzero"/></clipPath><path stroke="#000000" stroke-width="2.0" stroke-linecap="butt" stroke-opacity="0.0" clip-path="url(#id_0)" d="M225.0 601.0L144.0 601.0L144.0 585.0L225.0 585.0Z" fill-rule="nonzero"/><path fill="#4285f4" clip-path="url(#id_0)" d="M225.0 601.0L144.0 601.0L144.0 585.0L225.0 585.0Z" fill-rule="nonzero"/><path stroke="#000000" stroke-width="2.0" stroke-linecap="butt" stroke-opacity="0.0" clip-path="url(#id_0)" d="M350.0 601.0L269.0 601.0L269.0 538.0L350.0 538.0Z" fill-rule="nonzero"/><path fill="#4285f4" clip-path="url(#id_0)" d="M350.0 601.0L269.0 601.0L269.0 538.0L350.0 538.0Z" fill-rule="nonzero"/><path stroke="#000000" stroke-width="2.0" stroke-linecap="butt" stroke-opacity="0.0" clip-path="url(#id_0)" d="M475.0 601.0L394.0 601.0L394.0 504.0L475.0 504.0Z" fill-rule="nonzero"/><path fill="#4285f4" clip-path="url(#id_0)" d="M475.0 601.0L394.0 601.0L394.0 504.0L475.0 504.0Z" fill-rule="nonzero"/><path stroke="#000000" stroke-width="2.0" stroke-linecap="butt" stroke-opacity="0.0" clip-path="url(#id_0)" d="M600.0 601.0L519.0 601.0L519.0 428.0L600.0 428.0Z" fill-rule="nonzero"/><path fill="#4285f4" clip-path="url(#id_0)" d="M600.0 601.0L519.0 601.0L519.0 428.0L600.0 428.0Z" fill-rule="nonzero"/><path stroke="#000000" stroke-width="2.0" stroke-linecap="butt" stroke-opacity="0.0" clip-path="url(#id_0)" d="M725.0 601.0L644.0 601.0L644.0 333.0L725.0 333.0Z" fill-rule="nonzero"/><path fill="#4285f4" clip-path="url(#id_0)" d="M725.0 601.0L644.0 601.0L644.0 333.0L725.0 333.0Z" fill-rule="nonzero"/><path stroke="#000000" stroke-width="2.0" stroke-linecap="butt" stroke-opacity="0.0" clip-path="url(#id_0)" d="M225.0 585.0L144.0 585.0L144.0 585.0L225.0 585.0Z" fill-rule="nonzero"/><path fill="#f39800" clip-path="url(#id_0)" d="M225.0 585.0L144.0 585.0L144.0 585.0L225.0 585.0Z" fill-rule="nonzero"/><path stroke="#000000" stroke-width="2.0" stroke-linecap="butt" stroke-opacity="0.0" clip-path="url(#id_0)" d="M350.0 538.0L269.0 538.0L269.0 538.0L350.0 538.0Z" fill-rule="nonzero"/><path fill="#f39800" clip-path="url(#id_0)" d="M350.0 538.0L269.0 538.0L269.0 538.0L350.0 538.0Z" fill-rule="nonzero"/><path stroke="#000000" stroke-width="2.0" stroke-linecap="butt" stroke-opacity="0.0" clip-path="url(#id_0)" d="M475.0 504.0L394.0 504.0L394.0 499.0C394.0 497.89542 394.89542 497.0 396.0 497.0L473.0 497.0C474.10458 497.0 475.0 497.89542 475.0 499.0Z" fill-rule="nonzero"/><path fill="#f39800" clip-path="url(#id_0)" d="M475.0 504.0L394.0 504.0L394.0 499.0C394.0 497.89542 394.89542 497.0 396.0 497.0L473.0 497.0C474.10458 497.0 475.0 497.89542 475.0 499.0Z" fill-rule="nonzero"/><path stroke="#000000" stroke-width="2.0" stroke-linecap="butt" stroke-opacity="0.0" clip-path="url(#id_0)" d="M600.0 428.0L519.0 428.0L519.0 341.0C519.0 339.89542 519.89545 339.0 521.0 339.0L598.0 339.0C599.10455 339.0 600.0 339.89542 600.0 341.0Z" fill-rule="nonzero"/><path fill="#f39800" clip-path="url(#id_0)" d="M600.0 428.0L519.0 428.0L519.0 341.0C519.0 339.89542 519.89545 339.0 521.0 339.0L598.0 339.0C599.10455 339.0 600.0 339.89542 600.0 341.0Z" fill-rule="nonzero"/><path stroke="#000000" stroke-width="2.0" stroke-linecap="butt" stroke-opacity="0.0" clip-path="url(#id_0)" d="M725.0 333.0L644.0 333.0L644.0 194.0C644.0 192.89543 644.89545 192.0 646.0 192.0L723.0 192.0C724.10455 192.0 725.0 192.89543 725.0 194.0Z" fill-rule="nonzero"/><path fill="#f39800" clip-path="url(#id_0)" d="M725.0 333.0L644.0 333.0L644.0 194.0C644.0 192.89543 644.89545 192.0 646.0 192.0L723.0 192.0C724.10455 192.0 725.0 192.89543 725.0 194.0Z" fill-rule="nonzero"/><path stroke="#ffffff" stroke-width="3.0" stroke-linejoin="round" stroke-linecap="round" d="M178.17188 541.4341L173.23438 541.4341L173.23438 522.8247Q170.51562 525.35596 166.84375 526.5591L166.84375 522.0747Q168.78125 521.4497 171.04688 519.6841Q173.3125 517.91846 174.15625 515.5591L178.17188 515.5591L178.17188 541.4341ZM193.875 515.5591Q197.625 515.5591 199.73438 518.23096Q202.25 521.3872 202.25 528.73096Q202.25 536.04346 199.71875 539.23096Q197.625 541.8716 193.875 541.8716Q190.125 541.8716 187.8125 538.98096Q185.51562 536.09033 185.51562 528.66846Q185.51562 521.3872 188.04688 518.1997Q190.14062 515.5591 193.875 515.5591ZM193.875 519.65283Q192.98438 519.65283 192.28125 520.23096Q191.57812 520.79346 191.1875 522.27783Q190.6875 524.1841 190.6875 528.73096Q190.6875 533.2622 191.14062 534.96533Q191.59375 536.65283 192.28125 537.21533Q192.98438 537.77783 193.875 537.77783Q194.78125 537.77783 195.48438 537.21533Q196.1875 536.6372 196.5625 535.15283Q197.07812 533.2622 197.07812 528.73096Q197.07812 524.1841 196.625 522.4966Q196.17188 520.79346 195.46875 520.23096Q194.78125 519.65283 193.875 519.65283Z" fill-rule="nonzero"/><path fill="#4285f4" d="M178.17188 541.4341L173.23438 541.4341L173.23438 522.8247Q170.51562 525.35596 166.84375 526.5591L166.84375 522.0747Q168.78125 521.4497 171.04688 519.6841Q173.3125 517.91846 174.15625 515.5591L178.17188 515.5591L178.17188 541.4341ZM193.875 515.5591Q197.625 515.5591 199.73438 518.23096Q202.25 521.3872 202.25 528.73096Q202.25 536.04346 199.71875 539.23096Q197.625 541.8716 193.875 541.8716Q190.125 541.8716 187.8125 538.98096Q185.51562 536.09033 185.51562 528.66846Q185.51562 521.3872 188.04688 518.1997Q190.14062 515.5591 193.875 515.5591ZM193.875 519.65283Q192.98438 519.65283 192.28125 520.23096Q191.57812 520.79346 191.1875 522.27783Q190.6875 524.1841 190.6875 528.73096Q190.6875 533.2622 191.14062 534.96533Q191.59375 536.65283 192.28125 537.21533Q192.98438 537.77783 193.875 537.77783Q194.78125 537.77783 195.48438 537.21533Q196.1875 536.6372 196.5625 535.15283Q197.07812 533.2622 197.07812 528.73096Q197.07812 524.1841 196.625 522.4966Q196.17188 520.79346 195.46875 520.23096Q194.78125 519.65283 193.875 519.65283Z" fill-rule="nonzero"/><path stroke="#ffffff" stroke-width="3.0" stroke-linejoin="round" stroke-linecap="round" d="M300.21875 493.95465L300.21875 488.76715L289.67188 488.76715L289.67188 484.43903L300.84375 468.07965L305.0 468.07965L305.0 484.4234L308.20312 484.4234L308.20312 488.76715L305.0 488.76715L305.0 493.95465L300.21875 493.95465ZM300.21875 484.4234L300.21875 475.62653L294.29688 484.4234L300.21875 484.4234ZM323.17188 493.95465L318.23438 493.95465L318.23438 475.34528Q315.51562 477.87653 311.84375 479.07965L311.84375 474.59528Q313.78125 473.97028 316.04688 472.20465Q318.3125 470.43903 319.15625 468.07965L323.17188 468.07965L323.17188 493.95465Z" fill-rule="nonzero"/><path fill="#4285f4" d="M300.21875 493.95465L300.21875 488.76715L289.67188 488.76715L289.67188 484.43903L300.84375 468.07965L305.0 468.07965L305.0 484.4234L308.20312 484.4234L308.20312 488.76715L305.0 488.76715L305.0 493.95465L300.21875 493.95465ZM300.21875 484.4234L300.21875 475.62653L294.29688 484.4234L300.21875 484.4234ZM323.17188 493.95465L318.23438 493.95465L318.23438 475.34528Q315.51562 477.87653 311.84375 479.07965L311.84375 474.59528Q313.78125 473.97028 316.04688 472.20465Q318.3125 470.43903 319.15625 468.07965L323.17188 468.07965L323.17188 493.95465Z" fill-rule="nonzero"/><path stroke="#ffffff" stroke-width="3.0" stroke-linejoin="round" stroke-linecap="round" d="M673.3462 170.88863L673.3462 175.48238L656.01807 175.48238Q656.2993 172.873 657.70557 170.54488Q659.1118 168.21675 663.26807 164.373Q666.6118 161.26363 667.3618 160.15425Q668.37744 158.623 668.37744 157.123Q668.37744 155.48238 667.4868 154.59175Q666.6118 153.70113 665.0493 153.70113Q663.50244 153.70113 662.58057 154.63863Q661.6743 155.5605 661.5337 157.73238L656.6118 157.23238Q657.0493 153.15425 659.3618 151.38863Q661.68994 149.60738 665.1587 149.60738Q668.9868 149.60738 671.1587 151.66988Q673.3462 153.71675 673.3462 156.77925Q673.3462 158.51363 672.7212 160.09175Q672.0962 161.66988 670.7368 163.38863Q669.8462 164.52925 667.50244 166.6855Q665.1587 168.82613 664.5337 169.52925Q663.9243 170.23238 663.5337 170.88863L673.3462 170.88863ZM693.39307 156.02925L688.6118 156.54488Q688.43994 155.07613 687.68994 154.373Q686.95557 153.66988 685.7837 153.66988Q684.2212 153.66988 683.12744 155.07613Q682.0493 156.48238 681.76807 160.91988Q683.6118 158.748 686.3618 158.748Q689.45557 158.748 691.6587 161.10738Q693.8618 163.45113 693.8618 167.1855Q693.8618 171.13863 691.5337 173.52925Q689.2212 175.91988 685.58057 175.91988Q681.68994 175.91988 679.1743 172.88863Q676.6587 169.85738 676.6587 162.95113Q676.6587 155.85738 679.26807 152.73238Q681.89307 149.60738 686.08057 149.60738Q689.01807 149.60738 690.93994 151.248Q692.8618 152.88863 693.39307 156.02925ZM682.18994 166.79488Q682.18994 169.20113 683.2993 170.51363Q684.4087 171.82613 685.83057 171.82613Q687.20557 171.82613 688.1118 170.76363Q689.0337 169.6855 689.0337 167.23238Q689.0337 164.71675 688.0493 163.5605Q687.06494 162.38863 685.58057 162.38863Q684.1587 162.38863 683.1743 163.51363Q682.18994 164.623 682.18994 166.79488ZM696.6587 154.65425L696.6587 150.0605L713.5493 150.0605L713.5493 153.65425Q711.45557 155.70113 709.2837 159.5605Q707.12744 163.40425 705.9868 167.748Q704.8618 172.07613 704.87744 175.48238L700.12744 175.48238Q700.2368 170.13863 702.31494 164.59175Q704.4087 159.02925 707.89307 154.65425L696.6587 154.65425Z" fill-rule="nonzero"/><path fill="#4285f4" d="M673.3462 170.88863L673.3462 175.48238L656.01807 175.48238Q656.2993 172.873 657.70557 170.54488Q659.1118 168.21675 663.26807 164.373Q666.6118 161.26363 667.3618 160.15425Q668.37744 158.623 668.37744 157.123Q668.37744 155.48238 667.4868 154.59175Q666.6118 153.70113 665.0493 153.70113Q663.50244 153.70113 662.58057 154.63863Q661.6743 155.5605 661.5337 157.73238L656.6118 157.23238Q657.0493 153.15425 659.3618 151.38863Q661.68994 149.60738 665.1587 149.60738Q668.9868 149.60738 671.1587 151.66988Q673.3462 153.71675 673.3462 156.77925Q673.3462 158.51363 672.7212 160.09175Q672.0962 161.66988 670.7368 163.38863Q669.8462 164.52925 667.50244 166.6855Q665.1587 168.82613 664.5337 169.52925Q663.9243 170.23238 663.5337 170.88863L673.3462 170.88863ZM693.39307 156.02925L688.6118 156.54488Q688.43994 155.07613 687.68994 154.373Q686.95557 153.66988 685.7837 153.66988Q684.2212 153.66988 683.12744 155.07613Q682.0493 156.48238 681.76807 160.91988Q683.6118 158.748 686.3618 158.748Q689.45557 158.748 691.6587 161.10738Q693.8618 163.45113 693.8618 167.1855Q693.8618 171.13863 691.5337 173.52925Q689.2212 175.91988 685.58057 175.91988Q681.68994 175.91988 679.1743 172.88863Q676.6587 169.85738 676.6587 162.95113Q676.6587 155.85738 679.26807 152.73238Q681.89307 149.60738 686.08057 149.60738Q689.01807 149.60738 690.93994 151.248Q692.8618 152.88863 693.39307 156.02925ZM682.18994 166.79488Q682.18994 169.20113 683.2993 170.51363Q684.4087 171.82613 685.83057 171.82613Q687.20557 171.82613 688.1118 170.76363Q689.0337 169.6855 689.0337 167.23238Q689.0337 164.71675 688.0493 163.5605Q687.06494 162.38863 685.58057 162.38863Q684.1587 162.38863 683.1743 163.51363Q682.18994 164.623 682.18994 166.79488ZM696.6587 154.65425L696.6587 150.0605L713.5493 150.0605L713.5493 153.65425Q711.45557 155.70113 709.2837 159.5605Q707.12744 163.40425 705.9868 167.748Q704.8618 172.07613 704.87744 175.48238L700.12744 175.48238Q700.2368 170.13863 702.31494 164.59175Q704.4087 159.02925 707.89307 154.65425L696.6587 154.65425Z" fill-rule="nonzero"/><path stroke="#ffffff" stroke-width="3.0" stroke-linejoin="round" stroke-linecap="round" d="M432.26562 433.14847L427.48438 433.6641Q427.3125 432.19534 426.5625 431.49222Q425.82812 430.7891 424.65625 430.7891Q423.09375 430.7891 422.0 432.19534Q420.92188 433.6016 420.64062 438.0391Q422.48438 435.86722 425.23438 435.86722Q428.32812 435.86722 430.53125 438.2266Q432.73438 440.57034 432.73438 444.30472Q432.73438 448.25784 430.40625 450.64847Q428.09375 453.0391 424.45312 453.0391Q420.5625 453.0391 418.04688 450.00784Q415.53125 446.9766 415.53125 440.07034Q415.53125 432.9766 418.14062 429.8516Q420.76562 426.7266 424.95312 426.7266Q427.89062 426.7266 429.8125 428.36722Q431.73438 430.00784 432.26562 433.14847ZM421.0625 443.9141Q421.0625 446.32034 422.17188 447.63284Q423.28125 448.94534 424.70312 448.94534Q426.07812 448.94534 426.98438 447.88284Q427.90625 446.80472 427.90625 444.3516Q427.90625 441.83597 426.92188 440.67972Q425.9375 439.50784 424.45312 439.50784Q423.03125 439.50784 422.04688 440.63284Q421.0625 441.74222 421.0625 443.9141ZM439.76562 438.69534Q437.84375 437.88284 436.96875 436.4766Q436.10938 435.05472 436.10938 433.36722Q436.10938 430.49222 438.125 428.61722Q440.14062 426.7266 443.84375 426.7266Q447.51562 426.7266 449.54688 428.61722Q451.57812 430.49222 451.57812 433.36722Q451.57812 435.1641 450.64062 436.57034Q449.71875 437.96097 448.03125 438.69534Q450.17188 439.55472 451.28125 441.21097Q452.40625 442.86722 452.40625 445.02347Q452.40625 448.58597 450.125 450.82034Q447.85938 453.05472 444.07812 453.05472Q440.5625 453.05472 438.21875 451.21097Q435.45312 449.0391 435.45312 445.24222Q435.45312 443.14847 436.48438 441.39847Q437.53125 439.64847 439.76562 438.69534ZM440.78125 433.7266Q440.78125 435.19534 441.60938 436.02347Q442.45312 436.8516 443.84375 436.8516Q445.25 436.8516 446.09375 436.02347Q446.9375 435.17972 446.9375 433.71097Q446.9375 432.32034 446.09375 431.49222Q445.26562 430.64847 443.89062 430.64847Q442.46875 430.64847 441.625 431.49222Q440.78125 432.33597 440.78125 433.7266ZM440.32812 444.75784Q440.32812 446.80472 441.375 447.94534Q442.42188 449.08597 443.98438 449.08597Q445.51562 449.08597 446.51562 447.99222Q447.51562 446.88284 447.51562 444.82034Q447.51562 443.00784 446.5 441.9141Q445.48438 440.80472 443.92188 440.80472Q442.10938 440.80472 441.21875 442.05472Q440.32812 443.30472 440.32812 444.75784Z" fill-rule="nonzero"/><path fill="#4285f4" d="M432.26562 433.14847L427.48438 433.6641Q427.3125 432.19534 426.5625 431.49222Q425.82812 430.7891 424.65625 430.7891Q423.09375 430.7891 422.0 432.19534Q420.92188 433.6016 420.64062 438.0391Q422.48438 435.86722 425.23438 435.86722Q428.32812 435.86722 430.53125 438.2266Q432.73438 440.57034 432.73438 444.30472Q432.73438 448.25784 430.40625 450.64847Q428.09375 453.0391 424.45312 453.0391Q420.5625 453.0391 418.04688 450.00784Q415.53125 446.9766 415.53125 440.07034Q415.53125 432.9766 418.14062 429.8516Q420.76562 426.7266 424.95312 426.7266Q427.89062 426.7266 429.8125 428.36722Q431.73438 430.00784 432.26562 433.14847ZM421.0625 443.9141Q421.0625 446.32034 422.17188 447.63284Q423.28125 448.94534 424.70312 448.94534Q426.07812 448.94534 426.98438 447.88284Q427.90625 446.80472 427.90625 444.3516Q427.90625 441.83597 426.92188 440.67972Q425.9375 439.50784 424.45312 439.50784Q423.03125 439.50784 422.04688 440.63284Q421.0625 441.74222 421.0625 443.9141ZM439.76562 438.69534Q437.84375 437.88284 436.96875 436.4766Q436.10938 435.05472 436.10938 433.36722Q436.10938 430.49222 438.125 428.61722Q440.14062 426.7266 443.84375 426.7266Q447.51562 426.7266 449.54688 428.61722Q451.57812 430.49222 451.57812 433.36722Q451.57812 435.1641 450.64062 436.57034Q449.71875 437.96097 448.03125 438.69534Q450.17188 439.55472 451.28125 441.21097Q452.40625 442.86722 452.40625 445.02347Q452.40625 448.58597 450.125 450.82034Q447.85938 453.05472 444.07812 453.05472Q440.5625 453.05472 438.21875 451.21097Q435.45312 449.0391 435.45312 445.24222Q435.45312 443.14847 436.48438 441.39847Q437.53125 439.64847 439.76562 438.69534ZM440.78125 433.7266Q440.78125 435.19534 441.60938 436.02347Q442.45312 436.8516 443.84375 436.8516Q445.25 436.8516 446.09375 436.02347Q446.9375 435.17972 446.9375 433.71097Q446.9375 432.32034 446.09375 431.49222Q445.26562 430.64847 443.89062 430.64847Q442.46875 430.64847 441.625 431.49222Q440.78125 432.33597 440.78125 433.7266ZM440.32812 444.75784Q440.32812 446.80472 441.375 447.94534Q442.42188 449.08597 443.98438 449.08597Q445.51562 449.08597 446.51562 447.99222Q447.51562 446.88284 447.51562 444.82034Q447.51562 443.00784 446.5 441.9141Q445.48438 440.80472 443.92188 440.80472Q442.10938 440.80472 441.21875 442.05472Q440.32812 443.30472 440.32812 444.75784Z" fill-rule="nonzero"/><path stroke="#ffffff" stroke-width="3.0" stroke-linejoin="round" stroke-linecap="round" d="M543.1719 294.84738L538.2344 294.84738L538.2344 276.238Q535.5156 278.76926 531.84375 279.97238L531.84375 275.488Q533.78125 274.863 536.0469 273.09738Q538.3125 271.33176 539.15625 268.97238L543.1719 268.97238L543.1719 294.84738ZM550.53125 274.01926L550.53125 269.4255L567.4219 269.4255L567.4219 273.01926Q565.3281 275.06613 563.15625 278.9255Q561.0 282.76926 559.8594 287.113Q558.7344 291.44113 558.75 294.84738L554.0 294.84738Q554.1094 289.50363 556.1875 283.95676Q558.28125 278.39426 561.7656 274.01926L550.53125 274.01926ZM583.1719 294.84738L578.2344 294.84738L578.2344 276.238Q575.5156 278.76926 571.84375 279.97238L571.84375 275.488Q573.78125 274.863 576.0469 273.09738Q578.3125 271.33176 579.15625 268.97238L583.1719 268.97238L583.1719 294.84738Z" fill-rule="nonzero"/><path fill="#4285f4" d="M543.1719 294.84738L538.2344 294.84738L538.2344 276.238Q535.5156 278.76926 531.84375 279.97238L531.84375 275.488Q533.78125 274.863 536.0469 273.09738Q538.3125 271.33176 539.15625 268.97238L543.1719 268.97238L543.1719 294.84738ZM550.53125 274.01926L550.53125 269.4255L567.4219 269.4255L567.4219 273.01926Q565.3281 275.06613 563.15625 278.9255Q561.0 282.76926 559.8594 287.113Q558.7344 291.44113 558.75 294.84738L554.0 294.84738Q554.1094 289.50363 556.1875 283.95676Q558.28125 278.39426 561.7656 274.01926L550.53125 274.01926ZM583.1719 294.84738L578.2344 294.84738L578.2344 276.238Q575.5156 278.76926 571.84375 279.97238L571.84375 275.488Q573.78125 274.863 576.0469 273.09738Q578.3125 271.33176 579.15625 268.97238L583.1719 268.97238L583.1719 294.84738Z" fill-rule="nonzero"/><path fill="#000000" d="M76.484375 589.6875Q79.609375 589.6875 81.359375 591.90625Q83.453125 594.5469 83.453125 600.65625Q83.453125 606.75 81.34375 609.4219Q79.609375 611.6094 76.484375 611.6094Q73.34375 611.6094 71.421875 609.2031Q69.515625 606.7969 69.515625 600.6094Q69.515625 594.5469 71.625 591.8906Q73.359375 589.6875 76.484375 589.6875ZM76.484375 593.09375Q75.734375 593.09375 75.140625 593.5781Q74.5625 594.0469 74.234375 595.28125Q73.8125 596.875 73.8125 600.65625Q73.8125 604.4375 74.1875 605.8594Q74.578125 607.2656 75.15625 607.7344Q75.734375 608.2031 76.484375 608.2031Q77.234375 608.2031 77.8125 607.7344Q78.40625 607.25 78.71875 606.0156Q79.15625 604.4375 79.15625 600.65625Q79.15625 596.875 78.765625 595.46875Q78.390625 594.0469 77.8125 593.5781Q77.234375 593.09375 76.484375 593.09375Z" fill-rule="nonzero"/><path fill="#000000" d="M46.0625 458.09058L41.9375 458.09058L41.9375 442.57495Q39.6875 444.68433 36.625 445.69995L36.625 441.96558Q38.234375 441.43433 40.125 439.96558Q42.015625 438.49683 42.71875 436.52808L46.0625 436.52808L46.0625 458.09058ZM59.484375 436.52808Q62.609375 436.52808 64.359375 438.74683Q66.453125 441.38745 66.453125 447.49683Q66.453125 453.59058 64.34375 456.26245Q62.609375 458.44995 59.484375 458.44995Q56.34375 458.44995 54.421875 456.0437Q52.515625 453.63745 52.515625 447.44995Q52.515625 441.38745 54.625 438.7312Q56.359375 436.52808 59.484375 436.52808ZM59.484375 439.93433Q58.734375 439.93433 58.140625 440.4187Q57.5625 440.88745 57.234375 442.12183Q56.8125 443.71558 56.8125 447.49683Q56.8125 451.27808 57.1875 452.69995Q57.578125 454.1062 58.15625 454.57495Q58.734375 455.0437 59.484375 455.0437Q60.234375 455.0437 60.8125 454.57495Q61.40625 454.09058 61.71875 452.8562Q62.15625 451.27808 62.15625 447.49683Q62.15625 443.71558 61.765625 442.30933Q61.390625 440.88745 60.8125 440.4187Q60.234375 439.93433 59.484375 439.93433ZM76.484375 436.52808Q79.609375 436.52808 81.359375 438.74683Q83.453125 441.38745 83.453125 447.49683Q83.453125 453.59058 81.34375 456.26245Q79.609375 458.44995 76.484375 458.44995Q73.34375 458.44995 71.421875 456.0437Q69.515625 453.63745 69.515625 447.44995Q69.515625 441.38745 71.625 438.7312Q73.359375 436.52808 76.484375 436.52808ZM76.484375 439.93433Q75.734375 439.93433 75.140625 440.4187Q74.5625 440.88745 74.234375 442.12183Q73.8125 443.71558 73.8125 447.49683Q73.8125 451.27808 74.1875 452.69995Q74.578125 454.1062 75.15625 454.57495Q75.734375 455.0437 76.484375 455.0437Q77.234375 455.0437 77.8125 454.57495Q78.40625 454.09058 78.71875 452.8562Q79.15625 451.27808 79.15625 447.49683Q79.15625 443.71558 78.765625 442.30933Q78.390625 440.88745 77.8125 440.4187Q77.234375 439.93433 76.484375 439.93433Z" fill-rule="nonzero"/><path fill="#000000" d="M49.421875 301.10303L49.421875 304.93115L35.0 304.93115Q35.234375 302.75928 36.40625 300.82178Q37.578125 298.88428 41.03125 295.66553Q43.8125 293.0874 44.453125 292.1499Q45.296875 290.88428 45.296875 289.63428Q45.296875 288.25928 44.546875 287.5249Q43.8125 286.7749 42.515625 286.7749Q41.21875 286.7749 40.453125 287.55615Q39.703125 288.3374 39.578125 290.13428L35.484375 289.72803Q35.84375 286.32178 37.78125 284.85303Q39.71875 283.36865 42.609375 283.36865Q45.796875 283.36865 47.609375 285.0874Q49.421875 286.79053 49.421875 289.3374Q49.421875 290.79053 48.90625 292.10303Q48.390625 293.41553 47.265625 294.85303Q46.515625 295.80615 44.5625 297.60303Q42.609375 299.38428 42.09375 299.97803Q41.578125 300.55615 41.25 301.10303L49.421875 301.10303ZM59.484375 283.36865Q62.609375 283.36865 64.359375 285.5874Q66.453125 288.22803 66.453125 294.3374Q66.453125 300.43115 64.34375 303.10303Q62.609375 305.29053 59.484375 305.29053Q56.34375 305.29053 54.421875 302.88428Q52.515625 300.47803 52.515625 294.29053Q52.515625 288.22803 54.625 285.57178Q56.359375 283.36865 59.484375 283.36865ZM59.484375 286.7749Q58.734375 286.7749 58.140625 287.25928Q57.5625 287.72803 57.234375 288.9624Q56.8125 290.55615 56.8125 294.3374Q56.8125 298.11865 57.1875 299.54053Q57.578125 300.94678 58.15625 301.41553Q58.734375 301.88428 59.484375 301.88428Q60.234375 301.88428 60.8125 301.41553Q61.40625 300.93115 61.71875 299.69678Q62.15625 298.11865 62.15625 294.3374Q62.15625 290.55615 61.765625 289.1499Q61.390625 287.72803 60.8125 287.25928Q60.234375 286.7749 59.484375 286.7749ZM76.484375 283.36865Q79.609375 283.36865 81.359375 285.5874Q83.453125 288.22803 83.453125 294.3374Q83.453125 300.43115 81.34375 303.10303Q79.609375 305.29053 76.484375 305.29053Q73.34375 305.29053 71.421875 302.88428Q69.515625 300.47803 69.515625 294.29053Q69.515625 288.22803 71.625 285.57178Q73.359375 283.36865 76.484375 283.36865ZM76.484375 286.7749Q75.734375 286.7749 75.140625 287.25928Q74.5625 287.72803 74.234375 288.9624Q73.8125 290.55615 73.8125 294.3374Q73.8125 298.11865 74.1875 299.54053Q74.578125 300.94678 75.15625 301.41553Q75.734375 301.88428 76.484375 301.88428Q77.234375 301.88428 77.8125 301.41553Q78.40625 300.93115 78.71875 299.69678Q79.15625 298.11865 79.15625 294.3374Q79.15625 290.55615 78.765625 289.1499Q78.390625 287.72803 77.8125 287.25928Q77.234375 286.7749 76.484375 286.7749Z" fill-rule="nonzero"/><path fill="#000000" d="M35.375 146.06862L39.359375 145.58424Q39.546875 147.1155 40.375 147.928Q41.21875 148.72487 42.40625 148.72487Q43.6875 148.72487 44.546875 147.75612Q45.421875 146.78737 45.421875 145.14674Q45.421875 143.59987 44.578125 142.69362Q43.75 141.78737 42.5625 141.78737Q41.765625 141.78737 40.671875 142.08424L41.125 138.7405Q42.796875 138.77174 43.671875 138.00612Q44.546875 137.2405 44.546875 135.95924Q44.546875 134.88112 43.90625 134.2405Q43.265625 133.59987 42.1875 133.59987Q41.140625 133.59987 40.390625 134.33424Q39.640625 135.053 39.484375 136.45924L35.6875 135.81862Q36.078125 133.8655 36.875 132.70924Q37.671875 131.53737 39.09375 130.88112Q40.53125 130.20924 42.3125 130.20924Q45.34375 130.20924 47.171875 132.14674Q48.671875 133.72487 48.671875 135.70924Q48.671875 138.53737 45.59375 140.22487Q47.4375 140.63112 48.53125 142.00612Q49.640625 143.38112 49.640625 145.31862Q49.640625 148.14674 47.578125 150.14674Q45.515625 152.13112 42.4375 152.13112Q39.53125 152.13112 37.609375 150.45924Q35.6875 148.78737 35.375 146.06862ZM59.484375 130.20924Q62.609375 130.20924 64.359375 132.428Q66.453125 135.06862 66.453125 141.178Q66.453125 147.27174 64.34375 149.94362Q62.609375 152.13112 59.484375 152.13112Q56.34375 152.13112 54.421875 149.72487Q52.515625 147.31862 52.515625 141.13112Q52.515625 135.06862 54.625 132.41237Q56.359375 130.20924 59.484375 130.20924ZM59.484375 133.6155Q58.734375 133.6155 58.140625 134.09987Q57.5625 134.56862 57.234375 135.803Q56.8125 137.39674 56.8125 141.178Q56.8125 144.95924 57.1875 146.38112Q57.578125 147.78737 58.15625 148.25612Q58.734375 148.72487 59.484375 148.72487Q60.234375 148.72487 60.8125 148.25612Q61.40625 147.77174 61.71875 146.53737Q62.15625 144.95924 62.15625 141.178Q62.15625 137.39674 61.765625 135.9905Q61.390625 134.56862 60.8125 134.09987Q60.234375 133.6155 59.484375 133.6155ZM76.484375 130.20924Q79.609375 130.20924 81.359375 132.428Q83.453125 135.06862 83.453125 141.178Q83.453125 147.27174 81.34375 149.94362Q79.609375 152.13112 76.484375 152.13112Q73.34375 152.13112 71.421875 149.72487Q69.515625 147.31862 69.515625 141.13112Q69.515625 135.06862 71.625 132.41237Q73.359375 130.20924 76.484375 130.20924ZM76.484375 133.6155Q75.734375 133.6155 75.140625 134.09987Q74.5625 134.56862 74.234375 135.803Q73.8125 137.39674 73.8125 141.178Q73.8125 144.95924 74.1875 146.38112Q74.578125 147.78737 75.15625 148.25612Q75.734375 148.72487 76.484375 148.72487Q77.234375 148.72487 77.8125 148.25612Q78.40625 147.77174 78.71875 146.53737Q79.15625 144.95924 79.15625 141.178Q79.15625 137.39674 78.765625 135.9905Q78.390625 134.56862 77.8125 134.09987Q77.234375 133.6155 76.484375 133.6155Z" fill-rule="nonzero"/><path fill="#000000" d="M150.13916 639.9219L150.13916 643.75L135.71729 643.75Q135.95166 641.5781 137.12354 639.6406Q138.29541 637.7031 141.74854 634.4844Q144.52979 631.90625 145.17041 630.96875Q146.01416 629.7031 146.01416 628.4531Q146.01416 627.0781 145.26416 626.34375Q144.52979 625.59375 143.23291 625.59375Q141.93604 625.59375 141.17041 626.375Q140.42041 627.15625 140.29541 628.9531L136.20166 628.5469Q136.56104 625.1406 138.49854 623.6719Q140.43604 622.1875 143.32666 622.1875Q146.51416 622.1875 148.32666 623.90625Q150.13916 625.6094 150.13916 628.15625Q150.13916 629.6094 149.62354 630.9219Q149.10791 632.2344 147.98291 633.6719Q147.23291 634.625 145.27979 636.4219Q143.32666 638.2031 142.81104 638.7969Q142.29541 639.375 141.96729 639.9219L150.13916 639.9219ZM160.20166 622.1875Q163.32666 622.1875 165.07666 624.40625Q167.17041 627.0469 167.17041 633.15625Q167.17041 639.25 165.06104 641.9219Q163.32666 644.1094 160.20166 644.1094Q157.06104 644.1094 155.13916 641.7031Q153.23291 639.2969 153.23291 633.1094Q153.23291 627.0469 155.34229 624.3906Q157.07666 622.1875 160.20166 622.1875ZM160.20166 625.59375Q159.45166 625.59375 158.85791 626.0781Q158.27979 626.5469 157.95166 627.78125Q157.52979 629.375 157.52979 633.15625Q157.52979 636.9375 157.90479 638.3594Q158.29541 639.7656 158.87354 640.2344Q159.45166 640.7031 160.20166 640.7031Q160.95166 640.7031 161.52979 640.2344Q162.12354 639.75 162.43604 638.5156Q162.87354 636.9375 162.87354 633.15625Q162.87354 629.375 162.48291 627.96875Q162.10791 626.5469 161.52979 626.0781Q160.95166 625.59375 160.20166 625.59375ZM180.77979 643.75L176.65479 643.75L176.65479 628.2344Q174.40479 630.34375 171.34229 631.3594L171.34229 627.625Q172.95166 627.09375 174.84229 625.625Q176.73291 624.15625 177.43604 622.1875L180.77979 622.1875L180.77979 643.75ZM187.32666 638.78125L191.31104 638.34375Q191.46729 639.5625 192.07666 640.15625Q192.68604 640.7344 193.70166 640.7344Q194.98291 640.7344 195.87354 639.5625Q196.76416 638.3906 197.01416 634.7031Q195.46729 636.5 193.12354 636.5Q190.59229 636.5 188.74854 634.5469Q186.92041 632.59375 186.92041 629.4531Q186.92041 626.1875 188.85791 624.1875Q190.79541 622.1875 193.81104 622.1875Q197.07666 622.1875 199.17041 624.71875Q201.26416 627.2344 201.26416 633.03125Q201.26416 638.9219 199.07666 641.53125Q196.88916 644.125 193.38916 644.125Q190.87354 644.125 189.31104 642.7969Q187.76416 641.4531 187.32666 638.78125ZM196.63916 629.7969Q196.63916 627.7969 195.71729 626.7031Q194.81104 625.59375 193.60791 625.59375Q192.46729 625.59375 191.71729 626.5Q190.96729 627.40625 190.96729 629.4531Q190.96729 631.53125 191.77979 632.5156Q192.60791 633.4844 193.82666 633.4844Q195.01416 633.4844 195.82666 632.5469Q196.63916 631.6094 196.63916 629.7969Z" fill-rule="nonzero"/><path fill="#000000" d="M213.32666 625.46875Q211.23291 629.125 207.35791 632.15625L204.93604 629.0469Q210.07666 625.28125 211.95166 618.21875L215.40479 619.125Q216.87354 620.6094 215.17041 620.84375L214.71729 621.9844L230.93604 621.9844L230.93604 625.46875L222.38916 625.46875L222.38916 628.2031L229.42041 628.2031L229.42041 631.6719L222.38916 631.6719L222.38916 635.7031L232.23291 635.7031L232.23291 639.1719L222.38916 639.1719L222.38916 646.21875L218.79541 646.21875L218.79541 639.1719L205.31104 639.1719L205.31104 635.7031L210.59229 635.7031L210.59229 628.2031L218.79541 628.2031L218.79541 625.46875L213.32666 625.46875ZM214.18604 635.7031L218.79541 635.7031L218.79541 631.6719L214.18604 631.6719L214.18604 635.7031Z" fill-rule="nonzero"/><path fill="#000000" d="M274.90552 639.9219L274.90552 643.75L260.48364 643.75Q260.71802 641.5781 261.8899 639.6406Q263.06177 637.7031 266.5149 634.4844Q269.29614 631.90625 269.93677 630.96875Q270.78052 629.7031 270.78052 628.4531Q270.78052 627.0781 270.03052 626.34375Q269.29614 625.59375 267.99927 625.59375Q266.7024 625.59375 265.93677 626.375Q265.18677 627.15625 265.06177 628.9531L260.96802 628.5469Q261.3274 625.1406 263.2649 623.6719Q265.2024 622.1875 268.09302 622.1875Q271.28052 622.1875 273.09302 623.90625Q274.90552 625.6094 274.90552 628.15625Q274.90552 629.6094 274.3899 630.9219Q273.87427 632.2344 272.74927 633.6719Q271.99927 634.625 270.04614 636.4219Q268.09302 638.2031 267.5774 638.7969Q267.06177 639.375 266.73364 639.9219L274.90552 639.9219ZM284.96802 622.1875Q288.09302 622.1875 289.84302 624.40625Q291.93677 627.0469 291.93677 633.15625Q291.93677 639.25 289.8274 641.9219Q288.09302 644.1094 284.96802 644.1094Q281.8274 644.1094 279.90552 641.7031Q277.99927 639.2969 277.99927 633.1094Q277.99927 627.0469 280.10864 624.3906Q281.84302 622.1875 284.96802 622.1875ZM284.96802 625.59375Q284.21802 625.59375 283.62427 626.0781Q283.04614 626.5469 282.71802 627.78125Q282.29614 629.375 282.29614 633.15625Q282.29614 636.9375 282.67114 638.3594Q283.06177 639.7656 283.6399 640.2344Q284.21802 640.7031 284.96802 640.7031Q285.71802 640.7031 286.29614 640.2344Q286.8899 639.75 287.2024 638.5156Q287.6399 636.9375 287.6399 633.15625Q287.6399 629.375 287.24927 627.96875Q286.87427 626.5469 286.29614 626.0781Q285.71802 625.59375 284.96802 625.59375ZM308.90552 639.9219L308.90552 643.75L294.48364 643.75Q294.71802 641.5781 295.8899 639.6406Q297.06177 637.7031 300.5149 634.4844Q303.29614 631.90625 303.93677 630.96875Q304.78052 629.7031 304.78052 628.4531Q304.78052 627.0781 304.03052 626.34375Q303.29614 625.59375 301.99927 625.59375Q300.7024 625.59375 299.93677 626.375Q299.18677 627.15625 299.06177 628.9531L294.96802 628.5469Q295.3274 625.1406 297.2649 623.6719Q299.2024 622.1875 302.09302 622.1875Q305.28052 622.1875 307.09302 623.90625Q308.90552 625.6094 308.90552 628.15625Q308.90552 629.6094 308.3899 630.9219Q307.87427 632.2344 306.74927 633.6719Q305.99927 634.625 304.04614 636.4219Q302.09302 638.2031 301.5774 638.7969Q301.06177 639.375 300.73364 639.9219L308.90552 639.9219ZM318.96802 622.1875Q322.09302 622.1875 323.84302 624.40625Q325.93677 627.0469 325.93677 633.15625Q325.93677 639.25 323.8274 641.9219Q322.09302 644.1094 318.96802 644.1094Q315.8274 644.1094 313.90552 641.7031Q311.99927 639.2969 311.99927 633.1094Q311.99927 627.0469 314.10864 624.3906Q315.84302 622.1875 318.96802 622.1875ZM318.96802 625.59375Q318.21802 625.59375 317.62427 626.0781Q317.04614 626.5469 316.71802 627.78125Q316.29614 629.375 316.29614 633.15625Q316.29614 636.9375 316.67114 638.3594Q317.06177 639.7656 317.6399 640.2344Q318.21802 640.7031 318.96802 640.7031Q319.71802 640.7031 320.29614 640.2344Q320.8899 639.75 321.2024 638.5156Q321.6399 636.9375 321.6399 633.15625Q321.6399 629.375 321.24927 627.96875Q320.87427 626.5469 320.29614 626.0781Q319.71802 625.59375 318.96802 625.59375Z" fill-rule="nonzero"/><path fill="#000000" d="M338.09302 625.46875Q335.99927 629.125 332.12427 632.15625L329.7024 629.0469Q334.84302 625.28125 336.71802 618.21875L340.17114 619.125Q341.6399 620.6094 339.93677 620.84375L339.48364 621.9844L355.7024 621.9844L355.7024 625.46875L347.15552 625.46875L347.15552 628.2031L354.18677 628.2031L354.18677 631.6719L347.15552 631.6719L347.15552 635.7031L356.99927 635.7031L356.99927 639.1719L347.15552 639.1719L347.15552 646.21875L343.56177 646.21875L343.56177 639.1719L330.0774 639.1719L330.0774 635.7031L335.35864 635.7031L335.35864 628.2031L343.56177 628.2031L343.56177 625.46875L338.09302 625.46875ZM338.9524 635.7031L343.56177 635.7031L343.56177 631.6719L338.9524 631.6719L338.9524 635.7031Z" fill-rule="nonzero"/><path fill="#000000" d="M399.67188 639.9219L399.67188 643.75L385.25 643.75Q385.48438 641.5781 386.65625 639.6406Q387.82812 637.7031 391.28125 634.4844Q394.0625 631.90625 394.70312 630.96875Q395.54688 629.7031 395.54688 628.4531Q395.54688 627.0781 394.79688 626.34375Q394.0625 625.59375 392.76562 625.59375Q391.46875 625.59375 390.70312 626.375Q389.95312 627.15625 389.82812 628.9531L385.73438 628.5469Q386.09375 625.1406 388.03125 623.6719Q389.96875 622.1875 392.85938 622.1875Q396.04688 622.1875 397.85938 623.90625Q399.67188 625.6094 399.67188 628.15625Q399.67188 629.6094 399.15625 630.9219Q398.64062 632.2344 397.51562 633.6719Q396.76562 634.625 394.8125 636.4219Q392.85938 638.2031 392.34375 638.7969Q391.82812 639.375 391.5 639.9219L399.67188 639.9219ZM409.73438 622.1875Q412.85938 622.1875 414.60938 624.40625Q416.70312 627.0469 416.70312 633.15625Q416.70312 639.25 414.59375 641.9219Q412.85938 644.1094 409.73438 644.1094Q406.59375 644.1094 404.67188 641.7031Q402.76562 639.2969 402.76562 633.1094Q402.76562 627.0469 404.875 624.3906Q406.60938 622.1875 409.73438 622.1875ZM409.73438 625.59375Q408.98438 625.59375 408.39062 626.0781Q407.8125 626.5469 407.48438 627.78125Q407.0625 629.375 407.0625 633.15625Q407.0625 636.9375 407.4375 638.3594Q407.82812 639.7656 408.40625 640.2344Q408.98438 640.7031 409.73438 640.7031Q410.48438 640.7031 411.0625 640.2344Q411.65625 639.75 411.96875 638.5156Q412.40625 636.9375 412.40625 633.15625Q412.40625 629.375 412.01562 627.96875Q411.64062 626.5469 411.0625 626.0781Q410.48438 625.59375 409.73438 625.59375ZM433.67188 639.9219L433.67188 643.75L419.25 643.75Q419.48438 641.5781 420.65625 639.6406Q421.82812 637.7031 425.28125 634.4844Q428.0625 631.90625 428.70312 630.96875Q429.54688 629.7031 429.54688 628.4531Q429.54688 627.0781 428.79688 626.34375Q428.0625 625.59375 426.76562 625.59375Q425.46875 625.59375 424.70312 626.375Q423.95312 627.15625 423.82812 628.9531L419.73438 628.5469Q420.09375 625.1406 422.03125 623.6719Q423.96875 622.1875 426.85938 622.1875Q430.04688 622.1875 431.85938 623.90625Q433.67188 625.6094 433.67188 628.15625Q433.67188 629.6094 433.15625 630.9219Q432.64062 632.2344 431.51562 633.6719Q430.76562 634.625 428.8125 636.4219Q426.85938 638.2031 426.34375 638.7969Q425.82812 639.375 425.5 639.9219L433.67188 639.9219ZM447.3125 643.75L443.1875 643.75L443.1875 628.2344Q440.9375 630.34375 437.875 631.3594L437.875 627.625Q439.48438 627.09375 441.375 625.625Q443.26562 624.15625 443.96875 622.1875L447.3125 622.1875L447.3125 643.75Z" fill-rule="nonzero"/><path fill="#000000" d="M462.85938 625.46875Q460.76562 629.125 456.89062 632.15625L454.46875 629.0469Q459.60938 625.28125 461.48438 618.21875L464.9375 619.125Q466.40625 620.6094 464.70312 620.84375L464.25 621.9844L480.46875 621.9844L480.46875 625.46875L471.92188 625.46875L471.92188 628.2031L478.95312 628.2031L478.95312 631.6719L471.92188 631.6719L471.92188 635.7031L481.76562 635.7031L481.76562 639.1719L471.92188 639.1719L471.92188 646.21875L468.32812 646.21875L468.32812 639.1719L454.84375 639.1719L454.84375 635.7031L460.125 635.7031L460.125 628.2031L468.32812 628.2031L468.32812 625.46875L462.85938 625.46875ZM463.71875 635.7031L468.32812 635.7031L468.32812 631.6719L463.71875 631.6719L463.71875 635.7031Z" fill-rule="nonzero"/><path fill="#000000" d="M524.43823 639.9219L524.43823 643.75L510.01636 643.75Q510.25073 641.5781 511.4226 639.6406Q512.5945 637.7031 516.0476 634.4844Q518.82886 631.90625 519.4695 630.96875Q520.31323 629.7031 520.31323 628.4531Q520.31323 627.0781 519.56323 626.34375Q518.82886 625.59375 517.532 625.59375Q516.2351 625.59375 515.4695 626.375Q514.7195 627.15625 514.5945 628.9531L510.50073 628.5469Q510.8601 625.1406 512.7976 623.6719Q514.7351 622.1875 517.62573 622.1875Q520.81323 622.1875 522.62573 623.90625Q524.43823 625.6094 524.43823 628.15625Q524.43823 629.6094 523.9226 630.9219Q523.407 632.2344 522.282 633.6719Q521.532 634.625 519.57886 636.4219Q517.62573 638.2031 517.1101 638.7969Q516.5945 639.375 516.26636 639.9219L524.43823 639.9219ZM534.50073 622.1875Q537.62573 622.1875 539.37573 624.40625Q541.4695 627.0469 541.4695 633.15625Q541.4695 639.25 539.3601 641.9219Q537.62573 644.1094 534.50073 644.1094Q531.3601 644.1094 529.43823 641.7031Q527.532 639.2969 527.532 633.1094Q527.532 627.0469 529.64136 624.3906Q531.37573 622.1875 534.50073 622.1875ZM534.50073 625.59375Q533.75073 625.59375 533.157 626.0781Q532.57886 626.5469 532.25073 627.78125Q531.82886 629.375 531.82886 633.15625Q531.82886 636.9375 532.20386 638.3594Q532.5945 639.7656 533.1726 640.2344Q533.75073 640.7031 534.50073 640.7031Q535.25073 640.7031 535.82886 640.2344Q536.4226 639.75 536.7351 638.5156Q537.1726 636.9375 537.1726 633.15625Q537.1726 629.375 536.782 627.96875Q536.407 626.5469 535.82886 626.0781Q535.25073 625.59375 534.50073 625.59375ZM558.43823 639.9219L558.43823 643.75L544.01636 643.75Q544.25073 641.5781 545.4226 639.6406Q546.5945 637.7031 550.0476 634.4844Q552.82886 631.90625 553.4695 630.96875Q554.31323 629.7031 554.31323 628.4531Q554.31323 627.0781 553.56323 626.34375Q552.82886 625.59375 551.532 625.59375Q550.2351 625.59375 549.4695 626.375Q548.7195 627.15625 548.5945 628.9531L544.50073 628.5469Q544.8601 625.1406 546.7976 623.6719Q548.7351 622.1875 551.62573 622.1875Q554.81323 622.1875 556.62573 623.90625Q558.43823 625.6094 558.43823 628.15625Q558.43823 629.6094 557.9226 630.9219Q557.407 632.2344 556.282 633.6719Q555.532 634.625 553.57886 636.4219Q551.62573 638.2031 551.1101 638.7969Q550.5945 639.375 550.26636 639.9219L558.43823 639.9219ZM575.43823 639.9219L575.43823 643.75L561.01636 643.75Q561.25073 641.5781 562.4226 639.6406Q563.5945 637.7031 567.0476 634.4844Q569.82886 631.90625 570.4695 630.96875Q571.31323 629.7031 571.31323 628.4531Q571.31323 627.0781 570.56323 626.34375Q569.82886 625.59375 568.532 625.59375Q567.2351 625.59375 566.4695 626.375Q565.7195 627.15625 565.5945 628.9531L561.50073 628.5469Q561.8601 625.1406 563.7976 623.6719Q565.7351 622.1875 568.62573 622.1875Q571.81323 622.1875 573.62573 623.90625Q575.43823 625.6094 575.43823 628.15625Q575.43823 629.6094 574.9226 630.9219Q574.407 632.2344 573.282 633.6719Q572.532 634.625 570.57886 636.4219Q568.62573 638.2031 568.1101 638.7969Q567.5945 639.375 567.26636 639.9219L575.43823 639.9219Z" fill-rule="nonzero"/><path fill="#000000" d="M587.62573 625.46875Q585.532 629.125 581.657 632.15625L579.2351 629.0469Q584.37573 625.28125 586.25073 618.21875L589.70386 619.125Q591.1726 620.6094 589.4695 620.84375L589.01636 621.9844L605.2351 621.9844L605.2351 625.46875L596.68823 625.46875L596.68823 628.2031L603.7195 628.2031L603.7195 631.6719L596.68823 631.6719L596.68823 635.7031L606.532 635.7031L606.532 639.1719L596.68823 639.1719L596.68823 646.21875L593.0945 646.21875L593.0945 639.1719L579.6101 639.1719L579.6101 635.7031L584.89136 635.7031L584.89136 628.2031L593.0945 628.2031L593.0945 625.46875L587.62573 625.46875ZM588.4851 635.7031L593.0945 635.7031L593.0945 631.6719L588.4851 631.6719L588.4851 635.7031Z" fill-rule="nonzero"/><path fill="#000000" d="M649.2046 639.9219L649.2046 643.75L634.7827 643.75Q635.0171 641.5781 636.18896 639.6406Q637.36084 637.7031 640.81396 634.4844Q643.5952 631.90625 644.23584 630.96875Q645.0796 629.7031 645.0796 628.4531Q645.0796 627.0781 644.3296 626.34375Q643.5952 625.59375 642.29834 625.59375Q641.00146 625.59375 640.23584 626.375Q639.48584 627.15625 639.36084 628.9531L635.2671 628.5469Q635.62646 625.1406 637.56396 623.6719Q639.50146 622.1875 642.3921 622.1875Q645.5796 622.1875 647.3921 623.90625Q649.2046 625.6094 649.2046 628.15625Q649.2046 629.6094 648.68896 630.9219Q648.17334 632.2344 647.04834 633.6719Q646.29834 634.625 644.3452 636.4219Q642.3921 638.2031 641.87646 638.7969Q641.36084 639.375 641.0327 639.9219L649.2046 639.9219ZM659.2671 622.1875Q662.3921 622.1875 664.1421 624.40625Q666.23584 627.0469 666.23584 633.15625Q666.23584 639.25 664.12646 641.9219Q662.3921 644.1094 659.2671 644.1094Q656.12646 644.1094 654.2046 641.7031Q652.29834 639.2969 652.29834 633.1094Q652.29834 627.0469 654.4077 624.3906Q656.1421 622.1875 659.2671 622.1875ZM659.2671 625.59375Q658.5171 625.59375 657.92334 626.0781Q657.3452 626.5469 657.0171 627.78125Q656.5952 629.375 656.5952 633.15625Q656.5952 636.9375 656.9702 638.3594Q657.36084 639.7656 657.93896 640.2344Q658.5171 640.7031 659.2671 640.7031Q660.0171 640.7031 660.5952 640.2344Q661.18896 639.75 661.50146 638.5156Q661.93896 636.9375 661.93896 633.15625Q661.93896 629.375 661.54834 627.96875Q661.17334 626.5469 660.5952 626.0781Q660.0171 625.59375 659.2671 625.59375ZM683.2046 639.9219L683.2046 643.75L668.7827 643.75Q669.0171 641.5781 670.18896 639.6406Q671.36084 637.7031 674.81396 634.4844Q677.5952 631.90625 678.23584 630.96875Q679.0796 629.7031 679.0796 628.4531Q679.0796 627.0781 678.3296 626.34375Q677.5952 625.59375 676.29834 625.59375Q675.00146 625.59375 674.23584 626.375Q673.48584 627.15625 673.36084 628.9531L669.2671 628.5469Q669.62646 625.1406 671.56396 623.6719Q673.50146 622.1875 676.3921 622.1875Q679.5796 622.1875 681.3921 623.90625Q683.2046 625.6094 683.2046 628.15625Q683.2046 629.6094 682.68896 630.9219Q682.17334 632.2344 681.04834 633.6719Q680.29834 634.625 678.3452 636.4219Q676.3921 638.2031 675.87646 638.7969Q675.36084 639.375 675.0327 639.9219L683.2046 639.9219ZM686.1577 638.0469L690.1421 637.5625Q690.3296 639.09375 691.1577 639.90625Q692.00146 640.7031 693.18896 640.7031Q694.4702 640.7031 695.3296 639.7344Q696.2046 638.7656 696.2046 637.125Q696.2046 635.5781 695.36084 634.6719Q694.5327 633.7656 693.3452 633.7656Q692.54834 633.7656 691.4546 634.0625L691.9077 630.71875Q693.5796 630.75 694.4546 629.9844Q695.3296 629.21875 695.3296 627.9375Q695.3296 626.8594 694.68896 626.21875Q694.04834 625.5781 692.9702 625.5781Q691.92334 625.5781 691.17334 626.3125Q690.42334 627.03125 690.2671 628.4375L686.4702 627.7969Q686.86084 625.84375 687.6577 624.6875Q688.4546 623.5156 689.87646 622.8594Q691.31396 622.1875 693.0952 622.1875Q696.12646 622.1875 697.9546 624.125Q699.4546 625.7031 699.4546 627.6875Q699.4546 630.5156 696.37646 632.2031Q698.2202 632.6094 699.31396 633.9844Q700.42334 635.3594 700.42334 637.2969Q700.42334 640.125 698.36084 642.125Q696.29834 644.1094 693.2202 644.1094Q690.31396 644.1094 688.3921 642.4375Q686.4702 640.7656 686.1577 638.0469Z" fill-rule="nonzero"/><path fill="#000000" d="M712.3921 625.46875Q710.29834 629.125 706.42334 632.15625L704.00146 629.0469Q709.1421 625.28125 711.0171 618.21875L714.4702 619.125Q715.93896 620.6094 714.23584 620.84375L713.7827 621.9844L730.00146 621.9844L730.00146 625.46875L721.4546 625.46875L721.4546 628.2031L728.48584 628.2031L728.48584 631.6719L721.4546 631.6719L721.4546 635.7031L731.29834 635.7031L731.29834 639.1719L721.4546 639.1719L721.4546 646.21875L717.86084 646.21875L717.86084 639.1719L704.37646 639.1719L704.37646 635.7031L709.6577 635.7031L709.6577 628.2031L717.86084 628.2031L717.86084 625.46875L712.3921 625.46875ZM713.25146 635.7031L717.86084 635.7031L717.86084 631.6719L713.25146 631.6719L713.25146 635.7031Z" fill-rule="nonzero"/><path fill="#f39800" d="M224.32178 82.945656C224.32178 82.393364 224.7695 81.945656 225.32178 81.945656L235.32178 81.945656C235.87407 81.945656 236.32178 82.393364 236.32178 82.945656L236.32178 92.945656C236.32178 93.49794 235.87407 93.945656 235.32178 93.945656L225.32178 93.945656C224.7695 93.945656 224.32178 93.49794 224.32178 92.945656Z" fill-rule="nonzero"/><path fill="#1a1a1a" d="M259.61865 84.14878Q258.13428 92.633156 249.3999 96.508156L247.38428 94.383156Q255.38428 91.11753 256.80615 84.164406L251.29053 84.164406Q249.57178 86.99253 247.35303 89.039406L245.07178 87.55503Q249.44678 83.61753 250.68115 78.383156L252.93115 79.164406Q254.25928 79.820656 252.94678 80.320656Q252.68115 81.18003 252.44678 81.633156L257.2749 81.633156L258.16553 81.14878L259.7749 82.77378Q260.80615 83.789406 259.61865 84.14878ZM259.63428 82.539406Q258.18115 80.445656 256.66553 79.24253L258.32178 77.83628Q259.94678 79.258156 261.38428 81.18003L259.63428 82.539406ZM261.9624 81.633156Q260.44678 79.74253 259.13428 78.539406L260.6499 77.02378Q262.13428 78.39878 263.47803 80.11753L261.9624 81.633156ZM275.85303 91.68003Q278.61865 90.61753 281.7749 86.27378L283.36865 88.445656Q280.16553 92.83628 275.54053 94.68003L274.69678 95.08628L272.99365 93.820656L273.24365 93.21128L273.24365 80.30503L275.3374 80.30503Q276.86865 80.64878 275.85303 81.52378L275.85303 91.68003ZM264.32178 94.445656Q268.47803 90.46128 268.47803 85.08628L268.47803 81.164406L270.57178 81.164406Q272.10303 81.508156 271.0874 82.383156L271.0874 85.008156Q271.0874 91.74253 266.5874 95.914406L264.32178 94.445656ZM284.25928 88.539406L284.25928 86.008156L302.49365 86.008156L302.49365 88.539406L284.25928 88.539406ZM317.72803 80.695656Q318.18115 80.695656 318.4624 80.43003Q318.72803 80.14878 318.72803 79.695656Q318.72803 79.24253 318.4624 78.96128Q318.18115 78.695656 317.72803 78.695656Q317.2749 78.695656 316.99365 78.96128Q316.72803 79.24253 316.72803 79.695656Q316.72803 80.14878 316.99365 80.43003Q317.2749 80.695656 317.72803 80.695656ZM317.72803 82.289406Q316.61865 82.289406 315.88428 81.539406Q315.13428 80.80503 315.13428 79.695656Q315.13428 78.58628 315.88428 77.851906Q316.61865 77.101906 317.72803 77.101906Q318.8374 77.101906 319.57178 77.851906Q320.32178 78.58628 320.32178 79.695656Q320.32178 80.80503 319.57178 81.539406Q318.8374 82.289406 317.72803 82.289406ZM303.3374 83.30503L303.3374 80.77378L315.43115 80.77378L317.75928 82.46128Q317.3374 92.43003 306.49365 95.476906L304.49365 93.039406Q314.60303 90.695656 315.0249 83.30503L303.3374 83.30503ZM331.94678 79.49253Q334.63428 82.86753 339.94678 84.52378L338.8374 87.08628Q333.05615 84.96128 330.32178 81.18003Q329.16553 83.570656 327.66553 84.601906L335.43115 84.601906L335.43115 86.89878L325.86865 86.89878L325.86865 85.96128Q325.0874 86.601906 322.86865 87.61753L321.2749 85.476906Q327.29053 82.68003 329.1499 78.05503L331.49365 78.508156Q333.13428 78.74253 331.94678 79.49253ZM326.8374 96.508156L324.4624 96.508156L324.4624 87.96128L336.91553 87.96128L336.91553 96.27378L334.54053 96.27378L334.54053 95.414406L326.8374 95.414406L326.8374 96.508156ZM326.8374 93.11753L334.54053 93.11753L334.54053 90.258156L326.8374 90.258156L326.8374 93.11753ZM353.60303 84.36753L353.60303 78.11753L355.54053 78.11753Q357.43115 78.49253 355.97803 79.30503L355.97803 84.36753L359.9624 84.36753L359.9624 86.664406L355.97803 86.664406L355.97803 96.351906L353.60303 96.351906L353.60303 86.664406L349.38428 86.664406L349.38428 84.36753L353.60303 84.36753ZM349.57178 96.11753L347.19678 96.11753L347.19678 95.33628L344.80615 95.33628L344.80615 96.43003L342.43115 96.43003L342.43115 89.21128L349.57178 89.21128L349.57178 96.11753ZM344.80615 91.27378L344.80615 93.27378L347.19678 93.27378L347.19678 91.27378L344.80615 91.27378ZM349.10303 86.55503L349.10303 88.851906L342.8999 88.851906L342.8999 86.55503L349.10303 86.55503ZM342.8999 83.976906L349.10303 83.976906L349.10303 86.27378L342.8999 86.27378L342.8999 83.976906ZM341.41553 81.39878L350.50928 81.39878L350.50928 83.695656L341.41553 83.695656L341.41553 81.39878ZM349.10303 78.58628L349.10303 80.883156L342.8999 80.883156L342.8999 78.58628L349.10303 78.58628Z" fill-rule="nonzero"/><path fill="#4285f4" d="M376.32178 82.945656C376.32178 82.393364 376.7695 81.945656 377.32178 81.945656L387.32178 81.945656C387.87405 81.945656 388.32178 82.393364 388.32178 82.945656L388.32178 92.945656C388.32178 93.49794 387.87405 93.945656 387.32178 93.945656L377.32178 93.945656C376.7695 93.945656 376.32178 93.49794 376.32178 92.945656Z" fill-rule="nonzero"/><path fill="#1a1a1a" d="M410.88428 81.39878L414.47803 81.39878L414.47803 83.93003L410.88428 83.93003L410.88428 85.539406L415.80615 85.539406L415.80615 88.070656L411.32178 88.070656Q412.3374 89.86753 416.47803 92.351906L415.1499 94.914406Q411.66553 92.39878 410.88428 91.258156L410.88428 96.74253L408.50928 96.74253L408.50928 91.58628Q407.57178 93.18003 404.24365 95.43003L402.99365 93.164406Q406.5874 90.664406 408.11865 88.070656L403.8999 88.070656L403.8999 85.539406L408.50928 85.539406L408.50928 83.93003L406.99365 83.93003Q406.60303 84.83628 405.41553 86.24253L403.5874 84.30503Q405.19678 82.61753 406.13428 79.36753L408.11865 79.851906Q409.60303 80.601906 408.13428 80.976906L407.99365 81.39878L408.50928 81.39878L408.50928 77.883156L410.43115 77.883156Q412.10303 78.08628 410.88428 78.96128L410.88428 81.39878ZM402.5249 96.74253L400.1499 96.74253L400.1499 90.55503Q400.13428 90.61753 398.22803 92.71128L396.75928 90.33628Q399.32178 87.695656 399.99365 84.24253L397.49365 84.24253L397.49365 81.71128L400.1499 81.71128L400.1499 77.883156L402.0874 77.883156Q403.74365 78.289406 402.5249 78.99253L402.5249 81.71128L404.7124 81.71128L404.7124 84.24253L402.5249 84.24253L402.5249 85.883156Q403.9624 86.820656 405.29053 88.52378L403.55615 90.71128Q402.41553 88.851906 402.49365 88.86753L402.5249 96.74253ZM431.61865 91.46128Q432.50928 93.11753 433.05615 93.11753Q433.05615 93.14878 433.04053 92.99253L433.25928 91.133156L435.7749 92.27378L435.41553 94.445656Q435.11865 96.11753 433.60303 96.11753Q431.00928 96.11753 429.25928 92.695656Q427.6499 89.55503 427.57178 84.320656L417.9624 84.320656L417.9624 81.789406L427.49365 81.789406L427.49365 78.195656L429.66553 78.195656Q431.44678 78.55503 430.10303 79.445656L430.10303 81.789406L435.57178 81.789406L435.57178 84.320656L430.13428 84.320656Q430.41553 89.27378 431.61865 91.46128ZM428.68115 93.36753Q423.91553 94.39878 419.72803 95.133156Q419.43115 96.46128 418.4624 95.101906L417.9624 92.601906Q420.35303 92.414406 421.86865 92.164406L421.86865 88.46128L418.74365 88.46128L418.74365 86.164406L427.29053 86.164406L427.29053 88.46128L424.24365 88.46128L424.24365 91.80503Q425.57178 91.633156 428.30615 91.08628L428.68115 93.36753ZM431.74365 78.508156Q433.13428 79.195656 434.5249 80.49253L432.47803 82.195656Q431.47803 81.195656 429.7749 80.24253L431.74365 78.508156ZM449.43115 84.133156Q447.99365 83.351906 446.55615 80.883156Q445.1499 83.18003 443.8374 84.133156L449.43115 84.133156ZM454.94678 86.64878Q453.2124 86.24253 451.5874 85.320656L451.5874 86.664406L441.94678 86.664406L441.94678 85.476906Q440.41553 86.55503 438.11865 87.226906L437.13428 84.570656Q442.85303 83.02378 445.57178 78.008156L447.47803 78.27378Q449.13428 78.476906 448.07178 79.258156Q450.25928 82.539406 456.04053 84.02378L454.94678 86.64878ZM452.86865 96.64878Q452.05615 95.508156 451.35303 94.883156L440.35303 96.101906Q439.80615 96.633156 439.10303 96.11753L438.38428 93.539406L441.86865 93.36753L443.61865 90.18003L438.2749 90.18003L438.2749 87.64878L455.10303 87.64878L455.10303 90.18003L446.49365 90.18003L444.66553 93.21128L449.35303 92.86753Q449.04053 92.58628 447.35303 91.320656L449.47803 89.89878Q453.50928 92.914406 455.2124 95.195656L452.86865 96.64878ZM462.99365 81.476906L464.05615 81.476906L464.54053 80.99253L466.3374 82.789406L465.47803 83.414406Q464.57178 85.14878 463.2749 86.758156Q464.72803 87.21128 466.54053 88.46128L465.30615 90.96128Q463.60303 89.570656 462.99365 89.21128L462.99365 96.664406L460.61865 96.664406L460.61865 89.43003Q459.85303 90.101906 457.94678 91.21128L456.8999 88.89878Q460.88428 86.74253 462.5874 83.77378L457.72803 83.77378L457.72803 81.476906L460.61865 81.476906L460.61865 78.11753L462.54053 78.11753Q464.2124 78.320656 462.99365 79.195656L462.99365 81.476906ZM471.1499 78.58628Q472.93115 78.945656 471.5874 79.83628L471.5874 83.351906L475.18115 83.351906L475.18115 85.883156L471.5874 85.883156L471.5874 93.195656L475.88428 93.195656L475.88428 95.726906L464.36865 95.726906L464.36865 93.195656L468.97803 93.195656L468.97803 85.883156L465.61865 85.883156L465.61865 83.351906L468.97803 83.351906L468.97803 78.58628L471.1499 78.58628ZM491.61865 84.14878Q490.13428 92.633156 481.3999 96.508156L479.38428 94.383156Q487.38428 91.11753 488.80615 84.164406L483.29053 84.164406Q481.57178 86.99253 479.35303 89.039406L477.07178 87.55503Q481.44678 83.61753 482.68115 78.383156L484.93115 79.164406Q486.25928 79.820656 484.94678 80.320656Q484.68115 81.18003 484.44678 81.633156L489.2749 81.633156L490.16553 81.14878L491.7749 82.77378Q492.80615 83.789406 491.61865 84.14878ZM505.24365 87.664406Q505.24365 93.77378 499.30615 96.58628L497.05615 94.664406Q502.55615 92.164406 502.63428 87.58628L502.63428 79.36753L504.72803 79.36753Q506.43115 79.71128 505.24365 80.601906L505.24365 87.664406ZM497.19678 89.789406L494.5874 89.789406L494.5874 80.14878L496.72803 80.14878Q498.54053 80.33628 497.19678 81.383156L497.19678 89.789406ZM517.6968 87.539406Q517.8218 92.726906 512.103 96.320656L510.2124 94.195656Q515.05615 91.570656 515.05615 87.27378L515.05615 83.508156L517.11865 83.508156Q518.7749 83.695656 517.6655 84.64878L517.6655 85.68003Q519.7749 84.101906 520.728 82.789406L508.44678 83.24253L508.22803 80.633156L522.8218 80.226906L523.5718 80.008156L524.9155 81.633156Q525.74365 82.71128 524.3999 82.55503Q522.1655 85.445656 518.5718 88.351906L517.6968 87.539406Z" fill-rule="nonzero"/><path fill="#757575" d="M652.7344 57.453125L650.8594 57.453125Q649.3594 55.203125 648.5781 52.78125Q647.7969 50.34375 647.7969 48.0625Q647.7969 45.234375 648.7656 42.71875Q649.6094 40.53125 650.8906 38.6875L652.7656 38.6875Q651.4219 41.640625 650.9219 43.71875Q650.4219 45.796875 650.4219 48.125Q650.4219 49.71875 650.71875 51.40625Q651.0156 53.078125 651.53125 54.59375Q651.875 55.59375 652.7344 57.453125Z" fill-rule="nonzero"/><path fill="#757575" d="M669.4375 40.09375L671.125 40.09375L671.125 48.953125L668.75 48.953125L668.75 48.484375L665.2656 48.484375L665.2656 49.3125L673.46875 49.3125L673.46875 51.609375L665.2656 51.609375L665.2656 54.890625L662.8906 54.890625L662.8906 51.609375L654.84375 51.609375L654.84375 49.3125L662.8906 49.3125L662.8906 48.484375L659.4844 48.484375L659.4844 49.109375L657.1094 49.109375L657.1094 40.09375L666.59375 40.09375L669.2031 36.109375L671.03125 37.359375Q672.34375 38.40625 670.7656 38.40625L669.4375 40.09375ZM663.625 36.3125Q665.4219 37.8125 666.1719 39.21875L664.0156 40.796875Q663.2031 39.265625 661.65625 37.8125L663.625 36.3125ZM662.8906 43.21875L662.8906 42.390625L659.4844 42.390625L659.4844 43.21875L662.8906 43.21875ZM668.75 43.21875L668.75 42.390625L665.2656 42.390625L665.2656 43.21875L668.75 43.21875ZM662.8906 46.1875L662.8906 45.515625L659.4844 45.515625L659.4844 46.1875L662.8906 46.1875ZM668.75 46.1875L668.75 45.515625L665.2656 45.515625L665.2656 46.1875L668.75 46.1875ZM659.0 40.84375Q658.2031 39.265625 656.8125 37.96875L658.7969 36.453125Q660.34375 37.90625 661.1719 39.46875L659.0 40.84375ZM690.9219 44.421875Q690.3281 47.5625 688.9531 51.265625L693.3906 51.265625L693.3906 53.5625L679.53125 53.5625L679.53125 51.265625L686.3594 51.265625Q687.6719 46.890625 688.4531 42.71875L690.8906 43.40625Q691.71875 43.953125 690.9219 44.421875ZM677.2656 54.8125L677.4219 45.46875Q677.53125 45.578125 675.90625 47.421875L674.4219 45.125Q677.6719 41.953125 678.4219 36.375L680.71875 37.078125Q682.0469 37.734375 680.75 38.234375Q680.1719 40.640625 679.4375 41.984375L679.59375 41.921875Q680.28125 42.609375 679.6406 43.0L679.6406 54.8125L677.2656 54.8125ZM683.6719 43.515625Q685.0156 46.390625 685.71875 49.828125L683.1406 50.71875Q682.4375 47.1875 681.1875 44.3125L683.6719 43.515625ZM692.53125 40.484375L692.53125 42.78125L680.3906 42.78125L680.3906 40.484375L685.15625 40.484375L685.15625 36.65625L687.0781 36.65625Q688.75 36.859375 687.53125 37.734375L687.53125 40.484375L692.53125 40.484375Z" fill-rule="nonzero"/><path fill="#757575" d="M695.71875 45.625L695.71875 42.875L698.4531 42.875L698.4531 45.625L695.71875 45.625ZM695.71875 53.25L695.71875 50.5L698.4531 50.5L698.4531 53.25L695.71875 53.25Z" fill-rule="nonzero"/><path fill="#757575" d="M720.2344 37.515625L720.2344 40.046875L712.5 40.046875L712.125 41.8125L718.2031 41.8125L718.2031 54.5L715.59375 54.5L715.59375 53.484375L706.9531 53.484375L706.9531 54.8125L704.34375 54.8125L704.34375 41.8125L709.40625 41.8125L709.7344 40.046875L702.0781 40.046875L702.0781 37.515625L720.2344 37.515625ZM706.9531 48.796875L706.9531 51.1875L715.59375 51.1875L715.59375 48.796875L706.9531 48.796875ZM715.59375 46.5L715.59375 44.109375L706.9531 44.109375L706.9531 46.5L715.59375 46.5ZM728.25 40.515625L722.46875 40.515625L722.46875 37.984375L740.0 37.984375L740.0 40.515625L730.8594 40.515625Q730.8594 41.765625 730.75 42.984375L738.59375 42.984375Q738.59375 48.609375 737.71875 51.625Q737.0156 54.1875 734.5156 54.1875L731.125 54.1875L730.6719 51.65625L733.96875 51.65625Q734.9844 51.65625 735.21875 50.859375Q735.8281 48.796875 735.8906 45.515625L730.3906 45.515625Q729.1719 51.3125 723.7656 54.234375L722.125 51.828125Q728.25 48.765625 728.25 41.4375L728.25 40.515625ZM758.9844 52.609375Q758.9844 54.265625 757.3281 54.265625L754.9844 54.265625L754.2969 51.734375L756.46875 51.734375Q756.46875 51.828125 756.375 51.828125L756.375 47.0L745.7031 47.0L745.7031 54.34375L743.09375 54.34375L743.09375 37.671875L758.9844 37.671875L758.9844 52.609375ZM756.375 39.96875L752.1875 39.96875L752.1875 44.703125L756.375 44.703125L756.375 39.96875ZM745.7031 39.96875L745.7031 44.703125L749.8125 44.703125L749.8125 39.96875L745.7031 39.96875Z" fill-rule="nonzero"/><path fill="#757575" d="M761.4219 57.453125Q762.2344 55.71875 762.5625 54.78125Q762.90625 53.859375 763.1875 52.65625Q763.46875 51.4375 763.59375 50.359375Q763.7344 49.265625 763.7344 48.125Q763.7344 45.796875 763.2344 43.71875Q762.75 41.640625 761.40625 38.6875L763.2656 38.6875Q764.75 40.78125 765.5625 43.140625Q766.375 45.5 766.375 47.921875Q766.375 49.953125 765.7344 52.296875Q765.0 54.90625 763.3125 57.453125L761.4219 57.453125Z" fill-rule="nonzero"/></svg>