<svg version="1.1" viewBox="0.0 0.0 782.0 668.0" fill="none" stroke="none" stroke-linecap="square" stroke-miterlimit="10" width="782" height="668" xmlns:xlink="http://www.w3.org/1999/xlink" xmlns="http://www.w3.org/2000/svg"><path fill="#ffffff" d="M0 0L782.0 0L782.0 668.0L0 668.0L0 0Z" fill-rule="nonzero"/><path stroke="#333333" stroke-width="1.0" stroke-linecap="butt" d="M116.5 537.5L748.5 537.5" fill-rule="nonzero"/><path stroke="#cccccc" stroke-width="1.0" stroke-linecap="butt" d="M116.5 438.5L748.5 438.5" fill-rule="nonzero"/><path stroke="#cccccc" stroke-width="1.0" stroke-linecap="butt" d="M116.5 340.5L748.5 340.5" fill-rule="nonzero"/><path stroke="#cccccc" stroke-width="1.0" stroke-linecap="butt" d="M116.5 241.5L748.5 241.5" fill-rule="nonzero"/><path stroke="#cccccc" stroke-width="1.0" stroke-linecap="butt" d="M116.5 143.5L748.5 143.5" fill-rule="nonzero"/><clipPath id="id_0"><path d="M116.4 143.43333L748.6 143.43333L748.6 537.26624L116.4 537.26624L116.4 143.43333Z" clip-rule="nonzero"/></clipPath><path stroke="#000000" stroke-width="2.0" stroke-linecap="butt" stroke-opacity="0.0" clip-path="url(#id_0)" d="M217.0 537.0L152.0 537.0L152.0 525.0L217.0 525.0Z" fill-rule="nonzero"/><path fill="#4285f4" clip-path="url(#id_0)" d="M217.0 537.0L152.0 537.0L152.0 525.0L217.0 525.0Z" fill-rule="nonzero"/><path stroke="#000000" stroke-width="2.0" stroke-linecap="butt" stroke-opacity="0.0" clip-path="url(#id_0)" d="M316.0 537.0L251.0 537.0L251.0 504.0L316.0 504.0Z" fill-rule="nonzero"/><path fill="#4285f4" clip-path="url(#id_0)" d="M316.0 537.0L251.0 537.0L251.0 504.0L316.0 504.0Z" fill-rule="nonzero"/><path stroke="#000000" stroke-width="2.0" stroke-linecap="butt" stroke-opacity="0.0" clip-path="url(#id_0)" d="M416.0 537.0L351.0 537.0L351.0 449.0L416.0 449.0Z" fill-rule="nonzero"/><path fill="#4285f4" clip-path="url(#id_0)" d="M416.0 537.0L351.0 537.0L351.0 449.0L416.0 449.0Z" fill-rule="nonzero"/><path stroke="#000000" stroke-width="2.0" stroke-linecap="butt" stroke-opacity="0.0" clip-path="url(#id_0)" d="M515.0 537.0L450.0 537.0L450.0 376.0L515.0 376.0Z" fill-rule="nonzero"/><path fill="#4285f4" clip-path="url(#id_0)" d="M515.0 537.0L450.0 537.0L450.0 376.0L515.0 376.0Z" fill-rule="nonzero"/><path stroke="#000000" stroke-width="2.0" stroke-linecap="butt" stroke-opacity="0.0" clip-path="url(#id_0)" d="M615.0 537.0L550.0 537.0L550.0 294.0L615.0 294.0Z" fill-rule="nonzero"/><path fill="#4285f4" clip-path="url(#id_0)" d="M615.0 537.0L550.0 537.0L550.0 294.0L615.0 294.0Z" fill-rule="nonzero"/><path stroke="#000000" stroke-width="2.0" stroke-linecap="butt" stroke-opacity="0.0" clip-path="url(#id_0)" d="M714.0 537.0L649.0 537.0L649.0 218.0L714.0 218.0Z" fill-rule="nonzero"/><path fill="#4285f4" clip-path="url(#id_0)" d="M714.0 537.0L649.0 537.0L649.0 218.0L714.0 218.0Z" fill-rule="nonzero"/><path stroke="#000000" stroke-width="2.0" stroke-linecap="butt" stroke-opacity="0.0" clip-path="url(#id_0)" d="M217.0 525.0L152.0 525.0L152.0 525.0L217.0 525.0Z" fill-rule="nonzero"/><path fill="#f39800" clip-path="url(#id_0)" d="M217.0 525.0L152.0 525.0L152.0 525.0L217.0 525.0Z" fill-rule="nonzero"/><path stroke="#000000" stroke-width="2.0" stroke-linecap="butt" stroke-opacity="0.0" clip-path="url(#id_0)" d="M316.0 504.0L251.0 504.0L251.0 504.0L316.0 504.0Z" fill-rule="nonzero"/><path fill="#f39800" clip-path="url(#id_0)" d="M316.0 504.0L251.0 504.0L251.0 504.0L316.0 504.0Z" fill-rule="nonzero"/><path stroke="#000000" stroke-width="2.0" stroke-linecap="butt" stroke-opacity="0.0" clip-path="url(#id_0)" d="M416.0 449.0L351.0 449.0L351.0 433.0C351.0 431.89542 351.89542 431.0 353.0 431.0L414.0 431.0C415.10458 431.0 416.0 431.89542 416.0 433.0Z" fill-rule="nonzero"/><path fill="#f39800" clip-path="url(#id_0)" d="M416.0 449.0L351.0 449.0L351.0 433.0C351.0 431.89542 351.89542 431.0 353.0 431.0L414.0 431.0C415.10458 431.0 416.0 431.89542 416.0 433.0Z" fill-rule="nonzero"/><path stroke="#000000" stroke-width="2.0" stroke-linecap="butt" stroke-opacity="0.0" clip-path="url(#id_0)" d="M515.0 376.0L450.0 376.0L450.0 308.0C450.0 306.89542 450.89542 306.0 452.0 306.0L513.0 306.0C514.10455 306.0 515.0 306.89542 515.0 308.0Z" fill-rule="nonzero"/><path fill="#f39800" clip-path="url(#id_0)" d="M515.0 376.0L450.0 376.0L450.0 308.0C450.0 306.89542 450.89542 306.0 452.0 306.0L513.0 306.0C514.10455 306.0 515.0 306.89542 515.0 308.0Z" fill-rule="nonzero"/><path stroke="#000000" stroke-width="2.0" stroke-linecap="butt" stroke-opacity="0.0" clip-path="url(#id_0)" d="M615.0 294.0L550.0 294.0L550.0 186.0C550.0 184.89543 550.89545 184.0 552.0 184.0L613.0 184.0C614.10455 184.0 615.0 184.89543 615.0 186.0Z" fill-rule="nonzero"/><path fill="#f39800" clip-path="url(#id_0)" d="M615.0 294.0L550.0 294.0L550.0 186.0C550.0 184.89543 550.89545 184.0 552.0 184.0L613.0 184.0C614.10455 184.0 615.0 184.89543 615.0 186.0Z" fill-rule="nonzero"/><path stroke="#000000" stroke-width="2.0" stroke-linecap="butt" stroke-opacity="0.0" clip-path="url(#id_0)" d="M714.0 218.0L649.0 218.0L649.0 218.0L714.0 218.0Z" fill-rule="nonzero"/><path fill="#f39800" clip-path="url(#id_0)" d="M714.0 218.0L649.0 218.0L649.0 218.0L714.0 218.0Z" fill-rule="nonzero"/><path stroke="#ffffff" stroke-width="3.0" stroke-linejoin="round" stroke-linecap="round" d="M165.35938 474.21368L170.14062 473.63556Q170.35938 475.46368 171.35938 476.43243Q172.375 477.40118 173.79688 477.40118Q175.32812 477.40118 176.35938 476.24493Q177.40625 475.07306 177.40625 473.1043Q177.40625 471.24493 176.40625 470.1668Q175.40625 469.07306 173.96875 469.07306Q173.01562 469.07306 171.70312 469.43243L172.25 465.4168Q174.25 465.46368 175.29688 464.5418Q176.35938 463.61993 176.35938 462.08868Q176.35938 460.7918 175.57812 460.02618Q174.8125 459.24493 173.53125 459.24493Q172.26562 459.24493 171.35938 460.11993Q170.46875 460.99493 170.28125 462.68243L165.71875 461.9168Q166.20312 459.57306 167.15625 458.18243Q168.10938 456.77618 169.82812 455.9793Q171.54688 455.18243 173.67188 455.18243Q177.3125 455.18243 179.5 457.49493Q181.3125 459.40118 181.3125 461.7918Q181.3125 465.18243 177.60938 467.19806Q179.82812 467.68243 181.14062 469.33868Q182.46875 470.9793 182.46875 473.32306Q182.46875 476.71368 179.98438 479.1043Q177.51562 481.49493 173.82812 481.49493Q170.32812 481.49493 168.01562 479.4793Q165.71875 477.46368 165.35938 474.21368ZM198.17188 481.05743L193.23438 481.05743L193.23438 462.44806Q190.51562 464.9793 186.84375 466.18243L186.84375 461.69806Q188.78125 461.07306 191.04688 459.30743Q193.3125 457.5418 194.15625 455.18243L198.17188 455.18243L198.17188 481.05743Z" fill-rule="nonzero"/><path fill="#4285f4" d="M165.35938 474.21368L170.14062 473.63556Q170.35938 475.46368 171.35938 476.43243Q172.375 477.40118 173.79688 477.40118Q175.32812 477.40118 176.35938 476.24493Q177.40625 475.07306 177.40625 473.1043Q177.40625 471.24493 176.40625 470.1668Q175.40625 469.07306 173.96875 469.07306Q173.01562 469.07306 171.70312 469.43243L172.25 465.4168Q174.25 465.46368 175.29688 464.5418Q176.35938 463.61993 176.35938 462.08868Q176.35938 460.7918 175.57812 460.02618Q174.8125 459.24493 173.53125 459.24493Q172.26562 459.24493 171.35938 460.11993Q170.46875 460.99493 170.28125 462.68243L165.71875 461.9168Q166.20312 459.57306 167.15625 458.18243Q168.10938 456.77618 169.82812 455.9793Q171.54688 455.18243 173.67188 455.18243Q177.3125 455.18243 179.5 457.49493Q181.3125 459.40118 181.3125 461.7918Q181.3125 465.18243 177.60938 467.19806Q179.82812 467.68243 181.14062 469.33868Q182.46875 470.9793 182.46875 473.32306Q182.46875 476.71368 179.98438 479.1043Q177.51562 481.49493 173.82812 481.49493Q170.32812 481.49493 168.01562 479.4793Q165.71875 477.46368 165.35938 474.21368ZM198.17188 481.05743L193.23438 481.05743L193.23438 462.44806Q190.51562 464.9793 186.84375 466.18243L186.84375 461.69806Q188.78125 461.07306 191.04688 459.30743Q193.3125 457.5418 194.15625 455.18243L198.17188 455.18243L198.17188 481.05743Z" fill-rule="nonzero"/><path stroke="#ffffff" stroke-width="3.0" stroke-linejoin="round" stroke-linecap="round" d="M268.76562 446.27805Q266.84375 445.46555 265.96875 444.0593Q265.10938 442.63742 265.10938 440.94992Q265.10938 438.07492 267.125 436.19992Q269.14062 434.3093 272.84375 434.3093Q276.51562 434.3093 278.54688 436.19992Q280.57812 438.07492 280.57812 440.94992Q280.57812 442.7468 279.64062 444.15305Q278.71875 445.54367 277.03125 446.27805Q279.17188 447.13742 280.28125 448.79367Q281.40625 450.44992 281.40625 452.60617Q281.40625 456.16867 279.125 458.40305Q276.85938 460.63742 273.07812 460.63742Q269.5625 460.63742 267.21875 458.79367Q264.45312 456.6218 264.45312 452.82492Q264.45312 450.73117 265.48438 448.98117Q266.53125 447.23117 268.76562 446.27805ZM269.78125 441.3093Q269.78125 442.77805 270.60938 443.60617Q271.45312 444.4343 272.84375 444.4343Q274.25 444.4343 275.09375 443.60617Q275.9375 442.76242 275.9375 441.29367Q275.9375 439.90305 275.09375 439.07492Q274.26562 438.23117 272.89062 438.23117Q271.46875 438.23117 270.625 439.07492Q269.78125 439.91867 269.78125 441.3093ZM269.32812 452.34055Q269.32812 454.38742 270.375 455.52805Q271.42188 456.66867 272.98438 456.66867Q274.51562 456.66867 275.51562 455.57492Q276.51562 454.46555 276.51562 452.40305Q276.51562 450.59055 275.5 449.4968Q274.48438 448.38742 272.92188 448.38742Q271.10938 448.38742 270.21875 449.63742Q269.32812 450.88742 269.32812 452.34055ZM294.21875 460.1843L294.21875 454.9968L283.67188 454.9968L283.67188 450.66867L294.84375 434.3093L299.0 434.3093L299.0 450.65305L302.20312 450.65305L302.20312 454.9968L299.0 454.9968L299.0 460.1843L294.21875 460.1843ZM294.21875 450.65305L294.21875 441.85617L288.29688 450.65305L294.21875 450.65305Z" fill-rule="nonzero"/><path fill="#4285f4" d="M268.76562 446.27805Q266.84375 445.46555 265.96875 444.0593Q265.10938 442.63742 265.10938 440.94992Q265.10938 438.07492 267.125 436.19992Q269.14062 434.3093 272.84375 434.3093Q276.51562 434.3093 278.54688 436.19992Q280.57812 438.07492 280.57812 440.94992Q280.57812 442.7468 279.64062 444.15305Q278.71875 445.54367 277.03125 446.27805Q279.17188 447.13742 280.28125 448.79367Q281.40625 450.44992 281.40625 452.60617Q281.40625 456.16867 279.125 458.40305Q276.85938 460.63742 273.07812 460.63742Q269.5625 460.63742 267.21875 458.79367Q264.45312 456.6218 264.45312 452.82492Q264.45312 450.73117 265.48438 448.98117Q266.53125 447.23117 268.76562 446.27805ZM269.78125 441.3093Q269.78125 442.77805 270.60938 443.60617Q271.45312 444.4343 272.84375 444.4343Q274.25 444.4343 275.09375 443.60617Q275.9375 442.76242 275.9375 441.29367Q275.9375 439.90305 275.09375 439.07492Q274.26562 438.23117 272.89062 438.23117Q271.46875 438.23117 270.625 439.07492Q269.78125 439.91867 269.78125 441.3093ZM269.32812 452.34055Q269.32812 454.38742 270.375 455.52805Q271.42188 456.66867 272.98438 456.66867Q274.51562 456.66867 275.51562 455.57492Q276.51562 454.46555 276.51562 452.40305Q276.51562 450.59055 275.5 449.4968Q274.48438 448.38742 272.92188 448.38742Q271.10938 448.38742 270.21875 449.63742Q269.32812 450.88742 269.32812 452.34055ZM294.21875 460.1843L294.21875 454.9968L283.67188 454.9968L283.67188 450.66867L294.84375 434.3093L299.0 434.3093L299.0 450.65305L302.20312 450.65305L302.20312 454.9968L299.0 454.9968L299.0 460.1843L294.21875 460.1843ZM294.21875 450.65305L294.21875 441.85617L288.29688 450.65305L294.21875 450.65305Z" fill-rule="nonzero"/><path stroke="#ffffff" stroke-width="3.0" stroke-linejoin="round" stroke-linecap="round" d="M560.1097 153.71376Q558.1878 152.90126 557.3128 151.49501Q556.4534 150.07314 556.4534 148.38564Q556.4534 145.51064 558.46906 143.63564Q560.4847 141.74501 564.1878 141.74501Q567.8597 141.74501 569.8909 143.63564Q571.9222 145.51064 571.9222 148.38564Q571.9222 150.18251 570.9847 151.58876Q570.0628 152.97939 568.3753 153.71376Q570.5159 154.57314 571.6253 156.22939Q572.7503 157.88564 572.7503 160.04189Q572.7503 163.60439 570.46906 165.83876Q568.2034 168.07314 564.4222 168.07314Q560.90656 168.07314 558.5628 166.22939Q555.7972 164.05751 555.7972 160.26064Q555.7972 158.16689 556.8284 156.41689Q557.8753 154.66689 560.1097 153.71376ZM561.1253 148.74501Q561.1253 150.21376 561.9534 151.04189Q562.7972 151.87001 564.1878 151.87001Q565.59406 151.87001 566.4378 151.04189Q567.28156 150.19814 567.28156 148.72939Q567.28156 147.33876 566.4378 146.51064Q565.6097 145.66689 564.2347 145.66689Q562.8128 145.66689 561.96906 146.51064Q561.1253 147.35439 561.1253 148.74501ZM560.6722 159.77626Q560.6722 161.82314 561.71906 162.96376Q562.7659 164.10439 564.3284 164.10439Q565.8597 164.10439 566.8597 163.01064Q567.8597 161.90126 567.8597 159.83876Q567.8597 158.02626 566.84406 156.93251Q565.8284 155.82314 564.2659 155.82314Q562.4534 155.82314 561.5628 157.07314Q560.6722 158.32314 560.6722 159.77626ZM575.9847 161.66689L580.7659 161.13564Q580.9378 162.58876 581.6722 163.29189Q582.40656 163.99501 583.6253 163.99501Q585.15656 163.99501 586.21906 162.58876Q587.2972 161.18251 587.59406 156.76064Q585.7347 158.91689 582.9378 158.91689Q579.90656 158.91689 577.6878 156.57314Q575.4847 154.22939 575.4847 150.46376Q575.4847 146.54189 577.8128 144.15126Q580.1409 141.74501 583.7503 141.74501Q587.6722 141.74501 590.1878 144.77626Q592.7034 147.80751 592.7034 154.74501Q592.7034 161.82314 590.0784 164.94814Q587.4534 168.07314 583.2503 168.07314Q580.2347 168.07314 578.3597 166.46376Q576.5003 164.85439 575.9847 161.66689ZM587.15656 150.87001Q587.15656 148.47939 586.0628 147.16689Q584.96906 145.83876 583.5159 145.83876Q582.15656 145.83876 581.2503 146.91689Q580.34406 147.99501 580.34406 150.46376Q580.34406 152.96376 581.3284 154.13564Q582.3128 155.29189 583.78156 155.29189Q585.2034 155.29189 586.1722 154.16689Q587.15656 153.04189 587.15656 150.87001ZM595.8753 146.79189L595.8753 142.19814L612.7659 142.19814L612.7659 145.79189Q610.6722 147.83876 608.5003 151.69814Q606.34406 155.54189 605.2034 159.88564Q604.0784 164.21376 604.09406 167.62001L599.34406 167.62001Q599.4534 162.27626 601.53156 156.72939Q603.6253 151.16689 607.1097 146.79189L595.8753 146.79189Z" fill-rule="nonzero"/><path fill="#4285f4" d="M560.1097 153.71376Q558.1878 152.90126 557.3128 151.49501Q556.4534 150.07314 556.4534 148.38564Q556.4534 145.51064 558.46906 143.63564Q560.4847 141.74501 564.1878 141.74501Q567.8597 141.74501 569.8909 143.63564Q571.9222 145.51064 571.9222 148.38564Q571.9222 150.18251 570.9847 151.58876Q570.0628 152.97939 568.3753 153.71376Q570.5159 154.57314 571.6253 156.22939Q572.7503 157.88564 572.7503 160.04189Q572.7503 163.60439 570.46906 165.83876Q568.2034 168.07314 564.4222 168.07314Q560.90656 168.07314 558.5628 166.22939Q555.7972 164.05751 555.7972 160.26064Q555.7972 158.16689 556.8284 156.41689Q557.8753 154.66689 560.1097 153.71376ZM561.1253 148.74501Q561.1253 150.21376 561.9534 151.04189Q562.7972 151.87001 564.1878 151.87001Q565.59406 151.87001 566.4378 151.04189Q567.28156 150.19814 567.28156 148.72939Q567.28156 147.33876 566.4378 146.51064Q565.6097 145.66689 564.2347 145.66689Q562.8128 145.66689 561.96906 146.51064Q561.1253 147.35439 561.1253 148.74501ZM560.6722 159.77626Q560.6722 161.82314 561.71906 162.96376Q562.7659 164.10439 564.3284 164.10439Q565.8597 164.10439 566.8597 163.01064Q567.8597 161.90126 567.8597 159.83876Q567.8597 158.02626 566.84406 156.93251Q565.8284 155.82314 564.2659 155.82314Q562.4534 155.82314 561.5628 157.07314Q560.6722 158.32314 560.6722 159.77626ZM575.9847 161.66689L580.7659 161.13564Q580.9378 162.58876 581.6722 163.29189Q582.40656 163.99501 583.6253 163.99501Q585.15656 163.99501 586.21906 162.58876Q587.2972 161.18251 587.59406 156.76064Q585.7347 158.91689 582.9378 158.91689Q579.90656 158.91689 577.6878 156.57314Q575.4847 154.22939 575.4847 150.46376Q575.4847 146.54189 577.8128 144.15126Q580.1409 141.74501 583.7503 141.74501Q587.6722 141.74501 590.1878 144.77626Q592.7034 147.80751 592.7034 154.74501Q592.7034 161.82314 590.0784 164.94814Q587.4534 168.07314 583.2503 168.07314Q580.2347 168.07314 578.3597 166.46376Q576.5003 164.85439 575.9847 161.66689ZM587.15656 150.87001Q587.15656 148.47939 586.0628 147.16689Q584.96906 145.83876 583.5159 145.83876Q582.15656 145.83876 581.2503 146.91689Q580.34406 147.99501 580.34406 150.46376Q580.34406 152.96376 581.3284 154.13564Q582.3128 155.29189 583.78156 155.29189Q585.2034 155.29189 586.1722 154.16689Q587.15656 153.04189 587.15656 150.87001ZM595.8753 146.79189L595.8753 142.19814L612.7659 142.19814L612.7659 145.79189Q610.6722 147.83876 608.5003 151.69814Q606.34406 155.54189 605.2034 159.88564Q604.0784 164.21376 604.09406 167.62001L599.34406 167.62001Q599.4534 162.27626 601.53156 156.72939Q603.6253 151.16689 607.1097 146.79189L595.8753 146.79189Z" fill-rule="nonzero"/><path stroke="#ffffff" stroke-width="3.0" stroke-linejoin="round" stroke-linecap="round" d="M657.91907 183.82645Q655.9972 183.01395 655.1222 181.6077Q654.2628 180.18582 654.2628 178.49832Q654.2628 175.62332 656.27844 173.74832Q658.29407 171.8577 661.9972 171.8577Q665.66907 171.8577 667.7003 173.74832Q669.73157 175.62332 669.73157 178.49832Q669.73157 180.2952 668.79407 181.70145Q667.8722 183.09207 666.1847 183.82645Q668.3253 184.68582 669.4347 186.34207Q670.5597 187.99832 670.5597 190.15457Q670.5597 193.71707 668.27844 195.95145Q666.0128 198.18582 662.23157 198.18582Q658.71594 198.18582 656.3722 196.34207Q653.60657 194.1702 653.60657 190.37332Q653.60657 188.27957 654.6378 186.52957Q655.6847 184.77957 657.91907 183.82645ZM658.9347 178.8577Q658.9347 180.32645 659.7628 181.15457Q660.60657 181.9827 661.9972 181.9827Q663.40344 181.9827 664.2472 181.15457Q665.09094 180.31082 665.09094 178.84207Q665.09094 177.45145 664.2472 176.62332Q663.41907 175.77957 662.04407 175.77957Q660.6222 175.77957 659.77844 176.62332Q658.9347 177.46707 658.9347 178.8577ZM658.48157 189.88895Q658.48157 191.93582 659.52844 193.07645Q660.5753 194.21707 662.1378 194.21707Q663.66907 194.21707 664.66907 193.12332Q665.66907 192.01395 665.66907 189.95145Q665.66907 188.13895 664.65344 187.0452Q663.6378 185.93582 662.0753 185.93582Q660.2628 185.93582 659.3722 187.18582Q658.48157 188.43582 658.48157 189.88895ZM686.3253 197.7327L681.3878 197.7327L681.3878 179.12332Q678.66907 181.65457 674.9972 182.8577L674.9972 178.37332Q676.9347 177.74832 679.2003 175.9827Q681.46594 174.21707 682.3097 171.8577L686.3253 171.8577L686.3253 197.7327ZM706.3253 197.7327L701.3878 197.7327L701.3878 179.12332Q698.66907 181.65457 694.9972 182.8577L694.9972 178.37332Q696.9347 177.74832 699.2003 175.9827Q701.46594 174.21707 702.3097 171.8577L706.3253 171.8577L706.3253 197.7327Z" fill-rule="nonzero"/><path fill="#4285f4" d="M657.91907 183.82645Q655.9972 183.01395 655.1222 181.6077Q654.2628 180.18582 654.2628 178.49832Q654.2628 175.62332 656.27844 173.74832Q658.29407 171.8577 661.9972 171.8577Q665.66907 171.8577 667.7003 173.74832Q669.73157 175.62332 669.73157 178.49832Q669.73157 180.2952 668.79407 181.70145Q667.8722 183.09207 666.1847 183.82645Q668.3253 184.68582 669.4347 186.34207Q670.5597 187.99832 670.5597 190.15457Q670.5597 193.71707 668.27844 195.95145Q666.0128 198.18582 662.23157 198.18582Q658.71594 198.18582 656.3722 196.34207Q653.60657 194.1702 653.60657 190.37332Q653.60657 188.27957 654.6378 186.52957Q655.6847 184.77957 657.91907 183.82645ZM658.9347 178.8577Q658.9347 180.32645 659.7628 181.15457Q660.60657 181.9827 661.9972 181.9827Q663.40344 181.9827 664.2472 181.15457Q665.09094 180.31082 665.09094 178.84207Q665.09094 177.45145 664.2472 176.62332Q663.41907 175.77957 662.04407 175.77957Q660.6222 175.77957 659.77844 176.62332Q658.9347 177.46707 658.9347 178.8577ZM658.48157 189.88895Q658.48157 191.93582 659.52844 193.07645Q660.5753 194.21707 662.1378 194.21707Q663.66907 194.21707 664.66907 193.12332Q665.66907 192.01395 665.66907 189.95145Q665.66907 188.13895 664.65344 187.0452Q663.6378 185.93582 662.0753 185.93582Q660.2628 185.93582 659.3722 187.18582Q658.48157 188.43582 658.48157 189.88895ZM686.3253 197.7327L681.3878 197.7327L681.3878 179.12332Q678.66907 181.65457 674.9972 182.8577L674.9972 178.37332Q676.9347 177.74832 679.2003 175.9827Q681.46594 174.21707 682.3097 171.8577L686.3253 171.8577L686.3253 197.7327ZM706.3253 197.7327L701.3878 197.7327L701.3878 179.12332Q698.66907 181.65457 694.9972 182.8577L694.9972 178.37332Q696.9347 177.74832 699.2003 175.9827Q701.46594 174.21707 702.3097 171.8577L706.3253 171.8577L706.3253 197.7327Z" fill-rule="nonzero"/><path stroke="#ffffff" stroke-width="3.0" stroke-linejoin="round" stroke-linecap="round" d="M371.21875 381.9438L371.21875 386.53754L353.89062 386.53754Q354.17188 383.92816 355.57812 381.60004Q356.98438 379.2719 361.14062 375.42816Q364.48438 372.3188 365.23438 371.2094Q366.25 369.67816 366.25 368.17816Q366.25 366.53754 365.35938 365.6469Q364.48438 364.7563 362.92188 364.7563Q361.375 364.7563 360.45312 365.6938Q359.54688 366.61566 359.40625 368.78754L354.48438 368.28754Q354.92188 364.2094 357.23438 362.4438Q359.5625 360.66254 363.03125 360.66254Q366.85938 360.66254 369.03125 362.72504Q371.21875 364.7719 371.21875 367.8344Q371.21875 369.5688 370.59375 371.1469Q369.96875 372.72504 368.60938 374.4438Q367.71875 375.5844 365.375 377.74066Q363.03125 379.8813 362.40625 380.5844Q361.79688 381.28754 361.40625 381.9438L371.21875 381.9438ZM374.53125 365.7094L374.53125 361.11566L391.42188 361.11566L391.42188 364.7094Q389.32812 366.7563 387.15625 370.61566Q385.0 374.4594 383.85938 378.80316Q382.73438 383.1313 382.75 386.53754L378.0 386.53754Q378.10938 381.1938 380.1875 375.6469Q382.28125 370.0844 385.76562 365.7094L374.53125 365.7094ZM407.17188 386.53754L402.23438 386.53754L402.23438 367.92816Q399.51562 370.4594 395.84375 371.66254L395.84375 367.17816Q397.78125 366.55316 400.04688 364.78754Q402.3125 363.0219 403.15625 360.66254L407.17188 360.66254L407.17188 386.53754Z" fill-rule="nonzero"/><path fill="#4285f4" d="M371.21875 381.9438L371.21875 386.53754L353.89062 386.53754Q354.17188 383.92816 355.57812 381.60004Q356.98438 379.2719 361.14062 375.42816Q364.48438 372.3188 365.23438 371.2094Q366.25 369.67816 366.25 368.17816Q366.25 366.53754 365.35938 365.6469Q364.48438 364.7563 362.92188 364.7563Q361.375 364.7563 360.45312 365.6938Q359.54688 366.61566 359.40625 368.78754L354.48438 368.28754Q354.92188 364.2094 357.23438 362.4438Q359.5625 360.66254 363.03125 360.66254Q366.85938 360.66254 369.03125 362.72504Q371.21875 364.7719 371.21875 367.8344Q371.21875 369.5688 370.59375 371.1469Q369.96875 372.72504 368.60938 374.4438Q367.71875 375.5844 365.375 377.74066Q363.03125 379.8813 362.40625 380.5844Q361.79688 381.28754 361.40625 381.9438L371.21875 381.9438ZM374.53125 365.7094L374.53125 361.11566L391.42188 361.11566L391.42188 364.7094Q389.32812 366.7563 387.15625 370.61566Q385.0 374.4594 383.85938 378.80316Q382.73438 383.1313 382.75 386.53754L378.0 386.53754Q378.10938 381.1938 380.1875 375.6469Q382.28125 370.0844 385.76562 365.7094L374.53125 365.7094ZM407.17188 386.53754L402.23438 386.53754L402.23438 367.92816Q399.51562 370.4594 395.84375 371.66254L395.84375 367.17816Q397.78125 366.55316 400.04688 364.78754Q402.3125 363.0219 403.15625 360.66254L407.17188 360.66254L407.17188 386.53754Z" fill-rule="nonzero"/><path stroke="#ffffff" stroke-width="3.0" stroke-linejoin="round" stroke-linecap="round" d="M453.59375 255.85516L458.51562 255.33954Q458.73438 257.0114 459.76562 257.9958Q460.8125 258.96454 462.15625 258.96454Q463.70312 258.96454 464.78125 257.71454Q465.85938 256.4489 465.85938 253.91766Q465.85938 251.54266 464.78125 250.35516Q463.71875 249.16766 462.01562 249.16766Q459.89062 249.16766 458.20312 251.05829L454.20312 250.48016L456.73438 237.05829L469.79688 237.05829L469.79688 241.68329L460.46875 241.68329L459.70312 246.05829Q461.35938 245.23016 463.07812 245.23016Q466.35938 245.23016 468.64062 247.62079Q470.9375 250.01141 470.9375 253.82391Q470.9375 257.0114 469.09375 259.5114Q466.57812 262.91766 462.10938 262.91766Q458.54688 262.91766 456.29688 261.0114Q454.04688 259.08954 453.59375 255.85516ZM477.76562 248.57391Q475.84375 247.76141 474.96875 246.35516Q474.10938 244.93329 474.10938 243.24579Q474.10938 240.37079 476.125 238.49579Q478.14062 236.60516 481.84375 236.60516Q485.51562 236.60516 487.54688 238.49579Q489.57812 240.37079 489.57812 243.24579Q489.57812 245.04266 488.64062 246.44891Q487.71875 247.83954 486.03125 248.57391Q488.17188 249.43329 489.28125 251.08954Q490.40625 252.74579 490.40625 254.90204Q490.40625 258.46454 488.125 260.6989Q485.85938 262.9333 482.07812 262.9333Q478.5625 262.9333 476.21875 261.08954Q473.45312 258.91766 473.45312 255.12079Q473.45312 253.02704 474.48438 251.27704Q475.53125 249.52704 477.76562 248.57391ZM478.78125 243.60516Q478.78125 245.07391 479.60938 245.90204Q480.45312 246.73016 481.84375 246.73016Q483.25 246.73016 484.09375 245.90204Q484.9375 245.05829 484.9375 243.58954Q484.9375 242.19891 484.09375 241.37079Q483.26562 240.52704 481.89062 240.52704Q480.46875 240.52704 479.625 241.37079Q478.78125 242.21454 478.78125 243.60516ZM478.32812 254.63641Q478.32812 256.6833 479.375 257.8239Q480.42188 258.96454 481.98438 258.96454Q483.51562 258.96454 484.51562 257.8708Q485.51562 256.7614 485.51562 254.69891Q485.51562 252.88641 484.5 251.79266Q483.48438 250.68329 481.92188 250.68329Q480.10938 250.68329 479.21875 251.93329Q478.32812 253.18329 478.32812 254.63641ZM493.53125 241.65204L493.53125 237.05829L510.42188 237.05829L510.42188 240.65204Q508.32812 242.69891 506.15625 246.55829Q504.0 250.40204 502.85938 254.74579Q501.73438 259.0739 501.75 262.48016L497.0 262.48016Q497.10938 257.1364 499.1875 251.58954Q501.28125 246.02704 504.76562 241.65204L493.53125 241.65204Z" fill-rule="nonzero"/><path fill="#4285f4" d="M453.59375 255.85516L458.51562 255.33954Q458.73438 257.0114 459.76562 257.9958Q460.8125 258.96454 462.15625 258.96454Q463.70312 258.96454 464.78125 257.71454Q465.85938 256.4489 465.85938 253.91766Q465.85938 251.54266 464.78125 250.35516Q463.71875 249.16766 462.01562 249.16766Q459.89062 249.16766 458.20312 251.05829L454.20312 250.48016L456.73438 237.05829L469.79688 237.05829L469.79688 241.68329L460.46875 241.68329L459.70312 246.05829Q461.35938 245.23016 463.07812 245.23016Q466.35938 245.23016 468.64062 247.62079Q470.9375 250.01141 470.9375 253.82391Q470.9375 257.0114 469.09375 259.5114Q466.57812 262.91766 462.10938 262.91766Q458.54688 262.91766 456.29688 261.0114Q454.04688 259.08954 453.59375 255.85516ZM477.76562 248.57391Q475.84375 247.76141 474.96875 246.35516Q474.10938 244.93329 474.10938 243.24579Q474.10938 240.37079 476.125 238.49579Q478.14062 236.60516 481.84375 236.60516Q485.51562 236.60516 487.54688 238.49579Q489.57812 240.37079 489.57812 243.24579Q489.57812 245.04266 488.64062 246.44891Q487.71875 247.83954 486.03125 248.57391Q488.17188 249.43329 489.28125 251.08954Q490.40625 252.74579 490.40625 254.90204Q490.40625 258.46454 488.125 260.6989Q485.85938 262.9333 482.07812 262.9333Q478.5625 262.9333 476.21875 261.08954Q473.45312 258.91766 473.45312 255.12079Q473.45312 253.02704 474.48438 251.27704Q475.53125 249.52704 477.76562 248.57391ZM478.78125 243.60516Q478.78125 245.07391 479.60938 245.90204Q480.45312 246.73016 481.84375 246.73016Q483.25 246.73016 484.09375 245.90204Q484.9375 245.05829 484.9375 243.58954Q484.9375 242.19891 484.09375 241.37079Q483.26562 240.52704 481.89062 240.52704Q480.46875 240.52704 479.625 241.37079Q478.78125 242.21454 478.78125 243.60516ZM478.32812 254.63641Q478.32812 256.6833 479.375 257.8239Q480.42188 258.96454 481.98438 258.96454Q483.51562 258.96454 484.51562 257.8708Q485.51562 256.7614 485.51562 254.69891Q485.51562 252.88641 484.5 251.79266Q483.48438 250.68329 481.92188 250.68329Q480.10938 250.68329 479.21875 251.93329Q478.32812 253.18329 478.32812 254.63641ZM493.53125 241.65204L493.53125 237.05829L510.42188 237.05829L510.42188 240.65204Q508.32812 242.69891 506.15625 246.55829Q504.0 250.40204 502.85938 254.74579Q501.73438 259.0739 501.75 262.48016L497.0 262.48016Q497.10938 257.1364 499.1875 251.58954Q501.28125 246.02704 504.76562 241.65204L493.53125 241.65204Z" fill-rule="nonzero"/><path fill="#000000" d="M92.63438 526.20374Q95.75938 526.20374 97.50938 528.4225Q99.60313 531.0631 99.60313 537.1725Q99.60313 543.26624 97.49375 545.9381Q95.75938 548.1256 92.63438 548.1256Q89.49375 548.1256 87.57188 545.71936Q85.66563 543.3131 85.66563 537.1256Q85.66563 531.0631 87.775 528.40686Q89.50938 526.20374 92.63438 526.20374ZM92.63438 529.61Q91.88438 529.61 91.29063 530.09436Q90.7125 530.5631 90.38438 531.7975Q89.9625 533.39124 89.9625 537.1725Q89.9625 540.95374 90.3375 542.3756Q90.72813 543.78186 91.30625 544.2506Q91.88438 544.71936 92.63438 544.71936Q93.38438 544.71936 93.9625 544.2506Q94.55625 543.76624 94.86875 542.53186Q95.30625 540.95374 95.30625 537.1725Q95.30625 533.39124 94.91563 531.985Q94.54063 530.5631 93.9625 530.09436Q93.38438 529.61 92.63438 529.61Z" fill-rule="nonzero"/><path fill="#000000" d="M65.57188 445.4799L65.57188 449.308L51.15 449.308Q51.384377 447.13614 52.55625 445.19864Q53.728127 443.26114 57.18125 440.0424Q59.9625 437.46426 60.603127 436.52676Q61.446877 435.26114 61.446877 434.01114Q61.446877 432.63614 60.696877 431.90176Q59.9625 431.15176 58.665627 431.15176Q57.36875 431.15176 56.603127 431.933Q55.853127 432.71426 55.728127 434.51114L51.634377 434.1049Q51.99375 430.69864 53.93125 429.2299Q55.86875 427.7455 58.759377 427.7455Q61.946877 427.7455 63.759377 429.46426Q65.57188 431.1674 65.57188 433.71426Q65.57188 435.1674 65.05625 436.4799Q64.54063 437.7924 63.415627 439.2299Q62.665627 440.183 60.7125 441.9799Q58.759377 443.76114 58.24375 444.3549Q57.728127 444.933 57.4 445.4799L65.57188 445.4799ZM68.72813 443.7924L72.8375 443.3549Q73.00938 444.7455 73.86875 445.558Q74.74375 446.3705 75.86875 446.3705Q77.15 446.3705 78.04063 445.32364Q78.94688 444.27676 78.94688 442.1674Q78.94688 440.19864 78.05625 439.21426Q77.16563 438.21426 75.74375 438.21426Q73.97813 438.21426 72.57188 439.7924L69.22813 439.308L71.3375 428.1205L82.22813 428.1205L82.22813 431.9799L74.4625 431.9799L73.82188 435.6205Q75.19688 434.933 76.63438 434.933Q79.36875 434.933 81.275 436.933Q83.18125 438.9174 83.18125 442.1049Q83.18125 444.7455 81.63438 446.83926Q79.54063 449.6674 75.82188 449.6674Q72.85313 449.6674 70.97813 448.07364Q69.10313 446.4799 68.72813 443.7924ZM92.63438 427.7455Q95.75938 427.7455 97.50938 429.96426Q99.60313 432.6049 99.60313 438.71426Q99.60313 444.808 97.49375 447.4799Q95.75938 449.6674 92.63438 449.6674Q89.49375 449.6674 87.57188 447.26114Q85.66563 444.8549 85.66563 438.6674Q85.66563 432.6049 87.775 429.94864Q89.50938 427.7455 92.63438 427.7455ZM92.63438 431.15176Q91.88438 431.15176 91.29063 431.63614Q90.7125 432.1049 90.38438 433.33926Q89.9625 434.933 89.9625 438.71426Q89.9625 442.4955 90.3375 443.9174Q90.72813 445.32364 91.30625 445.7924Q91.88438 446.26114 92.63438 446.26114Q93.38438 446.26114 93.9625 445.7924Q94.55625 445.308 94.86875 444.07364Q95.30625 442.4955 95.30625 438.71426Q95.30625 434.933 94.91563 433.52676Q94.54063 432.1049 93.9625 431.63614Q93.38438 431.15176 92.63438 431.15176Z" fill-rule="nonzero"/><path fill="#000000" d="M51.728127 345.33417L55.8375 344.89667Q56.009377 346.2873 56.86875 347.0998Q57.74375 347.9123 58.86875 347.9123Q60.15 347.9123 61.040627 346.86542Q61.946877 345.81854 61.946877 343.70917Q61.946877 341.74042 61.05625 340.75604Q60.165627 339.75604 58.74375 339.75604Q56.978127 339.75604 55.571877 341.33417L52.228127 340.8498L54.3375 329.6623L65.22813 329.6623L65.22813 333.52167L57.4625 333.52167L56.821877 337.1623Q58.196877 336.4748 59.634377 336.4748Q62.36875 336.4748 64.275 338.4748Q66.18125 340.45917 66.18125 343.64667Q66.18125 346.2873 64.63438 348.38104Q62.540627 351.20917 58.821877 351.20917Q55.853127 351.20917 53.978127 349.61542Q52.103127 348.02167 51.728127 345.33417ZM75.63438 329.2873Q78.75938 329.2873 80.50938 331.50604Q82.60313 334.14667 82.60313 340.25604Q82.60313 346.3498 80.49375 349.02167Q78.75938 351.20917 75.63438 351.20917Q72.49375 351.20917 70.57188 348.80292Q68.66563 346.39667 68.66563 340.20917Q68.66563 334.14667 70.775 331.49042Q72.50938 329.2873 75.63438 329.2873ZM75.63438 332.69354Q74.88438 332.69354 74.29063 333.17792Q73.7125 333.64667 73.38438 334.88104Q72.9625 336.4748 72.9625 340.25604Q72.9625 344.0373 73.3375 345.45917Q73.72813 346.86542 74.30625 347.33417Q74.88438 347.80292 75.63438 347.80292Q76.38438 347.80292 76.9625 347.33417Q77.55625 346.8498 77.86875 345.61542Q78.30625 344.0373 78.30625 340.25604Q78.30625 336.4748 77.91563 335.06854Q77.54063 333.64667 76.9625 333.17792Q76.38438 332.69354 75.63438 332.69354ZM92.63438 329.2873Q95.75938 329.2873 97.50938 331.50604Q99.60313 334.14667 99.60313 340.25604Q99.60313 346.3498 97.49375 349.02167Q95.75938 351.20917 92.63438 351.20917Q89.49375 351.20917 87.57188 348.80292Q85.66563 346.39667 85.66563 340.20917Q85.66563 334.14667 87.775 331.49042Q89.50938 329.2873 92.63438 329.2873ZM92.63438 332.69354Q91.88438 332.69354 91.29063 333.17792Q90.7125 333.64667 90.38438 334.88104Q89.9625 336.4748 89.9625 340.25604Q89.9625 344.0373 90.3375 345.45917Q90.72813 346.86542 91.30625 347.33417Q91.88438 347.80292 92.63438 347.80292Q93.38438 347.80292 93.9625 347.33417Q94.55625 346.8498 94.86875 345.61542Q95.30625 344.0373 95.30625 340.25604Q95.30625 336.4748 94.91563 335.06854Q94.54063 333.64667 93.9625 333.17792Q93.38438 332.69354 92.63438 332.69354Z" fill-rule="nonzero"/><path fill="#000000" d="M51.68125 235.0322L51.68125 231.20407L65.75938 231.20407L65.75938 234.20407Q64.00938 235.9072 62.196877 239.12595Q60.4 242.32907 59.446877 245.93845Q58.509377 249.54782 58.525 252.39157L54.55625 252.39157Q54.665627 247.93845 56.4 243.31345Q58.134377 238.67282 61.040627 235.0322L51.68125 235.0322ZM68.72813 246.87595L72.8375 246.43845Q73.00938 247.82907 73.86875 248.64157Q74.74375 249.45407 75.86875 249.45407Q77.15 249.45407 78.04063 248.4072Q78.94688 247.36032 78.94688 245.25095Q78.94688 243.2822 78.05625 242.29782Q77.16563 241.29782 75.74375 241.29782Q73.97813 241.29782 72.57188 242.87595L69.22813 242.39157L71.3375 231.20407L82.22813 231.20407L82.22813 235.06345L74.4625 235.06345L73.82188 238.70407Q75.19688 238.01657 76.63438 238.01657Q79.36875 238.01657 81.275 240.01657Q83.18125 242.00095 83.18125 245.18845Q83.18125 247.82907 81.63438 249.92282Q79.54063 252.75095 75.82188 252.75095Q72.85313 252.75095 70.97813 251.1572Q69.10313 249.56345 68.72813 246.87595ZM92.63438 230.82907Q95.75938 230.82907 97.50938 233.04782Q99.60313 235.68845 99.60313 241.79782Q99.60313 247.89157 97.49375 250.56345Q95.75938 252.75095 92.63438 252.75095Q89.49375 252.75095 87.57188 250.3447Q85.66563 247.93845 85.66563 241.75095Q85.66563 235.68845 87.775 233.0322Q89.50938 230.82907 92.63438 230.82907ZM92.63438 234.23532Q91.88438 234.23532 91.29063 234.7197Q90.7125 235.18845 90.38438 236.42282Q89.9625 238.01657 89.9625 241.79782Q89.9625 245.57907 90.3375 247.00095Q90.72813 248.4072 91.30625 248.87595Q91.88438 249.3447 92.63438 249.3447Q93.38438 249.3447 93.9625 248.87595Q94.55625 248.39157 94.86875 247.1572Q95.30625 245.57907 95.30625 241.79782Q95.30625 238.01657 94.91563 236.61032Q94.54063 235.18845 93.9625 234.7197Q93.38438 234.23532 92.63438 234.23532Z" fill-rule="nonzero"/><path fill="#000000" d="M45.2125 153.93333L41.0875 153.93333L41.0875 138.41771Q38.8375 140.52708 35.775 141.54271L35.775 137.80833Q37.384377 137.27708 39.275 135.80833Q41.165627 134.33958 41.86875 132.37083L45.2125 132.37083L45.2125 153.93333ZM58.634377 132.37083Q61.759377 132.37083 63.509377 134.58958Q65.60313 137.23021 65.60313 143.33958Q65.60313 149.43333 63.49375 152.10521Q61.759377 154.29271 58.634377 154.29271Q55.49375 154.29271 53.571877 151.88646Q51.665627 149.48021 51.665627 143.29271Q51.665627 137.23021 53.775 134.57396Q55.509377 132.37083 58.634377 132.37083ZM58.634377 135.77708Q57.884377 135.77708 57.290627 136.26146Q56.7125 136.73021 56.384377 137.96458Q55.9625 139.55833 55.9625 143.33958Q55.9625 147.12083 56.3375 148.54271Q56.728127 149.94896 57.30625 150.41771Q57.884377 150.88646 58.634377 150.88646Q59.384377 150.88646 59.9625 150.41771Q60.55625 149.93333 60.86875 148.69896Q61.30625 147.12083 61.30625 143.33958Q61.30625 139.55833 60.915627 138.15208Q60.540627 136.73021 59.9625 136.26146Q59.384377 135.77708 58.634377 135.77708ZM75.63438 132.37083Q78.75938 132.37083 80.50938 134.58958Q82.60313 137.23021 82.60313 143.33958Q82.60313 149.43333 80.49375 152.10521Q78.75938 154.29271 75.63438 154.29271Q72.49375 154.29271 70.57188 151.88646Q68.66563 149.48021 68.66563 143.29271Q68.66563 137.23021 70.775 134.57396Q72.50938 132.37083 75.63438 132.37083ZM75.63438 135.77708Q74.88438 135.77708 74.29063 136.26146Q73.7125 136.73021 73.38438 137.96458Q72.9625 139.55833 72.9625 143.33958Q72.9625 147.12083 73.3375 148.54271Q73.72813 149.94896 74.30625 150.41771Q74.88438 150.88646 75.63438 150.88646Q76.38438 150.88646 76.9625 150.41771Q77.55625 149.93333 77.86875 148.69896Q78.30625 147.12083 78.30625 143.33958Q78.30625 139.55833 77.91563 138.15208Q77.54063 136.73021 76.9625 136.26146Q76.38438 135.77708 75.63438 135.77708ZM92.63438 132.37083Q95.75938 132.37083 97.50938 134.58958Q99.60313 137.23021 99.60313 143.33958Q99.60313 149.43333 97.49375 152.10521Q95.75938 154.29271 92.63438 154.29271Q89.49375 154.29271 87.57188 151.88646Q85.66563 149.48021 85.66563 143.29271Q85.66563 137.23021 87.775 134.57396Q89.50938 132.37083 92.63438 132.37083ZM92.63438 135.77708Q91.88438 135.77708 91.29063 136.26146Q90.7125 136.73021 90.38438 137.96458Q89.9625 139.55833 89.9625 143.33958Q89.9625 147.12083 90.3375 148.54271Q90.72813 149.94896 91.30625 150.41771Q91.88438 150.88646 92.63438 150.88646Q93.38438 150.88646 93.9625 150.41771Q94.55625 149.93333 94.86875 148.69896Q95.30625 147.12083 95.30625 143.33958Q95.30625 139.55833 94.91563 138.15208Q94.54063 136.73021 93.9625 136.26146Q93.38438 135.77708 92.63438 135.77708Z" fill-rule="nonzero"/><path fill="#000000" d="M141.46321 628.5896L144.1701 631.29645L133.97229 641.49426Q132.60228 639.7928 132.0609 637.5941Q131.51952 635.3955 131.68524 630.67773Q131.82887 626.8881 131.61896 625.7722Q131.32065 624.28064 130.43677 623.3968Q129.4645 622.4245 128.41487 622.43555Q127.365265 622.4245 126.448235 623.3415Q125.531204 624.25854 125.54226 625.35236Q125.564354 626.4351 126.746544 627.79407L123.56457 630.40155Q121.4101 627.73883 121.741554 625.33026Q122.061966 622.91064 124.10595 620.86664Q126.35985 618.61273 128.85683 618.54645Q131.34274 618.4691 133.14366 620.27Q134.17117 621.29755 134.73465 622.5902Q135.29813 623.8829 135.51909 625.6949Q135.66272 626.8992 135.55223 629.5508Q135.43071 632.1914 135.48595 632.9758Q135.53014 633.74927 135.68481 634.368L141.46321 628.5896ZM136.03838 608.9342Q138.24808 606.7245 141.05441 607.05597Q144.40211 607.4427 148.7221 611.76263Q153.03104 616.0716 153.42879 619.45245Q153.74919 622.2256 151.53947 624.4353Q149.31873 626.65607 146.25827 626.3136Q143.20888 625.96 138.83365 621.5848Q134.54681 617.298 134.16013 613.92816Q133.82866 611.1439 136.03838 608.9342ZM138.44696 611.3428Q137.91663 611.8731 137.83928 612.6355Q137.76195 613.37573 138.40276 614.4806Q139.2314 615.9058 141.90515 618.5796Q144.5789 621.25336 145.84947 621.9936Q147.12006 622.71173 147.86032 622.6344Q148.60057 622.55707 149.13089 622.02673Q149.66122 621.4964 149.73857 620.75616Q149.8159 619.99384 149.16405 618.9Q148.3575 617.47473 145.68375 614.80096Q143.01001 612.12726 141.73943 611.4091Q140.46884 610.6688 139.72859 610.74615Q138.97728 610.81244 138.44696 611.3428ZM165.83629 609.63025L162.91948 612.5471L151.94827 601.57587Q151.84883 604.65845 150.40147 607.5421L147.76088 604.9015Q148.52322 603.3878 148.82153 601.0124Q149.11984 598.63696 148.22491 596.7477L150.58931 594.3833L165.83629 609.63025ZM166.9522 601.4875L169.46022 598.3608Q170.4325 599.11206 171.28323 599.101Q172.12291 599.0789 172.84106 598.3608Q173.74706 597.4548 173.54817 595.9964Q173.3493 594.53796 170.91862 591.7537Q171.0954 594.1181 169.43813 595.7754Q167.64825 597.56525 164.96346 597.4879Q162.28972 597.39954 160.06895 595.1788Q157.75981 592.8696 157.71562 590.0854Q157.67142 587.30115 159.80379 585.1688Q162.11293 582.8597 165.3833 583.169Q168.64262 583.46735 172.74164 587.56635Q176.90694 591.7316 177.20525 595.12354Q177.49251 598.5044 175.01764 600.97925Q173.23882 602.75806 171.19484 602.9238Q169.15086 603.06744 166.9522 601.4875ZM167.18422 588.5497Q165.77 587.13544 164.34474 587.0139Q162.91948 586.8703 162.06874 587.721Q161.26219 588.5275 161.37268 589.6987Q161.48317 590.8699 162.93053 592.3172Q164.39998 593.7867 165.67056 593.9082Q166.94115 594.0076 167.80293 593.1459Q168.64262 592.30615 168.55423 591.0687Q168.46585 589.8313 167.18422 588.5497Z" fill-rule="nonzero"/><path fill="#000000" d="M175.74684 573.86615Q176.86275 577.98724 176.29927 582.68286L172.69743 582.2409Q173.65866 576.0427 170.03474 569.81134L172.9405 568.1209Q174.68617 568.1209 173.76915 569.3031L174.38786 570.7394L185.9115 559.21576L188.15436 561.4586L182.1108 567.5022L184.26526 569.6566L189.2371 564.6848L191.46892 566.9166L186.49707 571.8884L189.56857 574.95996L196.52914 567.9994L198.76096 570.23114L191.80037 577.1918L196.78326 582.1746L194.46307 584.4948L189.48018 579.51196L179.94528 589.0468L177.71349 586.815L181.44789 583.0806L176.14459 577.77734L181.94507 571.97687L179.7906 569.8224L175.74684 573.86615ZM183.76808 580.76044L187.24837 577.28015L184.17688 574.2086L180.69658 577.68896L183.76808 580.76044Z" fill-rule="nonzero"/><path fill="#000000" d="M241.02226 628.5896L243.72916 631.29645L233.53134 641.49426Q232.16133 639.7928 231.61995 637.5941Q231.07857 635.3955 231.2443 630.67773Q231.38792 626.8881 231.17801 625.7722Q230.8797 624.28064 229.99582 623.3968Q229.02354 622.4245 227.97392 622.43555Q226.92432 622.4245 226.0073 623.3415Q225.09026 624.25854 225.1013 625.35236Q225.12341 626.4351 226.3056 627.79407L223.12363 630.40155Q220.96915 627.73883 221.30061 625.33026Q221.62102 622.91064 223.665 620.86664Q225.9189 618.61273 228.41588 618.54645Q230.9018 618.4691 232.70271 620.27Q233.73022 621.29755 234.2937 622.5902Q234.85718 623.8829 235.07814 625.6949Q235.22177 626.8992 235.11128 629.5508Q234.98976 632.1914 235.045 632.9758Q235.08919 633.74927 235.24387 634.368L241.02226 628.5896ZM235.59744 608.9342Q237.80714 606.7245 240.61348 607.05597Q243.96118 607.4426 248.28116 611.76263Q252.5901 616.0716 252.98784 619.4524Q253.30826 622.2256 251.09854 624.4353Q248.87778 626.65607 245.81732 626.3136Q242.76793 625.96 238.3927 621.5848Q234.10587 617.298 233.71918 613.92816Q233.38771 611.1439 235.59744 608.9342ZM238.00601 611.3428Q237.4757 611.8731 237.39833 612.6355Q237.321 613.37573 237.9618 614.4806Q238.79045 615.9058 241.4642 618.5796Q244.13795 621.25336 245.40854 621.9936Q246.67911 622.71173 247.41937 622.6344Q248.15964 622.55707 248.68996 622.02673Q249.22029 621.4964 249.29762 620.75616Q249.37497 619.9938 248.7231 618.9Q247.91656 617.47473 245.24281 614.80096Q242.56906 612.12726 241.29848 611.40906Q240.02791 610.6688 239.28764 610.74615Q238.53635 610.81244 238.00601 611.3428ZM265.0639 604.5479L267.77078 607.2548L257.573 617.45264Q256.20297 615.75116 255.66159 613.5525Q255.12021 611.3538 255.28593 606.6361Q255.42957 602.84644 255.21965 601.7305Q254.92134 600.239 254.03746 599.3551Q253.06519 598.3829 252.01556 598.3939Q250.96596 598.3829 250.04893 599.29987Q249.1319 600.2169 249.14294 601.3107Q249.16505 602.3935 250.34724 603.75244L247.16527 606.3599Q245.01079 603.6972 245.34225 601.28864Q245.66266 598.86896 247.70663 596.825Q249.96054 594.5711 252.45752 594.5048Q254.94344 594.4275 256.74435 596.2284Q257.77185 597.2559 258.33533 598.5486Q258.8988 599.84125 259.11978 601.6532Q259.26343 602.8575 259.15292 605.50916Q259.0314 608.1498 259.08664 608.9342Q259.13083 609.7076 259.28552 610.3263L265.0639 604.5479ZM259.63907 584.8926Q261.8488 582.68286 264.6551 583.01434Q268.0028 583.401 272.32278 587.721Q276.6317 592.0299 277.02948 595.41077Q277.34988 598.18396 275.14017 600.3937Q272.9194 602.61444 269.85898 602.2719Q266.80957 601.9184 262.43436 597.54315Q258.14752 593.25635 257.7608 589.88654Q257.42935 587.1023 259.63907 584.8926ZM262.04764 587.30115Q261.51733 587.8315 261.43997 588.5938Q261.36264 589.3341 262.00345 590.43896Q262.8321 591.8642 265.50583 594.53796Q268.1796 597.21173 269.45016 597.95197Q270.72076 598.6701 271.461 598.5928Q272.20126 598.51544 272.7316 597.9851Q273.26193 597.4548 273.33926 596.71454Q273.4166 595.95215 272.76474 594.85834Q271.9582 593.4331 269.28445 590.75934Q266.6107 588.08563 265.34012 587.36743Q264.06952 586.6272 263.32928 586.7045Q262.57797 586.7708 262.04764 587.30115Z" fill-rule="nonzero"/><path fill="#000000" d="M275.3059 573.86615Q276.4218 577.98724 275.85834 582.68286L272.2565 582.2409Q273.2177 576.04266 269.5938 569.81134L272.49957 568.1209Q274.24524 568.1209 273.32822 569.3031L273.94693 570.7394L285.47055 559.21576L287.7134 561.4586L281.66986 567.5022L283.82434 569.6566L288.79617 564.6848L291.02798 566.9166L286.05612 571.8884L289.12762 574.95996L296.08823 567.9993L298.32 570.23114L291.35944 577.1918L296.34232 582.1746L294.02213 584.4948L289.03925 579.51196L279.50433 589.0468L277.27255 586.815L281.00696 583.0806L275.70364 577.77734L281.50412 571.9768L279.34967 569.8224L275.3059 573.86615ZM283.32715 580.76044L286.80743 577.28015L283.73593 574.2086L280.25565 577.6889L283.32715 580.76044Z" fill-rule="nonzero"/><path fill="#000000" d="M340.58133 628.5896L343.2882 631.29645L333.09042 641.49426Q331.7204 639.7928 331.17902 637.5941Q330.63763 635.39545 330.80338 630.67773Q330.947 626.8881 330.73706 625.7722Q330.43875 624.28064 329.55487 623.3967Q328.5826 622.4245 327.533 622.43555Q326.48337 622.4245 325.56635 623.3415Q324.64932 624.25854 324.66037 625.35236Q324.68246 626.4351 325.86465 627.79407L322.68268 630.40155Q320.52823 627.73883 320.85968 625.33026Q321.18008 622.91064 323.22406 620.86664Q325.47797 618.61273 327.97495 618.54645Q330.46085 618.4691 332.26178 620.27Q333.28928 621.29755 333.85275 622.5902Q334.41623 623.8829 334.6372 625.6948Q334.78085 626.8992 334.67035 629.5508Q334.54883 632.1914 334.60406 632.9758Q334.64825 633.74927 334.80295 634.368L340.58133 628.5896ZM335.1565 608.9342Q337.3662 606.7245 340.17252 607.05597Q343.52023 607.4426 347.8402 611.76263Q352.14914 616.0716 352.5469 619.45245Q352.8673 622.2256 350.6576 624.4353Q348.43683 626.65607 345.3764 626.3136Q342.327 625.96 337.95178 621.5848Q333.66495 617.298 333.27823 613.92816Q332.94678 611.1439 335.1565 608.9342ZM337.56506 611.3428Q337.03473 611.8731 336.9574 612.6355Q336.88007 613.37573 337.52087 614.4806Q338.34952 615.9058 341.02325 618.5796Q343.69702 621.25336 344.9676 621.9936Q346.2382 622.71173 346.97842 622.6344Q347.7187 622.55707 348.24902 622.02673Q348.77933 621.4964 348.8567 620.75616Q348.93402 619.9938 348.28217 618.9Q347.47562 617.47473 344.80188 614.80096Q342.1281 612.12726 340.85754 611.40906Q339.58694 610.6688 338.8467 610.74615Q338.0954 610.81244 337.56506 611.3428ZM364.62296 604.5479L367.32983 607.2548L357.13205 617.45264Q355.76202 615.75116 355.22064 613.5525Q354.67926 611.3538 354.845 606.6361Q354.98862 602.84644 354.7787 601.7305Q354.48038 600.239 353.5965 599.3551Q352.62424 598.3829 351.57462 598.3939Q350.52502 598.3829 349.60797 599.29987Q348.69095 600.2169 348.702 601.3107Q348.7241 602.3935 349.90628 603.75244L346.7243 606.3599Q344.56985 603.6972 344.9013 601.28864Q345.2217 598.86896 347.2657 596.825Q349.5196 594.5711 352.01657 594.5048Q354.5025 594.4275 356.3034 596.2284Q357.3309 597.2559 357.89438 598.5486Q358.45786 599.84125 358.67883 601.6532Q358.82248 602.8575 358.71198 605.50916Q358.59045 608.1498 358.6457 608.9342Q358.68988 609.7076 358.84457 610.32635L364.62296 604.5479ZM376.97522 597.60944L374.0584 600.52625L363.08722 589.55505Q362.98776 592.63763 361.5404 595.5213L358.8998 592.8807Q359.66217 591.367 359.96048 588.9916Q360.2588 586.61615 359.36386 584.72687L361.72824 582.3625L376.97522 597.60944Z" fill-rule="nonzero"/><path fill="#000000" d="M374.86496 573.86615Q375.98087 577.98724 375.4174 582.68286L371.81555 582.2409Q372.77676 576.0427 369.15286 569.81134L372.05862 568.1209Q373.8043 568.1209 372.88727 569.3031L373.50598 570.7394L385.0296 559.21576L387.27246 561.4586L381.2289 567.5022L383.3834 569.6566L388.35522 564.6848L390.58704 566.9166L385.61517 571.8884L388.68668 574.95996L395.64728 567.9993L397.87906 570.23114L390.9185 577.1918L395.90137 582.1746L393.58118 584.4948L388.5983 579.51196L379.0634 589.0468L376.8316 586.815L380.566 583.0806L375.2627 577.77734L381.06317 571.9768L378.90872 569.8224L374.86496 573.86615ZM382.8862 580.76044L386.3665 577.28015L383.29498 574.2086L379.8147 577.6889L382.8862 580.76044Z" fill-rule="nonzero"/><path fill="#000000" d="M440.14038 628.5896L442.84726 631.29645L432.64948 641.49426Q431.27945 639.7928 430.73807 637.5941Q430.1967 635.39545 430.36243 630.67773Q430.50604 626.8881 430.2961 625.7722Q429.9978 624.28064 429.11392 623.3967Q428.14166 622.4245 427.09204 622.43555Q426.04242 622.4245 425.1254 623.3415Q424.20837 624.25854 424.21942 625.35236Q424.24152 626.4351 425.4237 627.79407L422.24173 630.40155Q420.08728 627.73883 420.41873 625.33026Q420.73914 622.91064 422.7831 620.86664Q425.03702 618.61273 427.534 618.54645Q430.0199 618.4691 431.82083 620.27Q432.84833 621.29755 433.4118 622.5902Q433.97528 623.8829 434.19626 625.6948Q434.3399 626.8992 434.2294 629.5508Q434.10788 632.1914 434.16312 632.9758Q434.2073 633.74927 434.362 634.368L440.14038 628.5896ZM434.71555 608.9342Q436.92526 606.7245 439.73157 607.05597Q443.07928 607.4427 447.39926 611.76263Q451.7082 616.0716 452.10596 619.45245Q452.42636 622.2256 450.21664 624.4353Q447.99588 626.65607 444.93546 626.3136Q441.88605 625.96 437.51083 621.5848Q433.224 617.298 432.83728 613.92816Q432.50583 611.1439 434.71555 608.9342ZM437.1241 611.3428Q436.59378 611.8731 436.51645 612.6355Q436.43912 613.37573 437.07993 614.4806Q437.90857 615.9058 440.5823 618.5796Q443.25607 621.25336 444.52664 621.9936Q445.79724 622.71173 446.53748 622.6344Q447.27774 622.55707 447.80807 622.02673Q448.3384 621.4964 448.41574 620.75616Q448.49307 619.9938 447.84122 618.9Q447.03467 617.47473 444.36093 614.80096Q441.68716 612.12726 440.4166 611.40906Q439.146 610.6688 438.40576 610.74615Q437.65445 610.81244 437.1241 611.3428ZM464.182 604.5479L466.8889 607.2548L456.6911 617.45264Q455.32108 615.75116 454.7797 613.5525Q454.2383 611.3538 454.40405 606.6361Q454.54767 602.84644 454.33777 601.7306Q454.03943 600.239 453.15555 599.3551Q452.1833 598.3829 451.13367 598.3939Q450.08408 598.3829 449.16702 599.29987Q448.25 600.2169 448.26105 601.3107Q448.28314 602.3935 449.46533 603.75244L446.28336 606.3599Q444.1289 603.6972 444.46036 601.28864Q444.78076 598.869 446.82474 596.825Q449.07864 594.5711 451.57562 594.5048Q454.06155 594.4275 455.86246 596.2284Q456.88995 597.2559 457.45343 598.5486Q458.0169 599.84125 458.23788 601.6532Q458.38153 602.85754 458.27103 605.50916Q458.1495 608.1498 458.20474 608.9342Q458.24893 609.7076 458.40363 610.32635L464.182 604.5479ZM476.20282 592.5271L478.90973 595.234L468.7119 605.4318Q467.3419 603.73035 466.8005 601.5317Q466.25912 599.333 466.42487 594.6153Q466.56848 590.8256 466.35858 589.7097Q466.06027 588.2182 465.17636 587.3343Q464.2041 586.36206 463.15448 586.3731Q462.1049 586.36206 461.18787 587.27905Q460.2708 588.1961 460.28186 589.2899Q460.30396 590.3727 461.48618 591.7316L458.30417 594.3391Q456.14972 591.6764 456.48117 589.2678Q456.80157 586.84814 458.84555 584.8042Q461.09946 582.5503 463.59644 582.484Q466.08237 582.4067 467.88327 584.2076Q468.9108 585.2351 469.47427 586.5278Q470.03772 587.82043 470.2587 589.6324Q470.40234 590.8367 470.29184 593.48834Q470.17032 596.12897 470.22556 596.9134Q470.26974 597.68677 470.42444 598.30554L476.20282 592.5271Z" fill-rule="nonzero"/><path fill="#000000" d="M474.424 573.86615Q475.53992 577.98724 474.97644 582.68286L471.3746 582.2409Q472.33585 576.0427 468.7119 569.81134L471.61768 568.1209Q473.36334 568.1209 472.44632 569.3031L473.06503 570.7394L484.58865 559.21576L486.8315 561.4586L480.78796 567.5022L482.94244 569.6566L487.91428 564.6848L490.1461 566.9166L485.17422 571.8884L488.24573 574.95996L495.20633 567.9994L497.4381 570.23114L490.47754 577.1918L495.46042 582.1746L493.14023 584.4948L488.15735 579.51196L478.62247 589.0468L476.39066 586.815L480.12506 583.0806L474.82175 577.77734L480.62225 571.9768L478.46777 569.8224L474.424 573.86615ZM482.44525 580.76044L485.92554 577.28015L482.85403 574.2086L479.37375 577.6889L482.44525 580.76044Z" fill-rule="nonzero"/><path fill="#000000" d="M539.6994 628.5896L542.4063 631.2965L532.2085 641.4943Q530.8385 639.79285 530.2971 637.5942Q529.75574 635.3955 529.92145 630.6778Q530.06506 626.8881 529.85516 625.7722Q529.5568 624.28064 528.673 623.3968Q527.7007 622.4245 526.65106 622.43555Q525.60144 622.4245 524.68445 623.34155Q523.7674 624.25854 523.77844 625.35236Q523.80054 626.4351 524.9827 627.7941L521.8008 630.40155Q519.6463 627.73883 519.9778 625.33026Q520.29816 622.91064 522.34216 620.86664Q524.59607 618.61273 527.093 618.54645Q529.5789 618.4691 531.3799 620.27Q532.40735 621.29755 532.9708 622.5902Q533.5343 623.88293 533.7553 625.6949Q533.8989 626.8992 533.78845 629.55084Q533.66693 632.1914 533.72217 632.9759Q533.76636 633.74927 533.921 634.368L539.6994 628.5896ZM534.2746 608.93427Q536.48425 606.72455 539.2906 607.05597Q542.6383 607.4427 546.9583 611.76263Q551.2672 616.0716 551.665 619.45245Q551.9854 622.22565 549.7757 624.43536Q547.55493 626.6561 544.49445 626.3136Q541.44507 625.96 537.0698 621.58484Q532.783 617.298 532.3963 613.92816Q532.0649 611.1439 534.2746 608.93427ZM536.68317 611.34283Q536.15283 611.87317 536.0755 612.6355Q535.99817 613.37573 536.639 614.4806Q537.4676 615.9059 540.14136 618.5796Q542.8151 621.25336 544.0857 621.9936Q545.35626 622.7118 546.0965 622.63446Q546.8368 622.55707 547.3671 622.02673Q547.8974 621.49646 547.9748 620.75616Q548.0521 619.99384 547.40027 618.9Q546.5937 617.47473 543.9199 614.801Q541.2462 612.12726 539.97565 611.4091Q538.705 610.6689 537.9648 610.7462Q537.2135 610.8125 536.68317 611.34283ZM563.741 604.548L566.44794 607.2549L556.2501 617.45264Q554.8801 615.75116 554.33875 613.55255Q553.79736 611.3539 553.9631 606.63617Q554.1067 602.8465 553.8968 601.7306Q553.59845 600.239 552.7146 599.35516Q551.7423 598.3829 550.6927 598.3939Q549.64307 598.3829 548.7261 599.2999Q547.809 600.2169 547.82007 601.3107Q547.84216 602.3935 549.02435 603.75244L545.8424 606.3599Q543.6879 603.6972 544.0194 601.28864Q544.3398 598.869 546.3838 596.825Q548.6377 594.5711 551.13464 594.5048Q553.62054 594.4275 555.4215 596.2284Q556.449 597.2559 557.01245 598.5486Q557.5759 599.8413 557.79694 601.65326Q557.94055 602.85754 557.8301 605.5092Q557.70856 608.1498 557.7638 608.93427Q557.808 609.70764 557.96265 610.32635L563.741 604.548ZM564.50336 601.134L566.9783 597.97406Q568.1936 598.92426 569.3537 598.9132Q570.5138 598.88007 571.35345 598.04034Q572.25946 597.1344 572.1821 595.84174Q572.11584 594.53796 570.95575 593.37787Q569.86194 592.28406 568.6245 592.23987Q567.39813 592.18463 566.5584 593.02435Q565.99493 593.5878 565.43146 594.5711L563.3875 591.88635Q564.5918 590.72626 564.6691 589.56616Q564.74646 588.40607 563.84045 587.50006Q563.0781 586.73773 562.1721 586.73773Q561.2662 586.73773 560.5038 587.50006Q559.76355 588.2403 559.7525 589.2899Q559.7304 590.3285 560.6143 591.43335L557.4765 593.66516Q556.37164 592.0079 556.11755 590.62683Q555.85236 589.2347 556.39374 587.7652Q556.9351 586.2737 558.19464 585.01416Q560.3381 582.8707 563.0008 582.94806Q565.17737 583.0033 566.5805 584.4065Q568.5803 586.40625 567.597 589.77606Q569.188 588.7596 570.93365 588.9585Q572.69037 589.1463 574.06036 590.5163Q576.0602 592.5161 576.016 595.38873Q575.96075 598.2503 573.7842 600.4269Q571.7291 602.4819 569.188 602.6587Q566.6468 602.83545 564.50336 601.134Z" fill-rule="nonzero"/><path fill="#000000" d="M573.98303 573.86615Q575.09894 577.98724 574.53546 582.6829L570.93365 582.24097Q571.89484 576.0427 568.27094 569.81134L571.1767 568.1209Q572.92236 568.1209 572.0054 569.3031L572.6241 570.73944L584.1477 559.2158L586.39056 561.4586L580.347 567.5022L582.50146 569.6567L587.4733 564.6848L589.70514 566.9166L584.7333 571.8885L587.80475 574.95996L594.7653 567.9994L596.99713 570.2312L590.03656 577.1918L595.0195 582.1747L592.6993 584.4949L587.7164 579.51196L578.18146 589.0469L575.9497 586.81506L579.6841 583.0806L574.3808 577.77734L580.1813 571.97687L578.0268 569.8224L573.98303 573.86615ZM582.0043 580.76044L585.48456 577.28015L582.4131 574.2087L578.9328 577.68896L582.0043 580.76044Z" fill-rule="nonzero"/><path fill="#000000" d="M639.2585 628.5896L641.9654 631.29645L631.7676 641.49426Q630.3975 639.7928 629.85614 637.5941Q629.3148 635.3955 629.4805 630.67773Q629.62415 626.8881 629.41425 625.7722Q629.1159 624.28064 628.23206 623.3968Q627.25977 622.4245 626.21014 622.43555Q625.1605 622.4245 624.2435 623.3415Q623.3265 624.25854 623.3375 625.35236Q623.3596 626.4351 624.5418 627.79407L621.35986 630.40155Q619.2054 627.73883 619.5368 625.33026Q619.85724 622.91064 621.90125 620.86664Q624.15515 618.61273 626.6521 618.54645Q629.138 618.4691 630.9389 620.27Q631.96643 621.29755 632.5299 622.5902Q633.0934 623.8829 633.3144 625.6949Q633.458 626.8992 633.34753 629.5508Q633.22595 632.1914 633.2812 632.9758Q633.32544 633.74927 633.4801 634.368L639.2585 628.5896ZM633.8336 608.9342Q636.04333 606.7245 638.8497 607.05597Q642.1974 607.4427 646.5174 611.76263Q650.8263 616.0716 651.22406 619.45245Q651.54443 622.2256 649.3348 624.4353Q647.114 626.65607 644.0535 626.3136Q641.00415 625.96 636.6289 621.5848Q632.3421 617.298 631.9554 613.92816Q631.62396 611.1439 633.8336 608.9342ZM636.24225 611.3428Q635.7119 611.8731 635.6346 612.6355Q635.5572 613.37573 636.19806 614.4806Q637.0267 615.9058 639.70044 618.5796Q642.37415 621.25336 643.6448 621.9936Q644.91534 622.71173 645.6556 622.6344Q646.3958 622.55707 646.92615 622.02673Q647.4565 621.4964 647.5338 620.75616Q647.6112 619.99384 646.9593 618.9Q646.1528 617.47473 643.479 614.80096Q640.8053 612.12726 639.53467 611.4091Q638.2641 610.6688 637.52386 610.74615Q636.7726 610.8125 636.24225 611.3428ZM663.3001 604.548L666.007 607.2548L655.8092 617.45264Q654.4392 615.75116 653.8978 613.5525Q653.35645 611.3538 653.52216 606.6361Q653.6658 602.8465 653.4559 601.7306Q653.15753 600.239 652.2737 599.3551Q651.3014 598.3829 650.2518 598.3939Q649.20215 598.3829 648.28516 599.29987Q647.3681 600.2169 647.37915 601.3107Q647.40125 602.3935 648.58344 603.75244L645.4015 606.3599Q643.247 603.6972 643.5785 601.28864Q643.89886 598.869 645.9429 596.825Q648.1968 594.5711 650.6937 594.5048Q653.1796 594.4275 654.9805 596.2284Q656.00806 597.2559 656.57153 598.5486Q657.135 599.84125 657.356 601.6532Q657.49963 602.85754 657.38916 605.50916Q657.2676 608.1498 657.3229 608.9342Q657.36707 609.70764 657.5217 610.32635L663.3001 604.548ZM673.90674 599.3551L670.84625 596.2947L664.63696 602.50397L662.0958 599.9628L659.0354 583.7325L661.4771 581.2908L671.11145 590.9251L673.00073 589.03577L675.5529 591.588L673.66364 593.4773L676.7241 596.5378L673.90674 599.3551ZM668.29407 593.7425L663.10126 588.5497L664.80273 597.2338L668.29407 593.7425Z" fill-rule="nonzero"/><path fill="#000000" d="M673.5421 573.86615Q674.658 577.98724 674.09454 582.68286L670.49274 582.24097Q671.4539 576.0427 667.83 569.81134L670.7358 568.1209Q672.48145 568.1209 671.5644 569.3031L672.18317 570.7394L683.7068 559.21576L685.94965 561.4586L679.90607 567.5022L682.06055 569.6566L687.0324 564.6848L689.26416 566.9166L684.29236 571.8884L687.36383 574.95996L694.3244 567.9994L696.5562 570.23114L689.59564 577.1918L694.57855 582.1746L692.25836 584.4948L687.27545 579.51196L677.74054 589.0468L675.5087 586.81506L679.24316 583.0806L673.9399 577.77734L679.74036 571.97687L677.5859 569.8224L673.5421 573.86615ZM681.56335 580.76044L685.04364 577.28015L681.97217 574.2086L678.4919 577.68896L681.56335 580.76044Z" fill-rule="nonzero"/><path fill="#f39800" d="M236.4375 86.666664C236.4375 86.11438 236.88521 85.666664 237.4375 85.666664L247.4375 85.666664C247.98979 85.666664 248.4375 86.11438 248.4375 86.666664L248.4375 96.666664C248.4375 97.21895 247.98979 97.666664 247.4375 97.666664L237.4375 97.666664C236.88521 97.666664 236.4375 97.21895 236.4375 96.666664Z" fill-rule="nonzero"/><path fill="#1a1a1a" d="M271.5625 87.90104Q270.07812 96.385414 261.4375 100.21354L259.5625 98.24479Q267.5 95.010414 268.95312 87.885414L263.25 87.885414Q261.53125 90.74479 259.35938 92.729164L257.25 91.36979Q261.54688 87.479164 262.78125 82.322914L264.92188 83.072914Q266.04688 83.635414 264.89062 84.05729Q264.625 84.96354 264.29688 85.541664L269.32812 85.541664L270.15625 85.072914L271.73438 86.65104Q272.65625 87.572914 271.5625 87.90104ZM271.6875 86.229164Q270.26562 84.197914 268.84375 83.041664L270.34375 81.77604Q271.90625 83.135414 273.28125 84.979164L271.6875 86.229164ZM273.98438 85.30729Q272.53125 83.49479 271.29688 82.354164L272.6875 80.96354Q274.09375 82.27604 275.375 83.93229L273.98438 85.30729ZM288.40625 95.635414Q291.32812 94.49479 294.42188 90.24479L295.90625 92.260414Q292.75 96.572914 288.14062 98.40104L287.35938 98.791664L285.76562 97.604164L285.98438 97.041664L285.98438 84.21354L287.96875 84.21354Q289.3125 84.510414 288.40625 85.291664L288.40625 95.635414ZM277.125 98.24479Q281.21875 94.30729 281.21875 88.90104L281.21875 85.072914L283.20312 85.072914Q284.54688 85.36979 283.64062 86.15104L283.64062 88.822914Q283.64062 95.52604 279.21875 99.604164L277.125 98.24479ZM297.625 92.260414L297.625 89.916664L315.67188 89.916664L315.67188 92.260414L297.625 92.260414ZM331.625 84.604164Q332.125 84.604164 332.42188 84.30729Q332.71875 84.010414 332.71875 83.510414Q332.71875 83.010414 332.42188 82.71354Q332.125 82.416664 331.625 82.416664Q331.125 82.416664 330.82812 82.71354Q330.53125 83.010414 330.53125 83.510414Q330.53125 84.010414 330.82812 84.30729Q331.125 84.604164 331.625 84.604164ZM331.625 86.010414Q330.5625 86.010414 329.84375 85.291664Q329.125 84.572914 329.125 83.510414Q329.125 82.447914 329.84375 81.729164Q330.5625 81.010414 331.625 81.010414Q332.6875 81.010414 333.40625 81.729164Q334.125 82.447914 334.125 83.510414Q334.125 84.572914 333.40625 85.291664Q332.6875 86.010414 331.625 86.010414ZM317.32812 87.02604L317.32812 84.68229L329.3125 84.68229L331.54688 86.322914Q331.14062 96.166664 320.42188 99.18229L318.5625 96.916664Q328.59375 94.58854 329.03125 87.02604L317.32812 87.02604ZM346.34375 83.27604Q349.10938 86.760414 354.34375 88.40104L353.3125 90.77604Q347.625 88.697914 344.82812 84.822914Q343.625 87.30729 341.875 88.510414L349.85938 88.510414L349.85938 90.61979L340.48438 90.61979L340.48438 89.572914Q339.5625 90.33854 337.42188 91.322914L335.9375 89.322914Q341.875 86.55729 343.73438 81.979164L346.0 82.416664Q347.39062 82.61979 346.34375 83.27604ZM341.26562 100.229164L339.07812 100.229164L339.07812 91.86979L351.34375 91.86979L351.34375 99.99479L349.15625 99.99479L349.15625 99.135414L341.26562 99.135414L341.26562 100.229164ZM341.26562 97.02604L349.15625 97.02604L349.15625 93.979164L341.26562 93.979164L341.26562 97.02604ZM368.84375 88.27604L368.84375 82.02604L370.67188 82.02604Q372.3125 82.354164 371.03125 83.072914L371.03125 88.27604L375.01562 88.27604L375.01562 90.385414L371.03125 90.385414L371.03125 100.072914L368.84375 100.072914L368.84375 90.385414L364.625 90.385414L364.625 88.27604L368.84375 88.27604ZM364.625 99.83854L362.4375 99.83854L362.4375 99.05729L359.85938 99.05729L359.85938 100.15104L357.67188 100.15104L357.67188 93.11979L364.625 93.11979L364.625 99.83854ZM359.85938 94.99479L359.85938 97.18229L362.4375 97.18229L362.4375 94.99479L359.85938 94.99479ZM364.15625 90.46354L364.15625 92.572914L358.14062 92.572914L358.14062 90.46354L364.15625 90.46354ZM358.14062 87.885414L364.15625 87.885414L364.15625 89.99479L358.14062 89.99479L358.14062 87.885414ZM356.65625 85.30729L365.5625 85.30729L365.5625 87.416664L356.65625 87.416664L356.65625 85.30729ZM364.15625 82.49479L364.15625 84.604164L358.14062 84.604164L358.14062 82.49479L364.15625 82.49479Z" fill-rule="nonzero"/><path fill="#4285f4" d="M392.1875 86.666664C392.1875 86.11438 392.63522 85.666664 393.1875 85.666664L403.1875 85.666664C403.73978 85.666664 404.1875 86.11438 404.1875 86.666664L404.1875 96.666664C404.1875 97.21895 403.73978 97.666664 403.1875 97.666664L393.1875 97.666664C392.63522 97.666664 392.1875 97.21895 392.1875 96.666664Z" fill-rule="nonzero"/><path fill="#1a1a1a" d="M426.5625 85.30729L430.15625 85.30729L430.15625 87.65104L426.5625 87.65104L426.5625 89.447914L431.48438 89.447914L431.48438 91.791664L426.9375 91.791664Q428.04688 93.760414 432.125 96.21354L430.89062 98.58854Q427.5 96.15104 426.5625 94.760414L426.5625 100.46354L424.375 100.46354L424.375 95.05729Q423.28125 96.93229 420.04688 99.11979L418.89062 97.010414Q422.42188 94.541664 424.0625 91.791664L419.76562 91.791664L419.76562 89.447914L424.375 89.447914L424.375 87.65104L422.70312 87.65104Q422.29688 88.604164 421.1875 89.916664L419.48438 88.11979Q421.04688 86.479164 421.96875 83.291664L423.85938 83.760414Q425.10938 84.385414 423.84375 84.71354L423.64062 85.30729L424.375 85.30729L424.375 81.791664L426.1875 81.791664Q427.625 81.979164 426.5625 82.729164L426.5625 85.30729ZM418.20312 100.46354L416.01562 100.46354L416.01562 93.86979Q415.8125 94.385414 414.01562 96.36979L412.65625 94.166664Q415.17188 91.55729 415.875 87.96354L413.35938 87.96354L413.35938 85.61979L416.01562 85.61979L416.01562 81.791664L417.84375 81.791664Q419.26562 82.15104 418.20312 82.760414L418.20312 85.61979L420.39062 85.61979L420.39062 87.96354L418.20312 87.96354L418.20312 89.74479Q419.67188 90.697914 420.9375 92.33854L419.34375 94.36979Q418.26562 92.604164 418.20312 92.541664L418.20312 100.46354ZM447.9375 95.30729Q448.85938 97.02604 449.45312 97.02604Q449.5 97.02604 449.53125 96.822914L449.73438 95.072914L452.0625 96.135414L451.71875 98.24479Q451.4375 99.83854 450.0 99.83854Q447.46875 99.83854 445.73438 96.46354Q444.14062 93.354164 444.0625 88.041664L434.45312 88.041664L434.45312 85.697914L443.98438 85.697914L443.98438 82.104164L446.04688 82.104164Q447.59375 82.416664 446.40625 83.21354L446.40625 85.697914L451.875 85.697914L451.875 88.041664L446.42188 88.041664Q446.71875 93.104164 447.9375 95.30729ZM444.96875 97.11979Q440.29688 98.11979 436.04688 98.854164Q435.78125 100.041664 434.9375 98.86979L434.46875 96.510414Q436.76562 96.322914 438.35938 96.05729L438.35938 92.18229L435.23438 92.18229L435.23438 90.072914L443.59375 90.072914L443.59375 92.18229L440.54688 92.18229L440.54688 95.729164Q441.98438 95.541664 444.64062 95.010414L444.96875 97.11979ZM448.15625 82.43229Q449.46875 83.08854 450.78125 84.30729L448.89062 85.885414Q447.9375 84.93229 446.34375 84.041664L448.15625 82.43229ZM466.8125 88.041664Q465.09375 87.104164 463.59375 84.510414Q462.10938 86.93229 460.57812 88.041664L466.8125 88.041664ZM471.90625 90.354164Q470.28125 89.979164 468.51562 88.96354L468.51562 90.385414L459.0625 90.385414L459.0625 89.11979Q457.40625 90.27604 455.20312 90.916664L454.28125 88.447914Q459.9375 86.916664 462.64062 81.916664L464.5 82.18229Q465.90625 82.36979 464.95312 83.041664Q467.21875 86.447914 472.92188 87.90104L471.90625 90.354164ZM469.92188 100.33854Q469.14062 99.260414 468.40625 98.604164L457.32812 99.822914Q456.82812 100.322914 456.21875 99.86979L455.53125 97.43229L458.95312 97.27604L460.79688 93.90104L455.39062 93.90104L455.39062 91.55729L472.03125 91.55729L472.03125 93.90104L463.45312 93.90104L461.51562 97.135414L466.60938 96.760414Q466.125 96.322914 464.53125 95.135414L466.5 93.83854Q470.45312 96.80729 472.09375 98.979164L469.92188 100.33854ZM480.54688 85.385414L481.75 85.385414L482.1875 84.947914L483.84375 86.604164L483.0625 87.15104Q482.14062 88.916664 480.76562 90.61979Q482.32812 91.11979 484.07812 92.30729L482.92188 94.61979Q481.3125 93.30729 480.54688 92.86979L480.54688 100.385414L478.35938 100.385414L478.35938 93.041664Q477.45312 93.83854 475.64062 94.885414L474.67188 92.74479Q478.59375 90.61979 480.39062 87.49479L475.46875 87.49479L475.46875 85.385414L478.35938 85.385414L478.35938 82.02604L480.17188 82.02604Q481.60938 82.21354 480.54688 82.96354L480.54688 85.385414ZM488.78125 82.49479Q490.32812 82.80729 489.14062 83.604164L489.14062 87.260414L492.73438 87.260414L492.73438 89.604164L489.14062 89.604164L489.14062 97.104164L493.4375 97.104164L493.4375 99.447914L482.10938 99.447914L482.10938 97.104164L486.71875 97.104164L486.71875 89.604164L483.35938 89.604164L483.35938 87.260414L486.71875 87.260414L486.71875 82.49479L488.78125 82.49479ZM509.8125 87.90104Q508.32812 96.385414 499.6875 100.21354L497.8125 98.24479Q505.75 95.010414 507.20312 87.885414L501.5 87.885414Q499.78125 90.74479 497.60938 92.729164L495.5 91.36979Q499.79688 87.479164 501.03125 82.322914L503.17188 83.072914Q504.29688 83.635414 503.14062 84.05729Q502.875 84.96354 502.54688 85.541664L507.57812 85.541664L508.40625 85.072914L509.98438 86.65104Q510.90625 87.572914 509.8125 87.90104ZM524.0469 91.479164Q524.0469 97.541664 518.21875 100.291664L516.125 98.510414Q521.5469 96.041664 521.625 91.40104L521.625 83.27604L523.6094 83.27604Q525.1094 83.572914 524.0469 84.36979L524.0469 91.479164ZM516.0 93.510414L513.5781 93.510414L513.5781 84.05729L515.625 84.05729Q517.2031 84.21354 516.0 85.15104L516.0 93.510414ZM537.1094 91.11979Q537.25 96.49479 531.6406 100.010414L529.875 98.02604Q534.6719 95.43229 534.6719 91.08854L534.6719 87.416664L536.6406 87.416664Q538.0781 87.572914 537.09375 88.416664L537.09375 89.68229Q539.375 87.979164 540.4531 86.510414L528.0625 86.96354L527.84375 84.541664L542.3594 84.135414L543.0625 83.93229L544.375 85.510414Q545.0469 86.416664 543.875 86.260414Q541.6094 89.197914 538.09375 92.05729L537.1094 91.11979Z" fill-rule="nonzero"/><path fill="#757575" d="M630.45935 56.603127L628.58435 56.603127Q627.08435 54.353127 626.3031 51.93125Q625.52185 49.49375 625.52185 47.2125Q625.52185 44.384377 626.4906 41.86875Q627.33435 39.68125 628.6156 37.8375L630.4906 37.8375Q629.14685 40.790627 628.64685 42.86875Q628.14685 44.946877 628.14685 47.275Q628.14685 48.86875 628.4437 50.55625Q628.7406 52.228127 629.2562 53.74375Q629.6 54.74375 630.45935 56.603127Z" fill-rule="nonzero"/><path fill="#757575" d="M646.8812 39.43125L648.6625 39.43125L648.6625 48.103127L646.475 48.103127L646.475 47.634377L642.8031 47.634377L642.8031 48.65L651.0062 48.65L651.0062 50.759377L642.8031 50.759377L642.8031 54.040627L640.6156 54.040627L640.6156 50.759377L632.5687 50.759377L632.5687 48.65L640.6156 48.65L640.6156 47.634377L637.02185 47.634377L637.02185 48.259377L634.83435 48.259377L634.83435 39.43125L644.27185 39.43125L646.85 35.478127L648.6156 36.68125Q649.70935 37.55625 648.35 37.55625L646.8812 39.43125ZM641.2562 35.665627Q642.975 37.11875 643.6781 38.43125L641.6781 39.9Q640.9125 38.446877 639.4281 37.05625L641.2562 35.665627ZM640.6156 42.55625L640.6156 41.540627L637.02185 41.540627L637.02185 42.55625L640.6156 42.55625ZM646.475 42.55625L646.475 41.540627L642.8031 41.540627L642.8031 42.55625L646.475 42.55625ZM640.6156 45.525L640.6156 44.665627L637.02185 44.665627L637.02185 45.525L640.6156 45.525ZM646.475 45.525L646.475 44.665627L642.8031 44.665627L642.8031 45.525L646.475 45.525ZM636.6625 39.9625Q635.9125 38.446877 634.58435 37.228127L636.4125 35.821877Q637.89685 37.2125 638.6781 38.68125L636.6625 39.9625ZM669.1 43.61875Q668.4906 46.775 667.08435 50.603127L671.5531 50.603127L671.5531 52.7125L657.8812 52.7125L657.8812 50.603127L664.6781 50.603127Q666.02185 46.15 666.77185 42.0875L669.1 42.74375Q669.7875 43.196877 669.1 43.61875ZM655.6156 53.9625L655.6781 44.7125Q655.70935 44.775 654.1781 46.509377L652.7875 44.384377Q656.02185 41.228127 656.7562 35.74375L658.9281 36.4Q660.0687 36.978127 658.9281 37.4Q658.33435 39.853127 657.70935 41.228127L657.8031 41.259377Q658.3812 41.8375 657.8031 42.18125L657.8031 53.9625L655.6156 53.9625ZM661.8812 42.884377Q663.1781 45.665627 663.8656 49.009377L661.475 49.8375Q660.7875 46.4 659.5687 43.61875L661.8812 42.884377ZM670.6937 39.821877L670.6937 41.93125L658.7406 41.93125L658.7406 39.821877L663.5062 39.821877L663.5062 35.99375L665.3187 35.99375Q666.7562 36.18125 665.6937 36.93125L665.6937 39.821877L670.6937 39.821877Z" fill-rule="nonzero"/><path fill="#757575" d="M674.6937 44.775L674.6937 42.025L677.4281 42.025L677.4281 44.775L674.6937 44.775ZM674.6937 52.4L674.6937 49.65L677.4281 49.65L677.4281 52.4L674.6937 52.4Z" fill-rule="nonzero"/><path fill="#757575" d="M699.02185 36.853127L699.02185 39.196877L691.3031 39.196877L690.89685 41.15L696.9906 41.15L696.9906 53.65L694.5687 53.65L694.5687 52.634377L685.7406 52.634377L685.7406 53.9625L683.3187 53.9625L683.3187 41.15L688.3656 41.15L688.725 39.196877L681.0531 39.196877L681.0531 36.853127L699.02185 36.853127ZM685.7406 47.946877L685.7406 50.525L694.5687 50.525L694.5687 47.946877L685.7406 47.946877ZM694.5687 45.8375L694.5687 43.259377L685.7406 43.259377L685.7406 45.8375L694.5687 45.8375ZM707.85 39.665627L702.0687 39.665627L702.0687 37.321877L719.4125 37.321877L719.4125 39.665627L710.27185 39.665627Q710.27185 41.009377 710.14685 42.321877L718.0062 42.321877Q718.0062 47.8375 717.1312 50.8375Q716.4437 53.3375 714.02185 53.3375L710.70935 53.3375L710.2875 50.99375L713.475 50.99375Q714.5687 50.99375 714.8187 50.11875Q715.4281 48.05625 715.5062 44.665627L709.8187 44.665627Q708.6 50.49375 703.3031 53.353127L701.77185 51.103127Q707.85 48.071877 707.85 40.68125L707.85 39.665627ZM739.02185 51.853127Q739.02185 53.415627 737.45935 53.415627L735.1937 53.415627L734.5531 51.071877L736.6 51.071877Q736.6 51.071877 736.6 51.071877L736.6 46.15L725.7406 46.15L725.7406 53.49375L723.3187 53.49375L723.3187 37.009377L739.02185 37.009377L739.02185 51.853127ZM736.6 39.11875L732.225 39.11875L732.225 44.040627L736.6 44.040627L736.6 39.11875ZM725.7406 39.11875L725.7406 44.040627L730.0375 44.040627L730.0375 39.11875L725.7406 39.11875Z" fill-rule="nonzero"/><path fill="#757575" d="M742.27185 56.603127Q743.08435 54.86875 743.4125 53.93125Q743.7562 53.009377 744.0375 51.80625Q744.3187 50.5875 744.4437 49.509377Q744.58435 48.415627 744.58435 47.275Q744.58435 44.946877 744.08435 42.86875Q743.6 40.790627 742.2562 37.8375L744.1156 37.8375Q745.6 39.93125 746.4125 42.290627Q747.225 44.65 747.225 47.071877Q747.225 49.103127 746.58435 51.446877Q745.85 54.05625 744.1625 56.603127L742.27185 56.603127Z" fill-rule="nonzero"/></svg>