<svg version="1.1" viewBox="0.0 0.0 802.0 685.0" fill="none" stroke="none" stroke-linecap="square" stroke-miterlimit="10" width="802" height="685" xmlns:xlink="http://www.w3.org/1999/xlink" xmlns="http://www.w3.org/2000/svg"><path fill="#ffffff" d="M0 0L802.0 0L802.0 685.0L0 685.0L0 0Z" fill-rule="nonzero"/><path stroke="#333333" stroke-width="1.0" stroke-linecap="butt" d="M117.5 600.5L767.5 600.5" fill-rule="nonzero"/><path stroke="#cccccc" stroke-width="1.0" stroke-linecap="butt" d="M117.5 486.5L767.5 486.5" fill-rule="nonzero"/><path stroke="#cccccc" stroke-width="1.0" stroke-linecap="butt" d="M117.5 373.5L767.5 373.5" fill-rule="nonzero"/><path stroke="#cccccc" stroke-width="1.0" stroke-linecap="butt" d="M117.5 259.5L767.5 259.5" fill-rule="nonzero"/><path stroke="#cccccc" stroke-width="1.0" stroke-linecap="butt" d="M117.5 145.5L767.5 145.5" fill-rule="nonzero"/><clipPath id="id_0"><path d="M117.25 145.41667L767.75 145.41667L767.75 600.75L117.25 600.75L117.25 145.41667Z" clip-rule="nonzero"/></clipPath><path stroke="#000000" stroke-width="2.0" stroke-linecap="butt" stroke-opacity="0.0" clip-path="url(#id_0)" d="M239.0 601.0L160.0 601.0L160.0 587.0L239.0 587.0Z" fill-rule="nonzero"/><path fill="#4285f4" clip-path="url(#id_0)" d="M239.0 601.0L160.0 601.0L160.0 587.0L239.0 587.0Z" fill-rule="nonzero"/><path stroke="#000000" stroke-width="2.0" stroke-linecap="butt" stroke-opacity="0.0" clip-path="url(#id_0)" d="M361.0 601.0L282.0 601.0L282.0 563.0L361.0 563.0Z" fill-rule="nonzero"/><path fill="#4285f4" clip-path="url(#id_0)" d="M361.0 601.0L282.0 601.0L282.0 563.0L361.0 563.0Z" fill-rule="nonzero"/><path stroke="#000000" stroke-width="2.0" stroke-linecap="butt" stroke-opacity="0.0" clip-path="url(#id_0)" d="M483.0 601.0L404.0 601.0L404.0 499.0L483.0 499.0Z" fill-rule="nonzero"/><path fill="#4285f4" clip-path="url(#id_0)" d="M483.0 601.0L404.0 601.0L404.0 499.0L483.0 499.0Z" fill-rule="nonzero"/><path stroke="#000000" stroke-width="2.0" stroke-linecap="butt" stroke-opacity="0.0" clip-path="url(#id_0)" d="M604.0 601.0L525.0 601.0L525.0 414.0L604.0 414.0Z" fill-rule="nonzero"/><path fill="#4285f4" clip-path="url(#id_0)" d="M604.0 601.0L525.0 601.0L525.0 414.0L604.0 414.0Z" fill-rule="nonzero"/><path stroke="#000000" stroke-width="2.0" stroke-linecap="butt" stroke-opacity="0.0" clip-path="url(#id_0)" d="M726.0 601.0L647.0 601.0L647.0 319.0L726.0 319.0Z" fill-rule="nonzero"/><path fill="#4285f4" clip-path="url(#id_0)" d="M726.0 601.0L647.0 601.0L647.0 319.0L726.0 319.0Z" fill-rule="nonzero"/><path stroke="#000000" stroke-width="2.0" stroke-linecap="butt" stroke-opacity="0.0" clip-path="url(#id_0)" d="M239.0 587.0L160.0 587.0L160.0 587.0L239.0 587.0Z" fill-rule="nonzero"/><path fill="#f39800" clip-path="url(#id_0)" d="M239.0 587.0L160.0 587.0L160.0 587.0L239.0 587.0Z" fill-rule="nonzero"/><path stroke="#000000" stroke-width="2.0" stroke-linecap="butt" stroke-opacity="0.0" clip-path="url(#id_0)" d="M361.0 563.0L282.0 563.0L282.0 563.0L361.0 563.0Z" fill-rule="nonzero"/><path fill="#f39800" clip-path="url(#id_0)" d="M361.0 563.0L282.0 563.0L282.0 563.0L361.0 563.0Z" fill-rule="nonzero"/><path stroke="#000000" stroke-width="2.0" stroke-linecap="butt" stroke-opacity="0.0" clip-path="url(#id_0)" d="M483.0 499.0L404.0 499.0L404.0 479.0C404.0 477.89542 404.89542 477.0 406.0 477.0L481.0 477.0C482.10458 477.0 483.0 477.89542 483.0 479.0Z" fill-rule="nonzero"/><path fill="#f39800" clip-path="url(#id_0)" d="M483.0 499.0L404.0 499.0L404.0 479.0C404.0 477.89542 404.89542 477.0 406.0 477.0L481.0 477.0C482.10458 477.0 483.0 477.89542 483.0 479.0Z" fill-rule="nonzero"/><path stroke="#000000" stroke-width="2.0" stroke-linecap="butt" stroke-opacity="0.0" clip-path="url(#id_0)" d="M604.0 414.0L525.0 414.0L525.0 336.0C525.0 334.89542 525.89545 334.0 527.0 334.0L602.0 334.0C603.10455 334.0 604.0 334.89542 604.0 336.0Z" fill-rule="nonzero"/><path fill="#f39800" clip-path="url(#id_0)" d="M604.0 414.0L525.0 414.0L525.0 336.0C525.0 334.89542 525.89545 334.0 527.0 334.0L602.0 334.0C603.10455 334.0 604.0 334.89542 604.0 336.0Z" fill-rule="nonzero"/><path stroke="#000000" stroke-width="2.0" stroke-linecap="butt" stroke-opacity="0.0" clip-path="url(#id_0)" d="M726.0 319.0L647.0 319.0L647.0 194.0C647.0 192.89543 647.89545 192.0 649.0 192.0L724.0 192.0C725.10455 192.0 726.0 192.89543 726.0 194.0Z" fill-rule="nonzero"/><path fill="#f39800" clip-path="url(#id_0)" d="M726.0 319.0L647.0 319.0L647.0 194.0C647.0 192.89543 647.89545 192.0 649.0 192.0L724.0 192.0C725.10455 192.0 726.0 192.89543 726.0 194.0Z" fill-rule="nonzero"/><path stroke="#ffffff" stroke-width="3.0" stroke-linejoin="round" stroke-linecap="round" d="M180.35938 535.7909L185.14062 535.21277Q185.35938 537.0409 186.35938 538.00964Q187.375 538.9784 188.79688 538.9784Q190.32812 538.9784 191.35938 537.82214Q192.40625 536.65027 192.40625 534.6815Q192.40625 532.82214 191.40625 531.744Q190.40625 530.65027 188.96875 530.65027Q188.01562 530.65027 186.70312 531.00964L187.25 526.994Q189.25 527.0409 190.29688 526.119Q191.35938 525.19714 191.35938 523.6659Q191.35938 522.369 190.57812 521.6034Q189.8125 520.82214 188.53125 520.82214Q187.26562 520.82214 186.35938 521.69714Q185.46875 522.57214 185.28125 524.25964L180.71875 523.494Q181.20312 521.15027 182.15625 519.75964Q183.10938 518.3534 184.82812 517.5565Q186.54688 516.75964 188.67188 516.75964Q192.3125 516.75964 194.5 519.07214Q196.3125 520.9784 196.3125 523.369Q196.3125 526.75964 192.60938 528.77527Q194.82812 529.25964 196.14062 530.9159Q197.46875 532.5565 197.46875 534.90027Q197.46875 538.2909 194.98438 540.6815Q192.51562 543.07214 188.82812 543.07214Q185.32812 543.07214 183.01562 541.0565Q180.71875 539.0409 180.35938 535.7909ZM213.17188 542.63464L208.23438 542.63464L208.23438 524.02527Q205.51562 526.5565 201.84375 527.75964L201.84375 523.27527Q203.78125 522.65027 206.04688 520.88464Q208.3125 519.119 209.15625 516.75964L213.17188 516.75964L213.17188 542.63464Z" fill-rule="nonzero"/><path fill="#4285f4" d="M180.35938 535.7909L185.14062 535.21277Q185.35938 537.0409 186.35938 538.00964Q187.375 538.9784 188.79688 538.9784Q190.32812 538.9784 191.35938 537.82214Q192.40625 536.65027 192.40625 534.6815Q192.40625 532.82214 191.40625 531.744Q190.40625 530.65027 188.96875 530.65027Q188.01562 530.65027 186.70312 531.00964L187.25 526.994Q189.25 527.0409 190.29688 526.119Q191.35938 525.19714 191.35938 523.6659Q191.35938 522.369 190.57812 521.6034Q189.8125 520.82214 188.53125 520.82214Q187.26562 520.82214 186.35938 521.69714Q185.46875 522.57214 185.28125 524.25964L180.71875 523.494Q181.20312 521.15027 182.15625 519.75964Q183.10938 518.3534 184.82812 517.5565Q186.54688 516.75964 188.67188 516.75964Q192.3125 516.75964 194.5 519.07214Q196.3125 520.9784 196.3125 523.369Q196.3125 526.75964 192.60938 528.77527Q194.82812 529.25964 196.14062 530.9159Q197.46875 532.5565 197.46875 534.90027Q197.46875 538.2909 194.98438 540.6815Q192.51562 543.07214 188.82812 543.07214Q185.32812 543.07214 183.01562 541.0565Q180.71875 539.0409 180.35938 535.7909ZM213.17188 542.63464L208.23438 542.63464L208.23438 524.02527Q205.51562 526.5565 201.84375 527.75964L201.84375 523.27527Q203.78125 522.65027 206.04688 520.88464Q208.3125 519.119 209.15625 516.75964L213.17188 516.75964L213.17188 542.63464Z" fill-rule="nonzero"/><path stroke="#ffffff" stroke-width="3.0" stroke-linejoin="round" stroke-linecap="round" d="M306.76562 504.59576Q304.84375 503.78326 303.96875 502.377Q303.10938 500.95514 303.10938 499.26764Q303.10938 496.39264 305.125 494.51764Q307.14062 492.627 310.84375 492.627Q314.51562 492.627 316.54688 494.51764Q318.57812 496.39264 318.57812 499.26764Q318.57812 501.0645 317.64062 502.47076Q316.71875 503.8614 315.03125 504.59576Q317.17188 505.45514 318.28125 507.1114Q319.40625 508.76764 319.40625 510.9239Q319.40625 514.4864 317.125 516.72076Q314.85938 518.95514 311.07812 518.95514Q307.5625 518.95514 305.21875 517.1114Q302.45312 514.9395 302.45312 511.14264Q302.45312 509.0489 303.48438 507.2989Q304.53125 505.5489 306.76562 504.59576ZM307.78125 499.627Q307.78125 501.09576 308.60938 501.9239Q309.45312 502.752 310.84375 502.752Q312.25 502.752 313.09375 501.9239Q313.9375 501.08014 313.9375 499.6114Q313.9375 498.22076 313.09375 497.39264Q312.26562 496.5489 310.89062 496.5489Q309.46875 496.5489 308.625 497.39264Q307.78125 498.2364 307.78125 499.627ZM307.32812 510.65826Q307.32812 512.70514 308.375 513.84576Q309.42188 514.9864 310.98438 514.9864Q312.51562 514.9864 313.51562 513.89264Q314.51562 512.78326 314.51562 510.72076Q314.51562 508.90826 313.5 507.8145Q312.48438 506.70514 310.92188 506.70514Q309.10938 506.70514 308.21875 507.95514Q307.32812 509.20514 307.32812 510.65826ZM332.21875 518.502L332.21875 513.3145L321.67188 513.3145L321.67188 508.9864L332.84375 492.627L337.0 492.627L337.0 508.97076L340.20312 508.97076L340.20312 513.3145L337.0 513.3145L337.0 518.502L332.21875 518.502ZM332.21875 508.97076L332.21875 500.1739L326.29688 508.97076L332.21875 508.97076Z" fill-rule="nonzero"/><path fill="#4285f4" d="M306.76562 504.59576Q304.84375 503.78326 303.96875 502.377Q303.10938 500.95514 303.10938 499.26764Q303.10938 496.39264 305.125 494.51764Q307.14062 492.627 310.84375 492.627Q314.51562 492.627 316.54688 494.51764Q318.57812 496.39264 318.57812 499.26764Q318.57812 501.0645 317.64062 502.47076Q316.71875 503.8614 315.03125 504.59576Q317.17188 505.45514 318.28125 507.1114Q319.40625 508.76764 319.40625 510.9239Q319.40625 514.4864 317.125 516.72076Q314.85938 518.95514 311.07812 518.95514Q307.5625 518.95514 305.21875 517.1114Q302.45312 514.9395 302.45312 511.14264Q302.45312 509.0489 303.48438 507.2989Q304.53125 505.5489 306.76562 504.59576ZM307.78125 499.627Q307.78125 501.09576 308.60938 501.9239Q309.45312 502.752 310.84375 502.752Q312.25 502.752 313.09375 501.9239Q313.9375 501.08014 313.9375 499.6114Q313.9375 498.22076 313.09375 497.39264Q312.26562 496.5489 310.89062 496.5489Q309.46875 496.5489 308.625 497.39264Q307.78125 498.2364 307.78125 499.627ZM307.32812 510.65826Q307.32812 512.70514 308.375 513.84576Q309.42188 514.9864 310.98438 514.9864Q312.51562 514.9864 313.51562 513.89264Q314.51562 512.78326 314.51562 510.72076Q314.51562 508.90826 313.5 507.8145Q312.48438 506.70514 310.92188 506.70514Q309.10938 506.70514 308.21875 507.95514Q307.32812 509.20514 307.32812 510.65826ZM332.21875 518.502L332.21875 513.3145L321.67188 513.3145L321.67188 508.9864L332.84375 492.627L337.0 492.627L337.0 508.97076L340.20312 508.97076L340.20312 513.3145L337.0 513.3145L337.0 518.502L332.21875 518.502ZM332.21875 508.97076L332.21875 500.1739L326.29688 508.97076L332.21875 508.97076Z" fill-rule="nonzero"/><path stroke="#ffffff" stroke-width="3.0" stroke-linejoin="round" stroke-linecap="round" d="M661.94977 164.37341Q660.0279 163.56091 659.1529 162.15466Q658.2935 160.73279 658.2935 159.04529Q658.2935 156.17029 660.30914 154.29529Q662.32477 152.40466 666.0279 152.40466Q669.69977 152.40466 671.731 154.29529Q673.76227 156.17029 673.76227 159.04529Q673.76227 160.84216 672.82477 162.24841Q671.9029 163.63904 670.2154 164.37341Q672.356 165.23279 673.4654 166.88904Q674.5904 168.54529 674.5904 170.70154Q674.5904 174.26404 672.30914 176.49841Q670.0435 178.73279 666.26227 178.73279Q662.74664 178.73279 660.4029 176.88904Q657.63727 174.71716 657.63727 170.92029Q657.63727 168.82654 658.6685 167.07654Q659.7154 165.32654 661.94977 164.37341ZM662.9654 159.40466Q662.9654 160.87341 663.7935 161.70154Q664.63727 162.52966 666.0279 162.52966Q667.43414 162.52966 668.2779 161.70154Q669.12164 160.85779 669.12164 159.38904Q669.12164 157.99841 668.2779 157.17029Q667.44977 156.32654 666.07477 156.32654Q664.6529 156.32654 663.80914 157.17029Q662.9654 158.01404 662.9654 159.40466ZM662.51227 170.43591Q662.51227 172.48279 663.55914 173.62341Q664.606 174.76404 666.1685 174.76404Q667.69977 174.76404 668.69977 173.67029Q669.69977 172.56091 669.69977 170.49841Q669.69977 168.68591 668.68414 167.59216Q667.6685 166.48279 666.106 166.48279Q664.2935 166.48279 663.4029 167.73279Q662.51227 168.98279 662.51227 170.43591ZM677.82477 172.32654L682.606 171.79529Q682.7779 173.24841 683.51227 173.95154Q684.24664 174.65466 685.4654 174.65466Q686.99664 174.65466 688.05914 173.24841Q689.13727 171.84216 689.43414 167.42029Q687.57477 169.57654 684.7779 169.57654Q681.74664 169.57654 679.5279 167.23279Q677.32477 164.88904 677.32477 161.12341Q677.32477 157.20154 679.6529 154.81091Q681.981 152.40466 685.5904 152.40466Q689.51227 152.40466 692.0279 155.43591Q694.5435 158.46716 694.5435 165.40466Q694.5435 172.48279 691.9185 175.60779Q689.2935 178.73279 685.0904 178.73279Q682.07477 178.73279 680.19977 177.12341Q678.3404 175.51404 677.82477 172.32654ZM688.99664 161.52966Q688.99664 159.13904 687.9029 157.82654Q686.80914 156.49841 685.356 156.49841Q683.99664 156.49841 683.0904 157.57654Q682.18414 158.65466 682.18414 161.12341Q682.18414 163.62341 683.1685 164.79529Q684.1529 165.95154 685.62164 165.95154Q687.0435 165.95154 688.01227 164.82654Q688.99664 163.70154 688.99664 161.52966ZM697.7154 157.45154L697.7154 152.85779L714.606 152.85779L714.606 156.45154Q712.51227 158.49841 710.3404 162.35779Q708.18414 166.20154 707.0435 170.54529Q705.9185 174.87341 705.93414 178.27966L701.18414 178.27966Q701.2935 172.93591 703.37164 167.38904Q705.4654 161.82654 708.94977 157.45154L697.7154 157.45154Z" fill-rule="nonzero"/><path fill="#4285f4" d="M661.94977 164.37341Q660.0279 163.56091 659.1529 162.15466Q658.2935 160.73279 658.2935 159.04529Q658.2935 156.17029 660.30914 154.29529Q662.32477 152.40466 666.0279 152.40466Q669.69977 152.40466 671.731 154.29529Q673.76227 156.17029 673.76227 159.04529Q673.76227 160.84216 672.82477 162.24841Q671.9029 163.63904 670.2154 164.37341Q672.356 165.23279 673.4654 166.88904Q674.5904 168.54529 674.5904 170.70154Q674.5904 174.26404 672.30914 176.49841Q670.0435 178.73279 666.26227 178.73279Q662.74664 178.73279 660.4029 176.88904Q657.63727 174.71716 657.63727 170.92029Q657.63727 168.82654 658.6685 167.07654Q659.7154 165.32654 661.94977 164.37341ZM662.9654 159.40466Q662.9654 160.87341 663.7935 161.70154Q664.63727 162.52966 666.0279 162.52966Q667.43414 162.52966 668.2779 161.70154Q669.12164 160.85779 669.12164 159.38904Q669.12164 157.99841 668.2779 157.17029Q667.44977 156.32654 666.07477 156.32654Q664.6529 156.32654 663.80914 157.17029Q662.9654 158.01404 662.9654 159.40466ZM662.51227 170.43591Q662.51227 172.48279 663.55914 173.62341Q664.606 174.76404 666.1685 174.76404Q667.69977 174.76404 668.69977 173.67029Q669.69977 172.56091 669.69977 170.49841Q669.69977 168.68591 668.68414 167.59216Q667.6685 166.48279 666.106 166.48279Q664.2935 166.48279 663.4029 167.73279Q662.51227 168.98279 662.51227 170.43591ZM677.82477 172.32654L682.606 171.79529Q682.7779 173.24841 683.51227 173.95154Q684.24664 174.65466 685.4654 174.65466Q686.99664 174.65466 688.05914 173.24841Q689.13727 171.84216 689.43414 167.42029Q687.57477 169.57654 684.7779 169.57654Q681.74664 169.57654 679.5279 167.23279Q677.32477 164.88904 677.32477 161.12341Q677.32477 157.20154 679.6529 154.81091Q681.981 152.40466 685.5904 152.40466Q689.51227 152.40466 692.0279 155.43591Q694.5435 158.46716 694.5435 165.40466Q694.5435 172.48279 691.9185 175.60779Q689.2935 178.73279 685.0904 178.73279Q682.07477 178.73279 680.19977 177.12341Q678.3404 175.51404 677.82477 172.32654ZM688.99664 161.52966Q688.99664 159.13904 687.9029 157.82654Q686.80914 156.49841 685.356 156.49841Q683.99664 156.49841 683.0904 157.57654Q682.18414 158.65466 682.18414 161.12341Q682.18414 163.62341 683.1685 164.79529Q684.1529 165.95154 685.62164 165.95154Q687.0435 165.95154 688.01227 164.82654Q688.99664 163.70154 688.99664 161.52966ZM697.7154 157.45154L697.7154 152.85779L714.606 152.85779L714.606 156.45154Q712.51227 158.49841 710.3404 162.35779Q708.18414 166.20154 707.0435 170.54529Q705.9185 174.87341 705.93414 178.27966L701.18414 178.27966Q701.2935 172.93591 703.37164 167.38904Q705.4654 161.82654 708.94977 157.45154L697.7154 157.45154Z" fill-rule="nonzero"/><path stroke="#ffffff" stroke-width="3.0" stroke-linejoin="round" stroke-linecap="round" d="M431.21875 428.76093L431.21875 433.35468L413.89062 433.35468Q414.17188 430.7453 415.57812 428.41718Q416.98438 426.08905 421.14062 422.2453Q424.48438 419.13593 425.23438 418.02655Q426.25 416.4953 426.25 414.9953Q426.25 413.35468 425.35938 412.46405Q424.48438 411.57343 422.92188 411.57343Q421.375 411.57343 420.45312 412.51093Q419.54688 413.4328 419.40625 415.60468L414.48438 415.10468Q414.92188 411.02655 417.23438 409.26093Q419.5625 407.47968 423.03125 407.47968Q426.85938 407.47968 429.03125 409.54218Q431.21875 411.58905 431.21875 414.65155Q431.21875 416.38593 430.59375 417.96405Q429.96875 419.54218 428.60938 421.26093Q427.71875 422.40155 425.375 424.5578Q423.03125 426.69843 422.40625 427.40155Q421.79688 428.10468 421.40625 428.76093L431.21875 428.76093ZM434.53125 412.52655L434.53125 407.9328L451.42188 407.9328L451.42188 411.52655Q449.32812 413.57343 447.15625 417.4328Q445.0 421.27655 443.85938 425.6203Q442.73438 429.94843 442.75 433.35468L438.0 433.35468Q438.10938 428.01093 440.1875 422.46405Q442.28125 416.90155 445.76562 412.52655L434.53125 412.52655ZM467.17188 433.35468L462.23438 433.35468L462.23438 414.7453Q459.51562 417.27655 455.84375 418.47968L455.84375 413.9953Q457.78125 413.3703 460.04688 411.60468Q462.3125 409.83905 463.15625 407.47968L467.17188 407.47968L467.17188 433.35468Z" fill-rule="nonzero"/><path fill="#4285f4" d="M431.21875 428.76093L431.21875 433.35468L413.89062 433.35468Q414.17188 430.7453 415.57812 428.41718Q416.98438 426.08905 421.14062 422.2453Q424.48438 419.13593 425.23438 418.02655Q426.25 416.4953 426.25 414.9953Q426.25 413.35468 425.35938 412.46405Q424.48438 411.57343 422.92188 411.57343Q421.375 411.57343 420.45312 412.51093Q419.54688 413.4328 419.40625 415.60468L414.48438 415.10468Q414.92188 411.02655 417.23438 409.26093Q419.5625 407.47968 423.03125 407.47968Q426.85938 407.47968 429.03125 409.54218Q431.21875 411.58905 431.21875 414.65155Q431.21875 416.38593 430.59375 417.96405Q429.96875 419.54218 428.60938 421.26093Q427.71875 422.40155 425.375 424.5578Q423.03125 426.69843 422.40625 427.40155Q421.79688 428.10468 421.40625 428.76093L431.21875 428.76093ZM434.53125 412.52655L434.53125 407.9328L451.42188 407.9328L451.42188 411.52655Q449.32812 413.57343 447.15625 417.4328Q445.0 421.27655 443.85938 425.6203Q442.73438 429.94843 442.75 433.35468L438.0 433.35468Q438.10938 428.01093 440.1875 422.46405Q442.28125 416.90155 445.76562 412.52655L434.53125 412.52655ZM467.17188 433.35468L462.23438 433.35468L462.23438 414.7453Q459.51562 417.27655 455.84375 418.47968L455.84375 413.9953Q457.78125 413.3703 460.04688 411.60468Q462.3125 409.83905 463.15625 407.47968L467.17188 407.47968L467.17188 433.35468Z" fill-rule="nonzero"/><path stroke="#ffffff" stroke-width="3.0" stroke-linejoin="round" stroke-linecap="round" d="M535.59375 283.29965L540.5156 282.78403Q540.7344 284.4559 541.7656 285.44028Q542.8125 286.40903 544.15625 286.40903Q545.7031 286.40903 546.78125 285.15903Q547.8594 283.8934 547.8594 281.36215Q547.8594 278.98715 546.78125 277.79965Q545.71875 276.61215 544.0156 276.61215Q541.8906 276.61215 540.2031 278.50278L536.2031 277.92465L538.7344 264.50278L551.7969 264.50278L551.7969 269.12778L542.46875 269.12778L541.7031 273.50278Q543.3594 272.67465 545.0781 272.67465Q548.3594 272.67465 550.6406 275.06528Q552.9375 277.4559 552.9375 281.2684Q552.9375 284.4559 551.09375 286.9559Q548.5781 290.36215 544.1094 290.36215Q540.5469 290.36215 538.2969 288.4559Q536.0469 286.53403 535.59375 283.29965ZM559.7656 276.0184Q557.84375 275.2059 556.96875 273.79965Q556.1094 272.37778 556.1094 270.69028Q556.1094 267.81528 558.125 265.94028Q560.1406 264.04965 563.84375 264.04965Q567.5156 264.04965 569.5469 265.94028Q571.5781 267.81528 571.5781 270.69028Q571.5781 272.48715 570.6406 273.8934Q569.71875 275.28403 568.03125 276.0184Q570.1719 276.87778 571.28125 278.53403Q572.40625 280.19028 572.40625 282.34653Q572.40625 285.90903 570.125 288.1434Q567.8594 290.37778 564.0781 290.37778Q560.5625 290.37778 558.21875 288.53403Q555.4531 286.36215 555.4531 282.56528Q555.4531 280.47153 556.4844 278.72153Q557.53125 276.97153 559.7656 276.0184ZM560.78125 271.04965Q560.78125 272.5184 561.6094 273.34653Q562.4531 274.17465 563.84375 274.17465Q565.25 274.17465 566.09375 273.34653Q566.9375 272.50278 566.9375 271.03403Q566.9375 269.6434 566.09375 268.81528Q565.2656 267.97153 563.8906 267.97153Q562.46875 267.97153 561.625 268.81528Q560.78125 269.65903 560.78125 271.04965ZM560.3281 282.0809Q560.3281 284.12778 561.375 285.2684Q562.4219 286.40903 563.9844 286.40903Q565.5156 286.40903 566.5156 285.31528Q567.5156 284.2059 567.5156 282.1434Q567.5156 280.3309 566.5 279.23715Q565.4844 278.12778 563.9219 278.12778Q562.1094 278.12778 561.21875 279.37778Q560.3281 280.62778 560.3281 282.0809ZM575.53125 269.09653L575.53125 264.50278L592.4219 264.50278L592.4219 268.09653Q590.3281 270.1434 588.15625 274.00278Q586.0 277.84653 584.8594 282.19028Q583.7344 286.5184 583.75 289.92465L579.0 289.92465Q579.1094 284.5809 581.1875 279.03403Q583.28125 273.47153 586.7656 269.09653L575.53125 269.09653Z" fill-rule="nonzero"/><path fill="#4285f4" d="M535.59375 283.29965L540.5156 282.78403Q540.7344 284.4559 541.7656 285.44028Q542.8125 286.40903 544.15625 286.40903Q545.7031 286.40903 546.78125 285.15903Q547.8594 283.8934 547.8594 281.36215Q547.8594 278.98715 546.78125 277.79965Q545.71875 276.61215 544.0156 276.61215Q541.8906 276.61215 540.2031 278.50278L536.2031 277.92465L538.7344 264.50278L551.7969 264.50278L551.7969 269.12778L542.46875 269.12778L541.7031 273.50278Q543.3594 272.67465 545.0781 272.67465Q548.3594 272.67465 550.6406 275.06528Q552.9375 277.4559 552.9375 281.2684Q552.9375 284.4559 551.09375 286.9559Q548.5781 290.36215 544.1094 290.36215Q540.5469 290.36215 538.2969 288.4559Q536.0469 286.53403 535.59375 283.29965ZM559.7656 276.0184Q557.84375 275.2059 556.96875 273.79965Q556.1094 272.37778 556.1094 270.69028Q556.1094 267.81528 558.125 265.94028Q560.1406 264.04965 563.84375 264.04965Q567.5156 264.04965 569.5469 265.94028Q571.5781 267.81528 571.5781 270.69028Q571.5781 272.48715 570.6406 273.8934Q569.71875 275.28403 568.03125 276.0184Q570.1719 276.87778 571.28125 278.53403Q572.40625 280.19028 572.40625 282.34653Q572.40625 285.90903 570.125 288.1434Q567.8594 290.37778 564.0781 290.37778Q560.5625 290.37778 558.21875 288.53403Q555.4531 286.36215 555.4531 282.56528Q555.4531 280.47153 556.4844 278.72153Q557.53125 276.97153 559.7656 276.0184ZM560.78125 271.04965Q560.78125 272.5184 561.6094 273.34653Q562.4531 274.17465 563.84375 274.17465Q565.25 274.17465 566.09375 273.34653Q566.9375 272.50278 566.9375 271.03403Q566.9375 269.6434 566.09375 268.81528Q565.2656 267.97153 563.8906 267.97153Q562.46875 267.97153 561.625 268.81528Q560.78125 269.65903 560.78125 271.04965ZM560.3281 282.0809Q560.3281 284.12778 561.375 285.2684Q562.4219 286.40903 563.9844 286.40903Q565.5156 286.40903 566.5156 285.31528Q567.5156 284.2059 567.5156 282.1434Q567.5156 280.3309 566.5 279.23715Q565.4844 278.12778 563.9219 278.12778Q562.1094 278.12778 561.21875 279.37778Q560.3281 280.62778 560.3281 282.0809ZM575.53125 269.09653L575.53125 264.50278L592.4219 264.50278L592.4219 268.09653Q590.3281 270.1434 588.15625 274.00278Q586.0 277.84653 584.8594 282.19028Q583.7344 286.5184 583.75 289.92465L579.0 289.92465Q579.1094 284.5809 581.1875 279.03403Q583.28125 273.47153 586.7656 269.09653L575.53125 269.09653Z" fill-rule="nonzero"/><path fill="#000000" d="M93.484375 589.6875Q96.609375 589.6875 98.359375 591.90625Q100.453125 594.5469 100.453125 600.65625Q100.453125 606.75 98.34375 609.4219Q96.609375 611.6094 93.484375 611.6094Q90.34375 611.6094 88.421875 609.2031Q86.515625 606.7969 86.515625 600.6094Q86.515625 594.5469 88.625 591.8906Q90.359375 589.6875 93.484375 589.6875ZM93.484375 593.09375Q92.734375 593.09375 92.140625 593.5781Q91.5625 594.0469 91.234375 595.28125Q90.8125 596.875 90.8125 600.65625Q90.8125 604.4375 91.1875 605.8594Q91.578125 607.2656 92.15625 607.7344Q92.734375 608.2031 93.484375 608.2031Q94.234375 608.2031 94.8125 607.7344Q95.40625 607.25 95.71875 606.0156Q96.15625 604.4375 96.15625 600.65625Q96.15625 596.875 95.765625 595.46875Q95.390625 594.0469 94.8125 593.5781Q94.234375 593.09375 93.484375 593.09375Z" fill-rule="nonzero"/><path fill="#000000" d="M66.421875 493.58853L66.421875 497.41666L52.0 497.41666Q52.234375 495.24478 53.40625 493.30728Q54.578125 491.36978 58.03125 488.15103Q60.8125 485.5729 61.453125 484.6354Q62.296875 483.36978 62.296875 482.11978Q62.296875 480.74478 61.546875 480.0104Q60.8125 479.2604 59.515625 479.2604Q58.21875 479.2604 57.453125 480.04166Q56.703125 480.8229 56.578125 482.61978L52.484375 482.21353Q52.84375 478.80728 54.78125 477.33853Q56.71875 475.85416 59.609375 475.85416Q62.796875 475.85416 64.609375 477.5729Q66.421875 479.27603 66.421875 481.8229Q66.421875 483.27603 65.90625 484.58853Q65.390625 485.90103 64.265625 487.33853Q63.515625 488.29166 61.5625 490.08853Q59.609375 491.86978 59.09375 492.46353Q58.578125 493.04166 58.25 493.58853L66.421875 493.58853ZM69.578125 491.90103L73.6875 491.46353Q73.859375 492.85416 74.71875 493.66666Q75.59375 494.47916 76.71875 494.47916Q78.0 494.47916 78.890625 493.43228Q79.796875 492.3854 79.796875 490.27603Q79.796875 488.30728 78.90625 487.3229Q78.015625 486.3229 76.59375 486.3229Q74.828125 486.3229 73.421875 487.90103L70.078125 487.41666L72.1875 476.22916L83.078125 476.22916L83.078125 480.08853L75.3125 480.08853L74.671875 483.72916Q76.046875 483.04166 77.484375 483.04166Q80.21875 483.04166 82.125 485.04166Q84.03125 487.02603 84.03125 490.21353Q84.03125 492.85416 82.484375 494.9479Q80.390625 497.77603 76.671875 497.77603Q73.703125 497.77603 71.828125 496.18228Q69.953125 494.58853 69.578125 491.90103ZM93.484375 475.85416Q96.609375 475.85416 98.359375 478.0729Q100.453125 480.71353 100.453125 486.8229Q100.453125 492.91666 98.34375 495.58853Q96.609375 497.77603 93.484375 497.77603Q90.34375 497.77603 88.421875 495.36978Q86.515625 492.96353 86.515625 486.77603Q86.515625 480.71353 88.625 478.05728Q90.359375 475.85416 93.484375 475.85416ZM93.484375 479.2604Q92.734375 479.2604 92.140625 479.74478Q91.5625 480.21353 91.234375 481.4479Q90.8125 483.04166 90.8125 486.8229Q90.8125 490.60416 91.1875 492.02603Q91.578125 493.43228 92.15625 493.90103Q92.734375 494.36978 93.484375 494.36978Q94.234375 494.36978 94.8125 493.90103Q95.40625 493.41666 95.71875 492.18228Q96.15625 490.60416 96.15625 486.8229Q96.15625 483.04166 95.765625 481.6354Q95.390625 480.21353 94.8125 479.74478Q94.234375 479.2604 93.484375 479.2604Z" fill-rule="nonzero"/><path fill="#000000" d="M52.578125 378.06772L56.6875 377.63022Q56.859375 379.02084 57.71875 379.83334Q58.59375 380.64584 59.71875 380.64584Q61.0 380.64584 61.890625 379.59897Q62.796875 378.5521 62.796875 376.44272Q62.796875 374.47397 61.90625 373.4896Q61.015625 372.4896 59.59375 372.4896Q57.828125 372.4896 56.421875 374.06772L53.078125 373.58334L55.1875 362.39584L66.078125 362.39584L66.078125 366.25522L58.3125 366.25522L57.671875 369.89584Q59.046875 369.20834 60.484375 369.20834Q63.21875 369.20834 65.125 371.20834Q67.03125 373.19272 67.03125 376.38022Q67.03125 379.02084 65.484375 381.1146Q63.390625 383.94272 59.671875 383.94272Q56.703125 383.94272 54.828125 382.34897Q52.953125 380.75522 52.578125 378.06772ZM76.484375 362.02084Q79.609375 362.02084 81.359375 364.2396Q83.453125 366.88022 83.453125 372.9896Q83.453125 379.08334 81.34375 381.75522Q79.609375 383.94272 76.484375 383.94272Q73.34375 383.94272 71.421875 381.53647Q69.515625 379.13022 69.515625 372.94272Q69.515625 366.88022 71.625 364.22397Q73.359375 362.02084 76.484375 362.02084ZM76.484375 365.4271Q75.734375 365.4271 75.140625 365.91147Q74.5625 366.38022 74.234375 367.6146Q73.8125 369.20834 73.8125 372.9896Q73.8125 376.77084 74.1875 378.19272Q74.578125 379.59897 75.15625 380.06772Q75.734375 380.53647 76.484375 380.53647Q77.234375 380.53647 77.8125 380.06772Q78.40625 379.58334 78.71875 378.34897Q79.15625 376.77084 79.15625 372.9896Q79.15625 369.20834 78.765625 367.8021Q78.390625 366.38022 77.8125 365.91147Q77.234375 365.4271 76.484375 365.4271ZM93.484375 362.02084Q96.609375 362.02084 98.359375 364.2396Q100.453125 366.88022 100.453125 372.9896Q100.453125 379.08334 98.34375 381.75522Q96.609375 383.94272 93.484375 383.94272Q90.34375 383.94272 88.421875 381.53647Q86.515625 379.13022 86.515625 372.94272Q86.515625 366.88022 88.625 364.22397Q90.359375 362.02084 93.484375 362.02084ZM93.484375 365.4271Q92.734375 365.4271 92.140625 365.91147Q91.5625 366.38022 91.234375 367.6146Q90.8125 369.20834 90.8125 372.9896Q90.8125 376.77084 91.1875 378.19272Q91.578125 379.59897 92.15625 380.06772Q92.734375 380.53647 93.484375 380.53647Q94.234375 380.53647 94.8125 380.06772Q95.40625 379.58334 95.71875 378.34897Q96.15625 376.77084 96.15625 372.9896Q96.15625 369.20834 95.765625 367.8021Q95.390625 366.38022 94.8125 365.91147Q94.234375 365.4271 93.484375 365.4271Z" fill-rule="nonzero"/><path fill="#000000" d="M52.53125 252.39062L52.53125 248.5625L66.609375 248.5625L66.609375 251.5625Q64.859375 253.26562 63.046875 256.48438Q61.25 259.6875 60.296875 263.29688Q59.359375 266.90625 59.375 269.75L55.40625 269.75Q55.515625 265.29688 57.25 260.67188Q58.984375 256.03125 61.890625 252.39062L52.53125 252.39062ZM69.578125 264.23438L73.6875 263.79688Q73.859375 265.1875 74.71875 266.0Q75.59375 266.8125 76.71875 266.8125Q78.0 266.8125 78.890625 265.76562Q79.796875 264.71875 79.796875 262.60938Q79.796875 260.64062 78.90625 259.65625Q78.015625 258.65625 76.59375 258.65625Q74.828125 258.65625 73.421875 260.23438L70.078125 259.75L72.1875 248.5625L83.078125 248.5625L83.078125 252.42188L75.3125 252.42188L74.671875 256.0625Q76.046875 255.375 77.484375 255.375Q80.21875 255.375 82.125 257.375Q84.03125 259.35938 84.03125 262.54688Q84.03125 265.1875 82.484375 267.28125Q80.390625 270.10938 76.671875 270.10938Q73.703125 270.10938 71.828125 268.51562Q69.953125 266.92188 69.578125 264.23438ZM93.484375 248.1875Q96.609375 248.1875 98.359375 250.40625Q100.453125 253.04688 100.453125 259.15625Q100.453125 265.25 98.34375 267.92188Q96.609375 270.10938 93.484375 270.10938Q90.34375 270.10938 88.421875 267.70312Q86.515625 265.29688 86.515625 259.10938Q86.515625 253.04688 88.625 250.39062Q90.359375 248.1875 93.484375 248.1875ZM93.484375 251.59375Q92.734375 251.59375 92.140625 252.07812Q91.5625 252.54688 91.234375 253.78125Q90.8125 255.375 90.8125 259.15625Q90.8125 262.9375 91.1875 264.35938Q91.578125 265.76562 92.15625 266.23438Q92.734375 266.70312 93.484375 266.70312Q94.234375 266.70312 94.8125 266.23438Q95.40625 265.75 95.71875 264.51562Q96.15625 262.9375 96.15625 259.15625Q96.15625 255.375 95.765625 253.96875Q95.390625 252.54688 94.8125 252.07812Q94.234375 251.59375 93.484375 251.59375Z" fill-rule="nonzero"/><path fill="#000000" d="M46.0625 155.91667L41.9375 155.91667L41.9375 140.40105Q39.6875 142.51042 36.625 143.52605L36.625 139.79167Q38.234375 139.26042 40.125 137.79167Q42.015625 136.32292 42.71875 134.35417L46.0625 134.35417L46.0625 155.91667ZM59.484375 134.35417Q62.609375 134.35417 64.359375 136.57292Q66.453125 139.21355 66.453125 145.32292Q66.453125 151.41667 64.34375 154.08855Q62.609375 156.27605 59.484375 156.27605Q56.34375 156.27605 54.421875 153.8698Q52.515625 151.46355 52.515625 145.27605Q52.515625 139.21355 54.625 136.5573Q56.359375 134.35417 59.484375 134.35417ZM59.484375 137.76042Q58.734375 137.76042 58.140625 138.2448Q57.5625 138.71355 57.234375 139.94792Q56.8125 141.54167 56.8125 145.32292Q56.8125 149.10417 57.1875 150.52605Q57.578125 151.9323 58.15625 152.40105Q58.734375 152.8698 59.484375 152.8698Q60.234375 152.8698 60.8125 152.40105Q61.40625 151.91667 61.71875 150.6823Q62.15625 149.10417 62.15625 145.32292Q62.15625 141.54167 61.765625 140.13542Q61.390625 138.71355 60.8125 138.2448Q60.234375 137.76042 59.484375 137.76042ZM76.484375 134.35417Q79.609375 134.35417 81.359375 136.57292Q83.453125 139.21355 83.453125 145.32292Q83.453125 151.41667 81.34375 154.08855Q79.609375 156.27605 76.484375 156.27605Q73.34375 156.27605 71.421875 153.8698Q69.515625 151.46355 69.515625 145.27605Q69.515625 139.21355 71.625 136.5573Q73.359375 134.35417 76.484375 134.35417ZM76.484375 137.76042Q75.734375 137.76042 75.140625 138.2448Q74.5625 138.71355 74.234375 139.94792Q73.8125 141.54167 73.8125 145.32292Q73.8125 149.10417 74.1875 150.52605Q74.578125 151.9323 75.15625 152.40105Q75.734375 152.8698 76.484375 152.8698Q77.234375 152.8698 77.8125 152.40105Q78.40625 151.91667 78.71875 150.6823Q79.15625 149.10417 79.15625 145.32292Q79.15625 141.54167 78.765625 140.13542Q78.390625 138.71355 77.8125 138.2448Q77.234375 137.76042 76.484375 137.76042ZM93.484375 134.35417Q96.609375 134.35417 98.359375 136.57292Q100.453125 139.21355 100.453125 145.32292Q100.453125 151.41667 98.34375 154.08855Q96.609375 156.27605 93.484375 156.27605Q90.34375 156.27605 88.421875 153.8698Q86.515625 151.46355 86.515625 145.27605Q86.515625 139.21355 88.625 136.5573Q90.359375 134.35417 93.484375 134.35417ZM93.484375 137.76042Q92.734375 137.76042 92.140625 138.2448Q91.5625 138.71355 91.234375 139.94792Q90.8125 141.54167 90.8125 145.32292Q90.8125 149.10417 91.1875 150.52605Q91.578125 151.9323 92.15625 152.40105Q92.734375 152.8698 93.484375 152.8698Q94.234375 152.8698 94.8125 152.40105Q95.40625 151.91667 95.71875 150.6823Q96.15625 149.10417 96.15625 145.32292Q96.15625 141.54167 95.765625 140.13542Q95.390625 138.71355 94.8125 138.2448Q94.234375 137.76042 93.484375 137.76042Z" fill-rule="nonzero"/><path fill="#000000" d="M164.99431 639.9219L164.99431 643.75L150.57243 643.75Q150.80681 641.5781 151.97868 639.6406Q153.15056 637.7031 156.60368 634.4844Q159.38493 631.90625 160.02556 630.96875Q160.86931 629.7031 160.86931 628.4531Q160.86931 627.0781 160.11931 626.34375Q159.38493 625.59375 158.08806 625.59375Q156.79118 625.59375 156.02556 626.375Q155.27556 627.15625 155.15056 628.9531L151.05681 628.5469Q151.41618 625.1406 153.35368 623.6719Q155.29118 622.1875 158.18181 622.1875Q161.36931 622.1875 163.18181 623.90625Q164.99431 625.6094 164.99431 628.15625Q164.99431 629.6094 164.47868 630.9219Q163.96306 632.2344 162.83806 633.6719Q162.08806 634.625 160.13493 636.4219Q158.18181 638.2031 157.66618 638.7969Q157.15056 639.375 156.82243 639.9219L164.99431 639.9219ZM175.05681 622.1875Q178.18181 622.1875 179.93181 624.40625Q182.02556 627.0469 182.02556 633.15625Q182.02556 639.25 179.91618 641.9219Q178.18181 644.1094 175.05681 644.1094Q171.91618 644.1094 169.99431 641.7031Q168.08806 639.2969 168.08806 633.1094Q168.08806 627.0469 170.19743 624.3906Q171.93181 622.1875 175.05681 622.1875ZM175.05681 625.59375Q174.30681 625.59375 173.71306 626.0781Q173.13493 626.5469 172.80681 627.78125Q172.38493 629.375 172.38493 633.15625Q172.38493 636.9375 172.75993 638.3594Q173.15056 639.7656 173.72868 640.2344Q174.30681 640.7031 175.05681 640.7031Q175.80681 640.7031 176.38493 640.2344Q176.97868 639.75 177.29118 638.5156Q177.72868 636.9375 177.72868 633.15625Q177.72868 629.375 177.33806 627.96875Q176.96306 626.5469 176.38493 626.0781Q175.80681 625.59375 175.05681 625.59375ZM195.63493 643.75L191.50993 643.75L191.50993 628.2344Q189.25993 630.34375 186.19743 631.3594L186.19743 627.625Q187.80681 627.09375 189.69743 625.625Q191.58806 624.15625 192.29118 622.1875L195.63493 622.1875L195.63493 643.75ZM202.18181 638.78125L206.16618 638.34375Q206.32243 639.5625 206.93181 640.15625Q207.54118 640.7344 208.55681 640.7344Q209.83806 640.7344 210.72868 639.5625Q211.61931 638.3906 211.86931 634.7031Q210.32243 636.5 207.97868 636.5Q205.44743 636.5 203.60368 634.5469Q201.77556 632.59375 201.77556 629.4531Q201.77556 626.1875 203.71306 624.1875Q205.65056 622.1875 208.66618 622.1875Q211.93181 622.1875 214.02556 624.71875Q216.11931 627.2344 216.11931 633.03125Q216.11931 638.9219 213.93181 641.53125Q211.74431 644.125 208.24431 644.125Q205.72868 644.125 204.16618 642.7969Q202.61931 641.4531 202.18181 638.78125ZM211.49431 629.7969Q211.49431 627.7969 210.57243 626.7031Q209.66618 625.59375 208.46306 625.59375Q207.32243 625.59375 206.57243 626.5Q205.82243 627.40625 205.82243 629.4531Q205.82243 631.53125 206.63493 632.5156Q207.46306 633.4844 208.68181 633.4844Q209.86931 633.4844 210.68181 632.5469Q211.49431 631.6094 211.49431 629.7969Z" fill-rule="nonzero"/><path fill="#000000" d="M228.18181 625.46875Q226.08806 629.125 222.21306 632.15625L219.79118 629.0469Q224.93181 625.28125 226.80681 618.21875L230.25993 619.125Q231.72868 620.6094 230.02556 620.84375L229.57243 621.9844L245.79118 621.9844L245.79118 625.46875L237.24431 625.46875L237.24431 628.2031L244.27556 628.2031L244.27556 631.6719L237.24431 631.6719L237.24431 635.7031L247.08806 635.7031L247.08806 639.1719L237.24431 639.1719L237.24431 646.21875L233.65056 646.21875L233.65056 639.1719L220.16618 639.1719L220.16618 635.7031L225.44743 635.7031L225.44743 628.2031L233.65056 628.2031L233.65056 625.46875L228.18181 625.46875ZM229.04118 635.7031L233.65056 635.7031L233.65056 631.6719L229.04118 631.6719L229.04118 635.7031Z" fill-rule="nonzero"/><path fill="#000000" d="M286.5831 639.9219L286.5831 643.75L272.16122 643.75Q272.3956 641.5781 273.56747 639.6406Q274.73935 637.7031 278.19247 634.4844Q280.97372 631.90625 281.61435 630.96875Q282.4581 629.7031 282.4581 628.4531Q282.4581 627.0781 281.7081 626.34375Q280.97372 625.59375 279.67685 625.59375Q278.37997 625.59375 277.61435 626.375Q276.86435 627.15625 276.73935 628.9531L272.6456 628.5469Q273.00497 625.1406 274.94247 623.6719Q276.87997 622.1875 279.7706 622.1875Q282.9581 622.1875 284.7706 623.90625Q286.5831 625.6094 286.5831 628.15625Q286.5831 629.6094 286.06747 630.9219Q285.55185 632.2344 284.42685 633.6719Q283.67685 634.625 281.72372 636.4219Q279.7706 638.2031 279.25497 638.7969Q278.73935 639.375 278.41122 639.9219L286.5831 639.9219ZM296.6456 622.1875Q299.7706 622.1875 301.5206 624.40625Q303.61435 627.0469 303.61435 633.15625Q303.61435 639.25 301.50497 641.9219Q299.7706 644.1094 296.6456 644.1094Q293.50497 644.1094 291.5831 641.7031Q289.67685 639.2969 289.67685 633.1094Q289.67685 627.0469 291.78622 624.3906Q293.5206 622.1875 296.6456 622.1875ZM296.6456 625.59375Q295.8956 625.59375 295.30185 626.0781Q294.72372 626.5469 294.3956 627.78125Q293.97372 629.375 293.97372 633.15625Q293.97372 636.9375 294.34872 638.3594Q294.73935 639.7656 295.31747 640.2344Q295.8956 640.7031 296.6456 640.7031Q297.3956 640.7031 297.97372 640.2344Q298.56747 639.75 298.87997 638.5156Q299.31747 636.9375 299.31747 633.15625Q299.31747 629.375 298.92685 627.96875Q298.55185 626.5469 297.97372 626.0781Q297.3956 625.59375 296.6456 625.59375ZM320.5831 639.9219L320.5831 643.75L306.16122 643.75Q306.3956 641.5781 307.56747 639.6406Q308.73935 637.7031 312.19247 634.4844Q314.97372 631.90625 315.61435 630.96875Q316.4581 629.7031 316.4581 628.4531Q316.4581 627.0781 315.7081 626.34375Q314.97372 625.59375 313.67685 625.59375Q312.37997 625.59375 311.61435 626.375Q310.86435 627.15625 310.73935 628.9531L306.6456 628.5469Q307.00497 625.1406 308.94247 623.6719Q310.87997 622.1875 313.7706 622.1875Q316.9581 622.1875 318.7706 623.90625Q320.5831 625.6094 320.5831 628.15625Q320.5831 629.6094 320.06747 630.9219Q319.55185 632.2344 318.42685 633.6719Q317.67685 634.625 315.72372 636.4219Q313.7706 638.2031 313.25497 638.7969Q312.73935 639.375 312.41122 639.9219L320.5831 639.9219ZM330.6456 622.1875Q333.7706 622.1875 335.5206 624.40625Q337.61435 627.0469 337.61435 633.15625Q337.61435 639.25 335.50497 641.9219Q333.7706 644.1094 330.6456 644.1094Q327.50497 644.1094 325.5831 641.7031Q323.67685 639.2969 323.67685 633.1094Q323.67685 627.0469 325.78622 624.3906Q327.5206 622.1875 330.6456 622.1875ZM330.6456 625.59375Q329.8956 625.59375 329.30185 626.0781Q328.72372 626.5469 328.3956 627.78125Q327.97372 629.375 327.97372 633.15625Q327.97372 636.9375 328.34872 638.3594Q328.73935 639.7656 329.31747 640.2344Q329.8956 640.7031 330.6456 640.7031Q331.3956 640.7031 331.97372 640.2344Q332.56747 639.75 332.87997 638.5156Q333.31747 636.9375 333.31747 633.15625Q333.31747 629.375 332.92685 627.96875Q332.55185 626.5469 331.97372 626.0781Q331.3956 625.59375 330.6456 625.59375Z" fill-rule="nonzero"/><path fill="#000000" d="M349.7706 625.46875Q347.67685 629.125 343.80185 632.15625L341.37997 629.0469Q346.5206 625.28125 348.3956 618.21875L351.84872 619.125Q353.31747 620.6094 351.61435 620.84375L351.16122 621.9844L367.37997 621.9844L367.37997 625.46875L358.8331 625.46875L358.8331 628.2031L365.86435 628.2031L365.86435 631.6719L358.8331 631.6719L358.8331 635.7031L368.67685 635.7031L368.67685 639.1719L358.8331 639.1719L358.8331 646.21875L355.23935 646.21875L355.23935 639.1719L341.75497 639.1719L341.75497 635.7031L347.03622 635.7031L347.03622 628.2031L355.23935 628.2031L355.23935 625.46875L349.7706 625.46875ZM350.62997 635.7031L355.23935 635.7031L355.23935 631.6719L350.62997 631.6719L350.62997 635.7031Z" fill-rule="nonzero"/><path fill="#000000" d="M408.17188 639.9219L408.17188 643.75L393.75 643.75Q393.98438 641.5781 395.15625 639.6406Q396.32812 637.7031 399.78125 634.4844Q402.5625 631.90625 403.20312 630.96875Q404.04688 629.7031 404.04688 628.4531Q404.04688 627.0781 403.29688 626.34375Q402.5625 625.59375 401.26562 625.59375Q399.96875 625.59375 399.20312 626.375Q398.45312 627.15625 398.32812 628.9531L394.23438 628.5469Q394.59375 625.1406 396.53125 623.6719Q398.46875 622.1875 401.35938 622.1875Q404.54688 622.1875 406.35938 623.90625Q408.17188 625.6094 408.17188 628.15625Q408.17188 629.6094 407.65625 630.9219Q407.14062 632.2344 406.01562 633.6719Q405.26562 634.625 403.3125 636.4219Q401.35938 638.2031 400.84375 638.7969Q400.32812 639.375 400.0 639.9219L408.17188 639.9219ZM418.23438 622.1875Q421.35938 622.1875 423.10938 624.40625Q425.20312 627.0469 425.20312 633.15625Q425.20312 639.25 423.09375 641.9219Q421.35938 644.1094 418.23438 644.1094Q415.09375 644.1094 413.17188 641.7031Q411.26562 639.2969 411.26562 633.1094Q411.26562 627.0469 413.375 624.3906Q415.10938 622.1875 418.23438 622.1875ZM418.23438 625.59375Q417.48438 625.59375 416.89062 626.0781Q416.3125 626.5469 415.98438 627.78125Q415.5625 629.375 415.5625 633.15625Q415.5625 636.9375 415.9375 638.3594Q416.32812 639.7656 416.90625 640.2344Q417.48438 640.7031 418.23438 640.7031Q418.98438 640.7031 419.5625 640.2344Q420.15625 639.75 420.46875 638.5156Q420.90625 636.9375 420.90625 633.15625Q420.90625 629.375 420.51562 627.96875Q420.14062 626.5469 419.5625 626.0781Q418.98438 625.59375 418.23438 625.59375ZM442.17188 639.9219L442.17188 643.75L427.75 643.75Q427.98438 641.5781 429.15625 639.6406Q430.32812 637.7031 433.78125 634.4844Q436.5625 631.90625 437.20312 630.96875Q438.04688 629.7031 438.04688 628.4531Q438.04688 627.0781 437.29688 626.34375Q436.5625 625.59375 435.26562 625.59375Q433.96875 625.59375 433.20312 626.375Q432.45312 627.15625 432.32812 628.9531L428.23438 628.5469Q428.59375 625.1406 430.53125 623.6719Q432.46875 622.1875 435.35938 622.1875Q438.54688 622.1875 440.35938 623.90625Q442.17188 625.6094 442.17188 628.15625Q442.17188 629.6094 441.65625 630.9219Q441.14062 632.2344 440.01562 633.6719Q439.26562 634.625 437.3125 636.4219Q435.35938 638.2031 434.84375 638.7969Q434.32812 639.375 434.0 639.9219L442.17188 639.9219ZM455.8125 643.75L451.6875 643.75L451.6875 628.2344Q449.4375 630.34375 446.375 631.3594L446.375 627.625Q447.98438 627.09375 449.875 625.625Q451.76562 624.15625 452.46875 622.1875L455.8125 622.1875L455.8125 643.75Z" fill-rule="nonzero"/><path fill="#000000" d="M471.35938 625.46875Q469.26562 629.125 465.39062 632.15625L462.96875 629.0469Q468.10938 625.28125 469.98438 618.21875L473.4375 619.125Q474.90625 620.6094 473.20312 620.84375L472.75 621.9844L488.96875 621.9844L488.96875 625.46875L480.42188 625.46875L480.42188 628.2031L487.45312 628.2031L487.45312 631.6719L480.42188 631.6719L480.42188 635.7031L490.26562 635.7031L490.26562 639.1719L480.42188 639.1719L480.42188 646.21875L476.82812 646.21875L476.82812 639.1719L463.34375 639.1719L463.34375 635.7031L468.625 635.7031L468.625 628.2031L476.82812 628.2031L476.82812 625.46875L471.35938 625.46875ZM472.21875 635.7031L476.82812 635.7031L476.82812 631.6719L472.21875 631.6719L472.21875 635.7031Z" fill-rule="nonzero"/><path fill="#000000" d="M529.7607 639.9219L529.7607 643.75L515.3388 643.75Q515.5732 641.5781 516.74506 639.6406Q517.91693 637.7031 521.37006 634.4844Q524.1513 631.90625 524.79193 630.96875Q525.6357 629.7031 525.6357 628.4531Q525.6357 627.0781 524.8857 626.34375Q524.1513 625.59375 522.85443 625.59375Q521.55756 625.59375 520.79193 626.375Q520.04193 627.15625 519.91693 628.9531L515.8232 628.5469Q516.18256 625.1406 518.12006 623.6719Q520.05756 622.1875 522.9482 622.1875Q526.1357 622.1875 527.9482 623.90625Q529.7607 625.6094 529.7607 628.15625Q529.7607 629.6094 529.24506 630.9219Q528.72943 632.2344 527.60443 633.6719Q526.85443 634.625 524.9013 636.4219Q522.9482 638.2031 522.43256 638.7969Q521.91693 639.375 521.5888 639.9219L529.7607 639.9219ZM539.8232 622.1875Q542.9482 622.1875 544.6982 624.40625Q546.79193 627.0469 546.79193 633.15625Q546.79193 639.25 544.68256 641.9219Q542.9482 644.1094 539.8232 644.1094Q536.68256 644.1094 534.7607 641.7031Q532.85443 639.2969 532.85443 633.1094Q532.85443 627.0469 534.9638 624.3906Q536.6982 622.1875 539.8232 622.1875ZM539.8232 625.59375Q539.0732 625.59375 538.47943 626.0781Q537.9013 626.5469 537.5732 627.78125Q537.1513 629.375 537.1513 633.15625Q537.1513 636.9375 537.5263 638.3594Q537.91693 639.7656 538.49506 640.2344Q539.0732 640.7031 539.8232 640.7031Q540.5732 640.7031 541.1513 640.2344Q541.74506 639.75 542.05756 638.5156Q542.49506 636.9375 542.49506 633.15625Q542.49506 629.375 542.10443 627.96875Q541.72943 626.5469 541.1513 626.0781Q540.5732 625.59375 539.8232 625.59375ZM563.7607 639.9219L563.7607 643.75L549.3388 643.75Q549.5732 641.5781 550.74506 639.6406Q551.91693 637.7031 555.37006 634.4844Q558.1513 631.90625 558.79193 630.96875Q559.6357 629.7031 559.6357 628.4531Q559.6357 627.0781 558.8857 626.34375Q558.1513 625.59375 556.85443 625.59375Q555.55756 625.59375 554.79193 626.375Q554.04193 627.15625 553.91693 628.9531L549.8232 628.5469Q550.18256 625.1406 552.12006 623.6719Q554.05756 622.1875 556.9482 622.1875Q560.1357 622.1875 561.9482 623.90625Q563.7607 625.6094 563.7607 628.15625Q563.7607 629.6094 563.24506 630.9219Q562.72943 632.2344 561.60443 633.6719Q560.85443 634.625 558.9013 636.4219Q556.9482 638.2031 556.43256 638.7969Q555.91693 639.375 555.5888 639.9219L563.7607 639.9219ZM580.7607 639.9219L580.7607 643.75L566.3388 643.75Q566.5732 641.5781 567.74506 639.6406Q568.91693 637.7031 572.37006 634.4844Q575.1513 631.90625 575.79193 630.96875Q576.6357 629.7031 576.6357 628.4531Q576.6357 627.0781 575.8857 626.34375Q575.1513 625.59375 573.85443 625.59375Q572.55756 625.59375 571.79193 626.375Q571.04193 627.15625 570.91693 628.9531L566.8232 628.5469Q567.18256 625.1406 569.12006 623.6719Q571.05756 622.1875 573.9482 622.1875Q577.1357 622.1875 578.9482 623.90625Q580.7607 625.6094 580.7607 628.15625Q580.7607 629.6094 580.24506 630.9219Q579.72943 632.2344 578.60443 633.6719Q577.85443 634.625 575.9013 636.4219Q573.9482 638.2031 573.43256 638.7969Q572.91693 639.375 572.5888 639.9219L580.7607 639.9219Z" fill-rule="nonzero"/><path fill="#000000" d="M592.9482 625.46875Q590.85443 629.125 586.97943 632.15625L584.55756 629.0469Q589.6982 625.28125 591.5732 618.21875L595.0263 619.125Q596.49506 620.6094 594.79193 620.84375L594.3388 621.9844L610.55756 621.9844L610.55756 625.46875L602.0107 625.46875L602.0107 628.2031L609.04193 628.2031L609.04193 631.6719L602.0107 631.6719L602.0107 635.7031L611.85443 635.7031L611.85443 639.1719L602.0107 639.1719L602.0107 646.21875L598.41693 646.21875L598.41693 639.1719L584.93256 639.1719L584.93256 635.7031L590.2138 635.7031L590.2138 628.2031L598.41693 628.2031L598.41693 625.46875L592.9482 625.46875ZM593.80756 635.7031L598.41693 635.7031L598.41693 631.6719L593.80756 631.6719L593.80756 635.7031Z" fill-rule="nonzero"/><path fill="#000000" d="M651.3494 639.9219L651.3494 643.75L636.92755 643.75Q637.1619 641.5781 638.3338 639.6406Q639.5057 637.7031 642.9588 634.4844Q645.74005 631.90625 646.3807 630.96875Q647.2244 629.7031 647.2244 628.4531Q647.2244 627.0781 646.4744 626.34375Q645.74005 625.59375 644.4432 625.59375Q643.1463 625.59375 642.3807 626.375Q641.6307 627.15625 641.5057 628.9531L637.4119 628.5469Q637.7713 625.1406 639.7088 623.6719Q641.6463 622.1875 644.5369 622.1875Q647.7244 622.1875 649.5369 623.90625Q651.3494 625.6094 651.3494 628.15625Q651.3494 629.6094 650.8338 630.9219Q650.3182 632.2344 649.1932 633.6719Q648.4432 634.625 646.49005 636.4219Q644.5369 638.2031 644.0213 638.7969Q643.5057 639.375 643.17755 639.9219L651.3494 639.9219ZM661.4119 622.1875Q664.5369 622.1875 666.2869 624.40625Q668.3807 627.0469 668.3807 633.15625Q668.3807 639.25 666.2713 641.9219Q664.5369 644.1094 661.4119 644.1094Q658.2713 644.1094 656.3494 641.7031Q654.4432 639.2969 654.4432 633.1094Q654.4432 627.0469 656.55255 624.3906Q658.2869 622.1875 661.4119 622.1875ZM661.4119 625.59375Q660.6619 625.59375 660.0682 626.0781Q659.49005 626.5469 659.1619 627.78125Q658.74005 629.375 658.74005 633.15625Q658.74005 636.9375 659.11505 638.3594Q659.5057 639.7656 660.0838 640.2344Q660.6619 640.7031 661.4119 640.7031Q662.1619 640.7031 662.74005 640.2344Q663.3338 639.75 663.6463 638.5156Q664.0838 636.9375 664.0838 633.15625Q664.0838 629.375 663.6932 627.96875Q663.3182 626.5469 662.74005 626.0781Q662.1619 625.59375 661.4119 625.59375ZM685.3494 639.9219L685.3494 643.75L670.92755 643.75Q671.1619 641.5781 672.3338 639.6406Q673.5057 637.7031 676.9588 634.4844Q679.74005 631.90625 680.3807 630.96875Q681.2244 629.7031 681.2244 628.4531Q681.2244 627.0781 680.4744 626.34375Q679.74005 625.59375 678.4432 625.59375Q677.1463 625.59375 676.3807 626.375Q675.6307 627.15625 675.5057 628.9531L671.4119 628.5469Q671.7713 625.1406 673.7088 623.6719Q675.6463 622.1875 678.5369 622.1875Q681.7244 622.1875 683.5369 623.90625Q685.3494 625.6094 685.3494 628.15625Q685.3494 629.6094 684.8338 630.9219Q684.3182 632.2344 683.1932 633.6719Q682.4432 634.625 680.49005 636.4219Q678.5369 638.2031 678.0213 638.7969Q677.5057 639.375 677.17755 639.9219L685.3494 639.9219ZM688.30255 638.0469L692.2869 637.5625Q692.4744 639.09375 693.30255 639.90625Q694.1463 640.7031 695.3338 640.7031Q696.61505 640.7031 697.4744 639.7344Q698.3494 638.7656 698.3494 637.125Q698.3494 635.5781 697.5057 634.6719Q696.67755 633.7656 695.49005 633.7656Q694.6932 633.7656 693.5994 634.0625L694.05255 630.71875Q695.7244 630.75 696.5994 629.9844Q697.4744 629.21875 697.4744 627.9375Q697.4744 626.8594 696.8338 626.21875Q696.1932 625.5781 695.11505 625.5781Q694.0682 625.5781 693.3182 626.3125Q692.5682 627.03125 692.4119 628.4375L688.61505 627.7969Q689.0057 625.84375 689.80255 624.6875Q690.5994 623.5156 692.0213 622.8594Q693.4588 622.1875 695.24005 622.1875Q698.2713 622.1875 700.0994 624.125Q701.5994 625.7031 701.5994 627.6875Q701.5994 630.5156 698.5213 632.2031Q700.36505 632.6094 701.4588 633.9844Q702.5682 635.3594 702.5682 637.2969Q702.5682 640.125 700.5057 642.125Q698.4432 644.1094 695.36505 644.1094Q692.4588 644.1094 690.5369 642.4375Q688.61505 640.7656 688.30255 638.0469Z" fill-rule="nonzero"/><path fill="#000000" d="M714.5369 625.46875Q712.4432 629.125 708.5682 632.15625L706.1463 629.0469Q711.2869 625.28125 713.1619 618.21875L716.61505 619.125Q718.0838 620.6094 716.3807 620.84375L715.92755 621.9844L732.1463 621.9844L732.1463 625.46875L723.5994 625.46875L723.5994 628.2031L730.6307 628.2031L730.6307 631.6719L723.5994 631.6719L723.5994 635.7031L733.4432 635.7031L733.4432 639.1719L723.5994 639.1719L723.5994 646.21875L720.0057 646.21875L720.0057 639.1719L706.5213 639.1719L706.5213 635.7031L711.80255 635.7031L711.80255 628.2031L720.0057 628.2031L720.0057 625.46875L714.5369 625.46875ZM715.3963 635.7031L720.0057 635.7031L720.0057 631.6719L715.3963 631.6719L715.3963 635.7031Z" fill-rule="nonzero"/><path fill="#f39800" d="M250.5 88.083336C250.5 87.53105 250.94771 87.083336 251.5 87.083336L261.5 87.083336C262.05228 87.083336 262.5 87.53105 262.5 88.083336L262.5 98.083336C262.5 98.63562 262.05228 99.083336 261.5 99.083336L251.5 99.083336C250.94771 99.083336 250.5 98.63562 250.5 98.083336Z" fill-rule="nonzero"/><path fill="#1a1a1a" d="M285.79688 89.28646Q284.3125 97.770836 275.57812 101.645836L273.5625 99.520836Q281.5625 96.25521 282.98438 89.302086L277.46875 89.302086Q275.75 92.13021 273.53125 94.177086L271.25 92.69271Q275.625 88.75521 276.85938 83.520836L279.10938 84.302086Q280.4375 84.958336 279.125 85.458336Q278.85938 86.31771 278.625 86.770836L283.45312 86.770836L284.34375 86.28646L285.95312 87.91146Q286.98438 88.927086 285.79688 89.28646ZM285.8125 87.677086Q284.35938 85.583336 282.84375 84.38021L284.5 82.97396Q286.125 84.395836 287.5625 86.31771L285.8125 87.677086ZM288.14062 86.770836Q286.625 84.88021 285.3125 83.677086L286.82812 82.16146Q288.3125 83.53646 289.65625 85.25521L288.14062 86.770836ZM302.03125 96.81771Q304.79688 95.75521 307.95312 91.41146L309.54688 93.583336Q306.34375 97.97396 301.71875 99.81771L300.875 100.22396L299.17188 98.958336L299.42188 98.34896L299.42188 85.44271L301.51562 85.44271Q303.04688 85.78646 302.03125 86.66146L302.03125 96.81771ZM290.5 99.583336Q294.65625 95.59896 294.65625 90.22396L294.65625 86.302086L296.75 86.302086Q298.28125 86.645836 297.26562 87.520836L297.26562 90.145836Q297.26562 96.88021 292.76562 101.052086L290.5 99.583336ZM310.4375 93.677086L310.4375 91.145836L328.67188 91.145836L328.67188 93.677086L310.4375 93.677086ZM343.90625 85.833336Q344.35938 85.833336 344.64062 85.56771Q344.90625 85.28646 344.90625 84.833336Q344.90625 84.38021 344.64062 84.09896Q344.35938 83.833336 343.90625 83.833336Q343.45312 83.833336 343.17188 84.09896Q342.90625 84.38021 342.90625 84.833336Q342.90625 85.28646 343.17188 85.56771Q343.45312 85.833336 343.90625 85.833336ZM343.90625 87.427086Q342.79688 87.427086 342.0625 86.677086Q341.3125 85.94271 341.3125 84.833336Q341.3125 83.72396 342.0625 82.989586Q342.79688 82.239586 343.90625 82.239586Q345.01562 82.239586 345.75 82.989586Q346.5 83.72396 346.5 84.833336Q346.5 85.94271 345.75 86.677086Q345.01562 87.427086 343.90625 87.427086ZM329.51562 88.44271L329.51562 85.91146L341.60938 85.91146L343.9375 87.59896Q343.51562 97.56771 332.67188 100.614586L330.67188 98.177086Q340.78125 95.833336 341.20312 88.44271L329.51562 88.44271ZM358.125 84.63021Q360.8125 88.00521 366.125 89.66146L365.01562 92.22396Q359.23438 90.09896 356.5 86.31771Q355.34375 88.708336 353.84375 89.739586L361.60938 89.739586L361.60938 92.03646L352.04688 92.03646L352.04688 91.09896Q351.26562 91.739586 349.04688 92.75521L347.45312 90.614586Q353.46875 87.81771 355.32812 83.19271L357.67188 83.645836Q359.3125 83.88021 358.125 84.63021ZM353.01562 101.645836L350.64062 101.645836L350.64062 93.09896L363.09375 93.09896L363.09375 101.41146L360.71875 101.41146L360.71875 100.552086L353.01562 100.552086L353.01562 101.645836ZM353.01562 98.25521L360.71875 98.25521L360.71875 95.395836L353.01562 95.395836L353.01562 98.25521ZM379.78125 89.50521L379.78125 83.25521L381.71875 83.25521Q383.60938 83.63021 382.15625 84.44271L382.15625 89.50521L386.14062 89.50521L386.14062 91.802086L382.15625 91.802086L382.15625 101.489586L379.78125 101.489586L379.78125 91.802086L375.5625 91.802086L375.5625 89.50521L379.78125 89.50521ZM375.75 101.25521L373.375 101.25521L373.375 100.47396L370.98438 100.47396L370.98438 101.56771L368.60938 101.56771L368.60938 94.34896L375.75 94.34896L375.75 101.25521ZM370.98438 96.41146L370.98438 98.41146L373.375 98.41146L373.375 96.41146L370.98438 96.41146ZM375.28125 91.69271L375.28125 93.989586L369.07812 93.989586L369.07812 91.69271L375.28125 91.69271ZM369.07812 89.114586L375.28125 89.114586L375.28125 91.41146L369.07812 91.41146L369.07812 89.114586ZM367.59375 86.53646L376.6875 86.53646L376.6875 88.833336L367.59375 88.833336L367.59375 86.53646ZM375.28125 83.72396L375.28125 86.020836L369.07812 86.020836L369.07812 83.72396L375.28125 83.72396Z" fill-rule="nonzero"/><path fill="#4285f4" d="M402.5 88.083336C402.5 87.53105 402.94772 87.083336 403.5 87.083336L413.5 87.083336C414.05228 87.083336 414.5 87.53105 414.5 88.083336L414.5 98.083336C414.5 98.63562 414.05228 99.083336 413.5 99.083336L403.5 99.083336C402.94772 99.083336 402.5 98.63562 402.5 98.083336Z" fill-rule="nonzero"/><path fill="#1a1a1a" d="M437.0625 86.53646L440.65625 86.53646L440.65625 89.06771L437.0625 89.06771L437.0625 90.677086L441.98438 90.677086L441.98438 93.208336L437.5 93.208336Q438.51562 95.00521 442.65625 97.489586L441.32812 100.052086Q437.84375 97.53646 437.0625 96.395836L437.0625 101.88021L434.6875 101.88021L434.6875 96.72396Q433.75 98.31771 430.42188 100.56771L429.17188 98.302086Q432.76562 95.802086 434.29688 93.208336L430.07812 93.208336L430.07812 90.677086L434.6875 90.677086L434.6875 89.06771L433.17188 89.06771Q432.78125 89.97396 431.59375 91.38021L429.76562 89.44271Q431.375 87.75521 432.3125 84.50521L434.29688 84.989586Q435.78125 85.739586 434.3125 86.114586L434.17188 86.53646L434.6875 86.53646L434.6875 83.020836L436.60938 83.020836Q438.28125 83.22396 437.0625 84.09896L437.0625 86.53646ZM428.70312 101.88021L426.32812 101.88021L426.32812 95.69271Q426.3125 95.75521 424.40625 97.84896L422.9375 95.47396Q425.5 92.833336 426.17188 89.38021L423.67188 89.38021L423.67188 86.84896L426.32812 86.84896L426.32812 83.020836L428.26562 83.020836Q429.92188 83.427086 428.70312 84.13021L428.70312 86.84896L430.89062 86.84896L430.89062 89.38021L428.70312 89.38021L428.70312 91.020836Q430.14062 91.958336 431.46875 93.66146L429.73438 95.84896Q428.59375 93.989586 428.67188 94.00521L428.70312 101.88021ZM457.79688 96.59896Q458.6875 98.25521 459.23438 98.25521Q459.23438 98.28646 459.21875 98.13021L459.4375 96.270836L461.95312 97.41146L461.59375 99.583336Q461.29688 101.25521 459.78125 101.25521Q457.1875 101.25521 455.4375 97.833336Q453.82812 94.69271 453.75 89.458336L444.14062 89.458336L444.14062 86.927086L453.67188 86.927086L453.67188 83.333336L455.84375 83.333336Q457.625 83.69271 456.28125 84.583336L456.28125 86.927086L461.75 86.927086L461.75 89.458336L456.3125 89.458336Q456.59375 94.41146 457.79688 96.59896ZM454.85938 98.50521Q450.09375 99.53646 445.90625 100.270836Q445.60938 101.59896 444.64062 100.239586L444.14062 97.739586Q446.53125 97.552086 448.04688 97.302086L448.04688 93.59896L444.92188 93.59896L444.92188 91.302086L453.46875 91.302086L453.46875 93.59896L450.42188 93.59896L450.42188 96.94271Q451.75 96.770836 454.48438 96.22396L454.85938 98.50521ZM457.92188 83.645836Q459.3125 84.333336 460.70312 85.63021L458.65625 87.333336Q457.65625 86.333336 455.95312 85.38021L457.92188 83.645836ZM475.60938 89.270836Q474.17188 88.489586 472.73438 86.020836Q471.32812 88.31771 470.01562 89.270836L475.60938 89.270836ZM481.125 91.78646Q479.39062 91.38021 477.76562 90.458336L477.76562 91.802086L468.125 91.802086L468.125 90.614586Q466.59375 91.69271 464.29688 92.364586L463.3125 89.708336Q469.03125 88.16146 471.75 83.145836L473.65625 83.41146Q475.3125 83.614586 474.25 84.395836Q476.4375 87.677086 482.21875 89.16146L481.125 91.78646ZM479.04688 101.78646Q478.23438 100.645836 477.53125 100.020836L466.53125 101.239586Q465.98438 101.770836 465.28125 101.25521L464.5625 98.677086L468.04688 98.50521L469.79688 95.31771L464.45312 95.31771L464.45312 92.78646L481.28125 92.78646L481.28125 95.31771L472.67188 95.31771L470.84375 98.34896L475.53125 98.00521Q475.21875 97.72396 473.53125 96.458336L475.65625 95.03646Q479.6875 98.052086 481.39062 100.333336L479.04688 101.78646ZM489.17188 86.614586L490.23438 86.614586L490.71875 86.13021L492.51562 87.927086L491.65625 88.552086Q490.75 90.28646 489.45312 91.895836Q490.90625 92.34896 492.71875 93.59896L491.48438 96.09896Q489.78125 94.708336 489.17188 94.34896L489.17188 101.802086L486.79688 101.802086L486.79688 94.56771Q486.03125 95.239586 484.125 96.34896L483.07812 94.03646Q487.0625 91.88021 488.76562 88.91146L483.90625 88.91146L483.90625 86.614586L486.79688 86.614586L486.79688 83.25521L488.71875 83.25521Q490.39062 83.458336 489.17188 84.333336L489.17188 86.614586ZM497.32812 83.72396Q499.10938 84.083336 497.76562 84.97396L497.76562 88.489586L501.35938 88.489586L501.35938 91.020836L497.76562 91.020836L497.76562 98.333336L502.0625 98.333336L502.0625 100.864586L490.54688 100.864586L490.54688 98.333336L495.15625 98.333336L495.15625 91.020836L491.79688 91.020836L491.79688 88.489586L495.15625 88.489586L495.15625 83.72396L497.32812 83.72396ZM517.7969 89.28646Q516.3125 97.770836 507.57812 101.645836L505.5625 99.520836Q513.5625 96.25521 514.9844 89.302086L509.46875 89.302086Q507.75 92.13021 505.53125 94.177086L503.25 92.69271Q507.625 88.75521 508.85938 83.520836L511.10938 84.302086Q512.4375 84.958336 511.125 85.458336Q510.85938 86.31771 510.625 86.770836L515.4531 86.770836L516.34375 86.28646L517.9531 87.91146Q518.9844 88.927086 517.7969 89.28646ZM531.4219 92.802086Q531.4219 98.91146 525.4844 101.72396L523.2344 99.802086Q528.7344 97.302086 528.8125 92.72396L528.8125 84.50521L530.90625 84.50521Q532.6094 84.84896 531.4219 85.739586L531.4219 92.802086ZM523.375 94.927086L520.7656 94.927086L520.7656 85.28646L522.90625 85.28646Q524.71875 85.47396 523.375 86.520836L523.375 94.927086ZM543.875 92.677086Q544.0 97.864586 538.28125 101.458336L536.3906 99.333336Q541.2344 96.708336 541.2344 92.41146L541.2344 88.645836L543.2969 88.645836Q544.9531 88.833336 543.84375 89.78646L543.84375 90.81771Q545.9531 89.239586 546.90625 87.927086L534.625 88.38021L534.40625 85.770836L549.0 85.364586L549.75 85.145836L551.09375 86.770836Q551.9219 87.84896 550.5781 87.69271Q548.34375 90.583336 544.75 93.489586L543.875 92.677086Z" fill-rule="nonzero"/><path fill="#757575" d="M652.7344 57.453125L650.8594 57.453125Q649.3594 55.203125 648.5781 52.78125Q647.7969 50.34375 647.7969 48.0625Q647.7969 45.234375 648.7656 42.71875Q649.6094 40.53125 650.8906 38.6875L652.7656 38.6875Q651.4219 41.640625 650.9219 43.71875Q650.4219 45.796875 650.4219 48.125Q650.4219 49.71875 650.71875 51.40625Q651.0156 53.078125 651.53125 54.59375Q651.875 55.59375 652.7344 57.453125Z" fill-rule="nonzero"/><path fill="#757575" d="M669.4375 40.09375L671.125 40.09375L671.125 48.953125L668.75 48.953125L668.75 48.484375L665.2656 48.484375L665.2656 49.3125L673.46875 49.3125L673.46875 51.609375L665.2656 51.609375L665.2656 54.890625L662.8906 54.890625L662.8906 51.609375L654.84375 51.609375L654.84375 49.3125L662.8906 49.3125L662.8906 48.484375L659.4844 48.484375L659.4844 49.109375L657.1094 49.109375L657.1094 40.09375L666.59375 40.09375L669.2031 36.109375L671.03125 37.359375Q672.34375 38.40625 670.7656 38.40625L669.4375 40.09375ZM663.625 36.3125Q665.4219 37.8125 666.1719 39.21875L664.0156 40.796875Q663.2031 39.265625 661.65625 37.8125L663.625 36.3125ZM662.8906 43.21875L662.8906 42.390625L659.4844 42.390625L659.4844 43.21875L662.8906 43.21875ZM668.75 43.21875L668.75 42.390625L665.2656 42.390625L665.2656 43.21875L668.75 43.21875ZM662.8906 46.1875L662.8906 45.515625L659.4844 45.515625L659.4844 46.1875L662.8906 46.1875ZM668.75 46.1875L668.75 45.515625L665.2656 45.515625L665.2656 46.1875L668.75 46.1875ZM659.0 40.84375Q658.2031 39.265625 656.8125 37.96875L658.7969 36.453125Q660.34375 37.90625 661.1719 39.46875L659.0 40.84375ZM690.9219 44.421875Q690.3281 47.5625 688.9531 51.265625L693.3906 51.265625L693.3906 53.5625L679.53125 53.5625L679.53125 51.265625L686.3594 51.265625Q687.6719 46.890625 688.4531 42.71875L690.8906 43.40625Q691.71875 43.953125 690.9219 44.421875ZM677.2656 54.8125L677.4219 45.46875Q677.53125 45.578125 675.90625 47.421875L674.4219 45.125Q677.6719 41.953125 678.4219 36.375L680.71875 37.078125Q682.0469 37.734375 680.75 38.234375Q680.1719 40.640625 679.4375 41.984375L679.59375 41.921875Q680.28125 42.609375 679.6406 43.0L679.6406 54.8125L677.2656 54.8125ZM683.6719 43.515625Q685.0156 46.390625 685.71875 49.828125L683.1406 50.71875Q682.4375 47.1875 681.1875 44.3125L683.6719 43.515625ZM692.53125 40.484375L692.53125 42.78125L680.3906 42.78125L680.3906 40.484375L685.15625 40.484375L685.15625 36.65625L687.0781 36.65625Q688.75 36.859375 687.53125 37.734375L687.53125 40.484375L692.53125 40.484375Z" fill-rule="nonzero"/><path fill="#757575" d="M695.71875 45.625L695.71875 42.875L698.4531 42.875L698.4531 45.625L695.71875 45.625ZM695.71875 53.25L695.71875 50.5L698.4531 50.5L698.4531 53.25L695.71875 53.25Z" fill-rule="nonzero"/><path fill="#757575" d="M720.2344 37.515625L720.2344 40.046875L712.5 40.046875L712.125 41.8125L718.2031 41.8125L718.2031 54.5L715.59375 54.5L715.59375 53.484375L706.9531 53.484375L706.9531 54.8125L704.34375 54.8125L704.34375 41.8125L709.40625 41.8125L709.7344 40.046875L702.0781 40.046875L702.0781 37.515625L720.2344 37.515625ZM706.9531 48.796875L706.9531 51.1875L715.59375 51.1875L715.59375 48.796875L706.9531 48.796875ZM715.59375 46.5L715.59375 44.109375L706.9531 44.109375L706.9531 46.5L715.59375 46.5ZM728.25 40.515625L722.46875 40.515625L722.46875 37.984375L740.0 37.984375L740.0 40.515625L730.8594 40.515625Q730.8594 41.765625 730.75 42.984375L738.59375 42.984375Q738.59375 48.609375 737.71875 51.625Q737.0156 54.1875 734.5156 54.1875L731.125 54.1875L730.6719 51.65625L733.96875 51.65625Q734.9844 51.65625 735.21875 50.859375Q735.8281 48.796875 735.8906 45.515625L730.3906 45.515625Q729.1719 51.3125 723.7656 54.234375L722.125 51.828125Q728.25 48.765625 728.25 41.4375L728.25 40.515625ZM758.9844 52.609375Q758.9844 54.265625 757.3281 54.265625L754.9844 54.265625L754.2969 51.734375L756.46875 51.734375Q756.46875 51.828125 756.375 51.828125L756.375 47.0L745.7031 47.0L745.7031 54.34375L743.09375 54.34375L743.09375 37.671875L758.9844 37.671875L758.9844 52.609375ZM756.375 39.96875L752.1875 39.96875L752.1875 44.703125L756.375 44.703125L756.375 39.96875ZM745.7031 39.96875L745.7031 44.703125L749.8125 44.703125L749.8125 39.96875L745.7031 39.96875Z" fill-rule="nonzero"/><path fill="#757575" d="M761.4219 57.453125Q762.2344 55.71875 762.5625 54.78125Q762.90625 53.859375 763.1875 52.65625Q763.46875 51.4375 763.59375 50.359375Q763.7344 49.265625 763.7344 48.125Q763.7344 45.796875 763.2344 43.71875Q762.75 41.640625 761.40625 38.6875L763.2656 38.6875Q764.75 40.78125 765.5625 43.140625Q766.375 45.5 766.375 47.921875Q766.375 49.953125 765.7344 52.296875Q765.0 54.90625 763.3125 57.453125L761.4219 57.453125Z" fill-rule="nonzero"/></svg>