<svg version="1.1" viewBox="0.0 0.0 799.0 679.0" fill="none" stroke="none" stroke-linecap="square" stroke-miterlimit="10" width="799" height="679" xmlns:xlink="http://www.w3.org/1999/xlink" xmlns="http://www.w3.org/2000/svg"><path fill="#ffffff" d="M0 0L799.0 0L799.0 679.0L0 679.0L0 0Z" fill-rule="nonzero"/><path stroke="#333333" stroke-width="1.0" stroke-linecap="butt" d="M116.5 595.5L765.5 595.5" fill-rule="nonzero"/><path stroke="#cccccc" stroke-width="1.0" stroke-linecap="butt" d="M116.5 504.5L765.5 504.5" fill-rule="nonzero"/><path stroke="#cccccc" stroke-width="1.0" stroke-linecap="butt" d="M116.5 414.5L765.5 414.5" fill-rule="nonzero"/><path stroke="#cccccc" stroke-width="1.0" stroke-linecap="butt" d="M116.5 324.5L765.5 324.5" fill-rule="nonzero"/><path stroke="#cccccc" stroke-width="1.0" stroke-linecap="butt" d="M116.5 234.5L765.5 234.5" fill-rule="nonzero"/><path stroke="#cccccc" stroke-width="1.0" stroke-linecap="butt" d="M116.5 144.5L765.5 144.5" fill-rule="nonzero"/><clipPath id="id_0"><path d="M116.95 144.71666L765.05 144.71666L765.05 595.05L116.95 595.05L116.95 144.71666Z" clip-rule="nonzero"/></clipPath><path stroke="#000000" stroke-width="2.0" stroke-linecap="butt" stroke-opacity="0.0" clip-path="url(#id_0)" d="M239.0 595.0L160.0 595.0L160.0 579.0L239.0 579.0Z" fill-rule="nonzero"/><path fill="#4285f4" clip-path="url(#id_0)" d="M239.0 595.0L160.0 595.0L160.0 579.0L239.0 579.0Z" fill-rule="nonzero"/><path stroke="#000000" stroke-width="2.0" stroke-linecap="butt" stroke-opacity="0.0" clip-path="url(#id_0)" d="M360.0 595.0L281.0 595.0L281.0 553.0L360.0 553.0Z" fill-rule="nonzero"/><path fill="#4285f4" clip-path="url(#id_0)" d="M360.0 595.0L281.0 595.0L281.0 553.0L360.0 553.0Z" fill-rule="nonzero"/><path stroke="#000000" stroke-width="2.0" stroke-linecap="butt" stroke-opacity="0.0" clip-path="url(#id_0)" d="M481.0 595.0L402.0 595.0L402.0 502.0L481.0 502.0Z" fill-rule="nonzero"/><path fill="#4285f4" clip-path="url(#id_0)" d="M481.0 595.0L402.0 595.0L402.0 502.0L481.0 502.0Z" fill-rule="nonzero"/><path stroke="#000000" stroke-width="2.0" stroke-linecap="butt" stroke-opacity="0.0" clip-path="url(#id_0)" d="M602.0 595.0L523.0 595.0L523.0 408.0L602.0 408.0Z" fill-rule="nonzero"/><path fill="#4285f4" clip-path="url(#id_0)" d="M602.0 595.0L523.0 595.0L523.0 408.0L602.0 408.0Z" fill-rule="nonzero"/><path stroke="#000000" stroke-width="2.0" stroke-linecap="butt" stroke-opacity="0.0" clip-path="url(#id_0)" d="M723.0 595.0L644.0 595.0L644.0 306.0L723.0 306.0Z" fill-rule="nonzero"/><path fill="#4285f4" clip-path="url(#id_0)" d="M723.0 595.0L644.0 595.0L644.0 306.0L723.0 306.0Z" fill-rule="nonzero"/><path stroke="#000000" stroke-width="2.0" stroke-linecap="butt" stroke-opacity="0.0" clip-path="url(#id_0)" d="M239.0 579.0L160.0 579.0L160.0 579.0L239.0 579.0Z" fill-rule="nonzero"/><path fill="#f39800" clip-path="url(#id_0)" d="M239.0 579.0L160.0 579.0L160.0 579.0L239.0 579.0Z" fill-rule="nonzero"/><path stroke="#000000" stroke-width="2.0" stroke-linecap="butt" stroke-opacity="0.0" clip-path="url(#id_0)" d="M360.0 553.0L281.0 553.0L281.0 553.0L360.0 553.0Z" fill-rule="nonzero"/><path fill="#f39800" clip-path="url(#id_0)" d="M360.0 553.0L281.0 553.0L281.0 553.0L360.0 553.0Z" fill-rule="nonzero"/><path stroke="#ffffff" stroke-width="2.0" stroke-linecap="butt" clip-path="url(#id_0)" d="M481.0 502.0L402.0 502.0L402.0 495.0C402.0 493.89542 402.89542 493.0 404.0 493.0L479.0 493.0C480.10458 493.0 481.0 493.89542 481.0 495.0Z" fill-rule="nonzero"/><path fill="#f39800" clip-path="url(#id_0)" d="M481.0 502.0L402.0 502.0L402.0 495.0C402.0 493.89542 402.89542 493.0 404.0 493.0L479.0 493.0C480.10458 493.0 481.0 493.89542 481.0 495.0Z" fill-rule="nonzero"/><path stroke="#000000" stroke-width="2.0" stroke-linecap="butt" stroke-opacity="0.0" clip-path="url(#id_0)" d="M602.0 408.0L523.0 408.0L523.0 343.0C523.0 341.89542 523.89545 341.0 525.0 341.0L600.0 341.0C601.10455 341.0 602.0 341.89542 602.0 343.0Z" fill-rule="nonzero"/><path fill="#f39800" clip-path="url(#id_0)" d="M602.0 408.0L523.0 408.0L523.0 343.0C523.0 341.89542 523.89545 341.0 525.0 341.0L600.0 341.0C601.10455 341.0 602.0 341.89542 602.0 343.0Z" fill-rule="nonzero"/><path stroke="#000000" stroke-width="2.0" stroke-linecap="butt" stroke-opacity="0.0" clip-path="url(#id_0)" d="M723.0 306.0L644.0 306.0L644.0 192.0C644.0 190.89543 644.89545 190.0 646.0 190.0L721.0 190.0C722.10455 190.0 723.0 190.89543 723.0 192.0Z" fill-rule="nonzero"/><path fill="#f39800" clip-path="url(#id_0)" d="M723.0 306.0L644.0 306.0L644.0 192.0C644.0 190.89543 644.89545 190.0 646.0 190.0L721.0 190.0C722.10455 190.0 723.0 190.89543 723.0 192.0Z" fill-rule="nonzero"/><path stroke="#ffffff" stroke-width="3.0" stroke-linejoin="round" stroke-linecap="round" d="M180.64062 528.8849L185.42188 528.35364Q185.59375 529.80676 186.32812 530.5099Q187.0625 531.213 188.28125 531.213Q189.8125 531.213 190.875 529.80676Q191.95312 528.4005 192.25 523.97864Q190.39062 526.1349 187.59375 526.1349Q184.5625 526.1349 182.34375 523.79114Q180.14062 521.4474 180.14062 517.68176Q180.14062 513.7599 182.46875 511.36926Q184.79688 508.963 188.40625 508.963Q192.32812 508.963 194.84375 511.99426Q197.35938 515.0255 197.35938 521.963Q197.35938 529.04114 194.73438 532.16614Q192.10938 535.29114 187.90625 535.29114Q184.89062 535.29114 183.01562 533.68176Q181.15625 532.0724 180.64062 528.8849ZM191.8125 518.088Q191.8125 515.6974 190.71875 514.3849Q189.625 513.05676 188.17188 513.05676Q186.8125 513.05676 185.90625 514.1349Q185.0 515.213 185.0 517.68176Q185.0 520.18176 185.98438 521.35364Q186.96875 522.5099 188.4375 522.5099Q189.85938 522.5099 190.82812 521.3849Q191.8125 520.2599 191.8125 518.088ZM208.875 508.963Q212.625 508.963 214.73438 511.6349Q217.25 514.79114 217.25 522.1349Q217.25 529.4474 214.71875 532.6349Q212.625 535.2755 208.875 535.2755Q205.125 535.2755 202.8125 532.3849Q200.51562 529.49426 200.51562 522.0724Q200.51562 514.79114 203.04688 511.60364Q205.14062 508.963 208.875 508.963ZM208.875 513.05676Q207.98438 513.05676 207.28125 513.6349Q206.57812 514.1974 206.1875 515.68176Q205.6875 517.588 205.6875 522.1349Q205.6875 526.66614 206.14062 528.36926Q206.59375 530.05676 207.28125 530.61926Q207.98438 531.18176 208.875 531.18176Q209.78125 531.18176 210.48438 530.61926Q211.1875 530.04114 211.5625 528.55676Q212.07812 526.66614 212.07812 522.1349Q212.07812 517.588 211.625 515.9005Q211.17188 514.1974 210.46875 513.6349Q209.78125 513.05676 208.875 513.05676Z" fill-rule="nonzero"/><path fill="#4285f4" d="M180.64062 528.8849L185.42188 528.35364Q185.59375 529.80676 186.32812 530.5099Q187.0625 531.213 188.28125 531.213Q189.8125 531.213 190.875 529.80676Q191.95312 528.4005 192.25 523.97864Q190.39062 526.1349 187.59375 526.1349Q184.5625 526.1349 182.34375 523.79114Q180.14062 521.4474 180.14062 517.68176Q180.14062 513.7599 182.46875 511.36926Q184.79688 508.963 188.40625 508.963Q192.32812 508.963 194.84375 511.99426Q197.35938 515.0255 197.35938 521.963Q197.35938 529.04114 194.73438 532.16614Q192.10938 535.29114 187.90625 535.29114Q184.89062 535.29114 183.01562 533.68176Q181.15625 532.0724 180.64062 528.8849ZM191.8125 518.088Q191.8125 515.6974 190.71875 514.3849Q189.625 513.05676 188.17188 513.05676Q186.8125 513.05676 185.90625 514.1349Q185.0 515.213 185.0 517.68176Q185.0 520.18176 185.98438 521.35364Q186.96875 522.5099 188.4375 522.5099Q189.85938 522.5099 190.82812 521.3849Q191.8125 520.2599 191.8125 518.088ZM208.875 508.963Q212.625 508.963 214.73438 511.6349Q217.25 514.79114 217.25 522.1349Q217.25 529.4474 214.71875 532.6349Q212.625 535.2755 208.875 535.2755Q205.125 535.2755 202.8125 532.3849Q200.51562 529.49426 200.51562 522.0724Q200.51562 514.79114 203.04688 511.60364Q205.14062 508.963 208.875 508.963ZM208.875 513.05676Q207.98438 513.05676 207.28125 513.6349Q206.57812 514.1974 206.1875 515.68176Q205.6875 517.588 205.6875 522.1349Q205.6875 526.66614 206.14062 528.36926Q206.59375 530.05676 207.28125 530.61926Q207.98438 531.18176 208.875 531.18176Q209.78125 531.18176 210.48438 530.61926Q211.1875 530.04114 211.5625 528.55676Q212.07812 526.66614 212.07812 522.1349Q212.07812 517.588 211.625 515.9005Q211.17188 514.1974 210.46875 513.6349Q209.78125 513.05676 208.875 513.05676Z" fill-rule="nonzero"/><path stroke="#ffffff" stroke-width="3.0" stroke-linejoin="round" stroke-linecap="round" d="M308.21875 504.6653L308.21875 509.25906L290.89062 509.25906Q291.17188 506.6497 292.57812 504.32156Q293.98438 501.99344 298.14062 498.1497Q301.48438 495.0403 302.23438 493.93094Q303.25 492.3997 303.25 490.8997Q303.25 489.25906 302.35938 488.36844Q301.48438 487.4778 299.92188 487.4778Q298.375 487.4778 297.45312 488.4153Q296.54688 489.3372 296.40625 491.50906L291.48438 491.00906Q291.92188 486.93094 294.23438 485.1653Q296.5625 483.38406 300.03125 483.38406Q303.85938 483.38406 306.03125 485.44656Q308.21875 487.49344 308.21875 490.55594Q308.21875 492.2903 307.59375 493.86844Q306.96875 495.44656 305.60938 497.1653Q304.71875 498.30594 302.375 500.4622Q300.03125 502.6028 299.40625 503.30594Q298.79688 504.00906 298.40625 504.6653L308.21875 504.6653ZM311.35938 502.4153L316.14062 501.8372Q316.35938 503.6653 317.35938 504.63406Q318.375 505.6028 319.79688 505.6028Q321.32812 505.6028 322.35938 504.44656Q323.40625 503.2747 323.40625 501.30594Q323.40625 499.44656 322.40625 498.36844Q321.40625 497.2747 319.96875 497.2747Q319.01562 497.2747 317.70312 497.63406L318.25 493.61844Q320.25 493.6653 321.29688 492.74344Q322.35938 491.82156 322.35938 490.2903Q322.35938 488.99344 321.57812 488.2278Q320.8125 487.44656 319.53125 487.44656Q318.26562 487.44656 317.35938 488.32156Q316.46875 489.19656 316.28125 490.88406L311.71875 490.11844Q312.20312 487.7747 313.15625 486.38406Q314.10938 484.9778 315.82812 484.18094Q317.54688 483.38406 319.67188 483.38406Q323.3125 483.38406 325.5 485.69656Q327.3125 487.6028 327.3125 489.99344Q327.3125 493.38406 323.60938 495.3997Q325.82812 495.88406 327.14062 497.5403Q328.46875 499.18094 328.46875 501.5247Q328.46875 504.9153 325.98438 507.30594Q323.51562 509.69656 319.82812 509.69656Q316.32812 509.69656 314.01562 507.68094Q311.71875 505.6653 311.35938 502.4153ZM348.21875 504.6653L348.21875 509.25906L330.89062 509.25906Q331.17188 506.6497 332.57812 504.32156Q333.98438 501.99344 338.14062 498.1497Q341.48438 495.0403 342.23438 493.93094Q343.25 492.3997 343.25 490.8997Q343.25 489.25906 342.35938 488.36844Q341.48438 487.4778 339.92188 487.4778Q338.375 487.4778 337.45312 488.4153Q336.54688 489.3372 336.40625 491.50906L331.48438 491.00906Q331.92188 486.93094 334.23438 485.1653Q336.5625 483.38406 340.03125 483.38406Q343.85938 483.38406 346.03125 485.44656Q348.21875 487.49344 348.21875 490.55594Q348.21875 492.2903 347.59375 493.86844Q346.96875 495.44656 345.60938 497.1653Q344.71875 498.30594 342.375 500.4622Q340.03125 502.6028 339.40625 503.30594Q338.79688 504.00906 338.40625 504.6653L348.21875 504.6653Z" fill-rule="nonzero"/><path fill="#4285f4" d="M308.21875 504.6653L308.21875 509.25906L290.89062 509.25906Q291.17188 506.6497 292.57812 504.32156Q293.98438 501.99344 298.14062 498.1497Q301.48438 495.0403 302.23438 493.93094Q303.25 492.3997 303.25 490.8997Q303.25 489.25906 302.35938 488.36844Q301.48438 487.4778 299.92188 487.4778Q298.375 487.4778 297.45312 488.4153Q296.54688 489.3372 296.40625 491.50906L291.48438 491.00906Q291.92188 486.93094 294.23438 485.1653Q296.5625 483.38406 300.03125 483.38406Q303.85938 483.38406 306.03125 485.44656Q308.21875 487.49344 308.21875 490.55594Q308.21875 492.2903 307.59375 493.86844Q306.96875 495.44656 305.60938 497.1653Q304.71875 498.30594 302.375 500.4622Q300.03125 502.6028 299.40625 503.30594Q298.79688 504.00906 298.40625 504.6653L308.21875 504.6653ZM311.35938 502.4153L316.14062 501.8372Q316.35938 503.6653 317.35938 504.63406Q318.375 505.6028 319.79688 505.6028Q321.32812 505.6028 322.35938 504.44656Q323.40625 503.2747 323.40625 501.30594Q323.40625 499.44656 322.40625 498.36844Q321.40625 497.2747 319.96875 497.2747Q319.01562 497.2747 317.70312 497.63406L318.25 493.61844Q320.25 493.6653 321.29688 492.74344Q322.35938 491.82156 322.35938 490.2903Q322.35938 488.99344 321.57812 488.2278Q320.8125 487.44656 319.53125 487.44656Q318.26562 487.44656 317.35938 488.32156Q316.46875 489.19656 316.28125 490.88406L311.71875 490.11844Q312.20312 487.7747 313.15625 486.38406Q314.10938 484.9778 315.82812 484.18094Q317.54688 483.38406 319.67188 483.38406Q323.3125 483.38406 325.5 485.69656Q327.3125 487.6028 327.3125 489.99344Q327.3125 493.38406 323.60938 495.3997Q325.82812 495.88406 327.14062 497.5403Q328.46875 499.18094 328.46875 501.5247Q328.46875 504.9153 325.98438 507.30594Q323.51562 509.69656 319.82812 509.69656Q316.32812 509.69656 314.01562 507.68094Q311.71875 505.6653 311.35938 502.4153ZM348.21875 504.6653L348.21875 509.25906L330.89062 509.25906Q331.17188 506.6497 332.57812 504.32156Q333.98438 501.99344 338.14062 498.1497Q341.48438 495.0403 342.23438 493.93094Q343.25 492.3997 343.25 490.8997Q343.25 489.25906 342.35938 488.36844Q341.48438 487.4778 339.92188 487.4778Q338.375 487.4778 337.45312 488.4153Q336.54688 489.3372 336.40625 491.50906L331.48438 491.00906Q331.92188 486.93094 334.23438 485.1653Q336.5625 483.38406 340.03125 483.38406Q343.85938 483.38406 346.03125 485.44656Q348.21875 487.49344 348.21875 490.55594Q348.21875 492.2903 347.59375 493.86844Q346.96875 495.44656 345.60938 497.1653Q344.71875 498.30594 342.375 500.4622Q340.03125 502.6028 339.40625 503.30594Q338.79688 504.00906 338.40625 504.6653L348.21875 504.6653Z" fill-rule="nonzero"/><path stroke="#ffffff" stroke-width="3.0" stroke-linejoin="round" stroke-linecap="round" d="M660.414 172.7483L660.414 177.34206L643.0859 177.34206Q643.3671 174.73268 644.7734 172.40456Q646.1796 170.07643 650.3359 166.23268Q653.6796 163.1233 654.4296 162.01393Q655.44525 160.48268 655.44525 158.98268Q655.44525 157.34206 654.5546 156.45143Q653.6796 155.5608 652.1171 155.5608Q650.57025 155.5608 649.6484 156.4983Q648.7421 157.42018 648.6015 159.59206L643.6796 159.09206Q644.1171 155.01393 646.4296 153.2483Q648.75775 151.46706 652.2265 151.46706Q656.0546 151.46706 658.2265 153.52956Q660.414 155.57643 660.414 158.63893Q660.414 160.3733 659.789 161.95143Q659.164 163.52956 657.8046 165.2483Q656.914 166.38893 654.57025 168.54518Q652.2265 170.6858 651.6015 171.38893Q650.9921 172.09206 650.6015 172.7483L660.414 172.7483ZM680.414 172.7483L680.414 177.34206L663.0859 177.34206Q663.3671 174.73268 664.7734 172.40456Q666.1796 170.07643 670.3359 166.23268Q673.6796 163.1233 674.4296 162.01393Q675.44525 160.48268 675.44525 158.98268Q675.44525 157.34206 674.5546 156.45143Q673.6796 155.5608 672.1171 155.5608Q670.57025 155.5608 669.6484 156.4983Q668.7421 157.42018 668.6015 159.59206L663.6796 159.09206Q664.1171 155.01393 666.4296 153.2483Q668.75775 151.46706 672.2265 151.46706Q676.0546 151.46706 678.2265 153.52956Q680.414 155.57643 680.414 158.63893Q680.414 160.3733 679.789 161.95143Q679.164 163.52956 677.8046 165.2483Q676.914 166.38893 674.57025 168.54518Q672.2265 170.6858 671.6015 171.38893Q670.9921 172.09206 670.6015 172.7483L680.414 172.7483ZM683.789 170.71706L688.7109 170.20143Q688.9296 171.8733 689.9609 172.85768Q691.00775 173.82643 692.3515 173.82643Q693.8984 173.82643 694.9765 172.57643Q696.0546 171.3108 696.0546 168.77956Q696.0546 166.40456 694.9765 165.21706Q693.914 164.02956 692.2109 164.02956Q690.0859 164.02956 688.3984 165.92018L684.3984 165.34206L686.9296 151.92018L699.9921 151.92018L699.9921 156.54518L690.664 156.54518L689.8984 160.92018Q691.5546 160.09206 693.2734 160.09206Q696.5546 160.09206 698.8359 162.48268Q701.13275 164.8733 701.13275 168.6858Q701.13275 171.8733 699.289 174.3733Q696.7734 177.77956 692.3046 177.77956Q688.7421 177.77956 686.4921 175.8733Q684.2421 173.95143 683.789 170.71706ZM720.414 172.7483L720.414 177.34206L703.0859 177.34206Q703.3671 174.73268 704.7734 172.40456Q706.1796 170.07643 710.3359 166.23268Q713.6796 163.1233 714.4296 162.01393Q715.44525 160.48268 715.44525 158.98268Q715.44525 157.34206 714.5546 156.45143Q713.6796 155.5608 712.1171 155.5608Q710.57025 155.5608 709.6484 156.4983Q708.7421 157.42018 708.6015 159.59206L703.6796 159.09206Q704.1171 155.01393 706.4296 153.2483Q708.75775 151.46706 712.2265 151.46706Q716.0546 151.46706 718.2265 153.52956Q720.414 155.57643 720.414 158.63893Q720.414 160.3733 719.789 161.95143Q719.164 163.52956 717.8046 165.2483Q716.914 166.38893 714.57025 168.54518Q712.2265 170.6858 711.6015 171.38893Q710.9921 172.09206 710.6015 172.7483L720.414 172.7483Z" fill-rule="nonzero"/><path fill="#4285f4" d="M660.414 172.7483L660.414 177.34206L643.0859 177.34206Q643.3671 174.73268 644.7734 172.40456Q646.1796 170.07643 650.3359 166.23268Q653.6796 163.1233 654.4296 162.01393Q655.44525 160.48268 655.44525 158.98268Q655.44525 157.34206 654.5546 156.45143Q653.6796 155.5608 652.1171 155.5608Q650.57025 155.5608 649.6484 156.4983Q648.7421 157.42018 648.6015 159.59206L643.6796 159.09206Q644.1171 155.01393 646.4296 153.2483Q648.75775 151.46706 652.2265 151.46706Q656.0546 151.46706 658.2265 153.52956Q660.414 155.57643 660.414 158.63893Q660.414 160.3733 659.789 161.95143Q659.164 163.52956 657.8046 165.2483Q656.914 166.38893 654.57025 168.54518Q652.2265 170.6858 651.6015 171.38893Q650.9921 172.09206 650.6015 172.7483L660.414 172.7483ZM680.414 172.7483L680.414 177.34206L663.0859 177.34206Q663.3671 174.73268 664.7734 172.40456Q666.1796 170.07643 670.3359 166.23268Q673.6796 163.1233 674.4296 162.01393Q675.44525 160.48268 675.44525 158.98268Q675.44525 157.34206 674.5546 156.45143Q673.6796 155.5608 672.1171 155.5608Q670.57025 155.5608 669.6484 156.4983Q668.7421 157.42018 668.6015 159.59206L663.6796 159.09206Q664.1171 155.01393 666.4296 153.2483Q668.75775 151.46706 672.2265 151.46706Q676.0546 151.46706 678.2265 153.52956Q680.414 155.57643 680.414 158.63893Q680.414 160.3733 679.789 161.95143Q679.164 163.52956 677.8046 165.2483Q676.914 166.38893 674.57025 168.54518Q672.2265 170.6858 671.6015 171.38893Q670.9921 172.09206 670.6015 172.7483L680.414 172.7483ZM683.789 170.71706L688.7109 170.20143Q688.9296 171.8733 689.9609 172.85768Q691.00775 173.82643 692.3515 173.82643Q693.8984 173.82643 694.9765 172.57643Q696.0546 171.3108 696.0546 168.77956Q696.0546 166.40456 694.9765 165.21706Q693.914 164.02956 692.2109 164.02956Q690.0859 164.02956 688.3984 165.92018L684.3984 165.34206L686.9296 151.92018L699.9921 151.92018L699.9921 156.54518L690.664 156.54518L689.8984 160.92018Q691.5546 160.09206 693.2734 160.09206Q696.5546 160.09206 698.8359 162.48268Q701.13275 164.8733 701.13275 168.6858Q701.13275 171.8733 699.289 174.3733Q696.7734 177.77956 692.3046 177.77956Q688.7421 177.77956 686.4921 175.8733Q684.2421 173.95143 683.789 170.71706ZM720.414 172.7483L720.414 177.34206L703.0859 177.34206Q703.3671 174.73268 704.7734 172.40456Q706.1796 170.07643 710.3359 166.23268Q713.6796 163.1233 714.4296 162.01393Q715.44525 160.48268 715.44525 158.98268Q715.44525 157.34206 714.5546 156.45143Q713.6796 155.5608 712.1171 155.5608Q710.57025 155.5608 709.6484 156.4983Q708.7421 157.42018 708.6015 159.59206L703.6796 159.09206Q704.1171 155.01393 706.4296 153.2483Q708.75775 151.46706 712.2265 151.46706Q716.0546 151.46706 718.2265 153.52956Q720.414 155.57643 720.414 158.63893Q720.414 160.3733 719.789 161.95143Q719.164 163.52956 717.8046 165.2483Q716.914 166.38893 714.57025 168.54518Q712.2265 170.6858 711.6015 171.38893Q710.9921 172.09206 710.6015 172.7483L720.414 172.7483Z" fill-rule="nonzero"/><path stroke="#ffffff" stroke-width="3.0" stroke-linejoin="round" stroke-linecap="round" d="M412.59375 441.92914L417.51562 441.4135Q417.73438 443.0854 418.76562 444.06976Q419.8125 445.0385 421.15625 445.0385Q422.70312 445.0385 423.78125 443.7885Q424.85938 442.5229 424.85938 439.99164Q424.85938 437.61664 423.78125 436.42914Q422.71875 435.24164 421.01562 435.24164Q418.89062 435.24164 417.20312 437.13226L413.20312 436.55414L415.73438 423.13226L428.79688 423.13226L428.79688 427.75726L419.46875 427.75726L418.70312 432.13226Q420.35938 431.30414 422.07812 431.30414Q425.35938 431.30414 427.64062 433.69476Q429.9375 436.0854 429.9375 439.8979Q429.9375 443.0854 428.09375 445.5854Q425.57812 448.99164 421.10938 448.99164Q417.54688 448.99164 415.29688 447.0854Q413.04688 445.1635 412.59375 441.92914ZM449.26562 429.101L444.48438 429.61664Q444.3125 428.1479 443.5625 427.44476Q442.82812 426.74164 441.65625 426.74164Q440.09375 426.74164 439.0 428.1479Q437.92188 429.55414 437.64062 433.99164Q439.48438 431.81976 442.23438 431.81976Q445.32812 431.81976 447.53125 434.17914Q449.73438 436.5229 449.73438 440.25726Q449.73438 444.2104 447.40625 446.601Q445.09375 448.99164 441.45312 448.99164Q437.5625 448.99164 435.04688 445.9604Q432.53125 442.92914 432.53125 436.0229Q432.53125 428.92914 435.14062 425.80414Q437.76562 422.67914 441.95312 422.67914Q444.89062 422.67914 446.8125 424.31976Q448.73438 425.9604 449.26562 429.101ZM438.0625 439.86664Q438.0625 442.2729 439.17188 443.5854Q440.28125 444.8979 441.70312 444.8979Q443.07812 444.8979 443.98438 443.8354Q444.90625 442.75726 444.90625 440.30414Q444.90625 437.7885 443.92188 436.63226Q442.9375 435.4604 441.45312 435.4604Q440.03125 435.4604 439.04688 436.5854Q438.0625 437.69476 438.0625 439.86664ZM452.64062 442.601L457.42188 442.06976Q457.59375 443.5229 458.32812 444.226Q459.0625 444.92914 460.28125 444.92914Q461.8125 444.92914 462.875 443.5229Q463.95312 442.11664 464.25 437.69476Q462.39062 439.851 459.59375 439.851Q456.5625 439.851 454.34375 437.50726Q452.14062 435.1635 452.14062 431.3979Q452.14062 427.476 454.46875 425.0854Q456.79688 422.67914 460.40625 422.67914Q464.32812 422.67914 466.84375 425.7104Q469.35938 428.74164 469.35938 435.67914Q469.35938 442.75726 466.73438 445.88226Q464.10938 449.00726 459.90625 449.00726Q456.89062 449.00726 455.01562 447.3979Q453.15625 445.7885 452.64062 442.601ZM463.8125 431.80414Q463.8125 429.4135 462.71875 428.101Q461.625 426.7729 460.17188 426.7729Q458.8125 426.7729 457.90625 427.851Q457.0 428.92914 457.0 431.3979Q457.0 433.8979 457.98438 435.06976Q458.96875 436.226 460.4375 436.226Q461.85938 436.226 462.82812 435.101Q463.8125 433.976 463.8125 431.80414Z" fill-rule="nonzero"/><path fill="#4285f4" d="M412.59375 441.92914L417.51562 441.4135Q417.73438 443.0854 418.76562 444.06976Q419.8125 445.0385 421.15625 445.0385Q422.70312 445.0385 423.78125 443.7885Q424.85938 442.5229 424.85938 439.99164Q424.85938 437.61664 423.78125 436.42914Q422.71875 435.24164 421.01562 435.24164Q418.89062 435.24164 417.20312 437.13226L413.20312 436.55414L415.73438 423.13226L428.79688 423.13226L428.79688 427.75726L419.46875 427.75726L418.70312 432.13226Q420.35938 431.30414 422.07812 431.30414Q425.35938 431.30414 427.64062 433.69476Q429.9375 436.0854 429.9375 439.8979Q429.9375 443.0854 428.09375 445.5854Q425.57812 448.99164 421.10938 448.99164Q417.54688 448.99164 415.29688 447.0854Q413.04688 445.1635 412.59375 441.92914ZM449.26562 429.101L444.48438 429.61664Q444.3125 428.1479 443.5625 427.44476Q442.82812 426.74164 441.65625 426.74164Q440.09375 426.74164 439.0 428.1479Q437.92188 429.55414 437.64062 433.99164Q439.48438 431.81976 442.23438 431.81976Q445.32812 431.81976 447.53125 434.17914Q449.73438 436.5229 449.73438 440.25726Q449.73438 444.2104 447.40625 446.601Q445.09375 448.99164 441.45312 448.99164Q437.5625 448.99164 435.04688 445.9604Q432.53125 442.92914 432.53125 436.0229Q432.53125 428.92914 435.14062 425.80414Q437.76562 422.67914 441.95312 422.67914Q444.89062 422.67914 446.8125 424.31976Q448.73438 425.9604 449.26562 429.101ZM438.0625 439.86664Q438.0625 442.2729 439.17188 443.5854Q440.28125 444.8979 441.70312 444.8979Q443.07812 444.8979 443.98438 443.8354Q444.90625 442.75726 444.90625 440.30414Q444.90625 437.7885 443.92188 436.63226Q442.9375 435.4604 441.45312 435.4604Q440.03125 435.4604 439.04688 436.5854Q438.0625 437.69476 438.0625 439.86664ZM452.64062 442.601L457.42188 442.06976Q457.59375 443.5229 458.32812 444.226Q459.0625 444.92914 460.28125 444.92914Q461.8125 444.92914 462.875 443.5229Q463.95312 442.11664 464.25 437.69476Q462.39062 439.851 459.59375 439.851Q456.5625 439.851 454.34375 437.50726Q452.14062 435.1635 452.14062 431.3979Q452.14062 427.476 454.46875 425.0854Q456.79688 422.67914 460.40625 422.67914Q464.32812 422.67914 466.84375 425.7104Q469.35938 428.74164 469.35938 435.67914Q469.35938 442.75726 466.73438 445.88226Q464.10938 449.00726 459.90625 449.00726Q456.89062 449.00726 455.01562 447.3979Q453.15625 445.7885 452.64062 442.601ZM463.8125 431.80414Q463.8125 429.4135 462.71875 428.101Q461.625 426.7729 460.17188 426.7729Q458.8125 426.7729 457.90625 427.851Q457.0 428.92914 457.0 431.3979Q457.0 433.8979 457.98438 435.06976Q458.96875 436.226 460.4375 436.226Q461.85938 436.226 462.82812 435.101Q463.8125 433.976 463.8125 431.80414Z" fill-rule="nonzero"/><path stroke="#ffffff" stroke-width="3.0" stroke-linejoin="round" stroke-linecap="round" d="M536.1719 297.24213L531.2344 297.24213L531.2344 278.63275Q528.5156 281.164 524.84375 282.36713L524.84375 277.88275Q526.78125 277.25775 529.0469 275.49213Q531.3125 273.7265 532.15625 271.36713L536.1719 271.36713L536.1719 297.24213ZM553.21875 297.24213L553.21875 292.05463L542.6719 292.05463L542.6719 287.7265L553.84375 271.36713L558.0 271.36713L558.0 287.71088L561.2031 287.71088L561.2031 292.05463L558.0 292.05463L558.0 297.24213L553.21875 297.24213ZM553.21875 287.71088L553.21875 278.914L547.2969 287.71088L553.21875 287.71088ZM571.875 271.36713Q575.625 271.36713 577.7344 274.039Q580.25 277.19525 580.25 284.539Q580.25 291.8515 577.71875 295.039Q575.625 297.67963 571.875 297.67963Q568.125 297.67963 565.8125 294.789Q563.5156 291.89838 563.5156 284.4765Q563.5156 277.19525 566.0469 274.00775Q568.1406 271.36713 571.875 271.36713ZM571.875 275.46088Q570.9844 275.46088 570.28125 276.039Q569.5781 276.6015 569.1875 278.08588Q568.6875 279.99213 568.6875 284.539Q568.6875 289.07025 569.1406 290.77338Q569.59375 292.46088 570.28125 293.02338Q570.9844 293.58588 571.875 293.58588Q572.78125 293.58588 573.4844 293.02338Q574.1875 292.44525 574.5625 290.96088Q575.0781 289.07025 575.0781 284.539Q575.0781 279.99213 574.625 278.30463Q574.1719 276.6015 573.46875 276.039Q572.78125 275.46088 571.875 275.46088ZM583.6406 291.289L588.4219 290.75775Q588.59375 292.21088 589.3281 292.914Q590.0625 293.61713 591.28125 293.61713Q592.8125 293.61713 593.875 292.21088Q594.9531 290.80463 595.25 286.38275Q593.3906 288.539 590.59375 288.539Q587.5625 288.539 585.34375 286.19525Q583.1406 283.8515 583.1406 280.08588Q583.1406 276.164 585.46875 273.77338Q587.7969 271.36713 591.40625 271.36713Q595.3281 271.36713 597.84375 274.39838Q600.3594 277.42963 600.3594 284.36713Q600.3594 291.44525 597.7344 294.57025Q595.1094 297.69525 590.90625 297.69525Q587.8906 297.69525 586.0156 296.08588Q584.15625 294.4765 583.6406 291.289ZM594.8125 280.49213Q594.8125 278.1015 593.71875 276.789Q592.625 275.46088 591.1719 275.46088Q589.8125 275.46088 588.90625 276.539Q588.0 277.61713 588.0 280.08588Q588.0 282.58588 588.9844 283.75775Q589.96875 284.914 591.4375 284.914Q592.8594 284.914 593.8281 283.789Q594.8125 282.664 594.8125 280.49213Z" fill-rule="nonzero"/><path fill="#4285f4" d="M536.1719 297.24213L531.2344 297.24213L531.2344 278.63275Q528.5156 281.164 524.84375 282.36713L524.84375 277.88275Q526.78125 277.25775 529.0469 275.49213Q531.3125 273.7265 532.15625 271.36713L536.1719 271.36713L536.1719 297.24213ZM553.21875 297.24213L553.21875 292.05463L542.6719 292.05463L542.6719 287.7265L553.84375 271.36713L558.0 271.36713L558.0 287.71088L561.2031 287.71088L561.2031 292.05463L558.0 292.05463L558.0 297.24213L553.21875 297.24213ZM553.21875 287.71088L553.21875 278.914L547.2969 287.71088L553.21875 287.71088ZM571.875 271.36713Q575.625 271.36713 577.7344 274.039Q580.25 277.19525 580.25 284.539Q580.25 291.8515 577.71875 295.039Q575.625 297.67963 571.875 297.67963Q568.125 297.67963 565.8125 294.789Q563.5156 291.89838 563.5156 284.4765Q563.5156 277.19525 566.0469 274.00775Q568.1406 271.36713 571.875 271.36713ZM571.875 275.46088Q570.9844 275.46088 570.28125 276.039Q569.5781 276.6015 569.1875 278.08588Q568.6875 279.99213 568.6875 284.539Q568.6875 289.07025 569.1406 290.77338Q569.59375 292.46088 570.28125 293.02338Q570.9844 293.58588 571.875 293.58588Q572.78125 293.58588 573.4844 293.02338Q574.1875 292.44525 574.5625 290.96088Q575.0781 289.07025 575.0781 284.539Q575.0781 279.99213 574.625 278.30463Q574.1719 276.6015 573.46875 276.039Q572.78125 275.46088 571.875 275.46088ZM583.6406 291.289L588.4219 290.75775Q588.59375 292.21088 589.3281 292.914Q590.0625 293.61713 591.28125 293.61713Q592.8125 293.61713 593.875 292.21088Q594.9531 290.80463 595.25 286.38275Q593.3906 288.539 590.59375 288.539Q587.5625 288.539 585.34375 286.19525Q583.1406 283.8515 583.1406 280.08588Q583.1406 276.164 585.46875 273.77338Q587.7969 271.36713 591.40625 271.36713Q595.3281 271.36713 597.84375 274.39838Q600.3594 277.42963 600.3594 284.36713Q600.3594 291.44525 597.7344 294.57025Q595.1094 297.69525 590.90625 297.69525Q587.8906 297.69525 586.0156 296.08588Q584.15625 294.4765 583.6406 291.289ZM594.8125 280.49213Q594.8125 278.1015 593.71875 276.789Q592.625 275.46088 591.1719 275.46088Q589.8125 275.46088 588.90625 276.539Q588.0 277.61713 588.0 280.08588Q588.0 282.58588 588.9844 283.75775Q589.96875 284.914 591.4375 284.914Q592.8594 284.914 593.8281 283.789Q594.8125 282.664 594.8125 280.49213Z" fill-rule="nonzero"/><path fill="#000000" d="M93.18437 583.9875Q96.30937 583.9875 98.05937 586.20624Q100.15312 588.84686 100.15312 594.95624Q100.15312 601.05 98.04375 603.72186Q96.30937 605.90936 93.18437 605.90936Q90.04375 605.90936 88.12187 603.5031Q86.21562 601.09686 86.21562 594.90936Q86.21562 588.84686 88.325 586.1906Q90.05937 583.9875 93.18437 583.9875ZM93.18437 587.39374Q92.43437 587.39374 91.84062 587.8781Q91.2625 588.34686 90.93437 589.58124Q90.5125 591.175 90.5125 594.95624Q90.5125 598.7375 90.8875 600.15936Q91.27812 601.5656 91.85625 602.03436Q92.43437 602.5031 93.18437 602.5031Q93.93437 602.5031 94.5125 602.03436Q95.10625 601.55 95.41875 600.3156Q95.85625 598.7375 95.85625 594.95624Q95.85625 591.175 95.46562 589.76874Q95.09062 588.34686 94.5125 587.8781Q93.93437 587.39374 93.18437 587.39374Z" fill-rule="nonzero"/><path fill="#000000" d="M52.278126 509.9677L56.3875 509.5302Q56.559376 510.92084 57.41875 511.73334Q58.29375 512.54584 59.41875 512.54584Q60.7 512.54584 61.590626 511.49896Q62.496876 510.4521 62.496876 508.3427Q62.496876 506.37396 61.60625 505.3896Q60.715626 504.3896 59.29375 504.3896Q57.528126 504.3896 56.121876 505.9677L52.778126 505.48334L54.8875 494.29584L65.77812 494.29584L65.77812 498.1552L58.0125 498.1552L57.371876 501.79584Q58.746876 501.10834 60.184376 501.10834Q62.91875 501.10834 64.825 503.10834Q66.73125 505.0927 66.73125 508.2802Q66.73125 510.92084 65.18437 513.0146Q63.090626 515.8427 59.371876 515.8427Q56.403126 515.8427 54.528126 514.24896Q52.653126 512.6552 52.278126 509.9677ZM76.18437 493.92084Q79.30937 493.92084 81.05937 496.1396Q83.15312 498.7802 83.15312 504.8896Q83.15312 510.98334 81.04375 513.6552Q79.30937 515.8427 76.18437 515.8427Q73.04375 515.8427 71.12187 513.43646Q69.21562 511.0302 69.21562 504.8427Q69.21562 498.7802 71.325 496.12396Q73.05937 493.92084 76.18437 493.92084ZM76.18437 497.3271Q75.43437 497.3271 74.84062 497.81146Q74.2625 498.2802 73.93437 499.5146Q73.5125 501.10834 73.5125 504.8896Q73.5125 508.67084 73.8875 510.0927Q74.27812 511.49896 74.85625 511.9677Q75.43437 512.43646 76.18437 512.43646Q76.93437 512.43646 77.5125 511.9677Q78.10625 511.48334 78.41875 510.24896Q78.85625 508.67084 78.85625 504.8896Q78.85625 501.10834 78.46562 499.7021Q78.09062 498.2802 77.5125 497.81146Q76.93437 497.3271 76.18437 497.3271ZM93.18437 493.92084Q96.30937 493.92084 98.05937 496.1396Q100.15312 498.7802 100.15312 504.8896Q100.15312 510.98334 98.04375 513.6552Q96.30937 515.8427 93.18437 515.8427Q90.04375 515.8427 88.12187 513.43646Q86.21562 511.0302 86.21562 504.8427Q86.21562 498.7802 88.325 496.12396Q90.05937 493.92084 93.18437 493.92084ZM93.18437 497.3271Q92.43437 497.3271 91.84062 497.81146Q91.2625 498.2802 90.93437 499.5146Q90.5125 501.10834 90.5125 504.8896Q90.5125 508.67084 90.8875 510.0927Q91.27812 511.49896 91.85625 511.9677Q92.43437 512.43646 93.18437 512.43646Q93.93437 512.43646 94.5125 511.9677Q95.10625 511.48334 95.41875 510.24896Q95.85625 508.67084 95.85625 504.8896Q95.85625 501.10834 95.46562 499.7021Q95.09062 498.2802 94.5125 497.81146Q93.93437 497.3271 93.18437 497.3271Z" fill-rule="nonzero"/><path fill="#000000" d="M45.7625 425.41666L41.6375 425.41666L41.6375 409.90103Q39.3875 412.0104 36.325 413.02603L36.325 409.29166Q37.934376 408.7604 39.825 407.29166Q41.715626 405.8229 42.41875 403.85416L45.7625 403.85416L45.7625 425.41666ZM59.184376 403.85416Q62.309376 403.85416 64.05937 406.0729Q66.15312 408.71353 66.15312 414.8229Q66.15312 420.91666 64.04375 423.58853Q62.309376 425.77603 59.184376 425.77603Q56.04375 425.77603 54.121876 423.36978Q52.215626 420.96353 52.215626 414.77603Q52.215626 408.71353 54.325 406.05728Q56.059376 403.85416 59.184376 403.85416ZM59.184376 407.2604Q58.434376 407.2604 57.840626 407.74478Q57.2625 408.21353 56.934376 409.4479Q56.5125 411.04166 56.5125 414.8229Q56.5125 418.60416 56.8875 420.02603Q57.278126 421.43228 57.85625 421.90103Q58.434376 422.36978 59.184376 422.36978Q59.934376 422.36978 60.5125 421.90103Q61.10625 421.41666 61.41875 420.18228Q61.85625 418.60416 61.85625 414.8229Q61.85625 411.04166 61.465626 409.6354Q61.090626 408.21353 60.5125 407.74478Q59.934376 407.2604 59.184376 407.2604ZM76.18437 403.85416Q79.30937 403.85416 81.05937 406.0729Q83.15312 408.71353 83.15312 414.8229Q83.15312 420.91666 81.04375 423.58853Q79.30937 425.77603 76.18437 425.77603Q73.04375 425.77603 71.12187 423.36978Q69.21562 420.96353 69.21562 414.77603Q69.21562 408.71353 71.325 406.05728Q73.05937 403.85416 76.18437 403.85416ZM76.18437 407.2604Q75.43437 407.2604 74.84062 407.74478Q74.2625 408.21353 73.93437 409.4479Q73.5125 411.04166 73.5125 414.8229Q73.5125 418.60416 73.8875 420.02603Q74.27812 421.43228 74.85625 421.90103Q75.43437 422.36978 76.18437 422.36978Q76.93437 422.36978 77.5125 421.90103Q78.10625 421.41666 78.41875 420.18228Q78.85625 418.60416 78.85625 414.8229Q78.85625 411.04166 78.46562 409.6354Q78.09062 408.21353 77.5125 407.74478Q76.93437 407.2604 76.18437 407.2604ZM93.18437 403.85416Q96.30937 403.85416 98.05937 406.0729Q100.15312 408.71353 100.15312 414.8229Q100.15312 420.91666 98.04375 423.58853Q96.30937 425.77603 93.18437 425.77603Q90.04375 425.77603 88.12187 423.36978Q86.21562 420.96353 86.21562 414.77603Q86.21562 408.71353 88.325 406.05728Q90.05937 403.85416 93.18437 403.85416ZM93.18437 407.2604Q92.43437 407.2604 91.84062 407.74478Q91.2625 408.21353 90.93437 409.4479Q90.5125 411.04166 90.5125 414.8229Q90.5125 418.60416 90.8875 420.02603Q91.27812 421.43228 91.85625 421.90103Q92.43437 422.36978 93.18437 422.36978Q93.93437 422.36978 94.5125 421.90103Q95.10625 421.41666 95.41875 420.18228Q95.85625 418.60416 95.85625 414.8229Q95.85625 411.04166 95.46562 409.6354Q95.09062 408.21353 94.5125 407.74478Q93.93437 407.2604 93.18437 407.2604Z" fill-rule="nonzero"/><path fill="#000000" d="M45.7625 335.35L41.6375 335.35L41.6375 319.83438Q39.3875 321.94376 36.325 322.95938L36.325 319.225Q37.934376 318.69376 39.825 317.225Q41.715626 315.75626 42.41875 313.7875L45.7625 313.7875L45.7625 335.35ZM52.278126 329.83438L56.3875 329.39688Q56.559376 330.7875 57.41875 331.6Q58.29375 332.4125 59.41875 332.4125Q60.7 332.4125 61.590626 331.36563Q62.496876 330.31876 62.496876 328.20938Q62.496876 326.24063 61.60625 325.25626Q60.715626 324.25626 59.29375 324.25626Q57.528126 324.25626 56.121876 325.83438L52.778126 325.35L54.8875 314.1625L65.77812 314.1625L65.77812 318.02188L58.0125 318.02188L57.371876 321.6625Q58.746876 320.975 60.184376 320.975Q62.91875 320.975 64.825 322.975Q66.73125 324.95938 66.73125 328.14688Q66.73125 330.7875 65.18437 332.88126Q63.090626 335.70938 59.371876 335.70938Q56.403126 335.70938 54.528126 334.11563Q52.653126 332.52188 52.278126 329.83438ZM76.18437 313.7875Q79.30937 313.7875 81.05937 316.00626Q83.15312 318.64688 83.15312 324.75626Q83.15312 330.85 81.04375 333.52188Q79.30937 335.70938 76.18437 335.70938Q73.04375 335.70938 71.12187 333.30313Q69.21562 330.89688 69.21562 324.70938Q69.21562 318.64688 71.325 315.99063Q73.05937 313.7875 76.18437 313.7875ZM76.18437 317.19376Q75.43437 317.19376 74.84062 317.67813Q74.2625 318.14688 73.93437 319.38126Q73.5125 320.975 73.5125 324.75626Q73.5125 328.5375 73.8875 329.95938Q74.27812 331.36563 74.85625 331.83438Q75.43437 332.30313 76.18437 332.30313Q76.93437 332.30313 77.5125 331.83438Q78.10625 331.35 78.41875 330.11563Q78.85625 328.5375 78.85625 324.75626Q78.85625 320.975 78.46562 319.56876Q78.09062 318.14688 77.5125 317.67813Q76.93437 317.19376 76.18437 317.19376ZM93.18437 313.7875Q96.30937 313.7875 98.05937 316.00626Q100.15312 318.64688 100.15312 324.75626Q100.15312 330.85 98.04375 333.52188Q96.30937 335.70938 93.18437 335.70938Q90.04375 335.70938 88.12187 333.30313Q86.21562 330.89688 86.21562 324.70938Q86.21562 318.64688 88.325 315.99063Q90.05937 313.7875 93.18437 313.7875ZM93.18437 317.19376Q92.43437 317.19376 91.84062 317.67813Q91.2625 318.14688 90.93437 319.38126Q90.5125 320.975 90.5125 324.75626Q90.5125 328.5375 90.8875 329.95938Q91.27812 331.36563 91.85625 331.83438Q92.43437 332.30313 93.18437 332.30313Q93.93437 332.30313 94.5125 331.83438Q95.10625 331.35 95.41875 330.11563Q95.85625 328.5375 95.85625 324.75626Q95.85625 320.975 95.46562 319.56876Q95.09062 318.14688 94.5125 317.67813Q93.93437 317.19376 93.18437 317.19376Z" fill-rule="nonzero"/><path fill="#000000" d="M49.121876 241.45522L49.121876 245.28334L34.7 245.28334Q34.934376 243.11147 36.10625 241.17397Q37.278126 239.23647 40.73125 236.01772Q43.5125 233.43959 44.153126 232.50209Q44.996876 231.23647 44.996876 229.98647Q44.996876 228.61147 44.246876 227.87709Q43.5125 227.12709 42.215626 227.12709Q40.91875 227.12709 40.153126 227.90834Q39.403126 228.68959 39.278126 230.48647L35.184376 230.08022Q35.54375 226.67397 37.48125 225.20522Q39.41875 223.72084 42.309376 223.72084Q45.496876 223.72084 47.309376 225.43959Q49.121876 227.14272 49.121876 229.68959Q49.121876 231.14272 48.60625 232.45522Q48.090626 233.76772 46.965626 235.20522Q46.215626 236.15834 44.2625 237.95522Q42.309376 239.73647 41.79375 240.33022Q41.278126 240.90834 40.95 241.45522L49.121876 241.45522ZM59.184376 223.72084Q62.309376 223.72084 64.05937 225.93959Q66.15312 228.58022 66.15312 234.68959Q66.15312 240.78334 64.04375 243.45522Q62.309376 245.64272 59.184376 245.64272Q56.04375 245.64272 54.121876 243.23647Q52.215626 240.83022 52.215626 234.64272Q52.215626 228.58022 54.325 225.92397Q56.059376 223.72084 59.184376 223.72084ZM59.184376 227.12709Q58.434376 227.12709 57.840626 227.61147Q57.2625 228.08022 56.934376 229.31459Q56.5125 230.90834 56.5125 234.68959Q56.5125 238.47084 56.8875 239.89272Q57.278126 241.29897 57.85625 241.76772Q58.434376 242.23647 59.184376 242.23647Q59.934376 242.23647 60.5125 241.76772Q61.10625 241.28334 61.41875 240.04897Q61.85625 238.47084 61.85625 234.68959Q61.85625 230.90834 61.465626 229.50209Q61.090626 228.08022 60.5125 227.61147Q59.934376 227.12709 59.184376 227.12709ZM76.18437 223.72084Q79.30937 223.72084 81.05937 225.93959Q83.15312 228.58022 83.15312 234.68959Q83.15312 240.78334 81.04375 243.45522Q79.30937 245.64272 76.18437 245.64272Q73.04375 245.64272 71.12187 243.23647Q69.21562 240.83022 69.21562 234.64272Q69.21562 228.58022 71.325 225.92397Q73.05937 223.72084 76.18437 223.72084ZM76.18437 227.12709Q75.43437 227.12709 74.84062 227.61147Q74.2625 228.08022 73.93437 229.31459Q73.5125 230.90834 73.5125 234.68959Q73.5125 238.47084 73.8875 239.89272Q74.27812 241.29897 74.85625 241.76772Q75.43437 242.23647 76.18437 242.23647Q76.93437 242.23647 77.5125 241.76772Q78.10625 241.28334 78.41875 240.04897Q78.85625 238.47084 78.85625 234.68959Q78.85625 230.90834 78.46562 229.50209Q78.09062 228.08022 77.5125 227.61147Q76.93437 227.12709 76.18437 227.12709ZM93.18437 223.72084Q96.30937 223.72084 98.05937 225.93959Q100.15312 228.58022 100.15312 234.68959Q100.15312 240.78334 98.04375 243.45522Q96.30937 245.64272 93.18437 245.64272Q90.04375 245.64272 88.12187 243.23647Q86.21562 240.83022 86.21562 234.64272Q86.21562 228.58022 88.325 225.92397Q90.05937 223.72084 93.18437 223.72084ZM93.18437 227.12709Q92.43437 227.12709 91.84062 227.61147Q91.2625 228.08022 90.93437 229.31459Q90.5125 230.90834 90.5125 234.68959Q90.5125 238.47084 90.8875 239.89272Q91.27812 241.29897 91.85625 241.76772Q92.43437 242.23647 93.18437 242.23647Q93.93437 242.23647 94.5125 241.76772Q95.10625 241.28334 95.41875 240.04897Q95.85625 238.47084 95.85625 234.68959Q95.85625 230.90834 95.46562 229.50209Q95.09062 228.08022 94.5125 227.61147Q93.93437 227.12709 93.18437 227.12709Z" fill-rule="nonzero"/><path fill="#000000" d="M49.121876 151.38853L49.121876 155.21666L34.7 155.21666Q34.934376 153.04478 36.10625 151.10728Q37.278126 149.16978 40.73125 145.95103Q43.5125 143.37291 44.153126 142.43541Q44.996876 141.16978 44.996876 139.91978Q44.996876 138.54478 44.246876 137.81041Q43.5125 137.06041 42.215626 137.06041Q40.91875 137.06041 40.153126 137.84166Q39.403126 138.62291 39.278126 140.41978L35.184376 140.01353Q35.54375 136.60728 37.48125 135.13853Q39.41875 133.65416 42.309376 133.65416Q45.496876 133.65416 47.309376 135.37291Q49.121876 137.07603 49.121876 139.62291Q49.121876 141.07603 48.60625 142.38853Q48.090626 143.70103 46.965626 145.13853Q46.215626 146.09166 44.2625 147.88853Q42.309376 149.66978 41.79375 150.26353Q41.278126 150.84166 40.95 151.38853L49.121876 151.38853ZM52.278126 149.70103L56.3875 149.26353Q56.559376 150.65416 57.41875 151.46666Q58.29375 152.27916 59.41875 152.27916Q60.7 152.27916 61.590626 151.23228Q62.496876 150.18541 62.496876 148.07603Q62.496876 146.10728 61.60625 145.12291Q60.715626 144.12291 59.29375 144.12291Q57.528126 144.12291 56.121876 145.70103L52.778126 145.21666L54.8875 134.02916L65.77812 134.02916L65.77812 137.88853L58.0125 137.88853L57.371876 141.52916Q58.746876 140.84166 60.184376 140.84166Q62.91875 140.84166 64.825 142.84166Q66.73125 144.82603 66.73125 148.01353Q66.73125 150.65416 65.18437 152.74791Q63.090626 155.57603 59.371876 155.57603Q56.403126 155.57603 54.528126 153.98228Q52.653126 152.38853 52.278126 149.70103ZM76.18437 133.65416Q79.30937 133.65416 81.05937 135.87291Q83.15312 138.51353 83.15312 144.62291Q83.15312 150.71666 81.04375 153.38853Q79.30937 155.57603 76.18437 155.57603Q73.04375 155.57603 71.12187 153.16978Q69.21562 150.76353 69.21562 144.57603Q69.21562 138.51353 71.325 135.85728Q73.05937 133.65416 76.18437 133.65416ZM76.18437 137.06041Q75.43437 137.06041 74.84062 137.54478Q74.2625 138.01353 73.93437 139.24791Q73.5125 140.84166 73.5125 144.62291Q73.5125 148.40416 73.8875 149.82603Q74.27812 151.23228 74.85625 151.70103Q75.43437 152.16978 76.18437 152.16978Q76.93437 152.16978 77.5125 151.70103Q78.10625 151.21666 78.41875 149.98228Q78.85625 148.40416 78.85625 144.62291Q78.85625 140.84166 78.46562 139.43541Q78.09062 138.01353 77.5125 137.54478Q76.93437 137.06041 76.18437 137.06041ZM93.18437 133.65416Q96.30937 133.65416 98.05937 135.87291Q100.15312 138.51353 100.15312 144.62291Q100.15312 150.71666 98.04375 153.38853Q96.30937 155.57603 93.18437 155.57603Q90.04375 155.57603 88.12187 153.16978Q86.21562 150.76353 86.21562 144.57603Q86.21562 138.51353 88.325 135.85728Q90.05937 133.65416 93.18437 133.65416ZM93.18437 137.06041Q92.43437 137.06041 91.84062 137.54478Q91.2625 138.01353 90.93437 139.24791Q90.5125 140.84166 90.5125 144.62291Q90.5125 148.40416 90.8875 149.82603Q91.27812 151.23228 91.85625 151.70103Q92.43437 152.16978 93.18437 152.16978Q93.93437 152.16978 94.5125 151.70103Q95.10625 151.21666 95.41875 149.98228Q95.85625 148.40416 95.85625 144.62291Q95.85625 140.84166 95.46562 139.43541Q95.09062 138.01353 94.5125 137.54478Q93.93437 137.06041 93.18437 137.06041Z" fill-rule="nonzero"/><path fill="#000000" d="M164.3915 634.22186L164.3915 638.05L149.96962 638.05Q150.204 635.8781 151.37587 633.9406Q152.54774 632.0031 156.00087 628.78436Q158.78212 626.20624 159.42274 625.26874Q160.2665 624.0031 160.2665 622.7531Q160.2665 621.3781 159.5165 620.64374Q158.78212 619.89374 157.48524 619.89374Q156.18837 619.89374 155.42274 620.675Q154.67274 621.45624 154.54774 623.2531L150.454 622.84686Q150.81337 619.4406 152.75087 617.97186Q154.68837 616.4875 157.579 616.4875Q160.7665 616.4875 162.579 618.20624Q164.3915 619.90936 164.3915 622.45624Q164.3915 623.90936 163.87587 625.22186Q163.36024 626.53436 162.23524 627.97186Q161.48524 628.925 159.53212 630.72186Q157.579 632.5031 157.06337 633.09686Q156.54774 633.675 156.21962 634.22186L164.3915 634.22186ZM174.454 616.4875Q177.579 616.4875 179.329 618.70624Q181.42274 621.34686 181.42274 627.45624Q181.42274 633.55 179.31337 636.22186Q177.579 638.40936 174.454 638.40936Q171.31337 638.40936 169.3915 636.0031Q167.48524 633.59686 167.48524 627.40936Q167.48524 621.34686 169.59462 618.6906Q171.329 616.4875 174.454 616.4875ZM174.454 619.89374Q173.704 619.89374 173.11024 620.3781Q172.53212 620.84686 172.204 622.08124Q171.78212 623.675 171.78212 627.45624Q171.78212 631.2375 172.15712 632.65936Q172.54774 634.0656 173.12587 634.53436Q173.704 635.0031 174.454 635.0031Q175.204 635.0031 175.78212 634.53436Q176.37587 634.05 176.68837 632.8156Q177.12587 631.2375 177.12587 627.45624Q177.12587 623.675 176.73524 622.26874Q176.36024 620.84686 175.78212 620.3781Q175.204 619.89374 174.454 619.89374ZM195.03212 638.05L190.90712 638.05L190.90712 622.53436Q188.65712 624.64374 185.59462 625.65936L185.59462 621.925Q187.204 621.39374 189.09462 619.925Q190.98524 618.45624 191.68837 616.4875L195.03212 616.4875L195.03212 638.05ZM201.579 633.08124L205.56337 632.64374Q205.71962 633.8625 206.329 634.45624Q206.93837 635.03436 207.954 635.03436Q209.23524 635.03436 210.12587 633.8625Q211.0165 632.6906 211.2665 629.0031Q209.71962 630.8 207.37587 630.8Q204.84462 630.8 203.00087 628.84686Q201.17274 626.89374 201.17274 623.7531Q201.17274 620.4875 203.11024 618.4875Q205.04774 616.4875 208.06337 616.4875Q211.329 616.4875 213.42274 619.01874Q215.5165 621.53436 215.5165 627.33124Q215.5165 633.22186 213.329 635.83124Q211.1415 638.425 207.6415 638.425Q205.12587 638.425 203.56337 637.09686Q202.0165 635.7531 201.579 633.08124ZM210.8915 624.09686Q210.8915 622.09686 209.96962 621.0031Q209.06337 619.89374 207.86024 619.89374Q206.71962 619.89374 205.96962 620.8Q205.21962 621.70624 205.21962 623.7531Q205.21962 625.83124 206.03212 626.8156Q206.86024 627.78436 208.079 627.78436Q209.2665 627.78436 210.079 626.84686Q210.8915 625.90936 210.8915 624.09686Z" fill-rule="nonzero"/><path fill="#000000" d="M227.579 619.76874Q225.48524 623.425 221.61024 626.45624L219.18837 623.34686Q224.329 619.58124 226.204 612.51874L229.65712 613.425Q231.12587 614.90936 229.42274 615.14374L228.96962 616.28436L245.18837 616.28436L245.18837 619.76874L236.6415 619.76874L236.6415 622.5031L243.67274 622.5031L243.67274 625.97186L236.6415 625.97186L236.6415 630.0031L246.48524 630.0031L246.48524 633.47186L236.6415 633.47186L236.6415 640.51874L233.04774 640.51874L233.04774 633.47186L219.56337 633.47186L219.56337 630.0031L224.84462 630.0031L224.84462 622.5031L233.04774 622.5031L233.04774 619.76874L227.579 619.76874ZM228.43837 630.0031L233.04774 630.0031L233.04774 625.97186L228.43837 625.97186L228.43837 630.0031Z" fill-rule="nonzero"/><path fill="#000000" d="M285.53168 634.22186L285.53168 638.05L271.1098 638.05Q271.34418 635.8781 272.51605 633.9406Q273.68793 632.0031 277.14105 628.78436Q279.9223 626.20624 280.56293 625.26874Q281.40668 624.0031 281.40668 622.7531Q281.40668 621.3781 280.65668 620.64374Q279.9223 619.89374 278.62543 619.89374Q277.32855 619.89374 276.56293 620.675Q275.81293 621.45624 275.68793 623.2531L271.59418 622.84686Q271.95355 619.4406 273.89105 617.97186Q275.82855 616.4875 278.71918 616.4875Q281.90668 616.4875 283.71918 618.20624Q285.53168 619.90936 285.53168 622.45624Q285.53168 623.90936 285.01605 625.22186Q284.50043 626.53436 283.37543 627.97186Q282.62543 628.925 280.6723 630.72186Q278.71918 632.5031 278.20355 633.09686Q277.68793 633.675 277.3598 634.22186L285.53168 634.22186ZM295.59418 616.4875Q298.71918 616.4875 300.46918 618.70624Q302.56293 621.34686 302.56293 627.45624Q302.56293 633.55 300.45355 636.22186Q298.71918 638.40936 295.59418 638.40936Q292.45355 638.40936 290.53168 636.0031Q288.62543 633.59686 288.62543 627.40936Q288.62543 621.34686 290.7348 618.6906Q292.46918 616.4875 295.59418 616.4875ZM295.59418 619.89374Q294.84418 619.89374 294.25043 620.3781Q293.6723 620.84686 293.34418 622.08124Q292.9223 623.675 292.9223 627.45624Q292.9223 631.2375 293.2973 632.65936Q293.68793 634.0656 294.26605 634.53436Q294.84418 635.0031 295.59418 635.0031Q296.34418 635.0031 296.9223 634.53436Q297.51605 634.05 297.82855 632.8156Q298.26605 631.2375 298.26605 627.45624Q298.26605 623.675 297.87543 622.26874Q297.50043 620.84686 296.9223 620.3781Q296.34418 619.89374 295.59418 619.89374ZM319.53168 634.22186L319.53168 638.05L305.1098 638.05Q305.34418 635.8781 306.51605 633.9406Q307.68793 632.0031 311.14105 628.78436Q313.9223 626.20624 314.56293 625.26874Q315.40668 624.0031 315.40668 622.7531Q315.40668 621.3781 314.65668 620.64374Q313.9223 619.89374 312.62543 619.89374Q311.32855 619.89374 310.56293 620.675Q309.81293 621.45624 309.68793 623.2531L305.59418 622.84686Q305.95355 619.4406 307.89105 617.97186Q309.82855 616.4875 312.71918 616.4875Q315.90668 616.4875 317.71918 618.20624Q319.53168 619.90936 319.53168 622.45624Q319.53168 623.90936 319.01605 625.22186Q318.50043 626.53436 317.37543 627.97186Q316.62543 628.925 314.6723 630.72186Q312.71918 632.5031 312.20355 633.09686Q311.68793 633.675 311.3598 634.22186L319.53168 634.22186ZM329.59418 616.4875Q332.71918 616.4875 334.46918 618.70624Q336.56293 621.34686 336.56293 627.45624Q336.56293 633.55 334.45355 636.22186Q332.71918 638.40936 329.59418 638.40936Q326.45355 638.40936 324.53168 636.0031Q322.62543 633.59686 322.62543 627.40936Q322.62543 621.34686 324.7348 618.6906Q326.46918 616.4875 329.59418 616.4875ZM329.59418 619.89374Q328.84418 619.89374 328.25043 620.3781Q327.6723 620.84686 327.34418 622.08124Q326.9223 623.675 326.9223 627.45624Q326.9223 631.2375 327.2973 632.65936Q327.68793 634.0656 328.26605 634.53436Q328.84418 635.0031 329.59418 635.0031Q330.34418 635.0031 330.9223 634.53436Q331.51605 634.05 331.82855 632.8156Q332.26605 631.2375 332.26605 627.45624Q332.26605 623.675 331.87543 622.26874Q331.50043 620.84686 330.9223 620.3781Q330.34418 619.89374 329.59418 619.89374Z" fill-rule="nonzero"/><path fill="#000000" d="M348.71918 619.76874Q346.62543 623.425 342.75043 626.45624L340.32855 623.34686Q345.46918 619.58124 347.34418 612.51874L350.7973 613.425Q352.26605 614.90936 350.56293 615.14374L350.1098 616.28436L366.32855 616.28436L366.32855 619.76874L357.78168 619.76874L357.78168 622.5031L364.81293 622.5031L364.81293 625.97186L357.78168 625.97186L357.78168 630.0031L367.62543 630.0031L367.62543 633.47186L357.78168 633.47186L357.78168 640.51874L354.18793 640.51874L354.18793 633.47186L340.70355 633.47186L340.70355 630.0031L345.9848 630.0031L345.9848 622.5031L354.18793 622.5031L354.18793 619.76874L348.71918 619.76874ZM349.57855 630.0031L354.18793 630.0031L354.18793 625.97186L349.57855 625.97186L349.57855 630.0031Z" fill-rule="nonzero"/><path fill="#000000" d="M406.67188 634.22186L406.67188 638.05L392.25 638.05Q392.48438 635.8781 393.65625 633.9406Q394.82812 632.0031 398.28125 628.78436Q401.0625 626.20624 401.70312 625.26874Q402.54688 624.0031 402.54688 622.7531Q402.54688 621.3781 401.79688 620.64374Q401.0625 619.89374 399.76562 619.89374Q398.46875 619.89374 397.70312 620.675Q396.95312 621.45624 396.82812 623.2531L392.73438 622.84686Q393.09375 619.4406 395.03125 617.97186Q396.96875 616.4875 399.85938 616.4875Q403.04688 616.4875 404.85938 618.20624Q406.67188 619.90936 406.67188 622.45624Q406.67188 623.90936 406.15625 625.22186Q405.64062 626.53436 404.51562 627.97186Q403.76562 628.925 401.8125 630.72186Q399.85938 632.5031 399.34375 633.09686Q398.82812 633.675 398.5 634.22186L406.67188 634.22186ZM416.73438 616.4875Q419.85938 616.4875 421.60938 618.70624Q423.70312 621.34686 423.70312 627.45624Q423.70312 633.55 421.59375 636.22186Q419.85938 638.40936 416.73438 638.40936Q413.59375 638.40936 411.67188 636.0031Q409.76562 633.59686 409.76562 627.40936Q409.76562 621.34686 411.875 618.6906Q413.60938 616.4875 416.73438 616.4875ZM416.73438 619.89374Q415.98438 619.89374 415.39062 620.3781Q414.8125 620.84686 414.48438 622.08124Q414.0625 623.675 414.0625 627.45624Q414.0625 631.2375 414.4375 632.65936Q414.82812 634.0656 415.40625 634.53436Q415.98438 635.0031 416.73438 635.0031Q417.48438 635.0031 418.0625 634.53436Q418.65625 634.05 418.96875 632.8156Q419.40625 631.2375 419.40625 627.45624Q419.40625 623.675 419.01562 622.26874Q418.64062 620.84686 418.0625 620.3781Q417.48438 619.89374 416.73438 619.89374ZM440.67188 634.22186L440.67188 638.05L426.25 638.05Q426.48438 635.8781 427.65625 633.9406Q428.82812 632.0031 432.28125 628.78436Q435.0625 626.20624 435.70312 625.26874Q436.54688 624.0031 436.54688 622.7531Q436.54688 621.3781 435.79688 620.64374Q435.0625 619.89374 433.76562 619.89374Q432.46875 619.89374 431.70312 620.675Q430.95312 621.45624 430.82812 623.2531L426.73438 622.84686Q427.09375 619.4406 429.03125 617.97186Q430.96875 616.4875 433.85938 616.4875Q437.04688 616.4875 438.85938 618.20624Q440.67188 619.90936 440.67188 622.45624Q440.67188 623.90936 440.15625 625.22186Q439.64062 626.53436 438.51562 627.97186Q437.76562 628.925 435.8125 630.72186Q433.85938 632.5031 433.34375 633.09686Q432.82812 633.675 432.5 634.22186L440.67188 634.22186ZM454.3125 638.05L450.1875 638.05L450.1875 622.53436Q447.9375 624.64374 444.875 625.65936L444.875 621.925Q446.48438 621.39374 448.375 619.925Q450.26562 618.45624 450.96875 616.4875L454.3125 616.4875L454.3125 638.05Z" fill-rule="nonzero"/><path fill="#000000" d="M469.85938 619.76874Q467.76562 623.425 463.89062 626.45624L461.46875 623.34686Q466.60938 619.58124 468.48438 612.51874L471.9375 613.425Q473.40625 614.90936 471.70312 615.14374L471.25 616.28436L487.46875 616.28436L487.46875 619.76874L478.92188 619.76874L478.92188 622.5031L485.95312 622.5031L485.95312 625.97186L478.92188 625.97186L478.92188 630.0031L488.76562 630.0031L488.76562 633.47186L478.92188 633.47186L478.92188 640.51874L475.32812 640.51874L475.32812 633.47186L461.84375 633.47186L461.84375 630.0031L467.125 630.0031L467.125 622.5031L475.32812 622.5031L475.32812 619.76874L469.85938 619.76874ZM470.71875 630.0031L475.32812 630.0031L475.32812 625.97186L470.71875 625.97186L470.71875 630.0031Z" fill-rule="nonzero"/><path fill="#000000" d="M527.8121 634.22186L527.8121 638.05L513.3902 638.05Q513.6246 635.8781 514.79645 633.9406Q515.9683 632.0031 519.42145 628.78436Q522.2027 626.20624 522.8433 625.26874Q523.6871 624.0031 523.6871 622.7531Q523.6871 621.3781 522.9371 620.64374Q522.2027 619.89374 520.9058 619.89374Q519.60895 619.89374 518.8433 620.675Q518.0933 621.45624 517.9683 623.2531L513.8746 622.84686Q514.23395 619.4406 516.17145 617.97186Q518.10895 616.4875 520.9996 616.4875Q524.1871 616.4875 525.9996 618.20624Q527.8121 619.90936 527.8121 622.45624Q527.8121 623.90936 527.29645 625.22186Q526.7808 626.53436 525.6558 627.97186Q524.9058 628.925 522.9527 630.72186Q520.9996 632.5031 520.48395 633.09686Q519.9683 633.675 519.6402 634.22186L527.8121 634.22186ZM537.8746 616.4875Q540.9996 616.4875 542.7496 618.70624Q544.8433 621.34686 544.8433 627.45624Q544.8433 633.55 542.73395 636.22186Q540.9996 638.40936 537.8746 638.40936Q534.73395 638.40936 532.8121 636.0031Q530.9058 633.59686 530.9058 627.40936Q530.9058 621.34686 533.0152 618.6906Q534.7496 616.4875 537.8746 616.4875ZM537.8746 619.89374Q537.1246 619.89374 536.5308 620.3781Q535.9527 620.84686 535.6246 622.08124Q535.2027 623.675 535.2027 627.45624Q535.2027 631.2375 535.5777 632.65936Q535.9683 634.0656 536.54645 634.53436Q537.1246 635.0031 537.8746 635.0031Q538.6246 635.0031 539.2027 634.53436Q539.79645 634.05 540.10895 632.8156Q540.54645 631.2375 540.54645 627.45624Q540.54645 623.675 540.1558 622.26874Q539.7808 620.84686 539.2027 620.3781Q538.6246 619.89374 537.8746 619.89374ZM561.8121 634.22186L561.8121 638.05L547.3902 638.05Q547.6246 635.8781 548.79645 633.9406Q549.9683 632.0031 553.42145 628.78436Q556.2027 626.20624 556.8433 625.26874Q557.6871 624.0031 557.6871 622.7531Q557.6871 621.3781 556.9371 620.64374Q556.2027 619.89374 554.9058 619.89374Q553.60895 619.89374 552.8433 620.675Q552.0933 621.45624 551.9683 623.2531L547.8746 622.84686Q548.23395 619.4406 550.17145 617.97186Q552.10895 616.4875 554.9996 616.4875Q558.1871 616.4875 559.9996 618.20624Q561.8121 619.90936 561.8121 622.45624Q561.8121 623.90936 561.29645 625.22186Q560.7808 626.53436 559.6558 627.97186Q558.9058 628.925 556.9527 630.72186Q554.9996 632.5031 554.48395 633.09686Q553.9683 633.675 553.6402 634.22186L561.8121 634.22186ZM578.8121 634.22186L578.8121 638.05L564.3902 638.05Q564.6246 635.8781 565.79645 633.9406Q566.9683 632.0031 570.42145 628.78436Q573.2027 626.20624 573.8433 625.26874Q574.6871 624.0031 574.6871 622.7531Q574.6871 621.3781 573.9371 620.64374Q573.2027 619.89374 571.9058 619.89374Q570.60895 619.89374 569.8433 620.675Q569.0933 621.45624 568.9683 623.2531L564.8746 622.84686Q565.23395 619.4406 567.17145 617.97186Q569.10895 616.4875 571.9996 616.4875Q575.1871 616.4875 576.9996 618.20624Q578.8121 619.90936 578.8121 622.45624Q578.8121 623.90936 578.29645 625.22186Q577.7808 626.53436 576.6558 627.97186Q575.9058 628.925 573.9527 630.72186Q571.9996 632.5031 571.48395 633.09686Q570.9683 633.675 570.6402 634.22186L578.8121 634.22186Z" fill-rule="nonzero"/><path fill="#000000" d="M590.9996 619.76874Q588.9058 623.425 585.0308 626.45624L582.60895 623.34686Q587.7496 619.58124 589.6246 612.51874L593.0777 613.425Q594.54645 614.90936 592.8433 615.14374L592.3902 616.28436L608.60895 616.28436L608.60895 619.76874L600.0621 619.76874L600.0621 622.5031L607.0933 622.5031L607.0933 625.97186L600.0621 625.97186L600.0621 630.0031L609.9058 630.0031L609.9058 633.47186L600.0621 633.47186L600.0621 640.51874L596.4683 640.51874L596.4683 633.47186L582.98395 633.47186L582.98395 630.0031L588.2652 630.0031L588.2652 622.5031L596.4683 622.5031L596.4683 619.76874L590.9996 619.76874ZM591.85895 630.0031L596.4683 630.0031L596.4683 625.97186L591.85895 625.97186L591.85895 630.0031Z" fill-rule="nonzero"/><path fill="#000000" d="M648.9523 634.22186L648.9523 638.05L634.5304 638.05Q634.7648 635.8781 635.93665 633.9406Q637.1085 632.0031 640.56165 628.78436Q643.3429 626.20624 643.9835 625.26874Q644.8273 624.0031 644.8273 622.7531Q644.8273 621.3781 644.0773 620.64374Q643.3429 619.89374 642.046 619.89374Q640.74915 619.89374 639.9835 620.675Q639.2335 621.45624 639.1085 623.2531L635.0148 622.84686Q635.37415 619.4406 637.31165 617.97186Q639.24915 616.4875 642.1398 616.4875Q645.3273 616.4875 647.1398 618.20624Q648.9523 619.90936 648.9523 622.45624Q648.9523 623.90936 648.43665 625.22186Q647.921 626.53436 646.796 627.97186Q646.046 628.925 644.0929 630.72186Q642.1398 632.5031 641.62415 633.09686Q641.1085 633.675 640.7804 634.22186L648.9523 634.22186ZM659.0148 616.4875Q662.1398 616.4875 663.8898 618.70624Q665.9835 621.34686 665.9835 627.45624Q665.9835 633.55 663.87415 636.22186Q662.1398 638.40936 659.0148 638.40936Q655.87415 638.40936 653.9523 636.0031Q652.046 633.59686 652.046 627.40936Q652.046 621.34686 654.1554 618.6906Q655.8898 616.4875 659.0148 616.4875ZM659.0148 619.89374Q658.2648 619.89374 657.671 620.3781Q657.0929 620.84686 656.7648 622.08124Q656.3429 623.675 656.3429 627.45624Q656.3429 631.2375 656.7179 632.65936Q657.1085 634.0656 657.68665 634.53436Q658.2648 635.0031 659.0148 635.0031Q659.7648 635.0031 660.3429 634.53436Q660.93665 634.05 661.24915 632.8156Q661.68665 631.2375 661.68665 627.45624Q661.68665 623.675 661.296 622.26874Q660.921 620.84686 660.3429 620.3781Q659.7648 619.89374 659.0148 619.89374ZM682.9523 634.22186L682.9523 638.05L668.5304 638.05Q668.7648 635.8781 669.93665 633.9406Q671.1085 632.0031 674.56165 628.78436Q677.3429 626.20624 677.9835 625.26874Q678.8273 624.0031 678.8273 622.7531Q678.8273 621.3781 678.0773 620.64374Q677.3429 619.89374 676.046 619.89374Q674.74915 619.89374 673.9835 620.675Q673.2335 621.45624 673.1085 623.2531L669.0148 622.84686Q669.37415 619.4406 671.31165 617.97186Q673.24915 616.4875 676.1398 616.4875Q679.3273 616.4875 681.1398 618.20624Q682.9523 619.90936 682.9523 622.45624Q682.9523 623.90936 682.43665 625.22186Q681.921 626.53436 680.796 627.97186Q680.046 628.925 678.0929 630.72186Q676.1398 632.5031 675.62415 633.09686Q675.1085 633.675 674.7804 634.22186L682.9523 634.22186ZM685.9054 632.34686L689.8898 631.8625Q690.0773 633.39374 690.9054 634.20624Q691.74915 635.0031 692.93665 635.0031Q694.2179 635.0031 695.0773 634.03436Q695.9523 633.0656 695.9523 631.425Q695.9523 629.8781 695.1085 628.97186Q694.2804 628.0656 693.0929 628.0656Q692.296 628.0656 691.2023 628.3625L691.6554 625.01874Q693.3273 625.05 694.2023 624.28436Q695.0773 623.51874 695.0773 622.2375Q695.0773 621.15936 694.43665 620.51874Q693.796 619.8781 692.7179 619.8781Q691.671 619.8781 690.921 620.6125Q690.171 621.33124 690.0148 622.7375L686.2179 622.09686Q686.6085 620.14374 687.4054 618.9875Q688.2023 617.8156 689.62415 617.15936Q691.06165 616.4875 692.8429 616.4875Q695.87415 616.4875 697.7023 618.425Q699.2023 620.0031 699.2023 621.9875Q699.2023 624.8156 696.12415 626.5031Q697.9679 626.90936 699.06165 628.28436Q700.171 629.65936 700.171 631.59686Q700.171 634.425 698.1085 636.425Q696.046 638.40936 692.9679 638.40936Q690.06165 638.40936 688.1398 636.7375Q686.2179 635.0656 685.9054 632.34686Z" fill-rule="nonzero"/><path fill="#000000" d="M712.1398 619.76874Q710.046 623.425 706.171 626.45624L703.74915 623.34686Q708.8898 619.58124 710.7648 612.51874L714.2179 613.425Q715.68665 614.90936 713.9835 615.14374L713.5304 616.28436L729.74915 616.28436L729.74915 619.76874L721.2023 619.76874L721.2023 622.5031L728.2335 622.5031L728.2335 625.97186L721.2023 625.97186L721.2023 630.0031L731.046 630.0031L731.046 633.47186L721.2023 633.47186L721.2023 640.51874L717.6085 640.51874L717.6085 633.47186L704.12415 633.47186L704.12415 630.0031L709.4054 630.0031L709.4054 622.5031L717.6085 622.5031L717.6085 619.76874L712.1398 619.76874ZM712.99915 630.0031L717.6085 630.0031L717.6085 625.97186L712.99915 625.97186L712.99915 630.0031Z" fill-rule="nonzero"/><path fill="#f39800" d="M249.0 87.583336C249.0 87.03105 249.44771 86.583336 250.0 86.583336L260.0 86.583336C260.55228 86.583336 261.0 87.03105 261.0 87.583336L261.0 97.583336C261.0 98.13562 260.55228 98.583336 260.0 98.583336L250.0 98.583336C249.44771 98.583336 249.0 98.13562 249.0 97.583336Z" fill-rule="nonzero"/><path fill="#1a1a1a" d="M284.29688 88.78646Q282.8125 97.270836 274.07812 101.145836L272.0625 99.020836Q280.0625 95.75521 281.48438 88.802086L275.96875 88.802086Q274.25 91.63021 272.03125 93.677086L269.75 92.19271Q274.125 88.25521 275.35938 83.020836L277.60938 83.802086Q278.9375 84.458336 277.625 84.958336Q277.35938 85.81771 277.125 86.270836L281.95312 86.270836L282.84375 85.78646L284.45312 87.41146Q285.48438 88.427086 284.29688 88.78646ZM284.3125 87.177086Q282.85938 85.083336 281.34375 83.88021L283.0 82.47396Q284.625 83.895836 286.0625 85.81771L284.3125 87.177086ZM286.64062 86.270836Q285.125 84.38021 283.8125 83.177086L285.32812 81.66146Q286.8125 83.03646 288.15625 84.75521L286.64062 86.270836ZM300.53125 96.31771Q303.29688 95.25521 306.45312 90.91146L308.04688 93.083336Q304.84375 97.47396 300.21875 99.31771L299.375 99.72396L297.67188 98.458336L297.92188 97.84896L297.92188 84.94271L300.01562 84.94271Q301.54688 85.28646 300.53125 86.16146L300.53125 96.31771ZM289.0 99.083336Q293.15625 95.09896 293.15625 89.72396L293.15625 85.802086L295.25 85.802086Q296.78125 86.145836 295.76562 87.020836L295.76562 89.645836Q295.76562 96.38021 291.26562 100.552086L289.0 99.083336ZM308.9375 93.177086L308.9375 90.645836L327.17188 90.645836L327.17188 93.177086L308.9375 93.177086ZM342.40625 85.333336Q342.85938 85.333336 343.14062 85.06771Q343.40625 84.78646 343.40625 84.333336Q343.40625 83.88021 343.14062 83.59896Q342.85938 83.333336 342.40625 83.333336Q341.95312 83.333336 341.67188 83.59896Q341.40625 83.88021 341.40625 84.333336Q341.40625 84.78646 341.67188 85.06771Q341.95312 85.333336 342.40625 85.333336ZM342.40625 86.927086Q341.29688 86.927086 340.5625 86.177086Q339.8125 85.44271 339.8125 84.333336Q339.8125 83.22396 340.5625 82.489586Q341.29688 81.739586 342.40625 81.739586Q343.51562 81.739586 344.25 82.489586Q345.0 83.22396 345.0 84.333336Q345.0 85.44271 344.25 86.177086Q343.51562 86.927086 342.40625 86.927086ZM328.01562 87.94271L328.01562 85.41146L340.10938 85.41146L342.4375 87.09896Q342.01562 97.06771 331.17188 100.114586L329.17188 97.677086Q339.28125 95.333336 339.70312 87.94271L328.01562 87.94271ZM356.625 84.13021Q359.3125 87.50521 364.625 89.16146L363.51562 91.72396Q357.73438 89.59896 355.0 85.81771Q353.84375 88.208336 352.34375 89.239586L360.10938 89.239586L360.10938 91.53646L350.54688 91.53646L350.54688 90.59896Q349.76562 91.239586 347.54688 92.25521L345.95312 90.114586Q351.96875 87.31771 353.82812 82.69271L356.17188 83.145836Q357.8125 83.38021 356.625 84.13021ZM351.51562 101.145836L349.14062 101.145836L349.14062 92.59896L361.59375 92.59896L361.59375 100.91146L359.21875 100.91146L359.21875 100.052086L351.51562 100.052086L351.51562 101.145836ZM351.51562 97.75521L359.21875 97.75521L359.21875 94.895836L351.51562 94.895836L351.51562 97.75521ZM378.28125 89.00521L378.28125 82.75521L380.21875 82.75521Q382.10938 83.13021 380.65625 83.94271L380.65625 89.00521L384.64062 89.00521L384.64062 91.302086L380.65625 91.302086L380.65625 100.989586L378.28125 100.989586L378.28125 91.302086L374.0625 91.302086L374.0625 89.00521L378.28125 89.00521ZM374.25 100.75521L371.875 100.75521L371.875 99.97396L369.48438 99.97396L369.48438 101.06771L367.10938 101.06771L367.10938 93.84896L374.25 93.84896L374.25 100.75521ZM369.48438 95.91146L369.48438 97.91146L371.875 97.91146L371.875 95.91146L369.48438 95.91146ZM373.78125 91.19271L373.78125 93.489586L367.57812 93.489586L367.57812 91.19271L373.78125 91.19271ZM367.57812 88.614586L373.78125 88.614586L373.78125 90.91146L367.57812 90.91146L367.57812 88.614586ZM366.09375 86.03646L375.1875 86.03646L375.1875 88.333336L366.09375 88.333336L366.09375 86.03646ZM373.78125 83.22396L373.78125 85.520836L367.57812 85.520836L367.57812 83.22396L373.78125 83.22396Z" fill-rule="nonzero"/><path fill="#4285f4" d="M401.0 87.583336C401.0 87.03105 401.44772 86.583336 402.0 86.583336L412.0 86.583336C412.55228 86.583336 413.0 87.03105 413.0 87.583336L413.0 97.583336C413.0 98.13562 412.55228 98.583336 412.0 98.583336L402.0 98.583336C401.44772 98.583336 401.0 98.13562 401.0 97.583336Z" fill-rule="nonzero"/><path fill="#1a1a1a" d="M435.5625 86.03646L439.15625 86.03646L439.15625 88.56771L435.5625 88.56771L435.5625 90.177086L440.48438 90.177086L440.48438 92.708336L436.0 92.708336Q437.01562 94.50521 441.15625 96.989586L439.82812 99.552086Q436.34375 97.03646 435.5625 95.895836L435.5625 101.38021L433.1875 101.38021L433.1875 96.22396Q432.25 97.81771 428.92188 100.06771L427.67188 97.802086Q431.26562 95.302086 432.79688 92.708336L428.57812 92.708336L428.57812 90.177086L433.1875 90.177086L433.1875 88.56771L431.67188 88.56771Q431.28125 89.47396 430.09375 90.88021L428.26562 88.94271Q429.875 87.25521 430.8125 84.00521L432.79688 84.489586Q434.28125 85.239586 432.8125 85.614586L432.67188 86.03646L433.1875 86.03646L433.1875 82.520836L435.10938 82.520836Q436.78125 82.72396 435.5625 83.59896L435.5625 86.03646ZM427.20312 101.38021L424.82812 101.38021L424.82812 95.19271Q424.8125 95.25521 422.90625 97.34896L421.4375 94.97396Q424.0 92.333336 424.67188 88.88021L422.17188 88.88021L422.17188 86.34896L424.82812 86.34896L424.82812 82.520836L426.76562 82.520836Q428.42188 82.927086 427.20312 83.63021L427.20312 86.34896L429.39062 86.34896L429.39062 88.88021L427.20312 88.88021L427.20312 90.520836Q428.64062 91.458336 429.96875 93.16146L428.23438 95.34896Q427.09375 93.489586 427.17188 93.50521L427.20312 101.38021ZM456.29688 96.09896Q457.1875 97.75521 457.73438 97.75521Q457.73438 97.78646 457.71875 97.63021L457.9375 95.770836L460.45312 96.91146L460.09375 99.083336Q459.79688 100.75521 458.28125 100.75521Q455.6875 100.75521 453.9375 97.333336Q452.32812 94.19271 452.25 88.958336L442.64062 88.958336L442.64062 86.427086L452.17188 86.427086L452.17188 82.833336L454.34375 82.833336Q456.125 83.19271 454.78125 84.083336L454.78125 86.427086L460.25 86.427086L460.25 88.958336L454.8125 88.958336Q455.09375 93.91146 456.29688 96.09896ZM453.35938 98.00521Q448.59375 99.03646 444.40625 99.770836Q444.10938 101.09896 443.14062 99.739586L442.64062 97.239586Q445.03125 97.052086 446.54688 96.802086L446.54688 93.09896L443.42188 93.09896L443.42188 90.802086L451.96875 90.802086L451.96875 93.09896L448.92188 93.09896L448.92188 96.44271Q450.25 96.270836 452.98438 95.72396L453.35938 98.00521ZM456.42188 83.145836Q457.8125 83.833336 459.20312 85.13021L457.15625 86.833336Q456.15625 85.833336 454.45312 84.88021L456.42188 83.145836ZM474.10938 88.770836Q472.67188 87.989586 471.23438 85.520836Q469.82812 87.81771 468.51562 88.770836L474.10938 88.770836ZM479.625 91.28646Q477.89062 90.88021 476.26562 89.958336L476.26562 91.302086L466.625 91.302086L466.625 90.114586Q465.09375 91.19271 462.79688 91.864586L461.8125 89.208336Q467.53125 87.66146 470.25 82.645836L472.15625 82.91146Q473.8125 83.114586 472.75 83.895836Q474.9375 87.177086 480.71875 88.66146L479.625 91.28646ZM477.54688 101.28646Q476.73438 100.145836 476.03125 99.520836L465.03125 100.739586Q464.48438 101.270836 463.78125 100.75521L463.0625 98.177086L466.54688 98.00521L468.29688 94.81771L462.95312 94.81771L462.95312 92.28646L479.78125 92.28646L479.78125 94.81771L471.17188 94.81771L469.34375 97.84896L474.03125 97.50521Q473.71875 97.22396 472.03125 95.958336L474.15625 94.53646Q478.1875 97.552086 479.89062 99.833336L477.54688 101.28646ZM487.67188 86.114586L488.73438 86.114586L489.21875 85.63021L491.01562 87.427086L490.15625 88.052086Q489.25 89.78646 487.95312 91.395836Q489.40625 91.84896 491.21875 93.09896L489.98438 95.59896Q488.28125 94.208336 487.67188 93.84896L487.67188 101.302086L485.29688 101.302086L485.29688 94.06771Q484.53125 94.739586 482.625 95.84896L481.57812 93.53646Q485.5625 91.38021 487.26562 88.41146L482.40625 88.41146L482.40625 86.114586L485.29688 86.114586L485.29688 82.75521L487.21875 82.75521Q488.89062 82.958336 487.67188 83.833336L487.67188 86.114586ZM495.82812 83.22396Q497.60938 83.583336 496.26562 84.47396L496.26562 87.989586L499.85938 87.989586L499.85938 90.520836L496.26562 90.520836L496.26562 97.833336L500.5625 97.833336L500.5625 100.364586L489.04688 100.364586L489.04688 97.833336L493.65625 97.833336L493.65625 90.520836L490.29688 90.520836L490.29688 87.989586L493.65625 87.989586L493.65625 83.22396L495.82812 83.22396ZM516.2969 88.78646Q514.8125 97.270836 506.07812 101.145836L504.0625 99.020836Q512.0625 95.75521 513.4844 88.802086L507.96875 88.802086Q506.25 91.63021 504.03125 93.677086L501.75 92.19271Q506.125 88.25521 507.35938 83.020836L509.60938 83.802086Q510.9375 84.458336 509.625 84.958336Q509.35938 85.81771 509.125 86.270836L513.9531 86.270836L514.84375 85.78646L516.4531 87.41146Q517.4844 88.427086 516.2969 88.78646ZM529.9219 92.302086Q529.9219 98.41146 523.9844 101.22396L521.7344 99.302086Q527.2344 96.802086 527.3125 92.22396L527.3125 84.00521L529.40625 84.00521Q531.1094 84.34896 529.9219 85.239586L529.9219 92.302086ZM521.875 94.427086L519.2656 94.427086L519.2656 84.78646L521.40625 84.78646Q523.21875 84.97396 521.875 86.020836L521.875 94.427086ZM542.375 92.177086Q542.5 97.364586 536.78125 100.958336L534.8906 98.833336Q539.7344 96.208336 539.7344 91.91146L539.7344 88.145836L541.7969 88.145836Q543.4531 88.333336 542.34375 89.28646L542.34375 90.31771Q544.4531 88.739586 545.40625 87.427086L533.125 87.88021L532.90625 85.270836L547.5 84.864586L548.25 84.645836L549.59375 86.270836Q550.4219 87.34896 549.0781 87.19271Q546.84375 90.083336 543.25 92.989586L542.375 92.177086Z" fill-rule="nonzero"/><path fill="#757575" d="M650.03436 57.153126L648.15936 57.153126Q646.65936 54.903126 645.8781 52.48125Q645.09686 50.04375 645.09686 47.7625Q645.09686 44.934376 646.0656 42.41875Q646.90936 40.23125 648.1906 38.3875L650.0656 38.3875Q648.72186 41.340626 648.22186 43.41875Q647.72186 45.496876 647.72186 47.825Q647.72186 49.41875 648.01874 51.10625Q648.3156 52.778126 648.83124 54.29375Q649.175 55.29375 650.03436 57.153126Z" fill-rule="nonzero"/><path fill="#757575" d="M666.7375 39.79375L668.425 39.79375L668.425 48.653126L666.05 48.653126L666.05 48.184376L662.5656 48.184376L662.5656 49.0125L670.76874 49.0125L670.76874 51.309376L662.5656 51.309376L662.5656 54.590626L660.1906 54.590626L660.1906 51.309376L652.14374 51.309376L652.14374 49.0125L660.1906 49.0125L660.1906 48.184376L656.78436 48.184376L656.78436 48.809376L654.40936 48.809376L654.40936 39.79375L663.89374 39.79375L666.5031 35.809376L668.33124 37.059376Q669.64374 38.10625 668.0656 38.10625L666.7375 39.79375ZM660.925 36.0125Q662.72186 37.5125 663.47186 38.91875L661.3156 40.496876Q660.5031 38.965626 658.95624 37.5125L660.925 36.0125ZM660.1906 42.91875L660.1906 42.090626L656.78436 42.090626L656.78436 42.91875L660.1906 42.91875ZM666.05 42.91875L666.05 42.090626L662.5656 42.090626L662.5656 42.91875L666.05 42.91875ZM660.1906 45.8875L660.1906 45.215626L656.78436 45.215626L656.78436 45.8875L660.1906 45.8875ZM666.05 45.8875L666.05 45.215626L662.5656 45.215626L662.5656 45.8875L666.05 45.8875ZM656.3 40.54375Q655.5031 38.965626 654.1125 37.66875L656.09686 36.153126Q657.64374 37.60625 658.47186 39.16875L656.3 40.54375ZM688.22186 44.121876Q687.6281 47.2625 686.2531 50.965626L690.6906 50.965626L690.6906 53.2625L676.83124 53.2625L676.83124 50.965626L683.65936 50.965626Q684.97186 46.590626 685.7531 42.41875L688.1906 43.10625Q689.01874 43.653126 688.22186 44.121876ZM674.5656 54.5125L674.72186 45.16875Q674.83124 45.278126 673.20624 47.121876L671.72186 44.825Q674.97186 41.653126 675.72186 36.075L678.01874 36.778126Q679.34686 37.434376 678.05 37.934376Q677.47186 40.340626 676.7375 41.684376L676.89374 41.621876Q677.58124 42.309376 676.9406 42.7L676.9406 54.5125L674.5656 54.5125ZM680.97186 43.215626Q682.3156 46.090626 683.01874 49.528126L680.4406 50.41875Q679.7375 46.8875 678.4875 44.0125L680.97186 43.215626ZM689.83124 40.184376L689.83124 42.48125L677.6906 42.48125L677.6906 40.184376L682.45624 40.184376L682.45624 36.35625L684.3781 36.35625Q686.05 36.559376 684.83124 37.434376L684.83124 40.184376L689.83124 40.184376Z" fill-rule="nonzero"/><path fill="#757575" d="M693.01874 45.325L693.01874 42.575L695.7531 42.575L695.7531 45.325L693.01874 45.325ZM693.01874 52.95L693.01874 50.2L695.7531 50.2L695.7531 52.95L693.01874 52.95Z" fill-rule="nonzero"/><path fill="#757575" d="M717.53436 37.215626L717.53436 39.746876L709.8 39.746876L709.425 41.5125L715.5031 41.5125L715.5031 54.2L712.89374 54.2L712.89374 53.184376L704.2531 53.184376L704.2531 54.5125L701.64374 54.5125L701.64374 41.5125L706.70624 41.5125L707.03436 39.746876L699.3781 39.746876L699.3781 37.215626L717.53436 37.215626ZM704.2531 48.496876L704.2531 50.8875L712.89374 50.8875L712.89374 48.496876L704.2531 48.496876ZM712.89374 46.2L712.89374 43.809376L704.2531 43.809376L704.2531 46.2L712.89374 46.2ZM725.55 40.215626L719.76874 40.215626L719.76874 37.684376L737.3 37.684376L737.3 40.215626L728.15936 40.215626Q728.15936 41.465626 728.05 42.684376L735.89374 42.684376Q735.89374 48.309376 735.01874 51.325Q734.3156 53.8875 731.8156 53.8875L728.425 53.8875L727.97186 51.35625L731.26874 51.35625Q732.28436 51.35625 732.51874 50.559376Q733.1281 48.496876 733.1906 45.215626L727.6906 45.215626Q726.47186 51.0125 721.0656 53.934376L719.425 51.528126Q725.55 48.465626 725.55 41.1375L725.55 40.215626ZM756.28436 52.309376Q756.28436 53.965626 754.6281 53.965626L752.28436 53.965626L751.59686 51.434376L753.76874 51.434376Q753.76874 51.528126 753.675 51.528126L753.675 46.7L743.0031 46.7L743.0031 54.04375L740.39374 54.04375L740.39374 37.371876L756.28436 37.371876L756.28436 52.309376ZM753.675 39.66875L749.4875 39.66875L749.4875 44.403126L753.675 44.403126L753.675 39.66875ZM743.0031 39.66875L743.0031 44.403126L747.1125 44.403126L747.1125 39.66875L743.0031 39.66875Z" fill-rule="nonzero"/><path fill="#757575" d="M758.72186 57.153126Q759.53436 55.41875 759.8625 54.48125Q760.20624 53.559376 760.4875 52.35625Q760.76874 51.1375 760.89374 50.059376Q761.03436 48.965626 761.03436 47.825Q761.03436 45.496876 760.53436 43.41875Q760.05 41.340626 758.70624 38.3875L760.5656 38.3875Q762.05 40.48125 762.8625 42.840626Q763.675 45.2 763.675 47.621876Q763.675 49.653126 763.03436 51.996876Q762.3 54.60625 760.6125 57.153126L758.72186 57.153126Z" fill-rule="nonzero"/></svg>