<svg version="1.1" viewBox="0.0 0.0 799.0 679.0" fill="none" stroke="none" stroke-linecap="square" stroke-miterlimit="10" width="799" height="679" xmlns:xlink="http://www.w3.org/1999/xlink" xmlns="http://www.w3.org/2000/svg"><path fill="#ffffff" d="M0 0L799.0 0L799.0 679.0L0 679.0L0 0Z" fill-rule="nonzero"/><path stroke="#333333" stroke-width="1.0" stroke-linecap="butt" d="M116.5 547.5L765.5 547.5" fill-rule="nonzero"/><path stroke="#cccccc" stroke-width="1.0" stroke-linecap="butt" d="M116.5 467.5L765.5 467.5" fill-rule="nonzero"/><path stroke="#cccccc" stroke-width="1.0" stroke-linecap="butt" d="M116.5 386.5L765.5 386.5" fill-rule="nonzero"/><path stroke="#cccccc" stroke-width="1.0" stroke-linecap="butt" d="M116.5 305.5L765.5 305.5" fill-rule="nonzero"/><path stroke="#cccccc" stroke-width="1.0" stroke-linecap="butt" d="M116.5 225.5L765.5 225.5" fill-rule="nonzero"/><path stroke="#cccccc" stroke-width="1.0" stroke-linecap="butt" d="M116.5 144.5L765.5 144.5" fill-rule="nonzero"/><clipPath id="id_0"><path d="M116.95 144.71666L765.05 144.71666L765.05 547.71625L116.95 547.71625L116.95 144.71666Z" clip-rule="nonzero"/></clipPath><path stroke="#000000" stroke-width="2.0" stroke-linecap="butt" stroke-opacity="0.0" clip-path="url(#id_0)" d="M219.0 548.0L153.0 548.0L153.0 533.0L219.0 533.0Z" fill-rule="nonzero"/><path fill="#4285f4" clip-path="url(#id_0)" d="M219.0 548.0L153.0 548.0L153.0 533.0L219.0 533.0Z" fill-rule="nonzero"/><path stroke="#000000" stroke-width="2.0" stroke-linecap="butt" stroke-opacity="0.0" clip-path="url(#id_0)" d="M321.0 548.0L255.0 548.0L255.0 510.0L321.0 510.0Z" fill-rule="nonzero"/><path fill="#4285f4" clip-path="url(#id_0)" d="M321.0 548.0L255.0 548.0L255.0 510.0L321.0 510.0Z" fill-rule="nonzero"/><path stroke="#000000" stroke-width="2.0" stroke-linecap="butt" stroke-opacity="0.0" clip-path="url(#id_0)" d="M423.0 548.0L357.0 548.0L357.0 464.0L423.0 464.0Z" fill-rule="nonzero"/><path fill="#4285f4" clip-path="url(#id_0)" d="M423.0 548.0L357.0 548.0L357.0 464.0L423.0 464.0Z" fill-rule="nonzero"/><path stroke="#000000" stroke-width="2.0" stroke-linecap="butt" stroke-opacity="0.0" clip-path="url(#id_0)" d="M525.0 548.0L459.0 548.0L459.0 381.0L525.0 381.0Z" fill-rule="nonzero"/><path fill="#4285f4" clip-path="url(#id_0)" d="M525.0 548.0L459.0 548.0L459.0 381.0L525.0 381.0Z" fill-rule="nonzero"/><path stroke="#000000" stroke-width="2.0" stroke-linecap="butt" stroke-opacity="0.0" clip-path="url(#id_0)" d="M627.0 548.0L561.0 548.0L561.0 289.0L627.0 289.0Z" fill-rule="nonzero"/><path fill="#4285f4" clip-path="url(#id_0)" d="M627.0 548.0L561.0 548.0L561.0 289.0L627.0 289.0Z" fill-rule="nonzero"/><path stroke="#000000" stroke-width="2.0" stroke-linecap="butt" stroke-opacity="0.0" clip-path="url(#id_0)" d="M729.0 548.0L663.0 548.0L663.0 193.0L729.0 193.0Z" fill-rule="nonzero"/><path fill="#4285f4" clip-path="url(#id_0)" d="M729.0 548.0L663.0 548.0L663.0 193.0L729.0 193.0Z" fill-rule="nonzero"/><path stroke="#000000" stroke-width="2.0" stroke-linecap="butt" stroke-opacity="0.0" clip-path="url(#id_0)" d="M219.0 533.0L153.0 533.0L153.0 533.0L219.0 533.0Z" fill-rule="nonzero"/><path fill="#f39800" clip-path="url(#id_0)" d="M219.0 533.0L153.0 533.0L153.0 533.0L219.0 533.0Z" fill-rule="nonzero"/><path stroke="#000000" stroke-width="2.0" stroke-linecap="butt" stroke-opacity="0.0" clip-path="url(#id_0)" d="M321.0 510.0L255.0 510.0L255.0 510.0L321.0 510.0Z" fill-rule="nonzero"/><path fill="#f39800" clip-path="url(#id_0)" d="M321.0 510.0L255.0 510.0L255.0 510.0L321.0 510.0Z" fill-rule="nonzero"/><path stroke="#ffffff" stroke-width="2.0" stroke-linecap="butt" clip-path="url(#id_0)" d="M423.0 464.0L357.0 464.0L357.0 458.0C357.0 456.89542 357.89542 456.0 359.0 456.0L421.0 456.0C422.10458 456.0 423.0 456.89542 423.0 458.0Z" fill-rule="nonzero"/><path fill="#f39800" clip-path="url(#id_0)" d="M423.0 464.0L357.0 464.0L357.0 458.0C357.0 456.89542 357.89542 456.0 359.0 456.0L421.0 456.0C422.10458 456.0 423.0 456.89542 423.0 458.0Z" fill-rule="nonzero"/><path stroke="#000000" stroke-width="2.0" stroke-linecap="butt" stroke-opacity="0.0" clip-path="url(#id_0)" d="M525.0 381.0L459.0 381.0L459.0 323.0C459.0 321.89542 459.89542 321.0 461.0 321.0L523.0 321.0C524.10455 321.0 525.0 321.89542 525.0 323.0Z" fill-rule="nonzero"/><path fill="#f39800" clip-path="url(#id_0)" d="M525.0 381.0L459.0 381.0L459.0 323.0C459.0 321.89542 459.89542 321.0 461.0 321.0L523.0 321.0C524.10455 321.0 525.0 321.89542 525.0 323.0Z" fill-rule="nonzero"/><path stroke="#000000" stroke-width="2.0" stroke-linecap="butt" stroke-opacity="0.0" clip-path="url(#id_0)" d="M627.0 289.0L561.0 289.0L561.0 187.0C561.0 185.89543 561.89545 185.0 563.0 185.0L625.0 185.0C626.10455 185.0 627.0 185.89543 627.0 187.0Z" fill-rule="nonzero"/><path fill="#f39800" clip-path="url(#id_0)" d="M627.0 289.0L561.0 289.0L561.0 187.0C561.0 185.89543 561.89545 185.0 563.0 185.0L625.0 185.0C626.10455 185.0 627.0 185.89543 627.0 187.0Z" fill-rule="nonzero"/><path stroke="#000000" stroke-width="2.0" stroke-linecap="butt" stroke-opacity="0.0" clip-path="url(#id_0)" d="M729.0 193.0L663.0 193.0L663.0 193.0L729.0 193.0Z" fill-rule="nonzero"/><path fill="#f39800" clip-path="url(#id_0)" d="M729.0 193.0L663.0 193.0L663.0 193.0L729.0 193.0Z" fill-rule="nonzero"/><path stroke="#ffffff" stroke-width="3.0" stroke-linejoin="round" stroke-linecap="round" d="M167.64062 483.25516L172.42188 482.7239Q172.59375 484.17703 173.32812 484.88016Q174.0625 485.58328 175.28125 485.58328Q176.8125 485.58328 177.875 484.17703Q178.95312 482.77078 179.25 478.3489Q177.39062 480.50516 174.59375 480.50516Q171.5625 480.50516 169.34375 478.1614Q167.14062 475.81766 167.14062 472.05203Q167.14062 468.13016 169.46875 465.73953Q171.79688 463.33328 175.40625 463.33328Q179.32812 463.33328 181.84375 466.36453Q184.35938 469.39578 184.35938 476.33328Q184.35938 483.4114 181.73438 486.5364Q179.10938 489.6614 174.90625 489.6614Q171.89062 489.6614 170.01562 488.05203Q168.15625 486.44266 167.64062 483.25516ZM178.8125 472.45828Q178.8125 470.06766 177.71875 468.75516Q176.625 467.42703 175.17188 467.42703Q173.8125 467.42703 172.90625 468.50516Q172.0 469.58328 172.0 472.05203Q172.0 474.55203 172.98438 475.7239Q173.96875 476.88016 175.4375 476.88016Q176.85938 476.88016 177.82812 475.75516Q178.8125 474.63016 178.8125 472.45828ZM195.875 463.33328Q199.625 463.33328 201.73438 466.00516Q204.25 469.1614 204.25 476.50516Q204.25 483.81766 201.71875 487.00516Q199.625 489.64578 195.875 489.64578Q192.125 489.64578 189.8125 486.75516Q187.51562 483.86453 187.51562 476.44266Q187.51562 469.1614 190.04688 465.9739Q192.14062 463.33328 195.875 463.33328ZM195.875 467.42703Q194.98438 467.42703 194.28125 468.00516Q193.57812 468.56766 193.1875 470.05203Q192.6875 471.95828 192.6875 476.50516Q192.6875 481.0364 193.14062 482.73953Q193.59375 484.42703 194.28125 484.98953Q194.98438 485.55203 195.875 485.55203Q196.78125 485.55203 197.48438 484.98953Q198.1875 484.4114 198.5625 482.92703Q199.07812 481.0364 199.07812 476.50516Q199.07812 471.95828 198.625 470.27078Q198.17188 468.56766 197.46875 468.00516Q196.78125 467.42703 195.875 467.42703Z" fill-rule="nonzero"/><path fill="#4285f4" d="M167.64062 483.25516L172.42188 482.7239Q172.59375 484.17703 173.32812 484.88016Q174.0625 485.58328 175.28125 485.58328Q176.8125 485.58328 177.875 484.17703Q178.95312 482.77078 179.25 478.3489Q177.39062 480.50516 174.59375 480.50516Q171.5625 480.50516 169.34375 478.1614Q167.14062 475.81766 167.14062 472.05203Q167.14062 468.13016 169.46875 465.73953Q171.79688 463.33328 175.40625 463.33328Q179.32812 463.33328 181.84375 466.36453Q184.35938 469.39578 184.35938 476.33328Q184.35938 483.4114 181.73438 486.5364Q179.10938 489.6614 174.90625 489.6614Q171.89062 489.6614 170.01562 488.05203Q168.15625 486.44266 167.64062 483.25516ZM178.8125 472.45828Q178.8125 470.06766 177.71875 468.75516Q176.625 467.42703 175.17188 467.42703Q173.8125 467.42703 172.90625 468.50516Q172.0 469.58328 172.0 472.05203Q172.0 474.55203 172.98438 475.7239Q173.96875 476.88016 175.4375 476.88016Q176.85938 476.88016 177.82812 475.75516Q178.8125 474.63016 178.8125 472.45828ZM195.875 463.33328Q199.625 463.33328 201.73438 466.00516Q204.25 469.1614 204.25 476.50516Q204.25 483.81766 201.71875 487.00516Q199.625 489.64578 195.875 489.64578Q192.125 489.64578 189.8125 486.75516Q187.51562 483.86453 187.51562 476.44266Q187.51562 469.1614 190.04688 465.9739Q192.14062 463.33328 195.875 463.33328ZM195.875 467.42703Q194.98438 467.42703 194.28125 468.00516Q193.57812 468.56766 193.1875 470.05203Q192.6875 471.95828 192.6875 476.50516Q192.6875 481.0364 193.14062 482.73953Q193.59375 484.42703 194.28125 484.98953Q194.98438 485.55203 195.875 485.55203Q196.78125 485.55203 197.48438 484.98953Q198.1875 484.4114 198.5625 482.92703Q199.07812 481.0364 199.07812 476.50516Q199.07812 471.95828 198.625 470.27078Q198.17188 468.56766 197.46875 468.00516Q196.78125 467.42703 195.875 467.42703Z" fill-rule="nonzero"/><path stroke="#ffffff" stroke-width="3.0" stroke-linejoin="round" stroke-linecap="round" d="M276.21875 461.72415L276.21875 466.3179L258.89062 466.3179Q259.17188 463.70853 260.57812 461.3804Q261.98438 459.05228 266.14062 455.20853Q269.48438 452.09915 270.23438 450.98978Q271.25 449.45853 271.25 447.95853Q271.25 446.3179 270.35938 445.42728Q269.48438 444.53665 267.92188 444.53665Q266.375 444.53665 265.45312 445.47415Q264.54688 446.39603 264.40625 448.5679L259.48438 448.0679Q259.92188 443.98978 262.23438 442.22415Q264.5625 440.4429 268.03125 440.4429Q271.85938 440.4429 274.03125 442.5054Q276.21875 444.55228 276.21875 447.61478Q276.21875 449.34915 275.59375 450.92728Q274.96875 452.5054 273.60938 454.22415Q272.71875 455.36478 270.375 457.52103Q268.03125 459.66165 267.40625 460.36478Q266.79688 461.0679 266.40625 461.72415L276.21875 461.72415ZM279.35938 459.47415L284.14062 458.89603Q284.35938 460.72415 285.35938 461.6929Q286.375 462.66165 287.79688 462.66165Q289.32812 462.66165 290.35938 461.5054Q291.40625 460.33353 291.40625 458.36478Q291.40625 456.5054 290.40625 455.42728Q289.40625 454.33353 287.96875 454.33353Q287.01562 454.33353 285.70312 454.6929L286.25 450.67728Q288.25 450.72415 289.29688 449.80228Q290.35938 448.8804 290.35938 447.34915Q290.35938 446.05228 289.57812 445.28665Q288.8125 444.5054 287.53125 444.5054Q286.26562 444.5054 285.35938 445.3804Q284.46875 446.2554 284.28125 447.9429L279.71875 447.17728Q280.20312 444.83353 281.15625 443.4429Q282.10938 442.03665 283.82812 441.23978Q285.54688 440.4429 287.67188 440.4429Q291.3125 440.4429 293.5 442.7554Q295.3125 444.66165 295.3125 447.05228Q295.3125 450.4429 291.60938 452.45853Q293.82812 452.9429 295.14062 454.59915Q296.46875 456.23978 296.46875 458.58353Q296.46875 461.97415 293.98438 464.36478Q291.51562 466.7554 287.82812 466.7554Q284.32812 466.7554 282.01562 464.73978Q279.71875 462.72415 279.35938 459.47415ZM316.21875 461.72415L316.21875 466.3179L298.89062 466.3179Q299.17188 463.70853 300.57812 461.3804Q301.98438 459.05228 306.14062 455.20853Q309.48438 452.09915 310.23438 450.98978Q311.25 449.45853 311.25 447.95853Q311.25 446.3179 310.35938 445.42728Q309.48438 444.53665 307.92188 444.53665Q306.375 444.53665 305.45312 445.47415Q304.54688 446.39603 304.40625 448.5679L299.48438 448.0679Q299.92188 443.98978 302.23438 442.22415Q304.5625 440.4429 308.03125 440.4429Q311.85938 440.4429 314.03125 442.5054Q316.21875 444.55228 316.21875 447.61478Q316.21875 449.34915 315.59375 450.92728Q314.96875 452.5054 313.60938 454.22415Q312.71875 455.36478 310.375 457.52103Q308.03125 459.66165 307.40625 460.36478Q306.79688 461.0679 306.40625 461.72415L316.21875 461.72415Z" fill-rule="nonzero"/><path fill="#4285f4" d="M276.21875 461.72415L276.21875 466.3179L258.89062 466.3179Q259.17188 463.70853 260.57812 461.3804Q261.98438 459.05228 266.14062 455.20853Q269.48438 452.09915 270.23438 450.98978Q271.25 449.45853 271.25 447.95853Q271.25 446.3179 270.35938 445.42728Q269.48438 444.53665 267.92188 444.53665Q266.375 444.53665 265.45312 445.47415Q264.54688 446.39603 264.40625 448.5679L259.48438 448.0679Q259.92188 443.98978 262.23438 442.22415Q264.5625 440.4429 268.03125 440.4429Q271.85938 440.4429 274.03125 442.5054Q276.21875 444.55228 276.21875 447.61478Q276.21875 449.34915 275.59375 450.92728Q274.96875 452.5054 273.60938 454.22415Q272.71875 455.36478 270.375 457.52103Q268.03125 459.66165 267.40625 460.36478Q266.79688 461.0679 266.40625 461.72415L276.21875 461.72415ZM279.35938 459.47415L284.14062 458.89603Q284.35938 460.72415 285.35938 461.6929Q286.375 462.66165 287.79688 462.66165Q289.32812 462.66165 290.35938 461.5054Q291.40625 460.33353 291.40625 458.36478Q291.40625 456.5054 290.40625 455.42728Q289.40625 454.33353 287.96875 454.33353Q287.01562 454.33353 285.70312 454.6929L286.25 450.67728Q288.25 450.72415 289.29688 449.80228Q290.35938 448.8804 290.35938 447.34915Q290.35938 446.05228 289.57812 445.28665Q288.8125 444.5054 287.53125 444.5054Q286.26562 444.5054 285.35938 445.3804Q284.46875 446.2554 284.28125 447.9429L279.71875 447.17728Q280.20312 444.83353 281.15625 443.4429Q282.10938 442.03665 283.82812 441.23978Q285.54688 440.4429 287.67188 440.4429Q291.3125 440.4429 293.5 442.7554Q295.3125 444.66165 295.3125 447.05228Q295.3125 450.4429 291.60938 452.45853Q293.82812 452.9429 295.14062 454.59915Q296.46875 456.23978 296.46875 458.58353Q296.46875 461.97415 293.98438 464.36478Q291.51562 466.7554 287.82812 466.7554Q284.32812 466.7554 282.01562 464.73978Q279.71875 462.72415 279.35938 459.47415ZM316.21875 461.72415L316.21875 466.3179L298.89062 466.3179Q299.17188 463.70853 300.57812 461.3804Q301.98438 459.05228 306.14062 455.20853Q309.48438 452.09915 310.23438 450.98978Q311.25 449.45853 311.25 447.95853Q311.25 446.3179 310.35938 445.42728Q309.48438 444.53665 307.92188 444.53665Q306.375 444.53665 305.45312 445.47415Q304.54688 446.39603 304.40625 448.5679L299.48438 448.0679Q299.92188 443.98978 302.23438 442.22415Q304.5625 440.4429 308.03125 440.4429Q311.85938 440.4429 314.03125 442.5054Q316.21875 444.55228 316.21875 447.61478Q316.21875 449.34915 315.59375 450.92728Q314.96875 452.5054 313.60938 454.22415Q312.71875 455.36478 310.375 457.52103Q308.03125 459.66165 307.40625 460.36478Q306.79688 461.0679 306.40625 461.72415L316.21875 461.72415Z" fill-rule="nonzero"/><path stroke="#ffffff" stroke-width="3.0" stroke-linejoin="round" stroke-linecap="round" d="M570.58887 171.92256L570.58887 176.51631L553.26074 176.51631Q553.542 173.90694 554.94824 171.57881Q556.3545 169.25069 560.51074 165.40694Q563.8545 162.29756 564.6045 161.18819Q565.6201 159.65694 565.6201 158.15694Q565.6201 156.51631 564.7295 155.62569Q563.8545 154.73506 562.292 154.73506Q560.7451 154.73506 559.82324 155.67256Q558.917 156.59444 558.77637 158.76631L553.8545 158.26631Q554.292 154.18819 556.6045 152.42256Q558.9326 150.64131 562.40137 150.64131Q566.2295 150.64131 568.40137 152.70381Q570.58887 154.75069 570.58887 157.81319Q570.58887 159.54756 569.96387 161.12569Q569.33887 162.70381 567.9795 164.42256Q567.08887 165.56319 564.7451 167.71944Q562.40137 169.86006 561.77637 170.56319Q561.167 171.26631 560.77637 171.92256L570.58887 171.92256ZM590.58887 171.92256L590.58887 176.51631L573.26074 176.51631Q573.542 173.90694 574.94824 171.57881Q576.3545 169.25069 580.51074 165.40694Q583.8545 162.29756 584.6045 161.18819Q585.6201 159.65694 585.6201 158.15694Q585.6201 156.51631 584.7295 155.62569Q583.8545 154.73506 582.292 154.73506Q580.7451 154.73506 579.82324 155.67256Q578.917 156.59444 578.77637 158.76631L573.8545 158.26631Q574.292 154.18819 576.6045 152.42256Q578.9326 150.64131 582.40137 150.64131Q586.2295 150.64131 588.40137 152.70381Q590.58887 154.75069 590.58887 157.81319Q590.58887 159.54756 589.96387 161.12569Q589.33887 162.70381 587.9795 164.42256Q587.08887 165.56319 584.7451 167.71944Q582.40137 169.86006 581.77637 170.56319Q581.167 171.26631 580.77637 171.92256L590.58887 171.92256ZM593.96387 169.89131L598.88574 169.37569Q599.1045 171.04756 600.13574 172.03194Q601.1826 173.00069 602.52637 173.00069Q604.07324 173.00069 605.15137 171.75069Q606.2295 170.48506 606.2295 167.95381Q606.2295 165.57881 605.15137 164.39131Q604.08887 163.20381 602.38574 163.20381Q600.26074 163.20381 598.57324 165.09444L594.57324 164.51631L597.1045 151.09444L610.167 151.09444L610.167 155.71944L600.83887 155.71944L600.07324 160.09444Q601.7295 159.26631 603.44824 159.26631Q606.7295 159.26631 609.01074 161.65694Q611.3076 164.04756 611.3076 167.86006Q611.3076 171.04756 609.46387 173.54756Q606.94824 176.95381 602.4795 176.95381Q598.917 176.95381 596.667 175.04756Q594.417 173.12569 593.96387 169.89131ZM630.58887 171.92256L630.58887 176.51631L613.26074 176.51631Q613.542 173.90694 614.94824 171.57881Q616.3545 169.25069 620.51074 165.40694Q623.8545 162.29756 624.6045 161.18819Q625.6201 159.65694 625.6201 158.15694Q625.6201 156.51631 624.7295 155.62569Q623.8545 154.73506 622.292 154.73506Q620.7451 154.73506 619.82324 155.67256Q618.917 156.59444 618.77637 158.76631L613.8545 158.26631Q614.292 154.18819 616.6045 152.42256Q618.9326 150.64131 622.40137 150.64131Q626.2295 150.64131 628.40137 152.70381Q630.58887 154.75069 630.58887 157.81319Q630.58887 159.54756 629.96387 161.12569Q629.33887 162.70381 627.9795 164.42256Q627.08887 165.56319 624.7451 167.71944Q622.40137 169.86006 621.77637 170.56319Q621.167 171.26631 620.77637 171.92256L630.58887 171.92256Z" fill-rule="nonzero"/><path fill="#4285f4" d="M570.58887 171.92256L570.58887 176.51631L553.26074 176.51631Q553.542 173.90694 554.94824 171.57881Q556.3545 169.25069 560.51074 165.40694Q563.8545 162.29756 564.6045 161.18819Q565.6201 159.65694 565.6201 158.15694Q565.6201 156.51631 564.7295 155.62569Q563.8545 154.73506 562.292 154.73506Q560.7451 154.73506 559.82324 155.67256Q558.917 156.59444 558.77637 158.76631L553.8545 158.26631Q554.292 154.18819 556.6045 152.42256Q558.9326 150.64131 562.40137 150.64131Q566.2295 150.64131 568.40137 152.70381Q570.58887 154.75069 570.58887 157.81319Q570.58887 159.54756 569.96387 161.12569Q569.33887 162.70381 567.9795 164.42256Q567.08887 165.56319 564.7451 167.71944Q562.40137 169.86006 561.77637 170.56319Q561.167 171.26631 560.77637 171.92256L570.58887 171.92256ZM590.58887 171.92256L590.58887 176.51631L573.26074 176.51631Q573.542 173.90694 574.94824 171.57881Q576.3545 169.25069 580.51074 165.40694Q583.8545 162.29756 584.6045 161.18819Q585.6201 159.65694 585.6201 158.15694Q585.6201 156.51631 584.7295 155.62569Q583.8545 154.73506 582.292 154.73506Q580.7451 154.73506 579.82324 155.67256Q578.917 156.59444 578.77637 158.76631L573.8545 158.26631Q574.292 154.18819 576.6045 152.42256Q578.9326 150.64131 582.40137 150.64131Q586.2295 150.64131 588.40137 152.70381Q590.58887 154.75069 590.58887 157.81319Q590.58887 159.54756 589.96387 161.12569Q589.33887 162.70381 587.9795 164.42256Q587.08887 165.56319 584.7451 167.71944Q582.40137 169.86006 581.77637 170.56319Q581.167 171.26631 580.77637 171.92256L590.58887 171.92256ZM593.96387 169.89131L598.88574 169.37569Q599.1045 171.04756 600.13574 172.03194Q601.1826 173.00069 602.52637 173.00069Q604.07324 173.00069 605.15137 171.75069Q606.2295 170.48506 606.2295 167.95381Q606.2295 165.57881 605.15137 164.39131Q604.08887 163.20381 602.38574 163.20381Q600.26074 163.20381 598.57324 165.09444L594.57324 164.51631L597.1045 151.09444L610.167 151.09444L610.167 155.71944L600.83887 155.71944L600.07324 160.09444Q601.7295 159.26631 603.44824 159.26631Q606.7295 159.26631 609.01074 161.65694Q611.3076 164.04756 611.3076 167.86006Q611.3076 171.04756 609.46387 173.54756Q606.94824 176.95381 602.4795 176.95381Q598.917 176.95381 596.667 175.04756Q594.417 173.12569 593.96387 169.89131ZM630.58887 171.92256L630.58887 176.51631L613.26074 176.51631Q613.542 173.90694 614.94824 171.57881Q616.3545 169.25069 620.51074 165.40694Q623.8545 162.29756 624.6045 161.18819Q625.6201 159.65694 625.6201 158.15694Q625.6201 156.51631 624.7295 155.62569Q623.8545 154.73506 622.292 154.73506Q620.7451 154.73506 619.82324 155.67256Q618.917 156.59444 618.77637 158.76631L613.8545 158.26631Q614.292 154.18819 616.6045 152.42256Q618.9326 150.64131 622.40137 150.64131Q626.2295 150.64131 628.40137 152.70381Q630.58887 154.75069 630.58887 157.81319Q630.58887 159.54756 629.96387 161.12569Q629.33887 162.70381 627.9795 164.42256Q627.08887 165.56319 624.7451 167.71944Q622.40137 169.86006 621.77637 170.56319Q621.167 171.26631 620.77637 171.92256L630.58887 171.92256Z" fill-rule="nonzero"/><path stroke="#ffffff" stroke-width="3.0" stroke-linejoin="round" stroke-linecap="round" d="M669.3965 178.2271L669.3965 182.82085L652.06836 182.82085Q652.3496 180.21147 653.75586 177.88335Q655.1621 175.55522 659.31836 171.71147Q662.6621 168.6021 663.4121 167.49272Q664.42773 165.96147 664.42773 164.46147Q664.42773 162.82085 663.5371 161.93022Q662.6621 161.0396 661.0996 161.0396Q659.55273 161.0396 658.63086 161.9771Q657.7246 162.89897 657.584 165.07085L652.6621 164.57085Q653.0996 160.49272 655.4121 158.7271Q657.74023 156.94585 661.209 156.94585Q665.0371 156.94585 667.209 159.00835Q669.3965 161.05522 669.3965 164.11772Q669.3965 165.8521 668.7715 167.43022Q668.1465 169.00835 666.7871 170.7271Q665.8965 171.86772 663.55273 174.02397Q661.209 176.1646 660.584 176.86772Q659.9746 177.57085 659.584 178.2271L669.3965 178.2271ZM673.6465 177.88335L678.584 177.88335L678.584 181.4146Q678.584 183.55522 678.209 184.7896Q677.834 186.0396 676.80273 187.02397Q675.7871 188.00835 674.209 188.57085L673.24023 186.52397Q674.7246 186.0396 675.3496 185.18022Q675.99023 184.32085 676.0371 182.82085L673.6465 182.82085L673.6465 177.88335ZM699.3965 178.2271L699.3965 182.82085L682.06836 182.82085Q682.3496 180.21147 683.75586 177.88335Q685.1621 175.55522 689.31836 171.71147Q692.6621 168.6021 693.4121 167.49272Q694.42773 165.96147 694.42773 164.46147Q694.42773 162.82085 693.5371 161.93022Q692.6621 161.0396 691.0996 161.0396Q689.55273 161.0396 688.63086 161.9771Q687.7246 162.89897 687.584 165.07085L682.6621 164.57085Q683.0996 160.49272 685.4121 158.7271Q687.74023 156.94585 691.209 156.94585Q695.0371 156.94585 697.209 159.00835Q699.3965 161.05522 699.3965 164.11772Q699.3965 165.8521 698.7715 167.43022Q698.1465 169.00835 696.7871 170.7271Q695.8965 171.86772 693.55273 174.02397Q691.209 176.1646 690.584 176.86772Q689.9746 177.57085 689.584 178.2271L699.3965 178.2271ZM711.05273 156.94585Q714.80273 156.94585 716.9121 159.61772Q719.42773 162.77397 719.42773 170.11772Q719.42773 177.43022 716.8965 180.61772Q714.80273 183.25835 711.05273 183.25835Q707.30273 183.25835 704.99023 180.36772Q702.69336 177.4771 702.69336 170.05522Q702.69336 162.77397 705.2246 159.58647Q707.31836 156.94585 711.05273 156.94585ZM711.05273 161.0396Q710.1621 161.0396 709.459 161.61772Q708.75586 162.18022 708.36523 163.6646Q707.86523 165.57085 707.86523 170.11772Q707.86523 174.64897 708.31836 176.3521Q708.7715 178.0396 709.459 178.6021Q710.1621 179.1646 711.05273 179.1646Q711.959 179.1646 712.6621 178.6021Q713.36523 178.02397 713.74023 176.5396Q714.25586 174.64897 714.25586 170.11772Q714.25586 165.57085 713.80273 163.88335Q713.3496 162.18022 712.6465 161.61772Q711.959 161.0396 711.05273 161.0396ZM731.05273 156.94585Q734.80273 156.94585 736.9121 159.61772Q739.42773 162.77397 739.42773 170.11772Q739.42773 177.43022 736.8965 180.61772Q734.80273 183.25835 731.05273 183.25835Q727.30273 183.25835 724.99023 180.36772Q722.69336 177.4771 722.69336 170.05522Q722.69336 162.77397 725.2246 159.58647Q727.31836 156.94585 731.05273 156.94585ZM731.05273 161.0396Q730.1621 161.0396 729.459 161.61772Q728.75586 162.18022 728.36523 163.6646Q727.86523 165.57085 727.86523 170.11772Q727.86523 174.64897 728.31836 176.3521Q728.7715 178.0396 729.459 178.6021Q730.1621 179.1646 731.05273 179.1646Q731.959 179.1646 732.6621 178.6021Q733.36523 178.02397 733.74023 176.5396Q734.25586 174.64897 734.25586 170.11772Q734.25586 165.57085 733.80273 163.88335Q733.3496 162.18022 732.6465 161.61772Q731.959 161.0396 731.05273 161.0396Z" fill-rule="nonzero"/><path fill="#4285f4" d="M669.3965 178.2271L669.3965 182.82085L652.06836 182.82085Q652.3496 180.21147 653.75586 177.88335Q655.1621 175.55522 659.31836 171.71147Q662.6621 168.6021 663.4121 167.49272Q664.42773 165.96147 664.42773 164.46147Q664.42773 162.82085 663.5371 161.93022Q662.6621 161.0396 661.0996 161.0396Q659.55273 161.0396 658.63086 161.9771Q657.7246 162.89897 657.584 165.07085L652.6621 164.57085Q653.0996 160.49272 655.4121 158.7271Q657.74023 156.94585 661.209 156.94585Q665.0371 156.94585 667.209 159.00835Q669.3965 161.05522 669.3965 164.11772Q669.3965 165.8521 668.7715 167.43022Q668.1465 169.00835 666.7871 170.7271Q665.8965 171.86772 663.55273 174.02397Q661.209 176.1646 660.584 176.86772Q659.9746 177.57085 659.584 178.2271L669.3965 178.2271ZM673.6465 177.88335L678.584 177.88335L678.584 181.4146Q678.584 183.55522 678.209 184.7896Q677.834 186.0396 676.80273 187.02397Q675.7871 188.00835 674.209 188.57085L673.24023 186.52397Q674.7246 186.0396 675.3496 185.18022Q675.99023 184.32085 676.0371 182.82085L673.6465 182.82085L673.6465 177.88335ZM699.3965 178.2271L699.3965 182.82085L682.06836 182.82085Q682.3496 180.21147 683.75586 177.88335Q685.1621 175.55522 689.31836 171.71147Q692.6621 168.6021 693.4121 167.49272Q694.42773 165.96147 694.42773 164.46147Q694.42773 162.82085 693.5371 161.93022Q692.6621 161.0396 691.0996 161.0396Q689.55273 161.0396 688.63086 161.9771Q687.7246 162.89897 687.584 165.07085L682.6621 164.57085Q683.0996 160.49272 685.4121 158.7271Q687.74023 156.94585 691.209 156.94585Q695.0371 156.94585 697.209 159.00835Q699.3965 161.05522 699.3965 164.11772Q699.3965 165.8521 698.7715 167.43022Q698.1465 169.00835 696.7871 170.7271Q695.8965 171.86772 693.55273 174.02397Q691.209 176.1646 690.584 176.86772Q689.9746 177.57085 689.584 178.2271L699.3965 178.2271ZM711.05273 156.94585Q714.80273 156.94585 716.9121 159.61772Q719.42773 162.77397 719.42773 170.11772Q719.42773 177.43022 716.8965 180.61772Q714.80273 183.25835 711.05273 183.25835Q707.30273 183.25835 704.99023 180.36772Q702.69336 177.4771 702.69336 170.05522Q702.69336 162.77397 705.2246 159.58647Q707.31836 156.94585 711.05273 156.94585ZM711.05273 161.0396Q710.1621 161.0396 709.459 161.61772Q708.75586 162.18022 708.36523 163.6646Q707.86523 165.57085 707.86523 170.11772Q707.86523 174.64897 708.31836 176.3521Q708.7715 178.0396 709.459 178.6021Q710.1621 179.1646 711.05273 179.1646Q711.959 179.1646 712.6621 178.6021Q713.36523 178.02397 713.74023 176.5396Q714.25586 174.64897 714.25586 170.11772Q714.25586 165.57085 713.80273 163.88335Q713.3496 162.18022 712.6465 161.61772Q711.959 161.0396 711.05273 161.0396ZM731.05273 156.94585Q734.80273 156.94585 736.9121 159.61772Q739.42773 162.77397 739.42773 170.11772Q739.42773 177.43022 736.8965 180.61772Q734.80273 183.25835 731.05273 183.25835Q727.30273 183.25835 724.99023 180.36772Q722.69336 177.4771 722.69336 170.05522Q722.69336 162.77397 725.2246 159.58647Q727.31836 156.94585 731.05273 156.94585ZM731.05273 161.0396Q730.1621 161.0396 729.459 161.61772Q728.75586 162.18022 728.36523 163.6646Q727.86523 165.57085 727.86523 170.11772Q727.86523 174.64897 728.31836 176.3521Q728.7715 178.0396 729.459 178.6021Q730.1621 179.1646 731.05273 179.1646Q731.959 179.1646 732.6621 178.6021Q733.36523 178.02397 733.74023 176.5396Q734.25586 174.64897 734.25586 170.11772Q734.25586 165.57085 733.80273 163.88335Q733.3496 162.18022 732.6465 161.61772Q731.959 161.0396 731.05273 161.0396Z" fill-rule="nonzero"/><path stroke="#ffffff" stroke-width="3.0" stroke-linejoin="round" stroke-linecap="round" d="M361.59375 405.36856L366.51562 404.85294Q366.73438 406.5248 367.76562 407.5092Q368.8125 408.47794 370.15625 408.47794Q371.70312 408.47794 372.78125 407.22794Q373.85938 405.9623 373.85938 403.43106Q373.85938 401.05606 372.78125 399.86856Q371.71875 398.68106 370.01562 398.68106Q367.89062 398.68106 366.20312 400.5717L362.20312 399.99356L364.73438 386.5717L377.79688 386.5717L377.79688 391.1967L368.46875 391.1967L367.70312 395.5717Q369.35938 394.74356 371.07812 394.74356Q374.35938 394.74356 376.64062 397.1342Q378.9375 399.5248 378.9375 403.3373Q378.9375 406.5248 377.09375 409.0248Q374.57812 412.43106 370.10938 412.43106Q366.54688 412.43106 364.29688 410.5248Q362.04688 408.60294 361.59375 405.36856ZM398.26562 392.54044L393.48438 393.05606Q393.3125 391.5873 392.5625 390.8842Q391.82812 390.18106 390.65625 390.18106Q389.09375 390.18106 388.0 391.5873Q386.92188 392.99356 386.64062 397.43106Q388.48438 395.2592 391.23438 395.2592Q394.32812 395.2592 396.53125 397.61856Q398.73438 399.9623 398.73438 403.6967Q398.73438 407.6498 396.40625 410.04044Q394.09375 412.43106 390.45312 412.43106Q386.5625 412.43106 384.04688 409.3998Q381.53125 406.36856 381.53125 399.4623Q381.53125 392.36856 384.14062 389.24356Q386.76562 386.11856 390.95312 386.11856Q393.89062 386.11856 395.8125 387.7592Q397.73438 389.3998 398.26562 392.54044ZM387.0625 403.30606Q387.0625 405.7123 388.17188 407.0248Q389.28125 408.3373 390.70312 408.3373Q392.07812 408.3373 392.98438 407.2748Q393.90625 406.1967 393.90625 403.74356Q393.90625 401.22794 392.92188 400.0717Q391.9375 398.8998 390.45312 398.8998Q389.03125 398.8998 388.04688 400.0248Q387.0625 401.1342 387.0625 403.30606ZM401.64062 406.04044L406.42188 405.5092Q406.59375 406.9623 407.32812 407.66544Q408.0625 408.36856 409.28125 408.36856Q410.8125 408.36856 411.875 406.9623Q412.95312 405.55606 413.25 401.1342Q411.39062 403.29044 408.59375 403.29044Q405.5625 403.29044 403.34375 400.9467Q401.14062 398.60294 401.14062 394.8373Q401.14062 390.91544 403.46875 388.5248Q405.79688 386.11856 409.40625 386.11856Q413.32812 386.11856 415.84375 389.1498Q418.35938 392.18106 418.35938 399.11856Q418.35938 406.1967 415.73438 409.3217Q413.10938 412.4467 408.90625 412.4467Q405.89062 412.4467 404.01562 410.8373Q402.15625 409.22794 401.64062 406.04044ZM412.8125 395.24356Q412.8125 392.85294 411.71875 391.54044Q410.625 390.2123 409.17188 390.2123Q407.8125 390.2123 406.90625 391.29044Q406.0 392.36856 406.0 394.8373Q406.0 397.3373 406.98438 398.5092Q407.96875 399.66544 409.4375 399.66544Q410.85938 399.66544 411.82812 398.54044Q412.8125 397.41544 412.8125 395.24356Z" fill-rule="nonzero"/><path fill="#4285f4" d="M361.59375 405.36856L366.51562 404.85294Q366.73438 406.5248 367.76562 407.5092Q368.8125 408.47794 370.15625 408.47794Q371.70312 408.47794 372.78125 407.22794Q373.85938 405.9623 373.85938 403.43106Q373.85938 401.05606 372.78125 399.86856Q371.71875 398.68106 370.01562 398.68106Q367.89062 398.68106 366.20312 400.5717L362.20312 399.99356L364.73438 386.5717L377.79688 386.5717L377.79688 391.1967L368.46875 391.1967L367.70312 395.5717Q369.35938 394.74356 371.07812 394.74356Q374.35938 394.74356 376.64062 397.1342Q378.9375 399.5248 378.9375 403.3373Q378.9375 406.5248 377.09375 409.0248Q374.57812 412.43106 370.10938 412.43106Q366.54688 412.43106 364.29688 410.5248Q362.04688 408.60294 361.59375 405.36856ZM398.26562 392.54044L393.48438 393.05606Q393.3125 391.5873 392.5625 390.8842Q391.82812 390.18106 390.65625 390.18106Q389.09375 390.18106 388.0 391.5873Q386.92188 392.99356 386.64062 397.43106Q388.48438 395.2592 391.23438 395.2592Q394.32812 395.2592 396.53125 397.61856Q398.73438 399.9623 398.73438 403.6967Q398.73438 407.6498 396.40625 410.04044Q394.09375 412.43106 390.45312 412.43106Q386.5625 412.43106 384.04688 409.3998Q381.53125 406.36856 381.53125 399.4623Q381.53125 392.36856 384.14062 389.24356Q386.76562 386.11856 390.95312 386.11856Q393.89062 386.11856 395.8125 387.7592Q397.73438 389.3998 398.26562 392.54044ZM387.0625 403.30606Q387.0625 405.7123 388.17188 407.0248Q389.28125 408.3373 390.70312 408.3373Q392.07812 408.3373 392.98438 407.2748Q393.90625 406.1967 393.90625 403.74356Q393.90625 401.22794 392.92188 400.0717Q391.9375 398.8998 390.45312 398.8998Q389.03125 398.8998 388.04688 400.0248Q387.0625 401.1342 387.0625 403.30606ZM401.64062 406.04044L406.42188 405.5092Q406.59375 406.9623 407.32812 407.66544Q408.0625 408.36856 409.28125 408.36856Q410.8125 408.36856 411.875 406.9623Q412.95312 405.55606 413.25 401.1342Q411.39062 403.29044 408.59375 403.29044Q405.5625 403.29044 403.34375 400.9467Q401.14062 398.60294 401.14062 394.8373Q401.14062 390.91544 403.46875 388.5248Q405.79688 386.11856 409.40625 386.11856Q413.32812 386.11856 415.84375 389.1498Q418.35938 392.18106 418.35938 399.11856Q418.35938 406.1967 415.73438 409.3217Q413.10938 412.4467 408.90625 412.4467Q405.89062 412.4467 404.01562 410.8373Q402.15625 409.22794 401.64062 406.04044ZM412.8125 395.24356Q412.8125 392.85294 411.71875 391.54044Q410.625 390.2123 409.17188 390.2123Q407.8125 390.2123 406.90625 391.29044Q406.0 392.36856 406.0 394.8373Q406.0 397.3373 406.98438 398.5092Q407.96875 399.66544 409.4375 399.66544Q410.85938 399.66544 411.82812 398.54044Q412.8125 397.41544 412.8125 395.24356Z" fill-rule="nonzero"/><path stroke="#ffffff" stroke-width="3.0" stroke-linejoin="round" stroke-linecap="round" d="M466.17188 276.5857L461.23438 276.5857L461.23438 257.97632Q458.51562 260.50757 454.84375 261.7107L454.84375 257.22632Q456.78125 256.60132 459.04688 254.8357Q461.3125 253.07007 462.15625 250.7107L466.17188 250.7107L466.17188 276.5857ZM483.21875 276.5857L483.21875 271.3982L472.67188 271.3982L472.67188 267.07007L483.84375 250.7107L488.0 250.7107L488.0 267.05444L491.20312 267.05444L491.20312 271.3982L488.0 271.3982L488.0 276.5857L483.21875 276.5857ZM483.21875 267.05444L483.21875 258.25757L477.29688 267.05444L483.21875 267.05444ZM501.875 250.7107Q505.625 250.7107 507.73438 253.38257Q510.25 256.53882 510.25 263.88257Q510.25 271.19507 507.71875 274.38257Q505.625 277.0232 501.875 277.0232Q498.125 277.0232 495.8125 274.13257Q493.51562 271.24194 493.51562 263.82007Q493.51562 256.53882 496.04688 253.35132Q498.14062 250.7107 501.875 250.7107ZM501.875 254.80444Q500.98438 254.80444 500.28125 255.38257Q499.57812 255.94507 499.1875 257.42944Q498.6875 259.3357 498.6875 263.88257Q498.6875 268.41382 499.14062 270.11694Q499.59375 271.80444 500.28125 272.36694Q500.98438 272.92944 501.875 272.92944Q502.78125 272.92944 503.48438 272.36694Q504.1875 271.78882 504.5625 270.30444Q505.07812 268.41382 505.07812 263.88257Q505.07812 259.3357 504.625 257.6482Q504.17188 255.94507 503.46875 255.38257Q502.78125 254.80444 501.875 254.80444ZM513.6406 270.63257L518.4219 270.10132Q518.59375 271.55444 519.3281 272.25757Q520.0625 272.9607 521.28125 272.9607Q522.8125 272.9607 523.875 271.55444Q524.9531 270.1482 525.25 265.72632Q523.3906 267.88257 520.59375 267.88257Q517.5625 267.88257 515.34375 265.53882Q513.1406 263.19507 513.1406 259.42944Q513.1406 255.50757 515.46875 253.11694Q517.7969 250.7107 521.40625 250.7107Q525.3281 250.7107 527.84375 253.74194Q530.3594 256.7732 530.3594 263.7107Q530.3594 270.78882 527.7344 273.91382Q525.1094 277.03882 520.90625 277.03882Q517.8906 277.03882 516.0156 275.42944Q514.15625 273.82007 513.6406 270.63257ZM524.8125 259.8357Q524.8125 257.44507 523.71875 256.13257Q522.625 254.80444 521.1719 254.80444Q519.8125 254.80444 518.90625 255.88257Q518.0 256.9607 518.0 259.42944Q518.0 261.92944 518.9844 263.10132Q519.96875 264.25757 521.4375 264.25757Q522.8594 264.25757 523.8281 263.13257Q524.8125 262.00757 524.8125 259.8357Z" fill-rule="nonzero"/><path fill="#4285f4" d="M466.17188 276.5857L461.23438 276.5857L461.23438 257.97632Q458.51562 260.50757 454.84375 261.7107L454.84375 257.22632Q456.78125 256.60132 459.04688 254.8357Q461.3125 253.07007 462.15625 250.7107L466.17188 250.7107L466.17188 276.5857ZM483.21875 276.5857L483.21875 271.3982L472.67188 271.3982L472.67188 267.07007L483.84375 250.7107L488.0 250.7107L488.0 267.05444L491.20312 267.05444L491.20312 271.3982L488.0 271.3982L488.0 276.5857L483.21875 276.5857ZM483.21875 267.05444L483.21875 258.25757L477.29688 267.05444L483.21875 267.05444ZM501.875 250.7107Q505.625 250.7107 507.73438 253.38257Q510.25 256.53882 510.25 263.88257Q510.25 271.19507 507.71875 274.38257Q505.625 277.0232 501.875 277.0232Q498.125 277.0232 495.8125 274.13257Q493.51562 271.24194 493.51562 263.82007Q493.51562 256.53882 496.04688 253.35132Q498.14062 250.7107 501.875 250.7107ZM501.875 254.80444Q500.98438 254.80444 500.28125 255.38257Q499.57812 255.94507 499.1875 257.42944Q498.6875 259.3357 498.6875 263.88257Q498.6875 268.41382 499.14062 270.11694Q499.59375 271.80444 500.28125 272.36694Q500.98438 272.92944 501.875 272.92944Q502.78125 272.92944 503.48438 272.36694Q504.1875 271.78882 504.5625 270.30444Q505.07812 268.41382 505.07812 263.88257Q505.07812 259.3357 504.625 257.6482Q504.17188 255.94507 503.46875 255.38257Q502.78125 254.80444 501.875 254.80444ZM513.6406 270.63257L518.4219 270.10132Q518.59375 271.55444 519.3281 272.25757Q520.0625 272.9607 521.28125 272.9607Q522.8125 272.9607 523.875 271.55444Q524.9531 270.1482 525.25 265.72632Q523.3906 267.88257 520.59375 267.88257Q517.5625 267.88257 515.34375 265.53882Q513.1406 263.19507 513.1406 259.42944Q513.1406 255.50757 515.46875 253.11694Q517.7969 250.7107 521.40625 250.7107Q525.3281 250.7107 527.84375 253.74194Q530.3594 256.7732 530.3594 263.7107Q530.3594 270.78882 527.7344 273.91382Q525.1094 277.03882 520.90625 277.03882Q517.8906 277.03882 516.0156 275.42944Q514.15625 273.82007 513.6406 270.63257ZM524.8125 259.8357Q524.8125 257.44507 523.71875 256.13257Q522.625 254.80444 521.1719 254.80444Q519.8125 254.80444 518.90625 255.88257Q518.0 256.9607 518.0 259.42944Q518.0 261.92944 518.9844 263.10132Q519.96875 264.25757 521.4375 264.25757Q522.8594 264.25757 523.8281 263.13257Q524.8125 262.00757 524.8125 259.8357Z" fill-rule="nonzero"/><path fill="#000000" d="M93.18437 536.65375Q96.30937 536.65375 98.05937 538.8725Q100.15312 541.5131 100.15312 547.6225Q100.15312 553.71625 98.04375 556.3881Q96.30937 558.5756 93.18437 558.5756Q90.04375 558.5756 88.12187 556.1694Q86.21562 553.7631 86.21562 547.5756Q86.21562 541.5131 88.325 538.8569Q90.05937 536.65375 93.18437 536.65375ZM93.18437 540.06Q92.43437 540.06 91.84062 540.5444Q91.2625 541.0131 90.93437 542.2475Q90.5125 543.84125 90.5125 547.6225Q90.5125 551.40375 90.8875 552.8256Q91.27812 554.2319 91.85625 554.7006Q92.43437 555.1694 93.18437 555.1694Q93.93437 555.1694 94.5125 554.7006Q95.10625 554.21625 95.41875 552.9819Q95.85625 551.40375 95.85625 547.6225Q95.85625 543.84125 95.46562 542.435Q95.09062 541.0131 94.5125 540.5444Q93.93437 540.06 93.18437 540.06Z" fill-rule="nonzero"/><path fill="#000000" d="M52.278126 472.1007L56.3875 471.6632Q56.559376 473.05383 57.41875 473.86633Q58.29375 474.67883 59.41875 474.67883Q60.7 474.67883 61.590626 473.63196Q62.496876 472.58508 62.496876 470.4757Q62.496876 468.50696 61.60625 467.52258Q60.715626 466.52258 59.29375 466.52258Q57.528126 466.52258 56.121876 468.1007L52.778126 467.61633L54.8875 456.42883L65.77812 456.42883L65.77812 460.2882L58.0125 460.2882L57.371876 463.92883Q58.746876 463.24133 60.184376 463.24133Q62.91875 463.24133 64.825 465.24133Q66.73125 467.2257 66.73125 470.4132Q66.73125 473.05383 65.18437 475.14758Q63.090626 477.9757 59.371876 477.9757Q56.403126 477.9757 54.528126 476.38196Q52.653126 474.7882 52.278126 472.1007ZM76.18437 456.05383Q79.30937 456.05383 81.05937 458.27258Q83.15312 460.9132 83.15312 467.02258Q83.15312 473.11633 81.04375 475.7882Q79.30937 477.9757 76.18437 477.9757Q73.04375 477.9757 71.12187 475.56946Q69.21562 473.1632 69.21562 466.9757Q69.21562 460.9132 71.325 458.25696Q73.05937 456.05383 76.18437 456.05383ZM76.18437 459.46008Q75.43437 459.46008 74.84062 459.94446Q74.2625 460.4132 73.93437 461.64758Q73.5125 463.24133 73.5125 467.02258Q73.5125 470.80383 73.8875 472.2257Q74.27812 473.63196 74.85625 474.1007Q75.43437 474.56946 76.18437 474.56946Q76.93437 474.56946 77.5125 474.1007Q78.10625 473.61633 78.41875 472.38196Q78.85625 470.80383 78.85625 467.02258Q78.85625 463.24133 78.46562 461.83508Q78.09062 460.4132 77.5125 459.94446Q76.93437 459.46008 76.18437 459.46008ZM93.18437 456.05383Q96.30937 456.05383 98.05937 458.27258Q100.15312 460.9132 100.15312 467.02258Q100.15312 473.11633 98.04375 475.7882Q96.30937 477.9757 93.18437 477.9757Q90.04375 477.9757 88.12187 475.56946Q86.21562 473.1632 86.21562 466.9757Q86.21562 460.9132 88.325 458.25696Q90.05937 456.05383 93.18437 456.05383ZM93.18437 459.46008Q92.43437 459.46008 91.84062 459.94446Q91.2625 460.4132 90.93437 461.64758Q90.5125 463.24133 90.5125 467.02258Q90.5125 470.80383 90.8875 472.2257Q91.27812 473.63196 91.85625 474.1007Q92.43437 474.56946 93.18437 474.56946Q93.93437 474.56946 94.5125 474.1007Q95.10625 473.61633 95.41875 472.38196Q95.85625 470.80383 95.85625 467.02258Q95.85625 463.24133 95.46562 461.83508Q95.09062 460.4132 94.5125 459.94446Q93.93437 459.46008 93.18437 459.46008Z" fill-rule="nonzero"/><path fill="#000000" d="M45.7625 397.01642L41.6375 397.01642L41.6375 381.5008Q39.3875 383.61017 36.325 384.6258L36.325 380.89142Q37.934376 380.36017 39.825 378.89142Q41.715626 377.42267 42.41875 375.45392L45.7625 375.45392L45.7625 397.01642ZM59.184376 375.45392Q62.309376 375.45392 64.05937 377.67267Q66.15312 380.3133 66.15312 386.42267Q66.15312 392.51642 64.04375 395.1883Q62.309376 397.3758 59.184376 397.3758Q56.04375 397.3758 54.121876 394.96954Q52.215626 392.5633 52.215626 386.3758Q52.215626 380.3133 54.325 377.65704Q56.059376 375.45392 59.184376 375.45392ZM59.184376 378.86017Q58.434376 378.86017 57.840626 379.34454Q57.2625 379.8133 56.934376 381.04767Q56.5125 382.64142 56.5125 386.42267Q56.5125 390.20392 56.8875 391.6258Q57.278126 393.03204 57.85625 393.5008Q58.434376 393.96954 59.184376 393.96954Q59.934376 393.96954 60.5125 393.5008Q61.10625 393.01642 61.41875 391.78204Q61.85625 390.20392 61.85625 386.42267Q61.85625 382.64142 61.465626 381.23517Q61.090626 379.8133 60.5125 379.34454Q59.934376 378.86017 59.184376 378.86017ZM76.18437 375.45392Q79.30937 375.45392 81.05937 377.67267Q83.15312 380.3133 83.15312 386.42267Q83.15312 392.51642 81.04375 395.1883Q79.30937 397.3758 76.18437 397.3758Q73.04375 397.3758 71.12187 394.96954Q69.21562 392.5633 69.21562 386.3758Q69.21562 380.3133 71.325 377.65704Q73.05937 375.45392 76.18437 375.45392ZM76.18437 378.86017Q75.43437 378.86017 74.84062 379.34454Q74.2625 379.8133 73.93437 381.04767Q73.5125 382.64142 73.5125 386.42267Q73.5125 390.20392 73.8875 391.6258Q74.27812 393.03204 74.85625 393.5008Q75.43437 393.96954 76.18437 393.96954Q76.93437 393.96954 77.5125 393.5008Q78.10625 393.01642 78.41875 391.78204Q78.85625 390.20392 78.85625 386.42267Q78.85625 382.64142 78.46562 381.23517Q78.09062 379.8133 77.5125 379.34454Q76.93437 378.86017 76.18437 378.86017ZM93.18437 375.45392Q96.30937 375.45392 98.05937 377.67267Q100.15312 380.3133 100.15312 386.42267Q100.15312 392.51642 98.04375 395.1883Q96.30937 397.3758 93.18437 397.3758Q90.04375 397.3758 88.12187 394.96954Q86.21562 392.5633 86.21562 386.3758Q86.21562 380.3133 88.325 377.65704Q90.05937 375.45392 93.18437 375.45392ZM93.18437 378.86017Q92.43437 378.86017 91.84062 379.34454Q91.2625 379.8133 90.93437 381.04767Q90.5125 382.64142 90.5125 386.42267Q90.5125 390.20392 90.8875 391.6258Q91.27812 393.03204 91.85625 393.5008Q92.43437 393.96954 93.18437 393.96954Q93.93437 393.96954 94.5125 393.5008Q95.10625 393.01642 95.41875 391.78204Q95.85625 390.20392 95.85625 386.42267Q95.85625 382.64142 95.46562 381.23517Q95.09062 379.8133 94.5125 379.34454Q93.93437 378.86017 93.18437 378.86017Z" fill-rule="nonzero"/><path fill="#000000" d="M45.7625 316.4165L41.6375 316.4165L41.6375 300.90088Q39.3875 303.01025 36.325 304.02588L36.325 300.2915Q37.934376 299.76025 39.825 298.2915Q41.715626 296.82275 42.41875 294.854L45.7625 294.854L45.7625 316.4165ZM52.278126 310.90088L56.3875 310.46338Q56.559376 311.854 57.41875 312.6665Q58.29375 313.479 59.41875 313.479Q60.7 313.479 61.590626 312.43213Q62.496876 311.38525 62.496876 309.27588Q62.496876 307.30713 61.60625 306.32275Q60.715626 305.32275 59.29375 305.32275Q57.528126 305.32275 56.121876 306.90088L52.778126 306.4165L54.8875 295.229L65.77812 295.229L65.77812 299.08838L58.0125 299.08838L57.371876 302.729Q58.746876 302.0415 60.184376 302.0415Q62.91875 302.0415 64.825 304.0415Q66.73125 306.02588 66.73125 309.21338Q66.73125 311.854 65.18437 313.94775Q63.090626 316.77588 59.371876 316.77588Q56.403126 316.77588 54.528126 315.18213Q52.653126 313.58838 52.278126 310.90088ZM76.18437 294.854Q79.30937 294.854 81.05937 297.07275Q83.15312 299.71338 83.15312 305.82275Q83.15312 311.9165 81.04375 314.58838Q79.30937 316.77588 76.18437 316.77588Q73.04375 316.77588 71.12187 314.36963Q69.21562 311.96338 69.21562 305.77588Q69.21562 299.71338 71.325 297.05713Q73.05937 294.854 76.18437 294.854ZM76.18437 298.26025Q75.43437 298.26025 74.84062 298.74463Q74.2625 299.21338 73.93437 300.44775Q73.5125 302.0415 73.5125 305.82275Q73.5125 309.604 73.8875 311.02588Q74.27812 312.43213 74.85625 312.90088Q75.43437 313.36963 76.18437 313.36963Q76.93437 313.36963 77.5125 312.90088Q78.10625 312.4165 78.41875 311.18213Q78.85625 309.604 78.85625 305.82275Q78.85625 302.0415 78.46562 300.63525Q78.09062 299.21338 77.5125 298.74463Q76.93437 298.26025 76.18437 298.26025ZM93.18437 294.854Q96.30937 294.854 98.05937 297.07275Q100.15312 299.71338 100.15312 305.82275Q100.15312 311.9165 98.04375 314.58838Q96.30937 316.77588 93.18437 316.77588Q90.04375 316.77588 88.12187 314.36963Q86.21562 311.96338 86.21562 305.77588Q86.21562 299.71338 88.325 297.05713Q90.05937 294.854 93.18437 294.854ZM93.18437 298.26025Q92.43437 298.26025 91.84062 298.74463Q91.2625 299.21338 90.93437 300.44775Q90.5125 302.0415 90.5125 305.82275Q90.5125 309.604 90.8875 311.02588Q91.27812 312.43213 91.85625 312.90088Q92.43437 313.36963 93.18437 313.36963Q93.93437 313.36963 94.5125 312.90088Q95.10625 312.4165 95.41875 311.18213Q95.85625 309.604 95.85625 305.82275Q95.85625 302.0415 95.46562 300.63525Q95.09062 299.21338 94.5125 298.74463Q93.93437 298.26025 93.18437 298.26025Z" fill-rule="nonzero"/><path fill="#000000" d="M49.121876 231.98846L49.121876 235.81659L34.7 235.81659Q34.934376 233.64471 36.10625 231.70721Q37.278126 229.76971 40.73125 226.55096Q43.5125 223.97284 44.153126 223.03534Q44.996876 221.76971 44.996876 220.51971Q44.996876 219.14471 44.246876 218.41034Q43.5125 217.66034 42.215626 217.66034Q40.91875 217.66034 40.153126 218.44159Q39.403126 219.22284 39.278126 221.01971L35.184376 220.61346Q35.54375 217.20721 37.48125 215.73846Q39.41875 214.25409 42.309376 214.25409Q45.496876 214.25409 47.309376 215.97284Q49.121876 217.67596 49.121876 220.22284Q49.121876 221.67596 48.60625 222.98846Q48.090626 224.30096 46.965626 225.73846Q46.215626 226.69159 44.2625 228.48846Q42.309376 230.26971 41.79375 230.86346Q41.278126 231.44159 40.95 231.98846L49.121876 231.98846ZM59.184376 214.25409Q62.309376 214.25409 64.05937 216.47284Q66.15312 219.11346 66.15312 225.22284Q66.15312 231.31659 64.04375 233.98846Q62.309376 236.17596 59.184376 236.17596Q56.04375 236.17596 54.121876 233.76971Q52.215626 231.36346 52.215626 225.17596Q52.215626 219.11346 54.325 216.45721Q56.059376 214.25409 59.184376 214.25409ZM59.184376 217.66034Q58.434376 217.66034 57.840626 218.14471Q57.2625 218.61346 56.934376 219.84784Q56.5125 221.44159 56.5125 225.22284Q56.5125 229.00409 56.8875 230.42596Q57.278126 231.83221 57.85625 232.30096Q58.434376 232.76971 59.184376 232.76971Q59.934376 232.76971 60.5125 232.30096Q61.10625 231.81659 61.41875 230.58221Q61.85625 229.00409 61.85625 225.22284Q61.85625 221.44159 61.465626 220.03534Q61.090626 218.61346 60.5125 218.14471Q59.934376 217.66034 59.184376 217.66034ZM76.18437 214.25409Q79.30937 214.25409 81.05937 216.47284Q83.15312 219.11346 83.15312 225.22284Q83.15312 231.31659 81.04375 233.98846Q79.30937 236.17596 76.18437 236.17596Q73.04375 236.17596 71.12187 233.76971Q69.21562 231.36346 69.21562 225.17596Q69.21562 219.11346 71.325 216.45721Q73.05937 214.25409 76.18437 214.25409ZM76.18437 217.66034Q75.43437 217.66034 74.84062 218.14471Q74.2625 218.61346 73.93437 219.84784Q73.5125 221.44159 73.5125 225.22284Q73.5125 229.00409 73.8875 230.42596Q74.27812 231.83221 74.85625 232.30096Q75.43437 232.76971 76.18437 232.76971Q76.93437 232.76971 77.5125 232.30096Q78.10625 231.81659 78.41875 230.58221Q78.85625 229.00409 78.85625 225.22284Q78.85625 221.44159 78.46562 220.03534Q78.09062 218.61346 77.5125 218.14471Q76.93437 217.66034 76.18437 217.66034ZM93.18437 214.25409Q96.30937 214.25409 98.05937 216.47284Q100.15312 219.11346 100.15312 225.22284Q100.15312 231.31659 98.04375 233.98846Q96.30937 236.17596 93.18437 236.17596Q90.04375 236.17596 88.12187 233.76971Q86.21562 231.36346 86.21562 225.17596Q86.21562 219.11346 88.325 216.45721Q90.05937 214.25409 93.18437 214.25409ZM93.18437 217.66034Q92.43437 217.66034 91.84062 218.14471Q91.2625 218.61346 90.93437 219.84784Q90.5125 221.44159 90.5125 225.22284Q90.5125 229.00409 90.8875 230.42596Q91.27812 231.83221 91.85625 232.30096Q92.43437 232.76971 93.18437 232.76971Q93.93437 232.76971 94.5125 232.30096Q95.10625 231.81659 95.41875 230.58221Q95.85625 229.00409 95.85625 225.22284Q95.85625 221.44159 95.46562 220.03534Q95.09062 218.61346 94.5125 218.14471Q93.93437 217.66034 93.18437 217.66034Z" fill-rule="nonzero"/><path fill="#000000" d="M49.121876 151.38853L49.121876 155.21666L34.7 155.21666Q34.934376 153.04478 36.10625 151.10728Q37.278126 149.16978 40.73125 145.95103Q43.5125 143.37291 44.153126 142.43541Q44.996876 141.16978 44.996876 139.91978Q44.996876 138.54478 44.246876 137.81041Q43.5125 137.06041 42.215626 137.06041Q40.91875 137.06041 40.153126 137.84166Q39.403126 138.62291 39.278126 140.41978L35.184376 140.01353Q35.54375 136.60728 37.48125 135.13853Q39.41875 133.65416 42.309376 133.65416Q45.496876 133.65416 47.309376 135.37291Q49.121876 137.07603 49.121876 139.62291Q49.121876 141.07603 48.60625 142.38853Q48.090626 143.70103 46.965626 145.13853Q46.215626 146.09166 44.2625 147.88853Q42.309376 149.66978 41.79375 150.26353Q41.278126 150.84166 40.95 151.38853L49.121876 151.38853ZM52.278126 149.70103L56.3875 149.26353Q56.559376 150.65416 57.41875 151.46666Q58.29375 152.27916 59.41875 152.27916Q60.7 152.27916 61.590626 151.23228Q62.496876 150.18541 62.496876 148.07603Q62.496876 146.10728 61.60625 145.12291Q60.715626 144.12291 59.29375 144.12291Q57.528126 144.12291 56.121876 145.70103L52.778126 145.21666L54.8875 134.02916L65.77812 134.02916L65.77812 137.88853L58.0125 137.88853L57.371876 141.52916Q58.746876 140.84166 60.184376 140.84166Q62.91875 140.84166 64.825 142.84166Q66.73125 144.82603 66.73125 148.01353Q66.73125 150.65416 65.18437 152.74791Q63.090626 155.57603 59.371876 155.57603Q56.403126 155.57603 54.528126 153.98228Q52.653126 152.38853 52.278126 149.70103ZM76.18437 133.65416Q79.30937 133.65416 81.05937 135.87291Q83.15312 138.51353 83.15312 144.62291Q83.15312 150.71666 81.04375 153.38853Q79.30937 155.57603 76.18437 155.57603Q73.04375 155.57603 71.12187 153.16978Q69.21562 150.76353 69.21562 144.57603Q69.21562 138.51353 71.325 135.85728Q73.05937 133.65416 76.18437 133.65416ZM76.18437 137.06041Q75.43437 137.06041 74.84062 137.54478Q74.2625 138.01353 73.93437 139.24791Q73.5125 140.84166 73.5125 144.62291Q73.5125 148.40416 73.8875 149.82603Q74.27812 151.23228 74.85625 151.70103Q75.43437 152.16978 76.18437 152.16978Q76.93437 152.16978 77.5125 151.70103Q78.10625 151.21666 78.41875 149.98228Q78.85625 148.40416 78.85625 144.62291Q78.85625 140.84166 78.46562 139.43541Q78.09062 138.01353 77.5125 137.54478Q76.93437 137.06041 76.18437 137.06041ZM93.18437 133.65416Q96.30937 133.65416 98.05937 135.87291Q100.15312 138.51353 100.15312 144.62291Q100.15312 150.71666 98.04375 153.38853Q96.30937 155.57603 93.18437 155.57603Q90.04375 155.57603 88.12187 153.16978Q86.21562 150.76353 86.21562 144.57603Q86.21562 138.51353 88.325 135.85728Q90.05937 133.65416 93.18437 133.65416ZM93.18437 137.06041Q92.43437 137.06041 91.84062 137.54478Q91.2625 138.01353 90.93437 139.24791Q90.5125 140.84166 90.5125 144.62291Q90.5125 148.40416 90.8875 149.82603Q91.27812 151.23228 91.85625 151.70103Q92.43437 152.16978 93.18437 152.16978Q93.93437 152.16978 94.5125 151.70103Q95.10625 151.21666 95.41875 149.98228Q95.85625 148.40416 95.85625 144.62291Q95.85625 140.84166 95.46562 139.43541Q95.09062 138.01353 94.5125 137.54478Q93.93437 137.06041 93.18437 137.06041Z" fill-rule="nonzero"/><path fill="#000000" d="M143.70338 639.0396L146.41028 641.7465L136.21248 651.9443Q134.84245 650.2428 134.30107 648.0442Q133.75969 645.8455 133.92543 641.12775Q134.06906 637.33813 133.85913 636.2222Q133.56082 634.73065 132.67694 633.8468Q131.70467 632.8745 130.65506 632.88556Q129.60544 632.8745 128.68842 633.79156Q127.771385 634.70856 127.78243 635.80237Q127.80453 636.88513 128.98672 638.2441L125.80474 640.85156Q123.650276 638.18884 123.981735 635.7803Q124.30214 633.36066 126.34612 631.31665Q128.60002 629.06274 131.097 628.99646Q133.58292 628.9191 135.38383 630.72003Q136.41135 631.74756 136.97482 633.0402Q137.5383 634.33295 137.75926 636.1449Q137.9029 637.3492 137.79242 640.00085Q137.67088 642.6414 137.72612 643.4259Q137.77031 644.1993 137.925 644.818L143.70338 639.0396ZM138.27855 619.3842Q140.48827 617.17456 143.29459 617.506Q146.6423 617.8927 150.96228 622.21265Q155.27121 626.5216 155.66896 629.90247Q155.98936 632.67566 153.77966 634.8854Q151.5589 637.1061 148.49846 636.7636Q145.44905 636.41003 141.07384 632.03485Q136.787 627.748 136.4003 624.3782Q136.06885 621.59393 138.27855 619.3842ZM140.68713 621.79285Q140.1568 622.3232 140.07947 623.0855Q140.00212 623.82574 140.64294 624.9306Q141.47157 626.3559 144.14532 629.0296Q146.81908 631.70337 148.08966 632.4436Q149.36024 633.1618 150.1005 633.0844Q150.84074 633.0071 151.37108 632.47675Q151.9014 631.9464 151.97874 631.2062Q152.05608 630.44385 151.40422 629.35004Q150.59767 627.92474 147.92393 625.25104Q145.25018 622.5773 143.9796 621.85913Q142.70901 621.11884 141.96877 621.1962Q141.21747 621.2625 140.68713 621.79285ZM168.07648 620.0803L165.15965 622.99713L154.18845 612.02594Q154.08902 615.10846 152.64166 617.9921L150.00105 615.3515Q150.7634 613.8379 151.06172 611.46246Q151.36003 609.087 150.46509 607.1977L152.82948 604.8333L168.07648 620.0803ZM169.19237 611.9375L171.7004 608.8108Q172.67267 609.5621 173.5234 609.551Q174.3631 609.52893 175.08125 608.8108Q175.98723 607.9048 175.78836 606.4464Q175.58948 604.988 173.1588 602.20374Q173.33557 604.5681 171.6783 606.2254Q169.88843 608.0153 167.20364 607.9379Q164.52989 607.84955 162.30913 605.6288Q159.99998 603.31964 159.9558 600.5354Q159.91159 597.7512 162.04396 595.61884Q164.35312 593.3097 167.62347 593.619Q170.8828 593.91736 174.98181 598.01636Q179.14711 602.18164 179.44542 605.57355Q179.73268 608.9544 177.25781 611.4293Q175.47899 613.2081 173.43501 613.37384Q171.39104 613.51746 169.19237 611.9375ZM169.4244 598.9997Q168.01018 597.58545 166.58492 597.4639Q165.15965 597.3203 164.30891 598.171Q163.50238 598.9776 163.61285 600.14874Q163.72334 601.3199 165.1707 602.7672Q166.64017 604.2367 167.91074 604.3582Q169.18132 604.45764 170.0431 603.5959Q170.8828 602.75616 170.79442 601.51874Q170.70602 600.2813 169.4244 598.9997Z" fill-rule="nonzero"/><path fill="#000000" d="M177.98701 584.31616Q179.10292 588.43726 178.53944 593.1329L174.93762 592.691Q175.89883 586.49274 172.27492 580.26135L175.18068 578.5709Q176.92636 578.5709 176.00932 579.7531L176.62804 581.18945L188.15167 569.6658L190.39453 571.9086L184.35098 577.9522L186.50545 580.1067L191.47728 575.1348L193.70909 577.36664L188.73724 582.3385L191.80875 585.41L198.76932 578.4494L201.00113 580.6812L194.04054 587.6418L199.02344 592.6247L196.70325 594.9449L191.72035 589.962L182.18546 599.4969L179.95366 597.2651L183.68806 593.53064L178.38477 588.22736L184.18524 582.4269L182.03078 580.2724L177.98701 584.31616ZM186.00826 591.21045L189.48856 587.73016L186.41705 584.6587L182.93677 588.139L186.00826 591.21045Z" fill-rule="nonzero"/><path fill="#000000" d="M245.76637 639.0396L248.47327 641.7465L238.27547 651.9443Q236.90544 650.2428 236.36406 648.0442Q235.82268 645.8455 235.98842 641.1278Q236.13205 637.33813 235.92212 636.2222Q235.62381 634.73065 234.73993 633.8468Q233.76765 632.8745 232.71805 632.88556Q231.66843 632.8745 230.7514 633.79156Q229.83438 634.70856 229.84543 635.80237Q229.86752 636.88513 231.04971 638.2441L227.86774 640.85156Q225.71327 638.18884 226.04472 635.7803Q226.36513 633.36066 228.40912 631.31665Q230.66301 629.06274 233.15999 628.99646Q235.6459 628.9191 237.44682 630.72003Q238.47433 631.74756 239.03781 633.0402Q239.60129 634.33295 239.82225 636.1449Q239.96588 637.3492 239.85541 640.00085Q239.73387 642.6414 239.78911 643.4259Q239.83331 644.1993 239.98799 644.818L245.76637 639.0396ZM240.34152 619.3843Q242.55124 617.17456 245.35757 617.506Q248.70528 617.8927 253.02525 622.2127Q257.3342 626.5216 257.73193 629.90247Q258.05234 632.67566 255.84264 634.8854Q253.62187 637.10614 250.56143 636.7636Q247.51204 636.41003 243.13683 632.03485Q238.84999 627.748 238.46327 624.3782Q238.13182 621.594 240.34152 619.3843ZM242.7501 621.79285Q242.21979 622.3232 242.14244 623.0855Q242.0651 623.82574 242.70592 624.9306Q243.53456 626.3559 246.2083 629.02966Q248.88205 631.70337 250.15263 632.44366Q251.42322 633.1618 252.16347 633.0845Q252.90372 633.0071 253.43405 632.4768Q253.96439 631.9465 254.04172 631.2062Q254.11906 630.44385 253.4672 629.35004Q252.66066 627.9248 249.98691 625.25104Q247.31316 622.5773 246.04257 621.85913Q244.77199 621.1189 244.03174 621.1962Q243.28044 621.2625 242.7501 621.79285ZM269.80798 614.998L272.5149 617.7049L262.31708 627.9027Q260.94705 626.20123 260.40567 624.00256Q259.86432 621.8039 260.03003 617.0862Q260.17368 613.2965 259.96375 612.1806Q259.66544 610.689 258.78156 609.8052Q257.80927 608.8329 256.75967 608.84393Q255.71005 608.8329 254.79303 609.74994Q253.87599 610.66693 253.88704 611.76074Q253.90913 612.8435 255.09134 614.2025L251.90935 616.80994Q249.75488 614.1472 250.08635 611.73865Q250.40675 609.31903 252.45073 607.275Q254.70464 605.0212 257.2016 604.95483Q259.68753 604.8775 261.48843 606.6784Q262.51596 607.70593 263.07944 608.9986Q263.6429 610.2913 263.8639 612.1033Q264.0075 613.30756 263.89703 615.9592Q263.77548 618.5998 263.83072 619.3843Q263.87494 620.15765 264.0296 620.77637L269.80798 614.998ZM264.38315 595.34265Q266.59286 593.13293 269.3992 593.46436Q272.74692 593.8511 277.0669 598.1711Q281.37582 602.48 281.77356 605.86084Q282.09396 608.63403 279.88428 610.84375Q277.6635 613.0645 274.60306 612.722Q271.55365 612.3684 267.17844 607.9932Q262.8916 603.70636 262.5049 600.33655Q262.17346 597.5523 264.38315 595.34265ZM266.79175 597.7512Q266.2614 598.28156 266.18408 599.0439Q266.10672 599.7841 266.74756 600.889Q267.5762 602.3143 270.24994 604.988Q272.92368 607.66174 274.19427 608.402Q275.46484 609.1202 276.2051 609.04285Q276.94534 608.96545 277.47568 608.4351Q278.006 607.90485 278.08334 607.16455Q278.1607 606.4022 277.50882 605.3084Q276.70227 603.8832 274.02853 601.2094Q271.3548 598.53564 270.0842 597.8175Q268.81363 597.0773 268.07336 597.1546Q267.32208 597.2209 266.79175 597.7512Z" fill-rule="nonzero"/><path fill="#000000" d="M280.05 584.31616Q281.1659 588.43726 280.60242 593.13293L277.0006 592.691Q277.96182 586.49274 274.3379 580.26135L277.24365 578.5709Q278.98932 578.5709 278.0723 579.7531L278.691 581.18945L290.21466 569.66583L292.45752 571.9087L286.41394 577.9522L288.56842 580.1067L293.54025 575.1348L295.77206 577.36664L290.80023 582.3385L293.87173 585.41L300.8323 578.4494L303.06412 580.6812L296.10352 587.6418L301.08643 592.6247L298.76624 594.9449L293.78333 589.962L284.24844 599.4969L282.01663 597.2651L285.75104 593.53064L280.44775 588.22736L286.24823 582.4269L284.09375 580.2724L280.05 584.31616ZM288.07123 591.21045L291.5515 587.73016L288.48004 584.6587L284.99976 588.139L288.07123 591.21045Z" fill-rule="nonzero"/><path fill="#000000" d="M347.82938 639.0396L350.53625 641.74646L340.33847 651.9443Q338.96844 650.2428 338.42706 648.0441Q337.88568 645.8455 338.05142 641.12775Q338.19504 637.33813 337.9851 636.2222Q337.6868 634.73065 336.80292 633.8468Q335.83066 632.8745 334.78104 632.88556Q333.73145 632.8745 332.8144 633.79156Q331.89737 634.70856 331.90842 635.80237Q331.9305 636.88513 333.1127 638.2441L329.93073 640.85156Q327.77628 638.18884 328.10773 635.7803Q328.42813 633.36066 330.4721 631.31665Q332.726 629.06274 335.223 628.99646Q337.70892 628.9191 339.50983 630.72003Q340.53732 631.74756 341.1008 633.0402Q341.66428 634.33295 341.88525 636.1449Q342.0289 637.3492 341.9184 640.0008Q341.79688 642.6414 341.8521 643.42584Q341.8963 644.1993 342.051 644.818L347.82938 639.0396ZM342.40454 619.3842Q344.61426 617.1745 347.4206 617.506Q350.76828 617.8927 355.08826 622.21265Q359.3972 626.5216 359.79495 629.90247Q360.11536 632.67566 357.90564 634.8853Q355.68488 637.1061 352.62445 636.7636Q349.57504 636.41003 345.19983 632.0348Q340.913 627.748 340.52628 624.3782Q340.19482 621.59393 342.40454 619.3842ZM344.8131 621.79285Q344.2828 622.3231 344.20544 623.0855Q344.1281 623.82574 344.76892 624.9306Q345.59756 626.3559 348.2713 629.0296Q350.94507 631.70337 352.21564 632.4436Q353.48624 633.16174 354.22647 633.0844Q354.96674 633.0071 355.49707 632.47675Q356.0274 631.9464 356.10474 631.2062Q356.18207 630.44385 355.5302 629.35004Q354.72366 627.92474 352.04993 625.25104Q349.37616 622.5773 348.1056 621.85913Q346.835 621.11884 346.09476 621.1962Q345.34344 621.2625 344.8131 621.79285ZM371.871 614.998L374.5779 617.70483L364.3801 627.90265Q363.01007 626.2012 362.4687 624.0025Q361.9273 621.8039 362.09305 617.0861Q362.23666 613.2965 362.02676 612.1806Q361.72845 610.689 360.84454 609.8052Q359.87228 608.8329 358.82266 608.84393Q357.77307 608.8329 356.85605 609.7499Q355.939 610.66693 355.95004 611.76074Q355.97214 612.8435 357.15436 614.20245L353.97235 616.80994Q351.8179 614.1472 352.14935 611.73865Q352.46976 609.31903 354.51373 607.275Q356.76764 605.0211 359.26462 604.95483Q361.75055 604.8775 363.55145 606.6784Q364.57898 607.70593 365.14246 608.9986Q365.70593 610.29126 365.92688 612.1033Q366.07053 613.30756 365.96002 615.95917Q365.8385 618.5998 365.89374 619.3842Q365.93793 620.15765 366.09262 620.77637L371.871 614.998ZM384.22327 608.0595L381.30646 610.9763L370.33527 600.00507Q370.2358 603.08765 368.78845 605.9713L366.14786 603.3307Q366.91022 601.8171 367.20853 599.4416Q367.50684 597.06616 366.6119 595.1769L368.9763 592.8125L384.22327 608.0595Z" fill-rule="nonzero"/><path fill="#000000" d="M382.113 584.31616Q383.2289 588.43726 382.66544 593.1329L379.0636 592.691Q380.02484 586.49274 376.4009 580.26135L379.30667 578.5709Q381.05234 578.5709 380.1353 579.7531L380.75403 581.1894L392.27768 569.6658L394.5205 571.9086L388.47696 577.9522L390.63144 580.1067L395.60327 575.1348L397.83508 577.36664L392.86325 582.3385L395.93472 585.41L402.89532 578.4494L405.1271 580.6812L398.16653 587.6418L403.14944 592.6247L400.82922 594.9449L395.84634 589.962L386.31146 599.4969L384.07965 597.2651L387.81406 593.53064L382.51074 588.22736L388.31125 582.4269L386.15677 580.2724L382.113 584.31616ZM390.13425 591.21045L393.61453 587.73016L390.54303 584.6587L387.06274 588.139L390.13425 591.21045Z" fill-rule="nonzero"/><path fill="#000000" d="M449.89236 639.0396L452.59924 641.7465L442.40146 651.9443Q441.03143 650.2428 440.49005 648.0442Q439.94867 645.8455 440.1144 641.12775Q440.25803 637.33813 440.04813 636.2222Q439.7498 634.73065 438.8659 633.8468Q437.89365 632.8745 436.84402 632.88556Q435.79443 632.8745 434.87738 633.79156Q433.96036 634.70856 433.9714 635.80237Q433.9935 636.88513 435.1757 638.2441L431.9937 640.85156Q429.83926 638.18884 430.17072 635.7803Q430.49112 633.36066 432.5351 631.31665Q434.789 629.06274 437.28598 628.99646Q439.7719 628.9191 441.5728 630.72003Q442.6003 631.74756 443.1638 633.0402Q443.72726 634.33295 443.94824 636.1449Q444.0919 637.3492 443.98138 640.0008Q443.85986 642.6414 443.9151 643.42584Q443.9593 644.1993 444.11398 644.818L449.89236 639.0396ZM444.46753 619.3842Q446.67725 617.17456 449.48358 617.506Q452.83127 617.8927 457.15125 622.21265Q461.46017 626.5216 461.85794 629.90247Q462.17834 632.67566 459.96863 634.8854Q457.74786 637.1061 454.68744 636.7636Q451.63803 636.41003 447.26282 632.03485Q442.97598 627.748 442.58926 624.3782Q442.2578 621.59393 444.46753 619.3842ZM446.8761 621.79285Q446.3458 622.3232 446.26843 623.0855Q446.1911 623.82574 446.8319 624.9306Q447.66055 626.3559 450.33432 629.0296Q453.00806 631.70337 454.27863 632.4436Q455.54922 633.16174 456.28946 633.0844Q457.02972 633.0071 457.56006 632.47675Q458.0904 631.9464 458.16772 631.2062Q458.24506 630.44385 457.5932 629.35004Q456.78665 627.92474 454.1129 625.25104Q451.43915 622.5773 450.16858 621.85913Q448.89798 621.11884 448.15775 621.1962Q447.40643 621.2625 446.8761 621.79285ZM473.934 614.998L476.6409 617.70483L466.44308 627.90265Q465.07306 626.2012 464.53168 624.0025Q463.9903 621.8039 464.15604 617.0861Q464.29965 613.2965 464.08975 612.1806Q463.79144 610.689 462.90756 609.8052Q461.93527 608.8329 460.88565 608.84393Q459.83606 608.8329 458.91904 609.74994Q458.00198 610.66693 458.01303 611.76074Q458.03513 612.8435 459.21735 614.20245L456.03534 616.80994Q453.8809 614.1472 454.21234 611.73865Q454.53275 609.31903 456.57672 607.275Q458.83063 605.0211 461.3276 604.95483Q463.81354 604.8775 465.61444 606.6784Q466.64197 607.70593 467.20544 608.9986Q467.76892 610.29126 467.98987 612.1033Q468.1335 613.30756 468.023 615.95917Q467.9015 618.5998 467.95673 619.3842Q468.00092 620.15765 468.1556 620.77637L473.934 614.998ZM485.9548 602.9772L488.6617 605.684L478.4639 615.88184Q477.09387 614.18036 476.5525 611.9817Q476.0111 609.7831 476.17685 605.0653Q476.32047 601.2757 476.11057 600.1598Q475.81226 598.6682 474.92838 597.78436Q473.9561 596.8121 472.9065 596.8231Q471.85687 596.8121 470.93985 597.72906Q470.0228 598.6461 470.03384 599.7399Q470.05597 600.8227 471.23816 602.18164L468.05618 604.7891Q465.9017 602.1264 466.23315 599.71783Q466.55356 597.2982 468.59753 595.2542Q470.85144 593.0003 473.34842 592.934Q475.83435 592.8567 477.63525 594.6576Q478.66278 595.6851 479.22626 596.9778Q479.78973 598.27045 480.01068 600.08246Q480.15433 601.28674 480.04385 603.93835Q479.9223 606.579 479.97754 607.3634Q480.02173 608.13684 480.17642 608.75555L485.9548 602.9772Z" fill-rule="nonzero"/><path fill="#000000" d="M484.17603 584.31616Q485.29193 588.43726 484.72845 593.1329L481.1266 592.691Q482.08783 586.4927 478.46393 580.26135L481.3697 578.5709Q483.11536 578.5709 482.19833 579.7531L482.81705 581.1894L494.34067 569.6658L496.58353 571.9086L490.53998 577.9522L492.69443 580.1066L497.6663 575.1348L499.8981 577.3666L494.92624 582.33844L497.99774 585.41L504.9583 578.44934L507.19012 580.68115L500.22955 587.6417L505.21243 592.62463L502.89224 594.9448L497.90936 589.962L488.37445 599.4969L486.14264 597.2651L489.87708 593.53064L484.57376 588.22736L490.37424 582.4268L488.2198 580.2724L484.17603 584.31616ZM492.19727 591.21045L495.67755 587.73016L492.60605 584.6586L489.12576 588.1389L492.19727 591.21045Z" fill-rule="nonzero"/><path fill="#000000" d="M551.9553 639.0396L554.66223 641.7465L544.4644 651.94434Q543.0944 650.24286 542.55304 648.0442Q542.01166 645.8455 542.17737 641.1278Q542.321 637.33813 542.1111 636.2222Q541.81274 634.7307 540.9289 633.8468Q539.9566 632.8745 538.907 632.88556Q537.85736 632.8745 536.94037 633.79156Q536.0233 634.7086 536.03436 635.8024Q536.05646 636.88513 537.23865 638.24414L534.0567 640.85156Q531.9022 638.1889 532.2337 635.7803Q532.5541 633.36066 534.5981 631.3167Q536.852 629.0628 539.34894 628.9965Q541.83484 628.9191 543.6358 630.7201Q544.66327 631.74756 545.22675 633.0403Q545.7902 634.33295 546.0112 636.1449Q546.15485 637.3492 546.0444 640.00085Q545.92285 642.6414 545.9781 643.4259Q546.0223 644.1993 546.17694 644.818L551.9553 639.0396ZM546.5305 619.3843Q548.74023 617.17456 551.5465 617.506Q554.8942 617.8927 559.21423 622.2127Q563.52313 626.5216 563.9209 629.90247Q564.24133 632.67566 562.0316 634.8854Q559.81085 637.10614 556.7504 636.7636Q553.701 636.4101 549.3258 632.03485Q545.03894 627.748 544.6522 624.37823Q544.3208 621.594 546.5305 619.3843ZM548.9391 621.79285Q548.40875 622.3232 548.3314 623.0855Q548.2541 623.8258 548.8949 624.9306Q549.7235 626.3559 552.3973 629.02966Q555.07104 631.70337 556.3416 632.44366Q557.6122 633.1618 558.3524 633.0845Q559.0927 633.00714 559.62305 632.4768Q560.1533 631.9465 560.2307 631.2062Q560.30804 630.44385 559.6562 629.35004Q558.8496 627.9248 556.1759 625.25104Q553.50214 622.5773 552.23157 621.85913Q550.96094 621.1189 550.2207 621.1962Q549.4694 621.2625 548.9391 621.79285ZM575.99695 614.998L578.70386 617.7049L568.50604 627.9027Q567.13605 626.20123 566.59467 624.00256Q566.0533 621.8039 566.219 617.0862Q566.3626 613.2965 566.1527 612.1806Q565.8544 610.6891 564.9705 609.8052Q563.9982 608.8329 562.9486 608.84393Q561.89905 608.8329 560.982 609.74994Q560.06494 610.667 560.076 611.76074Q560.0981 612.8435 561.2803 614.2025L558.0983 616.80994Q555.94385 614.1473 556.2753 611.73865Q556.5957 609.31903 558.6397 607.2751Q560.8936 605.0212 563.39056 604.9549Q565.8765 604.8775 567.6774 606.67847Q568.7049 607.70593 569.2684 608.99866Q569.83185 610.2913 570.05286 612.1033Q570.1965 613.30756 570.086 615.9592Q569.9645 618.5998 570.0197 619.3843Q570.0639 620.15765 570.21857 620.77637L575.99695 614.998ZM576.75934 611.584L579.2342 608.42413Q580.4495 609.37427 581.6096 609.3632Q582.7697 609.3301 583.60944 608.4904Q584.5154 607.5844 584.43805 606.29175Q584.37177 604.98804 583.2117 603.82794Q582.11786 602.73413 580.88043 602.68994Q579.65405 602.63464 578.81433 603.47437Q578.25085 604.03784 577.6874 605.0212L575.64343 602.33636Q576.8477 601.1763 576.92505 600.0162Q577.0024 598.8561 576.0964 597.9501Q575.33405 597.18774 574.42804 597.18774Q573.5221 597.18774 572.75977 597.9501Q572.0195 598.69037 572.0084 599.7399Q571.9863 600.7785 572.87024 601.88336L569.7324 604.1152Q568.62756 602.4579 568.3735 601.07684Q568.1083 599.6847 568.64966 598.2153Q569.19104 596.7237 570.4506 595.4642Q572.594 593.32074 575.2567 593.3981Q577.4333 593.4533 578.8364 594.8565Q580.83624 596.85626 579.8529 600.2261Q581.4439 599.2096 583.1896 599.4085Q584.9463 599.5963 586.3163 600.9664Q588.3161 602.9661 588.2719 605.83875Q588.2167 608.7003 586.0401 610.8769Q583.98505 612.9319 581.4439 613.1087Q578.9027 613.28546 576.75934 611.584Z" fill-rule="nonzero"/><path fill="#000000" d="M586.23895 584.31616Q587.35486 588.4373 586.7914 593.13293L583.1896 592.691Q584.15076 586.49274 580.52686 580.26135L583.4326 578.5709Q585.1783 578.5709 584.2613 579.7531L584.88 581.18945L596.4036 569.66583L598.6465 571.9087L592.6029 577.9522L594.7574 580.1067L599.72925 575.1348L601.96106 577.36664L596.9892 582.3385L600.06067 585.41L607.0213 578.4494L609.25305 580.6812L602.2925 587.6418L607.2754 592.6247L604.9552 594.9449L599.9723 589.962L590.4374 599.4969L588.2056 597.2651L591.94 593.5307L586.6367 588.22736L592.4372 582.4269L590.2827 580.2724L586.23895 584.31616ZM594.2602 591.21045L597.7405 587.73016L594.669 584.6587L591.1887 588.139L594.2602 591.21045Z" fill-rule="nonzero"/><path fill="#000000" d="M654.0184 639.0396L656.7253 641.74646L646.52747 651.9443Q645.1574 650.2428 644.616 648.0441Q644.07465 645.84546 644.2404 641.12775Q644.38403 637.33813 644.17413 636.2222Q643.8758 634.73065 642.99194 633.84674Q642.01965 632.8745 640.97003 632.88556Q639.9204 632.8745 639.0034 633.7915Q638.08636 634.70856 638.0974 635.80237Q638.1195 636.88513 639.3017 638.2441L636.11975 640.85156Q633.9653 638.18884 634.2967 635.7803Q634.6171 633.36066 636.6611 631.31665Q638.915 629.06274 641.412 628.99646Q643.8979 628.9191 645.6988 630.72003Q646.7263 631.74756 647.2898 633.0402Q647.8533 634.3329 648.0742 636.14484Q648.2179 637.3492 648.1074 640.0008Q647.98584 642.6414 648.0411 643.42584Q648.08527 644.1993 648.24 644.818L654.0184 639.0396ZM648.5935 619.3842Q650.8032 617.1745 653.60956 617.506Q656.9573 617.8927 661.2773 622.21265Q665.5862 626.5216 665.98395 629.90247Q666.3043 632.6756 664.09467 634.8853Q661.8739 637.1061 658.8134 636.7636Q655.76404 636.41003 651.3888 632.0348Q647.102 627.748 646.7153 624.3782Q646.38385 621.59393 648.5935 619.3842ZM651.00214 621.7928Q650.4718 622.3231 650.3945 623.0855Q650.3171 623.82574 650.95795 624.9306Q651.78656 626.35583 654.4603 629.0296Q657.13403 631.70337 658.40466 632.4436Q659.67523 633.16174 660.41547 633.0844Q661.1557 633.0071 661.68604 632.47675Q662.2164 631.9464 662.2937 631.2062Q662.37103 630.4438 661.7192 629.35004Q660.91266 627.92474 658.2389 625.251Q655.5652 622.5773 654.29456 621.8591Q653.024 621.11884 652.28375 621.19617Q651.5325 621.26245 651.00214 621.7928ZM678.06 614.9979L680.7669 617.70483L670.5691 627.90265Q669.19904 626.2012 668.65765 624.0025Q668.11633 621.80383 668.28204 617.0861Q668.42566 613.29645 668.21576 612.1806Q667.9174 610.689 667.03357 609.8051Q666.0613 608.8329 665.01166 608.84393Q663.96204 608.8329 663.04504 609.7499Q662.128 610.66693 662.13904 611.76074Q662.16113 612.8435 663.3433 614.20245L660.1614 616.80994Q658.0069 614.1472 658.3383 611.73865Q658.65875 609.31903 660.70276 607.275Q662.95667 605.0211 665.4536 604.95483Q667.9395 604.8775 669.7404 606.6784Q670.76794 607.70593 671.3314 608.9986Q671.8949 610.29126 672.1159 612.1032Q672.2595 613.3075 672.14905 615.95917Q672.02747 618.5998 672.0827 619.3842Q672.12695 620.1576 672.2816 620.77637L678.06 614.9979ZM688.6666 609.8051L685.60614 606.7447L679.39685 612.954L676.8557 610.4128L673.7952 594.1825L676.237 591.7408L685.87134 601.3751L687.7606 599.4858L690.3128 602.038L688.4235 603.9273L691.48395 606.98773L688.6666 609.8051ZM683.05396 604.1925L677.86115 598.99963L679.5626 607.68384L683.05396 604.1925Z" fill-rule="nonzero"/><path fill="#000000" d="M688.302 584.31616Q689.4179 588.43726 688.85443 593.1329L685.2526 592.6909Q686.2138 586.49274 682.5899 580.26135L685.49567 578.5709Q687.24133 578.5709 686.3243 579.7531L686.943 581.1894L698.4667 569.6658L700.70953 571.9086L694.66595 577.9522L696.82043 580.1066L701.79224 575.1348L704.02405 577.36664L699.05225 582.33844L702.1237 585.41L709.0843 578.44934L711.3161 580.68115L704.3555 587.6418L709.33844 592.62463L707.01825 594.9448L702.03534 589.962L692.5004 599.4968L690.2686 597.265L694.00305 593.53064L688.69977 588.22736L694.50024 582.4268L692.34576 580.2724L688.302 584.31616ZM696.32324 591.21045L699.8035 587.73016L696.73206 584.6586L693.2518 588.1389L696.32324 591.21045Z" fill-rule="nonzero"/><path fill="#f39800" d="M244.9375 87.583336C244.9375 87.03105 245.38521 86.583336 245.9375 86.583336L255.9375 86.583336C256.48978 86.583336 256.9375 87.03105 256.9375 87.583336L256.9375 97.583336C256.9375 98.13562 256.48978 98.583336 255.9375 98.583336L245.9375 98.583336C245.38521 98.583336 244.9375 98.13562 244.9375 97.583336Z" fill-rule="nonzero"/><path fill="#1a1a1a" d="M280.0625 88.81771Q278.57812 97.302086 269.9375 101.13021L268.0625 99.16146Q276.0 95.927086 277.45312 88.802086L271.75 88.802086Q270.03125 91.66146 267.85938 93.645836L265.75 92.28646Q270.04688 88.395836 271.28125 83.239586L273.42188 83.989586Q274.54688 84.552086 273.39062 84.97396Q273.125 85.88021 272.79688 86.458336L277.82812 86.458336L278.65625 85.989586L280.23438 87.56771Q281.15625 88.489586 280.0625 88.81771ZM280.1875 87.145836Q278.76562 85.114586 277.34375 83.958336L278.84375 82.69271Q280.40625 84.052086 281.78125 85.895836L280.1875 87.145836ZM282.48438 86.22396Q281.03125 84.41146 279.79688 83.270836L281.1875 81.88021Q282.59375 83.19271 283.875 84.84896L282.48438 86.22396ZM296.90625 96.552086Q299.82812 95.41146 302.92188 91.16146L304.40625 93.177086Q301.25 97.489586 296.64062 99.31771L295.85938 99.708336L294.26562 98.520836L294.48438 97.958336L294.48438 85.13021L296.46875 85.13021Q297.8125 85.427086 296.90625 86.208336L296.90625 96.552086ZM285.625 99.16146Q289.71875 95.22396 289.71875 89.81771L289.71875 85.989586L291.70312 85.989586Q293.04688 86.28646 292.14062 87.06771L292.14062 89.739586Q292.14062 96.44271 287.71875 100.520836L285.625 99.16146ZM306.125 93.177086L306.125 90.833336L324.17188 90.833336L324.17188 93.177086L306.125 93.177086ZM340.125 85.520836Q340.625 85.520836 340.92188 85.22396Q341.21875 84.927086 341.21875 84.427086Q341.21875 83.927086 340.92188 83.63021Q340.625 83.333336 340.125 83.333336Q339.625 83.333336 339.32812 83.63021Q339.03125 83.927086 339.03125 84.427086Q339.03125 84.927086 339.32812 85.22396Q339.625 85.520836 340.125 85.520836ZM340.125 86.927086Q339.0625 86.927086 338.34375 86.208336Q337.625 85.489586 337.625 84.427086Q337.625 83.364586 338.34375 82.645836Q339.0625 81.927086 340.125 81.927086Q341.1875 81.927086 341.90625 82.645836Q342.625 83.364586 342.625 84.427086Q342.625 85.489586 341.90625 86.208336Q341.1875 86.927086 340.125 86.927086ZM325.82812 87.94271L325.82812 85.59896L337.8125 85.59896L340.04688 87.239586Q339.64062 97.083336 328.92188 100.09896L327.0625 97.833336Q337.09375 95.50521 337.53125 87.94271L325.82812 87.94271ZM354.84375 84.19271Q357.60938 87.677086 362.84375 89.31771L361.8125 91.69271Q356.125 89.614586 353.32812 85.739586Q352.125 88.22396 350.375 89.427086L358.35938 89.427086L358.35938 91.53646L348.98438 91.53646L348.98438 90.489586Q348.0625 91.25521 345.92188 92.239586L344.4375 90.239586Q350.375 87.47396 352.23438 82.895836L354.5 83.333336Q355.89062 83.53646 354.84375 84.19271ZM349.76562 101.145836L347.57812 101.145836L347.57812 92.78646L359.84375 92.78646L359.84375 100.91146L357.65625 100.91146L357.65625 100.052086L349.76562 100.052086L349.76562 101.145836ZM349.76562 97.94271L357.65625 97.94271L357.65625 94.895836L349.76562 94.895836L349.76562 97.94271ZM377.34375 89.19271L377.34375 82.94271L379.17188 82.94271Q380.8125 83.270836 379.53125 83.989586L379.53125 89.19271L383.51562 89.19271L383.51562 91.302086L379.53125 91.302086L379.53125 100.989586L377.34375 100.989586L377.34375 91.302086L373.125 91.302086L373.125 89.19271L377.34375 89.19271ZM373.125 100.75521L370.9375 100.75521L370.9375 99.97396L368.35938 99.97396L368.35938 101.06771L366.17188 101.06771L366.17188 94.03646L373.125 94.03646L373.125 100.75521ZM368.35938 95.91146L368.35938 98.09896L370.9375 98.09896L370.9375 95.91146L368.35938 95.91146ZM372.65625 91.38021L372.65625 93.489586L366.64062 93.489586L366.64062 91.38021L372.65625 91.38021ZM366.64062 88.802086L372.65625 88.802086L372.65625 90.91146L366.64062 90.91146L366.64062 88.802086ZM365.15625 86.22396L374.0625 86.22396L374.0625 88.333336L365.15625 88.333336L365.15625 86.22396ZM372.65625 83.41146L372.65625 85.520836L366.64062 85.520836L366.64062 83.41146L372.65625 83.41146Z" fill-rule="nonzero"/><path fill="#4285f4" d="M400.6875 87.583336C400.6875 87.03105 401.13522 86.583336 401.6875 86.583336L411.6875 86.583336C412.23978 86.583336 412.6875 87.03105 412.6875 87.583336L412.6875 97.583336C412.6875 98.13562 412.23978 98.583336 411.6875 98.583336L401.6875 98.583336C401.13522 98.583336 400.6875 98.13562 400.6875 97.583336Z" fill-rule="nonzero"/><path fill="#1a1a1a" d="M435.0625 86.22396L438.65625 86.22396L438.65625 88.56771L435.0625 88.56771L435.0625 90.364586L439.98438 90.364586L439.98438 92.708336L435.4375 92.708336Q436.54688 94.677086 440.625 97.13021L439.39062 99.50521Q436.0 97.06771 435.0625 95.677086L435.0625 101.38021L432.875 101.38021L432.875 95.97396Q431.78125 97.84896 428.54688 100.03646L427.39062 97.927086Q430.92188 95.458336 432.5625 92.708336L428.26562 92.708336L428.26562 90.364586L432.875 90.364586L432.875 88.56771L431.20312 88.56771Q430.79688 89.520836 429.6875 90.833336L427.98438 89.03646Q429.54688 87.395836 430.46875 84.208336L432.35938 84.677086Q433.60938 85.302086 432.34375 85.63021L432.14062 86.22396L432.875 86.22396L432.875 82.708336L434.6875 82.708336Q436.125 82.895836 435.0625 83.645836L435.0625 86.22396ZM426.70312 101.38021L424.51562 101.38021L424.51562 94.78646Q424.3125 95.302086 422.51562 97.28646L421.15625 95.083336Q423.67188 92.47396 424.375 88.88021L421.85938 88.88021L421.85938 86.53646L424.51562 86.53646L424.51562 82.708336L426.34375 82.708336Q427.76562 83.06771 426.70312 83.677086L426.70312 86.53646L428.89062 86.53646L428.89062 88.88021L426.70312 88.88021L426.70312 90.66146Q428.17188 91.614586 429.4375 93.25521L427.84375 95.28646Q426.76562 93.520836 426.70312 93.458336L426.70312 101.38021ZM456.4375 96.22396Q457.35938 97.94271 457.95312 97.94271Q458.0 97.94271 458.03125 97.739586L458.23438 95.989586L460.5625 97.052086L460.21875 99.16146Q459.9375 100.75521 458.5 100.75521Q455.96875 100.75521 454.23438 97.38021Q452.64062 94.270836 452.5625 88.958336L442.95312 88.958336L442.95312 86.614586L452.48438 86.614586L452.48438 83.020836L454.54688 83.020836Q456.09375 83.333336 454.90625 84.13021L454.90625 86.614586L460.375 86.614586L460.375 88.958336L454.92188 88.958336Q455.21875 94.020836 456.4375 96.22396ZM453.46875 98.03646Q448.79688 99.03646 444.54688 99.770836Q444.28125 100.958336 443.4375 99.78646L442.96875 97.427086Q445.26562 97.239586 446.85938 96.97396L446.85938 93.09896L443.73438 93.09896L443.73438 90.989586L452.09375 90.989586L452.09375 93.09896L449.04688 93.09896L449.04688 96.645836Q450.48438 96.458336 453.14062 95.927086L453.46875 98.03646ZM456.65625 83.34896Q457.96875 84.00521 459.28125 85.22396L457.39062 86.802086Q456.4375 85.84896 454.84375 84.958336L456.65625 83.34896ZM475.3125 88.958336Q473.59375 88.020836 472.09375 85.427086Q470.60938 87.84896 469.07812 88.958336L475.3125 88.958336ZM480.40625 91.270836Q478.78125 90.895836 477.01562 89.88021L477.01562 91.302086L467.5625 91.302086L467.5625 90.03646Q465.90625 91.19271 463.70312 91.833336L462.78125 89.364586Q468.4375 87.833336 471.14062 82.833336L473.0 83.09896Q474.40625 83.28646 473.45312 83.958336Q475.71875 87.364586 481.42188 88.81771L480.40625 91.270836ZM478.42188 101.25521Q477.64062 100.177086 476.90625 99.520836L465.82812 100.739586Q465.32812 101.239586 464.71875 100.78646L464.03125 98.34896L467.45312 98.19271L469.29688 94.81771L463.89062 94.81771L463.89062 92.47396L480.53125 92.47396L480.53125 94.81771L471.95312 94.81771L470.01562 98.052086L475.10938 97.677086Q474.625 97.239586 473.03125 96.052086L475.0 94.75521Q478.95312 97.72396 480.59375 99.895836L478.42188 101.25521ZM489.04688 86.302086L490.25 86.302086L490.6875 85.864586L492.34375 87.520836L491.5625 88.06771Q490.64062 89.833336 489.26562 91.53646Q490.82812 92.03646 492.57812 93.22396L491.42188 95.53646Q489.8125 94.22396 489.04688 93.78646L489.04688 101.302086L486.85938 101.302086L486.85938 93.958336Q485.95312 94.75521 484.14062 95.802086L483.17188 93.66146Q487.09375 91.53646 488.89062 88.41146L483.96875 88.41146L483.96875 86.302086L486.85938 86.302086L486.85938 82.94271L488.67188 82.94271Q490.10938 83.13021 489.04688 83.88021L489.04688 86.302086ZM497.28125 83.41146Q498.82812 83.72396 497.64062 84.520836L497.64062 88.177086L501.23438 88.177086L501.23438 90.520836L497.64062 90.520836L497.64062 98.020836L501.9375 98.020836L501.9375 100.364586L490.60938 100.364586L490.60938 98.020836L495.21875 98.020836L495.21875 90.520836L491.85938 90.520836L491.85938 88.177086L495.21875 88.177086L495.21875 83.41146L497.28125 83.41146ZM518.3125 88.81771Q516.8281 97.302086 508.1875 101.13021L506.3125 99.16146Q514.25 95.927086 515.7031 88.802086L510.0 88.802086Q508.28125 91.66146 506.10938 93.645836L504.0 92.28646Q508.29688 88.395836 509.53125 83.239586L511.67188 83.989586Q512.7969 84.552086 511.64062 84.97396Q511.375 85.88021 511.04688 86.458336L516.0781 86.458336L516.90625 85.989586L518.4844 87.56771Q519.40625 88.489586 518.3125 88.81771ZM532.5469 92.395836Q532.5469 98.458336 526.71875 101.208336L524.625 99.427086Q530.0469 96.958336 530.125 92.31771L530.125 84.19271L532.1094 84.19271Q533.6094 84.489586 532.5469 85.28646L532.5469 92.395836ZM524.5 94.427086L522.0781 94.427086L522.0781 84.97396L524.125 84.97396Q525.7031 85.13021 524.5 86.06771L524.5 94.427086ZM545.6094 92.03646Q545.75 97.41146 540.1406 100.927086L538.375 98.94271Q543.1719 96.34896 543.1719 92.00521L543.1719 88.333336L545.1406 88.333336Q546.5781 88.489586 545.59375 89.333336L545.59375 90.59896Q547.875 88.895836 548.9531 87.427086L536.5625 87.88021L536.34375 85.458336L550.8594 85.052086L551.5625 84.84896L552.875 86.427086Q553.5469 87.333336 552.375 87.177086Q550.1094 90.114586 546.59375 92.97396L545.6094 92.03646Z" fill-rule="nonzero"/><path fill="#757575" d="M646.90936 57.153126L645.03436 57.153126Q643.53436 54.903126 642.7531 52.48125Q641.97186 50.04375 641.97186 47.7625Q641.97186 44.934376 642.9406 42.41875Q643.78436 40.23125 645.0656 38.3875L646.9406 38.3875Q645.59686 41.340626 645.09686 43.41875Q644.59686 45.496876 644.59686 47.825Q644.59686 49.41875 644.89374 51.10625Q645.1906 52.778126 645.70624 54.29375Q646.05 55.29375 646.90936 57.153126Z" fill-rule="nonzero"/><path fill="#757575" d="M663.33124 39.98125L665.1125 39.98125L665.1125 48.653126L662.925 48.653126L662.925 48.184376L659.2531 48.184376L659.2531 49.2L667.45624 49.2L667.45624 51.309376L659.2531 51.309376L659.2531 54.590626L657.0656 54.590626L657.0656 51.309376L649.01874 51.309376L649.01874 49.2L657.0656 49.2L657.0656 48.184376L653.47186 48.184376L653.47186 48.809376L651.28436 48.809376L651.28436 39.98125L660.72186 39.98125L663.3 36.028126L665.0656 37.23125Q666.15936 38.10625 664.8 38.10625L663.33124 39.98125ZM657.70624 36.215626Q659.425 37.66875 660.1281 38.98125L658.1281 40.45Q657.3625 38.996876 655.8781 37.60625L657.70624 36.215626ZM657.0656 43.10625L657.0656 42.090626L653.47186 42.090626L653.47186 43.10625L657.0656 43.10625ZM662.925 43.10625L662.925 42.090626L659.2531 42.090626L659.2531 43.10625L662.925 43.10625ZM657.0656 46.075L657.0656 45.215626L653.47186 45.215626L653.47186 46.075L657.0656 46.075ZM662.925 46.075L662.925 45.215626L659.2531 45.215626L659.2531 46.075L662.925 46.075ZM653.1125 40.5125Q652.3625 38.996876 651.03436 37.778126L652.8625 36.371876Q654.34686 37.7625 655.1281 39.23125L653.1125 40.5125ZM685.55 44.16875Q684.9406 47.325 683.53436 51.153126L688.0031 51.153126L688.0031 53.2625L674.33124 53.2625L674.33124 51.153126L681.1281 51.153126Q682.47186 46.7 683.22186 42.6375L685.55 43.29375Q686.2375 43.746876 685.55 44.16875ZM672.0656 54.5125L672.1281 45.2625Q672.15936 45.325 670.6281 47.059376L669.2375 44.934376Q672.47186 41.778126 673.20624 36.29375L675.3781 36.95Q676.51874 37.528126 675.3781 37.95Q674.78436 40.403126 674.15936 41.778126L674.2531 41.809376Q674.83124 42.3875 674.2531 42.73125L674.2531 54.5125L672.0656 54.5125ZM678.33124 43.434376Q679.6281 46.215626 680.3156 49.559376L677.925 50.3875Q677.2375 46.95 676.01874 44.16875L678.33124 43.434376ZM687.14374 40.371876L687.14374 42.48125L675.1906 42.48125L675.1906 40.371876L679.95624 40.371876L679.95624 36.54375L681.76874 36.54375Q683.20624 36.73125 682.14374 37.48125L682.14374 40.371876L687.14374 40.371876Z" fill-rule="nonzero"/><path fill="#757575" d="M691.14374 45.325L691.14374 42.575L693.8781 42.575L693.8781 45.325L691.14374 45.325ZM691.14374 52.95L691.14374 50.2L693.8781 50.2L693.8781 52.95L691.14374 52.95Z" fill-rule="nonzero"/><path fill="#757575" d="M715.47186 37.403126L715.47186 39.746876L707.7531 39.746876L707.34686 41.7L713.4406 41.7L713.4406 54.2L711.01874 54.2L711.01874 53.184376L702.1906 53.184376L702.1906 54.5125L699.76874 54.5125L699.76874 41.7L704.8156 41.7L705.175 39.746876L697.5031 39.746876L697.5031 37.403126L715.47186 37.403126ZM702.1906 48.496876L702.1906 51.075L711.01874 51.075L711.01874 48.496876L702.1906 48.496876ZM711.01874 46.3875L711.01874 43.809376L702.1906 43.809376L702.1906 46.3875L711.01874 46.3875ZM724.3 40.215626L718.51874 40.215626L718.51874 37.871876L735.8625 37.871876L735.8625 40.215626L726.72186 40.215626Q726.72186 41.559376 726.59686 42.871876L734.45624 42.871876Q734.45624 48.3875 733.58124 51.3875Q732.89374 53.8875 730.47186 53.8875L727.15936 53.8875L726.7375 51.54375L729.925 51.54375Q731.01874 51.54375 731.26874 50.66875Q731.8781 48.60625 731.95624 45.215626L726.26874 45.215626Q725.05 51.04375 719.7531 53.903126L718.22186 51.653126Q724.3 48.621876 724.3 41.23125L724.3 40.215626ZM755.47186 52.403126Q755.47186 53.965626 753.90936 53.965626L751.64374 53.965626L751.0031 51.621876L753.05 51.621876Q753.05 51.621876 753.05 51.621876L753.05 46.7L742.1906 46.7L742.1906 54.04375L739.76874 54.04375L739.76874 37.559376L755.47186 37.559376L755.47186 52.403126ZM753.05 39.66875L748.675 39.66875L748.675 44.590626L753.05 44.590626L753.05 39.66875ZM742.1906 39.66875L742.1906 44.590626L746.4875 44.590626L746.4875 39.66875L742.1906 39.66875Z" fill-rule="nonzero"/><path fill="#757575" d="M758.72186 57.153126Q759.53436 55.41875 759.8625 54.48125Q760.20624 53.559376 760.4875 52.35625Q760.76874 51.1375 760.89374 50.059376Q761.03436 48.965626 761.03436 47.825Q761.03436 45.496876 760.53436 43.41875Q760.05 41.340626 758.70624 38.3875L760.5656 38.3875Q762.05 40.48125 762.8625 42.840626Q763.675 45.2 763.675 47.621876Q763.675 49.653126 763.03436 51.996876Q762.3 54.60625 760.6125 57.153126L758.72186 57.153126Z" fill-rule="nonzero"/></svg>