<svg version="1.1" viewBox="0.0 0.0 782.0 668.0" fill="none" stroke="none" stroke-linecap="square" stroke-miterlimit="10" width="782" height="668" xmlns:xlink="http://www.w3.org/1999/xlink" xmlns="http://www.w3.org/2000/svg"><path fill="#ffffff" d="M0 0L782.0 0L782.0 668.0L0 668.0L0 0Z" fill-rule="nonzero"/><path stroke="#333333" stroke-width="1.0" stroke-linecap="butt" d="M99.5 537.5L748.5 537.5" fill-rule="nonzero"/><path stroke="#cccccc" stroke-width="1.0" stroke-linecap="butt" d="M99.5 438.5L748.5 438.5" fill-rule="nonzero"/><path stroke="#cccccc" stroke-width="1.0" stroke-linecap="butt" d="M99.5 340.5L748.5 340.5" fill-rule="nonzero"/><path stroke="#cccccc" stroke-width="1.0" stroke-linecap="butt" d="M99.5 241.5L748.5 241.5" fill-rule="nonzero"/><path stroke="#cccccc" stroke-width="1.0" stroke-linecap="butt" d="M99.5 143.5L748.5 143.5" fill-rule="nonzero"/><clipPath id="id_0"><path d="M99.4 143.43333L748.6 143.43333L748.6 537.26624L99.4 537.26624L99.4 143.43333Z" clip-rule="nonzero"/></clipPath><path stroke="#000000" stroke-width="2.0" stroke-linecap="butt" stroke-opacity="0.0" clip-path="url(#id_0)" d="M201.0 537.0L135.0 537.0L135.0 523.0L201.0 523.0Z" fill-rule="nonzero"/><path fill="#4285f4" clip-path="url(#id_0)" d="M201.0 537.0L135.0 537.0L135.0 523.0L201.0 523.0Z" fill-rule="nonzero"/><path stroke="#000000" stroke-width="2.0" stroke-linecap="butt" stroke-opacity="0.0" clip-path="url(#id_0)" d="M304.0 537.0L238.0 537.0L238.0 484.0L304.0 484.0Z" fill-rule="nonzero"/><path fill="#4285f4" clip-path="url(#id_0)" d="M304.0 537.0L238.0 537.0L238.0 484.0L304.0 484.0Z" fill-rule="nonzero"/><path stroke="#000000" stroke-width="2.0" stroke-linecap="butt" stroke-opacity="0.0" clip-path="url(#id_0)" d="M406.0 537.0L340.0 537.0L340.0 449.0L406.0 449.0Z" fill-rule="nonzero"/><path fill="#4285f4" clip-path="url(#id_0)" d="M406.0 537.0L340.0 537.0L340.0 449.0L406.0 449.0Z" fill-rule="nonzero"/><path stroke="#000000" stroke-width="2.0" stroke-linecap="butt" stroke-opacity="0.0" clip-path="url(#id_0)" d="M508.0 537.0L442.0 537.0L442.0 382.0L508.0 382.0Z" fill-rule="nonzero"/><path fill="#4285f4" clip-path="url(#id_0)" d="M508.0 537.0L442.0 537.0L442.0 382.0L508.0 382.0Z" fill-rule="nonzero"/><path stroke="#000000" stroke-width="2.0" stroke-linecap="butt" stroke-opacity="0.0" clip-path="url(#id_0)" d="M610.0 537.0L544.0 537.0L544.0 295.0L610.0 295.0Z" fill-rule="nonzero"/><path fill="#4285f4" clip-path="url(#id_0)" d="M610.0 537.0L544.0 537.0L544.0 295.0L610.0 295.0Z" fill-rule="nonzero"/><path stroke="#000000" stroke-width="2.0" stroke-linecap="butt" stroke-opacity="0.0" clip-path="url(#id_0)" d="M713.0 537.0L647.0 537.0L647.0 256.0L713.0 256.0Z" fill-rule="nonzero"/><path fill="#4285f4" clip-path="url(#id_0)" d="M713.0 537.0L647.0 537.0L647.0 256.0L713.0 256.0Z" fill-rule="nonzero"/><path stroke="#000000" stroke-width="2.0" stroke-linecap="butt" stroke-opacity="0.0" clip-path="url(#id_0)" d="M201.0 523.0L135.0 523.0L135.0 523.0L201.0 523.0Z" fill-rule="nonzero"/><path fill="#f39800" clip-path="url(#id_0)" d="M201.0 523.0L135.0 523.0L135.0 523.0L201.0 523.0Z" fill-rule="nonzero"/><path stroke="#000000" stroke-width="2.0" stroke-linecap="butt" stroke-opacity="0.0" clip-path="url(#id_0)" d="M304.0 484.0L238.0 484.0L238.0 484.0L304.0 484.0Z" fill-rule="nonzero"/><path fill="#f39800" clip-path="url(#id_0)" d="M304.0 484.0L238.0 484.0L238.0 484.0L304.0 484.0Z" fill-rule="nonzero"/><path stroke="#000000" stroke-width="2.0" stroke-linecap="butt" stroke-opacity="0.0" clip-path="url(#id_0)" d="M406.0 449.0L340.0 449.0L340.0 443.0C340.0 441.89542 340.89542 441.0 342.0 441.0L404.0 441.0C405.10458 441.0 406.0 441.89542 406.0 443.0Z" fill-rule="nonzero"/><path fill="#f39800" clip-path="url(#id_0)" d="M406.0 449.0L340.0 449.0L340.0 443.0C340.0 441.89542 340.89542 441.0 342.0 441.0L404.0 441.0C405.10458 441.0 406.0 441.89542 406.0 443.0Z" fill-rule="nonzero"/><path stroke="#000000" stroke-width="2.0" stroke-linecap="butt" stroke-opacity="0.0" clip-path="url(#id_0)" d="M508.0 382.0L442.0 382.0L442.0 305.0C442.0 303.89542 442.89542 303.0 444.0 303.0L506.0 303.0C507.10458 303.0 508.0 303.89542 508.0 305.0Z" fill-rule="nonzero"/><path fill="#f39800" clip-path="url(#id_0)" d="M508.0 382.0L442.0 382.0L442.0 305.0C442.0 303.89542 442.89542 303.0 444.0 303.0L506.0 303.0C507.10458 303.0 508.0 303.89542 508.0 305.0Z" fill-rule="nonzero"/><path stroke="#000000" stroke-width="2.0" stroke-linecap="butt" stroke-opacity="0.0" clip-path="url(#id_0)" d="M610.0 295.0L544.0 295.0L544.0 167.0C544.0 165.89543 544.89545 165.0 546.0 165.0L608.0 165.0C609.10455 165.0 610.0 165.89543 610.0 167.0Z" fill-rule="nonzero"/><path fill="#f39800" clip-path="url(#id_0)" d="M610.0 295.0L544.0 295.0L544.0 167.0C544.0 165.89543 544.89545 165.0 546.0 165.0L608.0 165.0C609.10455 165.0 610.0 165.89543 610.0 167.0Z" fill-rule="nonzero"/><path stroke="#000000" stroke-width="2.0" stroke-linecap="butt" stroke-opacity="0.0" clip-path="url(#id_0)" d="M713.0 256.0L647.0 256.0L647.0 256.0L713.0 256.0Z" fill-rule="nonzero"/><path fill="#f39800" clip-path="url(#id_0)" d="M713.0 256.0L647.0 256.0L647.0 256.0L713.0 256.0Z" fill-rule="nonzero"/><path stroke="#ffffff" stroke-width="3.0" stroke-linejoin="round" stroke-linecap="round" d="M159.53125 458.654L159.53125 454.06024L176.42188 454.06024L176.42188 457.654Q174.32812 459.70087 172.15625 463.56024Q170.0 467.404 168.85938 471.74774Q167.73438 476.07587 167.75 479.48212L163.0 479.48212Q163.10938 474.13837 165.1875 468.5915Q167.28125 463.029 170.76562 458.654L159.53125 458.654Z" fill-rule="nonzero"/><path fill="#4285f4" d="M159.53125 458.654L159.53125 454.06024L176.42188 454.06024L176.42188 457.654Q174.32812 459.70087 172.15625 463.56024Q170.0 467.404 168.85938 471.74774Q167.73438 476.07587 167.75 479.48212L163.0 479.48212Q163.10938 474.13837 165.1875 468.5915Q167.28125 463.029 170.76562 458.654L159.53125 458.654Z" fill-rule="nonzero"/><path stroke="#ffffff" stroke-width="3.0" stroke-linejoin="round" stroke-linecap="round" d="M269.21875 435.50507L269.21875 440.09882L251.89062 440.09882Q252.17188 437.48944 253.57812 435.16132Q254.98438 432.8332 259.14062 428.98944Q262.48438 425.88007 263.23438 424.7707Q264.25 423.23944 264.25 421.73944Q264.25 420.09882 263.35938 419.2082Q262.48438 418.31757 260.92188 418.31757Q259.375 418.31757 258.45312 419.25507Q257.54688 420.17694 257.40625 422.34882L252.48438 421.84882Q252.92188 417.7707 255.23438 416.00507Q257.5625 414.22382 261.03125 414.22382Q264.85938 414.22382 267.03125 416.28632Q269.21875 418.3332 269.21875 421.3957Q269.21875 423.13007 268.59375 424.7082Q267.96875 426.28632 266.60938 428.00507Q265.71875 429.1457 263.375 431.30194Q261.03125 433.44257 260.40625 434.1457Q259.79688 434.84882 259.40625 435.50507L269.21875 435.50507ZM272.53125 419.2707L272.53125 414.67694L289.42188 414.67694L289.42188 418.2707Q287.32812 420.31757 285.15625 424.17694Q283.0 428.0207 281.85938 432.36444Q280.73438 436.69257 280.75 440.09882L276.0 440.09882Q276.10938 434.75507 278.1875 429.2082Q280.28125 423.6457 283.76562 419.2707L272.53125 419.2707Z" fill-rule="nonzero"/><path fill="#4285f4" d="M269.21875 435.50507L269.21875 440.09882L251.89062 440.09882Q252.17188 437.48944 253.57812 435.16132Q254.98438 432.8332 259.14062 428.98944Q262.48438 425.88007 263.23438 424.7707Q264.25 423.23944 264.25 421.73944Q264.25 420.09882 263.35938 419.2082Q262.48438 418.31757 260.92188 418.31757Q259.375 418.31757 258.45312 419.25507Q257.54688 420.17694 257.40625 422.34882L252.48438 421.84882Q252.92188 417.7707 255.23438 416.00507Q257.5625 414.22382 261.03125 414.22382Q264.85938 414.22382 267.03125 416.28632Q269.21875 418.3332 269.21875 421.3957Q269.21875 423.13007 268.59375 424.7082Q267.96875 426.28632 266.60938 428.00507Q265.71875 429.1457 263.375 431.30194Q261.03125 433.44257 260.40625 434.1457Q259.79688 434.84882 259.40625 435.50507L269.21875 435.50507ZM272.53125 419.2707L272.53125 414.67694L289.42188 414.67694L289.42188 418.2707Q287.32812 420.31757 285.15625 424.17694Q283.0 428.0207 281.85938 432.36444Q280.73438 436.69257 280.75 440.09882L276.0 440.09882Q276.10938 434.75507 278.1875 429.2082Q280.28125 423.6457 283.76562 419.2707L272.53125 419.2707Z" fill-rule="nonzero"/><path stroke="#ffffff" stroke-width="3.0" stroke-linejoin="round" stroke-linecap="round" d="M562.3967 156.58485L557.4592 156.58485L557.4592 137.97548Q554.7405 140.50673 551.0686 141.70985L551.0686 137.22548Q553.0061 136.60048 555.2717 134.83485Q557.53735 133.06923 558.3811 130.70985L562.3967 130.70985L562.3967 156.58485ZM569.8655 150.63173L574.6467 150.10048Q574.8186 151.5536 575.553 152.25673Q576.28735 152.95985 577.5061 152.95985Q579.03735 152.95985 580.09985 151.5536Q581.178 150.14735 581.47485 145.72548Q579.6155 147.88173 576.8186 147.88173Q573.78735 147.88173 571.5686 145.53798Q569.3655 143.19423 569.3655 139.4286Q569.3655 135.50673 571.6936 133.1161Q574.0217 130.70985 577.6311 130.70985Q581.553 130.70985 584.0686 133.7411Q586.5842 136.77235 586.5842 143.70985Q586.5842 150.78798 583.9592 153.91298Q581.3342 157.03798 577.1311 157.03798Q574.1155 157.03798 572.2405 155.4286Q570.3811 153.81923 569.8655 150.63173ZM581.03735 139.83485Q581.03735 137.44423 579.9436 136.13173Q578.84985 134.8036 577.3967 134.8036Q576.03735 134.8036 575.1311 135.88173Q574.22485 136.95985 574.22485 139.4286Q574.22485 141.9286 575.2092 143.10048Q576.1936 144.25673 577.66235 144.25673Q579.0842 144.25673 580.053 143.13173Q581.03735 142.00673 581.03735 139.83485ZM598.09985 130.70985Q601.84985 130.70985 603.9592 133.38173Q606.47485 136.53798 606.47485 143.88173Q606.47485 151.19423 603.9436 154.38173Q601.84985 157.02235 598.09985 157.02235Q594.34985 157.02235 592.03735 154.13173Q589.7405 151.2411 589.7405 143.81923Q589.7405 136.53798 592.2717 133.35048Q594.3655 130.70985 598.09985 130.70985ZM598.09985 134.8036Q597.2092 134.8036 596.5061 135.38173Q595.803 135.94423 595.41235 137.4286Q594.91235 139.33485 594.91235 143.88173Q594.91235 148.41298 595.3655 150.1161Q595.8186 151.8036 596.5061 152.3661Q597.2092 152.9286 598.09985 152.9286Q599.0061 152.9286 599.7092 152.3661Q600.41235 151.78798 600.78735 150.3036Q601.303 148.41298 601.303 143.88173Q601.303 139.33485 600.84985 137.64735Q600.3967 135.94423 599.6936 135.38173Q599.0061 134.8036 598.09985 134.8036Z" fill-rule="nonzero"/><path fill="#4285f4" d="M562.3967 156.58485L557.4592 156.58485L557.4592 137.97548Q554.7405 140.50673 551.0686 141.70985L551.0686 137.22548Q553.0061 136.60048 555.2717 134.83485Q557.53735 133.06923 558.3811 130.70985L562.3967 130.70985L562.3967 156.58485ZM569.8655 150.63173L574.6467 150.10048Q574.8186 151.5536 575.553 152.25673Q576.28735 152.95985 577.5061 152.95985Q579.03735 152.95985 580.09985 151.5536Q581.178 150.14735 581.47485 145.72548Q579.6155 147.88173 576.8186 147.88173Q573.78735 147.88173 571.5686 145.53798Q569.3655 143.19423 569.3655 139.4286Q569.3655 135.50673 571.6936 133.1161Q574.0217 130.70985 577.6311 130.70985Q581.553 130.70985 584.0686 133.7411Q586.5842 136.77235 586.5842 143.70985Q586.5842 150.78798 583.9592 153.91298Q581.3342 157.03798 577.1311 157.03798Q574.1155 157.03798 572.2405 155.4286Q570.3811 153.81923 569.8655 150.63173ZM581.03735 139.83485Q581.03735 137.44423 579.9436 136.13173Q578.84985 134.8036 577.3967 134.8036Q576.03735 134.8036 575.1311 135.88173Q574.22485 136.95985 574.22485 139.4286Q574.22485 141.9286 575.2092 143.10048Q576.1936 144.25673 577.66235 144.25673Q579.0842 144.25673 580.053 143.13173Q581.03735 142.00673 581.03735 139.83485ZM598.09985 130.70985Q601.84985 130.70985 603.9592 133.38173Q606.47485 136.53798 606.47485 143.88173Q606.47485 151.19423 603.9436 154.38173Q601.84985 157.02235 598.09985 157.02235Q594.34985 157.02235 592.03735 154.13173Q589.7405 151.2411 589.7405 143.81923Q589.7405 136.53798 592.2717 133.35048Q594.3655 130.70985 598.09985 130.70985ZM598.09985 134.8036Q597.2092 134.8036 596.5061 135.38173Q595.803 135.94423 595.41235 137.4286Q594.91235 139.33485 594.91235 143.88173Q594.91235 148.41298 595.3655 150.1161Q595.8186 151.8036 596.5061 152.3661Q597.2092 152.9286 598.09985 152.9286Q599.0061 152.9286 599.7092 152.3661Q600.41235 151.78798 600.78735 150.3036Q601.303 148.41298 601.303 143.88173Q601.303 139.33485 600.84985 137.64735Q600.3967 135.94423 599.6936 135.38173Q599.0061 134.8036 598.09985 134.8036Z" fill-rule="nonzero"/><path stroke="#ffffff" stroke-width="3.0" stroke-linejoin="round" stroke-linecap="round" d="M664.1719 211.67572L659.2344 211.67572L659.2344 193.06635Q656.5156 195.5976 652.84375 196.80072L652.84375 192.31635Q654.78125 191.69135 657.0469 189.92572Q659.3125 188.1601 660.15625 185.80072L664.1719 185.80072L664.1719 211.67572ZM681.21875 211.67572L681.21875 206.48822L670.6719 206.48822L670.6719 202.1601L681.84375 185.80072L686.0 185.80072L686.0 202.14447L689.2031 202.14447L689.2031 206.48822L686.0 206.48822L686.0 211.67572L681.21875 211.67572ZM681.21875 202.14447L681.21875 193.3476L675.2969 202.14447L681.21875 202.14447ZM691.3594 204.83197L696.1406 204.25385Q696.3594 206.08197 697.3594 207.05072Q698.375 208.01947 699.7969 208.01947Q701.3281 208.01947 702.3594 206.86322Q703.40625 205.69135 703.40625 203.7226Q703.40625 201.86322 702.40625 200.7851Q701.40625 199.69135 699.96875 199.69135Q699.0156 199.69135 697.7031 200.05072L698.25 196.0351Q700.25 196.08197 701.2969 195.1601Q702.3594 194.23822 702.3594 192.70697Q702.3594 191.4101 701.5781 190.64447Q700.8125 189.86322 699.53125 189.86322Q698.2656 189.86322 697.3594 190.73822Q696.46875 191.61322 696.28125 193.30072L691.71875 192.5351Q692.2031 190.19135 693.15625 188.80072Q694.1094 187.39447 695.8281 186.5976Q697.5469 185.80072 699.6719 185.80072Q703.3125 185.80072 705.5 188.11322Q707.3125 190.01947 707.3125 192.4101Q707.3125 195.80072 703.6094 197.81635Q705.8281 198.30072 707.1406 199.95697Q708.46875 201.5976 708.46875 203.94135Q708.46875 207.33197 705.9844 209.7226Q703.5156 212.11322 699.8281 212.11322Q696.3281 212.11322 694.0156 210.0976Q691.71875 208.08197 691.3594 204.83197Z" fill-rule="nonzero"/><path fill="#4285f4" d="M664.1719 211.67572L659.2344 211.67572L659.2344 193.06635Q656.5156 195.5976 652.84375 196.80072L652.84375 192.31635Q654.78125 191.69135 657.0469 189.92572Q659.3125 188.1601 660.15625 185.80072L664.1719 185.80072L664.1719 211.67572ZM681.21875 211.67572L681.21875 206.48822L670.6719 206.48822L670.6719 202.1601L681.84375 185.80072L686.0 185.80072L686.0 202.14447L689.2031 202.14447L689.2031 206.48822L686.0 206.48822L686.0 211.67572L681.21875 211.67572ZM681.21875 202.14447L681.21875 193.3476L675.2969 202.14447L681.21875 202.14447ZM691.3594 204.83197L696.1406 204.25385Q696.3594 206.08197 697.3594 207.05072Q698.375 208.01947 699.7969 208.01947Q701.3281 208.01947 702.3594 206.86322Q703.40625 205.69135 703.40625 203.7226Q703.40625 201.86322 702.40625 200.7851Q701.40625 199.69135 699.96875 199.69135Q699.0156 199.69135 697.7031 200.05072L698.25 196.0351Q700.25 196.08197 701.2969 195.1601Q702.3594 194.23822 702.3594 192.70697Q702.3594 191.4101 701.5781 190.64447Q700.8125 189.86322 699.53125 189.86322Q698.2656 189.86322 697.3594 190.73822Q696.46875 191.61322 696.28125 193.30072L691.71875 192.5351Q692.2031 190.19135 693.15625 188.80072Q694.1094 187.39447 695.8281 186.5976Q697.5469 185.80072 699.6719 185.80072Q703.3125 185.80072 705.5 188.11322Q707.3125 190.01947 707.3125 192.4101Q707.3125 195.80072 703.6094 197.81635Q705.8281 198.30072 707.1406 199.95697Q708.46875 201.5976 708.46875 203.94135Q708.46875 207.33197 705.9844 209.7226Q703.5156 212.11322 699.8281 212.11322Q696.3281 212.11322 694.0156 210.0976Q691.71875 208.08197 691.3594 204.83197Z" fill-rule="nonzero"/><path stroke="#ffffff" stroke-width="3.0" stroke-linejoin="round" stroke-linecap="round" d="M364.21875 396.7772L364.21875 391.5897L353.67188 391.5897L353.67188 387.26157L364.84375 370.9022L369.0 370.9022L369.0 387.24594L372.20312 387.24594L372.20312 391.5897L369.0 391.5897L369.0 396.7772L364.21875 396.7772ZM364.21875 387.24594L364.21875 378.44907L358.29688 387.24594L364.21875 387.24594ZM374.64062 390.82407L379.42188 390.29282Q379.59375 391.74594 380.32812 392.44907Q381.0625 393.1522 382.28125 393.1522Q383.8125 393.1522 384.875 391.74594Q385.95312 390.3397 386.25 385.91782Q384.39062 388.07407 381.59375 388.07407Q378.5625 388.07407 376.34375 385.73032Q374.14062 383.38657 374.14062 379.62094Q374.14062 375.69907 376.46875 373.30844Q378.79688 370.9022 382.40625 370.9022Q386.32812 370.9022 388.84375 373.93344Q391.35938 376.9647 391.35938 383.9022Q391.35938 390.98032 388.73438 394.10532Q386.10938 397.23032 381.90625 397.23032Q378.89062 397.23032 377.01562 395.62094Q375.15625 394.01157 374.64062 390.82407ZM385.8125 380.0272Q385.8125 377.63657 384.71875 376.32407Q383.625 374.99594 382.17188 374.99594Q380.8125 374.99594 379.90625 376.07407Q379.0 377.1522 379.0 379.62094Q379.0 382.12094 379.98438 383.29282Q380.96875 384.44907 382.4375 384.44907Q383.85938 384.44907 384.82812 383.32407Q385.8125 382.19907 385.8125 380.0272Z" fill-rule="nonzero"/><path fill="#4285f4" d="M364.21875 396.7772L364.21875 391.5897L353.67188 391.5897L353.67188 387.26157L364.84375 370.9022L369.0 370.9022L369.0 387.24594L372.20312 387.24594L372.20312 391.5897L369.0 391.5897L369.0 396.7772L364.21875 396.7772ZM364.21875 387.24594L364.21875 378.44907L358.29688 387.24594L364.21875 387.24594ZM374.64062 390.82407L379.42188 390.29282Q379.59375 391.74594 380.32812 392.44907Q381.0625 393.1522 382.28125 393.1522Q383.8125 393.1522 384.875 391.74594Q385.95312 390.3397 386.25 385.91782Q384.39062 388.07407 381.59375 388.07407Q378.5625 388.07407 376.34375 385.73032Q374.14062 383.38657 374.14062 379.62094Q374.14062 375.69907 376.46875 373.30844Q378.79688 370.9022 382.40625 370.9022Q386.32812 370.9022 388.84375 373.93344Q391.35938 376.9647 391.35938 383.9022Q391.35938 390.98032 388.73438 394.10532Q386.10938 397.23032 381.90625 397.23032Q378.89062 397.23032 377.01562 395.62094Q375.15625 394.01157 374.64062 390.82407ZM385.8125 380.0272Q385.8125 377.63657 384.71875 376.32407Q383.625 374.99594 382.17188 374.99594Q380.8125 374.99594 379.90625 376.07407Q379.0 377.1522 379.0 379.62094Q379.0 382.12094 379.98438 383.29282Q380.96875 384.44907 382.4375 384.44907Q383.85938 384.44907 384.82812 383.32407Q385.8125 382.19907 385.8125 380.0272Z" fill-rule="nonzero"/><path stroke="#ffffff" stroke-width="3.0" stroke-linejoin="round" stroke-linecap="round" d="M459.17188 258.93567L454.23438 258.93567L454.23438 240.3263Q451.51562 242.85754 447.84375 244.06067L447.84375 239.5763Q449.78125 238.9513 452.04688 237.18567Q454.3125 235.42004 455.15625 233.06067L459.17188 233.06067L459.17188 258.93567ZM479.17188 258.93567L474.23438 258.93567L474.23438 240.3263Q471.51562 242.85754 467.84375 244.06067L467.84375 239.5763Q469.78125 238.9513 472.04688 237.18567Q474.3125 235.42004 475.15625 233.06067L479.17188 233.06067L479.17188 258.93567ZM486.64062 252.98254L491.42188 252.4513Q491.59375 253.90442 492.32812 254.60754Q493.0625 255.31067 494.28125 255.31067Q495.8125 255.31067 496.875 253.90442Q497.95312 252.49817 498.25 248.0763Q496.39062 250.23254 493.59375 250.23254Q490.5625 250.23254 488.34375 247.8888Q486.14062 245.54504 486.14062 241.77942Q486.14062 237.85754 488.46875 235.46692Q490.79688 233.06067 494.40625 233.06067Q498.32812 233.06067 500.84375 236.09192Q503.35938 239.12317 503.35938 246.06067Q503.35938 253.1388 500.73438 256.2638Q498.10938 259.3888 493.90625 259.3888Q490.89062 259.3888 489.01562 257.77942Q487.15625 256.17004 486.64062 252.98254ZM497.8125 242.18567Q497.8125 239.79504 496.71875 238.48254Q495.625 237.15442 494.17188 237.15442Q492.8125 237.15442 491.90625 238.23254Q491.0 239.31067 491.0 241.77942Q491.0 244.27942 491.98438 245.4513Q492.96875 246.60754 494.4375 246.60754Q495.85938 246.60754 496.82812 245.48254Q497.8125 244.35754 497.8125 242.18567Z" fill-rule="nonzero"/><path fill="#4285f4" d="M459.17188 258.93567L454.23438 258.93567L454.23438 240.3263Q451.51562 242.85754 447.84375 244.06067L447.84375 239.5763Q449.78125 238.9513 452.04688 237.18567Q454.3125 235.42004 455.15625 233.06067L459.17188 233.06067L459.17188 258.93567ZM479.17188 258.93567L474.23438 258.93567L474.23438 240.3263Q471.51562 242.85754 467.84375 244.06067L467.84375 239.5763Q469.78125 238.9513 472.04688 237.18567Q474.3125 235.42004 475.15625 233.06067L479.17188 233.06067L479.17188 258.93567ZM486.64062 252.98254L491.42188 252.4513Q491.59375 253.90442 492.32812 254.60754Q493.0625 255.31067 494.28125 255.31067Q495.8125 255.31067 496.875 253.90442Q497.95312 252.49817 498.25 248.0763Q496.39062 250.23254 493.59375 250.23254Q490.5625 250.23254 488.34375 247.8888Q486.14062 245.54504 486.14062 241.77942Q486.14062 237.85754 488.46875 235.46692Q490.79688 233.06067 494.40625 233.06067Q498.32812 233.06067 500.84375 236.09192Q503.35938 239.12317 503.35938 246.06067Q503.35938 253.1388 500.73438 256.2638Q498.10938 259.3888 493.90625 259.3888Q490.89062 259.3888 489.01562 257.77942Q487.15625 256.17004 486.64062 252.98254ZM497.8125 242.18567Q497.8125 239.79504 496.71875 238.48254Q495.625 237.15442 494.17188 237.15442Q492.8125 237.15442 491.90625 238.23254Q491.0 239.31067 491.0 241.77942Q491.0 244.27942 491.98438 245.4513Q492.96875 246.60754 494.4375 246.60754Q495.85938 246.60754 496.82812 245.48254Q497.8125 244.35754 497.8125 242.18567Z" fill-rule="nonzero"/><path fill="#000000" d="M75.63438 526.20374Q78.75938 526.20374 80.50938 528.4225Q82.60313 531.0631 82.60313 537.1725Q82.60313 543.26624 80.49375 545.9381Q78.75938 548.1256 75.63438 548.1256Q72.49375 548.1256 70.57188 545.71936Q68.66563 543.3131 68.66563 537.1256Q68.66563 531.0631 70.775 528.40686Q72.50938 526.20374 75.63438 526.20374ZM75.63438 529.61Q74.88438 529.61 74.29063 530.09436Q73.7125 530.5631 73.38438 531.7975Q72.9625 533.39124 72.9625 537.1725Q72.9625 540.95374 73.3375 542.3756Q73.72813 543.78186 74.30625 544.2506Q74.88438 544.71936 75.63438 544.71936Q76.38438 544.71936 76.9625 544.2506Q77.55625 543.76624 77.86875 542.53186Q78.30625 540.95374 78.30625 537.1725Q78.30625 533.39124 77.91563 531.985Q77.54063 530.5631 76.9625 530.09436Q76.38438 529.61 75.63438 529.61Z" fill-rule="nonzero"/><path fill="#000000" d="M51.728127 443.7924L55.8375 443.3549Q56.009377 444.7455 56.86875 445.558Q57.74375 446.3705 58.86875 446.3705Q60.15 446.3705 61.040627 445.32364Q61.946877 444.27676 61.946877 442.1674Q61.946877 440.19864 61.05625 439.21426Q60.165627 438.21426 58.74375 438.21426Q56.978127 438.21426 55.571877 439.7924L52.228127 439.308L54.3375 428.1205L65.22813 428.1205L65.22813 431.9799L57.4625 431.9799L56.821877 435.6205Q58.196877 434.933 59.634377 434.933Q62.36875 434.933 64.275 436.933Q66.18125 438.9174 66.18125 442.1049Q66.18125 444.7455 64.63438 446.83926Q62.540627 449.6674 58.821877 449.6674Q55.853127 449.6674 53.978127 448.07364Q52.103127 446.4799 51.728127 443.7924ZM75.63438 427.7455Q78.75938 427.7455 80.50938 429.96426Q82.60313 432.6049 82.60313 438.71426Q82.60313 444.808 80.49375 447.4799Q78.75938 449.6674 75.63438 449.6674Q72.49375 449.6674 70.57188 447.26114Q68.66563 444.8549 68.66563 438.6674Q68.66563 432.6049 70.775 429.94864Q72.50938 427.7455 75.63438 427.7455ZM75.63438 431.15176Q74.88438 431.15176 74.29063 431.63614Q73.7125 432.1049 73.38438 433.33926Q72.9625 434.933 72.9625 438.71426Q72.9625 442.4955 73.3375 443.9174Q73.72813 445.32364 74.30625 445.7924Q74.88438 446.26114 75.63438 446.26114Q76.38438 446.26114 76.9625 445.7924Q77.55625 445.308 77.86875 444.07364Q78.30625 442.4955 78.30625 438.71426Q78.30625 434.933 77.91563 433.52676Q77.54063 432.1049 76.9625 431.63614Q76.38438 431.15176 75.63438 431.15176Z" fill-rule="nonzero"/><path fill="#000000" d="M45.2125 350.8498L41.0875 350.8498L41.0875 335.33417Q38.8375 337.44354 35.775 338.45917L35.775 334.7248Q37.384377 334.19354 39.275 332.7248Q41.165627 331.25604 41.86875 329.2873L45.2125 329.2873L45.2125 350.8498ZM58.634377 329.2873Q61.759377 329.2873 63.509377 331.50604Q65.60313 334.14667 65.60313 340.25604Q65.60313 346.3498 63.49375 349.02167Q61.759377 351.20917 58.634377 351.20917Q55.49375 351.20917 53.571877 348.80292Q51.665627 346.39667 51.665627 340.20917Q51.665627 334.14667 53.775 331.49042Q55.509377 329.2873 58.634377 329.2873ZM58.634377 332.69354Q57.884377 332.69354 57.290627 333.17792Q56.7125 333.64667 56.384377 334.88104Q55.9625 336.4748 55.9625 340.25604Q55.9625 344.0373 56.3375 345.45917Q56.728127 346.86542 57.30625 347.33417Q57.884377 347.80292 58.634377 347.80292Q59.384377 347.80292 59.9625 347.33417Q60.55625 346.8498 60.86875 345.61542Q61.30625 344.0373 61.30625 340.25604Q61.30625 336.4748 60.915627 335.06854Q60.540627 333.64667 59.9625 333.17792Q59.384377 332.69354 58.634377 332.69354ZM75.63438 329.2873Q78.75938 329.2873 80.50938 331.50604Q82.60313 334.14667 82.60313 340.25604Q82.60313 346.3498 80.49375 349.02167Q78.75938 351.20917 75.63438 351.20917Q72.49375 351.20917 70.57188 348.80292Q68.66563 346.39667 68.66563 340.20917Q68.66563 334.14667 70.775 331.49042Q72.50938 329.2873 75.63438 329.2873ZM75.63438 332.69354Q74.88438 332.69354 74.29063 333.17792Q73.7125 333.64667 73.38438 334.88104Q72.9625 336.4748 72.9625 340.25604Q72.9625 344.0373 73.3375 345.45917Q73.72813 346.86542 74.30625 347.33417Q74.88438 347.80292 75.63438 347.80292Q76.38438 347.80292 76.9625 347.33417Q77.55625 346.8498 77.86875 345.61542Q78.30625 344.0373 78.30625 340.25604Q78.30625 336.4748 77.91563 335.06854Q77.54063 333.64667 76.9625 333.17792Q76.38438 332.69354 75.63438 332.69354Z" fill-rule="nonzero"/><path fill="#000000" d="M45.2125 252.39157L41.0875 252.39157L41.0875 236.87595Q38.8375 238.98532 35.775 240.00095L35.775 236.26657Q37.384377 235.73532 39.275 234.26657Q41.165627 232.79782 41.86875 230.82907L45.2125 230.82907L45.2125 252.39157ZM51.728127 246.87595L55.8375 246.43845Q56.009377 247.82907 56.86875 248.64157Q57.74375 249.45407 58.86875 249.45407Q60.15 249.45407 61.040627 248.4072Q61.946877 247.36032 61.946877 245.25095Q61.946877 243.2822 61.05625 242.29782Q60.165627 241.29782 58.74375 241.29782Q56.978127 241.29782 55.571877 242.87595L52.228127 242.39157L54.3375 231.20407L65.22813 231.20407L65.22813 235.06345L57.4625 235.06345L56.821877 238.70407Q58.196877 238.01657 59.634377 238.01657Q62.36875 238.01657 64.275 240.01657Q66.18125 242.00095 66.18125 245.18845Q66.18125 247.82907 64.63438 249.92282Q62.540627 252.75095 58.821877 252.75095Q55.853127 252.75095 53.978127 251.1572Q52.103127 249.56345 51.728127 246.87595ZM75.63438 230.82907Q78.75938 230.82907 80.50938 233.04782Q82.60313 235.68845 82.60313 241.79782Q82.60313 247.89157 80.49375 250.56345Q78.75938 252.75095 75.63438 252.75095Q72.49375 252.75095 70.57188 250.3447Q68.66563 247.93845 68.66563 241.75095Q68.66563 235.68845 70.775 233.0322Q72.50938 230.82907 75.63438 230.82907ZM75.63438 234.23532Q74.88438 234.23532 74.29063 234.7197Q73.7125 235.18845 73.38438 236.42282Q72.9625 238.01657 72.9625 241.79782Q72.9625 245.57907 73.3375 247.00095Q73.72813 248.4072 74.30625 248.87595Q74.88438 249.3447 75.63438 249.3447Q76.38438 249.3447 76.9625 248.87595Q77.55625 248.39157 77.86875 247.1572Q78.30625 245.57907 78.30625 241.79782Q78.30625 238.01657 77.91563 236.61032Q77.54063 235.18845 76.9625 234.7197Q76.38438 234.23532 75.63438 234.23532Z" fill-rule="nonzero"/><path fill="#000000" d="M48.571877 150.10521L48.571877 153.93333L34.15 153.93333Q34.384377 151.76146 35.55625 149.82396Q36.728127 147.88646 40.18125 144.66771Q42.9625 142.08958 43.603127 141.15208Q44.446877 139.88646 44.446877 138.63646Q44.446877 137.26146 43.696877 136.52708Q42.9625 135.77708 41.665627 135.77708Q40.36875 135.77708 39.603127 136.55833Q38.853127 137.33958 38.728127 139.13646L34.634377 138.73021Q34.99375 135.32396 36.93125 133.85521Q38.86875 132.37083 41.759377 132.37083Q44.946877 132.37083 46.759377 134.08958Q48.571877 135.79271 48.571877 138.33958Q48.571877 139.79271 48.05625 141.10521Q47.540627 142.41771 46.415627 143.85521Q45.665627 144.80833 43.7125 146.60521Q41.759377 148.38646 41.24375 148.98021Q40.728127 149.55833 40.4 150.10521L48.571877 150.10521ZM58.634377 132.37083Q61.759377 132.37083 63.509377 134.58958Q65.60313 137.23021 65.60313 143.33958Q65.60313 149.43333 63.49375 152.10521Q61.759377 154.29271 58.634377 154.29271Q55.49375 154.29271 53.571877 151.88646Q51.665627 149.48021 51.665627 143.29271Q51.665627 137.23021 53.775 134.57396Q55.509377 132.37083 58.634377 132.37083ZM58.634377 135.77708Q57.884377 135.77708 57.290627 136.26146Q56.7125 136.73021 56.384377 137.96458Q55.9625 139.55833 55.9625 143.33958Q55.9625 147.12083 56.3375 148.54271Q56.728127 149.94896 57.30625 150.41771Q57.884377 150.88646 58.634377 150.88646Q59.384377 150.88646 59.9625 150.41771Q60.55625 149.93333 60.86875 148.69896Q61.30625 147.12083 61.30625 143.33958Q61.30625 139.55833 60.915627 138.15208Q60.540627 136.73021 59.9625 136.26146Q59.384377 135.77708 58.634377 135.77708ZM75.63438 132.37083Q78.75938 132.37083 80.50938 134.58958Q82.60313 137.23021 82.60313 143.33958Q82.60313 149.43333 80.49375 152.10521Q78.75938 154.29271 75.63438 154.29271Q72.49375 154.29271 70.57188 151.88646Q68.66563 149.48021 68.66563 143.29271Q68.66563 137.23021 70.775 134.57396Q72.50938 132.37083 75.63438 132.37083ZM75.63438 135.77708Q74.88438 135.77708 74.29063 136.26146Q73.7125 136.73021 73.38438 137.96458Q72.9625 139.55833 72.9625 143.33958Q72.9625 147.12083 73.3375 148.54271Q73.72813 149.94896 74.30625 150.41771Q74.88438 150.88646 75.63438 150.88646Q76.38438 150.88646 76.9625 150.41771Q77.55625 149.93333 77.86875 148.69896Q78.30625 147.12083 78.30625 143.33958Q78.30625 139.55833 77.91563 138.15208Q77.54063 136.73021 76.9625 136.26146Q76.38438 135.77708 75.63438 135.77708Z" fill-rule="nonzero"/><path fill="#000000" d="M126.270294 628.5896L128.97719 631.29645L118.77938 641.49426Q117.40936 639.7928 116.86798 637.5941Q116.3266 635.3955 116.49233 630.67773Q116.63596 626.8881 116.42604 625.7722Q116.12773 624.28064 115.24384 623.3968Q114.271576 622.4245 113.22196 622.43555Q112.17235 622.4245 111.25532 623.3415Q110.338295 624.25854 110.34934 625.35236Q110.37144 626.4351 111.553635 627.79407L108.37165 630.40155Q106.217186 627.73883 106.548645 625.33026Q106.86905 622.91064 108.91303 620.86664Q111.16693 618.61273 113.6639 618.54645Q116.149826 618.4691 117.95074 620.27Q118.97826 621.29755 119.541725 622.5902Q120.1052 623.8829 120.32617 625.6949Q120.4698 626.8992 120.35932 629.5508Q120.237785 632.1914 120.29303 632.9758Q120.33723 633.74927 120.491905 634.368L126.270294 628.5896ZM120.84546 608.9342Q123.05517 606.7245 125.861496 607.05597Q129.2092 607.4427 133.52919 611.76263Q137.83812 616.0716 138.23587 619.45245Q138.55627 622.2256 136.34656 624.4353Q134.12581 626.65607 131.06535 626.3136Q128.01596 625.96 123.64074 621.5848Q119.353905 617.298 118.9672 613.92816Q118.63575 611.1439 120.84546 608.9342ZM123.254036 611.3428Q122.72371 611.8731 122.64637 612.6355Q122.56903 613.37573 123.20985 614.4806Q124.03848 615.9058 126.712234 618.5796Q129.38599 621.25336 130.65657 621.9936Q131.92714 622.71173 132.6674 622.6344Q133.40765 622.55707 133.93799 622.02673Q134.4683 621.4964 134.54565 620.75616Q134.62299 619.99384 133.97113 618.9Q133.16458 617.47473 130.49083 614.801Q127.817085 612.12726 126.54651 611.4091Q125.275925 610.6688 124.53567 610.74615Q123.78437 610.8125 123.254036 611.3428ZM150.64337 609.63025L147.72656 612.5471L136.75536 601.57587Q136.65593 604.65845 135.20856 607.5421L132.56796 604.9015Q133.3303 603.3879 133.62862 601.0124Q133.92693 598.63696 133.032 596.7477L135.3964 594.3833L150.64337 609.63025ZM151.75928 601.4875L154.2673 598.3608Q155.23958 599.11206 156.09032 599.101Q156.93 599.0789 157.64815 598.3608Q158.55414 597.4548 158.35526 595.9964Q158.15639 594.53796 155.72571 591.7537Q155.90248 594.1181 154.24521 595.7754Q152.45534 597.56525 149.77054 597.4879Q147.0968 597.39954 144.87604 595.1788Q142.5669 592.8696 142.5227 590.0854Q142.4785 587.30115 144.61087 585.1688Q146.92001 582.8597 150.19038 583.169Q153.4497 583.46735 157.54872 587.56635Q161.71402 591.7316 162.01233 595.12354Q162.29959 598.5044 159.82472 600.97925Q158.0459 602.75806 156.00192 602.9238Q153.95795 603.06744 151.75928 601.4875ZM151.9913 588.5497Q150.57709 587.13544 149.15182 587.0139Q147.72656 586.8703 146.87582 587.721Q146.06927 588.5276 146.17976 589.6987Q146.29025 590.8699 147.73761 592.3172Q149.20706 593.7867 150.47765 593.9082Q151.74823 594.0076 152.61002 593.1459Q153.4497 592.30615 153.36131 591.0687Q153.27293 589.8313 151.9913 588.5497Z" fill-rule="nonzero"/><path fill="#000000" d="M160.55392 573.86615Q161.66983 577.98724 161.10635 582.68286L157.50452 582.24097Q158.46574 576.0427 154.84183 569.81134L157.74759 568.1209Q159.49326 568.1209 158.57623 569.3031L159.19495 570.7394L170.71858 559.21576L172.96144 561.4586L166.91788 567.5022L169.07234 569.6566L174.04419 564.6848L176.276 566.9166L171.30415 571.8884L174.37566 574.95996L181.33623 567.9994L183.56804 570.2312L176.60745 577.1918L181.59035 582.1746L179.27016 584.4948L174.28726 579.51196L164.75237 589.0468L162.52057 586.81506L166.25497 583.0806L160.95168 577.77734L166.75215 571.97687L164.59769 569.8224L160.55392 573.86615ZM168.57516 580.76044L172.05545 577.28015L168.98396 574.2086L165.50366 577.68896L168.57516 580.76044Z" fill-rule="nonzero"/><path fill="#000000" d="M228.50652 628.5896L231.21341 631.29645L221.0156 641.49426Q219.64558 639.7928 219.1042 637.5941Q218.56282 635.3955 218.72855 630.67773Q218.87218 626.8881 218.66226 625.7722Q218.36395 624.28064 217.48007 623.3968Q216.5078 622.4245 215.45818 622.43555Q214.40857 622.4245 213.49155 623.3415Q212.57451 624.25854 212.58556 625.35236Q212.60767 626.4351 213.78986 627.79407L210.60788 630.40155Q208.4534 627.73883 208.78487 625.33026Q209.10527 622.91064 211.14925 620.86664Q213.40315 618.61273 215.90013 618.54645Q218.38605 618.4691 220.18697 620.27Q221.21448 621.29755 221.77795 622.5902Q222.34143 623.8829 222.5624 625.6949Q222.70602 626.8992 222.59554 629.5508Q222.47401 632.1914 222.52925 632.9758Q222.57344 633.74927 222.72812 634.368L228.50652 628.5896ZM223.08168 608.9342Q225.29138 606.7245 228.09772 607.05597Q231.44542 607.4427 235.76541 611.76263Q240.07434 616.0716 240.47209 619.45245Q240.7925 622.2256 238.58278 624.4353Q236.36203 626.65607 233.30157 626.3136Q230.25218 625.96 225.87695 621.5848Q221.59012 617.298 221.20343 613.92816Q220.87196 611.1439 223.08168 608.9342ZM225.49026 611.3428Q224.95993 611.8731 224.88258 612.6355Q224.80525 613.37573 225.44606 614.4806Q226.2747 615.9058 228.94846 618.5796Q231.62221 621.25336 232.89279 621.9936Q234.16336 622.71173 234.90363 622.6344Q235.64388 622.55707 236.1742 622.02673Q236.70453 621.4964 236.78188 620.75616Q236.8592 619.99384 236.20735 618.9Q235.4008 617.47473 232.72705 614.80096Q230.05331 612.12726 228.78273 611.4091Q227.51215 610.6688 226.7719 610.74615Q226.02058 610.8125 225.49026 611.3428ZM252.54816 604.5479L255.25505 607.2548L245.05724 617.45264Q243.68721 615.75116 243.14583 613.5525Q242.60446 611.3538 242.77019 606.6361Q242.91382 602.84644 242.7039 601.7305Q242.4056 600.239 241.52171 599.3551Q240.54944 598.3829 239.49982 598.3939Q238.45021 598.3829 237.53319 599.29987Q236.61615 600.2169 236.6272 601.3107Q236.6493 602.3935 237.8315 603.75244L234.6495 606.3599Q232.49504 603.6972 232.8265 601.28864Q233.14691 598.86896 235.19089 596.825Q237.4448 594.5711 239.94177 594.5048Q242.42769 594.4275 244.2286 596.2284Q245.25612 597.2559 245.8196 598.5486Q246.38307 599.84125 246.60403 601.6532Q246.74767 602.8575 246.63718 605.50916Q246.51566 608.1498 246.57089 608.9342Q246.61508 609.7076 246.76976 610.3263L252.54816 604.5479ZM247.12332 584.8926Q249.33302 582.68286 252.13936 583.01434Q255.48706 583.401 259.80704 587.721Q264.11597 592.0299 264.51373 595.41077Q264.83414 598.18396 262.62442 600.3937Q260.40366 602.61444 257.34323 602.2719Q254.29382 601.9184 249.9186 597.54315Q245.63176 593.25635 245.24507 589.88654Q244.9136 587.1023 247.12332 584.8926ZM249.5319 587.30115Q249.00157 587.8315 248.92422 588.5938Q248.8469 589.3341 249.4877 590.43896Q250.31635 591.8642 252.9901 594.53796Q255.66385 597.21173 256.93442 597.95197Q258.20502 598.6701 258.94525 598.5928Q259.68552 598.51544 260.21585 597.9851Q260.7462 597.4548 260.82352 596.71454Q260.90085 595.95215 260.249 594.85834Q259.44244 593.4331 256.7687 590.75934Q254.09496 588.08563 252.82437 587.36743Q251.55379 586.6272 250.81354 586.7045Q250.06223 586.7708 249.5319 587.30115Z" fill-rule="nonzero"/><path fill="#000000" d="M262.79016 573.86615Q263.90607 577.98724 263.3426 582.68286L259.74075 582.2409Q260.70197 576.04266 257.07806 569.81134L259.98383 568.1209Q261.7295 568.1209 260.81247 569.3031L261.43118 570.7394L272.9548 559.21576L275.19766 561.4586L269.1541 567.5022L271.3086 569.6566L276.28043 564.6848L278.51224 566.9166L273.54037 571.8884L276.61188 574.95996L283.57248 567.9993L285.80426 570.23114L278.8437 577.1917L283.82657 582.1746L281.50638 584.4948L276.5235 579.51196L266.9886 589.0468L264.7568 586.815L268.4912 583.0806L263.1879 577.77734L268.98837 571.9768L266.83392 569.8224L262.79016 573.86615ZM270.8114 580.76044L274.2917 577.28015L271.22018 574.2086L267.7399 577.6889L270.8114 580.76044Z" fill-rule="nonzero"/><path fill="#000000" d="M330.74274 628.5896L333.44962 631.29645L323.25183 641.49426Q321.8818 639.7928 321.34042 637.5941Q320.79904 635.3955 320.96478 630.67773Q321.1084 626.8881 320.89847 625.7722Q320.60016 624.28064 319.71628 623.3968Q318.74402 622.4245 317.6944 622.43555Q316.6448 622.4245 315.72775 623.3415Q314.81073 624.25854 314.82178 625.35236Q314.84387 626.4351 316.02606 627.79407L312.8441 630.40155Q310.68964 627.73883 311.0211 625.33026Q311.3415 622.91064 313.38547 620.86664Q315.63937 618.61273 318.13635 618.54645Q320.62225 618.4691 322.4232 620.27Q323.45068 621.29755 324.01416 622.5902Q324.57764 623.8829 324.7986 625.6949Q324.94226 626.8992 324.83176 629.5508Q324.71024 632.1914 324.76547 632.9758Q324.80966 633.74927 324.96436 634.368L330.74274 628.5896ZM325.3179 608.9342Q327.52762 606.7245 330.33392 607.05597Q333.68164 607.4427 338.00162 611.76263Q342.31055 616.0716 342.7083 619.45245Q343.02872 622.2256 340.819 624.4353Q338.59824 626.65607 335.5378 626.3136Q332.4884 625.96 328.1132 621.5848Q323.82635 617.298 323.43964 613.92816Q323.1082 611.1439 325.3179 608.9342ZM327.72647 611.3428Q327.19614 611.8731 327.1188 612.6355Q327.04147 613.37573 327.68228 614.4806Q328.51093 615.9058 331.18466 618.5796Q333.85843 621.25336 335.129 621.9936Q336.3996 622.71173 337.13983 622.6344Q337.8801 622.55707 338.41043 622.02673Q338.94077 621.4964 339.0181 620.75616Q339.09543 619.99384 338.44357 618.9Q337.63702 617.47473 334.9633 614.80096Q332.28952 612.12726 331.01895 611.4091Q329.74835 610.6688 329.00812 610.74615Q328.2568 610.8125 327.72647 611.3428ZM354.78436 604.548L357.49127 607.2548L347.29346 617.45264Q345.92343 615.75116 345.38205 613.5525Q344.84067 611.3538 345.0064 606.6361Q345.15002 602.8465 344.94012 601.7306Q344.6418 600.239 343.7579 599.3551Q342.78564 598.3829 341.73602 598.3939Q340.68643 598.3829 339.76938 599.29987Q338.85236 600.2169 338.8634 601.3107Q338.8855 602.3935 340.06772 603.75244L336.8857 606.3599Q334.73126 603.6972 335.0627 601.28864Q335.38312 598.869 337.4271 596.825Q339.681 594.5711 342.17798 594.5048Q344.6639 594.4275 346.4648 596.2284Q347.49234 597.2559 348.0558 598.5486Q348.61926 599.84125 348.84024 601.6532Q348.9839 602.85754 348.87338 605.50916Q348.75186 608.1498 348.8071 608.9342Q348.8513 609.70764 349.00598 610.32635L354.78436 604.548ZM367.13663 597.60944L364.21982 600.5263L353.24863 589.55505Q353.14917 592.63763 351.7018 595.5213L349.06122 592.8807Q349.82358 591.367 350.1219 588.9916Q350.4202 586.61615 349.52527 584.72687L351.88965 582.3625L367.13663 597.60944Z" fill-rule="nonzero"/><path fill="#000000" d="M365.02637 573.86615Q366.14227 577.98724 365.5788 582.68286L361.97696 582.24097Q362.9382 576.0427 359.31427 569.81134L362.22003 568.1209Q363.9657 568.1209 363.04868 569.3031L363.6674 570.7394L375.191 559.21576L377.43387 561.4586L371.39032 567.5022L373.5448 569.6566L378.51663 564.6848L380.74844 566.9166L375.7766 571.8884L378.84808 574.95996L385.8087 567.9994L388.04047 570.23114L381.0799 577.1918L386.0628 582.1746L383.74258 584.4948L378.7597 579.51196L369.22482 589.0468L366.993 586.81506L370.72742 583.0806L365.4241 577.77734L371.2246 571.97687L369.07013 569.8224L365.02637 573.86615ZM373.0476 580.76044L376.5279 577.28015L373.4564 574.2086L369.9761 577.68896L373.0476 580.76044Z" fill-rule="nonzero"/><path fill="#000000" d="M432.97894 628.5896L435.68585 631.2965L425.48804 641.49426Q424.118 639.7928 423.57663 637.5942Q423.03525 635.3955 423.201 630.67773Q423.3446 626.8881 423.1347 625.7722Q422.8364 624.28064 421.95248 623.3968Q420.98022 622.4245 419.9306 622.43555Q418.881 622.4245 417.96396 623.34155Q417.04694 624.25854 417.05798 625.35236Q417.08008 626.4351 418.2623 627.79407L415.0803 630.40155Q412.92584 627.73883 413.2573 625.33026Q413.5777 622.91064 415.62167 620.86664Q417.87558 618.61273 420.37256 618.54645Q422.8585 618.4691 424.6594 620.27Q425.68692 621.29755 426.25037 622.5902Q426.81384 623.88293 427.03482 625.6949Q427.17847 626.8992 427.06796 629.5508Q426.94644 632.1914 427.00168 632.9758Q427.04587 633.74927 427.20056 634.368L432.97894 628.5896ZM427.5541 608.9342Q429.76382 606.72455 432.57016 607.05597Q435.91785 607.4427 440.23782 611.76263Q444.54678 616.0716 444.94452 619.45245Q445.26492 622.22565 443.0552 624.43536Q440.83447 626.65607 437.77402 626.3136Q434.7246 625.96 430.3494 621.58484Q426.06256 617.298 425.67584 613.92816Q425.3444 611.1439 427.5541 608.9342ZM429.96268 611.34283Q429.43237 611.87317 429.355 612.6355Q429.27768 613.37573 429.9185 614.4806Q430.74713 615.9059 433.4209 618.5796Q436.09464 621.25336 437.3652 621.9936Q438.6358 622.71173 439.37604 622.6344Q440.1163 622.55707 440.64664 622.02673Q441.17697 621.4964 441.2543 620.75616Q441.33163 619.99384 440.67978 618.9Q439.87323 617.47473 437.1995 614.801Q434.52573 612.12726 433.25516 611.4091Q431.9846 610.6688 431.24432 610.7462Q430.493 610.8125 429.96268 611.34283ZM457.02057 604.548L459.72748 607.2548L449.52966 617.45264Q448.15964 615.75116 447.61826 613.5525Q447.07687 611.3539 447.2426 606.6361Q447.38623 602.8465 447.17633 601.7306Q446.87802 600.239 445.99414 599.35516Q445.02185 598.3829 443.97226 598.3939Q442.92264 598.3829 442.0056 599.2999Q441.08856 600.2169 441.0996 601.3107Q441.12173 602.3935 442.30392 603.75244L439.12195 606.3599Q436.96747 603.6972 437.29892 601.28864Q437.61932 598.869 439.6633 596.825Q441.9172 594.5711 444.41418 594.5048Q446.90012 594.4275 448.70102 596.2284Q449.72855 597.2559 450.29202 598.5486Q450.8555 599.84125 451.07645 601.65326Q451.2201 602.85754 451.1096 605.50916Q450.98807 608.1498 451.0433 608.9342Q451.0875 609.70764 451.2422 610.32635L457.02057 604.548ZM469.04138 592.52716L471.7483 595.234L461.55048 605.4318Q460.18045 603.73035 459.63907 601.5317Q459.0977 599.33307 459.26343 594.6153Q459.40707 590.8257 459.19714 589.7098Q458.89883 588.2182 458.01495 587.33435Q457.04266 586.36206 455.99307 586.3731Q454.94345 586.36206 454.02643 587.27905Q453.10938 588.1961 453.12045 589.2899Q453.14255 590.3727 454.32474 591.7316L451.14276 594.3391Q448.98828 591.6764 449.31973 589.2678Q449.64014 586.8482 451.68414 584.8042Q453.93802 582.5503 456.435 582.484Q458.92093 582.4067 460.72183 584.2076Q461.74936 585.2351 462.31284 586.5278Q462.8763 587.82043 463.09726 589.63245Q463.2409 590.83673 463.13043 593.48834Q463.00888 596.12897 463.06412 596.9134Q463.1083 597.6868 463.263 598.30554L469.04138 592.52716Z" fill-rule="nonzero"/><path fill="#000000" d="M467.26257 573.86615Q468.37848 577.98724 467.815 582.68286L464.21317 582.24097Q465.1744 576.0427 461.55048 569.81134L464.45624 568.1209Q466.2019 568.1209 465.28488 569.3031L465.9036 570.73944L477.42725 559.21576L479.67007 561.4586L473.62653 567.5022L475.781 569.6567L480.75284 564.6848L482.98465 566.9166L478.01282 571.8885L481.0843 574.95996L488.0449 567.9994L490.2767 570.2312L483.3161 577.1918L488.299 582.1747L485.97882 584.4949L480.9959 579.51196L471.46103 589.0469L469.22922 586.81506L472.96362 583.0806L467.6603 577.77734L473.46082 571.97687L471.30634 569.8224L467.26257 573.86615ZM475.2838 580.76044L478.7641 577.28015L475.69263 574.2087L472.2123 577.68896L475.2838 580.76044Z" fill-rule="nonzero"/><path fill="#000000" d="M535.21515 628.5896L537.92206 631.2965L527.72424 641.4943Q526.35425 639.79285 525.81287 637.5942Q525.2715 635.3955 525.4372 630.6778Q525.5808 626.8881 525.3709 625.7722Q525.0726 624.28064 524.1887 623.3968Q523.21643 622.4245 522.1668 622.43555Q521.1172 622.4245 520.2002 623.34155Q519.28314 624.25854 519.2942 625.35236Q519.3163 626.4351 520.4985 627.7941L517.3165 630.40155Q515.16205 627.73883 515.4935 625.33026Q515.8139 622.91064 517.8579 620.86664Q520.1118 618.61273 522.60876 618.54645Q525.09467 618.4691 526.8956 620.27Q527.9231 621.29755 528.4866 622.5902Q529.05005 623.88293 529.27106 625.6949Q529.4147 626.8992 529.3042 629.55084Q529.1827 632.1914 529.2379 632.9759Q529.2821 633.74927 529.43677 634.368L535.21515 628.5896ZM529.79034 608.93427Q532.0 606.72455 534.80634 607.05597Q538.15405 607.4427 542.47406 611.7627Q546.78296 616.0716 547.1807 619.45245Q547.50116 622.22565 545.29144 624.43536Q543.0707 626.6561 540.0102 626.3136Q536.9608 625.96 532.5856 621.58484Q528.29877 617.298 527.91205 613.92816Q527.5806 611.1439 529.79034 608.93427ZM532.1989 611.34283Q531.6686 611.87317 531.59125 612.6355Q531.5139 613.37573 532.1547 614.4806Q532.98334 615.9059 535.6571 618.5796Q538.3309 621.25336 539.60144 621.9936Q540.872 622.7118 541.61224 622.63446Q542.35254 622.55707 542.8829 622.02673Q543.41315 621.49646 543.49054 620.75616Q543.5679 619.99384 542.916 618.9Q542.10944 617.47473 539.43567 614.801Q536.76196 612.12726 535.4914 611.4091Q534.22076 610.6689 533.4805 610.7462Q532.72925 610.8125 532.1989 611.34283ZM559.2568 604.548L561.9637 607.2549L551.76587 617.45264Q550.3959 615.75116 549.8545 613.55255Q549.3131 611.3539 549.4788 606.63617Q549.62244 602.8465 549.41254 601.7306Q549.1142 600.239 548.23035 599.35516Q547.25806 598.3829 546.20844 598.3939Q545.1588 598.3829 544.2418 599.2999Q543.32477 600.2169 543.3358 601.3107Q543.3579 602.3935 544.5401 603.75244L541.35815 606.3599Q539.2037 603.6972 539.53516 601.28864Q539.8555 598.869 541.89954 596.825Q544.15344 594.5711 546.6504 594.5048Q549.1363 594.4275 550.93726 596.2284Q551.9647 597.2559 552.5282 598.5486Q553.0917 599.8413 553.3127 601.65326Q553.4563 602.85754 553.3458 605.5092Q553.2243 608.1498 553.27954 608.93427Q553.3237 609.70764 553.4784 610.32635L559.2568 604.548ZM560.0191 601.134L562.494 597.97406Q563.70935 598.92426 564.86945 598.9132Q566.02954 598.88007 566.8692 598.04034Q567.7752 597.1344 567.6979 595.84174Q567.6316 594.53796 566.4715 593.37787Q565.3777 592.28406 564.14026 592.23987Q562.9139 592.18463 562.07416 593.02435Q561.5107 593.5878 560.9472 594.5711L558.90326 591.88635Q560.10754 590.72626 560.1849 589.56616Q560.2622 588.40607 559.3562 587.50006Q558.5939 586.73773 557.68787 586.73773Q556.7819 586.73773 556.01953 587.50006Q555.2793 588.2403 555.26825 589.2899Q555.24615 590.3285 556.13007 591.43335L552.99225 593.66516Q551.8874 592.0079 551.6333 590.62683Q551.3681 589.2347 551.9095 587.76526Q552.45087 586.2737 553.7104 585.01416Q555.8538 582.8707 558.51654 582.94806Q560.6931 583.0033 562.09625 584.4065Q564.09607 586.40625 563.11273 589.77606Q564.70374 588.7596 566.4494 588.9585Q568.2061 589.1463 569.5761 590.5163Q571.5759 592.5161 571.53174 595.38873Q571.4765 598.2503 569.2999 600.4269Q567.2449 602.4819 564.70374 602.6587Q562.16254 602.83545 560.0191 601.134Z" fill-rule="nonzero"/><path fill="#000000" d="M569.4988 573.86615Q570.6147 577.98724 570.0512 582.6829L566.4494 582.24097Q567.4106 576.0427 563.7867 569.81134L566.69244 568.1209Q568.4381 568.1209 567.5211 569.3031L568.13983 570.73944L579.66345 559.2158L581.9063 561.4586L575.86273 567.5022L578.0172 569.6567L582.9891 564.6848L585.2209 566.9166L580.249 571.8885L583.3205 574.95996L590.28107 567.9994L592.5129 570.2312L585.5523 577.1918L590.5352 582.1747L588.215 584.4949L583.2321 579.51196L573.6972 589.0469L571.46545 586.81506L575.1998 583.0806L569.89655 577.77734L575.697 571.97687L573.54254 569.8224L569.4988 573.86615ZM577.52 580.76044L581.0003 577.28015L577.92883 574.2087L574.44855 577.68896L577.52 580.76044Z" fill-rule="nonzero"/><path fill="#000000" d="M637.4514 628.58954L640.1583 631.29645L629.9605 641.49426Q628.59045 639.7928 628.0491 637.5941Q627.5077 635.39545 627.67346 630.67773Q627.8171 626.88806 627.6072 625.77216Q627.30884 624.28064 626.425 623.3967Q625.4527 622.4245 624.4031 622.43555Q623.35345 622.4245 622.43646 623.3415Q621.5194 624.25854 621.53046 625.35236Q621.55255 626.4351 622.73474 627.79407L619.5528 630.40155Q617.3983 627.73883 617.72974 625.33026Q618.0502 622.9106 620.0941 620.86664Q622.348 618.61273 624.84503 618.54645Q627.33093 618.4691 629.13184 620.27Q630.15936 621.29755 630.72284 622.5902Q631.2863 623.8829 631.50726 625.6948Q631.65094 626.8991 631.54047 629.5508Q631.4189 632.1914 631.4741 632.9758Q631.5183 633.7492 631.67303 634.368L637.4514 628.58954ZM632.02655 608.9342Q634.23627 606.7245 637.0426 607.05597Q640.3903 607.4426 644.7103 611.76263Q649.0192 616.0716 649.417 619.4524Q649.73737 622.2256 647.52765 624.4353Q645.30695 626.65607 642.24646 626.31354Q639.1971 625.96 634.82184 621.5848Q630.53503 617.298 630.1483 613.92816Q629.8169 611.1439 632.02655 608.9342ZM634.4352 611.3428Q633.90485 611.8731 633.8275 612.63544Q633.7501 613.37573 634.391 614.4806Q635.2196 615.9058 637.8934 618.5796Q640.5671 621.25336 641.8377 621.9936Q643.1083 622.71173 643.8485 622.6344Q644.58875 622.55707 645.1191 622.02673Q645.6494 621.4964 645.72675 620.75616Q645.8041 619.9938 645.1522 618.89996Q644.3457 617.47473 641.67194 614.80096Q638.9982 612.12726 637.7276 611.40906Q636.45703 610.6688 635.7168 610.74615Q634.9655 610.81244 634.4352 611.3428ZM661.49304 604.5479L664.19995 607.2548L654.00214 617.45264Q652.6321 615.75116 652.0907 613.5525Q651.5494 611.3538 651.7151 606.6361Q651.8587 602.84644 651.6488 601.7305Q651.35046 600.239 650.4666 599.3551Q649.4943 598.3829 648.4447 598.3939Q647.3951 598.3829 646.4781 599.29987Q645.56104 600.2169 645.5721 601.3107Q645.5942 602.3935 646.77637 603.75244L643.5944 606.3599Q641.43994 603.6972 641.77136 601.28864Q642.0918 598.86896 644.1358 596.825Q646.3897 594.5711 648.88666 594.5048Q651.37256 594.4275 653.17346 596.2284Q654.201 597.2559 654.76447 598.5486Q655.32794 599.84125 655.54895 601.6532Q655.69257 602.8575 655.5821 605.50916Q655.4605 608.1498 655.51575 608.9342Q655.56 609.7076 655.71466 610.3263L661.49304 604.5479ZM672.0997 599.3551L669.0392 596.2947L662.8299 602.50397L660.28876 599.96277L657.2283 583.7325L659.67004 581.2908L669.3044 590.92505L671.19366 589.03577L673.74585 591.588L671.85657 593.4773L674.917 596.5377L672.0997 599.3551ZM666.487 593.74243L661.2942 588.5496L662.99567 597.2338L666.487 593.74243Z" fill-rule="nonzero"/><path fill="#000000" d="M671.73505 573.86615Q672.85095 577.98724 672.2875 582.68286L668.68567 582.2409Q669.64685 576.04266 666.02295 569.81134L668.9287 568.1209Q670.6744 568.1209 669.7573 569.3031L670.37604 570.7394L681.8997 559.21576L684.1426 561.4586L678.099 567.5022L680.2535 569.6566L685.2253 564.6848L687.4571 566.91656L682.4853 571.8884L685.55676 574.95996L692.51733 567.9993L694.74915 570.23114L687.7886 577.1917L692.7715 582.1746L690.4513 584.4948L685.4684 579.51196L675.9335 589.0468L673.70166 586.815L677.4361 583.0806L672.1328 577.7773L677.9333 571.9768L675.7788 569.8224L671.73505 573.86615ZM679.7563 580.76044L683.2366 577.28015L680.1651 574.2086L676.6848 577.6889L679.7563 580.76044Z" fill-rule="nonzero"/><path fill="#f39800" d="M236.4375 86.666664C236.4375 86.11438 236.88521 85.666664 237.4375 85.666664L247.4375 85.666664C247.98979 85.666664 248.4375 86.11438 248.4375 86.666664L248.4375 96.666664C248.4375 97.21895 247.98979 97.666664 247.4375 97.666664L237.4375 97.666664C236.88521 97.666664 236.4375 97.21895 236.4375 96.666664Z" fill-rule="nonzero"/><path fill="#1a1a1a" d="M271.5625 87.90104Q270.07812 96.385414 261.4375 100.21354L259.5625 98.24479Q267.5 95.010414 268.95312 87.885414L263.25 87.885414Q261.53125 90.74479 259.35938 92.729164L257.25 91.36979Q261.54688 87.479164 262.78125 82.322914L264.92188 83.072914Q266.04688 83.635414 264.89062 84.05729Q264.625 84.96354 264.29688 85.541664L269.32812 85.541664L270.15625 85.072914L271.73438 86.65104Q272.65625 87.572914 271.5625 87.90104ZM271.6875 86.229164Q270.26562 84.197914 268.84375 83.041664L270.34375 81.77604Q271.90625 83.135414 273.28125 84.979164L271.6875 86.229164ZM273.98438 85.30729Q272.53125 83.49479 271.29688 82.354164L272.6875 80.96354Q274.09375 82.27604 275.375 83.93229L273.98438 85.30729ZM288.40625 95.635414Q291.32812 94.49479 294.42188 90.24479L295.90625 92.260414Q292.75 96.572914 288.14062 98.40104L287.35938 98.791664L285.76562 97.604164L285.98438 97.041664L285.98438 84.21354L287.96875 84.21354Q289.3125 84.510414 288.40625 85.291664L288.40625 95.635414ZM277.125 98.24479Q281.21875 94.30729 281.21875 88.90104L281.21875 85.072914L283.20312 85.072914Q284.54688 85.36979 283.64062 86.15104L283.64062 88.822914Q283.64062 95.52604 279.21875 99.604164L277.125 98.24479ZM297.625 92.260414L297.625 89.916664L315.67188 89.916664L315.67188 92.260414L297.625 92.260414ZM331.625 84.604164Q332.125 84.604164 332.42188 84.30729Q332.71875 84.010414 332.71875 83.510414Q332.71875 83.010414 332.42188 82.71354Q332.125 82.416664 331.625 82.416664Q331.125 82.416664 330.82812 82.71354Q330.53125 83.010414 330.53125 83.510414Q330.53125 84.010414 330.82812 84.30729Q331.125 84.604164 331.625 84.604164ZM331.625 86.010414Q330.5625 86.010414 329.84375 85.291664Q329.125 84.572914 329.125 83.510414Q329.125 82.447914 329.84375 81.729164Q330.5625 81.010414 331.625 81.010414Q332.6875 81.010414 333.40625 81.729164Q334.125 82.447914 334.125 83.510414Q334.125 84.572914 333.40625 85.291664Q332.6875 86.010414 331.625 86.010414ZM317.32812 87.02604L317.32812 84.68229L329.3125 84.68229L331.54688 86.322914Q331.14062 96.166664 320.42188 99.18229L318.5625 96.916664Q328.59375 94.58854 329.03125 87.02604L317.32812 87.02604ZM346.34375 83.27604Q349.10938 86.760414 354.34375 88.40104L353.3125 90.77604Q347.625 88.697914 344.82812 84.822914Q343.625 87.30729 341.875 88.510414L349.85938 88.510414L349.85938 90.61979L340.48438 90.61979L340.48438 89.572914Q339.5625 90.33854 337.42188 91.322914L335.9375 89.322914Q341.875 86.55729 343.73438 81.979164L346.0 82.416664Q347.39062 82.61979 346.34375 83.27604ZM341.26562 100.229164L339.07812 100.229164L339.07812 91.86979L351.34375 91.86979L351.34375 99.99479L349.15625 99.99479L349.15625 99.135414L341.26562 99.135414L341.26562 100.229164ZM341.26562 97.02604L349.15625 97.02604L349.15625 93.979164L341.26562 93.979164L341.26562 97.02604ZM368.84375 88.27604L368.84375 82.02604L370.67188 82.02604Q372.3125 82.354164 371.03125 83.072914L371.03125 88.27604L375.01562 88.27604L375.01562 90.385414L371.03125 90.385414L371.03125 100.072914L368.84375 100.072914L368.84375 90.385414L364.625 90.385414L364.625 88.27604L368.84375 88.27604ZM364.625 99.83854L362.4375 99.83854L362.4375 99.05729L359.85938 99.05729L359.85938 100.15104L357.67188 100.15104L357.67188 93.11979L364.625 93.11979L364.625 99.83854ZM359.85938 94.99479L359.85938 97.18229L362.4375 97.18229L362.4375 94.99479L359.85938 94.99479ZM364.15625 90.46354L364.15625 92.572914L358.14062 92.572914L358.14062 90.46354L364.15625 90.46354ZM358.14062 87.885414L364.15625 87.885414L364.15625 89.99479L358.14062 89.99479L358.14062 87.885414ZM356.65625 85.30729L365.5625 85.30729L365.5625 87.416664L356.65625 87.416664L356.65625 85.30729ZM364.15625 82.49479L364.15625 84.604164L358.14062 84.604164L358.14062 82.49479L364.15625 82.49479Z" fill-rule="nonzero"/><path fill="#4285f4" d="M392.1875 86.666664C392.1875 86.11438 392.63522 85.666664 393.1875 85.666664L403.1875 85.666664C403.73978 85.666664 404.1875 86.11438 404.1875 86.666664L404.1875 96.666664C404.1875 97.21895 403.73978 97.666664 403.1875 97.666664L393.1875 97.666664C392.63522 97.666664 392.1875 97.21895 392.1875 96.666664Z" fill-rule="nonzero"/><path fill="#1a1a1a" d="M426.5625 85.30729L430.15625 85.30729L430.15625 87.65104L426.5625 87.65104L426.5625 89.447914L431.48438 89.447914L431.48438 91.791664L426.9375 91.791664Q428.04688 93.760414 432.125 96.21354L430.89062 98.58854Q427.5 96.15104 426.5625 94.760414L426.5625 100.46354L424.375 100.46354L424.375 95.05729Q423.28125 96.93229 420.04688 99.11979L418.89062 97.010414Q422.42188 94.541664 424.0625 91.791664L419.76562 91.791664L419.76562 89.447914L424.375 89.447914L424.375 87.65104L422.70312 87.65104Q422.29688 88.604164 421.1875 89.916664L419.48438 88.11979Q421.04688 86.479164 421.96875 83.291664L423.85938 83.760414Q425.10938 84.385414 423.84375 84.71354L423.64062 85.30729L424.375 85.30729L424.375 81.791664L426.1875 81.791664Q427.625 81.979164 426.5625 82.729164L426.5625 85.30729ZM418.20312 100.46354L416.01562 100.46354L416.01562 93.86979Q415.8125 94.385414 414.01562 96.36979L412.65625 94.166664Q415.17188 91.55729 415.875 87.96354L413.35938 87.96354L413.35938 85.61979L416.01562 85.61979L416.01562 81.791664L417.84375 81.791664Q419.26562 82.15104 418.20312 82.760414L418.20312 85.61979L420.39062 85.61979L420.39062 87.96354L418.20312 87.96354L418.20312 89.74479Q419.67188 90.697914 420.9375 92.33854L419.34375 94.36979Q418.26562 92.604164 418.20312 92.541664L418.20312 100.46354ZM447.9375 95.30729Q448.85938 97.02604 449.45312 97.02604Q449.5 97.02604 449.53125 96.822914L449.73438 95.072914L452.0625 96.135414L451.71875 98.24479Q451.4375 99.83854 450.0 99.83854Q447.46875 99.83854 445.73438 96.46354Q444.14062 93.354164 444.0625 88.041664L434.45312 88.041664L434.45312 85.697914L443.98438 85.697914L443.98438 82.104164L446.04688 82.104164Q447.59375 82.416664 446.40625 83.21354L446.40625 85.697914L451.875 85.697914L451.875 88.041664L446.42188 88.041664Q446.71875 93.104164 447.9375 95.30729ZM444.96875 97.11979Q440.29688 98.11979 436.04688 98.854164Q435.78125 100.041664 434.9375 98.86979L434.46875 96.510414Q436.76562 96.322914 438.35938 96.05729L438.35938 92.18229L435.23438 92.18229L435.23438 90.072914L443.59375 90.072914L443.59375 92.18229L440.54688 92.18229L440.54688 95.729164Q441.98438 95.541664 444.64062 95.010414L444.96875 97.11979ZM448.15625 82.43229Q449.46875 83.08854 450.78125 84.30729L448.89062 85.885414Q447.9375 84.93229 446.34375 84.041664L448.15625 82.43229ZM466.8125 88.041664Q465.09375 87.104164 463.59375 84.510414Q462.10938 86.93229 460.57812 88.041664L466.8125 88.041664ZM471.90625 90.354164Q470.28125 89.979164 468.51562 88.96354L468.51562 90.385414L459.0625 90.385414L459.0625 89.11979Q457.40625 90.27604 455.20312 90.916664L454.28125 88.447914Q459.9375 86.916664 462.64062 81.916664L464.5 82.18229Q465.90625 82.36979 464.95312 83.041664Q467.21875 86.447914 472.92188 87.90104L471.90625 90.354164ZM469.92188 100.33854Q469.14062 99.260414 468.40625 98.604164L457.32812 99.822914Q456.82812 100.322914 456.21875 99.86979L455.53125 97.43229L458.95312 97.27604L460.79688 93.90104L455.39062 93.90104L455.39062 91.55729L472.03125 91.55729L472.03125 93.90104L463.45312 93.90104L461.51562 97.135414L466.60938 96.760414Q466.125 96.322914 464.53125 95.135414L466.5 93.83854Q470.45312 96.80729 472.09375 98.979164L469.92188 100.33854ZM480.54688 85.385414L481.75 85.385414L482.1875 84.947914L483.84375 86.604164L483.0625 87.15104Q482.14062 88.916664 480.76562 90.61979Q482.32812 91.11979 484.07812 92.30729L482.92188 94.61979Q481.3125 93.30729 480.54688 92.86979L480.54688 100.385414L478.35938 100.385414L478.35938 93.041664Q477.45312 93.83854 475.64062 94.885414L474.67188 92.74479Q478.59375 90.61979 480.39062 87.49479L475.46875 87.49479L475.46875 85.385414L478.35938 85.385414L478.35938 82.02604L480.17188 82.02604Q481.60938 82.21354 480.54688 82.96354L480.54688 85.385414ZM488.78125 82.49479Q490.32812 82.80729 489.14062 83.604164L489.14062 87.260414L492.73438 87.260414L492.73438 89.604164L489.14062 89.604164L489.14062 97.104164L493.4375 97.104164L493.4375 99.447914L482.10938 99.447914L482.10938 97.104164L486.71875 97.104164L486.71875 89.604164L483.35938 89.604164L483.35938 87.260414L486.71875 87.260414L486.71875 82.49479L488.78125 82.49479ZM509.8125 87.90104Q508.32812 96.385414 499.6875 100.21354L497.8125 98.24479Q505.75 95.010414 507.20312 87.885414L501.5 87.885414Q499.78125 90.74479 497.60938 92.729164L495.5 91.36979Q499.79688 87.479164 501.03125 82.322914L503.17188 83.072914Q504.29688 83.635414 503.14062 84.05729Q502.875 84.96354 502.54688 85.541664L507.57812 85.541664L508.40625 85.072914L509.98438 86.65104Q510.90625 87.572914 509.8125 87.90104ZM524.0469 91.479164Q524.0469 97.541664 518.21875 100.291664L516.125 98.510414Q521.5469 96.041664 521.625 91.40104L521.625 83.27604L523.6094 83.27604Q525.1094 83.572914 524.0469 84.36979L524.0469 91.479164ZM516.0 93.510414L513.5781 93.510414L513.5781 84.05729L515.625 84.05729Q517.2031 84.21354 516.0 85.15104L516.0 93.510414ZM537.1094 91.11979Q537.25 96.49479 531.6406 100.010414L529.875 98.02604Q534.6719 95.43229 534.6719 91.08854L534.6719 87.416664L536.6406 87.416664Q538.0781 87.572914 537.09375 88.416664L537.09375 89.68229Q539.375 87.979164 540.4531 86.510414L528.0625 86.96354L527.84375 84.541664L542.3594 84.135414L543.0625 83.93229L544.375 85.510414Q545.0469 86.416664 543.875 86.260414Q541.6094 89.197914 538.09375 92.05729L537.1094 91.11979Z" fill-rule="nonzero"/><path fill="#757575" d="M630.45935 56.603127L628.58435 56.603127Q627.08435 54.353127 626.3031 51.93125Q625.52185 49.49375 625.52185 47.2125Q625.52185 44.384377 626.4906 41.86875Q627.33435 39.68125 628.6156 37.8375L630.4906 37.8375Q629.14685 40.790627 628.64685 42.86875Q628.14685 44.946877 628.14685 47.275Q628.14685 48.86875 628.4437 50.55625Q628.7406 52.228127 629.2562 53.74375Q629.6 54.74375 630.45935 56.603127Z" fill-rule="nonzero"/><path fill="#757575" d="M646.8812 39.43125L648.6625 39.43125L648.6625 48.103127L646.475 48.103127L646.475 47.634377L642.8031 47.634377L642.8031 48.65L651.0062 48.65L651.0062 50.759377L642.8031 50.759377L642.8031 54.040627L640.6156 54.040627L640.6156 50.759377L632.5687 50.759377L632.5687 48.65L640.6156 48.65L640.6156 47.634377L637.02185 47.634377L637.02185 48.259377L634.83435 48.259377L634.83435 39.43125L644.27185 39.43125L646.85 35.478127L648.6156 36.68125Q649.70935 37.55625 648.35 37.55625L646.8812 39.43125ZM641.2562 35.665627Q642.975 37.11875 643.6781 38.43125L641.6781 39.9Q640.9125 38.446877 639.4281 37.05625L641.2562 35.665627ZM640.6156 42.55625L640.6156 41.540627L637.02185 41.540627L637.02185 42.55625L640.6156 42.55625ZM646.475 42.55625L646.475 41.540627L642.8031 41.540627L642.8031 42.55625L646.475 42.55625ZM640.6156 45.525L640.6156 44.665627L637.02185 44.665627L637.02185 45.525L640.6156 45.525ZM646.475 45.525L646.475 44.665627L642.8031 44.665627L642.8031 45.525L646.475 45.525ZM636.6625 39.9625Q635.9125 38.446877 634.58435 37.228127L636.4125 35.821877Q637.89685 37.2125 638.6781 38.68125L636.6625 39.9625ZM669.1 43.61875Q668.4906 46.775 667.08435 50.603127L671.5531 50.603127L671.5531 52.7125L657.8812 52.7125L657.8812 50.603127L664.6781 50.603127Q666.02185 46.15 666.77185 42.0875L669.1 42.74375Q669.7875 43.196877 669.1 43.61875ZM655.6156 53.9625L655.6781 44.7125Q655.70935 44.775 654.1781 46.509377L652.7875 44.384377Q656.02185 41.228127 656.7562 35.74375L658.9281 36.4Q660.0687 36.978127 658.9281 37.4Q658.33435 39.853127 657.70935 41.228127L657.8031 41.259377Q658.3812 41.8375 657.8031 42.18125L657.8031 53.9625L655.6156 53.9625ZM661.8812 42.884377Q663.1781 45.665627 663.8656 49.009377L661.475 49.8375Q660.7875 46.4 659.5687 43.61875L661.8812 42.884377ZM670.6937 39.821877L670.6937 41.93125L658.7406 41.93125L658.7406 39.821877L663.5062 39.821877L663.5062 35.99375L665.3187 35.99375Q666.7562 36.18125 665.6937 36.93125L665.6937 39.821877L670.6937 39.821877Z" fill-rule="nonzero"/><path fill="#757575" d="M674.6937 44.775L674.6937 42.025L677.4281 42.025L677.4281 44.775L674.6937 44.775ZM674.6937 52.4L674.6937 49.65L677.4281 49.65L677.4281 52.4L674.6937 52.4Z" fill-rule="nonzero"/><path fill="#757575" d="M699.02185 36.853127L699.02185 39.196877L691.3031 39.196877L690.89685 41.15L696.9906 41.15L696.9906 53.65L694.5687 53.65L694.5687 52.634377L685.7406 52.634377L685.7406 53.9625L683.3187 53.9625L683.3187 41.15L688.3656 41.15L688.725 39.196877L681.0531 39.196877L681.0531 36.853127L699.02185 36.853127ZM685.7406 47.946877L685.7406 50.525L694.5687 50.525L694.5687 47.946877L685.7406 47.946877ZM694.5687 45.8375L694.5687 43.259377L685.7406 43.259377L685.7406 45.8375L694.5687 45.8375ZM707.85 39.665627L702.0687 39.665627L702.0687 37.321877L719.4125 37.321877L719.4125 39.665627L710.27185 39.665627Q710.27185 41.009377 710.14685 42.321877L718.0062 42.321877Q718.0062 47.8375 717.1312 50.8375Q716.4437 53.3375 714.02185 53.3375L710.70935 53.3375L710.2875 50.99375L713.475 50.99375Q714.5687 50.99375 714.8187 50.11875Q715.4281 48.05625 715.5062 44.665627L709.8187 44.665627Q708.6 50.49375 703.3031 53.353127L701.77185 51.103127Q707.85 48.071877 707.85 40.68125L707.85 39.665627ZM739.02185 51.853127Q739.02185 53.415627 737.45935 53.415627L735.1937 53.415627L734.5531 51.071877L736.6 51.071877Q736.6 51.071877 736.6 51.071877L736.6 46.15L725.7406 46.15L725.7406 53.49375L723.3187 53.49375L723.3187 37.009377L739.02185 37.009377L739.02185 51.853127ZM736.6 39.11875L732.225 39.11875L732.225 44.040627L736.6 44.040627L736.6 39.11875ZM725.7406 39.11875L725.7406 44.040627L730.0375 44.040627L730.0375 39.11875L725.7406 39.11875Z" fill-rule="nonzero"/><path fill="#757575" d="M742.27185 56.603127Q743.08435 54.86875 743.4125 53.93125Q743.7562 53.009377 744.0375 51.80625Q744.3187 50.5875 744.4437 49.509377Q744.58435 48.415627 744.58435 47.275Q744.58435 44.946877 744.08435 42.86875Q743.6 40.790627 742.2562 37.8375L744.1156 37.8375Q745.6 39.93125 746.4125 42.290627Q747.225 44.65 747.225 47.071877Q747.225 49.103127 746.58435 51.446877Q745.85 54.05625 744.1625 56.603127L742.27185 56.603127Z" fill-rule="nonzero"/></svg>