<svg version="1.1" viewBox="0.0 0.0 775.0 662.0" fill="none" stroke="none" stroke-linecap="square" stroke-miterlimit="10" width="775" height="662" xmlns:xlink="http://www.w3.org/1999/xlink" xmlns="http://www.w3.org/2000/svg"><path fill="#ffffff" d="M0 0L775.0 0L775.0 662.0L0 662.0L0 0Z" fill-rule="nonzero"/><path stroke="#333333" stroke-width="1.0" stroke-linecap="butt" d="M99.5 531.5L741.5 531.5" fill-rule="nonzero"/><path stroke="#cccccc" stroke-width="1.0" stroke-linecap="butt" d="M99.5 453.5L741.5 453.5" fill-rule="nonzero"/><path stroke="#cccccc" stroke-width="1.0" stroke-linecap="butt" d="M99.5 376.5L741.5 376.5" fill-rule="nonzero"/><path stroke="#cccccc" stroke-width="1.0" stroke-linecap="butt" d="M99.5 298.5L741.5 298.5" fill-rule="nonzero"/><path stroke="#cccccc" stroke-width="1.0" stroke-linecap="butt" d="M99.5 220.5L741.5 220.5" fill-rule="nonzero"/><path stroke="#cccccc" stroke-width="1.0" stroke-linecap="butt" d="M99.5 142.5L741.5 142.5" fill-rule="nonzero"/><clipPath id="id_0"><path d="M99.1 142.73334L741.9 142.73334L741.9 531.5663L99.1 531.5663L99.1 142.73334Z" clip-rule="nonzero"/></clipPath><path stroke="#000000" stroke-width="2.0" stroke-linecap="butt" stroke-opacity="0.0" clip-path="url(#id_0)" d="M200.0 532.0L134.0 532.0L134.0 524.0L200.0 524.0Z" fill-rule="nonzero"/><path fill="#4285f4" clip-path="url(#id_0)" d="M200.0 532.0L134.0 532.0L134.0 524.0L200.0 524.0Z" fill-rule="nonzero"/><path stroke="#000000" stroke-width="2.0" stroke-linecap="butt" stroke-opacity="0.0" clip-path="url(#id_0)" d="M302.0 532.0L236.0 532.0L236.0 503.0L302.0 503.0Z" fill-rule="nonzero"/><path fill="#4285f4" clip-path="url(#id_0)" d="M302.0 532.0L236.0 532.0L236.0 503.0L302.0 503.0Z" fill-rule="nonzero"/><path stroke="#000000" stroke-width="2.0" stroke-linecap="butt" stroke-opacity="0.0" clip-path="url(#id_0)" d="M403.0 532.0L337.0 532.0L337.0 468.0L403.0 468.0Z" fill-rule="nonzero"/><path fill="#4285f4" clip-path="url(#id_0)" d="M403.0 532.0L337.0 532.0L337.0 468.0L403.0 468.0Z" fill-rule="nonzero"/><path stroke="#000000" stroke-width="2.0" stroke-linecap="butt" stroke-opacity="0.0" clip-path="url(#id_0)" d="M504.0 532.0L438.0 532.0L438.0 406.0L504.0 406.0Z" fill-rule="nonzero"/><path fill="#4285f4" clip-path="url(#id_0)" d="M504.0 532.0L438.0 532.0L438.0 406.0L504.0 406.0Z" fill-rule="nonzero"/><path stroke="#000000" stroke-width="2.0" stroke-linecap="butt" stroke-opacity="0.0" clip-path="url(#id_0)" d="M605.0 532.0L539.0 532.0L539.0 310.0L605.0 310.0Z" fill-rule="nonzero"/><path fill="#4285f4" clip-path="url(#id_0)" d="M605.0 532.0L539.0 532.0L539.0 310.0L605.0 310.0Z" fill-rule="nonzero"/><path stroke="#000000" stroke-width="2.0" stroke-linecap="butt" stroke-opacity="0.0" clip-path="url(#id_0)" d="M707.0 532.0L641.0 532.0L641.0 198.0L707.0 198.0Z" fill-rule="nonzero"/><path fill="#4285f4" clip-path="url(#id_0)" d="M707.0 532.0L641.0 532.0L641.0 198.0L707.0 198.0Z" fill-rule="nonzero"/><path stroke="#000000" stroke-width="2.0" stroke-linecap="butt" stroke-opacity="0.0" clip-path="url(#id_0)" d="M200.0 524.0L134.0 524.0L134.0 524.0L200.0 524.0Z" fill-rule="nonzero"/><path fill="#f39800" clip-path="url(#id_0)" d="M200.0 524.0L134.0 524.0L134.0 524.0L200.0 524.0Z" fill-rule="nonzero"/><path stroke="#000000" stroke-width="2.0" stroke-linecap="butt" stroke-opacity="0.0" clip-path="url(#id_0)" d="M302.0 503.0L236.0 503.0L236.0 503.0L302.0 503.0Z" fill-rule="nonzero"/><path fill="#f39800" clip-path="url(#id_0)" d="M302.0 503.0L236.0 503.0L236.0 503.0L302.0 503.0Z" fill-rule="nonzero"/><path stroke="#000000" stroke-width="2.0" stroke-linecap="butt" stroke-opacity="0.0" clip-path="url(#id_0)" d="M403.0 468.0L337.0 468.0L337.0 459.0C337.0 457.89542 337.89542 457.0 339.0 457.0L401.0 457.0C402.10458 457.0 403.0 457.89542 403.0 459.0Z" fill-rule="nonzero"/><path fill="#f39800" clip-path="url(#id_0)" d="M403.0 468.0L337.0 468.0L337.0 459.0C337.0 457.89542 337.89542 457.0 339.0 457.0L401.0 457.0C402.10458 457.0 403.0 457.89542 403.0 459.0Z" fill-rule="nonzero"/><path stroke="#000000" stroke-width="2.0" stroke-linecap="butt" stroke-opacity="0.0" clip-path="url(#id_0)" d="M504.0 406.0L438.0 406.0L438.0 358.0C438.0 356.89542 438.89542 356.0 440.0 356.0L502.0 356.0C503.10458 356.0 504.0 356.89542 504.0 358.0Z" fill-rule="nonzero"/><path fill="#f39800" clip-path="url(#id_0)" d="M504.0 406.0L438.0 406.0L438.0 358.0C438.0 356.89542 438.89542 356.0 440.0 356.0L502.0 356.0C503.10458 356.0 504.0 356.89542 504.0 358.0Z" fill-rule="nonzero"/><path stroke="#000000" stroke-width="2.0" stroke-linecap="butt" stroke-opacity="0.0" clip-path="url(#id_0)" d="M605.0 310.0L539.0 310.0L539.0 211.0C539.0 209.89543 539.89545 209.0 541.0 209.0L603.0 209.0C604.10455 209.0 605.0 209.89543 605.0 211.0Z" fill-rule="nonzero"/><path fill="#f39800" clip-path="url(#id_0)" d="M605.0 310.0L539.0 310.0L539.0 211.0C539.0 209.89543 539.89545 209.0 541.0 209.0L603.0 209.0C604.10455 209.0 605.0 209.89543 605.0 211.0Z" fill-rule="nonzero"/><path stroke="#000000" stroke-width="2.0" stroke-linecap="butt" stroke-opacity="0.0" clip-path="url(#id_0)" d="M707.0 198.0L641.0 198.0L641.0 198.0L707.0 198.0Z" fill-rule="nonzero"/><path fill="#f39800" clip-path="url(#id_0)" d="M707.0 198.0L641.0 198.0L641.0 198.0L707.0 198.0Z" fill-rule="nonzero"/><path stroke="#ffffff" stroke-width="3.0" stroke-linejoin="round" stroke-linecap="round" d="M161.17188 479.78958L156.23438 479.78958L156.23438 461.1802Q153.51562 463.71146 149.84375 464.91458L149.84375 460.4302Q151.78125 459.8052 154.04688 458.03958Q156.3125 456.27396 157.15625 453.91458L161.17188 453.91458L161.17188 479.78958ZM176.875 453.91458Q180.625 453.91458 182.73438 456.58646Q185.25 459.7427 185.25 467.08646Q185.25 474.39896 182.71875 477.58646Q180.625 480.22708 176.875 480.22708Q173.125 480.22708 170.8125 477.33646Q168.51562 474.44583 168.51562 467.02396Q168.51562 459.7427 171.04688 456.5552Q173.14062 453.91458 176.875 453.91458ZM176.875 458.00833Q175.98438 458.00833 175.28125 458.58646Q174.57812 459.14896 174.1875 460.63333Q173.6875 462.53958 173.6875 467.08646Q173.6875 471.6177 174.14062 473.32083Q174.59375 475.00833 175.28125 475.57083Q175.98438 476.13333 176.875 476.13333Q177.78125 476.13333 178.48438 475.57083Q179.1875 474.9927 179.5625 473.50833Q180.07812 471.6177 180.07812 467.08646Q180.07812 462.53958 179.625 460.85208Q179.17188 459.14896 178.46875 458.58646Q177.78125 458.00833 176.875 458.00833Z" fill-rule="nonzero"/><path fill="#4285f4" d="M161.17188 479.78958L156.23438 479.78958L156.23438 461.1802Q153.51562 463.71146 149.84375 464.91458L149.84375 460.4302Q151.78125 459.8052 154.04688 458.03958Q156.3125 456.27396 157.15625 453.91458L161.17188 453.91458L161.17188 479.78958ZM176.875 453.91458Q180.625 453.91458 182.73438 456.58646Q185.25 459.7427 185.25 467.08646Q185.25 474.39896 182.71875 477.58646Q180.625 480.22708 176.875 480.22708Q173.125 480.22708 170.8125 477.33646Q168.51562 474.44583 168.51562 467.02396Q168.51562 459.7427 171.04688 456.5552Q173.14062 453.91458 176.875 453.91458ZM176.875 458.00833Q175.98438 458.00833 175.28125 458.58646Q174.57812 459.14896 174.1875 460.63333Q173.6875 462.53958 173.6875 467.08646Q173.6875 471.6177 174.14062 473.32083Q174.59375 475.00833 175.28125 475.57083Q175.98438 476.13333 176.875 476.13333Q177.78125 476.13333 178.48438 475.57083Q179.1875 474.9927 179.5625 473.50833Q180.07812 471.6177 180.07812 467.08646Q180.07812 462.53958 179.625 460.85208Q179.17188 459.14896 178.46875 458.58646Q177.78125 458.00833 176.875 458.00833Z" fill-rule="nonzero"/><path stroke="#ffffff" stroke-width="3.0" stroke-linejoin="round" stroke-linecap="round" d="M250.35938 451.94888L255.14062 451.37076Q255.35938 453.19888 256.35938 454.16763Q257.375 455.13638 258.79688 455.13638Q260.32812 455.13638 261.35938 453.98013Q262.40625 452.80826 262.40625 450.8395Q262.40625 448.98013 261.40625 447.902Q260.40625 446.80826 258.96875 446.80826Q258.01562 446.80826 256.70312 447.16763L257.25 443.152Q259.25 443.19888 260.29688 442.277Q261.35938 441.35513 261.35938 439.82388Q261.35938 438.527 260.57812 437.76138Q259.8125 436.98013 258.53125 436.98013Q257.26562 436.98013 256.35938 437.85513Q255.46875 438.73013 255.28125 440.41763L250.71875 439.652Q251.20312 437.30826 252.15625 435.91763Q253.10938 434.51138 254.82812 433.7145Q256.54688 432.91763 258.67188 432.91763Q262.3125 432.91763 264.5 435.23013Q266.3125 437.13638 266.3125 439.527Q266.3125 442.91763 262.60938 444.93326Q264.82812 445.41763 266.14062 447.07388Q267.46875 448.7145 267.46875 451.05826Q267.46875 454.44888 264.98438 456.8395Q262.51562 459.23013 258.82812 459.23013Q255.32812 459.23013 253.01562 457.2145Q250.71875 455.19888 250.35938 451.94888ZM270.53125 437.9645L270.53125 433.37076L287.42188 433.37076L287.42188 436.9645Q285.32812 439.01138 283.15625 442.87076Q281.0 446.7145 279.85938 451.05826Q278.73438 455.38638 278.75 458.79263L274.0 458.79263Q274.10938 453.44888 276.1875 447.902Q278.28125 442.3395 281.76562 437.9645L270.53125 437.9645Z" fill-rule="nonzero"/><path fill="#4285f4" d="M250.35938 451.94888L255.14062 451.37076Q255.35938 453.19888 256.35938 454.16763Q257.375 455.13638 258.79688 455.13638Q260.32812 455.13638 261.35938 453.98013Q262.40625 452.80826 262.40625 450.8395Q262.40625 448.98013 261.40625 447.902Q260.40625 446.80826 258.96875 446.80826Q258.01562 446.80826 256.70312 447.16763L257.25 443.152Q259.25 443.19888 260.29688 442.277Q261.35938 441.35513 261.35938 439.82388Q261.35938 438.527 260.57812 437.76138Q259.8125 436.98013 258.53125 436.98013Q257.26562 436.98013 256.35938 437.85513Q255.46875 438.73013 255.28125 440.41763L250.71875 439.652Q251.20312 437.30826 252.15625 435.91763Q253.10938 434.51138 254.82812 433.7145Q256.54688 432.91763 258.67188 432.91763Q262.3125 432.91763 264.5 435.23013Q266.3125 437.13638 266.3125 439.527Q266.3125 442.91763 262.60938 444.93326Q264.82812 445.41763 266.14062 447.07388Q267.46875 448.7145 267.46875 451.05826Q267.46875 454.44888 264.98438 456.8395Q262.51562 459.23013 258.82812 459.23013Q255.32812 459.23013 253.01562 457.2145Q250.71875 455.19888 250.35938 451.94888ZM270.53125 437.9645L270.53125 433.37076L287.42188 433.37076L287.42188 436.9645Q285.32812 439.01138 283.15625 442.87076Q281.0 446.7145 279.85938 451.05826Q278.73438 455.38638 278.75 458.79263L274.0 458.79263Q274.10938 453.44888 276.1875 447.902Q278.28125 442.3395 281.76562 437.9645L270.53125 437.9645Z" fill-rule="nonzero"/><path stroke="#ffffff" stroke-width="3.0" stroke-linejoin="round" stroke-linecap="round" d="M552.90955 190.4045L552.90955 185.217L542.3627 185.217L542.3627 180.88887L553.53455 164.5295L557.6908 164.5295L557.6908 180.87325L560.8939 180.87325L560.8939 185.217L557.6908 185.217L557.6908 190.4045L552.90955 190.4045ZM552.90955 180.87325L552.90955 172.07637L546.9877 180.87325L552.90955 180.87325ZM575.8627 190.4045L570.9252 190.4045L570.9252 171.79512Q568.2064 174.32637 564.53455 175.5295L564.53455 171.04512Q566.47205 170.42012 568.7377 168.6545Q571.0033 166.88887 571.84705 164.5295L575.8627 164.5295L575.8627 190.4045ZM599.9564 170.95137L595.1752 171.467Q595.0033 169.99825 594.2533 169.29512Q593.5189 168.592 592.34705 168.592Q590.78455 168.592 589.6908 169.99825Q588.6127 171.4045 588.3314 175.842Q590.1752 173.67012 592.9252 173.67012Q596.0189 173.67012 598.22205 176.0295Q600.4252 178.37325 600.4252 182.10762Q600.4252 186.06075 598.09705 188.45137Q595.78455 190.842 592.1439 190.842Q588.2533 190.842 585.7377 187.81075Q583.22205 184.7795 583.22205 177.87325Q583.22205 170.7795 585.8314 167.6545Q588.4564 164.5295 592.6439 164.5295Q595.5814 164.5295 597.5033 166.17012Q599.4252 167.81075 599.9564 170.95137ZM588.7533 181.717Q588.7533 184.12325 589.8627 185.43575Q590.97205 186.74825 592.3939 186.74825Q593.7689 186.74825 594.6752 185.68575Q595.59705 184.60762 595.59705 182.1545Q595.59705 179.63887 594.6127 178.48262Q593.6283 177.31075 592.1439 177.31075Q590.72205 177.31075 589.7377 178.43575Q588.7533 179.54512 588.7533 181.717Z" fill-rule="nonzero"/><path fill="#4285f4" d="M552.90955 190.4045L552.90955 185.217L542.3627 185.217L542.3627 180.88887L553.53455 164.5295L557.6908 164.5295L557.6908 180.87325L560.8939 180.87325L560.8939 185.217L557.6908 185.217L557.6908 190.4045L552.90955 190.4045ZM552.90955 180.87325L552.90955 172.07637L546.9877 180.87325L552.90955 180.87325ZM575.8627 190.4045L570.9252 190.4045L570.9252 171.79512Q568.2064 174.32637 564.53455 175.5295L564.53455 171.04512Q566.47205 170.42012 568.7377 168.6545Q571.0033 166.88887 571.84705 164.5295L575.8627 164.5295L575.8627 190.4045ZM599.9564 170.95137L595.1752 171.467Q595.0033 169.99825 594.2533 169.29512Q593.5189 168.592 592.34705 168.592Q590.78455 168.592 589.6908 169.99825Q588.6127 171.4045 588.3314 175.842Q590.1752 173.67012 592.9252 173.67012Q596.0189 173.67012 598.22205 176.0295Q600.4252 178.37325 600.4252 182.10762Q600.4252 186.06075 598.09705 188.45137Q595.78455 190.842 592.1439 190.842Q588.2533 190.842 585.7377 187.81075Q583.22205 184.7795 583.22205 177.87325Q583.22205 170.7795 585.8314 167.6545Q588.4564 164.5295 592.6439 164.5295Q595.5814 164.5295 597.5033 166.17012Q599.4252 167.81075 599.9564 170.95137ZM588.7533 181.717Q588.7533 184.12325 589.8627 185.43575Q590.97205 186.74825 592.3939 186.74825Q593.7689 186.74825 594.6752 185.68575Q595.59705 184.60762 595.59705 182.1545Q595.59705 179.63887 594.6127 178.48262Q593.6283 177.31075 592.1439 177.31075Q590.72205 177.31075 589.7377 178.43575Q588.7533 179.54512 588.7533 181.717Z" fill-rule="nonzero"/><path stroke="#ffffff" stroke-width="3.0" stroke-linejoin="round" stroke-linecap="round" d="M654.332 174.9387L654.332 169.7512L643.7851 169.7512L643.7851 165.42308L654.957 149.0637L659.1132 149.0637L659.1132 165.40746L662.31635 165.40746L662.31635 169.7512L659.1132 169.7512L659.1132 174.9387L654.332 174.9387ZM654.332 165.40746L654.332 156.61058L648.4101 165.40746L654.332 165.40746ZM681.332 170.34496L681.332 174.9387L664.00385 174.9387Q664.2851 172.32933 665.69135 170.0012Q667.0976 167.67308 671.25385 163.82933Q674.5976 160.71996 675.3476 159.61058Q676.3632 158.07933 676.3632 156.57933Q676.3632 154.9387 675.4726 154.04808Q674.5976 153.15746 673.0351 153.15746Q671.4882 153.15746 670.56635 154.09496Q669.6601 155.01683 669.5195 157.1887L664.5976 156.6887Q665.0351 152.61058 667.3476 150.84496Q669.6757 149.0637 673.1445 149.0637Q676.9726 149.0637 679.1445 151.1262Q681.332 153.17308 681.332 156.23558Q681.332 157.96996 680.707 159.54808Q680.082 161.1262 678.7226 162.84496Q677.832 163.98558 675.4882 166.14183Q673.1445 168.28246 672.5195 168.98558Q671.9101 169.6887 671.5195 170.34496L681.332 170.34496ZM684.75385 168.98558L689.5351 168.45433Q689.707 169.90746 690.44135 170.61058Q691.1757 171.3137 692.3945 171.3137Q693.9257 171.3137 694.9882 169.90746Q696.06635 168.5012 696.3632 164.07933Q694.50385 166.23558 691.707 166.23558Q688.6757 166.23558 686.457 163.89183Q684.25385 161.54808 684.25385 157.78246Q684.25385 153.86058 686.582 151.46996Q688.9101 149.0637 692.5195 149.0637Q696.44135 149.0637 698.957 152.09496Q701.4726 155.1262 701.4726 162.0637Q701.4726 169.14183 698.8476 172.26683Q696.2226 175.39183 692.0195 175.39183Q689.00385 175.39183 687.12885 173.78246Q685.2695 172.17308 684.75385 168.98558ZM695.9257 158.1887Q695.9257 155.79808 694.832 154.48558Q693.7382 153.15746 692.2851 153.15746Q690.9257 153.15746 690.0195 154.23558Q689.1132 155.3137 689.1132 157.78246Q689.1132 160.28246 690.0976 161.45433Q691.082 162.61058 692.5507 162.61058Q693.9726 162.61058 694.94135 161.48558Q695.9257 160.36058 695.9257 158.1887Z" fill-rule="nonzero"/><path fill="#4285f4" d="M654.332 174.9387L654.332 169.7512L643.7851 169.7512L643.7851 165.42308L654.957 149.0637L659.1132 149.0637L659.1132 165.40746L662.31635 165.40746L662.31635 169.7512L659.1132 169.7512L659.1132 174.9387L654.332 174.9387ZM654.332 165.40746L654.332 156.61058L648.4101 165.40746L654.332 165.40746ZM681.332 170.34496L681.332 174.9387L664.00385 174.9387Q664.2851 172.32933 665.69135 170.0012Q667.0976 167.67308 671.25385 163.82933Q674.5976 160.71996 675.3476 159.61058Q676.3632 158.07933 676.3632 156.57933Q676.3632 154.9387 675.4726 154.04808Q674.5976 153.15746 673.0351 153.15746Q671.4882 153.15746 670.56635 154.09496Q669.6601 155.01683 669.5195 157.1887L664.5976 156.6887Q665.0351 152.61058 667.3476 150.84496Q669.6757 149.0637 673.1445 149.0637Q676.9726 149.0637 679.1445 151.1262Q681.332 153.17308 681.332 156.23558Q681.332 157.96996 680.707 159.54808Q680.082 161.1262 678.7226 162.84496Q677.832 163.98558 675.4882 166.14183Q673.1445 168.28246 672.5195 168.98558Q671.9101 169.6887 671.5195 170.34496L681.332 170.34496ZM684.75385 168.98558L689.5351 168.45433Q689.707 169.90746 690.44135 170.61058Q691.1757 171.3137 692.3945 171.3137Q693.9257 171.3137 694.9882 169.90746Q696.06635 168.5012 696.3632 164.07933Q694.50385 166.23558 691.707 166.23558Q688.6757 166.23558 686.457 163.89183Q684.25385 161.54808 684.25385 157.78246Q684.25385 153.86058 686.582 151.46996Q688.9101 149.0637 692.5195 149.0637Q696.44135 149.0637 698.957 152.09496Q701.4726 155.1262 701.4726 162.0637Q701.4726 169.14183 698.8476 172.26683Q696.2226 175.39183 692.0195 175.39183Q689.00385 175.39183 687.12885 173.78246Q685.2695 172.17308 684.75385 168.98558ZM695.9257 158.1887Q695.9257 155.79808 694.832 154.48558Q693.7382 153.15746 692.2851 153.15746Q690.9257 153.15746 690.0195 154.23558Q689.1132 155.3137 689.1132 157.78246Q689.1132 160.28246 690.0976 161.45433Q691.082 162.61058 692.5507 162.61058Q693.9726 162.61058 694.94135 161.48558Q695.9257 160.36058 695.9257 158.1887Z" fill-rule="nonzero"/><path stroke="#ffffff" stroke-width="3.0" stroke-linejoin="round" stroke-linecap="round" d="M351.64062 406.9572L356.42188 406.42596Q356.59375 407.8791 357.32812 408.5822Q358.0625 409.28534 359.28125 409.28534Q360.8125 409.28534 361.875 407.8791Q362.95312 406.47284 363.25 402.05096Q361.39062 404.2072 358.59375 404.2072Q355.5625 404.2072 353.34375 401.86346Q351.14062 399.5197 351.14062 395.7541Q351.14062 391.8322 353.46875 389.4416Q355.79688 387.03534 359.40625 387.03534Q363.32812 387.03534 365.84375 390.0666Q368.35938 393.09784 368.35938 400.03534Q368.35938 407.11346 365.73438 410.23846Q363.10938 413.36346 358.90625 413.36346Q355.89062 413.36346 354.01562 411.7541Q352.15625 410.1447 351.64062 406.9572ZM362.8125 396.16034Q362.8125 393.7697 361.71875 392.4572Q360.625 391.1291 359.17188 391.1291Q357.8125 391.1291 356.90625 392.2072Q356.0 393.28534 356.0 395.7541Q356.0 398.2541 356.98438 399.42596Q357.96875 400.5822 359.4375 400.5822Q360.85938 400.5822 361.82812 399.4572Q362.8125 398.3322 362.8125 396.16034ZM388.26562 393.4572L383.48438 393.97284Q383.3125 392.5041 382.5625 391.80096Q381.82812 391.09784 380.65625 391.09784Q379.09375 391.09784 378.0 392.5041Q376.92188 393.91034 376.64062 398.34784Q378.48438 396.17596 381.23438 396.17596Q384.32812 396.17596 386.53125 398.53534Q388.73438 400.8791 388.73438 404.61346Q388.73438 408.5666 386.40625 410.9572Q384.09375 413.34784 380.45312 413.34784Q376.5625 413.34784 374.04688 410.3166Q371.53125 407.28534 371.53125 400.3791Q371.53125 393.28534 374.14062 390.16034Q376.76562 387.03534 380.95312 387.03534Q383.89062 387.03534 385.8125 388.67596Q387.73438 390.3166 388.26562 393.4572ZM377.0625 404.22284Q377.0625 406.6291 378.17188 407.9416Q379.28125 409.2541 380.70312 409.2541Q382.07812 409.2541 382.98438 408.1916Q383.90625 407.11346 383.90625 404.66034Q383.90625 402.1447 382.92188 400.98846Q381.9375 399.8166 380.45312 399.8166Q379.03125 399.8166 378.04688 400.9416Q377.0625 402.05096 377.0625 404.22284Z" fill-rule="nonzero"/><path fill="#4285f4" d="M351.64062 406.9572L356.42188 406.42596Q356.59375 407.8791 357.32812 408.5822Q358.0625 409.28534 359.28125 409.28534Q360.8125 409.28534 361.875 407.8791Q362.95312 406.47284 363.25 402.05096Q361.39062 404.2072 358.59375 404.2072Q355.5625 404.2072 353.34375 401.86346Q351.14062 399.5197 351.14062 395.7541Q351.14062 391.8322 353.46875 389.4416Q355.79688 387.03534 359.40625 387.03534Q363.32812 387.03534 365.84375 390.0666Q368.35938 393.09784 368.35938 400.03534Q368.35938 407.11346 365.73438 410.23846Q363.10938 413.36346 358.90625 413.36346Q355.89062 413.36346 354.01562 411.7541Q352.15625 410.1447 351.64062 406.9572ZM362.8125 396.16034Q362.8125 393.7697 361.71875 392.4572Q360.625 391.1291 359.17188 391.1291Q357.8125 391.1291 356.90625 392.2072Q356.0 393.28534 356.0 395.7541Q356.0 398.2541 356.98438 399.42596Q357.96875 400.5822 359.4375 400.5822Q360.85938 400.5822 361.82812 399.4572Q362.8125 398.3322 362.8125 396.16034ZM388.26562 393.4572L383.48438 393.97284Q383.3125 392.5041 382.5625 391.80096Q381.82812 391.09784 380.65625 391.09784Q379.09375 391.09784 378.0 392.5041Q376.92188 393.91034 376.64062 398.34784Q378.48438 396.17596 381.23438 396.17596Q384.32812 396.17596 386.53125 398.53534Q388.73438 400.8791 388.73438 404.61346Q388.73438 408.5666 386.40625 410.9572Q384.09375 413.34784 380.45312 413.34784Q376.5625 413.34784 374.04688 410.3166Q371.53125 407.28534 371.53125 400.3791Q371.53125 393.28534 374.14062 390.16034Q376.76562 387.03534 380.95312 387.03534Q383.89062 387.03534 385.8125 388.67596Q387.73438 390.3166 388.26562 393.4572ZM377.0625 404.22284Q377.0625 406.6291 378.17188 407.9416Q379.28125 409.2541 380.70312 409.2541Q382.07812 409.2541 382.98438 408.1916Q383.90625 407.11346 383.90625 404.66034Q383.90625 402.1447 382.92188 400.98846Q381.9375 399.8166 380.45312 399.8166Q379.03125 399.8166 378.04688 400.9416Q377.0625 402.05096 377.0625 404.22284Z" fill-rule="nonzero"/><path stroke="#ffffff" stroke-width="3.0" stroke-linejoin="round" stroke-linecap="round" d="M459.21875 307.22003L459.21875 311.81378L441.89062 311.81378Q442.17188 309.2044 443.57812 306.87628Q444.98438 304.54816 449.14062 300.7044Q452.48438 297.59503 453.23438 296.48566Q454.25 294.9544 454.25 293.4544Q454.25 291.81378 453.35938 290.92316Q452.48438 290.03253 450.92188 290.03253Q449.375 290.03253 448.45312 290.97003Q447.54688 291.8919 447.40625 294.06378L442.48438 293.56378Q442.92188 289.48566 445.23438 287.72003Q447.5625 285.93878 451.03125 285.93878Q454.85938 285.93878 457.03125 288.00128Q459.21875 290.04816 459.21875 293.11066Q459.21875 294.84503 458.59375 296.42316Q457.96875 298.00128 456.60938 299.72003Q455.71875 300.86066 453.375 303.0169Q451.03125 305.15753 450.40625 305.86066Q449.79688 306.56378 449.40625 307.22003L459.21875 307.22003ZM479.21875 307.22003L479.21875 311.81378L461.89062 311.81378Q462.17188 309.2044 463.57812 306.87628Q464.98438 304.54816 469.14062 300.7044Q472.48438 297.59503 473.23438 296.48566Q474.25 294.9544 474.25 293.4544Q474.25 291.81378 473.35938 290.92316Q472.48438 290.03253 470.92188 290.03253Q469.375 290.03253 468.45312 290.97003Q467.54688 291.8919 467.40625 294.06378L462.48438 293.56378Q462.92188 289.48566 465.23438 287.72003Q467.5625 285.93878 471.03125 285.93878Q474.85938 285.93878 477.03125 288.00128Q479.21875 290.04816 479.21875 293.11066Q479.21875 294.84503 478.59375 296.42316Q477.96875 298.00128 476.60938 299.72003Q475.71875 300.86066 473.375 303.0169Q471.03125 305.15753 470.40625 305.86066Q469.79688 306.56378 469.40625 307.22003L479.21875 307.22003ZM499.26562 292.36066L494.48438 292.87628Q494.3125 291.40753 493.5625 290.7044Q492.82812 290.00128 491.65625 290.00128Q490.09375 290.00128 489.0 291.40753Q487.92188 292.81378 487.64062 297.25128Q489.48438 295.0794 492.23438 295.0794Q495.32812 295.0794 497.53125 297.43878Q499.73438 299.78253 499.73438 303.5169Q499.73438 307.47003 497.40625 309.86066Q495.09375 312.25128 491.45312 312.25128Q487.5625 312.25128 485.04688 309.22003Q482.53125 306.18878 482.53125 299.28253Q482.53125 292.18878 485.14062 289.06378Q487.76562 285.93878 491.95312 285.93878Q494.89062 285.93878 496.8125 287.5794Q498.73438 289.22003 499.26562 292.36066ZM488.0625 303.12628Q488.0625 305.53253 489.17188 306.84503Q490.28125 308.15753 491.70312 308.15753Q493.07812 308.15753 493.98438 307.09503Q494.90625 306.0169 494.90625 303.56378Q494.90625 301.04816 493.92188 299.8919Q492.9375 298.72003 491.45312 298.72003Q490.03125 298.72003 489.04688 299.84503Q488.0625 300.9544 488.0625 303.12628Z" fill-rule="nonzero"/><path fill="#4285f4" d="M459.21875 307.22003L459.21875 311.81378L441.89062 311.81378Q442.17188 309.2044 443.57812 306.87628Q444.98438 304.54816 449.14062 300.7044Q452.48438 297.59503 453.23438 296.48566Q454.25 294.9544 454.25 293.4544Q454.25 291.81378 453.35938 290.92316Q452.48438 290.03253 450.92188 290.03253Q449.375 290.03253 448.45312 290.97003Q447.54688 291.8919 447.40625 294.06378L442.48438 293.56378Q442.92188 289.48566 445.23438 287.72003Q447.5625 285.93878 451.03125 285.93878Q454.85938 285.93878 457.03125 288.00128Q459.21875 290.04816 459.21875 293.11066Q459.21875 294.84503 458.59375 296.42316Q457.96875 298.00128 456.60938 299.72003Q455.71875 300.86066 453.375 303.0169Q451.03125 305.15753 450.40625 305.86066Q449.79688 306.56378 449.40625 307.22003L459.21875 307.22003ZM479.21875 307.22003L479.21875 311.81378L461.89062 311.81378Q462.17188 309.2044 463.57812 306.87628Q464.98438 304.54816 469.14062 300.7044Q472.48438 297.59503 473.23438 296.48566Q474.25 294.9544 474.25 293.4544Q474.25 291.81378 473.35938 290.92316Q472.48438 290.03253 470.92188 290.03253Q469.375 290.03253 468.45312 290.97003Q467.54688 291.8919 467.40625 294.06378L462.48438 293.56378Q462.92188 289.48566 465.23438 287.72003Q467.5625 285.93878 471.03125 285.93878Q474.85938 285.93878 477.03125 288.00128Q479.21875 290.04816 479.21875 293.11066Q479.21875 294.84503 478.59375 296.42316Q477.96875 298.00128 476.60938 299.72003Q475.71875 300.86066 473.375 303.0169Q471.03125 305.15753 470.40625 305.86066Q469.79688 306.56378 469.40625 307.22003L479.21875 307.22003ZM499.26562 292.36066L494.48438 292.87628Q494.3125 291.40753 493.5625 290.7044Q492.82812 290.00128 491.65625 290.00128Q490.09375 290.00128 489.0 291.40753Q487.92188 292.81378 487.64062 297.25128Q489.48438 295.0794 492.23438 295.0794Q495.32812 295.0794 497.53125 297.43878Q499.73438 299.78253 499.73438 303.5169Q499.73438 307.47003 497.40625 309.86066Q495.09375 312.25128 491.45312 312.25128Q487.5625 312.25128 485.04688 309.22003Q482.53125 306.18878 482.53125 299.28253Q482.53125 292.18878 485.14062 289.06378Q487.76562 285.93878 491.95312 285.93878Q494.89062 285.93878 496.8125 287.5794Q498.73438 289.22003 499.26562 292.36066ZM488.0625 303.12628Q488.0625 305.53253 489.17188 306.84503Q490.28125 308.15753 491.70312 308.15753Q493.07812 308.15753 493.98438 307.09503Q494.90625 306.0169 494.90625 303.56378Q494.90625 301.04816 493.92188 299.8919Q492.9375 298.72003 491.45312 298.72003Q490.03125 298.72003 489.04688 299.84503Q488.0625 300.9544 488.0625 303.12628Z" fill-rule="nonzero"/><path fill="#000000" d="M75.33437 520.5038Q78.45937 520.5038 80.20937 522.72253Q82.30312 525.36316 82.30312 531.47253Q82.30312 537.5663 80.19375 540.23816Q78.45937 542.42566 75.33437 542.42566Q72.19375 542.42566 70.27187 540.0194Q68.36562 537.61316 68.36562 531.42566Q68.36562 525.36316 70.475 522.7069Q72.20937 520.5038 75.33437 520.5038ZM75.33437 523.91003Q74.58437 523.91003 73.99062 524.3944Q73.4125 524.86316 73.08437 526.09753Q72.6625 527.6913 72.6625 531.47253Q72.6625 535.2538 73.0375 536.67566Q73.42812 538.0819 74.00625 538.55066Q74.58437 539.0194 75.33437 539.0194Q76.08437 539.0194 76.6625 538.55066Q77.25625 538.0663 77.56875 536.8319Q78.00625 535.2538 78.00625 531.47253Q78.00625 527.6913 77.61562 526.28503Q77.24062 524.86316 76.6625 524.3944Q76.08437 523.91003 75.33437 523.91003Z" fill-rule="nonzero"/><path fill="#000000" d="M44.9125 464.29968L40.7875 464.29968L40.7875 448.78406Q38.5375 450.89343 35.475 451.90906L35.475 448.17468Q37.084373 447.64343 38.975 446.17468Q40.865623 444.70593 41.56875 442.73718L44.9125 442.73718L44.9125 464.29968ZM58.334373 442.73718Q61.459373 442.73718 63.209373 444.95593Q65.30312 447.59656 65.30312 453.70593Q65.30312 459.79968 63.19375 462.47156Q61.459373 464.65906 58.334373 464.65906Q55.19375 464.65906 53.271873 462.2528Q51.365623 459.84656 51.365623 453.65906Q51.365623 447.59656 53.475 444.9403Q55.209373 442.73718 58.334373 442.73718ZM58.334373 446.14343Q57.584373 446.14343 56.990623 446.6278Q56.4125 447.09656 56.084373 448.33093Q55.6625 449.92468 55.6625 453.70593Q55.6625 457.48718 56.0375 458.90906Q56.428123 460.3153 57.00625 460.78406Q57.584373 461.2528 58.334373 461.2528Q59.084373 461.2528 59.6625 460.78406Q60.25625 460.29968 60.56875 459.0653Q61.00625 457.48718 61.00625 453.70593Q61.00625 449.92468 60.615623 448.51843Q60.240623 447.09656 59.6625 446.6278Q59.084373 446.14343 58.334373 446.14343ZM75.33437 442.73718Q78.45937 442.73718 80.20937 444.95593Q82.30312 447.59656 82.30312 453.70593Q82.30312 459.79968 80.19375 462.47156Q78.45937 464.65906 75.33437 464.65906Q72.19375 464.65906 70.27187 462.2528Q68.36562 459.84656 68.36562 453.65906Q68.36562 447.59656 70.475 444.9403Q72.20937 442.73718 75.33437 442.73718ZM75.33437 446.14343Q74.58437 446.14343 73.99062 446.6278Q73.4125 447.09656 73.08437 448.33093Q72.6625 449.92468 72.6625 453.70593Q72.6625 457.48718 73.0375 458.90906Q73.42812 460.3153 74.00625 460.78406Q74.58437 461.2528 75.33437 461.2528Q76.08437 461.2528 76.6625 460.78406Q77.25625 460.29968 77.56875 459.0653Q78.00625 457.48718 78.00625 453.70593Q78.00625 449.92468 77.61562 448.51843Q77.24062 447.09656 76.6625 446.6278Q76.08437 446.14343 75.33437 446.14343Z" fill-rule="nonzero"/><path fill="#000000" d="M48.271873 382.70496L48.271873 386.53308L33.85 386.53308Q34.084373 384.3612 35.25625 382.4237Q36.428123 380.4862 39.88125 377.26746Q42.6625 374.68933 43.303123 373.75183Q44.146873 372.4862 44.146873 371.2362Q44.146873 369.8612 43.396873 369.12683Q42.6625 368.37683 41.365623 368.37683Q40.06875 368.37683 39.303123 369.15808Q38.553123 369.93933 38.428123 371.7362L34.334373 371.32996Q34.69375 367.9237 36.63125 366.45496Q38.56875 364.97058 41.459373 364.97058Q44.646873 364.97058 46.459373 366.68933Q48.271873 368.39246 48.271873 370.93933Q48.271873 372.39246 47.75625 373.70496Q47.240623 375.01746 46.115623 376.45496Q45.365623 377.40808 43.4125 379.20496Q41.459373 380.9862 40.94375 381.57996Q40.428123 382.15808 40.1 382.70496L48.271873 382.70496ZM58.334373 364.97058Q61.459373 364.97058 63.209373 367.18933Q65.30312 369.82996 65.30312 375.93933Q65.30312 382.03308 63.19375 384.70496Q61.459373 386.89246 58.334373 386.89246Q55.19375 386.89246 53.271873 384.4862Q51.365623 382.07996 51.365623 375.89246Q51.365623 369.82996 53.475 367.1737Q55.209373 364.97058 58.334373 364.97058ZM58.334373 368.37683Q57.584373 368.37683 56.990623 368.8612Q56.4125 369.32996 56.084373 370.56433Q55.6625 372.15808 55.6625 375.93933Q55.6625 379.72058 56.0375 381.14246Q56.428123 382.5487 57.00625 383.01746Q57.584373 383.4862 58.334373 383.4862Q59.084373 383.4862 59.6625 383.01746Q60.25625 382.53308 60.56875 381.2987Q61.00625 379.72058 61.00625 375.93933Q61.00625 372.15808 60.615623 370.75183Q60.240623 369.32996 59.6625 368.8612Q59.084373 368.37683 58.334373 368.37683ZM75.33437 364.97058Q78.45937 364.97058 80.20937 367.18933Q82.30312 369.82996 82.30312 375.93933Q82.30312 382.03308 80.19375 384.70496Q78.45937 386.89246 75.33437 386.89246Q72.19375 386.89246 70.27187 384.4862Q68.36562 382.07996 68.36562 375.89246Q68.36562 369.82996 70.475 367.1737Q72.20937 364.97058 75.33437 364.97058ZM75.33437 368.37683Q74.58437 368.37683 73.99062 368.8612Q73.4125 369.32996 73.08437 370.56433Q72.6625 372.15808 72.6625 375.93933Q72.6625 379.72058 73.0375 381.14246Q73.42812 382.5487 74.00625 383.01746Q74.58437 383.4862 75.33437 383.4862Q76.08437 383.4862 76.6625 383.01746Q77.25625 382.53308 77.56875 381.2987Q78.00625 379.72058 78.00625 375.93933Q78.00625 372.15808 77.61562 370.75183Q77.24062 369.32996 76.6625 368.8612Q76.08437 368.37683 75.33437 368.37683Z" fill-rule="nonzero"/><path fill="#000000" d="M34.225 303.0634L38.209373 302.579Q38.396873 304.11026 39.225 304.92276Q40.06875 305.71964 41.25625 305.71964Q42.5375 305.71964 43.396873 304.7509Q44.271873 303.78214 44.271873 302.1415Q44.271873 300.59464 43.428123 299.6884Q42.6 298.78214 41.4125 298.78214Q40.615623 298.78214 39.521873 299.079L39.975 295.73526Q41.646873 295.7665 42.521873 295.0009Q43.396873 294.23526 43.396873 292.954Q43.396873 291.8759 42.75625 291.23526Q42.115623 290.59464 41.0375 290.59464Q39.990623 290.59464 39.240623 291.329Q38.490623 292.04776 38.334373 293.454L34.5375 292.8134Q34.928123 290.86026 35.725 289.704Q36.521873 288.53214 37.94375 287.8759Q39.38125 287.204 41.1625 287.204Q44.19375 287.204 46.021873 289.1415Q47.521873 290.71964 47.521873 292.704Q47.521873 295.53214 44.44375 297.21964Q46.2875 297.6259 47.38125 299.0009Q48.490623 300.3759 48.490623 302.3134Q48.490623 305.1415 46.428123 307.1415Q44.365623 309.1259 41.2875 309.1259Q38.38125 309.1259 36.459373 307.454Q34.5375 305.78214 34.225 303.0634ZM58.334373 287.204Q61.459373 287.204 63.209373 289.42276Q65.30312 292.0634 65.30312 298.17276Q65.30312 304.2665 63.19375 306.9384Q61.459373 309.1259 58.334373 309.1259Q55.19375 309.1259 53.271873 306.71964Q51.365623 304.3134 51.365623 298.1259Q51.365623 292.0634 53.475 289.40714Q55.209373 287.204 58.334373 287.204ZM58.334373 290.61026Q57.584373 290.61026 56.990623 291.09464Q56.4125 291.5634 56.084373 292.79776Q55.6625 294.3915 55.6625 298.17276Q55.6625 301.954 56.0375 303.3759Q56.428123 304.78214 57.00625 305.2509Q57.584373 305.71964 58.334373 305.71964Q59.084373 305.71964 59.6625 305.2509Q60.25625 304.7665 60.56875 303.53214Q61.00625 301.954 61.00625 298.17276Q61.00625 294.3915 60.615623 292.98526Q60.240623 291.5634 59.6625 291.09464Q59.084373 290.61026 58.334373 290.61026ZM75.33437 287.204Q78.45937 287.204 80.20937 289.42276Q82.30312 292.0634 82.30312 298.17276Q82.30312 304.2665 80.19375 306.9384Q78.45937 309.1259 75.33437 309.1259Q72.19375 309.1259 70.27187 306.71964Q68.36562 304.3134 68.36562 298.1259Q68.36562 292.0634 70.475 289.40714Q72.20937 287.204 75.33437 287.204ZM75.33437 290.61026Q74.58437 290.61026 73.99062 291.09464Q73.4125 291.5634 73.08437 292.79776Q72.6625 294.3915 72.6625 298.17276Q72.6625 301.954 73.0375 303.3759Q73.42812 304.78214 74.00625 305.2509Q74.58437 305.71964 75.33437 305.71964Q76.08437 305.71964 76.6625 305.2509Q77.25625 304.7665 77.56875 303.53214Q78.00625 301.954 78.00625 298.17276Q78.00625 294.3915 77.61562 292.98526Q77.24062 291.5634 76.6625 291.09464Q76.08437 290.61026 75.33437 290.61026Z" fill-rule="nonzero"/><path fill="#000000" d="M42.44375 230.99992L42.44375 226.6718L33.6625 226.6718L33.6625 223.07805L42.975 209.43742L46.428123 209.43742L46.428123 223.06242L49.1 223.06242L49.1 226.6718L46.428123 226.6718L46.428123 230.99992L42.44375 230.99992ZM42.44375 223.06242L42.44375 215.71867L37.50625 223.06242L42.44375 223.06242ZM58.334373 209.43742Q61.459373 209.43742 63.209373 211.65617Q65.30312 214.2968 65.30312 220.40617Q65.30312 226.49992 63.19375 229.1718Q61.459373 231.3593 58.334373 231.3593Q55.19375 231.3593 53.271873 228.95305Q51.365623 226.5468 51.365623 220.3593Q51.365623 214.2968 53.475 211.64055Q55.209373 209.43742 58.334373 209.43742ZM58.334373 212.84367Q57.584373 212.84367 56.990623 213.32805Q56.4125 213.7968 56.084373 215.03117Q55.6625 216.62492 55.6625 220.40617Q55.6625 224.18742 56.0375 225.6093Q56.428123 227.01555 57.00625 227.4843Q57.584373 227.95305 58.334373 227.95305Q59.084373 227.95305 59.6625 227.4843Q60.25625 226.99992 60.56875 225.76555Q61.00625 224.18742 61.00625 220.40617Q61.00625 216.62492 60.615623 215.21867Q60.240623 213.7968 59.6625 213.32805Q59.084373 212.84367 58.334373 212.84367ZM75.33437 209.43742Q78.45937 209.43742 80.20937 211.65617Q82.30312 214.2968 82.30312 220.40617Q82.30312 226.49992 80.19375 229.1718Q78.45937 231.3593 75.33437 231.3593Q72.19375 231.3593 70.27187 228.95305Q68.36562 226.5468 68.36562 220.3593Q68.36562 214.2968 70.475 211.64055Q72.20937 209.43742 75.33437 209.43742ZM75.33437 212.84367Q74.58437 212.84367 73.99062 213.32805Q73.4125 213.7968 73.08437 215.03117Q72.6625 216.62492 72.6625 220.40617Q72.6625 224.18742 73.0375 225.6093Q73.42812 227.01555 74.00625 227.4843Q74.58437 227.95305 75.33437 227.95305Q76.08437 227.95305 76.6625 227.4843Q77.25625 226.99992 77.56875 225.76555Q78.00625 224.18742 78.00625 220.40617Q78.00625 216.62492 77.61562 215.21867Q77.24062 213.7968 76.6625 213.32805Q76.08437 212.84367 75.33437 212.84367Z" fill-rule="nonzero"/><path fill="#000000" d="M34.428123 147.71771L38.5375 147.28021Q38.709373 148.67084 39.56875 149.48334Q40.44375 150.29584 41.56875 150.29584Q42.85 150.29584 43.740623 149.24896Q44.646873 148.20209 44.646873 146.09271Q44.646873 144.12396 43.75625 143.13959Q42.865623 142.13959 41.44375 142.13959Q39.678123 142.13959 38.271873 143.71771L34.928123 143.23334L37.0375 132.04584L47.928123 132.04584L47.928123 135.90521L40.1625 135.90521L39.521873 139.54584Q40.896873 138.85834 42.334373 138.85834Q45.06875 138.85834 46.975 140.85834Q48.88125 142.84271 48.88125 146.03021Q48.88125 148.67084 47.334373 150.76459Q45.240623 153.59271 41.521873 153.59271Q38.553123 153.59271 36.678123 151.99896Q34.803123 150.40521 34.428123 147.71771ZM58.334373 131.67084Q61.459373 131.67084 63.209373 133.88959Q65.30312 136.53021 65.30312 142.63959Q65.30312 148.73334 63.19375 151.40521Q61.459373 153.59271 58.334373 153.59271Q55.19375 153.59271 53.271873 151.18646Q51.365623 148.78021 51.365623 142.59271Q51.365623 136.53021 53.475 133.87396Q55.209373 131.67084 58.334373 131.67084ZM58.334373 135.07709Q57.584373 135.07709 56.990623 135.56146Q56.4125 136.03021 56.084373 137.26459Q55.6625 138.85834 55.6625 142.63959Q55.6625 146.42084 56.0375 147.84271Q56.428123 149.24896 57.00625 149.71771Q57.584373 150.18646 58.334373 150.18646Q59.084373 150.18646 59.6625 149.71771Q60.25625 149.23334 60.56875 147.99896Q61.00625 146.42084 61.00625 142.63959Q61.00625 138.85834 60.615623 137.45209Q60.240623 136.03021 59.6625 135.56146Q59.084373 135.07709 58.334373 135.07709ZM75.33437 131.67084Q78.45937 131.67084 80.20937 133.88959Q82.30312 136.53021 82.30312 142.63959Q82.30312 148.73334 80.19375 151.40521Q78.45937 153.59271 75.33437 153.59271Q72.19375 153.59271 70.27187 151.18646Q68.36562 148.78021 68.36562 142.59271Q68.36562 136.53021 70.475 133.87396Q72.20937 131.67084 75.33437 131.67084ZM75.33437 135.07709Q74.58437 135.07709 73.99062 135.56146Q73.4125 136.03021 73.08437 137.26459Q72.6625 138.85834 72.6625 142.63959Q72.6625 146.42084 73.0375 147.84271Q73.42812 149.24896 74.00625 149.71771Q74.58437 150.18646 75.33437 150.18646Q76.08437 150.18646 76.6625 149.71771Q77.25625 149.23334 77.56875 147.99896Q78.00625 146.42084 78.00625 142.63959Q78.00625 138.85834 77.61562 137.45209Q77.24062 136.03021 76.6625 135.56146Q76.08437 135.07709 75.33437 135.07709Z" fill-rule="nonzero"/><path fill="#000000" d="M125.290016 622.8896L127.99691 625.5965L117.799095 635.7943Q116.42908 634.09283 115.887695 631.89417Q115.34632 629.6955 115.51205 624.9778Q115.65568 621.1881 115.445755 620.07227Q115.147446 618.5807 114.263565 617.6968Q113.29129 616.72455 112.24168 616.7356Q111.19207 616.72455 110.27504 617.64154Q109.35801 618.5586 109.36906 619.6524Q109.39115 620.73517 110.57335 622.0941L107.391365 624.7016Q105.2369 622.0389 105.56836 619.6303Q105.88876 617.21063 107.93275 615.1667Q110.18665 612.9128 112.683624 612.8465Q115.16955 612.76917 116.97046 614.57007Q117.99798 615.5976 118.561455 616.89026Q119.12492 618.1829 119.3459 619.9949Q119.489525 621.19916 119.379036 623.8508Q119.25751 626.49146 119.312744 627.2759Q119.35694 628.04926 119.51162 628.668L125.290016 622.8896ZM119.86518 603.23425Q122.07489 601.02454 124.88122 601.356Q128.22893 601.7427 132.5489 606.0627Q136.85783 610.3716 137.25558 613.75244Q137.57599 616.52563 135.36629 618.73535Q133.14552 620.9561 130.08508 620.6136Q127.03568 620.2601 122.66046 615.8848Q118.37363 611.598 117.98693 608.2282Q117.65547 605.444 119.86518 603.23425ZM122.273766 605.6428Q121.74343 606.17316 121.66609 606.9355Q121.58875 607.6758 122.22957 608.78064Q123.05821 610.2059 125.73196 612.87964Q128.4057 615.5534 129.67628 616.29364Q130.94687 617.0118 131.68712 616.93445Q132.42737 616.8571 132.9577 616.3268Q133.48804 615.79645 133.56537 615.0562Q133.64272 614.2938 132.99084 613.2Q132.18431 611.7748 129.51056 609.101Q126.83681 606.4273 125.56623 605.7091Q124.29565 604.9689 123.55539 605.0462Q122.80409 605.1125 122.273766 605.6428ZM149.6631 603.9303L146.74629 606.8471L135.77509 595.8759Q135.67564 598.95844 134.22829 601.84216L131.58768 599.20154Q132.35004 597.68787 132.64835 595.31244Q132.94666 592.937 132.05173 591.0477L134.4161 588.6833L149.6631 603.9303ZM150.779 595.78754L153.28702 592.66077Q154.2593 593.4121 155.11003 593.40106Q155.94972 593.37897 156.66788 592.66077Q157.57385 591.7548 157.37498 590.2964Q157.17612 588.838 154.74544 586.0538Q154.92221 588.41815 153.26492 590.07544Q151.47507 591.8653 148.79027 591.78796Q146.11652 591.6996 143.89577 589.4788Q141.58661 587.1697 141.54242 584.38544Q141.49823 581.6012 143.6306 579.4688Q145.93974 577.15967 149.21011 577.46906Q152.46944 577.76733 156.56844 581.8664Q160.73375 586.0317 161.03206 589.4236Q161.31932 592.80444 158.84444 595.2793Q157.06563 597.0581 155.02165 597.2238Q152.97766 597.3675 150.779 595.78754ZM151.01102 582.8497Q149.59682 581.4355 148.17155 581.31396Q146.74629 581.1703 145.89555 582.02106Q145.089 582.8276 145.1995 583.9987Q145.30998 585.16986 146.75734 586.61725Q148.22679 588.0867 149.49738 588.20825Q150.76796 588.3077 151.62975 587.44586Q152.46944 586.6062 152.38104 585.3688Q152.29265 584.13135 151.01102 582.8497Z" fill-rule="nonzero"/><path fill="#000000" d="M159.57364 568.1662Q160.68954 572.2873 160.12607 576.9829L156.52425 576.54095Q157.48547 570.3427 153.86154 564.1113L156.76732 562.42096Q158.51299 562.42096 157.59596 563.60315L158.21468 565.0394L169.73831 553.5158L171.98116 555.75867L165.9376 561.8022L168.09207 563.95667L173.06392 558.98486L175.29572 561.2166L170.32388 566.1885L173.39537 569.25995L180.35596 562.2994L182.58775 564.5312L175.62718 571.49176L180.61008 576.4747L178.28987 578.79486L173.30699 573.81195L163.7721 583.34686L161.54028 581.11505L165.27469 577.3807L159.97139 572.07733L165.77188 566.27686L163.61742 564.12244L159.57364 568.1662ZM167.5949 575.0605L171.07518 571.5802L168.00368 568.50867L164.52339 571.98895L167.5949 575.0605Z" fill-rule="nonzero"/><path fill="#000000" d="M226.51836 622.88965L229.22525 625.5965L219.02744 635.7943Q217.65742 634.09283 217.11604 631.89417Q216.57466 629.6955 216.74039 624.9778Q216.88402 621.1882 216.6741 620.07227Q216.3758 618.5807 215.4919 617.6968Q214.51964 616.72455 213.47002 616.7356Q212.42041 616.72455 211.50339 617.64154Q210.58635 618.5586 210.5974 619.6524Q210.61949 620.73517 211.8017 622.0941L208.6197 624.7016Q206.46524 622.0389 206.7967 619.6303Q207.11711 617.2107 209.16109 615.1667Q211.415 612.9128 213.91196 612.8465Q216.39789 612.76917 218.19879 614.57007Q219.22632 615.5976 219.7898 616.89026Q220.35326 618.1829 220.57423 619.9949Q220.71786 621.1992 220.60738 623.8508Q220.48584 626.49146 220.54109 627.2759Q220.58528 628.0493 220.73996 628.668L226.51836 622.88965ZM221.09352 603.23425Q223.30322 601.02454 226.10956 601.356Q229.45726 601.74274 233.77724 606.0627Q238.08618 610.37164 238.48392 613.7525Q238.80434 616.52563 236.59462 618.73535Q234.37387 620.9561 231.31342 620.61365Q228.26402 620.2601 223.8888 615.8848Q219.60196 611.598 219.21527 608.2282Q218.8838 605.444 221.09352 603.23425ZM223.5021 605.6428Q222.97177 606.17316 222.89442 606.93555Q222.8171 607.6758 223.4579 608.78064Q224.28654 610.2059 226.9603 612.87964Q229.63403 615.5534 230.90462 616.29364Q232.1752 617.0118 232.91545 616.93445Q233.65572 616.8571 234.18604 616.3268Q234.71637 615.79645 234.79372 615.0562Q234.87105 614.2938 234.2192 613.2001Q233.41264 611.7748 230.73889 609.101Q228.06514 606.4273 226.79457 605.7091Q225.52399 604.9689 224.78374 605.0462Q224.03242 605.1125 223.5021 605.6428ZM250.55998 598.84796L253.26688 601.5549L243.06908 611.7527Q241.69905 610.0512 241.15767 607.85254Q240.61629 605.6539 240.78201 600.93616Q240.92566 597.1465 240.71573 596.03064Q240.41742 594.53906 239.53354 593.65515Q238.56126 592.6829 237.51166 592.694Q236.46204 592.6829 235.54501 593.5999Q234.62798 594.51697 234.63902 595.6108Q234.66113 596.69354 235.84332 598.0525L232.66135 600.66Q230.50688 597.99725 230.83833 595.5887Q231.15874 593.169 233.20271 591.12506Q235.45662 588.87115 237.9536 588.8049Q240.43951 588.72754 242.24043 590.52844Q243.26794 591.55597 243.83142 592.84863Q244.3949 594.1413 244.61586 595.95325Q244.75949 597.15753 244.64902 599.8092Q244.52748 602.4498 244.58272 603.23425Q244.6269 604.0076 244.78159 604.6264L250.55998 598.84796ZM245.13515 579.1926Q247.34485 576.9829 250.15118 577.3144Q253.4989 577.70105 257.81888 582.02106Q262.1278 586.33 262.52554 589.7108Q262.84595 592.484 260.63626 594.6937Q258.4155 596.9145 255.35506 596.57196Q252.30565 596.21844 247.93044 591.8432Q243.6436 587.5564 243.2569 584.1866Q242.92545 581.40234 245.13515 579.1926ZM247.54373 581.6012Q247.0134 582.13153 246.93607 582.8939Q246.85872 583.63416 247.49954 584.739Q248.32817 586.16425 251.00192 588.838Q253.67567 591.5118 254.94626 592.252Q256.21683 592.97015 256.9571 592.8928Q257.69733 592.8155 258.22766 592.28516Q258.758 591.7548 258.83533 591.0146Q258.9127 590.2522 258.2608 589.1584Q257.45428 587.73315 254.78052 585.0594Q252.10678 582.3857 250.8362 581.6675Q249.56561 580.92725 248.82536 581.0046Q248.07407 581.07086 247.54373 581.6012Z" fill-rule="nonzero"/><path fill="#000000" d="M260.80197 568.1662Q261.91788 572.2873 261.3544 576.9829L257.7526 576.54095Q258.7138 570.3428 255.08989 564.1114L257.99567 562.42096Q259.74133 562.42096 258.82428 563.60315L259.44302 565.0394L270.96664 553.5158L273.2095 555.75867L267.16595 561.80225L269.3204 563.95667L274.29227 558.98486L276.52405 561.2167L271.55222 566.1885L274.62372 569.26L281.5843 562.2994L283.8161 564.5312L276.85553 571.4918L281.8384 576.4747L279.51822 578.79486L274.5353 573.812L265.00043 583.34686L262.76862 581.11505L266.50302 577.3807L261.19974 572.0774L267.0002 566.27686L264.84573 564.12244L260.80197 568.1662ZM268.8232 575.0605L272.30353 571.5802L269.23203 568.50867L265.75174 571.98895L268.8232 575.0605Z" fill-rule="nonzero"/><path fill="#000000" d="M327.7467 622.8896L330.4536 625.5965L320.2558 635.7943Q318.88577 634.09283 318.3444 631.89417Q317.803 629.6955 317.96875 624.9778Q318.11237 621.1881 317.90247 620.0722Q317.60416 618.5807 316.72028 617.6968Q315.748 616.72455 314.69836 616.7356Q313.64877 616.72455 312.73175 617.64154Q311.8147 618.5586 311.82574 619.6524Q311.84787 620.73517 313.03006 622.0941L309.84808 624.70154Q307.6936 622.0389 308.02505 619.6303Q308.34546 617.21063 310.38943 615.1667Q312.64334 612.9128 315.14032 612.8465Q317.62625 612.76917 319.42715 614.57007Q320.45468 615.5976 321.01816 616.89026Q321.58163 618.1829 321.80258 619.9949Q321.94623 621.19916 321.83572 623.8508Q321.7142 626.49146 321.76944 627.2759Q321.81363 628.04926 321.96832 628.66797L327.7467 622.8896ZM322.32187 603.23425Q324.5316 601.02454 327.33792 601.356Q330.6856 601.7427 335.0056 606.0627Q339.31454 610.3716 339.71228 613.75244Q340.03268 616.52563 337.82297 618.73535Q335.60223 620.9561 332.54178 620.6136Q329.49237 620.2601 325.11716 615.8848Q320.83032 611.598 320.44363 608.2282Q320.11215 605.444 322.32187 603.23425ZM324.73047 605.6428Q324.20013 606.17316 324.12277 606.9355Q324.04544 607.6758 324.68625 608.78064Q325.5149 610.2059 328.18866 612.87964Q330.8624 615.55334 332.133 616.29364Q333.40356 617.0118 334.14383 616.93445Q334.88406 616.8571 335.4144 616.3268Q335.94473 615.79645 336.02206 615.0562Q336.0994 614.2938 335.44754 613.2Q334.641 611.7748 331.96725 609.101Q329.29352 606.4273 328.02292 605.7091Q326.75235 604.9689 326.0121 605.0462Q325.26077 605.1125 324.73047 605.6428ZM351.78833 598.84796L354.49524 601.5549L344.29742 611.7527Q342.9274 610.0512 342.38602 607.85254Q341.84467 605.6539 342.01038 600.93616Q342.15402 597.1465 341.9441 596.0306Q341.64578 594.53906 340.7619 593.65515Q339.7896 592.68286 338.74002 592.6939Q337.6904 592.68286 336.77338 593.5999Q335.85635 594.51697 335.8674 595.6108Q335.8895 596.6935 337.0717 598.0525L333.8897 600.6599Q331.73523 597.99725 332.06668 595.5887Q332.3871 593.169 334.4311 591.12506Q336.68497 588.87115 339.18195 588.8049Q341.66788 588.72754 343.46878 590.52844Q344.4963 591.5559 345.05978 592.84863Q345.62326 594.1413 345.84424 595.95325Q345.98785 597.15753 345.87738 599.8092Q345.75583 602.4498 345.81107 603.23425Q345.8553 604.0076 346.00995 604.62634L351.78833 598.84796ZM364.14062 591.9095L361.2238 594.8263L350.2526 583.8551Q350.15317 586.9376 348.7058 589.8213L346.0652 587.1807Q346.82755 585.66705 347.12585 583.2916Q347.42416 580.9162 346.52924 579.0269L348.89362 576.6625L364.14062 591.9095Z" fill-rule="nonzero"/><path fill="#000000" d="M362.03033 568.1662Q363.14624 572.2873 362.58276 576.9829L358.98093 576.54095Q359.94217 570.3427 356.31824 564.1113L359.224 562.4209Q360.96967 562.4209 360.05264 563.60315L360.67136 565.0394L372.195 553.5158L374.43787 555.75867L368.3943 561.8022L370.54877 563.95667L375.5206 558.9848L377.7524 561.2166L372.78058 566.1885L375.85208 569.25995L382.81265 562.2994L385.04446 564.5312L378.08386 571.49176L383.06677 576.4747L380.74658 578.79486L375.76367 573.81195L366.2288 583.34686L363.99698 581.11505L367.73138 577.3807L362.4281 572.07733L368.22858 566.27686L366.0741 564.1224L362.03033 568.1662ZM370.05157 575.0605L373.53186 571.5802L370.4604 568.50867L366.98007 571.98895L370.05157 575.0605Z" fill-rule="nonzero"/><path fill="#000000" d="M428.97504 622.8896L431.68195 625.5965L421.48413 635.7943Q420.1141 634.09283 419.57272 631.89417Q419.03134 629.6955 419.19708 624.9778Q419.34073 621.1882 419.1308 620.07227Q418.8325 618.5807 417.9486 617.6968Q416.97632 616.72455 415.92673 616.7356Q414.8771 616.72455 413.96008 617.64154Q413.04306 618.5586 413.0541 619.6524Q413.0762 620.73517 414.2584 622.0941L411.07642 624.7016Q408.92194 622.0389 409.2534 619.6303Q409.5738 617.2107 411.6178 615.1667Q413.87167 612.9128 416.36865 612.8465Q418.85458 612.76917 420.6555 614.57007Q421.683 615.5976 422.2465 616.89026Q422.80997 618.1829 423.0309 619.9949Q423.17456 621.1992 423.0641 623.8508Q422.94254 626.49146 422.99777 627.2759Q423.042 628.0493 423.19666 628.668L428.97504 622.8896ZM423.5502 603.23425Q425.75992 601.02454 428.56625 601.356Q431.91397 601.7427 436.23395 606.0627Q440.54288 610.37164 440.9406 613.75244Q441.26102 616.52563 439.05133 618.73535Q436.83057 620.9561 433.7701 620.6136Q430.7207 620.2601 426.3455 615.8848Q422.05865 611.598 421.67197 608.2282Q421.3405 605.444 423.5502 603.23425ZM425.9588 605.6428Q425.42847 606.17316 425.35114 606.93555Q425.27377 607.6758 425.9146 608.78064Q426.74323 610.2059 429.417 612.87964Q432.09073 615.5534 433.36133 616.29364Q434.6319 617.0118 435.37216 616.93445Q436.1124 616.8571 436.64273 616.3268Q437.17307 615.79645 437.2504 615.0562Q437.32776 614.2938 436.67587 613.2001Q435.86932 611.7748 433.1956 609.101Q430.52185 606.4273 429.25125 605.7091Q427.98068 604.9689 427.24042 605.0462Q426.48914 605.1125 425.9588 605.6428ZM453.01666 598.84796L455.72357 601.5549L445.52576 611.7527Q444.15573 610.0512 443.61438 607.85254Q443.073 605.6539 443.2387 600.93616Q443.38235 597.1465 443.17242 596.0306Q442.8741 594.53906 441.99023 593.65515Q441.01794 592.6829 439.96835 592.694Q438.91873 592.6829 438.0017 593.5999Q437.0847 594.51697 437.09573 595.6108Q437.11783 596.69354 438.30002 598.0525L435.11804 600.66Q432.96356 597.99725 433.295 595.5887Q433.61545 593.169 435.65942 591.12506Q437.91333 588.87115 440.41028 588.8049Q442.8962 588.72754 444.6971 590.52844Q445.72464 591.55597 446.28812 592.84863Q446.8516 594.1413 447.07257 595.95325Q447.2162 597.15753 447.1057 599.8092Q446.98416 602.4498 447.03943 603.23425Q447.08362 604.0076 447.23828 604.6264L453.01666 598.84796ZM465.0375 586.82715L467.7444 589.53406L457.54657 599.7319Q456.17657 598.0304 455.6352 595.8317Q455.0938 593.63306 455.25952 588.91534Q455.40317 585.1257 455.19324 584.00977Q454.89493 582.51825 454.01105 581.63434Q453.0388 580.6621 451.98917 580.67316Q450.93954 580.6621 450.02252 581.5791Q449.1055 582.49615 449.11655 583.58997Q449.13864 584.6727 450.32083 586.0317L447.13885 588.63916Q444.98438 585.97644 445.31583 583.5679Q445.63626 581.1482 447.68024 579.10425Q449.93414 576.85034 452.4311 576.78406Q454.91702 576.7067 456.71793 578.5076Q457.74545 579.53516 458.30893 580.8278Q458.8724 582.1205 459.09338 583.93243Q459.237 585.1367 459.12653 587.7884Q459.00497 590.429 459.06024 591.21344Q459.10443 591.9868 459.2591 592.6055L465.0375 586.82715Z" fill-rule="nonzero"/><path fill="#000000" d="M463.25867 568.1662Q464.37457 572.2873 463.8111 576.9829L460.2093 576.54095Q461.1705 570.3428 457.54657 564.1114L460.45233 562.42096Q462.19803 562.42096 461.28098 563.60315L461.89972 565.0394L473.4233 553.5158L475.66617 555.75867L469.62265 561.80225L471.7771 563.95667L476.74893 558.98486L478.98074 561.2167L474.0089 566.1885L477.0804 569.26L484.04095 562.29944L486.27277 564.53125L479.3122 571.4918L484.2951 576.4747L481.9749 578.79486L476.992 573.812L467.45712 583.34686L465.2253 581.11505L468.95972 577.3807L463.65643 572.0774L469.4569 566.27686L467.30243 564.12244L463.25867 568.1662ZM471.2799 575.0605L474.76022 571.5802L471.68872 568.50867L468.20844 571.98895L471.2799 575.0605Z" fill-rule="nonzero"/><path fill="#000000" d="M530.2034 622.8896L532.9103 625.5965L522.71246 635.7943Q521.34247 634.09283 520.8011 631.89417Q520.2597 629.6955 520.4254 624.9778Q520.5691 621.1881 520.35913 620.0722Q520.06085 618.5807 519.17694 617.6968Q518.2047 616.7245 517.1551 616.7356Q516.10547 616.7245 515.1884 617.64154Q514.2714 618.5586 514.2825 619.6524Q514.30457 620.73517 515.48676 622.0941L512.30475 624.70154Q510.1503 622.0389 510.48175 619.6303Q510.80215 617.21063 512.8461 615.1667Q515.10004 612.9128 517.59705 612.8465Q520.08295 612.76917 521.88385 614.57007Q522.9114 615.5976 523.47485 616.89026Q524.0383 618.1829 524.2593 619.9949Q524.4029 621.19916 524.2924 623.8508Q524.1709 626.49146 524.22614 627.2759Q524.2703 628.04926 524.425 628.66797L530.2034 622.8896ZM524.77856 603.23425Q526.9883 601.02454 529.7946 601.356Q533.14233 601.7427 537.4623 606.0627Q541.77124 610.3716 542.169 613.75244Q542.4894 616.52563 540.27966 618.73535Q538.0589 620.9561 534.9985 620.6136Q531.9491 620.2601 527.57385 615.8848Q523.287 611.598 522.9003 608.2282Q522.56885 605.444 524.77856 603.23425ZM527.18713 605.6428Q526.6568 606.17316 526.57947 606.9355Q526.50214 607.6758 527.14294 608.78064Q527.9716 610.2059 530.6453 612.87964Q533.3191 615.55334 534.58966 616.29364Q535.8602 617.0118 536.6005 616.93445Q537.34076 616.8571 537.8711 616.3268Q538.4014 615.79645 538.47876 615.0562Q538.5561 614.2938 537.90424 613.2Q537.0977 611.7748 534.42395 609.101Q531.7502 606.42725 530.4796 605.7091Q529.20905 604.9689 528.4688 605.0462Q527.71747 605.1125 527.18713 605.6428ZM554.24506 598.84796L556.9519 601.5549L546.75415 611.7527Q545.3841 610.0512 544.8427 607.85254Q544.30133 605.6539 544.4671 600.93616Q544.6107 597.1465 544.40076 596.0306Q544.1025 594.53906 543.21857 593.65515Q542.24634 592.68286 541.1967 592.6939Q540.1471 592.68286 539.23004 593.5999Q538.31305 594.51697 538.3241 595.6108Q538.3462 596.6935 539.5284 598.0525L536.3464 600.6599Q534.19196 597.99725 534.5234 595.5887Q534.8438 593.169 536.88776 591.12506Q539.14166 588.87115 541.6387 588.8049Q544.1246 588.72754 545.9255 590.52844Q546.953 591.5559 547.5165 592.84863Q548.07996 594.1413 548.3009 595.95325Q548.4445 597.15753 548.33405 599.8092Q548.2125 602.4498 548.26776 603.23425Q548.31195 604.0076 548.4667 604.62634L554.24506 598.84796ZM555.0074 595.43396L557.48224 592.2741Q558.6976 593.22424 559.85767 593.2132Q561.01776 593.18005 561.8575 592.3404Q562.7635 591.4344 562.6861 590.1417Q562.6198 588.838 561.4597 587.6779Q560.3659 586.5841 559.1285 586.5399Q557.9021 586.4847 557.06244 587.32434Q556.49896 587.8878 555.9355 588.87115L553.8915 586.18634Q555.09576 585.02625 555.1731 583.86615Q555.2504 582.70605 554.3445 581.80005Q553.5821 581.0377 552.67615 581.0377Q551.77014 581.0377 551.0078 581.80005Q550.2676 582.54034 550.25653 583.58997Q550.23444 584.6285 551.1183 585.73334L547.9805 587.96515Q546.8757 586.30786 546.6215 584.9268Q546.3564 583.53467 546.89777 582.06525Q547.43915 580.57367 548.69867 579.31415Q550.8421 577.1707 553.50476 577.24805Q555.68134 577.30334 557.08453 578.7065Q559.0843 580.70624 558.10095 584.07605Q559.69196 583.05963 561.4376 583.2585Q563.19434 583.4463 564.5644 584.81635Q566.56415 586.8161 566.51996 589.6887Q566.4647 592.5503 564.28815 594.72687Q562.23315 596.7819 559.69196 596.9587Q557.1508 597.13544 555.0074 595.43396Z" fill-rule="nonzero"/><path fill="#000000" d="M564.48706 568.1662Q565.60297 572.2873 565.0395 576.9829L561.4376 576.54095Q562.39886 570.3427 558.77496 564.1113L561.6807 562.4209Q563.4264 562.4209 562.50934 563.60315L563.12805 565.0394L574.6517 553.5158L576.89453 555.75867L570.851 561.8022L573.00543 563.95667L577.9773 558.9848L580.2091 561.2166L575.23724 566.1885L578.3088 569.25995L585.26935 562.2994L587.50116 564.5312L580.5406 571.49176L585.52344 576.4747L583.20325 578.79486L578.2204 573.81195L568.6855 583.34686L566.4537 581.11505L570.1881 577.3807L564.88477 572.07733L570.68524 566.27686L568.5308 564.1224L564.48706 568.1662ZM572.5083 575.0605L575.9886 571.58014L572.91705 568.50867L569.43677 571.98895L572.5083 575.0605Z" fill-rule="nonzero"/><path fill="#000000" d="M631.43176 622.8896L634.1386 625.5965L623.94086 635.7943Q622.5708 634.09283 622.0294 631.89417Q621.48804 629.6955 621.6538 624.9778Q621.7974 621.1881 621.58746 620.07227Q621.2892 618.5807 620.4053 617.6968Q619.43304 616.72455 618.3834 616.7356Q617.3338 616.72455 616.41675 617.64154Q615.49976 618.5586 615.5108 619.6524Q615.5329 620.73517 616.7151 622.0941L613.5331 624.7016Q611.37866 622.0389 611.7101 619.6303Q612.0305 617.2107 614.07446 615.1667Q616.32837 612.9128 618.8254 612.8465Q621.3113 612.76917 623.1122 614.57007Q624.1397 615.5976 624.7032 616.89026Q625.26666 618.1829 625.4876 619.9949Q625.6312 621.19916 625.52075 623.8508Q625.39923 626.49146 625.45447 627.2759Q625.49866 628.04926 625.6534 628.668L631.43176 622.8896ZM626.0069 603.23425Q628.2166 601.02454 631.02295 601.356Q634.37067 601.7427 638.6906 606.0627Q642.9996 610.37164 643.39734 613.75244Q643.7177 616.52563 641.508 618.73535Q639.28723 620.9561 636.2268 620.6136Q633.1774 620.2601 628.8022 615.8848Q624.5154 611.598 624.12866 608.2282Q623.7972 605.444 626.0069 603.23425ZM628.41547 605.6428Q627.88513 606.17316 627.8078 606.93555Q627.73047 607.6758 628.3713 608.78064Q629.19995 610.2059 631.87366 612.87964Q634.5474 615.5534 635.818 616.29364Q637.0886 617.0118 637.82886 616.93445Q638.5691 616.8571 639.0994 616.3268Q639.62976 615.79645 639.7071 615.0562Q639.7844 614.2938 639.13257 613.2Q638.32605 611.7748 635.6523 609.101Q632.9785 606.4273 631.70795 605.7091Q630.4374 604.9689 629.69714 605.0462Q628.9458 605.1125 628.41547 605.6428ZM655.4734 598.84796L658.18024 601.5549L647.9825 611.7527Q646.6124 610.0512 646.07104 607.85254Q645.52966 605.6539 645.69543 600.93616Q645.83905 597.1465 645.6291 596.0306Q645.3308 594.53906 644.4469 593.65515Q643.4747 592.6829 642.42505 592.694Q641.3754 592.6829 640.4584 593.5999Q639.5414 594.51697 639.5524 595.6108Q639.5745 596.69354 640.7567 598.0525L637.5747 600.66Q635.4203 597.99725 635.7517 595.5887Q636.07214 593.169 638.1161 591.12506Q640.37 588.87115 642.867 588.8049Q645.3529 588.72754 647.1538 590.52844Q648.18134 591.55597 648.7448 592.84863Q649.3083 594.1413 649.52924 595.95325Q649.6729 597.15753 649.5624 599.8092Q649.44086 602.4498 649.4961 603.23425Q649.5403 604.0076 649.695 604.62634L655.4734 598.84796ZM666.07996 593.65515L663.01953 590.5947L656.81024 596.804L654.2691 594.2628L651.2086 578.03253L653.6504 575.5908L663.28467 585.22516L665.174 583.3358L667.7262 585.88806L665.8369 587.77734L668.89734 590.83777L666.07996 593.65515ZM660.4673 588.0425L655.2745 582.8497L656.97595 591.5339L660.4673 588.0425Z" fill-rule="nonzero"/><path fill="#000000" d="M665.7154 568.1662Q666.8313 572.2873 666.2678 576.9829L662.66595 576.54095Q663.6272 570.3427 660.0033 564.1114L662.90906 562.42096Q664.6547 562.42096 663.7377 563.60315L664.3564 565.0394L675.88 553.5158L678.12286 555.75867L672.07935 561.80225L674.2338 563.95667L679.2056 558.98486L681.43744 561.2167L676.4656 566.1885L679.5371 569.26L686.4977 562.2994L688.7295 564.5312L681.7689 571.49176L686.7518 576.4747L684.4316 578.79486L679.4487 573.812L669.9138 583.34686L667.682 581.11505L671.41644 577.3807L666.1131 572.0774L671.9136 566.27686L669.75916 564.12244L665.7154 568.1662ZM673.73663 575.0605L677.2169 571.5802L674.1454 568.50867L670.6651 571.98895L673.73663 575.0605Z" fill-rule="nonzero"/><path fill="#f39800" d="M232.9375 86.166664C232.9375 85.61438 233.38521 85.166664 233.9375 85.166664L243.9375 85.166664C244.48979 85.166664 244.9375 85.61438 244.9375 86.166664L244.9375 96.166664C244.9375 96.71895 244.48979 97.166664 243.9375 97.166664L233.9375 97.166664C233.38521 97.166664 232.9375 96.71895 232.9375 96.166664Z" fill-rule="nonzero"/><path fill="#1a1a1a" d="M268.0625 87.40104Q266.57812 95.885414 257.9375 99.71354L256.0625 97.74479Q264.0 94.510414 265.45312 87.385414L259.75 87.385414Q258.03125 90.24479 255.85938 92.229164L253.75 90.86979Q258.04688 86.979164 259.28125 81.822914L261.42188 82.572914Q262.54688 83.135414 261.39062 83.55729Q261.125 84.46354 260.79688 85.041664L265.82812 85.041664L266.65625 84.572914L268.23438 86.15104Q269.15625 87.072914 268.0625 87.40104ZM268.1875 85.729164Q266.76562 83.697914 265.34375 82.541664L266.84375 81.27604Q268.40625 82.635414 269.78125 84.479164L268.1875 85.729164ZM270.48438 84.80729Q269.03125 82.99479 267.79688 81.854164L269.1875 80.46354Q270.59375 81.77604 271.875 83.43229L270.48438 84.80729ZM284.90625 95.135414Q287.82812 93.99479 290.92188 89.74479L292.40625 91.760414Q289.25 96.072914 284.64062 97.90104L283.85938 98.291664L282.26562 97.104164L282.48438 96.541664L282.48438 83.71354L284.46875 83.71354Q285.8125 84.010414 284.90625 84.791664L284.90625 95.135414ZM273.625 97.74479Q277.71875 93.80729 277.71875 88.40104L277.71875 84.572914L279.70312 84.572914Q281.04688 84.86979 280.14062 85.65104L280.14062 88.322914Q280.14062 95.02604 275.71875 99.104164L273.625 97.74479ZM294.125 91.760414L294.125 89.416664L312.17188 89.416664L312.17188 91.760414L294.125 91.760414ZM328.125 84.104164Q328.625 84.104164 328.92188 83.80729Q329.21875 83.510414 329.21875 83.010414Q329.21875 82.510414 328.92188 82.21354Q328.625 81.916664 328.125 81.916664Q327.625 81.916664 327.32812 82.21354Q327.03125 82.510414 327.03125 83.010414Q327.03125 83.510414 327.32812 83.80729Q327.625 84.104164 328.125 84.104164ZM328.125 85.510414Q327.0625 85.510414 326.34375 84.791664Q325.625 84.072914 325.625 83.010414Q325.625 81.947914 326.34375 81.229164Q327.0625 80.510414 328.125 80.510414Q329.1875 80.510414 329.90625 81.229164Q330.625 81.947914 330.625 83.010414Q330.625 84.072914 329.90625 84.791664Q329.1875 85.510414 328.125 85.510414ZM313.82812 86.52604L313.82812 84.18229L325.8125 84.18229L328.04688 85.822914Q327.64062 95.666664 316.92188 98.68229L315.0625 96.416664Q325.09375 94.08854 325.53125 86.52604L313.82812 86.52604ZM342.84375 82.77604Q345.60938 86.260414 350.84375 87.90104L349.8125 90.27604Q344.125 88.197914 341.32812 84.322914Q340.125 86.80729 338.375 88.010414L346.35938 88.010414L346.35938 90.11979L336.98438 90.11979L336.98438 89.072914Q336.0625 89.83854 333.92188 90.822914L332.4375 88.822914Q338.375 86.05729 340.23438 81.479164L342.5 81.916664Q343.89062 82.11979 342.84375 82.77604ZM337.76562 99.729164L335.57812 99.729164L335.57812 91.36979L347.84375 91.36979L347.84375 99.49479L345.65625 99.49479L345.65625 98.635414L337.76562 98.635414L337.76562 99.729164ZM337.76562 96.52604L345.65625 96.52604L345.65625 93.479164L337.76562 93.479164L337.76562 96.52604ZM365.34375 87.77604L365.34375 81.52604L367.17188 81.52604Q368.8125 81.854164 367.53125 82.572914L367.53125 87.77604L371.51562 87.77604L371.51562 89.885414L367.53125 89.885414L367.53125 99.572914L365.34375 99.572914L365.34375 89.885414L361.125 89.885414L361.125 87.77604L365.34375 87.77604ZM361.125 99.33854L358.9375 99.33854L358.9375 98.55729L356.35938 98.55729L356.35938 99.65104L354.17188 99.65104L354.17188 92.61979L361.125 92.61979L361.125 99.33854ZM356.35938 94.49479L356.35938 96.68229L358.9375 96.68229L358.9375 94.49479L356.35938 94.49479ZM360.65625 89.96354L360.65625 92.072914L354.64062 92.072914L354.64062 89.96354L360.65625 89.96354ZM354.64062 87.385414L360.65625 87.385414L360.65625 89.49479L354.64062 89.49479L354.64062 87.385414ZM353.15625 84.80729L362.0625 84.80729L362.0625 86.916664L353.15625 86.916664L353.15625 84.80729ZM360.65625 81.99479L360.65625 84.104164L354.64062 84.104164L354.64062 81.99479L360.65625 81.99479Z" fill-rule="nonzero"/><path fill="#4285f4" d="M388.6875 86.166664C388.6875 85.61438 389.13522 85.166664 389.6875 85.166664L399.6875 85.166664C400.23978 85.166664 400.6875 85.61438 400.6875 86.166664L400.6875 96.166664C400.6875 96.71895 400.23978 97.166664 399.6875 97.166664L389.6875 97.166664C389.13522 97.166664 388.6875 96.71895 388.6875 96.166664Z" fill-rule="nonzero"/><path fill="#1a1a1a" d="M423.0625 84.80729L426.65625 84.80729L426.65625 87.15104L423.0625 87.15104L423.0625 88.947914L427.98438 88.947914L427.98438 91.291664L423.4375 91.291664Q424.54688 93.260414 428.625 95.71354L427.39062 98.08854Q424.0 95.65104 423.0625 94.260414L423.0625 99.96354L420.875 99.96354L420.875 94.55729Q419.78125 96.43229 416.54688 98.61979L415.39062 96.510414Q418.92188 94.041664 420.5625 91.291664L416.26562 91.291664L416.26562 88.947914L420.875 88.947914L420.875 87.15104L419.20312 87.15104Q418.79688 88.104164 417.6875 89.416664L415.98438 87.61979Q417.54688 85.979164 418.46875 82.791664L420.35938 83.260414Q421.60938 83.885414 420.34375 84.21354L420.14062 84.80729L420.875 84.80729L420.875 81.291664L422.6875 81.291664Q424.125 81.479164 423.0625 82.229164L423.0625 84.80729ZM414.70312 99.96354L412.51562 99.96354L412.51562 93.36979Q412.3125 93.885414 410.51562 95.86979L409.15625 93.666664Q411.67188 91.05729 412.375 87.46354L409.85938 87.46354L409.85938 85.11979L412.51562 85.11979L412.51562 81.291664L414.34375 81.291664Q415.76562 81.65104 414.70312 82.260414L414.70312 85.11979L416.89062 85.11979L416.89062 87.46354L414.70312 87.46354L414.70312 89.24479Q416.17188 90.197914 417.4375 91.83854L415.84375 93.86979Q414.76562 92.104164 414.70312 92.041664L414.70312 99.96354ZM444.4375 94.80729Q445.35938 96.52604 445.95312 96.52604Q446.0 96.52604 446.03125 96.322914L446.23438 94.572914L448.5625 95.635414L448.21875 97.74479Q447.9375 99.33854 446.5 99.33854Q443.96875 99.33854 442.23438 95.96354Q440.64062 92.854164 440.5625 87.541664L430.95312 87.541664L430.95312 85.197914L440.48438 85.197914L440.48438 81.604164L442.54688 81.604164Q444.09375 81.916664 442.90625 82.71354L442.90625 85.197914L448.375 85.197914L448.375 87.541664L442.92188 87.541664Q443.21875 92.604164 444.4375 94.80729ZM441.46875 96.61979Q436.79688 97.61979 432.54688 98.354164Q432.28125 99.541664 431.4375 98.36979L430.96875 96.010414Q433.26562 95.822914 434.85938 95.55729L434.85938 91.68229L431.73438 91.68229L431.73438 89.572914L440.09375 89.572914L440.09375 91.68229L437.04688 91.68229L437.04688 95.229164Q438.48438 95.041664 441.14062 94.510414L441.46875 96.61979ZM444.65625 81.93229Q445.96875 82.58854 447.28125 83.80729L445.39062 85.385414Q444.4375 84.43229 442.84375 83.541664L444.65625 81.93229ZM463.3125 87.541664Q461.59375 86.604164 460.09375 84.010414Q458.60938 86.43229 457.07812 87.541664L463.3125 87.541664ZM468.40625 89.854164Q466.78125 89.479164 465.01562 88.46354L465.01562 89.885414L455.5625 89.885414L455.5625 88.61979Q453.90625 89.77604 451.70312 90.416664L450.78125 87.947914Q456.4375 86.416664 459.14062 81.416664L461.0 81.68229Q462.40625 81.86979 461.45312 82.541664Q463.71875 85.947914 469.42188 87.40104L468.40625 89.854164ZM466.42188 99.83854Q465.64062 98.760414 464.90625 98.104164L453.82812 99.322914Q453.32812 99.822914 452.71875 99.36979L452.03125 96.93229L455.45312 96.77604L457.29688 93.40104L451.89062 93.40104L451.89062 91.05729L468.53125 91.05729L468.53125 93.40104L459.95312 93.40104L458.01562 96.635414L463.10938 96.260414Q462.625 95.822914 461.03125 94.635414L463.0 93.33854Q466.95312 96.30729 468.59375 98.479164L466.42188 99.83854ZM477.04688 84.885414L478.25 84.885414L478.6875 84.447914L480.34375 86.104164L479.5625 86.65104Q478.64062 88.416664 477.26562 90.11979Q478.82812 90.61979 480.57812 91.80729L479.42188 94.11979Q477.8125 92.80729 477.04688 92.36979L477.04688 99.885414L474.85938 99.885414L474.85938 92.541664Q473.95312 93.33854 472.14062 94.385414L471.17188 92.24479Q475.09375 90.11979 476.89062 86.99479L471.96875 86.99479L471.96875 84.885414L474.85938 84.885414L474.85938 81.52604L476.67188 81.52604Q478.10938 81.71354 477.04688 82.46354L477.04688 84.885414ZM485.28125 81.99479Q486.82812 82.30729 485.64062 83.104164L485.64062 86.760414L489.23438 86.760414L489.23438 89.104164L485.64062 89.104164L485.64062 96.604164L489.9375 96.604164L489.9375 98.947914L478.60938 98.947914L478.60938 96.604164L483.21875 96.604164L483.21875 89.104164L479.85938 89.104164L479.85938 86.760414L483.21875 86.760414L483.21875 81.99479L485.28125 81.99479ZM506.3125 87.40104Q504.82812 95.885414 496.1875 99.71354L494.3125 97.74479Q502.25 94.510414 503.70312 87.385414L498.0 87.385414Q496.28125 90.24479 494.10938 92.229164L492.0 90.86979Q496.29688 86.979164 497.53125 81.822914L499.67188 82.572914Q500.79688 83.135414 499.64062 83.55729Q499.375 84.46354 499.04688 85.041664L504.07812 85.041664L504.90625 84.572914L506.48438 86.15104Q507.40625 87.072914 506.3125 87.40104ZM520.5469 90.979164Q520.5469 97.041664 514.71875 99.791664L512.625 98.010414Q518.0469 95.541664 518.125 90.90104L518.125 82.77604L520.1094 82.77604Q521.6094 83.072914 520.5469 83.86979L520.5469 90.979164ZM512.5 93.010414L510.07812 93.010414L510.07812 83.55729L512.125 83.55729Q513.7031 83.71354 512.5 84.65104L512.5 93.010414ZM533.6094 90.61979Q533.75 95.99479 528.1406 99.510414L526.375 97.52604Q531.1719 94.93229 531.1719 90.58854L531.1719 86.916664L533.1406 86.916664Q534.5781 87.072914 533.59375 87.916664L533.59375 89.18229Q535.875 87.479164 536.9531 86.010414L524.5625 86.46354L524.34375 84.041664L538.8594 83.635414L539.5625 83.43229L540.875 85.010414Q541.5469 85.916664 540.375 85.760414Q538.1094 88.697914 534.59375 91.55729L533.6094 90.61979Z" fill-rule="nonzero"/><path fill="#757575" d="M623.7594 56.303123L621.8844 56.303123Q620.3844 54.053123 619.60315 51.63125Q618.8219 49.19375 618.8219 46.9125Q618.8219 44.084373 619.79065 41.56875Q620.6344 39.38125 621.91565 37.5375L623.79065 37.5375Q622.4469 40.490623 621.9469 42.56875Q621.4469 44.646873 621.4469 46.975Q621.4469 48.56875 621.7438 50.25625Q622.04065 51.928123 622.5563 53.44375Q622.9 54.44375 623.7594 56.303123Z" fill-rule="nonzero"/><path fill="#757575" d="M640.1813 39.13125L641.9625 39.13125L641.9625 47.803123L639.775 47.803123L639.775 47.334373L636.10315 47.334373L636.10315 48.35L644.3063 48.35L644.3063 50.459373L636.10315 50.459373L636.10315 53.740623L633.91565 53.740623L633.91565 50.459373L625.8688 50.459373L625.8688 48.35L633.91565 48.35L633.91565 47.334373L630.3219 47.334373L630.3219 47.959373L628.1344 47.959373L628.1344 39.13125L637.5719 39.13125L640.15 35.178123L641.91565 36.38125Q643.0094 37.25625 641.65 37.25625L640.1813 39.13125ZM634.5563 35.365623Q636.275 36.81875 636.97815 38.13125L634.97815 39.6Q634.2125 38.146873 632.72815 36.75625L634.5563 35.365623ZM633.91565 42.25625L633.91565 41.240623L630.3219 41.240623L630.3219 42.25625L633.91565 42.25625ZM639.775 42.25625L639.775 41.240623L636.10315 41.240623L636.10315 42.25625L639.775 42.25625ZM633.91565 45.225L633.91565 44.365623L630.3219 44.365623L630.3219 45.225L633.91565 45.225ZM639.775 45.225L639.775 44.365623L636.10315 44.365623L636.10315 45.225L639.775 45.225ZM629.9625 39.6625Q629.2125 38.146873 627.8844 36.928123L629.7125 35.521873Q631.1969 36.9125 631.97815 38.38125L629.9625 39.6625ZM662.4 43.31875Q661.79065 46.475 660.3844 50.303123L664.85315 50.303123L664.85315 52.4125L651.1813 52.4125L651.1813 50.303123L657.97815 50.303123Q659.3219 45.85 660.0719 41.7875L662.4 42.44375Q663.0875 42.896873 662.4 43.31875ZM648.91565 53.6625L648.97815 44.4125Q649.0094 44.475 647.47815 46.209373L646.0875 44.084373Q649.3219 40.928123 650.0563 35.44375L652.22815 36.1Q653.3688 36.678123 652.22815 37.1Q651.6344 39.553123 651.0094 40.928123L651.10315 40.959373Q651.6813 41.5375 651.10315 41.88125L651.10315 53.6625L648.91565 53.6625ZM655.1813 42.584373Q656.47815 45.365623 657.16565 48.709373L654.775 49.5375Q654.0875 46.1 652.8688 43.31875L655.1813 42.584373ZM663.9938 39.521873L663.9938 41.63125L652.04065 41.63125L652.04065 39.521873L656.8063 39.521873L656.8063 35.69375L658.6188 35.69375Q660.0563 35.88125 658.9938 36.63125L658.9938 39.521873L663.9938 39.521873Z" fill-rule="nonzero"/><path fill="#757575" d="M667.9938 44.475L667.9938 41.725L670.72815 41.725L670.72815 44.475L667.9938 44.475ZM667.9938 52.1L667.9938 49.35L670.72815 49.35L670.72815 52.1L667.9938 52.1Z" fill-rule="nonzero"/><path fill="#757575" d="M692.3219 36.553123L692.3219 38.896873L684.60315 38.896873L684.1969 40.85L690.29065 40.85L690.29065 53.35L687.8688 53.35L687.8688 52.334373L679.04065 52.334373L679.04065 53.6625L676.6188 53.6625L676.6188 40.85L681.66565 40.85L682.025 38.896873L674.35315 38.896873L674.35315 36.553123L692.3219 36.553123ZM679.04065 47.646873L679.04065 50.225L687.8688 50.225L687.8688 47.646873L679.04065 47.646873ZM687.8688 45.5375L687.8688 42.959373L679.04065 42.959373L679.04065 45.5375L687.8688 45.5375ZM701.15 39.365623L695.3688 39.365623L695.3688 37.021873L712.7125 37.021873L712.7125 39.365623L703.5719 39.365623Q703.5719 40.709373 703.4469 42.021873L711.3063 42.021873Q711.3063 47.5375 710.4313 50.5375Q709.7438 53.0375 707.3219 53.0375L704.0094 53.0375L703.5875 50.69375L706.775 50.69375Q707.8688 50.69375 708.1188 49.81875Q708.72815 47.75625 708.8063 44.365623L703.1188 44.365623Q701.9 50.19375 696.60315 53.053123L695.0719 50.803123Q701.15 47.771873 701.15 40.38125L701.15 39.365623ZM732.3219 51.553123Q732.3219 53.115623 730.7594 53.115623L728.4938 53.115623L727.85315 50.771873L729.9 50.771873Q729.9 50.771873 729.9 50.771873L729.9 45.85L719.04065 45.85L719.04065 53.19375L716.6188 53.19375L716.6188 36.709373L732.3219 36.709373L732.3219 51.553123ZM729.9 38.81875L725.525 38.81875L725.525 43.740623L729.9 43.740623L729.9 38.81875ZM719.04065 38.81875L719.04065 43.740623L723.3375 43.740623L723.3375 38.81875L719.04065 38.81875Z" fill-rule="nonzero"/><path fill="#757575" d="M735.5719 56.303123Q736.3844 54.56875 736.7125 53.63125Q737.0563 52.709373 737.3375 51.50625Q737.6188 50.2875 737.7438 49.209373Q737.8844 48.115623 737.8844 46.975Q737.8844 44.646873 737.3844 42.56875Q736.9 40.490623 735.5563 37.5375L737.41565 37.5375Q738.9 39.63125 739.7125 41.990623Q740.525 44.35 740.525 46.771873Q740.525 48.803123 739.8844 51.146873Q739.15 53.75625 737.4625 56.303123L735.5719 56.303123Z" fill-rule="nonzero"/></svg>