<svg version="1.1" viewBox="0.0 0.0 803.0 690.0" fill="none" stroke="none" stroke-linecap="square" stroke-miterlimit="10" width="803" height="690" xmlns:xlink="http://www.w3.org/1999/xlink" xmlns="http://www.w3.org/2000/svg"><path fill="#ffffff" d="M0 0L803.0 0L803.0 690.0L0 690.0L0 0Z" fill-rule="nonzero"/><path fill="#4285f4" d="M401.5 34.5C450.57632 34.5 498.6184 48.60643 539.90405 75.1391L470.70203 182.81955C450.0592 169.55322 426.03815 162.5 401.5 162.5Z" fill-rule="nonzero"/><path fill="#ea4335" d="M539.90405 75.1391C644.4173 142.3057 685.62036 274.81552 637.6227 389.40436L519.56134 339.95218C543.5602 282.65775 522.9587 216.40285 470.70203 182.81955Z" fill-rule="nonzero"/><path fill="#ff6d01" d="M149.38922 246.04607C170.96243 123.6983 277.26483 34.5 401.5 34.5L401.5 162.5C339.38242 162.5 286.2312 207.09915 275.4446 268.27304Z" fill-rule="nonzero"/><path fill="#34a853" d="M269.9986 510.14377C178.93628 455.62445 130.95901 350.5689 149.38922 246.04607L275.4446 268.27304C266.22952 320.53445 290.21814 373.06223 335.7493 400.32187Z" fill-rule="nonzero"/><path fill="#fbbc04" d="M637.6227 389.40436C608.9356 457.89148 551.9257 510.54895 481.38055 533.7182C410.8354 556.88745 333.70602 548.2856 269.9986 510.14377L335.7493 400.32187C367.603 419.3928 406.1677 423.69373 441.44028 412.1091C476.71286 400.52448 505.2178 374.19574 519.56134 339.95218Z" fill-rule="nonzero"/><path fill="#000000" d="M415.73328 112.82423L420.51453 112.29298Q420.6864 113.7461 421.42078 114.44923Q422.15515 115.15235 423.3739 115.15235Q424.90515 115.15235 425.96765 113.7461Q427.04578 112.33985 427.34265 107.91798Q425.48328 110.07423 422.6864 110.07423Q419.65515 110.07423 417.4364 107.73048Q415.23328 105.38673 415.23328 101.6211Q415.23328 97.69923 417.5614 95.3086Q419.88953 92.90235 423.4989 92.90235Q427.42078 92.90235 429.9364 95.9336Q432.45203 98.96485 432.45203 105.90235Q432.45203 112.98048 429.82703 116.10548Q427.20203 119.23048 422.9989 119.23048Q419.98328 119.23048 418.10828 117.6211Q416.2489 116.01173 415.73328 112.82423ZM426.90515 102.02735Q426.90515 99.63673 425.8114 98.32423Q424.71765 96.9961 423.26453 96.9961Q421.90515 96.9961 420.9989 98.07423Q420.09265 99.15235 420.09265 101.6211Q420.09265 104.1211 421.07703 105.29298Q422.0614 106.44923 423.53015 106.44923Q424.95203 106.44923 425.92078 105.32423Q426.90515 104.19923 426.90515 102.02735ZM436.67078 118.77735L436.67078 113.83985L441.6239 113.83985L441.6239 118.77735L436.67078 118.77735ZM458.26453 118.77735L453.32703 118.77735L453.32703 100.16798Q450.60828 102.69923 446.9364 103.90235L446.9364 99.41798Q448.8739 98.79298 451.13953 97.02735Q453.40515 95.26173 454.2489 92.90235L458.26453 92.90235L458.26453 118.77735ZM465.65515 99.3711Q465.65515 95.90235 467.17078 94.2461Q468.70203 92.57423 471.29578 92.57423Q473.98328 92.57423 475.4989 94.23048Q477.03015 95.88673 477.03015 99.3711Q477.03015 102.83985 475.4989 104.51173Q473.98328 106.16798 471.38953 106.16798Q468.70203 106.16798 467.17078 104.51173Q465.65515 102.85548 465.65515 99.3711ZM469.51453 99.33985Q469.51453 101.85548 470.09265 102.71485Q470.53015 103.33985 471.29578 103.33985Q472.09265 103.33985 472.53015 102.71485Q473.09265 101.85548 473.09265 99.33985Q473.09265 96.82423 472.53015 95.98048Q472.09265 95.32423 471.29578 95.32423Q470.53015 95.32423 470.09265 95.96485Q469.51453 96.82423 469.51453 99.33985ZM475.0614 119.76173L471.40515 119.76173L485.13953 92.57423L488.6864 92.57423L475.0614 119.76173ZM483.04578 112.9961Q483.04578 109.52735 484.5614 107.85548Q486.07703 106.1836 488.71765 106.1836Q491.3739 106.1836 492.88953 107.85548Q494.42078 109.52735 494.42078 112.9961Q494.42078 116.48048 492.88953 118.15235Q491.3739 119.8086 488.78015 119.8086Q486.07703 119.8086 484.5614 118.15235Q483.04578 116.48048 483.04578 112.9961ZM486.88953 112.98048Q486.88953 115.4961 487.46765 116.33985Q487.90515 116.98048 488.6864 116.98048Q489.48328 116.98048 489.90515 116.35548Q490.48328 115.4961 490.48328 112.98048Q490.48328 110.46485 489.92078 109.60548Q489.48328 108.96485 488.6864 108.96485Q487.88953 108.96485 487.46765 109.60548Q486.88953 110.46485 486.88953 112.98048Z" fill-rule="nonzero"/><path fill="#000000" d="M551.56 241.39754L551.56 245.99129L534.2319 245.99129Q534.5131 243.38191 535.9194 241.05379Q537.3256 238.72566 541.4819 234.88191Q544.8256 231.77254 545.5756 230.66316Q546.59125 229.13191 546.59125 227.63191Q546.59125 225.99129 545.7006 225.10066Q544.8256 224.21004 543.2631 224.21004Q541.71625 224.21004 540.7944 225.14754Q539.8881 226.06941 539.7475 228.24129L534.8256 227.74129Q535.2631 223.66316 537.5756 221.89754Q539.90375 220.11629 543.3725 220.11629Q547.2006 220.11629 549.3725 222.17879Q551.56 224.22566 551.56 227.28816Q551.56 229.02254 550.935 230.60066Q550.31 232.17879 548.9506 233.89754Q548.06 235.03816 545.71625 237.19441Q543.3725 239.33504 542.7475 240.03816Q542.1381 240.74129 541.7475 241.39754L551.56 241.39754ZM571.56 241.39754L571.56 245.99129L554.2319 245.99129Q554.5131 243.38191 555.9194 241.05379Q557.3256 238.72566 561.4819 234.88191Q564.8256 231.77254 565.5756 230.66316Q566.59125 229.13191 566.59125 227.63191Q566.59125 225.99129 565.7006 225.10066Q564.8256 224.21004 563.2631 224.21004Q561.71625 224.21004 560.7944 225.14754Q559.8881 226.06941 559.7475 228.24129L554.8256 227.74129Q555.2631 223.66316 557.5756 221.89754Q559.90375 220.11629 563.3725 220.11629Q567.2006 220.11629 569.3725 222.17879Q571.56 224.22566 571.56 227.28816Q571.56 229.02254 570.935 230.60066Q570.31 232.17879 568.9506 233.89754Q568.06 235.03816 565.71625 237.19441Q563.3725 239.33504 562.7475 240.03816Q562.1381 240.74129 561.7475 241.39754L571.56 241.39754ZM575.9194 245.99129L575.9194 241.05379L580.8725 241.05379L580.8725 245.99129L575.9194 245.99129ZM601.56 241.39754L601.56 245.99129L584.2319 245.99129Q584.5131 243.38191 585.9194 241.05379Q587.3256 238.72566 591.4819 234.88191Q594.8256 231.77254 595.5756 230.66316Q596.59125 229.13191 596.59125 227.63191Q596.59125 225.99129 595.7006 225.10066Q594.8256 224.21004 593.2631 224.21004Q591.71625 224.21004 590.7944 225.14754Q589.8881 226.06941 589.7475 228.24129L584.8256 227.74129Q585.2631 223.66316 587.5756 221.89754Q589.90375 220.11629 593.3725 220.11629Q597.2006 220.11629 599.3725 222.17879Q601.56 224.22566 601.56 227.28816Q601.56 229.02254 600.935 230.60066Q600.31 232.17879 598.9506 233.89754Q598.06 235.03816 595.71625 237.19441Q593.3725 239.33504 592.7475 240.03816Q592.1381 240.74129 591.7475 241.39754L601.56 241.39754ZM604.90375 226.58504Q604.90375 223.11629 606.4194 221.46004Q607.9506 219.78816 610.5444 219.78816Q613.2319 219.78816 614.7475 221.44441Q616.27875 223.10066 616.27875 226.58504Q616.27875 230.05379 614.7475 231.72566Q613.2319 233.38191 610.6381 233.38191Q607.9506 233.38191 606.4194 231.72566Q604.90375 230.06941 604.90375 226.58504ZM608.7631 226.55379Q608.7631 229.06941 609.34125 229.92879Q609.77875 230.55379 610.5444 230.55379Q611.34125 230.55379 611.77875 229.92879Q612.34125 229.06941 612.34125 226.55379Q612.34125 224.03816 611.77875 223.19441Q611.34125 222.53816 610.5444 222.53816Q609.77875 222.53816 609.34125 223.17879Q608.7631 224.03816 608.7631 226.55379ZM614.31 246.97566L610.65375 246.97566L624.3881 219.78816L627.935 219.78816L614.31 246.97566ZM622.2944 240.21004Q622.2944 236.74129 623.81 235.06941Q625.3256 233.39754 627.96625 233.39754Q630.6225 233.39754 632.1381 235.06941Q633.6694 236.74129 633.6694 240.21004Q633.6694 243.69441 632.1381 245.36629Q630.6225 247.02254 628.02875 247.02254Q625.3256 247.02254 623.81 245.36629Q622.2944 243.69441 622.2944 240.21004ZM626.1381 240.19441Q626.1381 242.71004 626.71625 243.55379Q627.15375 244.19441 627.935 244.19441Q628.7319 244.19441 629.15375 243.56941Q629.7319 242.71004 629.7319 240.19441Q629.7319 237.67879 629.1694 236.81941Q628.7319 236.17879 627.935 236.17879Q627.1381 236.17879 626.71625 236.81941Q626.1381 237.67879 626.1381 240.19441Z" fill-rule="nonzero"/><path fill="#000000" d="M428.12918 480.81992L428.12918 485.41367L410.80106 485.41367Q411.0823 482.8043 412.48856 480.47617Q413.8948 478.14804 418.05106 474.3043Q421.3948 471.19492 422.1448 470.08554Q423.16043 468.5543 423.16043 467.0543Q423.16043 465.41367 422.2698 464.52304Q421.3948 463.63242 419.8323 463.63242Q418.28543 463.63242 417.36356 464.56992Q416.4573 465.4918 416.31668 467.66367L411.3948 467.16367Q411.8323 463.08554 414.1448 461.31992Q416.47293 459.53867 419.94168 459.53867Q423.7698 459.53867 425.94168 461.60117Q428.12918 463.64804 428.12918 466.71054Q428.12918 468.44492 427.50418 470.02304Q426.87918 471.60117 425.5198 473.31992Q424.62918 474.46054 422.28543 476.6168Q419.94168 478.75742 419.31668 479.46054Q418.7073 480.16367 418.31668 480.81992L428.12918 480.81992ZM431.44168 464.58554L431.44168 459.9918L448.3323 459.9918L448.3323 463.58554Q446.23856 465.63242 444.06668 469.4918Q441.91043 473.33554 440.7698 477.6793Q439.6448 482.00742 439.66043 485.41367L434.91043 485.41367Q435.0198 480.06992 437.09793 474.52304Q439.19168 468.96054 442.67606 464.58554L431.44168 464.58554ZM452.48856 485.41367L452.48856 480.47617L457.44168 480.47617L457.44168 485.41367L452.48856 485.41367ZM461.2698 478.56992L466.05106 477.9918Q466.2698 479.81992 467.2698 480.78867Q468.28543 481.75742 469.7073 481.75742Q471.23856 481.75742 472.2698 480.60117Q473.31668 479.4293 473.31668 477.46054Q473.31668 475.60117 472.31668 474.52304Q471.31668 473.4293 469.87918 473.4293Q468.92606 473.4293 467.61356 473.78867L468.16043 469.77304Q470.16043 469.81992 471.2073 468.89804Q472.2698 467.97617 472.2698 466.44492Q472.2698 465.14804 471.48856 464.38242Q470.72293 463.60117 469.44168 463.60117Q468.17606 463.60117 467.2698 464.47617Q466.37918 465.35117 466.19168 467.03867L461.62918 466.27304Q462.11356 463.9293 463.06668 462.53867Q464.0198 461.13242 465.73856 460.33554Q467.4573 459.53867 469.5823 459.53867Q473.22293 459.53867 475.41043 461.85117Q477.22293 463.75742 477.22293 466.14804Q477.22293 469.53867 473.5198 471.5543Q475.73856 472.03867 477.05106 473.69492Q478.37918 475.33554 478.37918 477.6793Q478.37918 481.06992 475.8948 483.46054Q473.42606 485.85117 469.73856 485.85117Q466.23856 485.85117 463.92606 483.83554Q461.62918 481.81992 461.2698 478.56992ZM481.47293 466.00742Q481.47293 462.53867 482.98856 460.88242Q484.5198 459.21054 487.11356 459.21054Q489.80106 459.21054 491.31668 460.8668Q492.84793 462.52304 492.84793 466.00742Q492.84793 469.47617 491.31668 471.14804Q489.80106 472.8043 487.2073 472.8043Q484.5198 472.8043 482.98856 471.14804Q481.47293 469.4918 481.47293 466.00742ZM485.3323 465.97617Q485.3323 468.4918 485.91043 469.35117Q486.34793 469.97617 487.11356 469.97617Q487.91043 469.97617 488.34793 469.35117Q488.91043 468.4918 488.91043 465.97617Q488.91043 463.46054 488.34793 462.6168Q487.91043 461.96054 487.11356 461.96054Q486.34793 461.96054 485.91043 462.60117Q485.3323 463.46054 485.3323 465.97617ZM490.87918 486.39804L487.22293 486.39804L500.9573 459.21054L504.50418 459.21054L490.87918 486.39804ZM498.86356 479.63242Q498.86356 476.16367 500.37918 474.4918Q501.8948 472.81992 504.53543 472.81992Q507.19168 472.81992 508.7073 474.4918Q510.23856 476.16367 510.23856 479.63242Q510.23856 483.1168 508.7073 484.78867Q507.19168 486.44492 504.59793 486.44492Q501.8948 486.44492 500.37918 484.78867Q498.86356 483.1168 498.86356 479.63242ZM502.7073 479.6168Q502.7073 482.13242 503.28543 482.97617Q503.72293 483.6168 504.50418 483.6168Q505.30106 483.6168 505.72293 482.9918Q506.30106 482.13242 506.30106 479.6168Q506.30106 477.10117 505.73856 476.2418Q505.30106 475.60117 504.50418 475.60117Q503.7073 475.60117 503.28543 476.2418Q502.7073 477.10117 502.7073 479.6168Z" fill-rule="nonzero"/><path fill="#000000" d="M189.52254 382.75967L184.58504 382.75967L184.58504 364.1503Q181.86629 366.68155 178.19441 367.88467L178.19441 363.4003Q180.13191 362.7753 182.39754 361.00967Q184.66316 359.24405 185.50691 356.88467L189.52254 356.88467L189.52254 382.75967ZM196.99129 376.80655L201.77254 376.2753Q201.94441 377.72842 202.67879 378.43155Q203.41316 379.13467 204.63191 379.13467Q206.16316 379.13467 207.22566 377.72842Q208.30379 376.32217 208.60066 371.9003Q206.74129 374.05655 203.94441 374.05655Q200.91316 374.05655 198.69441 371.7128Q196.49129 369.36905 196.49129 365.60342Q196.49129 361.68155 198.81941 359.29092Q201.14754 356.88467 204.75691 356.88467Q208.67879 356.88467 211.19441 359.91592Q213.71004 362.94717 213.71004 369.88467Q213.71004 376.9628 211.08504 380.0878Q208.46004 383.2128 204.25691 383.2128Q201.24129 383.2128 199.36629 381.60342Q197.50691 379.99405 196.99129 376.80655ZM208.16316 366.00967Q208.16316 363.61905 207.06941 362.30655Q205.97566 360.97842 204.52254 360.97842Q203.16316 360.97842 202.25691 362.05655Q201.35066 363.13467 201.35066 365.60342Q201.35066 368.10342 202.33504 369.2753Q203.31941 370.43155 204.78816 370.43155Q206.21004 370.43155 207.17879 369.30655Q208.16316 368.18155 208.16316 366.00967ZM217.92879 382.75967L217.92879 377.82217L222.88191 377.82217L222.88191 382.75967L217.92879 382.75967ZM243.56941 378.16592L243.56941 382.75967L226.24129 382.75967Q226.52254 380.1503 227.92879 377.82217Q229.33504 375.49405 233.49129 371.6503Q236.83504 368.54092 237.58504 367.43155Q238.60066 365.9003 238.60066 364.4003Q238.60066 362.75967 237.71004 361.86905Q236.83504 360.97842 235.27254 360.97842Q233.72566 360.97842 232.80379 361.91592Q231.89754 362.8378 231.75691 365.00967L226.83504 364.50967Q227.27254 360.43155 229.58504 358.66592Q231.91316 356.88467 235.38191 356.88467Q239.21004 356.88467 241.38191 358.94717Q243.56941 360.99405 243.56941 364.05655Q243.56941 365.79092 242.94441 367.36905Q242.31941 368.94717 240.96004 370.66592Q240.06941 371.80655 237.72566 373.9628Q235.38191 376.10342 234.75691 376.80655Q234.14754 377.50967 233.75691 378.16592L243.56941 378.16592ZM246.91316 363.35342Q246.91316 359.88467 248.42879 358.22842Q249.96004 356.55655 252.55379 356.55655Q255.24129 356.55655 256.7569 358.2128Q258.28815 359.86905 258.28815 363.35342Q258.28815 366.82217 256.7569 368.49405Q255.24129 370.1503 252.64754 370.1503Q249.96004 370.1503 248.42879 368.49405Q246.91316 366.8378 246.91316 363.35342ZM250.77254 363.32217Q250.77254 365.8378 251.35066 366.69717Q251.78816 367.32217 252.55379 367.32217Q253.35066 367.32217 253.78816 366.69717Q254.35066 365.8378 254.35066 363.32217Q254.35066 360.80655 253.78816 359.9628Q253.35066 359.30655 252.55379 359.30655Q251.78816 359.30655 251.35066 359.94717Q250.77254 360.80655 250.77254 363.32217ZM256.3194 383.74405L252.66316 383.74405L266.39752 356.55655L269.9444 356.55655L256.3194 383.74405ZM264.30377 376.97842Q264.30377 373.50967 265.8194 371.8378Q267.33502 370.16592 269.97565 370.16592Q272.6319 370.16592 274.14752 371.8378Q275.67877 373.50967 275.67877 376.97842Q275.67877 380.4628 274.14752 382.13467Q272.6319 383.79092 270.03815 383.79092Q267.33502 383.79092 265.8194 382.13467Q264.30377 380.4628 264.30377 376.97842ZM268.14752 376.9628Q268.14752 379.47842 268.72565 380.32217Q269.16315 380.9628 269.9444 380.9628Q270.74127 380.9628 271.16315 380.3378Q271.74127 379.47842 271.74127 376.9628Q271.74127 374.44717 271.17877 373.5878Q270.74127 372.94717 269.9444 372.94717Q269.14752 372.94717 268.72565 373.5878Q268.14752 374.44717 268.14752 376.9628Z" fill-rule="nonzero"/><path fill="#000000" d="M244.80353 151.32571L244.80353 155.91946L227.4754 155.91946Q227.75665 153.31009 229.1629 150.98196Q230.56915 148.65384 234.7254 144.81009Q238.06915 141.70071 238.81915 140.59134Q239.83478 139.06009 239.83478 137.56009Q239.83478 135.91946 238.94415 135.02884Q238.06915 134.13821 236.50665 134.13821Q234.95978 134.13821 234.0379 135.07571Q233.13165 135.99759 232.99103 138.16946L228.06915 137.66946Q228.50665 133.59134 230.81915 131.82571Q233.14728 130.04446 236.61603 130.04446Q240.44415 130.04446 242.61603 132.10696Q244.80353 134.15384 244.80353 137.21634Q244.80353 138.95071 244.17853 140.52884Q243.55353 142.10696 242.19415 143.82571Q241.30353 144.96634 238.95978 147.12259Q236.61603 149.26321 235.99103 149.96634Q235.38165 150.66946 234.99103 151.32571L244.80353 151.32571ZM264.80353 151.32571L264.80353 155.91946L247.4754 155.91946Q247.75665 153.31009 249.1629 150.98196Q250.56915 148.65384 254.7254 144.81009Q258.06915 141.70071 258.81915 140.59134Q259.83478 139.06009 259.83478 137.56009Q259.83478 135.91946 258.94415 135.02884Q258.06915 134.13821 256.50665 134.13821Q254.95978 134.13821 254.0379 135.07571Q253.13165 135.99759 252.99103 138.16946L248.06915 137.66946Q248.50665 133.59134 250.81915 131.82571Q253.14728 130.04446 256.61603 130.04446Q260.44415 130.04446 262.61603 132.10696Q264.80353 134.15384 264.80353 137.21634Q264.80353 138.95071 264.17853 140.52884Q263.55353 142.10696 262.19415 143.82571Q261.30353 144.96634 258.95978 147.12259Q256.61603 149.26321 255.99103 149.96634Q255.38165 150.66946 254.99103 151.32571L264.80353 151.32571ZM269.1629 155.91946L269.1629 150.98196L274.11603 150.98196L274.11603 155.91946L269.1629 155.91946ZM294.80353 151.32571L294.80353 155.91946L277.4754 155.91946Q277.75665 153.31009 279.1629 150.98196Q280.56915 148.65384 284.7254 144.81009Q288.06915 141.70071 288.81915 140.59134Q289.83478 139.06009 289.83478 137.56009Q289.83478 135.91946 288.94415 135.02884Q288.06915 134.13821 286.50665 134.13821Q284.95978 134.13821 284.0379 135.07571Q283.13165 135.99759 282.99103 138.16946L278.06915 137.66946Q278.50665 133.59134 280.81915 131.82571Q283.14728 130.04446 286.61603 130.04446Q290.44415 130.04446 292.61603 132.10696Q294.80353 134.15384 294.80353 137.21634Q294.80353 138.95071 294.17853 140.52884Q293.55353 142.10696 292.19415 143.82571Q291.30353 144.96634 288.95978 147.12259Q286.61603 149.26321 285.99103 149.96634Q285.38165 150.66946 284.99103 151.32571L294.80353 151.32571ZM298.14728 136.51321Q298.14728 133.04446 299.6629 131.38821Q301.19415 129.71634 303.7879 129.71634Q306.4754 129.71634 307.99103 131.37259Q309.52228 133.02884 309.52228 136.51321Q309.52228 139.98196 307.99103 141.65384Q306.4754 143.31009 303.88165 143.31009Q301.19415 143.31009 299.6629 141.65384Q298.14728 139.99759 298.14728 136.51321ZM302.00665 136.48196Q302.00665 138.99759 302.58478 139.85696Q303.02228 140.48196 303.7879 140.48196Q304.58478 140.48196 305.02228 139.85696Q305.58478 138.99759 305.58478 136.48196Q305.58478 133.96634 305.02228 133.12259Q304.58478 132.46634 303.7879 132.46634Q303.02228 132.46634 302.58478 133.10696Q302.00665 133.96634 302.00665 136.48196ZM307.55353 156.90384L303.89728 156.90384L317.63165 129.71634L321.17853 129.71634L307.55353 156.90384ZM315.5379 150.13821Q315.5379 146.66946 317.05353 144.99759Q318.56915 143.32571 321.20978 143.32571Q323.86603 143.32571 325.38165 144.99759Q326.9129 146.66946 326.9129 150.13821Q326.9129 153.62259 325.38165 155.29446Q323.86603 156.95071 321.27228 156.95071Q318.56915 156.95071 317.05353 155.29446Q315.5379 153.62259 315.5379 150.13821ZM319.38165 150.12259Q319.38165 152.63821 319.95978 153.48196Q320.39728 154.12259 321.17853 154.12259Q321.9754 154.12259 322.39728 153.49759Q322.9754 152.63821 322.9754 150.12259Q322.9754 147.60696 322.4129 146.74759Q321.9754 146.10696 321.17853 146.10696Q320.38165 146.10696 319.95978 146.74759Q319.38165 147.60696 319.38165 150.12259Z" fill-rule="nonzero"/><path fill="#4285f4" d="M51.0 590.0C51.0 593.3137 48.31371 596.0 45.0 596.0C41.68629 596.0 39.0 593.3137 39.0 590.0C39.0 586.6863 41.68629 584.0 45.0 584.0C48.31371 584.0 51.0 586.6863 51.0 590.0Z" fill-rule="nonzero"/><path fill="#1a1a1a" d="M60.171875 593.375L60.171875 588.8281Q62.40625 586.3906 65.375 586.3906Q66.484375 586.3906 67.421875 586.625Q68.359375 586.84375 70.765625 587.8125Q73.1875 588.78125 74.046875 588.78125Q75.03125 588.78125 76.3125 588.1875Q77.609375 587.5781 78.84375 586.25L78.84375 591.0Q78.03125 591.84375 76.578125 592.59375Q75.140625 593.3281 73.59375 593.3281Q72.71875 593.3281 71.875 593.125Q71.046875 592.90625 69.234375 592.1094Q66.53125 590.9375 64.984375 590.9375Q62.515625 590.9375 60.171875 593.375ZM98.21875 597.90625L98.21875 602.5L80.890625 602.5Q81.171875 599.8906 82.578125 597.5625Q83.984375 595.2344 88.140625 591.3906Q91.484375 588.28125 92.234375 587.1719Q93.25 585.6406 93.25 584.1406Q93.25 582.5 92.359375 581.6094Q91.484375 580.71875 89.921875 580.71875Q88.375 580.71875 87.453125 581.65625Q86.546875 582.5781 86.40625 584.75L81.484375 584.25Q81.921875 580.1719 84.234375 578.40625Q86.5625 576.625 90.03125 576.625Q93.859375 576.625 96.03125 578.6875Q98.21875 580.7344 98.21875 583.7969Q98.21875 585.53125 97.59375 587.1094Q96.96875 588.6875 95.609375 590.40625Q94.71875 591.5469 92.375 593.7031Q90.03125 595.84375 89.40625 596.5469Q88.796875 597.25 88.40625 597.90625L98.21875 597.90625ZM111.21875 602.5L111.21875 597.3125L100.671875 597.3125L100.671875 592.9844L111.84375 576.625L116.0 576.625L116.0 592.96875L119.203125 592.96875L119.203125 597.3125L116.0 597.3125L116.0 602.5L111.21875 602.5ZM111.21875 592.96875L111.21875 584.1719L105.296875 592.96875L111.21875 592.96875Z" fill-rule="nonzero"/><path fill="#1a1a1a" d="M151.82812 605.03125Q148.53125 605.03125 145.73438 601.7344Q143.70312 603.7656 139.5 606.1094L136.8125 602.1875Q141.125 599.875 143.04688 598.0625Q140.82812 593.3594 140.57812 588.71875L128.95312 588.71875L128.95312 594.71875Q128.95312 601.7656 124.84375 606.0625L121.6875 602.90625Q124.640625 599.6406 124.640625 594.0156L124.640625 584.5469L140.39062 584.5469L140.39062 583.09375L123.375 583.09375L123.375 578.9219L128.71875 578.9219L128.71875 573.2969L132.1875 573.2969Q135.26562 573.6875 133.03125 575.28125L133.03125 578.9219L136.73438 578.9219L136.73438 571.8906L140.20312 571.8906Q143.28125 572.28125 141.04688 573.875L141.04688 574.4219L150.75 574.4219L150.75 578.59375L141.04688 578.59375L141.04688 578.9219L153.98438 578.9219L153.98438 583.09375L149.60938 582.71875Q149.95312 582.46875 150.96875 583.9844L150.40625 584.5469L153.84375 584.5469L153.84375 588.71875L144.875 588.71875Q144.98438 592.0 146.15625 594.4531Q147.20312 592.84375 148.42188 589.0156L152.125 590.875Q153.84375 592.5781 151.8125 592.8594Q150.95312 595.21875 148.6875 598.34375Q149.9375 599.875 150.70312 599.875Q150.71875 599.875 151.03125 596.4375L155.14062 598.1719Q154.64062 605.03125 151.82812 605.03125ZM126.921875 601.375Q129.03125 597.1719 129.54688 593.3125L133.10938 594.4375Q135.84375 595.6094 133.39062 596.53125Q133.0 599.3281 130.75 603.2969L126.921875 601.375ZM145.09375 583.09375L144.70312 583.09375L144.70312 584.5469L146.28125 584.8125Q146.15625 585.0469 144.29688 583.8906L145.09375 583.09375ZM140.76562 589.46875L140.76562 593.6406L137.10938 593.6406L137.10938 603.0156Q137.10938 605.4531 134.39062 605.4531L131.07812 605.4531L130.42188 601.28125L133.40625 601.28125Q133.40625 601.46875 133.21875 601.46875L133.21875 593.6406L128.4375 593.6406L128.4375 589.46875L140.76562 589.46875ZM139.0625 601.53125Q137.92188 598.1094 136.1875 595.0L139.6875 593.03125Q141.67188 595.9219 142.73438 598.9375L139.0625 601.53125Z" fill-rule="nonzero"/><path fill="#ea4335" d="M185.0 590.0C185.0 593.3137 182.3137 596.0 179.0 596.0C175.6863 596.0 173.0 593.3137 173.0 590.0C173.0 586.6863 175.6863 584.0 179.0 584.0C182.3137 584.0 185.0 586.6863 185.0 590.0Z" fill-rule="nonzero"/><path fill="#1a1a1a" d="M211.21875 597.90625L211.21875 602.5L193.89062 602.5Q194.17188 599.8906 195.57812 597.5625Q196.98438 595.2344 201.14062 591.3906Q204.48438 588.28125 205.23438 587.1719Q206.25 585.6406 206.25 584.1406Q206.25 582.5 205.35938 581.6094Q204.48438 580.71875 202.92188 580.71875Q201.375 580.71875 200.45312 581.65625Q199.54688 582.5781 199.40625 584.75L194.48438 584.25Q194.92188 580.1719 197.23438 578.40625Q199.5625 576.625 203.03125 576.625Q206.85938 576.625 209.03125 578.6875Q211.21875 580.7344 211.21875 583.7969Q211.21875 585.53125 210.59375 587.1094Q209.96875 588.6875 208.60938 590.40625Q207.71875 591.5469 205.375 593.7031Q203.03125 595.84375 202.40625 596.5469Q201.79688 597.25 201.40625 597.90625L211.21875 597.90625ZM214.59375 595.875L219.51562 595.3594Q219.73438 597.03125 220.76562 598.0156Q221.8125 598.9844 223.15625 598.9844Q224.70312 598.9844 225.78125 597.7344Q226.85938 596.46875 226.85938 593.9375Q226.85938 591.5625 225.78125 590.375Q224.71875 589.1875 223.01562 589.1875Q220.89062 589.1875 219.20312 591.0781L215.20312 590.5L217.73438 577.0781L230.79688 577.0781L230.79688 581.7031L221.46875 581.7031L220.70312 586.0781Q222.35938 585.25 224.07812 585.25Q227.35938 585.25 229.64062 587.6406Q231.9375 590.03125 231.9375 593.84375Q231.9375 597.03125 230.09375 599.53125Q227.57812 602.9375 223.10938 602.9375Q219.54688 602.9375 217.29688 601.03125Q215.04688 599.1094 214.59375 595.875Z" fill-rule="nonzero"/><path fill="#1a1a1a" d="M264.82812 605.03125Q261.53125 605.03125 258.73438 601.7344Q256.70312 603.7656 252.5 606.1094L249.8125 602.1875Q254.125 599.875 256.04688 598.0625Q253.82812 593.3594 253.57812 588.71875L241.95312 588.71875L241.95312 594.71875Q241.95312 601.7656 237.84375 606.0625L234.6875 602.90625Q237.64062 599.6406 237.64062 594.0156L237.64062 584.5469L253.39062 584.5469L253.39062 583.09375L236.375 583.09375L236.375 578.9219L241.71875 578.9219L241.71875 573.2969L245.1875 573.2969Q248.26562 573.6875 246.03125 575.28125L246.03125 578.9219L249.73438 578.9219L249.73438 571.8906L253.20312 571.8906Q256.28125 572.28125 254.04688 573.875L254.04688 574.4219L263.75 574.4219L263.75 578.59375L254.04688 578.59375L254.04688 578.9219L266.98438 578.9219L266.98438 583.09375L262.60938 582.71875Q262.95312 582.46875 263.96875 583.9844L263.40625 584.5469L266.84375 584.5469L266.84375 588.71875L257.875 588.71875Q257.98438 592.0 259.15625 594.4531Q260.20312 592.84375 261.42188 589.0156L265.125 590.875Q266.84375 592.5781 264.8125 592.8594Q263.95312 595.21875 261.6875 598.34375Q262.9375 599.875 263.70312 599.875Q263.71875 599.875 264.03125 596.4375L268.14062 598.1719Q267.64062 605.03125 264.82812 605.03125ZM239.92188 601.375Q242.03125 597.1719 242.54688 593.3125L246.10938 594.4375Q248.84375 595.6094 246.39062 596.53125Q246.0 599.3281 243.75 603.2969L239.92188 601.375ZM258.09375 583.09375L257.70312 583.09375L257.70312 584.5469L259.28125 584.8125Q259.15625 585.0469 257.29688 583.8906L258.09375 583.09375ZM253.76562 589.46875L253.76562 593.6406L250.10938 593.6406L250.10938 603.0156Q250.10938 605.4531 247.39062 605.4531L244.07812 605.4531L243.42188 601.28125L246.40625 601.28125Q246.40625 601.46875 246.21875 601.46875L246.21875 593.6406L241.4375 593.6406L241.4375 589.46875L253.76562 589.46875ZM252.0625 601.53125Q250.92188 598.1094 249.1875 595.0L252.6875 593.03125Q254.67188 595.9219 255.73438 598.9375L252.0625 601.53125ZM282.14062 583.84375Q285.15625 583.84375 288.85938 586.0625Q292.46875 588.2031 294.79688 588.2031Q296.3125 588.2031 297.92188 586.59375Q298.6875 585.8281 299.92188 583.5625L303.96875 587.0Q301.96875 589.7344 300.23438 591.3281Q297.76562 593.6406 294.375 593.6406Q291.78125 593.6406 287.375 591.0Q284.32812 589.1406 282.42188 589.1406Q280.39062 589.1406 279.34375 590.4219Q278.0625 591.9531 277.75 593.53125L273.26562 590.7656Q274.78125 587.9219 276.84375 586.0156Q279.17188 583.84375 282.14062 583.84375Z" fill-rule="nonzero"/><path fill="#1a1a1a" d="M325.21875 597.90625L325.21875 602.5L307.89062 602.5Q308.17188 599.8906 309.57812 597.5625Q310.98438 595.2344 315.14062 591.3906Q318.48438 588.28125 319.23438 587.1719Q320.25 585.6406 320.25 584.1406Q320.25 582.5 319.35938 581.6094Q318.48438 580.71875 316.92188 580.71875Q315.375 580.71875 314.45312 581.65625Q313.54688 582.5781 313.40625 584.75L308.48438 584.25Q308.92188 580.1719 311.23438 578.40625Q313.5625 576.625 317.03125 576.625Q320.85938 576.625 323.03125 578.6875Q325.21875 580.7344 325.21875 583.7969Q325.21875 585.53125 324.59375 587.1094Q323.96875 588.6875 322.60938 590.40625Q321.71875 591.5469 319.375 593.7031Q317.03125 595.84375 316.40625 596.5469Q315.79688 597.25 315.40625 597.90625L325.21875 597.90625ZM328.64062 596.5469L333.42188 596.0156Q333.59375 597.46875 334.32812 598.1719Q335.0625 598.875 336.28125 598.875Q337.8125 598.875 338.875 597.46875Q339.95312 596.0625 340.25 591.6406Q338.39062 593.7969 335.59375 593.7969Q332.5625 593.7969 330.34375 591.4531Q328.14062 589.1094 328.14062 585.34375Q328.14062 581.4219 330.46875 579.03125Q332.79688 576.625 336.40625 576.625Q340.32812 576.625 342.84375 579.65625Q345.35938 582.6875 345.35938 589.625Q345.35938 596.7031 342.73438 599.8281Q340.10938 602.9531 335.90625 602.9531Q332.89062 602.9531 331.01562 601.34375Q329.15625 599.7344 328.64062 596.5469ZM339.8125 585.75Q339.8125 583.3594 338.71875 582.0469Q337.625 580.71875 336.17188 580.71875Q334.8125 580.71875 333.90625 581.7969Q333.0 582.875 333.0 585.34375Q333.0 587.84375 333.98438 589.0156Q334.96875 590.1719 336.4375 590.1719Q337.85938 590.1719 338.82812 589.0469Q339.8125 587.9219 339.8125 585.75Z" fill-rule="nonzero"/><path fill="#1a1a1a" d="M378.82812 605.03125Q375.53125 605.03125 372.73438 601.7344Q370.70312 603.7656 366.5 606.1094L363.8125 602.1875Q368.125 599.875 370.04688 598.0625Q367.82812 593.3594 367.57812 588.71875L355.95312 588.71875L355.95312 594.71875Q355.95312 601.7656 351.84375 606.0625L348.6875 602.90625Q351.64062 599.6406 351.64062 594.0156L351.64062 584.5469L367.39062 584.5469L367.39062 583.09375L350.375 583.09375L350.375 578.9219L355.71875 578.9219L355.71875 573.2969L359.1875 573.2969Q362.26562 573.6875 360.03125 575.28125L360.03125 578.9219L363.73438 578.9219L363.73438 571.8906L367.20312 571.8906Q370.28125 572.28125 368.04688 573.875L368.04688 574.4219L377.75 574.4219L377.75 578.59375L368.04688 578.59375L368.04688 578.9219L380.98438 578.9219L380.98438 583.09375L376.60938 582.71875Q376.95312 582.46875 377.96875 583.9844L377.40625 584.5469L380.84375 584.5469L380.84375 588.71875L371.875 588.71875Q371.98438 592.0 373.15625 594.4531Q374.20312 592.84375 375.42188 589.0156L379.125 590.875Q380.84375 592.5781 378.8125 592.8594Q377.95312 595.21875 375.6875 598.34375Q376.9375 599.875 377.70312 599.875Q377.71875 599.875 378.03125 596.4375L382.14062 598.1719Q381.64062 605.03125 378.82812 605.03125ZM353.92188 601.375Q356.03125 597.1719 356.54688 593.3125L360.10938 594.4375Q362.84375 595.6094 360.39062 596.53125Q360.0 599.3281 357.75 603.2969L353.92188 601.375ZM372.09375 583.09375L371.70312 583.09375L371.70312 584.5469L373.28125 584.8125Q373.15625 585.0469 371.29688 583.8906L372.09375 583.09375ZM367.76562 589.46875L367.76562 593.6406L364.10938 593.6406L364.10938 603.0156Q364.10938 605.4531 361.39062 605.4531L358.07812 605.4531L357.42188 601.28125L360.40625 601.28125Q360.40625 601.46875 360.21875 601.46875L360.21875 593.6406L355.4375 593.6406L355.4375 589.46875L367.76562 589.46875ZM366.0625 601.53125Q364.92188 598.1094 363.1875 595.0L366.6875 593.03125Q368.67188 595.9219 369.73438 598.9375L366.0625 601.53125Z" fill-rule="nonzero"/><path fill="#fbbc04" d="M412.0 590.0C412.0 593.3137 409.31372 596.0 406.0 596.0C402.68628 596.0 400.0 593.3137 400.0 590.0C400.0 586.6863 402.68628 584.0 406.0 584.0C409.31372 584.0 412.0 586.6863 412.0 590.0Z" fill-rule="nonzero"/><path fill="#1a1a1a" d="M421.35938 595.65625L426.14062 595.0781Q426.35938 596.90625 427.35938 597.875Q428.375 598.84375 429.79688 598.84375Q431.32812 598.84375 432.35938 597.6875Q433.40625 596.5156 433.40625 594.5469Q433.40625 592.6875 432.40625 591.6094Q431.40625 590.5156 429.96875 590.5156Q429.01562 590.5156 427.70312 590.875L428.25 586.8594Q430.25 586.90625 431.29688 585.9844Q432.35938 585.0625 432.35938 583.53125Q432.35938 582.2344 431.57812 581.46875Q430.8125 580.6875 429.53125 580.6875Q428.26562 580.6875 427.35938 581.5625Q426.46875 582.4375 426.28125 584.125L421.71875 583.3594Q422.20312 581.0156 423.15625 579.625Q424.10938 578.21875 425.82812 577.4219Q427.54688 576.625 429.67188 576.625Q433.3125 576.625 435.5 578.9375Q437.3125 580.84375 437.3125 583.2344Q437.3125 586.625 433.60938 588.6406Q435.82812 589.125 437.14062 590.78125Q438.46875 592.4219 438.46875 594.7656Q438.46875 598.15625 435.98438 600.5469Q433.51562 602.9375 429.82812 602.9375Q426.32812 602.9375 424.01562 600.9219Q421.71875 598.90625 421.35938 595.65625ZM449.875 576.625Q453.625 576.625 455.73438 579.2969Q458.25 582.4531 458.25 589.7969Q458.25 597.1094 455.71875 600.2969Q453.625 602.9375 449.875 602.9375Q446.125 602.9375 443.8125 600.0469Q441.51562 597.15625 441.51562 589.7344Q441.51562 582.4531 444.04688 579.2656Q446.14062 576.625 449.875 576.625ZM449.875 580.71875Q448.98438 580.71875 448.28125 581.2969Q447.57812 581.8594 447.1875 583.34375Q446.6875 585.25 446.6875 589.7969Q446.6875 594.3281 447.14062 596.03125Q447.59375 597.71875 448.28125 598.28125Q448.98438 598.84375 449.875 598.84375Q450.78125 598.84375 451.48438 598.28125Q452.1875 597.7031 452.5625 596.21875Q453.07812 594.3281 453.07812 589.7969Q453.07812 585.25 452.625 583.5625Q452.17188 581.8594 451.46875 581.2969Q450.78125 580.71875 449.875 580.71875Z" fill-rule="nonzero"/><path fill="#1a1a1a" d="M472.14062 583.84375Q475.15625 583.84375 478.85938 586.0625Q482.46875 588.2031 484.79688 588.2031Q486.3125 588.2031 487.92188 586.59375Q488.6875 585.8281 489.92188 583.5625L493.96875 587.0Q491.96875 589.7344 490.23438 591.3281Q487.76562 593.6406 484.375 593.6406Q481.78125 593.6406 477.375 591.0Q474.32812 589.1406 472.42188 589.1406Q470.39062 589.1406 469.34375 590.4219Q468.0625 591.9531 467.75 593.53125L463.26562 590.7656Q464.78125 587.9219 466.84375 586.0156Q469.17188 583.84375 472.14062 583.84375Z" fill-rule="nonzero"/><path fill="#1a1a1a" d="M498.35938 595.65625L503.14062 595.0781Q503.35938 596.90625 504.35938 597.875Q505.375 598.84375 506.79688 598.84375Q508.32812 598.84375 509.35938 597.6875Q510.40625 596.5156 510.40625 594.5469Q510.40625 592.6875 509.40625 591.6094Q508.40625 590.5156 506.96875 590.5156Q506.01562 590.5156 504.70312 590.875L505.25 586.8594Q507.25 586.90625 508.29688 585.9844Q509.35938 585.0625 509.35938 583.53125Q509.35938 582.2344 508.57812 581.46875Q507.8125 580.6875 506.53125 580.6875Q505.26562 580.6875 504.35938 581.5625Q503.46875 582.4375 503.28125 584.125L498.71875 583.3594Q499.20312 581.0156 500.15625 579.625Q501.10938 578.21875 502.82812 577.4219Q504.54688 576.625 506.67188 576.625Q510.3125 576.625 512.5 578.9375Q514.3125 580.84375 514.3125 583.2344Q514.3125 586.625 510.60938 588.6406Q512.8281 589.125 514.1406 590.78125Q515.46875 592.4219 515.46875 594.7656Q515.46875 598.15625 512.9844 600.5469Q510.51562 602.9375 506.82812 602.9375Q503.32812 602.9375 501.01562 600.9219Q498.71875 598.90625 498.35938 595.65625ZM528.21875 602.5L528.21875 597.3125L517.6719 597.3125L517.6719 592.9844L528.84375 576.625L533.0 576.625L533.0 592.96875L536.2031 592.96875L536.2031 597.3125L533.0 597.3125L533.0 602.5L528.21875 602.5ZM528.21875 592.96875L528.21875 584.1719L522.2969 592.96875L528.21875 592.96875Z" fill-rule="nonzero"/><path fill="#1a1a1a" d="M568.8281 605.03125Q565.53125 605.03125 562.7344 601.7344Q560.7031 603.7656 556.5 606.1094L553.8125 602.1875Q558.125 599.875 560.0469 598.0625Q557.8281 593.3594 557.5781 588.71875L545.9531 588.71875L545.9531 594.71875Q545.9531 601.7656 541.84375 606.0625L538.6875 602.90625Q541.6406 599.6406 541.6406 594.0156L541.6406 584.5469L557.3906 584.5469L557.3906 583.09375L540.375 583.09375L540.375 578.9219L545.71875 578.9219L545.71875 573.2969L549.1875 573.2969Q552.2656 573.6875 550.03125 575.28125L550.03125 578.9219L553.7344 578.9219L553.7344 571.8906L557.2031 571.8906Q560.28125 572.28125 558.0469 573.875L558.0469 574.4219L567.75 574.4219L567.75 578.59375L558.0469 578.59375L558.0469 578.9219L570.9844 578.9219L570.9844 583.09375L566.6094 582.71875Q566.9531 582.46875 567.96875 583.9844L567.40625 584.5469L570.84375 584.5469L570.84375 588.71875L561.875 588.71875Q561.9844 592.0 563.15625 594.4531Q564.2031 592.84375 565.4219 589.0156L569.125 590.875Q570.84375 592.5781 568.8125 592.8594Q567.9531 595.21875 565.6875 598.34375Q566.9375 599.875 567.7031 599.875Q567.71875 599.875 568.03125 596.4375L572.1406 598.1719Q571.6406 605.03125 568.8281 605.03125ZM543.9219 601.375Q546.03125 597.1719 546.5469 593.3125L550.1094 594.4375Q552.84375 595.6094 550.3906 596.53125Q550.0 599.3281 547.75 603.2969L543.9219 601.375ZM562.09375 583.09375L561.7031 583.09375L561.7031 584.5469L563.28125 584.8125Q563.15625 585.0469 561.2969 583.8906L562.09375 583.09375ZM557.7656 589.46875L557.7656 593.6406L554.1094 593.6406L554.1094 603.0156Q554.1094 605.4531 551.3906 605.4531L548.0781 605.4531L547.4219 601.28125L550.40625 601.28125Q550.40625 601.46875 550.21875 601.46875L550.21875 593.6406L545.4375 593.6406L545.4375 589.46875L557.7656 589.46875ZM556.0625 601.53125Q554.9219 598.1094 553.1875 595.0L556.6875 593.03125Q558.6719 595.9219 559.7344 598.9375L556.0625 601.53125Z" fill-rule="nonzero"/><path fill="#34a853" d="M602.0 590.0C602.0 593.3137 599.3137 596.0 596.0 596.0C592.6863 596.0 590.0 593.3137 590.0 590.0C590.0 586.6863 592.6863 584.0 596.0 584.0C599.3137 584.0 602.0 586.6863 602.0 590.0Z" fill-rule="nonzero"/><path fill="#1a1a1a" d="M611.3594 595.65625L616.1406 595.0781Q616.3594 596.90625 617.3594 597.875Q618.375 598.84375 619.7969 598.84375Q621.3281 598.84375 622.3594 597.6875Q623.40625 596.5156 623.40625 594.5469Q623.40625 592.6875 622.40625 591.6094Q621.40625 590.5156 619.96875 590.5156Q619.0156 590.5156 617.7031 590.875L618.25 586.8594Q620.25 586.90625 621.2969 585.9844Q622.3594 585.0625 622.3594 583.53125Q622.3594 582.2344 621.5781 581.46875Q620.8125 580.6875 619.53125 580.6875Q618.2656 580.6875 617.3594 581.5625Q616.46875 582.4375 616.28125 584.125L611.71875 583.3594Q612.2031 581.0156 613.15625 579.625Q614.1094 578.21875 615.8281 577.4219Q617.5469 576.625 619.6719 576.625Q623.3125 576.625 625.5 578.9375Q627.3125 580.84375 627.3125 583.2344Q627.3125 586.625 623.6094 588.6406Q625.8281 589.125 627.1406 590.78125Q628.46875 592.4219 628.46875 594.7656Q628.46875 598.15625 625.9844 600.5469Q623.5156 602.9375 619.8281 602.9375Q616.3281 602.9375 614.0156 600.9219Q611.71875 598.90625 611.3594 595.65625ZM631.59375 595.875L636.5156 595.3594Q636.7344 597.03125 637.7656 598.0156Q638.8125 598.9844 640.15625 598.9844Q641.7031 598.9844 642.78125 597.7344Q643.8594 596.46875 643.8594 593.9375Q643.8594 591.5625 642.78125 590.375Q641.71875 589.1875 640.0156 589.1875Q637.8906 589.1875 636.2031 591.0781L632.2031 590.5L634.7344 577.0781L647.7969 577.0781L647.7969 581.7031L638.46875 581.7031L637.7031 586.0781Q639.3594 585.25 641.0781 585.25Q644.3594 585.25 646.6406 587.6406Q648.9375 590.03125 648.9375 593.84375Q648.9375 597.03125 647.09375 599.53125Q644.5781 602.9375 640.1094 602.9375Q636.5469 602.9375 634.2969 601.03125Q632.0469 599.1094 631.59375 595.875Z" fill-rule="nonzero"/><path fill="#1a1a1a" d="M662.1406 583.84375Q665.15625 583.84375 668.8594 586.0625Q672.46875 588.2031 674.7969 588.2031Q676.3125 588.2031 677.9219 586.59375Q678.6875 585.8281 679.9219 583.5625L683.96875 587.0Q681.96875 589.7344 680.2344 591.3281Q677.7656 593.6406 674.375 593.6406Q671.78125 593.6406 667.375 591.0Q664.3281 589.1406 662.4219 589.1406Q660.3906 589.1406 659.34375 590.4219Q658.0625 591.9531 657.75 593.53125L653.2656 590.7656Q654.78125 587.9219 656.84375 586.0156Q659.1719 583.84375 662.1406 583.84375Z" fill-rule="nonzero"/><path fill="#1a1a1a" d="M688.3594 595.65625L693.1406 595.0781Q693.3594 596.90625 694.3594 597.875Q695.375 598.84375 696.7969 598.84375Q698.3281 598.84375 699.3594 597.6875Q700.40625 596.5156 700.40625 594.5469Q700.40625 592.6875 699.40625 591.6094Q698.40625 590.5156 696.96875 590.5156Q696.0156 590.5156 694.7031 590.875L695.25 586.8594Q697.25 586.90625 698.2969 585.9844Q699.3594 585.0625 699.3594 583.53125Q699.3594 582.2344 698.5781 581.46875Q697.8125 580.6875 696.53125 580.6875Q695.2656 580.6875 694.3594 581.5625Q693.46875 582.4375 693.28125 584.125L688.71875 583.3594Q689.2031 581.0156 690.15625 579.625Q691.1094 578.21875 692.8281 577.4219Q694.5469 576.625 696.6719 576.625Q700.3125 576.625 702.5 578.9375Q704.3125 580.84375 704.3125 583.2344Q704.3125 586.625 700.6094 588.6406Q702.8281 589.125 704.1406 590.78125Q705.46875 592.4219 705.46875 594.7656Q705.46875 598.15625 702.9844 600.5469Q700.5156 602.9375 696.8281 602.9375Q693.3281 602.9375 691.0156 600.9219Q688.71875 598.90625 688.3594 595.65625ZM708.6406 596.5469L713.4219 596.0156Q713.59375 597.46875 714.3281 598.1719Q715.0625 598.875 716.28125 598.875Q717.8125 598.875 718.875 597.46875Q719.9531 596.0625 720.25 591.6406Q718.3906 593.7969 715.59375 593.7969Q712.5625 593.7969 710.34375 591.4531Q708.1406 589.1094 708.1406 585.34375Q708.1406 581.4219 710.46875 579.03125Q712.7969 576.625 716.40625 576.625Q720.3281 576.625 722.84375 579.65625Q725.3594 582.6875 725.3594 589.625Q725.3594 596.7031 722.7344 599.8281Q720.1094 602.9531 715.90625 602.9531Q712.8906 602.9531 711.0156 601.34375Q709.15625 599.7344 708.6406 596.5469ZM719.8125 585.75Q719.8125 583.3594 718.71875 582.0469Q717.625 580.71875 716.1719 580.71875Q714.8125 580.71875 713.90625 581.7969Q713.0 582.875 713.0 585.34375Q713.0 587.84375 713.9844 589.0156Q714.96875 590.1719 716.4375 590.1719Q717.8594 590.1719 718.8281 589.0469Q719.8125 587.9219 719.8125 585.75Z" fill-rule="nonzero"/><path fill="#1a1a1a" d="M758.8281 605.03125Q755.53125 605.03125 752.7344 601.7344Q750.7031 603.7656 746.5 606.1094L743.8125 602.1875Q748.125 599.875 750.0469 598.0625Q747.8281 593.3594 747.5781 588.71875L735.9531 588.71875L735.9531 594.71875Q735.9531 601.7656 731.84375 606.0625L728.6875 602.90625Q731.6406 599.6406 731.6406 594.0156L731.6406 584.5469L747.3906 584.5469L747.3906 583.09375L730.375 583.09375L730.375 578.9219L735.71875 578.9219L735.71875 573.2969L739.1875 573.2969Q742.2656 573.6875 740.03125 575.28125L740.03125 578.9219L743.7344 578.9219L743.7344 571.8906L747.2031 571.8906Q750.28125 572.28125 748.0469 573.875L748.0469 574.4219L757.75 574.4219L757.75 578.59375L748.0469 578.59375L748.0469 578.9219L760.9844 578.9219L760.9844 583.09375L756.6094 582.71875Q756.9531 582.46875 757.96875 583.9844L757.40625 584.5469L760.84375 584.5469L760.84375 588.71875L751.875 588.71875Q751.9844 592.0 753.15625 594.4531Q754.2031 592.84375 755.4219 589.0156L759.125 590.875Q760.84375 592.5781 758.8125 592.8594Q757.9531 595.21875 755.6875 598.34375Q756.9375 599.875 757.7031 599.875Q757.71875 599.875 758.03125 596.4375L762.1406 598.1719Q761.6406 605.03125 758.8281 605.03125ZM733.9219 601.375Q736.03125 597.1719 736.5469 593.3125L740.1094 594.4375Q742.84375 595.6094 740.3906 596.53125Q740.0 599.3281 737.75 603.2969L733.9219 601.375ZM752.09375 583.09375L751.7031 583.09375L751.7031 584.5469L753.28125 584.8125Q753.15625 585.0469 751.2969 583.8906L752.09375 583.09375ZM747.7656 589.46875L747.7656 593.6406L744.1094 593.6406L744.1094 603.0156Q744.1094 605.4531 741.3906 605.4531L738.0781 605.4531L737.4219 601.28125L740.40625 601.28125Q740.40625 601.46875 740.21875 601.46875L740.21875 593.6406L735.4375 593.6406L735.4375 589.46875L747.7656 589.46875ZM746.0625 601.53125Q744.9219 598.1094 743.1875 595.0L746.6875 593.03125Q748.6719 595.9219 749.7344 598.9375L746.0625 601.53125Z" fill-rule="nonzero"/><path fill="#ff6d01" d="M346.5 635.0C346.5 638.3137 343.81372 641.0 340.5 641.0C337.18628 641.0 334.5 638.3137 334.5 635.0C334.5 631.6863 337.18628 629.0 340.5 629.0C343.81372 629.0 346.5 631.6863 346.5 635.0Z" fill-rule="nonzero"/><path fill="#1a1a1a" d="M365.71875 647.5L365.71875 642.3125L355.17188 642.3125L355.17188 637.9844L366.34375 621.625L370.5 621.625L370.5 637.96875L373.70312 637.96875L373.70312 642.3125L370.5 642.3125L370.5 647.5L365.71875 647.5ZM365.71875 637.96875L365.71875 629.1719L359.79688 637.96875L365.71875 637.96875ZM384.375 621.625Q388.125 621.625 390.23438 624.2969Q392.75 627.4531 392.75 634.7969Q392.75 642.1094 390.21875 645.2969Q388.125 647.9375 384.375 647.9375Q380.625 647.9375 378.3125 645.0469Q376.01562 642.15625 376.01562 634.7344Q376.01562 627.4531 378.54688 624.2656Q380.64062 621.625 384.375 621.625ZM384.375 625.71875Q383.48438 625.71875 382.78125 626.2969Q382.07812 626.8594 381.6875 628.34375Q381.1875 630.25 381.1875 634.7969Q381.1875 639.3281 381.64062 641.03125Q382.09375 642.71875 382.78125 643.28125Q383.48438 643.84375 384.375 643.84375Q385.28125 643.84375 385.98438 643.28125Q386.6875 642.7031 387.0625 641.21875Q387.57812 639.3281 387.57812 634.7969Q387.57812 630.25 387.125 628.5625Q386.67188 626.8594 385.96875 626.2969Q385.28125 625.71875 384.375 625.71875Z" fill-rule="nonzero"/><path fill="#1a1a1a" d="M426.32812 650.03125Q423.03125 650.03125 420.23438 646.7344Q418.20312 648.7656 414.0 651.1094L411.3125 647.1875Q415.625 644.875 417.54688 643.0625Q415.32812 638.3594 415.07812 633.71875L403.45312 633.71875L403.45312 639.71875Q403.45312 646.7656 399.34375 651.0625L396.1875 647.90625Q399.14062 644.6406 399.14062 639.0156L399.14062 629.5469L414.89062 629.5469L414.89062 628.09375L397.875 628.09375L397.875 623.9219L403.21875 623.9219L403.21875 618.2969L406.6875 618.2969Q409.76562 618.6875 407.53125 620.28125L407.53125 623.9219L411.23438 623.9219L411.23438 616.8906L414.70312 616.8906Q417.78125 617.28125 415.54688 618.875L415.54688 619.4219L425.25 619.4219L425.25 623.59375L415.54688 623.59375L415.54688 623.9219L428.48438 623.9219L428.48438 628.09375L424.10938 627.71875Q424.45312 627.46875 425.46875 628.9844L424.90625 629.5469L428.34375 629.5469L428.34375 633.71875L419.375 633.71875Q419.48438 637.0 420.65625 639.4531Q421.70312 637.84375 422.92188 634.0156L426.625 635.875Q428.34375 637.5781 426.3125 637.8594Q425.45312 640.21875 423.1875 643.34375Q424.4375 644.875 425.20312 644.875Q425.21875 644.875 425.53125 641.4375L429.64062 643.1719Q429.14062 650.03125 426.32812 650.03125ZM401.42188 646.375Q403.53125 642.1719 404.04688 638.3125L407.60938 639.4375Q410.34375 640.6094 407.89062 641.53125Q407.5 644.3281 405.25 648.2969L401.42188 646.375ZM419.59375 628.09375L419.20312 628.09375L419.20312 629.5469L420.78125 629.8125Q420.65625 630.0469 418.79688 628.8906L419.59375 628.09375ZM415.26562 634.46875L415.26562 638.6406L411.60938 638.6406L411.60938 648.0156Q411.60938 650.4531 408.89062 650.4531L405.57812 650.4531L404.92188 646.28125L407.90625 646.28125Q407.90625 646.46875 407.71875 646.46875L407.71875 638.6406L402.9375 638.6406L402.9375 634.46875L415.26562 634.46875ZM413.5625 646.53125Q412.42188 643.1094 410.6875 640.0L414.1875 638.03125Q416.17188 640.9219 417.23438 643.9375L413.5625 646.53125ZM443.64062 628.84375Q446.65625 628.84375 450.35938 631.0625Q453.96875 633.2031 456.29688 633.2031Q457.8125 633.2031 459.42188 631.59375Q460.1875 630.8281 461.42188 628.5625L465.46875 632.0Q463.46875 634.7344 461.73438 636.3281Q459.26562 638.6406 455.875 638.6406Q453.28125 638.6406 448.875 636.0Q445.82812 634.1406 443.92188 634.1406Q441.89062 634.1406 440.84375 635.4219Q439.5625 636.9531 439.25 638.53125L434.76562 635.7656Q436.28125 632.9219 438.34375 631.0156Q440.67188 628.84375 443.64062 628.84375Z" fill-rule="nonzero"/></svg>