<svg version="1.1" viewBox="0.0 0.0 802.0 685.0" fill="none" stroke="none" stroke-linecap="square" stroke-miterlimit="10" width="802" height="685" xmlns:xlink="http://www.w3.org/1999/xlink" xmlns="http://www.w3.org/2000/svg"><path fill="#ffffff" d="M0 0L802.0 0L802.0 685.0L0 685.0L0 0Z" fill-rule="nonzero"/><path stroke="#333333" stroke-width="1.0" stroke-linecap="butt" d="M100.5 600.5L767.5 600.5" fill-rule="nonzero"/><path stroke="#cccccc" stroke-width="1.0" stroke-linecap="butt" d="M100.5 509.5L767.5 509.5" fill-rule="nonzero"/><path stroke="#cccccc" stroke-width="1.0" stroke-linecap="butt" d="M100.5 418.5L767.5 418.5" fill-rule="nonzero"/><path stroke="#cccccc" stroke-width="1.0" stroke-linecap="butt" d="M100.5 327.5L767.5 327.5" fill-rule="nonzero"/><path stroke="#cccccc" stroke-width="1.0" stroke-linecap="butt" d="M100.5 236.5L767.5 236.5" fill-rule="nonzero"/><path stroke="#cccccc" stroke-width="1.0" stroke-linecap="butt" d="M100.5 145.5L767.5 145.5" fill-rule="nonzero"/><clipPath id="id_0"><path d="M100.25 145.41667L767.75 145.41667L767.75 600.75L100.25 600.75L100.25 145.41667Z" clip-rule="nonzero"/></clipPath><path stroke="#000000" stroke-width="2.0" stroke-linecap="butt" stroke-opacity="0.0" clip-path="url(#id_0)" d="M254.0 601.0L154.0 601.0L154.0 581.0L254.0 581.0Z" fill-rule="nonzero"/><path fill="#4285f4" clip-path="url(#id_0)" d="M254.0 601.0L154.0 601.0L154.0 581.0L254.0 581.0Z" fill-rule="nonzero"/><path stroke="#000000" stroke-width="2.0" stroke-linecap="butt" stroke-opacity="0.0" clip-path="url(#id_0)" d="M407.0 601.0L307.0 601.0L307.0 528.0L407.0 528.0Z" fill-rule="nonzero"/><path fill="#4285f4" clip-path="url(#id_0)" d="M407.0 601.0L307.0 601.0L307.0 528.0L407.0 528.0Z" fill-rule="nonzero"/><path stroke="#000000" stroke-width="2.0" stroke-linecap="butt" stroke-opacity="0.0" clip-path="url(#id_0)" d="M561.0 601.0L461.0 601.0L461.0 486.0L561.0 486.0Z" fill-rule="nonzero"/><path fill="#4285f4" clip-path="url(#id_0)" d="M561.0 601.0L461.0 601.0L461.0 486.0L561.0 486.0Z" fill-rule="nonzero"/><path stroke="#000000" stroke-width="2.0" stroke-linecap="butt" stroke-opacity="0.0" clip-path="url(#id_0)" d="M714.0 601.0L614.0 601.0L614.0 395.0L714.0 395.0Z" fill-rule="nonzero"/><path fill="#4285f4" clip-path="url(#id_0)" d="M714.0 601.0L614.0 601.0L614.0 395.0L714.0 395.0Z" fill-rule="nonzero"/><path stroke="#000000" stroke-width="2.0" stroke-linecap="butt" stroke-opacity="0.0" clip-path="url(#id_0)" d="M254.0 581.0L154.0 581.0L154.0 581.0L254.0 581.0Z" fill-rule="nonzero"/><path fill="#f39800" clip-path="url(#id_0)" d="M254.0 581.0L154.0 581.0L154.0 581.0L254.0 581.0Z" fill-rule="nonzero"/><path stroke="#000000" stroke-width="2.0" stroke-linecap="butt" stroke-opacity="0.0" clip-path="url(#id_0)" d="M407.0 528.0L307.0 528.0L307.0 528.0L407.0 528.0Z" fill-rule="nonzero"/><path fill="#f39800" clip-path="url(#id_0)" d="M407.0 528.0L307.0 528.0L307.0 528.0L407.0 528.0Z" fill-rule="nonzero"/><path stroke="#000000" stroke-width="2.0" stroke-linecap="butt" stroke-opacity="0.0" clip-path="url(#id_0)" d="M561.0 486.0L461.0 486.0L461.0 479.0C461.0 477.89542 461.89542 477.0 463.0 477.0L559.0 477.0C560.10455 477.0 561.0 477.89542 561.0 479.0Z" fill-rule="nonzero"/><path fill="#f39800" clip-path="url(#id_0)" d="M561.0 486.0L461.0 486.0L461.0 479.0C461.0 477.89542 461.89542 477.0 463.0 477.0L559.0 477.0C560.10455 477.0 561.0 477.89542 561.0 479.0Z" fill-rule="nonzero"/><path stroke="#000000" stroke-width="2.0" stroke-linecap="butt" stroke-opacity="0.0" clip-path="url(#id_0)" d="M714.0 395.0L614.0 395.0L614.0 291.0C614.0 289.89542 614.89545 289.0 616.0 289.0L712.0 289.0C713.10455 289.0 714.0 289.89542 714.0 291.0Z" fill-rule="nonzero"/><path fill="#f39800" clip-path="url(#id_0)" d="M714.0 395.0L614.0 395.0L614.0 291.0C614.0 289.89542 614.89545 289.0 616.0 289.0L712.0 289.0C713.10455 289.0 714.0 289.89542 714.0 291.0Z" fill-rule="nonzero"/><path stroke="#ffffff" stroke-width="3.0" stroke-linejoin="round" stroke-linecap="round" d="M198.17188 536.71533L193.23438 536.71533L193.23438 518.10596Q190.51562 520.6372 186.84375 521.84033L186.84375 517.35596Q188.78125 516.73096 191.04688 514.96533Q193.3125 513.1997 194.15625 510.84033L198.17188 510.84033L198.17188 536.71533ZM218.17188 536.71533L213.23438 536.71533L213.23438 518.10596Q210.51562 520.6372 206.84375 521.84033L206.84375 517.35596Q208.78125 516.73096 211.04688 514.96533Q213.3125 513.1997 214.15625 510.84033L218.17188 510.84033L218.17188 536.71533Z" fill-rule="nonzero"/><path fill="#4285f4" d="M198.17188 536.71533L193.23438 536.71533L193.23438 518.10596Q190.51562 520.6372 186.84375 521.84033L186.84375 517.35596Q188.78125 516.73096 191.04688 514.96533Q193.3125 513.1997 194.15625 510.84033L198.17188 510.84033L198.17188 536.71533ZM218.17188 536.71533L213.23438 536.71533L213.23438 518.10596Q210.51562 520.6372 206.84375 521.84033L206.84375 517.35596Q208.78125 516.73096 211.04688 514.96533Q213.3125 513.1997 214.15625 510.84033L218.17188 510.84033L218.17188 536.71533Z" fill-rule="nonzero"/><path stroke="#ffffff" stroke-width="3.0" stroke-linejoin="round" stroke-linecap="round" d="M348.21875 483.89667L348.21875 478.70917L337.67188 478.70917L337.67188 474.38104L348.84375 458.02167L353.0 458.02167L353.0 474.36542L356.20312 474.36542L356.20312 478.70917L353.0 478.70917L353.0 483.89667L348.21875 483.89667ZM348.21875 474.36542L348.21875 465.56854L342.29688 474.36542L348.21875 474.36542ZM366.875 458.02167Q370.625 458.02167 372.73438 460.69354Q375.25 463.8498 375.25 471.19354Q375.25 478.50604 372.71875 481.69354Q370.625 484.33417 366.875 484.33417Q363.125 484.33417 360.8125 481.44354Q358.51562 478.55292 358.51562 471.13104Q358.51562 463.8498 361.04688 460.6623Q363.14062 458.02167 366.875 458.02167ZM366.875 462.11542Q365.98438 462.11542 365.28125 462.69354Q364.57812 463.25604 364.1875 464.74042Q363.6875 466.64667 363.6875 471.19354Q363.6875 475.7248 364.14062 477.42792Q364.59375 479.11542 365.28125 479.67792Q365.98438 480.24042 366.875 480.24042Q367.78125 480.24042 368.48438 479.67792Q369.1875 479.0998 369.5625 477.61542Q370.07812 475.7248 370.07812 471.19354Q370.07812 466.64667 369.625 464.95917Q369.17188 463.25604 368.46875 462.69354Q367.78125 462.11542 366.875 462.11542Z" fill-rule="nonzero"/><path fill="#4285f4" d="M348.21875 483.89667L348.21875 478.70917L337.67188 478.70917L337.67188 474.38104L348.84375 458.02167L353.0 458.02167L353.0 474.36542L356.20312 474.36542L356.20312 478.70917L353.0 478.70917L353.0 483.89667L348.21875 483.89667ZM348.21875 474.36542L348.21875 465.56854L342.29688 474.36542L348.21875 474.36542ZM366.875 458.02167Q370.625 458.02167 372.73438 460.69354Q375.25 463.8498 375.25 471.19354Q375.25 478.50604 372.71875 481.69354Q370.625 484.33417 366.875 484.33417Q363.125 484.33417 360.8125 481.44354Q358.51562 478.55292 358.51562 471.13104Q358.51562 463.8498 361.04688 460.6623Q363.14062 458.02167 366.875 458.02167ZM366.875 462.11542Q365.98438 462.11542 365.28125 462.69354Q364.57812 463.25604 364.1875 464.74042Q363.6875 466.64667 363.6875 471.19354Q363.6875 475.7248 364.14062 477.42792Q364.59375 479.11542 365.28125 479.67792Q365.98438 480.24042 366.875 480.24042Q367.78125 480.24042 368.48438 479.67792Q369.1875 479.0998 369.5625 477.61542Q370.07812 475.7248 370.07812 471.19354Q370.07812 466.64667 369.625 464.95917Q369.17188 463.25604 368.46875 462.69354Q367.78125 462.11542 366.875 462.11542Z" fill-rule="nonzero"/><path stroke="#ffffff" stroke-width="3.0" stroke-linejoin="round" stroke-linecap="round" d="M509.26562 413.4462L504.48438 413.96182Q504.3125 412.49307 503.5625 411.78995Q502.82812 411.08682 501.65625 411.08682Q500.09375 411.08682 499.0 412.49307Q497.92188 413.89932 497.64062 418.33682Q499.48438 416.16495 502.23438 416.16495Q505.32812 416.16495 507.53125 418.52432Q509.73438 420.86807 509.73438 424.60245Q509.73438 428.55557 507.40625 430.9462Q505.09375 433.33682 501.45312 433.33682Q497.5625 433.33682 495.04688 430.30557Q492.53125 427.27432 492.53125 420.36807Q492.53125 413.27432 495.14062 410.14932Q497.76562 407.02432 501.95312 407.02432Q504.89062 407.02432 506.8125 408.66495Q508.73438 410.30557 509.26562 413.4462ZM498.0625 424.21182Q498.0625 426.61807 499.17188 427.93057Q500.28125 429.24307 501.70312 429.24307Q503.07812 429.24307 503.98438 428.18057Q504.90625 427.10245 504.90625 424.64932Q504.90625 422.1337 503.92188 420.97745Q502.9375 419.80557 501.45312 419.80557Q500.03125 419.80557 499.04688 420.93057Q498.0625 422.03995 498.0625 424.21182ZM516.7656 418.99307Q514.84375 418.18057 513.96875 416.77432Q513.1094 415.35245 513.1094 413.66495Q513.1094 410.78995 515.125 408.91495Q517.1406 407.02432 520.84375 407.02432Q524.5156 407.02432 526.5469 408.91495Q528.5781 410.78995 528.5781 413.66495Q528.5781 415.46182 527.6406 416.86807Q526.71875 418.2587 525.03125 418.99307Q527.1719 419.85245 528.28125 421.5087Q529.40625 423.16495 529.40625 425.3212Q529.40625 428.8837 527.125 431.11807Q524.8594 433.35245 521.0781 433.35245Q517.5625 433.35245 515.21875 431.5087Q512.4531 429.33682 512.4531 425.53995Q512.4531 423.4462 513.4844 421.6962Q514.53125 419.9462 516.7656 418.99307ZM517.78125 414.02432Q517.78125 415.49307 518.6094 416.3212Q519.4531 417.14932 520.84375 417.14932Q522.25 417.14932 523.09375 416.3212Q523.9375 415.47745 523.9375 414.0087Q523.9375 412.61807 523.09375 411.78995Q522.2656 410.9462 520.8906 410.9462Q519.46875 410.9462 518.625 411.78995Q517.78125 412.6337 517.78125 414.02432ZM517.3281 425.05557Q517.3281 427.10245 518.375 428.24307Q519.4219 429.3837 520.9844 429.3837Q522.5156 429.3837 523.5156 428.28995Q524.5156 427.18057 524.5156 425.11807Q524.5156 423.30557 523.5 422.21182Q522.4844 421.10245 520.9219 421.10245Q519.1094 421.10245 518.21875 422.35245Q517.3281 423.60245 517.3281 425.05557Z" fill-rule="nonzero"/><path fill="#4285f4" d="M509.26562 413.4462L504.48438 413.96182Q504.3125 412.49307 503.5625 411.78995Q502.82812 411.08682 501.65625 411.08682Q500.09375 411.08682 499.0 412.49307Q497.92188 413.89932 497.64062 418.33682Q499.48438 416.16495 502.23438 416.16495Q505.32812 416.16495 507.53125 418.52432Q509.73438 420.86807 509.73438 424.60245Q509.73438 428.55557 507.40625 430.9462Q505.09375 433.33682 501.45312 433.33682Q497.5625 433.33682 495.04688 430.30557Q492.53125 427.27432 492.53125 420.36807Q492.53125 413.27432 495.14062 410.14932Q497.76562 407.02432 501.95312 407.02432Q504.89062 407.02432 506.8125 408.66495Q508.73438 410.30557 509.26562 413.4462ZM498.0625 424.21182Q498.0625 426.61807 499.17188 427.93057Q500.28125 429.24307 501.70312 429.24307Q503.07812 429.24307 503.98438 428.18057Q504.90625 427.10245 504.90625 424.64932Q504.90625 422.1337 503.92188 420.97745Q502.9375 419.80557 501.45312 419.80557Q500.03125 419.80557 499.04688 420.93057Q498.0625 422.03995 498.0625 424.21182ZM516.7656 418.99307Q514.84375 418.18057 513.96875 416.77432Q513.1094 415.35245 513.1094 413.66495Q513.1094 410.78995 515.125 408.91495Q517.1406 407.02432 520.84375 407.02432Q524.5156 407.02432 526.5469 408.91495Q528.5781 410.78995 528.5781 413.66495Q528.5781 415.46182 527.6406 416.86807Q526.71875 418.2587 525.03125 418.99307Q527.1719 419.85245 528.28125 421.5087Q529.40625 423.16495 529.40625 425.3212Q529.40625 428.8837 527.125 431.11807Q524.8594 433.35245 521.0781 433.35245Q517.5625 433.35245 515.21875 431.5087Q512.4531 429.33682 512.4531 425.53995Q512.4531 423.4462 513.4844 421.6962Q514.53125 419.9462 516.7656 418.99307ZM517.78125 414.02432Q517.78125 415.49307 518.6094 416.3212Q519.4531 417.14932 520.84375 417.14932Q522.25 417.14932 523.09375 416.3212Q523.9375 415.47745 523.9375 414.0087Q523.9375 412.61807 523.09375 411.78995Q522.2656 410.9462 520.8906 410.9462Q519.46875 410.9462 518.625 411.78995Q517.78125 412.6337 517.78125 414.02432ZM517.3281 425.05557Q517.3281 427.10245 518.375 428.24307Q519.4219 429.3837 520.9844 429.3837Q522.5156 429.3837 523.5156 428.28995Q524.5156 427.18057 524.5156 425.11807Q524.5156 423.30557 523.5 422.21182Q522.4844 421.10245 520.9219 421.10245Q519.1094 421.10245 518.21875 422.35245Q517.3281 423.60245 517.3281 425.05557Z" fill-rule="nonzero"/><path stroke="#ffffff" stroke-width="3.0" stroke-linejoin="round" stroke-linecap="round" d="M648.1719 245.302L643.2344 245.302L643.2344 226.69263Q640.5156 229.22388 636.84375 230.427L636.84375 225.94263Q638.78125 225.31763 641.0469 223.552Q643.3125 221.78638 644.15625 219.427L648.1719 219.427L648.1719 245.302ZM655.53125 224.47388L655.53125 219.88013L672.4219 219.88013L672.4219 223.47388Q670.3281 225.52075 668.15625 229.38013Q666.0 233.22388 664.8594 237.56763Q663.7344 241.89575 663.75 245.302L659.0 245.302Q659.1094 239.95825 661.1875 234.41138Q663.28125 228.84888 666.7656 224.47388L655.53125 224.47388ZM688.1719 245.302L683.2344 245.302L683.2344 226.69263Q680.5156 229.22388 676.84375 230.427L676.84375 225.94263Q678.78125 225.31763 681.0469 223.552Q683.3125 221.78638 684.15625 219.427L688.1719 219.427L688.1719 245.302Z" fill-rule="nonzero"/><path fill="#4285f4" d="M648.1719 245.302L643.2344 245.302L643.2344 226.69263Q640.5156 229.22388 636.84375 230.427L636.84375 225.94263Q638.78125 225.31763 641.0469 223.552Q643.3125 221.78638 644.15625 219.427L648.1719 219.427L648.1719 245.302ZM655.53125 224.47388L655.53125 219.88013L672.4219 219.88013L672.4219 223.47388Q670.3281 225.52075 668.15625 229.38013Q666.0 233.22388 664.8594 237.56763Q663.7344 241.89575 663.75 245.302L659.0 245.302Q659.1094 239.95825 661.1875 234.41138Q663.28125 228.84888 666.7656 224.47388L655.53125 224.47388ZM688.1719 245.302L683.2344 245.302L683.2344 226.69263Q680.5156 229.22388 676.84375 230.427L676.84375 225.94263Q678.78125 225.31763 681.0469 223.552Q683.3125 221.78638 684.15625 219.427L688.1719 219.427L688.1719 245.302Z" fill-rule="nonzero"/><path fill="#000000" d="M76.484375 589.6875Q79.609375 589.6875 81.359375 591.90625Q83.453125 594.5469 83.453125 600.65625Q83.453125 606.75 81.34375 609.4219Q79.609375 611.6094 76.484375 611.6094Q73.34375 611.6094 71.421875 609.2031Q69.515625 606.7969 69.515625 600.6094Q69.515625 594.5469 71.625 591.8906Q73.359375 589.6875 76.484375 589.6875ZM76.484375 593.09375Q75.734375 593.09375 75.140625 593.5781Q74.5625 594.0469 74.234375 595.28125Q73.8125 596.875 73.8125 600.65625Q73.8125 604.4375 74.1875 605.8594Q74.578125 607.2656 75.15625 607.7344Q75.734375 608.2031 76.484375 608.2031Q77.234375 608.2031 77.8125 607.7344Q78.40625 607.25 78.71875 606.0156Q79.15625 604.4375 79.15625 600.65625Q79.15625 596.875 78.765625 595.46875Q78.390625 594.0469 77.8125 593.5781Q77.234375 593.09375 76.484375 593.09375Z" fill-rule="nonzero"/><path fill="#000000" d="M52.578125 514.6677L56.6875 514.2302Q56.859375 515.62085 57.71875 516.43335Q58.59375 517.24585 59.71875 517.24585Q61.0 517.24585 61.890625 516.199Q62.796875 515.1521 62.796875 513.0427Q62.796875 511.07397 61.90625 510.0896Q61.015625 509.0896 59.59375 509.0896Q57.828125 509.0896 56.421875 510.66772L53.078125 510.18335L55.1875 498.99585L66.078125 498.99585L66.078125 502.85522L58.3125 502.85522L57.671875 506.49585Q59.046875 505.80835 60.484375 505.80835Q63.21875 505.80835 65.125 507.80835Q67.03125 509.79272 67.03125 512.9802Q67.03125 515.62085 65.484375 517.7146Q63.390625 520.5427 59.671875 520.5427Q56.703125 520.5427 54.828125 518.949Q52.953125 517.3552 52.578125 514.6677ZM76.484375 498.62085Q79.609375 498.62085 81.359375 500.8396Q83.453125 503.48022 83.453125 509.5896Q83.453125 515.68335 81.34375 518.3552Q79.609375 520.5427 76.484375 520.5427Q73.34375 520.5427 71.421875 518.1365Q69.515625 515.7302 69.515625 509.54272Q69.515625 503.48022 71.625 500.82397Q73.359375 498.62085 76.484375 498.62085ZM76.484375 502.0271Q75.734375 502.0271 75.140625 502.51147Q74.5625 502.98022 74.234375 504.2146Q73.8125 505.80835 73.8125 509.5896Q73.8125 513.37085 74.1875 514.7927Q74.578125 516.199 75.15625 516.6677Q75.734375 517.1365 76.484375 517.1365Q77.234375 517.1365 77.8125 516.6677Q78.40625 516.18335 78.71875 514.949Q79.15625 513.37085 79.15625 509.5896Q79.15625 505.80835 78.765625 504.4021Q78.390625 502.98022 77.8125 502.51147Q77.234375 502.0271 76.484375 502.0271Z" fill-rule="nonzero"/><path fill="#000000" d="M46.0625 429.11667L41.9375 429.11667L41.9375 413.60104Q39.6875 415.71042 36.625 416.72604L36.625 412.99167Q38.234375 412.46042 40.125 410.99167Q42.015625 409.52292 42.71875 407.55417L46.0625 407.55417L46.0625 429.11667ZM59.484375 407.55417Q62.609375 407.55417 64.359375 409.77292Q66.453125 412.41354 66.453125 418.52292Q66.453125 424.61667 64.34375 427.28854Q62.609375 429.47604 59.484375 429.47604Q56.34375 429.47604 54.421875 427.0698Q52.515625 424.66354 52.515625 418.47604Q52.515625 412.41354 54.625 409.7573Q56.359375 407.55417 59.484375 407.55417ZM59.484375 410.96042Q58.734375 410.96042 58.140625 411.4448Q57.5625 411.91354 57.234375 413.14792Q56.8125 414.74167 56.8125 418.52292Q56.8125 422.30417 57.1875 423.72604Q57.578125 425.1323 58.15625 425.60104Q58.734375 426.0698 59.484375 426.0698Q60.234375 426.0698 60.8125 425.60104Q61.40625 425.11667 61.71875 423.8823Q62.15625 422.30417 62.15625 418.52292Q62.15625 414.74167 61.765625 413.33542Q61.390625 411.91354 60.8125 411.4448Q60.234375 410.96042 59.484375 410.96042ZM76.484375 407.55417Q79.609375 407.55417 81.359375 409.77292Q83.453125 412.41354 83.453125 418.52292Q83.453125 424.61667 81.34375 427.28854Q79.609375 429.47604 76.484375 429.47604Q73.34375 429.47604 71.421875 427.0698Q69.515625 424.66354 69.515625 418.47604Q69.515625 412.41354 71.625 409.7573Q73.359375 407.55417 76.484375 407.55417ZM76.484375 410.96042Q75.734375 410.96042 75.140625 411.4448Q74.5625 411.91354 74.234375 413.14792Q73.8125 414.74167 73.8125 418.52292Q73.8125 422.30417 74.1875 423.72604Q74.578125 425.1323 75.15625 425.60104Q75.734375 426.0698 76.484375 426.0698Q77.234375 426.0698 77.8125 425.60104Q78.40625 425.11667 78.71875 423.8823Q79.15625 422.30417 79.15625 418.52292Q79.15625 414.74167 78.765625 413.33542Q78.390625 411.91354 77.8125 411.4448Q77.234375 410.96042 76.484375 410.96042Z" fill-rule="nonzero"/><path fill="#000000" d="M46.0625 338.05L41.9375 338.05L41.9375 322.53436Q39.6875 324.64374 36.625 325.65936L36.625 321.925Q38.234375 321.39374 40.125 319.925Q42.015625 318.45624 42.71875 316.4875L46.0625 316.4875L46.0625 338.05ZM52.578125 332.53436L56.6875 332.09686Q56.859375 333.4875 57.71875 334.3Q58.59375 335.1125 59.71875 335.1125Q61.0 335.1125 61.890625 334.0656Q62.796875 333.01874 62.796875 330.90936Q62.796875 328.9406 61.90625 327.95624Q61.015625 326.95624 59.59375 326.95624Q57.828125 326.95624 56.421875 328.53436L53.078125 328.05L55.1875 316.8625L66.078125 316.8625L66.078125 320.72186L58.3125 320.72186L57.671875 324.3625Q59.046875 323.675 60.484375 323.675Q63.21875 323.675 65.125 325.675Q67.03125 327.65936 67.03125 330.84686Q67.03125 333.4875 65.484375 335.58124Q63.390625 338.40936 59.671875 338.40936Q56.703125 338.40936 54.828125 336.8156Q52.953125 335.22186 52.578125 332.53436ZM76.484375 316.4875Q79.609375 316.4875 81.359375 318.70624Q83.453125 321.34686 83.453125 327.45624Q83.453125 333.55 81.34375 336.22186Q79.609375 338.40936 76.484375 338.40936Q73.34375 338.40936 71.421875 336.0031Q69.515625 333.59686 69.515625 327.40936Q69.515625 321.34686 71.625 318.6906Q73.359375 316.4875 76.484375 316.4875ZM76.484375 319.89374Q75.734375 319.89374 75.140625 320.3781Q74.5625 320.84686 74.234375 322.08124Q73.8125 323.675 73.8125 327.45624Q73.8125 331.2375 74.1875 332.65936Q74.578125 334.0656 75.15625 334.53436Q75.734375 335.0031 76.484375 335.0031Q77.234375 335.0031 77.8125 334.53436Q78.40625 334.05 78.71875 332.8156Q79.15625 331.2375 79.15625 327.45624Q79.15625 323.675 78.765625 322.26874Q78.390625 320.84686 77.8125 320.3781Q77.234375 319.89374 76.484375 319.89374Z" fill-rule="nonzero"/><path fill="#000000" d="M49.421875 243.15521L49.421875 246.98334L35.0 246.98334Q35.234375 244.81146 36.40625 242.87396Q37.578125 240.93646 41.03125 237.71771Q43.8125 235.13959 44.453125 234.20209Q45.296875 232.93646 45.296875 231.68646Q45.296875 230.31146 44.546875 229.57709Q43.8125 228.82709 42.515625 228.82709Q41.21875 228.82709 40.453125 229.60834Q39.703125 230.38959 39.578125 232.18646L35.484375 231.78021Q35.84375 228.37396 37.78125 226.90521Q39.71875 225.42084 42.609375 225.42084Q45.796875 225.42084 47.609375 227.13959Q49.421875 228.84271 49.421875 231.38959Q49.421875 232.84271 48.90625 234.15521Q48.390625 235.46771 47.265625 236.90521Q46.515625 237.85834 44.5625 239.65521Q42.609375 241.43646 42.09375 242.03021Q41.578125 242.60834 41.25 243.15521L49.421875 243.15521ZM59.484375 225.42084Q62.609375 225.42084 64.359375 227.63959Q66.453125 230.28021 66.453125 236.38959Q66.453125 242.48334 64.34375 245.15521Q62.609375 247.34271 59.484375 247.34271Q56.34375 247.34271 54.421875 244.93646Q52.515625 242.53021 52.515625 236.34271Q52.515625 230.28021 54.625 227.62396Q56.359375 225.42084 59.484375 225.42084ZM59.484375 228.82709Q58.734375 228.82709 58.140625 229.31146Q57.5625 229.78021 57.234375 231.01459Q56.8125 232.60834 56.8125 236.38959Q56.8125 240.17084 57.1875 241.59271Q57.578125 242.99896 58.15625 243.46771Q58.734375 243.93646 59.484375 243.93646Q60.234375 243.93646 60.8125 243.46771Q61.40625 242.98334 61.71875 241.74896Q62.15625 240.17084 62.15625 236.38959Q62.15625 232.60834 61.765625 231.20209Q61.390625 229.78021 60.8125 229.31146Q60.234375 228.82709 59.484375 228.82709ZM76.484375 225.42084Q79.609375 225.42084 81.359375 227.63959Q83.453125 230.28021 83.453125 236.38959Q83.453125 242.48334 81.34375 245.15521Q79.609375 247.34271 76.484375 247.34271Q73.34375 247.34271 71.421875 244.93646Q69.515625 242.53021 69.515625 236.34271Q69.515625 230.28021 71.625 227.62396Q73.359375 225.42084 76.484375 225.42084ZM76.484375 228.82709Q75.734375 228.82709 75.140625 229.31146Q74.5625 229.78021 74.234375 231.01459Q73.8125 232.60834 73.8125 236.38959Q73.8125 240.17084 74.1875 241.59271Q74.578125 242.99896 75.15625 243.46771Q75.734375 243.93646 76.484375 243.93646Q77.234375 243.93646 77.8125 243.46771Q78.40625 242.98334 78.71875 241.74896Q79.15625 240.17084 79.15625 236.38959Q79.15625 232.60834 78.765625 231.20209Q78.390625 229.78021 77.8125 229.31146Q77.234375 228.82709 76.484375 228.82709Z" fill-rule="nonzero"/><path fill="#000000" d="M49.421875 152.08855L49.421875 155.91667L35.0 155.91667Q35.234375 153.7448 36.40625 151.8073Q37.578125 149.8698 41.03125 146.65105Q43.8125 144.07292 44.453125 143.13542Q45.296875 141.8698 45.296875 140.6198Q45.296875 139.2448 44.546875 138.51042Q43.8125 137.76042 42.515625 137.76042Q41.21875 137.76042 40.453125 138.54167Q39.703125 139.32292 39.578125 141.1198L35.484375 140.71355Q35.84375 137.3073 37.78125 135.83855Q39.71875 134.35417 42.609375 134.35417Q45.796875 134.35417 47.609375 136.07292Q49.421875 137.77605 49.421875 140.32292Q49.421875 141.77605 48.90625 143.08855Q48.390625 144.40105 47.265625 145.83855Q46.515625 146.79167 44.5625 148.58855Q42.609375 150.3698 42.09375 150.96355Q41.578125 151.54167 41.25 152.08855L49.421875 152.08855ZM52.578125 150.40105L56.6875 149.96355Q56.859375 151.35417 57.71875 152.16667Q58.59375 152.97917 59.71875 152.97917Q61.0 152.97917 61.890625 151.9323Q62.796875 150.88542 62.796875 148.77605Q62.796875 146.8073 61.90625 145.82292Q61.015625 144.82292 59.59375 144.82292Q57.828125 144.82292 56.421875 146.40105L53.078125 145.91667L55.1875 134.72917L66.078125 134.72917L66.078125 138.58855L58.3125 138.58855L57.671875 142.22917Q59.046875 141.54167 60.484375 141.54167Q63.21875 141.54167 65.125 143.54167Q67.03125 145.52605 67.03125 148.71355Q67.03125 151.35417 65.484375 153.44792Q63.390625 156.27605 59.671875 156.27605Q56.703125 156.27605 54.828125 154.6823Q52.953125 153.08855 52.578125 150.40105ZM76.484375 134.35417Q79.609375 134.35417 81.359375 136.57292Q83.453125 139.21355 83.453125 145.32292Q83.453125 151.41667 81.34375 154.08855Q79.609375 156.27605 76.484375 156.27605Q73.34375 156.27605 71.421875 153.8698Q69.515625 151.46355 69.515625 145.27605Q69.515625 139.21355 71.625 136.5573Q73.359375 134.35417 76.484375 134.35417ZM76.484375 137.76042Q75.734375 137.76042 75.140625 138.2448Q74.5625 138.71355 74.234375 139.94792Q73.8125 141.54167 73.8125 145.32292Q73.8125 149.10417 74.1875 150.52605Q74.578125 151.9323 75.15625 152.40105Q75.734375 152.8698 76.484375 152.8698Q77.234375 152.8698 77.8125 152.40105Q78.40625 151.91667 78.71875 150.6823Q79.15625 149.10417 79.15625 145.32292Q79.15625 141.54167 78.765625 140.13542Q78.390625 138.71355 77.8125 138.2448Q77.234375 137.76042 76.484375 137.76042Z" fill-rule="nonzero"/><path fill="#000000" d="M169.49947 639.9219L169.49947 643.75L155.07759 643.75Q155.31197 641.5781 156.48384 639.6406Q157.65572 637.7031 161.10884 634.4844Q163.89009 631.90625 164.53072 630.96875Q165.37447 629.7031 165.37447 628.4531Q165.37447 627.0781 164.62447 626.34375Q163.89009 625.59375 162.59322 625.59375Q161.29634 625.59375 160.53072 626.375Q159.78072 627.15625 159.65572 628.9531L155.56197 628.5469Q155.92134 625.1406 157.85884 623.6719Q159.79634 622.1875 162.68697 622.1875Q165.87447 622.1875 167.68697 623.90625Q169.49947 625.6094 169.49947 628.15625Q169.49947 629.6094 168.98384 630.9219Q168.46822 632.2344 167.34322 633.6719Q166.59322 634.625 164.64009 636.4219Q162.68697 638.2031 162.17134 638.7969Q161.65572 639.375 161.32759 639.9219L169.49947 639.9219ZM179.56197 622.1875Q182.68697 622.1875 184.43697 624.40625Q186.53072 627.0469 186.53072 633.15625Q186.53072 639.25 184.42134 641.9219Q182.68697 644.1094 179.56197 644.1094Q176.42134 644.1094 174.49947 641.7031Q172.59322 639.2969 172.59322 633.1094Q172.59322 627.0469 174.70259 624.3906Q176.43697 622.1875 179.56197 622.1875ZM179.56197 625.59375Q178.81197 625.59375 178.21822 626.0781Q177.64009 626.5469 177.31197 627.78125Q176.89009 629.375 176.89009 633.15625Q176.89009 636.9375 177.26509 638.3594Q177.65572 639.7656 178.23384 640.2344Q178.81197 640.7031 179.56197 640.7031Q180.31197 640.7031 180.89009 640.2344Q181.48384 639.75 181.79634 638.5156Q182.23384 636.9375 182.23384 633.15625Q182.23384 629.375 181.84322 627.96875Q181.46822 626.5469 180.89009 626.0781Q180.31197 625.59375 179.56197 625.59375ZM200.14009 643.75L196.01509 643.75L196.01509 628.2344Q193.76509 630.34375 190.70259 631.3594L190.70259 627.625Q192.31197 627.09375 194.20259 625.625Q196.09322 624.15625 196.79634 622.1875L200.14009 622.1875L200.14009 643.75ZM206.68697 638.78125L210.67134 638.34375Q210.82759 639.5625 211.43697 640.15625Q212.04634 640.7344 213.06197 640.7344Q214.34322 640.7344 215.23384 639.5625Q216.12447 638.3906 216.37447 634.7031Q214.82759 636.5 212.48384 636.5Q209.95259 636.5 208.10884 634.5469Q206.28072 632.59375 206.28072 629.4531Q206.28072 626.1875 208.21822 624.1875Q210.15572 622.1875 213.17134 622.1875Q216.43697 622.1875 218.53072 624.71875Q220.62447 627.2344 220.62447 633.03125Q220.62447 638.9219 218.43697 641.53125Q216.24947 644.125 212.74947 644.125Q210.23384 644.125 208.67134 642.7969Q207.12447 641.4531 206.68697 638.78125ZM215.99947 629.7969Q215.99947 627.7969 215.07759 626.7031Q214.17134 625.59375 212.96822 625.59375Q211.82759 625.59375 211.07759 626.5Q210.32759 627.40625 210.32759 629.4531Q210.32759 631.53125 211.14009 632.5156Q211.96822 633.4844 213.18697 633.4844Q214.37447 633.4844 215.18697 632.5469Q215.99947 631.6094 215.99947 629.7969Z" fill-rule="nonzero"/><path fill="#000000" d="M232.68697 625.46875Q230.59322 629.125 226.71822 632.15625L224.29634 629.0469Q229.43697 625.28125 231.31197 618.21875L234.76509 619.125Q236.23384 620.6094 234.53072 620.84375L234.07759 621.9844L250.29634 621.9844L250.29634 625.46875L241.74947 625.46875L241.74947 628.2031L248.78072 628.2031L248.78072 631.6719L241.74947 631.6719L241.74947 635.7031L251.59322 635.7031L251.59322 639.1719L241.74947 639.1719L241.74947 646.21875L238.15572 646.21875L238.15572 639.1719L224.67134 639.1719L224.67134 635.7031L229.95259 635.7031L229.95259 628.2031L238.15572 628.2031L238.15572 625.46875L232.68697 625.46875ZM233.54634 635.7031L238.15572 635.7031L238.15572 631.6719L233.54634 631.6719L233.54634 635.7031Z" fill-rule="nonzero"/><path fill="#000000" d="M322.94772 639.9219L322.94772 643.75L308.52585 643.75Q308.76022 641.5781 309.9321 639.6406Q311.10397 637.7031 314.5571 634.4844Q317.33835 631.90625 317.97897 630.96875Q318.82272 629.7031 318.82272 628.4531Q318.82272 627.0781 318.07272 626.34375Q317.33835 625.59375 316.04147 625.59375Q314.7446 625.59375 313.97897 626.375Q313.22897 627.15625 313.10397 628.9531L309.01022 628.5469Q309.3696 625.1406 311.3071 623.6719Q313.2446 622.1875 316.13522 622.1875Q319.32272 622.1875 321.13522 623.90625Q322.94772 625.6094 322.94772 628.15625Q322.94772 629.6094 322.4321 630.9219Q321.91647 632.2344 320.79147 633.6719Q320.04147 634.625 318.08835 636.4219Q316.13522 638.2031 315.6196 638.7969Q315.10397 639.375 314.77585 639.9219L322.94772 639.9219ZM333.01022 622.1875Q336.13522 622.1875 337.88522 624.40625Q339.97897 627.0469 339.97897 633.15625Q339.97897 639.25 337.8696 641.9219Q336.13522 644.1094 333.01022 644.1094Q329.8696 644.1094 327.94772 641.7031Q326.04147 639.2969 326.04147 633.1094Q326.04147 627.0469 328.15085 624.3906Q329.88522 622.1875 333.01022 622.1875ZM333.01022 625.59375Q332.26022 625.59375 331.66647 626.0781Q331.08835 626.5469 330.76022 627.78125Q330.33835 629.375 330.33835 633.15625Q330.33835 636.9375 330.71335 638.3594Q331.10397 639.7656 331.6821 640.2344Q332.26022 640.7031 333.01022 640.7031Q333.76022 640.7031 334.33835 640.2344Q334.9321 639.75 335.2446 638.5156Q335.6821 636.9375 335.6821 633.15625Q335.6821 629.375 335.29147 627.96875Q334.91647 626.5469 334.33835 626.0781Q333.76022 625.59375 333.01022 625.59375ZM356.94772 639.9219L356.94772 643.75L342.52585 643.75Q342.76022 641.5781 343.9321 639.6406Q345.10397 637.7031 348.5571 634.4844Q351.33835 631.90625 351.97897 630.96875Q352.82272 629.7031 352.82272 628.4531Q352.82272 627.0781 352.07272 626.34375Q351.33835 625.59375 350.04147 625.59375Q348.7446 625.59375 347.97897 626.375Q347.22897 627.15625 347.10397 628.9531L343.01022 628.5469Q343.3696 625.1406 345.3071 623.6719Q347.2446 622.1875 350.13522 622.1875Q353.32272 622.1875 355.13522 623.90625Q356.94772 625.6094 356.94772 628.15625Q356.94772 629.6094 356.4321 630.9219Q355.91647 632.2344 354.79147 633.6719Q354.04147 634.625 352.08835 636.4219Q350.13522 638.2031 349.6196 638.7969Q349.10397 639.375 348.77585 639.9219L356.94772 639.9219ZM367.01022 622.1875Q370.13522 622.1875 371.88522 624.40625Q373.97897 627.0469 373.97897 633.15625Q373.97897 639.25 371.8696 641.9219Q370.13522 644.1094 367.01022 644.1094Q363.8696 644.1094 361.94772 641.7031Q360.04147 639.2969 360.04147 633.1094Q360.04147 627.0469 362.15085 624.3906Q363.88522 622.1875 367.01022 622.1875ZM367.01022 625.59375Q366.26022 625.59375 365.66647 626.0781Q365.08835 626.5469 364.76022 627.78125Q364.33835 629.375 364.33835 633.15625Q364.33835 636.9375 364.71335 638.3594Q365.10397 639.7656 365.6821 640.2344Q366.26022 640.7031 367.01022 640.7031Q367.76022 640.7031 368.33835 640.2344Q368.9321 639.75 369.2446 638.5156Q369.6821 636.9375 369.6821 633.15625Q369.6821 629.375 369.29147 627.96875Q368.91647 626.5469 368.33835 626.0781Q367.76022 625.59375 367.01022 625.59375Z" fill-rule="nonzero"/><path fill="#000000" d="M386.13522 625.46875Q384.04147 629.125 380.16647 632.15625L377.7446 629.0469Q382.88522 625.28125 384.76022 618.21875L388.21335 619.125Q389.6821 620.6094 387.97897 620.84375L387.52585 621.9844L403.7446 621.9844L403.7446 625.46875L395.19772 625.46875L395.19772 628.2031L402.22897 628.2031L402.22897 631.6719L395.19772 631.6719L395.19772 635.7031L405.04147 635.7031L405.04147 639.1719L395.19772 639.1719L395.19772 646.21875L391.60397 646.21875L391.60397 639.1719L378.1196 639.1719L378.1196 635.7031L383.40085 635.7031L383.40085 628.2031L391.60397 628.2031L391.60397 625.46875L386.13522 625.46875ZM386.9946 635.7031L391.60397 635.7031L391.60397 631.6719L386.9946 631.6719L386.9946 635.7031Z" fill-rule="nonzero"/><path fill="#000000" d="M476.39603 639.9219L476.39603 643.75L461.97415 643.75Q462.20853 641.5781 463.3804 639.6406Q464.55228 637.7031 468.0054 634.4844Q470.78665 631.90625 471.42728 630.96875Q472.27103 629.7031 472.27103 628.4531Q472.27103 627.0781 471.52103 626.34375Q470.78665 625.59375 469.48978 625.59375Q468.1929 625.59375 467.42728 626.375Q466.67728 627.15625 466.55228 628.9531L462.45853 628.5469Q462.8179 625.1406 464.7554 623.6719Q466.6929 622.1875 469.58353 622.1875Q472.77103 622.1875 474.58353 623.90625Q476.39603 625.6094 476.39603 628.15625Q476.39603 629.6094 475.8804 630.9219Q475.36478 632.2344 474.23978 633.6719Q473.48978 634.625 471.53665 636.4219Q469.58353 638.2031 469.0679 638.7969Q468.55228 639.375 468.22415 639.9219L476.39603 639.9219ZM486.45853 622.1875Q489.58353 622.1875 491.33353 624.40625Q493.42728 627.0469 493.42728 633.15625Q493.42728 639.25 491.3179 641.9219Q489.58353 644.1094 486.45853 644.1094Q483.3179 644.1094 481.39603 641.7031Q479.48978 639.2969 479.48978 633.1094Q479.48978 627.0469 481.59915 624.3906Q483.33353 622.1875 486.45853 622.1875ZM486.45853 625.59375Q485.70853 625.59375 485.11478 626.0781Q484.53665 626.5469 484.20853 627.78125Q483.78665 629.375 483.78665 633.15625Q483.78665 636.9375 484.16165 638.3594Q484.55228 639.7656 485.1304 640.2344Q485.70853 640.7031 486.45853 640.7031Q487.20853 640.7031 487.78665 640.2344Q488.3804 639.75 488.6929 638.5156Q489.1304 636.9375 489.1304 633.15625Q489.1304 629.375 488.73978 627.96875Q488.36478 626.5469 487.78665 626.0781Q487.20853 625.59375 486.45853 625.59375ZM510.39603 639.9219L510.39603 643.75L495.97415 643.75Q496.20853 641.5781 497.3804 639.6406Q498.55228 637.7031 502.0054 634.4844Q504.78665 631.90625 505.42728 630.96875Q506.27103 629.7031 506.27103 628.4531Q506.27103 627.0781 505.52103 626.34375Q504.78665 625.59375 503.48978 625.59375Q502.1929 625.59375 501.42728 626.375Q500.67728 627.15625 500.55228 628.9531L496.45853 628.5469Q496.8179 625.1406 498.7554 623.6719Q500.6929 622.1875 503.58353 622.1875Q506.77103 622.1875 508.58353 623.90625Q510.39603 625.6094 510.39603 628.15625Q510.39603 629.6094 509.8804 630.9219Q509.36478 632.2344 508.23978 633.6719Q507.48978 634.625 505.53665 636.4219Q503.58353 638.2031 503.0679 638.7969Q502.55228 639.375 502.22415 639.9219L510.39603 639.9219ZM524.0366 643.75L519.9116 643.75L519.9116 628.2344Q517.6616 630.34375 514.5991 631.3594L514.5991 627.625Q516.2085 627.09375 518.0991 625.625Q519.98975 624.15625 520.6929 622.1875L524.0366 622.1875L524.0366 643.75Z" fill-rule="nonzero"/><path fill="#000000" d="M539.5835 625.46875Q537.48975 629.125 533.61475 632.15625L531.1929 629.0469Q536.3335 625.28125 538.2085 618.21875L541.6616 619.125Q543.1304 620.6094 541.42725 620.84375L540.9741 621.9844L557.1929 621.9844L557.1929 625.46875L548.646 625.46875L548.646 628.2031L555.67725 628.2031L555.67725 631.6719L548.646 631.6719L548.646 635.7031L558.48975 635.7031L558.48975 639.1719L548.646 639.1719L548.646 646.21875L545.05225 646.21875L545.05225 639.1719L531.5679 639.1719L531.5679 635.7031L536.8491 635.7031L536.8491 628.2031L545.05225 628.2031L545.05225 625.46875L539.5835 625.46875ZM540.4429 635.7031L545.05225 635.7031L545.05225 631.6719L540.4429 631.6719L540.4429 635.7031Z" fill-rule="nonzero"/><path fill="#000000" d="M629.8443 639.9219L629.8443 643.75L615.4224 643.75Q615.6568 641.5781 616.8287 639.6406Q618.00055 637.7031 621.4537 634.4844Q624.2349 631.90625 624.87555 630.96875Q625.7193 629.7031 625.7193 628.4531Q625.7193 627.0781 624.9693 626.34375Q624.2349 625.59375 622.93805 625.59375Q621.6412 625.59375 620.87555 626.375Q620.12555 627.15625 620.00055 628.9531L615.9068 628.5469Q616.2662 625.1406 618.2037 623.6719Q620.1412 622.1875 623.0318 622.1875Q626.2193 622.1875 628.0318 623.90625Q629.8443 625.6094 629.8443 628.15625Q629.8443 629.6094 629.3287 630.9219Q628.81305 632.2344 627.68805 633.6719Q626.93805 634.625 624.9849 636.4219Q623.0318 638.2031 622.5162 638.7969Q622.00055 639.375 621.6724 639.9219L629.8443 639.9219ZM639.9068 622.1875Q643.0318 622.1875 644.7818 624.40625Q646.87555 627.0469 646.87555 633.15625Q646.87555 639.25 644.7662 641.9219Q643.0318 644.1094 639.9068 644.1094Q636.7662 644.1094 634.8443 641.7031Q632.93805 639.2969 632.93805 633.1094Q632.93805 627.0469 635.0474 624.3906Q636.7818 622.1875 639.9068 622.1875ZM639.9068 625.59375Q639.1568 625.59375 638.56305 626.0781Q637.9849 626.5469 637.6568 627.78125Q637.2349 629.375 637.2349 633.15625Q637.2349 636.9375 637.6099 638.3594Q638.00055 639.7656 638.5787 640.2344Q639.1568 640.7031 639.9068 640.7031Q640.6568 640.7031 641.2349 640.2344Q641.8287 639.75 642.1412 638.5156Q642.5787 636.9375 642.5787 633.15625Q642.5787 629.375 642.18805 627.96875Q641.81305 626.5469 641.2349 626.0781Q640.6568 625.59375 639.9068 625.59375ZM663.8443 639.9219L663.8443 643.75L649.4224 643.75Q649.6568 641.5781 650.8287 639.6406Q652.00055 637.7031 655.4537 634.4844Q658.2349 631.90625 658.87555 630.96875Q659.7193 629.7031 659.7193 628.4531Q659.7193 627.0781 658.9693 626.34375Q658.2349 625.59375 656.93805 625.59375Q655.6412 625.59375 654.87555 626.375Q654.12555 627.15625 654.00055 628.9531L649.9068 628.5469Q650.2662 625.1406 652.2037 623.6719Q654.1412 622.1875 657.0318 622.1875Q660.2193 622.1875 662.0318 623.90625Q663.8443 625.6094 663.8443 628.15625Q663.8443 629.6094 663.3287 630.9219Q662.81305 632.2344 661.68805 633.6719Q660.93805 634.625 658.9849 636.4219Q657.0318 638.2031 656.5162 638.7969Q656.00055 639.375 655.6724 639.9219L663.8443 639.9219ZM680.8443 639.9219L680.8443 643.75L666.4224 643.75Q666.6568 641.5781 667.8287 639.6406Q669.00055 637.7031 672.4537 634.4844Q675.2349 631.90625 675.87555 630.96875Q676.7193 629.7031 676.7193 628.4531Q676.7193 627.0781 675.9693 626.34375Q675.2349 625.59375 673.93805 625.59375Q672.6412 625.59375 671.87555 626.375Q671.12555 627.15625 671.00055 628.9531L666.9068 628.5469Q667.2662 625.1406 669.2037 623.6719Q671.1412 622.1875 674.0318 622.1875Q677.2193 622.1875 679.0318 623.90625Q680.8443 625.6094 680.8443 628.15625Q680.8443 629.6094 680.3287 630.9219Q679.81305 632.2344 678.68805 633.6719Q677.93805 634.625 675.9849 636.4219Q674.0318 638.2031 673.5162 638.7969Q673.00055 639.375 672.6724 639.9219L680.8443 639.9219Z" fill-rule="nonzero"/><path fill="#000000" d="M693.0318 625.46875Q690.93805 629.125 687.06305 632.15625L684.6412 629.0469Q689.7818 625.28125 691.6568 618.21875L695.1099 619.125Q696.5787 620.6094 694.87555 620.84375L694.4224 621.9844L710.6412 621.9844L710.6412 625.46875L702.0943 625.46875L702.0943 628.2031L709.12555 628.2031L709.12555 631.6719L702.0943 631.6719L702.0943 635.7031L711.93805 635.7031L711.93805 639.1719L702.0943 639.1719L702.0943 646.21875L698.50055 646.21875L698.50055 639.1719L685.0162 639.1719L685.0162 635.7031L690.2974 635.7031L690.2974 628.2031L698.50055 628.2031L698.50055 625.46875L693.0318 625.46875ZM693.8912 635.7031L698.50055 635.7031L698.50055 631.6719L693.8912 631.6719L693.8912 635.7031Z" fill-rule="nonzero"/><path fill="#f39800" d="M250.5 88.083336C250.5 87.53105 250.94771 87.083336 251.5 87.083336L261.5 87.083336C262.05228 87.083336 262.5 87.53105 262.5 88.083336L262.5 98.083336C262.5 98.63562 262.05228 99.083336 261.5 99.083336L251.5 99.083336C250.94771 99.083336 250.5 98.63562 250.5 98.083336Z" fill-rule="nonzero"/><path fill="#1a1a1a" d="M285.79688 89.28646Q284.3125 97.770836 275.57812 101.645836L273.5625 99.520836Q281.5625 96.25521 282.98438 89.302086L277.46875 89.302086Q275.75 92.13021 273.53125 94.177086L271.25 92.69271Q275.625 88.75521 276.85938 83.520836L279.10938 84.302086Q280.4375 84.958336 279.125 85.458336Q278.85938 86.31771 278.625 86.770836L283.45312 86.770836L284.34375 86.28646L285.95312 87.91146Q286.98438 88.927086 285.79688 89.28646ZM285.8125 87.677086Q284.35938 85.583336 282.84375 84.38021L284.5 82.97396Q286.125 84.395836 287.5625 86.31771L285.8125 87.677086ZM288.14062 86.770836Q286.625 84.88021 285.3125 83.677086L286.82812 82.16146Q288.3125 83.53646 289.65625 85.25521L288.14062 86.770836ZM302.03125 96.81771Q304.79688 95.75521 307.95312 91.41146L309.54688 93.583336Q306.34375 97.97396 301.71875 99.81771L300.875 100.22396L299.17188 98.958336L299.42188 98.34896L299.42188 85.44271L301.51562 85.44271Q303.04688 85.78646 302.03125 86.66146L302.03125 96.81771ZM290.5 99.583336Q294.65625 95.59896 294.65625 90.22396L294.65625 86.302086L296.75 86.302086Q298.28125 86.645836 297.26562 87.520836L297.26562 90.145836Q297.26562 96.88021 292.76562 101.052086L290.5 99.583336ZM310.4375 93.677086L310.4375 91.145836L328.67188 91.145836L328.67188 93.677086L310.4375 93.677086ZM343.90625 85.833336Q344.35938 85.833336 344.64062 85.56771Q344.90625 85.28646 344.90625 84.833336Q344.90625 84.38021 344.64062 84.09896Q344.35938 83.833336 343.90625 83.833336Q343.45312 83.833336 343.17188 84.09896Q342.90625 84.38021 342.90625 84.833336Q342.90625 85.28646 343.17188 85.56771Q343.45312 85.833336 343.90625 85.833336ZM343.90625 87.427086Q342.79688 87.427086 342.0625 86.677086Q341.3125 85.94271 341.3125 84.833336Q341.3125 83.72396 342.0625 82.989586Q342.79688 82.239586 343.90625 82.239586Q345.01562 82.239586 345.75 82.989586Q346.5 83.72396 346.5 84.833336Q346.5 85.94271 345.75 86.677086Q345.01562 87.427086 343.90625 87.427086ZM329.51562 88.44271L329.51562 85.91146L341.60938 85.91146L343.9375 87.59896Q343.51562 97.56771 332.67188 100.614586L330.67188 98.177086Q340.78125 95.833336 341.20312 88.44271L329.51562 88.44271ZM358.125 84.63021Q360.8125 88.00521 366.125 89.66146L365.01562 92.22396Q359.23438 90.09896 356.5 86.31771Q355.34375 88.708336 353.84375 89.739586L361.60938 89.739586L361.60938 92.03646L352.04688 92.03646L352.04688 91.09896Q351.26562 91.739586 349.04688 92.75521L347.45312 90.614586Q353.46875 87.81771 355.32812 83.19271L357.67188 83.645836Q359.3125 83.88021 358.125 84.63021ZM353.01562 101.645836L350.64062 101.645836L350.64062 93.09896L363.09375 93.09896L363.09375 101.41146L360.71875 101.41146L360.71875 100.552086L353.01562 100.552086L353.01562 101.645836ZM353.01562 98.25521L360.71875 98.25521L360.71875 95.395836L353.01562 95.395836L353.01562 98.25521ZM379.78125 89.50521L379.78125 83.25521L381.71875 83.25521Q383.60938 83.63021 382.15625 84.44271L382.15625 89.50521L386.14062 89.50521L386.14062 91.802086L382.15625 91.802086L382.15625 101.489586L379.78125 101.489586L379.78125 91.802086L375.5625 91.802086L375.5625 89.50521L379.78125 89.50521ZM375.75 101.25521L373.375 101.25521L373.375 100.47396L370.98438 100.47396L370.98438 101.56771L368.60938 101.56771L368.60938 94.34896L375.75 94.34896L375.75 101.25521ZM370.98438 96.41146L370.98438 98.41146L373.375 98.41146L373.375 96.41146L370.98438 96.41146ZM375.28125 91.69271L375.28125 93.989586L369.07812 93.989586L369.07812 91.69271L375.28125 91.69271ZM369.07812 89.114586L375.28125 89.114586L375.28125 91.41146L369.07812 91.41146L369.07812 89.114586ZM367.59375 86.53646L376.6875 86.53646L376.6875 88.833336L367.59375 88.833336L367.59375 86.53646ZM375.28125 83.72396L375.28125 86.020836L369.07812 86.020836L369.07812 83.72396L375.28125 83.72396Z" fill-rule="nonzero"/><path fill="#4285f4" d="M402.5 88.083336C402.5 87.53105 402.94772 87.083336 403.5 87.083336L413.5 87.083336C414.05228 87.083336 414.5 87.53105 414.5 88.083336L414.5 98.083336C414.5 98.63562 414.05228 99.083336 413.5 99.083336L403.5 99.083336C402.94772 99.083336 402.5 98.63562 402.5 98.083336Z" fill-rule="nonzero"/><path fill="#1a1a1a" d="M437.0625 86.53646L440.65625 86.53646L440.65625 89.06771L437.0625 89.06771L437.0625 90.677086L441.98438 90.677086L441.98438 93.208336L437.5 93.208336Q438.51562 95.00521 442.65625 97.489586L441.32812 100.052086Q437.84375 97.53646 437.0625 96.395836L437.0625 101.88021L434.6875 101.88021L434.6875 96.72396Q433.75 98.31771 430.42188 100.56771L429.17188 98.302086Q432.76562 95.802086 434.29688 93.208336L430.07812 93.208336L430.07812 90.677086L434.6875 90.677086L434.6875 89.06771L433.17188 89.06771Q432.78125 89.97396 431.59375 91.38021L429.76562 89.44271Q431.375 87.75521 432.3125 84.50521L434.29688 84.989586Q435.78125 85.739586 434.3125 86.114586L434.17188 86.53646L434.6875 86.53646L434.6875 83.020836L436.60938 83.020836Q438.28125 83.22396 437.0625 84.09896L437.0625 86.53646ZM428.70312 101.88021L426.32812 101.88021L426.32812 95.69271Q426.3125 95.75521 424.40625 97.84896L422.9375 95.47396Q425.5 92.833336 426.17188 89.38021L423.67188 89.38021L423.67188 86.84896L426.32812 86.84896L426.32812 83.020836L428.26562 83.020836Q429.92188 83.427086 428.70312 84.13021L428.70312 86.84896L430.89062 86.84896L430.89062 89.38021L428.70312 89.38021L428.70312 91.020836Q430.14062 91.958336 431.46875 93.66146L429.73438 95.84896Q428.59375 93.989586 428.67188 94.00521L428.70312 101.88021ZM457.79688 96.59896Q458.6875 98.25521 459.23438 98.25521Q459.23438 98.28646 459.21875 98.13021L459.4375 96.270836L461.95312 97.41146L461.59375 99.583336Q461.29688 101.25521 459.78125 101.25521Q457.1875 101.25521 455.4375 97.833336Q453.82812 94.69271 453.75 89.458336L444.14062 89.458336L444.14062 86.927086L453.67188 86.927086L453.67188 83.333336L455.84375 83.333336Q457.625 83.69271 456.28125 84.583336L456.28125 86.927086L461.75 86.927086L461.75 89.458336L456.3125 89.458336Q456.59375 94.41146 457.79688 96.59896ZM454.85938 98.50521Q450.09375 99.53646 445.90625 100.270836Q445.60938 101.59896 444.64062 100.239586L444.14062 97.739586Q446.53125 97.552086 448.04688 97.302086L448.04688 93.59896L444.92188 93.59896L444.92188 91.302086L453.46875 91.302086L453.46875 93.59896L450.42188 93.59896L450.42188 96.94271Q451.75 96.770836 454.48438 96.22396L454.85938 98.50521ZM457.92188 83.645836Q459.3125 84.333336 460.70312 85.63021L458.65625 87.333336Q457.65625 86.333336 455.95312 85.38021L457.92188 83.645836ZM475.60938 89.270836Q474.17188 88.489586 472.73438 86.020836Q471.32812 88.31771 470.01562 89.270836L475.60938 89.270836ZM481.125 91.78646Q479.39062 91.38021 477.76562 90.458336L477.76562 91.802086L468.125 91.802086L468.125 90.614586Q466.59375 91.69271 464.29688 92.364586L463.3125 89.708336Q469.03125 88.16146 471.75 83.145836L473.65625 83.41146Q475.3125 83.614586 474.25 84.395836Q476.4375 87.677086 482.21875 89.16146L481.125 91.78646ZM479.04688 101.78646Q478.23438 100.645836 477.53125 100.020836L466.53125 101.239586Q465.98438 101.770836 465.28125 101.25521L464.5625 98.677086L468.04688 98.50521L469.79688 95.31771L464.45312 95.31771L464.45312 92.78646L481.28125 92.78646L481.28125 95.31771L472.67188 95.31771L470.84375 98.34896L475.53125 98.00521Q475.21875 97.72396 473.53125 96.458336L475.65625 95.03646Q479.6875 98.052086 481.39062 100.333336L479.04688 101.78646ZM489.17188 86.614586L490.23438 86.614586L490.71875 86.13021L492.51562 87.927086L491.65625 88.552086Q490.75 90.28646 489.45312 91.895836Q490.90625 92.34896 492.71875 93.59896L491.48438 96.09896Q489.78125 94.708336 489.17188 94.34896L489.17188 101.802086L486.79688 101.802086L486.79688 94.56771Q486.03125 95.239586 484.125 96.34896L483.07812 94.03646Q487.0625 91.88021 488.76562 88.91146L483.90625 88.91146L483.90625 86.614586L486.79688 86.614586L486.79688 83.25521L488.71875 83.25521Q490.39062 83.458336 489.17188 84.333336L489.17188 86.614586ZM497.32812 83.72396Q499.10938 84.083336 497.76562 84.97396L497.76562 88.489586L501.35938 88.489586L501.35938 91.020836L497.76562 91.020836L497.76562 98.333336L502.0625 98.333336L502.0625 100.864586L490.54688 100.864586L490.54688 98.333336L495.15625 98.333336L495.15625 91.020836L491.79688 91.020836L491.79688 88.489586L495.15625 88.489586L495.15625 83.72396L497.32812 83.72396ZM517.7969 89.28646Q516.3125 97.770836 507.57812 101.645836L505.5625 99.520836Q513.5625 96.25521 514.9844 89.302086L509.46875 89.302086Q507.75 92.13021 505.53125 94.177086L503.25 92.69271Q507.625 88.75521 508.85938 83.520836L511.10938 84.302086Q512.4375 84.958336 511.125 85.458336Q510.85938 86.31771 510.625 86.770836L515.4531 86.770836L516.34375 86.28646L517.9531 87.91146Q518.9844 88.927086 517.7969 89.28646ZM531.4219 92.802086Q531.4219 98.91146 525.4844 101.72396L523.2344 99.802086Q528.7344 97.302086 528.8125 92.72396L528.8125 84.50521L530.90625 84.50521Q532.6094 84.84896 531.4219 85.739586L531.4219 92.802086ZM523.375 94.927086L520.7656 94.927086L520.7656 85.28646L522.90625 85.28646Q524.71875 85.47396 523.375 86.520836L523.375 94.927086ZM543.875 92.677086Q544.0 97.864586 538.28125 101.458336L536.3906 99.333336Q541.2344 96.708336 541.2344 92.41146L541.2344 88.645836L543.2969 88.645836Q544.9531 88.833336 543.84375 89.78646L543.84375 90.81771Q545.9531 89.239586 546.90625 87.927086L534.625 88.38021L534.40625 85.770836L549.0 85.364586L549.75 85.145836L551.09375 86.770836Q551.9219 87.84896 550.5781 87.69271Q548.34375 90.583336 544.75 93.489586L543.875 92.677086Z" fill-rule="nonzero"/><path fill="#757575" d="M652.7344 57.453125L650.8594 57.453125Q649.3594 55.203125 648.5781 52.78125Q647.7969 50.34375 647.7969 48.0625Q647.7969 45.234375 648.7656 42.71875Q649.6094 40.53125 650.8906 38.6875L652.7656 38.6875Q651.4219 41.640625 650.9219 43.71875Q650.4219 45.796875 650.4219 48.125Q650.4219 49.71875 650.71875 51.40625Q651.0156 53.078125 651.53125 54.59375Q651.875 55.59375 652.7344 57.453125Z" fill-rule="nonzero"/><path fill="#757575" d="M669.4375 40.09375L671.125 40.09375L671.125 48.953125L668.75 48.953125L668.75 48.484375L665.2656 48.484375L665.2656 49.3125L673.46875 49.3125L673.46875 51.609375L665.2656 51.609375L665.2656 54.890625L662.8906 54.890625L662.8906 51.609375L654.84375 51.609375L654.84375 49.3125L662.8906 49.3125L662.8906 48.484375L659.4844 48.484375L659.4844 49.109375L657.1094 49.109375L657.1094 40.09375L666.59375 40.09375L669.2031 36.109375L671.03125 37.359375Q672.34375 38.40625 670.7656 38.40625L669.4375 40.09375ZM663.625 36.3125Q665.4219 37.8125 666.1719 39.21875L664.0156 40.796875Q663.2031 39.265625 661.65625 37.8125L663.625 36.3125ZM662.8906 43.21875L662.8906 42.390625L659.4844 42.390625L659.4844 43.21875L662.8906 43.21875ZM668.75 43.21875L668.75 42.390625L665.2656 42.390625L665.2656 43.21875L668.75 43.21875ZM662.8906 46.1875L662.8906 45.515625L659.4844 45.515625L659.4844 46.1875L662.8906 46.1875ZM668.75 46.1875L668.75 45.515625L665.2656 45.515625L665.2656 46.1875L668.75 46.1875ZM659.0 40.84375Q658.2031 39.265625 656.8125 37.96875L658.7969 36.453125Q660.34375 37.90625 661.1719 39.46875L659.0 40.84375ZM690.9219 44.421875Q690.3281 47.5625 688.9531 51.265625L693.3906 51.265625L693.3906 53.5625L679.53125 53.5625L679.53125 51.265625L686.3594 51.265625Q687.6719 46.890625 688.4531 42.71875L690.8906 43.40625Q691.71875 43.953125 690.9219 44.421875ZM677.2656 54.8125L677.4219 45.46875Q677.53125 45.578125 675.90625 47.421875L674.4219 45.125Q677.6719 41.953125 678.4219 36.375L680.71875 37.078125Q682.0469 37.734375 680.75 38.234375Q680.1719 40.640625 679.4375 41.984375L679.59375 41.921875Q680.28125 42.609375 679.6406 43.0L679.6406 54.8125L677.2656 54.8125ZM683.6719 43.515625Q685.0156 46.390625 685.71875 49.828125L683.1406 50.71875Q682.4375 47.1875 681.1875 44.3125L683.6719 43.515625ZM692.53125 40.484375L692.53125 42.78125L680.3906 42.78125L680.3906 40.484375L685.15625 40.484375L685.15625 36.65625L687.0781 36.65625Q688.75 36.859375 687.53125 37.734375L687.53125 40.484375L692.53125 40.484375Z" fill-rule="nonzero"/><path fill="#757575" d="M695.71875 45.625L695.71875 42.875L698.4531 42.875L698.4531 45.625L695.71875 45.625ZM695.71875 53.25L695.71875 50.5L698.4531 50.5L698.4531 53.25L695.71875 53.25Z" fill-rule="nonzero"/><path fill="#757575" d="M720.2344 37.515625L720.2344 40.046875L712.5 40.046875L712.125 41.8125L718.2031 41.8125L718.2031 54.5L715.59375 54.5L715.59375 53.484375L706.9531 53.484375L706.9531 54.8125L704.34375 54.8125L704.34375 41.8125L709.40625 41.8125L709.7344 40.046875L702.0781 40.046875L702.0781 37.515625L720.2344 37.515625ZM706.9531 48.796875L706.9531 51.1875L715.59375 51.1875L715.59375 48.796875L706.9531 48.796875ZM715.59375 46.5L715.59375 44.109375L706.9531 44.109375L706.9531 46.5L715.59375 46.5ZM728.25 40.515625L722.46875 40.515625L722.46875 37.984375L740.0 37.984375L740.0 40.515625L730.8594 40.515625Q730.8594 41.765625 730.75 42.984375L738.59375 42.984375Q738.59375 48.609375 737.71875 51.625Q737.0156 54.1875 734.5156 54.1875L731.125 54.1875L730.6719 51.65625L733.96875 51.65625Q734.9844 51.65625 735.21875 50.859375Q735.8281 48.796875 735.8906 45.515625L730.3906 45.515625Q729.1719 51.3125 723.7656 54.234375L722.125 51.828125Q728.25 48.765625 728.25 41.4375L728.25 40.515625ZM758.9844 52.609375Q758.9844 54.265625 757.3281 54.265625L754.9844 54.265625L754.2969 51.734375L756.46875 51.734375Q756.46875 51.828125 756.375 51.828125L756.375 47.0L745.7031 47.0L745.7031 54.34375L743.09375 54.34375L743.09375 37.671875L758.9844 37.671875L758.9844 52.609375ZM756.375 39.96875L752.1875 39.96875L752.1875 44.703125L756.375 44.703125L756.375 39.96875ZM745.7031 39.96875L745.7031 44.703125L749.8125 44.703125L749.8125 39.96875L745.7031 39.96875Z" fill-rule="nonzero"/><path fill="#757575" d="M761.4219 57.453125Q762.2344 55.71875 762.5625 54.78125Q762.90625 53.859375 763.1875 52.65625Q763.46875 51.4375 763.59375 50.359375Q763.7344 49.265625 763.7344 48.125Q763.7344 45.796875 763.2344 43.71875Q762.75 41.640625 761.40625 38.6875L763.2656 38.6875Q764.75 40.78125 765.5625 43.140625Q766.375 45.5 766.375 47.921875Q766.375 49.953125 765.7344 52.296875Q765.0 54.90625 763.3125 57.453125L761.4219 57.453125Z" fill-rule="nonzero"/></svg>