<svg version="1.1" viewBox="0.0 0.0 1366.0 1173.0" fill="none" stroke="none" stroke-linecap="square" stroke-miterlimit="10" width="1366" height="1173" xmlns:xlink="http://www.w3.org/1999/xlink" xmlns="http://www.w3.org/2000/svg"><path fill="#ffffff" d="M0 0L1366.0 0L1366.0 1173.0L0 1173.0L0 0Z" fill-rule="nonzero"/><path stroke="#333333" stroke-width="1.0" stroke-linecap="butt" d="M172.5 58.5L172.5 1064.5" fill-rule="nonzero"/><path stroke="#cccccc" stroke-width="1.0" stroke-linecap="butt" d="M399.5 58.5L399.5 1064.5" fill-rule="nonzero"/><path stroke="#cccccc" stroke-width="1.0" stroke-linecap="butt" d="M626.5 58.5L626.5 1064.5" fill-rule="nonzero"/><path stroke="#cccccc" stroke-width="1.0" stroke-linecap="butt" d="M853.5 58.5L853.5 1064.5" fill-rule="nonzero"/><path stroke="#cccccc" stroke-width="1.0" stroke-linecap="butt" d="M1080.5 58.5L1080.5 1064.5" fill-rule="nonzero"/><path stroke="#cccccc" stroke-width="1.0" stroke-linecap="butt" d="M1307.5 58.5L1307.5 1064.5" fill-rule="nonzero"/><clipPath id="id_0"><path d="M172.65 58.65L1307.35 58.65L1307.35 1064.35L172.65 1064.35L172.65 58.65Z" clip-rule="nonzero"/></clipPath><path stroke="#000000" stroke-width="2.0" stroke-linecap="butt" stroke-opacity="0.0" clip-path="url(#id_0)" d="M173.0 290.0L173.0 140.0L271.0 140.0C272.10458 140.0 273.0 140.89543 273.0 142.0L273.0 288.0C273.0 289.10458 272.10458 290.0 271.0 290.0Z" fill-rule="nonzero"/><path fill="#4285f4" clip-path="url(#id_0)" d="M173.0 290.0L173.0 140.0L271.0 140.0C272.10458 140.0 273.0 140.89543 273.0 142.0L273.0 288.0C273.0 289.10458 272.10458 290.0 271.0 290.0Z" fill-rule="nonzero"/><path stroke="#000000" stroke-width="2.0" stroke-linecap="butt" stroke-opacity="0.0" clip-path="url(#id_0)" d="M173.0 521.0L173.0 371.0L366.0 371.0C367.10458 371.0 368.0 371.89542 368.0 373.0L368.0 519.0C368.0 520.10455 367.10458 521.0 366.0 521.0Z" fill-rule="nonzero"/><path fill="#4285f4" clip-path="url(#id_0)" d="M173.0 521.0L173.0 371.0L366.0 371.0C367.10458 371.0 368.0 371.89542 368.0 373.0L368.0 519.0C368.0 520.10455 367.10458 521.0 366.0 521.0Z" fill-rule="nonzero"/><path stroke="#000000" stroke-width="2.0" stroke-linecap="butt" stroke-opacity="0.0" clip-path="url(#id_0)" d="M173.0 752.0L173.0 602.0L638.0 602.0C639.10455 602.0 640.0 602.89545 640.0 604.0L640.0 750.0C640.0 751.10455 639.10455 752.0 638.0 752.0Z" fill-rule="nonzero"/><path fill="#4285f4" clip-path="url(#id_0)" d="M173.0 752.0L173.0 602.0L638.0 602.0C639.10455 602.0 640.0 602.89545 640.0 604.0L640.0 750.0C640.0 751.10455 639.10455 752.0 638.0 752.0Z" fill-rule="nonzero"/><path stroke="#000000" stroke-width="2.0" stroke-linecap="butt" stroke-opacity="0.0" clip-path="url(#id_0)" d="M173.0 983.0L173.0 833.0L1146.0 833.0C1147.1046 833.0 1148.0 833.89545 1148.0 835.0L1148.0 981.0C1148.0 982.10455 1147.1046 983.0 1146.0 983.0Z" fill-rule="nonzero"/><path fill="#4285f4" clip-path="url(#id_0)" d="M173.0 983.0L173.0 833.0L1146.0 833.0C1147.1046 833.0 1148.0 833.89545 1148.0 835.0L1148.0 981.0C1148.0 982.10455 1147.1046 983.0 1146.0 983.0Z" fill-rule="nonzero"/><path stroke="#4285f4" stroke-width="3.0" stroke-linejoin="round" stroke-linecap="round" d="M207.0768 224.5L193.43617 224.5L193.43617 221.79688L199.87367 214.92188Q201.2018 213.48438 201.8268 212.40625Q202.46742 211.3125 202.46742 210.34375Q202.46742 209.01562 201.79555 208.26562Q201.12367 207.5 199.8893 207.5Q198.54555 207.5 197.7643 208.42188Q196.99867 209.34375 196.99867 210.85938L193.02992 210.85938Q193.02992 209.03125 193.8893 207.53125Q194.7643 206.03125 196.34242 205.17188Q197.93617 204.3125 199.9518 204.3125Q203.02992 204.3125 204.73305 205.79688Q206.43617 207.26562 206.43617 209.96875Q206.43617 211.4375 205.67055 212.96875Q204.90492 214.5 203.04555 216.54688L198.5143 221.3125L207.0768 221.3125L207.0768 224.5ZM223.0768 224.5L209.43617 224.5L209.43617 221.79688L215.87367 214.92188Q217.2018 213.48438 217.8268 212.40625Q218.46742 211.3125 218.46742 210.34375Q218.46742 209.01562 217.79555 208.26562Q217.12367 207.5 215.8893 207.5Q214.54555 207.5 213.7643 208.42188Q212.99867 209.34375 212.99867 210.85938L209.02992 210.85938Q209.02992 209.03125 209.8893 207.53125Q210.7643 206.03125 212.34242 205.17188Q213.93617 204.3125 215.9518 204.3125Q219.02992 204.3125 220.73305 205.79688Q222.43617 207.26562 222.43617 209.96875Q222.43617 211.4375 221.67055 212.96875Q220.90492 214.5 219.04555 216.54688L214.5143 221.3125L223.0768 221.3125L223.0768 224.5ZM238.5143 210.03125Q240.5143 208.10938 241.96742 206.23438L236.21742 206.23438L235.12367 207.76562Q237.0143 208.78125 238.5143 210.03125ZM246.74867 205.85938Q243.12367 211.09375 239.49867 213.82812L248.52992 213.82812L248.52992 226.35938L245.18617 226.35938L245.18617 225.375L236.3893 225.375L236.3893 226.6875L233.04555 226.6875L233.04555 218.23438Q230.5768 219.64062 227.24867 220.82812L225.98305 217.1875Q231.60805 215.625 235.84242 212.26562Q235.3268 211.67188 233.1393 210.21875Q231.23305 212.03125 228.12367 213.71875L225.93617 211.04688Q232.3893 207.76562 234.8893 200.82812L237.96742 201.51562Q239.3268 202.89062 237.73305 203.125L237.79555 203.0L243.87367 203.0L244.23305 202.28125L247.12367 204.34375Q248.40492 205.625 246.74867 205.85938ZM245.18617 217.0625L236.3893 217.0625L236.3893 222.14062L245.18617 222.14062L245.18617 217.0625Z" fill-rule="nonzero"/><path fill="#ffffff" d="M207.0768 224.5L193.43617 224.5L193.43617 221.79688L199.87367 214.92188Q201.2018 213.48438 201.8268 212.40625Q202.46742 211.3125 202.46742 210.34375Q202.46742 209.01562 201.79555 208.26562Q201.12367 207.5 199.8893 207.5Q198.54555 207.5 197.7643 208.42188Q196.99867 209.34375 196.99867 210.85938L193.02992 210.85938Q193.02992 209.03125 193.8893 207.53125Q194.7643 206.03125 196.34242 205.17188Q197.93617 204.3125 199.9518 204.3125Q203.02992 204.3125 204.73305 205.79688Q206.43617 207.26562 206.43617 209.96875Q206.43617 211.4375 205.67055 212.96875Q204.90492 214.5 203.04555 216.54688L198.5143 221.3125L207.0768 221.3125L207.0768 224.5ZM223.0768 224.5L209.43617 224.5L209.43617 221.79688L215.87367 214.92188Q217.2018 213.48438 217.8268 212.40625Q218.46742 211.3125 218.46742 210.34375Q218.46742 209.01562 217.79555 208.26562Q217.12367 207.5 215.8893 207.5Q214.54555 207.5 213.7643 208.42188Q212.99867 209.34375 212.99867 210.85938L209.02992 210.85938Q209.02992 209.03125 209.8893 207.53125Q210.7643 206.03125 212.34242 205.17188Q213.93617 204.3125 215.9518 204.3125Q219.02992 204.3125 220.73305 205.79688Q222.43617 207.26562 222.43617 209.96875Q222.43617 211.4375 221.67055 212.96875Q220.90492 214.5 219.04555 216.54688L214.5143 221.3125L223.0768 221.3125L223.0768 224.5Z" fill-rule="nonzero"/><path fill="#ffffff" d="M238.5143 210.03125Q240.5143 208.10938 241.96742 206.23438L236.21742 206.23438L235.12367 207.76562Q237.0143 208.78125 238.5143 210.03125ZM246.74867 205.85938Q243.12367 211.09375 239.49867 213.82812L248.52992 213.82812L248.52992 226.35938L245.18617 226.35938L245.18617 225.375L236.3893 225.375L236.3893 226.6875L233.04555 226.6875L233.04555 218.23438Q230.5768 219.64062 227.24867 220.82812L225.98305 217.1875Q231.60805 215.625 235.84242 212.26562Q235.3268 211.67188 233.1393 210.21875Q231.23305 212.03125 228.12367 213.71875L225.93617 211.04688Q232.3893 207.76562 234.8893 200.82812L237.96742 201.51562Q239.3268 202.89062 237.73305 203.125L237.79555 203.0L243.87367 203.0L244.23305 202.28125L247.12367 204.34375Q248.40492 205.625 246.74867 205.85938ZM245.18617 217.0625L236.3893 217.0625L236.3893 222.14062L245.18617 222.14062L245.18617 217.0625Z" fill-rule="nonzero"/><path stroke="#4285f4" stroke-width="3.0" stroke-linejoin="round" stroke-linecap="round" d="M252.78108 448.0L255.03108 448.0L255.03108 451.1875L252.78108 451.1875L252.78108 455.5L248.82796 455.5L248.82796 451.1875L240.6717 451.1875L240.4842 448.70312L248.78108 435.59375L252.78108 435.59375L252.78108 448.0ZM244.4217 448.0L248.82796 448.0L248.82796 440.98438L248.56233 441.4375L244.4217 448.0ZM261.1092 443.79688L263.21857 443.79688Q264.71857 443.79688 265.43732 443.04688Q266.1717 442.29688 266.1717 441.04688Q266.1717 439.84375 265.45294 439.17188Q264.7342 438.5 263.46857 438.5Q262.34357 438.5 261.57794 439.125Q260.81232 439.75 260.81232 440.75L256.8592 440.75Q256.8592 439.1875 257.68732 437.95312Q258.53107 436.71875 260.0467 436.01562Q261.56232 435.3125 263.37482 435.3125Q266.53107 435.3125 268.32794 436.82812Q270.12482 438.34375 270.12482 441.0Q270.12482 442.35938 269.28107 443.51562Q268.45294 444.65625 267.09357 445.26562Q268.78107 445.875 269.6092 447.07812Q270.43732 448.28125 270.43732 449.92188Q270.43732 452.57812 268.49982 454.1875Q266.56232 455.78125 263.37482 455.78125Q260.39044 455.78125 258.49982 454.20312Q256.6092 452.625 256.6092 450.04688L260.56232 450.04688Q260.56232 451.17188 261.40607 451.89062Q262.24982 452.59375 263.46857 452.59375Q264.87482 452.59375 265.6717 451.84375Q266.4842 451.09375 266.4842 449.85938Q266.4842 446.89062 263.20294 446.89062L261.1092 446.89062L261.1092 443.79688ZM286.1717 441.03125Q288.1717 439.10938 289.62482 437.23438L283.87482 437.23438L282.78107 438.76562Q284.6717 439.78125 286.1717 441.03125ZM294.40607 436.85938Q290.78107 442.09375 287.15607 444.82812L296.18732 444.82812L296.18732 457.35938L292.84357 457.35938L292.84357 456.375L284.0467 456.375L284.0467 457.6875L280.70294 457.6875L280.70294 449.23438Q278.2342 450.64062 274.90607 451.82812L273.64044 448.1875Q279.26544 446.625 283.49982 443.26562Q282.9842 442.67188 280.7967 441.21875Q278.89044 443.03125 275.78107 444.71875L273.59357 442.04688Q280.0467 438.76562 282.5467 431.82812L285.62482 432.51562Q286.9842 433.89062 285.39044 434.125L285.45294 434.0L291.53107 434.0L291.89044 433.28125L294.78107 435.34375Q296.06232 436.625 294.40607 436.85938ZM292.84357 448.0625L284.0467 448.0625L284.0467 453.14062L292.84357 453.14062L292.84357 448.0625Z" fill-rule="nonzero"/><path fill="#ffffff" d="M252.78108 448.0L255.03108 448.0L255.03108 451.1875L252.78108 451.1875L252.78108 455.5L248.82796 455.5L248.82796 451.1875L240.6717 451.1875L240.4842 448.70312L248.78108 435.59375L252.78108 435.59375L252.78108 448.0ZM244.4217 448.0L248.82796 448.0L248.82796 440.98438L248.56233 441.4375L244.4217 448.0ZM261.1092 443.79688L263.21857 443.79688Q264.71857 443.79688 265.43732 443.04688Q266.1717 442.29688 266.1717 441.04688Q266.1717 439.84375 265.45294 439.17188Q264.7342 438.5 263.46857 438.5Q262.34357 438.5 261.57794 439.125Q260.81232 439.75 260.81232 440.75L256.8592 440.75Q256.8592 439.1875 257.68732 437.95312Q258.53107 436.71875 260.0467 436.01562Q261.56232 435.3125 263.37482 435.3125Q266.53107 435.3125 268.32794 436.82812Q270.12482 438.34375 270.12482 441.0Q270.12482 442.35938 269.28107 443.51562Q268.45294 444.65625 267.09357 445.26562Q268.78107 445.875 269.6092 447.07812Q270.43732 448.28125 270.43732 449.92188Q270.43732 452.57812 268.49982 454.1875Q266.56232 455.78125 263.37482 455.78125Q260.39044 455.78125 258.49982 454.20312Q256.6092 452.625 256.6092 450.04688L260.56232 450.04688Q260.56232 451.17188 261.40607 451.89062Q262.24982 452.59375 263.46857 452.59375Q264.87482 452.59375 265.6717 451.84375Q266.4842 451.09375 266.4842 449.85938Q266.4842 446.89062 263.20294 446.89062L261.1092 446.89062L261.1092 443.79688Z" fill-rule="nonzero"/><path fill="#ffffff" d="M286.1717 441.03125Q288.1717 439.10938 289.62482 437.23438L283.87482 437.23438L282.78107 438.76562Q284.6717 439.78125 286.1717 441.03125ZM294.40607 436.85938Q290.78107 442.09375 287.15607 444.82812L296.18732 444.82812L296.18732 457.35938L292.84357 457.35938L292.84357 456.375L284.0467 456.375L284.0467 457.6875L280.70294 457.6875L280.70294 449.23438Q278.2342 450.64062 274.90607 451.82812L273.64044 448.1875Q279.26544 446.625 283.49982 443.26562Q282.9842 442.67188 280.7967 441.21875Q278.89044 443.03125 275.78107 444.71875L273.59357 442.04688Q280.0467 438.76562 282.5467 431.82812L285.62482 432.51562Q286.9842 433.89062 285.39044 434.125L285.45294 434.0L291.53107 434.0L291.89044 433.28125L294.78107 435.34375Q296.06232 436.625 294.40607 436.85938ZM292.84357 448.0625L284.0467 448.0625L284.0467 453.14062L292.84357 453.14062L292.84357 448.0625Z" fill-rule="nonzero"/><path stroke="#4285f4" stroke-width="3.0" stroke-linejoin="round" stroke-linecap="round" d="M204.85132 686.5L200.8982 686.5L200.8982 671.2656L196.17944 672.7344L196.17944 669.5156L204.42944 666.5625L204.85132 666.5625L204.85132 686.5ZM224.6482 678.2656Q224.6482 682.3906 222.92944 684.59375Q221.22632 686.78125 217.94507 686.78125Q214.67944 686.78125 212.9607 684.6406Q211.24194 682.4844 211.19507 678.46875L211.19507 674.8125Q211.19507 670.6406 212.92944 668.4844Q214.66382 666.3125 217.91382 666.3125Q221.16382 666.3125 222.88257 668.4531Q224.61694 670.59375 224.6482 674.6094L224.6482 678.2656ZM220.69507 674.25Q220.69507 671.78125 220.0232 670.65625Q219.35132 669.5156 217.91382 669.5156Q216.5232 669.5156 215.85132 670.59375Q215.19507 671.6719 215.1482 673.9531L215.1482 678.78125Q215.1482 681.21875 215.80444 682.40625Q216.47632 683.59375 217.94507 683.59375Q219.38257 683.59375 220.0232 682.4531Q220.67944 681.3125 220.69507 678.9844L220.69507 674.25ZM231.2732 674.7969L233.38257 674.7969Q234.88257 674.7969 235.60132 674.0469Q236.3357 673.2969 236.3357 672.0469Q236.3357 670.84375 235.61694 670.1719Q234.8982 669.5 233.63257 669.5Q232.50757 669.5 231.74194 670.125Q230.97632 670.75 230.97632 671.75L227.0232 671.75Q227.0232 670.1875 227.85132 668.9531Q228.69507 667.71875 230.2107 667.0156Q231.72632 666.3125 233.53882 666.3125Q236.69507 666.3125 238.49194 667.8281Q240.28882 669.34375 240.28882 672.0Q240.28882 673.3594 239.44507 674.5156Q238.61694 675.65625 237.25757 676.2656Q238.94507 676.875 239.7732 678.0781Q240.60132 679.28125 240.60132 680.9219Q240.60132 683.5781 238.66382 685.1875Q236.72632 686.78125 233.53882 686.78125Q230.55444 686.78125 228.66382 685.2031Q226.7732 683.625 226.7732 681.0469L230.72632 681.0469Q230.72632 682.1719 231.57007 682.8906Q232.41382 683.59375 233.63257 683.59375Q235.03882 683.59375 235.8357 682.84375Q236.6482 682.09375 236.6482 680.8594Q236.6482 677.8906 233.36694 677.8906L231.2732 677.8906L231.2732 674.7969ZM256.3357 672.03125Q258.3357 670.1094 259.78882 668.2344L254.03882 668.2344L252.94507 669.7656Q254.8357 670.78125 256.3357 672.03125ZM264.57007 667.8594Q260.94507 673.09375 257.32007 675.8281L266.35132 675.8281L266.35132 688.3594L263.00757 688.3594L263.00757 687.375L254.2107 687.375L254.2107 688.6875L250.86694 688.6875L250.86694 680.2344Q248.3982 681.6406 245.07007 682.8281L243.80444 679.1875Q249.42944 677.625 253.66382 674.2656Q253.1482 673.6719 250.9607 672.21875Q249.05444 674.03125 245.94507 675.71875L243.75757 673.0469Q250.2107 669.7656 252.7107 662.8281L255.78882 663.5156Q257.1482 664.8906 255.55444 665.125L255.61694 665.0L261.69507 665.0L262.05444 664.28125L264.94507 666.34375Q266.22632 667.625 264.57007 667.8594ZM263.00757 679.0625L254.2107 679.0625L254.2107 684.1406L263.00757 684.1406L263.00757 679.0625ZM277.41382 669.0469Q278.66382 666.4375 281.97632 663.375L284.03882 665.25Q280.91382 668.1094 279.86694 670.3125Q278.72632 672.7031 278.72632 676.0781Q278.72632 678.90625 279.88257 681.4219Q280.92944 683.7344 283.97632 687.03125L281.94507 689.0625Q278.75757 685.4844 277.41382 682.6719Q275.92944 679.59375 275.92944 676.0781Q275.92944 672.125 277.41382 669.0469ZM307.8982 668.0625L310.24194 668.0625L310.24194 680.4844L306.8982 680.4844L306.8982 679.8281L302.03882 679.8281L302.03882 680.96875L313.5232 680.96875L313.5232 684.2031L302.03882 684.2031L302.03882 688.7969L298.69507 688.7969L298.69507 684.2031L287.42944 684.2031L287.42944 680.96875L298.69507 680.96875L298.69507 679.8281L293.94507 679.8281L293.94507 680.7031L290.60132 680.7031L290.60132 668.0625L303.88257 668.0625L307.53882 662.46875L310.11694 664.2344Q311.9607 665.71875 309.72632 665.71875L307.8982 668.0625ZM299.72632 662.7656Q302.24194 664.875 303.30444 666.84375L300.2732 669.0625Q299.13257 666.9219 296.9607 664.875L299.72632 662.7656ZM298.69507 672.4375L298.69507 671.2969L293.94507 671.2969L293.94507 672.4375L298.69507 672.4375ZM306.8982 672.4375L306.8982 671.2969L302.03882 671.2969L302.03882 672.4375L306.8982 672.4375ZM298.69507 676.59375L298.69507 675.6719L293.94507 675.6719L293.94507 676.59375L298.69507 676.59375ZM306.8982 676.59375L306.8982 675.6719L302.03882 675.6719L302.03882 676.59375L306.8982 676.59375ZM293.24194 669.1406Q292.13257 666.9219 290.17944 665.09375L292.9607 662.96875Q295.1482 665.0 296.32007 667.2031L293.24194 669.1406ZM322.24194 681.7031Q327.8982 676.5 330.0232 671.40625L323.42944 671.40625L323.42944 668.1719L330.86694 668.1719L330.86694 662.7031L333.55444 662.7031Q335.94507 663.0 334.2107 664.2344L334.2107 668.1719L342.0857 668.1719L342.0857 671.40625L335.0857 671.40625Q336.53882 675.75 342.92944 681.6875L340.7107 684.84375Q335.44507 679.59375 334.2107 676.9844L334.2107 680.2031L337.38257 680.2031L337.38257 683.4375L334.2107 683.4375L334.2107 688.7969L330.86694 688.7969L330.86694 683.4375L328.0232 683.4375L328.0232 680.2031L330.86694 680.2031L330.86694 677.1094Q329.28882 680.59375 324.5857 684.6719L322.24194 681.7031ZM324.38257 665.1094Q323.91382 667.59375 323.11694 669.625Q324.67944 670.2031 322.94507 671.0781L322.94507 689.0156L319.60132 689.0156L319.7732 676.5781Q319.8982 676.75 318.16382 678.4844L315.9607 675.65625Q319.85132 670.375 321.38257 662.3906L324.50757 663.53125Q326.2107 664.8906 324.38257 665.1094ZM345.60132 684.5625Q345.60132 683.6094 346.24194 683.03125Q346.88257 682.4375 347.8357 682.4375Q348.80444 682.4375 349.42944 683.03125Q350.07007 683.6094 350.07007 684.5625Q350.07007 685.4844 349.44507 686.0781Q348.82007 686.65625 347.8357 686.65625Q346.86694 686.65625 346.22632 686.0781Q345.60132 685.4844 345.60132 684.5625ZM345.60132 673.3594Q345.60132 672.40625 346.24194 671.8281Q346.88257 671.2344 347.8357 671.2344Q348.80444 671.2344 349.42944 671.8281Q350.07007 672.40625 350.07007 673.3594Q350.07007 674.28125 349.44507 674.875Q348.82007 675.4531 347.8357 675.4531Q346.86694 675.4531 346.22632 674.875Q345.60132 674.28125 345.60132 673.3594ZM366.22632 671.8906Q366.22632 673.3281 365.49194 674.4531Q364.7732 675.5781 363.50757 676.25Q364.9607 676.9375 365.80444 678.1719Q366.6482 679.3906 366.6482 681.0469Q366.6482 683.7031 364.8357 685.25Q363.03882 686.78125 359.92944 686.78125Q356.8357 686.78125 355.00757 685.2344Q353.19507 683.6875 353.19507 681.0469Q353.19507 679.3906 354.03882 678.15625Q354.8982 676.9219 356.3357 676.25Q355.05444 675.5781 354.3357 674.4531Q353.61694 673.3281 353.61694 671.8906Q353.61694 669.34375 355.30444 667.8281Q357.00757 666.3125 359.92944 666.3125Q362.82007 666.3125 364.5232 667.8125Q366.22632 669.3125 366.22632 671.8906ZM362.67944 680.75Q362.67944 679.4531 361.92944 678.6875Q361.17944 677.90625 359.91382 677.90625Q358.6482 677.90625 357.8982 678.6719Q357.1482 679.4375 357.1482 680.75Q357.1482 682.03125 357.88257 682.8125Q358.63257 683.59375 359.94507 683.59375Q361.22632 683.59375 361.94507 682.84375Q362.67944 682.0781 362.67944 680.75ZM362.2732 672.0781Q362.2732 670.90625 361.6482 670.2031Q361.03882 669.5 359.92944 669.5Q358.82007 669.5 358.19507 670.1875Q357.5857 670.875 357.5857 672.0781Q357.5857 673.2656 358.19507 674.0Q358.82007 674.71875 359.92944 674.71875Q361.05444 674.71875 361.66382 674.0Q362.2732 673.2656 362.2732 672.0781ZM378.49194 678.5469Q376.94507 680.0625 374.88257 680.0625Q372.24194 680.0625 370.6482 678.25Q369.07007 676.4375 369.07007 673.3594Q369.07007 671.40625 369.92944 669.78125Q370.78882 668.1406 372.32007 667.2344Q373.85132 666.3125 375.75757 666.3125Q377.72632 666.3125 379.25757 667.2969Q380.78882 668.28125 381.63257 670.1406Q382.49194 671.9844 382.50757 674.3594L382.50757 675.8281Q382.50757 680.7969 380.0232 683.6406Q377.55444 686.4844 373.00757 686.6719L372.03882 686.6875L372.03882 683.3906L372.91382 683.375Q378.07007 683.15625 378.49194 678.5469ZM375.85132 677.03125Q376.82007 677.03125 377.50757 676.5469Q378.19507 676.0469 378.55444 675.3594L378.55444 673.7344Q378.55444 671.71875 377.78882 670.6094Q377.0232 669.5 375.72632 669.5Q374.53882 669.5 373.7732 670.59375Q373.00757 671.6719 373.00757 673.3125Q373.00757 674.9531 373.75757 676.0Q374.50757 677.03125 375.85132 677.03125ZM398.3357 672.03125Q400.3357 670.1094 401.78882 668.2344L396.03882 668.2344L394.94507 669.7656Q396.8357 670.78125 398.3357 672.03125ZM406.57007 667.8594Q402.94507 673.09375 399.32007 675.8281L408.35132 675.8281L408.35132 688.3594L405.00757 688.3594L405.00757 687.375L396.2107 687.375L396.2107 688.6875L392.86694 688.6875L392.86694 680.2344Q390.3982 681.6406 387.07007 682.8281L385.80444 679.1875Q391.42944 677.625 395.66382 674.2656Q395.1482 673.6719 392.9607 672.21875Q391.05444 674.03125 387.94507 675.71875L385.75757 673.0469Q392.2107 669.7656 394.7107 662.8281L397.78882 663.5156Q399.1482 664.8906 397.55444 665.125L397.61694 665.0L403.69507 665.0L404.05444 664.28125L406.94507 666.34375Q408.22632 667.625 406.57007 667.8594ZM405.00757 679.0625L396.2107 679.0625L396.2107 684.1406L405.00757 684.1406L405.00757 679.0625ZM421.69507 689.4219Q418.67944 686.03125 415.38257 683.875L417.69507 680.78125Q421.72632 683.1719 424.41382 686.25L421.69507 689.4219ZM454.3357 671.3906Q452.25757 683.2656 440.00757 688.6875L437.17944 685.7031Q448.3982 681.125 450.38257 671.40625L442.66382 671.40625Q440.2732 675.3594 437.1482 678.2344L433.9607 676.15625Q440.07007 670.625 441.80444 663.2969L444.9607 664.3906Q446.8357 665.3281 444.99194 666.0156Q444.61694 667.21875 444.28882 667.84375L451.03882 667.84375L452.2732 667.15625L454.55444 669.4375Q456.00757 670.8906 454.3357 671.3906ZM454.35132 669.1406Q452.30444 666.2031 450.17944 664.5L452.5232 662.5156Q454.78882 664.53125 456.80444 667.21875L454.35132 669.1406ZM457.60132 667.8594Q455.47632 665.2031 453.6482 663.5156L455.7732 661.3906Q457.85132 663.3281 459.72632 665.7344L457.60132 667.8594ZM477.4607 681.90625Q481.32007 680.40625 485.74194 674.3281L487.99194 677.3906Q483.49194 683.5469 477.00757 686.125L475.8357 686.7031L473.44507 684.9219L473.78882 684.0625L473.78882 665.9844L476.72632 665.9844Q478.8982 666.46875 477.4607 667.7031L477.4607 681.90625ZM461.30444 685.7969Q467.11694 680.2031 467.11694 672.6875L467.11694 667.1875L470.05444 667.1875Q472.22632 667.6719 470.78882 668.90625L470.78882 672.5781Q470.78882 682.0156 464.47632 687.8594L461.30444 685.7969ZM490.2107 677.53125L490.2107 673.96875L515.75757 673.96875L515.75757 677.53125L490.2107 677.53125ZM538.4763 666.53125Q539.11694 666.53125 539.49194 666.15625Q539.86694 665.78125 539.86694 665.1406Q539.86694 664.5 539.49194 664.125Q539.11694 663.75 538.4763 663.75Q537.8357 663.75 537.4607 664.125Q537.0857 664.5 537.0857 665.1406Q537.0857 665.78125 537.4607 666.15625Q537.8357 666.53125 538.4763 666.53125ZM538.4763 668.78125Q536.92944 668.78125 535.88257 667.7344Q534.8357 666.6875 534.8357 665.1406Q534.8357 663.59375 535.88257 662.5469Q536.92944 661.5 538.4763 661.5Q540.0232 661.5 541.07007 662.5469Q542.11694 663.59375 542.11694 665.1406Q542.11694 666.6875 541.07007 667.7344Q540.0232 668.78125 538.4763 668.78125ZM518.32007 670.2031L518.32007 666.6406L535.2732 666.6406L538.5232 669.0156Q537.94507 682.96875 522.74194 687.2344L519.94507 683.8125Q534.1013 680.53125 534.69507 670.2031L518.32007 670.2031ZM553.8513 686.5L549.8982 686.5L549.8982 671.2656L545.17944 672.7344L545.17944 669.5156L553.42944 666.5625L553.8513 666.5625L553.8513 686.5ZM571.94507 679.0L574.19507 679.0L574.19507 682.1875L571.94507 682.1875L571.94507 686.5L567.99194 686.5L567.99194 682.1875L559.8357 682.1875L559.6482 679.7031L567.94507 666.59375L571.94507 666.59375L571.94507 679.0ZM563.5857 679.0L567.99194 679.0L567.99194 671.9844L567.7263 672.4375L563.5857 679.0ZM589.3357 672.03125Q591.3357 670.1094 592.7888 668.2344L587.0388 668.2344L585.94507 669.7656Q587.8357 670.78125 589.3357 672.03125ZM597.57007 667.8594Q593.94507 673.09375 590.32007 675.8281L599.3513 675.8281L599.3513 688.3594L596.00757 688.3594L596.00757 687.375L587.2107 687.375L587.2107 688.6875L583.86694 688.6875L583.86694 680.2344Q581.3982 681.6406 578.07007 682.8281L576.80444 679.1875Q582.42944 677.625 586.6638 674.2656Q586.1482 673.6719 583.9607 672.21875Q582.05444 674.03125 578.94507 675.71875L576.75757 673.0469Q583.2107 669.7656 585.7107 662.8281L588.7888 663.5156Q590.1482 664.8906 588.55444 665.125L588.61694 665.0L594.69507 665.0L595.05444 664.28125L597.94507 666.34375Q599.2263 667.625 597.57007 667.8594ZM596.00757 679.0625L587.2107 679.0625L587.2107 684.1406L596.00757 684.1406L596.00757 679.0625ZM612.42944 682.6719Q611.0857 685.4844 607.8982 689.0625L605.86694 687.03125Q608.9138 683.7344 609.9607 681.4219Q611.11694 678.90625 611.11694 676.0781Q611.11694 672.7031 609.9763 670.3125Q608.92944 668.1094 605.80444 665.25L607.86694 663.375Q611.17944 666.4375 612.42944 669.0469Q613.9138 672.125 613.9138 676.0781Q613.9138 679.59375 612.42944 682.6719Z" fill-rule="nonzero"/><path fill="#ffffff" d="M204.85132 686.5L200.8982 686.5L200.8982 671.2656L196.17944 672.7344L196.17944 669.5156L204.42944 666.5625L204.85132 666.5625L204.85132 686.5ZM224.6482 678.2656Q224.6482 682.3906 222.92944 684.59375Q221.22632 686.78125 217.94507 686.78125Q214.67944 686.78125 212.9607 684.6406Q211.24194 682.4844 211.19507 678.46875L211.19507 674.8125Q211.19507 670.6406 212.92944 668.4844Q214.66382 666.3125 217.91382 666.3125Q221.16382 666.3125 222.88257 668.4531Q224.61694 670.59375 224.6482 674.6094L224.6482 678.2656ZM220.69507 674.25Q220.69507 671.78125 220.0232 670.65625Q219.35132 669.5156 217.91382 669.5156Q216.5232 669.5156 215.85132 670.59375Q215.19507 671.6719 215.1482 673.9531L215.1482 678.78125Q215.1482 681.21875 215.80444 682.40625Q216.47632 683.59375 217.94507 683.59375Q219.38257 683.59375 220.0232 682.4531Q220.67944 681.3125 220.69507 678.9844L220.69507 674.25ZM231.2732 674.7969L233.38257 674.7969Q234.88257 674.7969 235.60132 674.0469Q236.3357 673.2969 236.3357 672.0469Q236.3357 670.84375 235.61694 670.1719Q234.8982 669.5 233.63257 669.5Q232.50757 669.5 231.74194 670.125Q230.97632 670.75 230.97632 671.75L227.0232 671.75Q227.0232 670.1875 227.85132 668.9531Q228.69507 667.71875 230.2107 667.0156Q231.72632 666.3125 233.53882 666.3125Q236.69507 666.3125 238.49194 667.8281Q240.28882 669.34375 240.28882 672.0Q240.28882 673.3594 239.44507 674.5156Q238.61694 675.65625 237.25757 676.2656Q238.94507 676.875 239.7732 678.0781Q240.60132 679.28125 240.60132 680.9219Q240.60132 683.5781 238.66382 685.1875Q236.72632 686.78125 233.53882 686.78125Q230.55444 686.78125 228.66382 685.2031Q226.7732 683.625 226.7732 681.0469L230.72632 681.0469Q230.72632 682.1719 231.57007 682.8906Q232.41382 683.59375 233.63257 683.59375Q235.03882 683.59375 235.8357 682.84375Q236.6482 682.09375 236.6482 680.8594Q236.6482 677.8906 233.36694 677.8906L231.2732 677.8906L231.2732 674.7969Z" fill-rule="nonzero"/><path fill="#ffffff" d="M256.3357 672.03125Q258.3357 670.1094 259.78882 668.2344L254.03882 668.2344L252.94507 669.7656Q254.8357 670.78125 256.3357 672.03125ZM264.57007 667.8594Q260.94507 673.09375 257.32007 675.8281L266.35132 675.8281L266.35132 688.3594L263.00757 688.3594L263.00757 687.375L254.2107 687.375L254.2107 688.6875L250.86694 688.6875L250.86694 680.2344Q248.3982 681.6406 245.07007 682.8281L243.80444 679.1875Q249.42944 677.625 253.66382 674.2656Q253.1482 673.6719 250.9607 672.21875Q249.05444 674.03125 245.94507 675.71875L243.75757 673.0469Q250.2107 669.7656 252.7107 662.8281L255.78882 663.5156Q257.1482 664.8906 255.55444 665.125L255.61694 665.0L261.69507 665.0L262.05444 664.28125L264.94507 666.34375Q266.22632 667.625 264.57007 667.8594ZM263.00757 679.0625L254.2107 679.0625L254.2107 684.1406L263.00757 684.1406L263.00757 679.0625ZM277.41382 669.0469Q278.66382 666.4375 281.97632 663.375L284.03882 665.25Q280.91382 668.1094 279.86694 670.3125Q278.72632 672.7031 278.72632 676.0781Q278.72632 678.90625 279.88257 681.4219Q280.92944 683.7344 283.97632 687.03125L281.94507 689.0625Q278.75757 685.4844 277.41382 682.6719Q275.92944 679.59375 275.92944 676.0781Q275.92944 672.125 277.41382 669.0469ZM307.8982 668.0625L310.24194 668.0625L310.24194 680.4844L306.8982 680.4844L306.8982 679.8281L302.03882 679.8281L302.03882 680.96875L313.5232 680.96875L313.5232 684.2031L302.03882 684.2031L302.03882 688.7969L298.69507 688.7969L298.69507 684.2031L287.42944 684.2031L287.42944 680.96875L298.69507 680.96875L298.69507 679.8281L293.94507 679.8281L293.94507 680.7031L290.60132 680.7031L290.60132 668.0625L303.88257 668.0625L307.53882 662.46875L310.11694 664.2344Q311.9607 665.71875 309.72632 665.71875L307.8982 668.0625ZM299.72632 662.7656Q302.24194 664.875 303.30444 666.84375L300.2732 669.0625Q299.13257 666.9219 296.9607 664.875L299.72632 662.7656ZM298.69507 672.4375L298.69507 671.2969L293.94507 671.2969L293.94507 672.4375L298.69507 672.4375ZM306.8982 672.4375L306.8982 671.2969L302.03882 671.2969L302.03882 672.4375L306.8982 672.4375ZM298.69507 676.59375L298.69507 675.6719L293.94507 675.6719L293.94507 676.59375L298.69507 676.59375ZM306.8982 676.59375L306.8982 675.6719L302.03882 675.6719L302.03882 676.59375L306.8982 676.59375ZM293.24194 669.1406Q292.13257 666.9219 290.17944 665.09375L292.9607 662.96875Q295.1482 665.0 296.32007 667.2031L293.24194 669.1406ZM322.24194 681.7031Q327.8982 676.5 330.0232 671.40625L323.42944 671.40625L323.42944 668.1719L330.86694 668.1719L330.86694 662.7031L333.55444 662.7031Q335.94507 663.0 334.2107 664.2344L334.2107 668.1719L342.0857 668.1719L342.0857 671.40625L335.0857 671.40625Q336.53882 675.75 342.92944 681.6875L340.7107 684.84375Q335.44507 679.59375 334.2107 676.9844L334.2107 680.2031L337.38257 680.2031L337.38257 683.4375L334.2107 683.4375L334.2107 688.7969L330.86694 688.7969L330.86694 683.4375L328.0232 683.4375L328.0232 680.2031L330.86694 680.2031L330.86694 677.1094Q329.28882 680.59375 324.5857 684.6719L322.24194 681.7031ZM324.38257 665.1094Q323.91382 667.59375 323.11694 669.625Q324.67944 670.2031 322.94507 671.0781L322.94507 689.0156L319.60132 689.0156L319.7732 676.5781Q319.8982 676.75 318.16382 678.4844L315.9607 675.65625Q319.85132 670.375 321.38257 662.3906L324.50757 663.53125Q326.2107 664.8906 324.38257 665.1094Z" fill-rule="nonzero"/><path fill="#ffffff" d="M345.60132 684.5625Q345.60132 683.6094 346.24194 683.03125Q346.88257 682.4375 347.8357 682.4375Q348.80444 682.4375 349.42944 683.03125Q350.07007 683.6094 350.07007 684.5625Q350.07007 685.4844 349.44507 686.0781Q348.82007 686.65625 347.8357 686.65625Q346.86694 686.65625 346.22632 686.0781Q345.60132 685.4844 345.60132 684.5625ZM345.60132 673.3594Q345.60132 672.40625 346.24194 671.8281Q346.88257 671.2344 347.8357 671.2344Q348.80444 671.2344 349.42944 671.8281Q350.07007 672.40625 350.07007 673.3594Q350.07007 674.28125 349.44507 674.875Q348.82007 675.4531 347.8357 675.4531Q346.86694 675.4531 346.22632 674.875Q345.60132 674.28125 345.60132 673.3594ZM366.22632 671.8906Q366.22632 673.3281 365.49194 674.4531Q364.7732 675.5781 363.50757 676.25Q364.9607 676.9375 365.80444 678.1719Q366.6482 679.3906 366.6482 681.0469Q366.6482 683.7031 364.8357 685.25Q363.03882 686.78125 359.92944 686.78125Q356.8357 686.78125 355.00757 685.2344Q353.19507 683.6875 353.19507 681.0469Q353.19507 679.3906 354.03882 678.15625Q354.8982 676.9219 356.3357 676.25Q355.05444 675.5781 354.3357 674.4531Q353.61694 673.3281 353.61694 671.8906Q353.61694 669.34375 355.30444 667.8281Q357.00757 666.3125 359.92944 666.3125Q362.82007 666.3125 364.5232 667.8125Q366.22632 669.3125 366.22632 671.8906ZM362.67944 680.75Q362.67944 679.4531 361.92944 678.6875Q361.17944 677.90625 359.91382 677.90625Q358.6482 677.90625 357.8982 678.6719Q357.1482 679.4375 357.1482 680.75Q357.1482 682.03125 357.88257 682.8125Q358.63257 683.59375 359.94507 683.59375Q361.22632 683.59375 361.94507 682.84375Q362.67944 682.0781 362.67944 680.75ZM362.2732 672.0781Q362.2732 670.90625 361.6482 670.2031Q361.03882 669.5 359.92944 669.5Q358.82007 669.5 358.19507 670.1875Q357.5857 670.875 357.5857 672.0781Q357.5857 673.2656 358.19507 674.0Q358.82007 674.71875 359.92944 674.71875Q361.05444 674.71875 361.66382 674.0Q362.2732 673.2656 362.2732 672.0781ZM378.49194 678.5469Q376.94507 680.0625 374.88257 680.0625Q372.24194 680.0625 370.6482 678.25Q369.07007 676.4375 369.07007 673.3594Q369.07007 671.40625 369.92944 669.78125Q370.78882 668.1406 372.32007 667.2344Q373.85132 666.3125 375.75757 666.3125Q377.72632 666.3125 379.25757 667.2969Q380.78882 668.28125 381.63257 670.1406Q382.49194 671.9844 382.50757 674.3594L382.50757 675.8281Q382.50757 680.7969 380.0232 683.6406Q377.55444 686.4844 373.00757 686.6719L372.03882 686.6875L372.03882 683.3906L372.91382 683.375Q378.07007 683.15625 378.49194 678.5469ZM375.85132 677.03125Q376.82007 677.03125 377.50757 676.5469Q378.19507 676.0469 378.55444 675.3594L378.55444 673.7344Q378.55444 671.71875 377.78882 670.6094Q377.0232 669.5 375.72632 669.5Q374.53882 669.5 373.7732 670.59375Q373.00757 671.6719 373.00757 673.3125Q373.00757 674.9531 373.75757 676.0Q374.50757 677.03125 375.85132 677.03125Z" fill-rule="nonzero"/><path fill="#ffffff" d="M398.3357 672.03125Q400.3357 670.1094 401.78882 668.2344L396.03882 668.2344L394.94507 669.7656Q396.8357 670.78125 398.3357 672.03125ZM406.57007 667.8594Q402.94507 673.09375 399.32007 675.8281L408.35132 675.8281L408.35132 688.3594L405.00757 688.3594L405.00757 687.375L396.2107 687.375L396.2107 688.6875L392.86694 688.6875L392.86694 680.2344Q390.3982 681.6406 387.07007 682.8281L385.80444 679.1875Q391.42944 677.625 395.66382 674.2656Q395.1482 673.6719 392.9607 672.21875Q391.05444 674.03125 387.94507 675.71875L385.75757 673.0469Q392.2107 669.7656 394.7107 662.8281L397.78882 663.5156Q399.1482 664.8906 397.55444 665.125L397.61694 665.0L403.69507 665.0L404.05444 664.28125L406.94507 666.34375Q408.22632 667.625 406.57007 667.8594ZM405.00757 679.0625L396.2107 679.0625L396.2107 684.1406L405.00757 684.1406L405.00757 679.0625ZM421.69507 689.4219Q418.67944 686.03125 415.38257 683.875L417.69507 680.78125Q421.72632 683.1719 424.41382 686.25L421.69507 689.4219ZM454.3357 671.3906Q452.25757 683.2656 440.00757 688.6875L437.17944 685.7031Q448.3982 681.125 450.38257 671.40625L442.66382 671.40625Q440.2732 675.3594 437.1482 678.2344L433.9607 676.15625Q440.07007 670.625 441.80444 663.2969L444.9607 664.3906Q446.8357 665.3281 444.99194 666.0156Q444.61694 667.21875 444.28882 667.84375L451.03882 667.84375L452.2732 667.15625L454.55444 669.4375Q456.00757 670.8906 454.3357 671.3906ZM454.35132 669.1406Q452.30444 666.2031 450.17944 664.5L452.5232 662.5156Q454.78882 664.53125 456.80444 667.21875L454.35132 669.1406ZM457.60132 667.8594Q455.47632 665.2031 453.6482 663.5156L455.7732 661.3906Q457.85132 663.3281 459.72632 665.7344L457.60132 667.8594ZM477.4607 681.90625Q481.32007 680.40625 485.74194 674.3281L487.99194 677.3906Q483.49194 683.5469 477.00757 686.125L475.8357 686.7031L473.44507 684.9219L473.78882 684.0625L473.78882 665.9844L476.72632 665.9844Q478.8982 666.46875 477.4607 667.7031L477.4607 681.90625ZM461.30444 685.7969Q467.11694 680.2031 467.11694 672.6875L467.11694 667.1875L470.05444 667.1875Q472.22632 667.6719 470.78882 668.90625L470.78882 672.5781Q470.78882 682.0156 464.47632 687.8594L461.30444 685.7969ZM490.2107 677.53125L490.2107 673.96875L515.75757 673.96875L515.75757 677.53125L490.2107 677.53125ZM538.4763 666.53125Q539.11694 666.53125 539.49194 666.15625Q539.86694 665.78125 539.86694 665.1406Q539.86694 664.5 539.49194 664.125Q539.11694 663.75 538.4763 663.75Q537.8357 663.75 537.4607 664.125Q537.0857 664.5 537.0857 665.1406Q537.0857 665.78125 537.4607 666.15625Q537.8357 666.53125 538.4763 666.53125ZM538.4763 668.78125Q536.92944 668.78125 535.88257 667.7344Q534.8357 666.6875 534.8357 665.1406Q534.8357 663.59375 535.88257 662.5469Q536.92944 661.5 538.4763 661.5Q540.0232 661.5 541.07007 662.5469Q542.11694 663.59375 542.11694 665.1406Q542.11694 666.6875 541.07007 667.7344Q540.0232 668.78125 538.4763 668.78125ZM518.32007 670.2031L518.32007 666.6406L535.2732 666.6406L538.5232 669.0156Q537.94507 682.96875 522.74194 687.2344L519.94507 683.8125Q534.1013 680.53125 534.69507 670.2031L518.32007 670.2031Z" fill-rule="nonzero"/><path fill="#ffffff" d="M553.8513 686.5L549.8982 686.5L549.8982 671.2656L545.17944 672.7344L545.17944 669.5156L553.42944 666.5625L553.8513 666.5625L553.8513 686.5ZM571.94507 679.0L574.19507 679.0L574.19507 682.1875L571.94507 682.1875L571.94507 686.5L567.99194 686.5L567.99194 682.1875L559.8357 682.1875L559.6482 679.7031L567.94507 666.59375L571.94507 666.59375L571.94507 679.0ZM563.5857 679.0L567.99194 679.0L567.99194 671.9844L567.7263 672.4375L563.5857 679.0Z" fill-rule="nonzero"/><path fill="#ffffff" d="M589.3357 672.03125Q591.3357 670.1094 592.7888 668.2344L587.0388 668.2344L585.94507 669.7656Q587.8357 670.78125 589.3357 672.03125ZM597.57007 667.8594Q593.94507 673.09375 590.32007 675.8281L599.3513 675.8281L599.3513 688.3594L596.00757 688.3594L596.00757 687.375L587.2107 687.375L587.2107 688.6875L583.86694 688.6875L583.86694 680.2344Q581.3982 681.6406 578.07007 682.8281L576.80444 679.1875Q582.42944 677.625 586.6638 674.2656Q586.1482 673.6719 583.9607 672.21875Q582.05444 674.03125 578.94507 675.71875L576.75757 673.0469Q583.2107 669.7656 585.7107 662.8281L588.7888 663.5156Q590.1482 664.8906 588.55444 665.125L588.61694 665.0L594.69507 665.0L595.05444 664.28125L597.94507 666.34375Q599.2263 667.625 597.57007 667.8594ZM596.00757 679.0625L587.2107 679.0625L587.2107 684.1406L596.00757 684.1406L596.00757 679.0625ZM612.42944 682.6719Q611.0857 685.4844 607.8982 689.0625L605.86694 687.03125Q608.9138 683.7344 609.9607 681.4219Q611.11694 678.90625 611.11694 676.0781Q611.11694 672.7031 609.9763 670.3125Q608.92944 668.1094 605.80444 665.25L607.86694 663.375Q611.17944 666.4375 612.42944 669.0469Q613.9138 672.125 613.9138 676.0781Q613.9138 679.59375 612.42944 682.6719Z" fill-rule="nonzero"/><path stroke="#4285f4" stroke-width="3.0" stroke-linejoin="round" stroke-linecap="round" d="M470.68213 921.0655L457.0415 921.0655L457.0415 918.36237L463.479 911.48737Q464.80713 910.04987 465.43213 908.97174Q466.07275 907.878 466.07275 906.90924Q466.07275 905.5811 465.40088 904.8311Q464.729 904.0655 463.49463 904.0655Q462.15088 904.0655 461.36963 904.98737Q460.604 905.90924 460.604 907.42487L456.63525 907.42487Q456.63525 905.59674 457.49463 904.09674Q458.36963 902.59674 459.94775 901.73737Q461.5415 900.878 463.55713 900.878Q466.63525 900.878 468.33838 902.36237Q470.0415 903.8311 470.0415 906.53424Q470.0415 908.003 469.27588 909.53424Q468.51025 911.0655 466.65088 913.11237L462.11963 917.878L470.68213 917.878L470.68213 921.0655ZM482.63525 921.0655L478.68213 921.0655L478.68213 905.8311L473.96338 907.29987L473.96338 904.0811L482.21338 901.128L482.63525 901.128L482.63525 921.0655ZM489.61963 911.2686L490.77588 901.15924L501.93213 901.15924L501.93213 904.4561L494.01025 904.4561L493.52588 908.73737Q494.93213 907.98737 496.51025 907.98737Q499.354 907.98737 500.96338 909.753Q502.58838 911.503 502.58838 914.67487Q502.58838 916.61237 501.77588 918.1436Q500.96338 919.65924 499.43213 920.503Q497.9165 921.34674 495.854 921.34674Q494.05713 921.34674 492.51025 920.61237Q490.96338 919.878 490.05713 918.54987Q489.1665 917.22174 489.11963 915.53424L493.02588 915.53424Q493.15088 916.7686 493.88525 917.47174Q494.63525 918.15924 495.83838 918.15924Q497.18213 918.15924 497.90088 917.1905Q498.63525 916.22174 498.63525 914.4561Q498.63525 912.7686 497.7915 911.86237Q496.96338 910.9561 495.43213 910.9561Q494.02588 910.9561 493.15088 911.7061L492.77588 912.04987L489.61963 911.2686ZM518.1196 906.59674Q520.1196 904.67487 521.57275 902.79987L515.82275 902.79987L514.729 904.3311Q516.6196 905.34674 518.1196 906.59674ZM526.354 902.42487Q522.729 907.65924 519.104 910.3936L528.13525 910.3936L528.13525 922.92487L524.7915 922.92487L524.7915 921.9405L515.9946 921.9405L515.9946 923.253L512.6509 923.253L512.6509 914.79987Q510.18213 916.2061 506.854 917.3936L505.58838 913.753Q511.21338 912.1905 515.44775 908.8311Q514.9321 908.23737 512.7446 906.78424Q510.83838 908.59674 507.729 910.28424L505.5415 907.61237Q511.99463 904.3311 514.4946 897.3936L517.57275 898.0811Q518.9321 899.4561 517.3384 899.6905L517.4009 899.5655L523.479 899.5655L523.8384 898.84674L526.729 900.90924Q528.01025 902.1905 526.354 902.42487ZM524.7915 913.628L515.9946 913.628L515.9946 918.7061L524.7915 918.7061L524.7915 913.628ZM541.38525 912.97174Q541.38525 909.84674 542.2134 907.0186Q543.0415 904.17487 544.6665 902.003Q546.3071 899.8155 548.19775 898.97174L548.9634 901.09674Q546.9634 902.5811 545.8384 905.67487Q544.729 908.753 544.729 912.8936L544.729 913.3155Q544.729 917.4561 545.8384 920.5655Q546.94775 923.65924 548.9634 925.1905L548.19775 927.28424Q546.3384 926.4561 544.729 924.3311Q543.13525 922.22174 542.2759 919.47174Q541.4321 916.7061 541.38525 913.6905L541.38525 912.97174ZM571.6821 902.628L574.0259 902.628L574.0259 915.04987L570.6821 915.04987L570.6821 914.3936L565.82275 914.3936L565.82275 915.53424L577.3071 915.53424L577.3071 918.7686L565.82275 918.7686L565.82275 923.36237L562.479 923.36237L562.479 918.7686L551.2134 918.7686L551.2134 915.53424L562.479 915.53424L562.479 914.3936L557.729 914.3936L557.729 915.2686L554.38525 915.2686L554.38525 902.628L567.6665 902.628L571.32275 897.03424L573.9009 898.79987Q575.7446 900.28424 573.51025 900.28424L571.6821 902.628ZM563.51025 897.3311Q566.0259 899.4405 567.0884 901.40924L564.0571 903.628Q562.9165 901.48737 560.7446 899.4405L563.51025 897.3311ZM562.479 907.003L562.479 905.86237L557.729 905.86237L557.729 907.003L562.479 907.003ZM570.6821 907.003L570.6821 905.86237L565.82275 905.86237L565.82275 907.003L570.6821 907.003ZM562.479 911.15924L562.479 910.23737L557.729 910.23737L557.729 911.15924L562.479 911.15924ZM570.6821 911.15924L570.6821 910.23737L565.82275 910.23737L565.82275 911.15924L570.6821 911.15924ZM557.0259 903.7061Q555.9165 901.48737 553.9634 899.65924L556.7446 897.53424Q558.9321 899.5655 560.104 901.7686L557.0259 903.7061ZM586.0259 916.2686Q591.6821 911.0655 593.8071 905.97174L587.2134 905.97174L587.2134 902.73737L594.6509 902.73737L594.6509 897.2686L597.3384 897.2686Q599.729 897.5655 597.9946 898.79987L597.9946 902.73737L605.8696 902.73737L605.8696 905.97174L598.8696 905.97174Q600.32275 910.3155 606.7134 916.253L604.4946 919.40924Q599.229 914.15924 597.9946 911.54987L597.9946 914.7686L601.1665 914.7686L601.1665 918.003L597.9946 918.003L597.9946 923.36237L594.6509 923.36237L594.6509 918.003L591.8071 918.003L591.8071 914.7686L594.6509 914.7686L594.6509 911.67487Q593.07275 915.15924 588.3696 919.23737L586.0259 916.2686ZM588.1665 899.67487Q587.69775 902.15924 586.9009 904.1905Q588.4634 904.7686 586.729 905.6436L586.729 923.5811L583.38525 923.5811L583.5571 911.1436Q583.6821 911.3155 581.94775 913.04987L579.7446 910.22174Q583.63525 904.9405 585.1665 896.9561L588.2915 898.09674Q589.9946 899.4561 588.1665 899.67487ZM618.63525 921.0655L614.6821 921.0655L614.6821 905.8311L609.9634 907.29987L609.9634 904.0811L618.2134 901.128L618.63525 901.128L618.63525 921.0655ZM625.6196 911.2686L626.7759 901.15924L637.9321 901.15924L637.9321 904.4561L630.01025 904.4561L629.5259 908.73737Q630.9321 907.98737 632.51025 907.98737Q635.354 907.98737 636.9634 909.753Q638.5884 911.503 638.5884 914.67487Q638.5884 916.61237 637.7759 918.1436Q636.9634 919.65924 635.4321 920.503Q633.9165 921.34674 631.854 921.34674Q630.0571 921.34674 628.51025 920.61237Q626.9634 919.878 626.0571 918.54987Q625.1665 917.22174 625.1196 915.53424L629.0259 915.53424Q629.1509 916.7686 629.88525 917.47174Q630.63525 918.15924 631.8384 918.15924Q633.1821 918.15924 633.9009 917.1905Q634.63525 916.22174 634.63525 914.4561Q634.63525 912.7686 633.7915 911.86237Q632.9634 910.9561 631.4321 910.9561Q630.0259 910.9561 629.1509 911.7061L628.7759 912.04987L625.6196 911.2686ZM651.76025 900.9561L651.76025 904.2061L651.3696 904.2061Q648.69775 904.253 647.0571 905.61237Q645.4321 906.9561 645.104 909.36237Q646.6821 907.753 649.104 907.753Q651.69775 907.753 653.229 909.61237Q654.76025 911.47174 654.76025 914.503Q654.76025 916.4405 653.9165 918.0186Q653.0884 919.5811 651.5415 920.47174Q650.01025 921.34674 648.0571 921.34674Q644.9165 921.34674 642.979 919.15924Q641.0571 916.9561 641.0571 913.3155L641.0571 911.8936Q641.0571 908.6436 642.2759 906.17487Q643.4946 903.6905 645.7759 902.3311Q648.07275 900.97174 651.104 900.9561L651.76025 900.9561ZM647.9009 910.92487Q646.94775 910.92487 646.1665 911.42487Q645.38525 911.92487 645.01025 912.73737L645.01025 913.9405Q645.01025 915.92487 645.7915 917.04987Q646.57275 918.15924 647.979 918.15924Q649.26025 918.15924 650.0415 917.15924Q650.82275 916.1436 650.82275 914.54987Q650.82275 912.90924 650.0259 911.92487Q649.2446 910.92487 647.9009 910.92487ZM670.1196 906.59674Q672.1196 904.67487 673.57275 902.79987L667.82275 902.79987L666.729 904.3311Q668.6196 905.34674 670.1196 906.59674ZM678.354 902.42487Q674.729 907.65924 671.104 910.3936L680.13525 910.3936L680.13525 922.92487L676.7915 922.92487L676.7915 921.9405L667.9946 921.9405L667.9946 923.253L664.6509 923.253L664.6509 914.79987Q662.1821 916.2061 658.854 917.3936L657.5884 913.753Q663.2134 912.1905 667.44775 908.8311Q666.9321 908.23737 664.7446 906.78424Q662.8384 908.59674 659.729 910.28424L657.5415 907.61237Q663.9946 904.3311 666.4946 897.3936L669.57275 898.0811Q670.9321 899.4561 669.3384 899.6905L669.4009 899.5655L675.479 899.5655L675.8384 898.84674L678.729 900.90924Q680.01025 902.1905 678.354 902.42487ZM676.7915 913.628L667.9946 913.628L667.9946 918.7061L676.7915 918.7061L676.7915 913.628ZM693.479 923.98737Q690.4634 920.59674 687.1665 918.4405L689.479 915.34674Q693.51025 917.73737 696.19775 920.8155L693.479 923.98737ZM726.1196 905.9561Q724.0415 917.8311 711.7915 923.253L708.9634 920.2686Q720.1821 915.6905 722.1665 905.97174L714.44775 905.97174Q712.0571 909.92487 708.9321 912.79987L705.7446 910.72174Q711.854 905.1905 713.5884 897.86237L716.7446 898.9561Q718.6196 899.8936 716.7759 900.5811Q716.4009 901.78424 716.07275 902.40924L722.82275 902.40924L724.0571 901.72174L726.3384 904.003Q727.7915 905.4561 726.1196 905.9561ZM726.13525 903.7061Q724.0884 900.7686 721.9634 899.0655L724.3071 897.0811Q726.57275 899.09674 728.5884 901.78424L726.13525 903.7061ZM729.38525 902.42487Q727.26025 899.7686 725.4321 898.0811L727.5571 895.9561Q729.63525 897.8936 731.51025 900.29987L729.38525 902.42487ZM749.2446 916.47174Q753.104 914.97174 757.5259 908.8936L759.7759 911.9561Q755.2759 918.11237 748.7915 920.6905L747.6196 921.2686L745.229 919.48737L745.57275 918.628L745.57275 900.54987L748.51025 900.54987Q750.6821 901.03424 749.2446 902.2686L749.2446 916.47174ZM733.0884 920.36237Q738.9009 914.7686 738.9009 907.253L738.9009 901.753L741.8384 901.753Q744.01025 902.23737 742.57275 903.47174L742.57275 907.1436Q742.57275 916.5811 736.26025 922.42487L733.0884 920.36237ZM761.9946 912.09674L761.9946 908.53424L787.5415 908.53424L787.5415 912.09674L761.9946 912.09674ZM810.26025 901.09674Q810.9009 901.09674 811.2759 900.72174Q811.6509 900.34674 811.6509 899.7061Q811.6509 899.0655 811.2759 898.6905Q810.9009 898.3155 810.26025 898.3155Q809.6196 898.3155 809.2446 898.6905Q808.8696 899.0655 808.8696 899.7061Q808.8696 900.34674 809.2446 900.72174Q809.6196 901.09674 810.26025 901.09674ZM810.26025 903.34674Q808.7134 903.34674 807.6665 902.29987Q806.6196 901.253 806.6196 899.7061Q806.6196 898.15924 807.6665 897.11237Q808.7134 896.0655 810.26025 896.0655Q811.8071 896.0655 812.854 897.11237Q813.9009 898.15924 813.9009 899.7061Q813.9009 901.253 812.854 902.29987Q811.8071 903.34674 810.26025 903.34674ZM790.104 904.7686L790.104 901.2061L807.0571 901.2061L810.3071 903.5811Q809.729 917.53424 794.5259 921.79987L791.729 918.378Q805.88525 915.09674 806.479 904.7686L790.104 904.7686ZM816.6196 911.2686L817.7759 901.15924L828.9321 901.15924L828.9321 904.4561L821.01025 904.4561L820.5259 908.73737Q821.9321 907.98737 823.51025 907.98737Q826.354 907.98737 827.9634 909.753Q829.5884 911.503 829.5884 914.67487Q829.5884 916.61237 828.7759 918.1436Q827.9634 919.65924 826.4321 920.503Q824.9165 921.34674 822.854 921.34674Q821.0571 921.34674 819.51025 920.61237Q817.9634 919.878 817.0571 918.54987Q816.1665 917.22174 816.1196 915.53424L820.0259 915.53424Q820.1509 916.7686 820.88525 917.47174Q821.63525 918.15924 822.8384 918.15924Q824.1821 918.15924 824.9009 917.1905Q825.63525 916.22174 825.63525 914.4561Q825.63525 912.7686 824.7915 911.86237Q823.9634 910.9561 822.4321 910.9561Q821.0259 910.9561 820.1509 911.7061L819.7759 912.04987L816.6196 911.2686ZM841.2759 913.11237Q839.729 914.628 837.6665 914.628Q835.0259 914.628 833.4321 912.8155Q831.854 911.003 831.854 907.92487Q831.854 905.97174 832.7134 904.34674Q833.57275 902.7061 835.104 901.79987Q836.63525 900.878 838.5415 900.878Q840.51025 900.878 842.0415 901.86237Q843.57275 902.84674 844.4165 904.7061Q845.2759 906.54987 845.2915 908.92487L845.2915 910.3936Q845.2915 915.36237 842.8071 918.2061Q840.3384 921.04987 835.7915 921.23737L834.82275 921.253L834.82275 917.9561L835.69775 917.9405Q840.854 917.72174 841.2759 913.11237ZM838.63525 911.59674Q839.604 911.59674 840.2915 911.11237Q840.979 910.61237 841.3384 909.92487L841.3384 908.29987Q841.3384 906.28424 840.57275 905.17487Q839.8071 904.0655 838.51025 904.0655Q837.32275 904.0655 836.5571 905.15924Q835.7915 906.23737 835.7915 907.878Q835.7915 909.5186 836.5415 910.5655Q837.2915 911.59674 838.63525 911.59674ZM861.1196 906.59674Q863.1196 904.67487 864.57275 902.79987L858.82275 902.79987L857.729 904.3311Q859.6196 905.34674 861.1196 906.59674ZM869.354 902.42487Q865.729 907.65924 862.104 910.3936L871.13525 910.3936L871.13525 922.92487L867.7915 922.92487L867.7915 921.9405L858.9946 921.9405L858.9946 923.253L855.6509 923.253L855.6509 914.79987Q853.1821 916.2061 849.854 917.3936L848.5884 913.753Q854.2134 912.1905 858.44775 908.8311Q857.9321 908.23737 855.7446 906.78424Q853.8384 908.59674 850.729 910.28424L848.5415 907.61237Q854.9946 904.3311 857.4946 897.3936L860.57275 898.0811Q861.9321 899.4561 860.3384 899.6905L860.4009 899.5655L866.479 899.5655L866.8384 898.84674L869.729 900.90924Q871.01025 902.1905 869.354 902.42487ZM867.7915 913.628L858.9946 913.628L858.9946 918.7061L867.7915 918.7061L867.7915 913.628ZM884.01025 913.28424Q884.01025 916.378 883.1196 919.23737Q882.229 922.09674 880.5571 924.28424Q878.9009 926.47174 876.9946 927.28424L876.229 925.1905Q878.1665 923.73737 879.2915 920.6905Q880.4165 917.628 880.44775 913.67487L880.44775 912.9405Q880.44775 908.86237 879.3384 905.753Q878.229 902.628 876.229 901.0655L876.9946 898.97174Q878.854 899.78424 880.4946 901.90924Q882.1509 904.0186 883.0571 906.8311Q883.9634 909.6436 884.01025 912.67487L884.01025 913.28424Z" fill-rule="nonzero"/><path fill="#ffffff" d="M470.68213 921.0655L457.0415 921.0655L457.0415 918.36237L463.479 911.48737Q464.80713 910.04987 465.43213 908.97174Q466.07275 907.878 466.07275 906.90924Q466.07275 905.5811 465.40088 904.8311Q464.729 904.0655 463.49463 904.0655Q462.15088 904.0655 461.36963 904.98737Q460.604 905.90924 460.604 907.42487L456.63525 907.42487Q456.63525 905.59674 457.49463 904.09674Q458.36963 902.59674 459.94775 901.73737Q461.5415 900.878 463.55713 900.878Q466.63525 900.878 468.33838 902.36237Q470.0415 903.8311 470.0415 906.53424Q470.0415 908.003 469.27588 909.53424Q468.51025 911.0655 466.65088 913.11237L462.11963 917.878L470.68213 917.878L470.68213 921.0655ZM482.63525 921.0655L478.68213 921.0655L478.68213 905.8311L473.96338 907.29987L473.96338 904.0811L482.21338 901.128L482.63525 901.128L482.63525 921.0655ZM489.61963 911.2686L490.77588 901.15924L501.93213 901.15924L501.93213 904.4561L494.01025 904.4561L493.52588 908.73737Q494.93213 907.98737 496.51025 907.98737Q499.354 907.98737 500.96338 909.753Q502.58838 911.503 502.58838 914.67487Q502.58838 916.61237 501.77588 918.1436Q500.96338 919.65924 499.43213 920.503Q497.9165 921.34674 495.854 921.34674Q494.05713 921.34674 492.51025 920.61237Q490.96338 919.878 490.05713 918.54987Q489.1665 917.22174 489.11963 915.53424L493.02588 915.53424Q493.15088 916.7686 493.88525 917.47174Q494.63525 918.15924 495.83838 918.15924Q497.18213 918.15924 497.90088 917.1905Q498.63525 916.22174 498.63525 914.4561Q498.63525 912.7686 497.7915 911.86237Q496.96338 910.9561 495.43213 910.9561Q494.02588 910.9561 493.15088 911.7061L492.77588 912.04987L489.61963 911.2686Z" fill-rule="nonzero"/><path fill="#ffffff" d="M518.1196 906.59674Q520.1196 904.67487 521.57275 902.79987L515.82275 902.79987L514.729 904.3311Q516.6196 905.34674 518.1196 906.59674ZM526.354 902.42487Q522.729 907.65924 519.104 910.3936L528.13525 910.3936L528.13525 922.92487L524.7915 922.92487L524.7915 921.9405L515.9946 921.9405L515.9946 923.253L512.6509 923.253L512.6509 914.79987Q510.18213 916.2061 506.854 917.3936L505.58838 913.753Q511.21338 912.1905 515.44775 908.8311Q514.9321 908.23737 512.7446 906.78424Q510.83838 908.59674 507.729 910.28424L505.5415 907.61237Q511.99463 904.3311 514.4946 897.3936L517.57275 898.0811Q518.9321 899.4561 517.3384 899.6905L517.4009 899.5655L523.479 899.5655L523.8384 898.84674L526.729 900.90924Q528.01025 902.1905 526.354 902.42487ZM524.7915 913.628L515.9946 913.628L515.9946 918.7061L524.7915 918.7061L524.7915 913.628Z" fill-rule="nonzero"/><path fill="#ffffff" d="M541.38525 912.97174Q541.38525 909.84674 542.2134 907.0186Q543.0415 904.17487 544.6665 902.003Q546.3071 899.8155 548.19775 898.97174L548.9634 901.09674Q546.9634 902.5811 545.8384 905.67487Q544.729 908.753 544.729 912.8936L544.729 913.3155Q544.729 917.4561 545.8384 920.5655Q546.94775 923.65924 548.9634 925.1905L548.19775 927.28424Q546.3384 926.4561 544.729 924.3311Q543.13525 922.22174 542.2759 919.47174Q541.4321 916.7061 541.38525 913.6905L541.38525 912.97174Z" fill-rule="nonzero"/><path fill="#ffffff" d="M571.6821 902.628L574.0259 902.628L574.0259 915.04987L570.6821 915.04987L570.6821 914.3936L565.82275 914.3936L565.82275 915.53424L577.3071 915.53424L577.3071 918.7686L565.82275 918.7686L565.82275 923.36237L562.479 923.36237L562.479 918.7686L551.2134 918.7686L551.2134 915.53424L562.479 915.53424L562.479 914.3936L557.729 914.3936L557.729 915.2686L554.38525 915.2686L554.38525 902.628L567.6665 902.628L571.32275 897.03424L573.9009 898.79987Q575.7446 900.28424 573.51025 900.28424L571.6821 902.628ZM563.51025 897.3311Q566.0259 899.4405 567.0884 901.40924L564.0571 903.628Q562.9165 901.48737 560.7446 899.4405L563.51025 897.3311ZM562.479 907.003L562.479 905.86237L557.729 905.86237L557.729 907.003L562.479 907.003ZM570.6821 907.003L570.6821 905.86237L565.82275 905.86237L565.82275 907.003L570.6821 907.003ZM562.479 911.15924L562.479 910.23737L557.729 910.23737L557.729 911.15924L562.479 911.15924ZM570.6821 911.15924L570.6821 910.23737L565.82275 910.23737L565.82275 911.15924L570.6821 911.15924ZM557.0259 903.7061Q555.9165 901.48737 553.9634 899.65924L556.7446 897.53424Q558.9321 899.5655 560.104 901.7686L557.0259 903.7061ZM586.0259 916.2686Q591.6821 911.0655 593.8071 905.97174L587.2134 905.97174L587.2134 902.73737L594.6509 902.73737L594.6509 897.2686L597.3384 897.2686Q599.729 897.5655 597.9946 898.79987L597.9946 902.73737L605.8696 902.73737L605.8696 905.97174L598.8696 905.97174Q600.32275 910.3155 606.7134 916.253L604.4946 919.40924Q599.229 914.15924 597.9946 911.54987L597.9946 914.7686L601.1665 914.7686L601.1665 918.003L597.9946 918.003L597.9946 923.36237L594.6509 923.36237L594.6509 918.003L591.8071 918.003L591.8071 914.7686L594.6509 914.7686L594.6509 911.67487Q593.07275 915.15924 588.3696 919.23737L586.0259 916.2686ZM588.1665 899.67487Q587.69775 902.15924 586.9009 904.1905Q588.4634 904.7686 586.729 905.6436L586.729 923.5811L583.38525 923.5811L583.5571 911.1436Q583.6821 911.3155 581.94775 913.04987L579.7446 910.22174Q583.63525 904.9405 585.1665 896.9561L588.2915 898.09674Q589.9946 899.4561 588.1665 899.67487Z" fill-rule="nonzero"/><path fill="#ffffff" d="M618.63525 921.0655L614.6821 921.0655L614.6821 905.8311L609.9634 907.29987L609.9634 904.0811L618.2134 901.128L618.63525 901.128L618.63525 921.0655ZM625.6196 911.2686L626.7759 901.15924L637.9321 901.15924L637.9321 904.4561L630.01025 904.4561L629.5259 908.73737Q630.9321 907.98737 632.51025 907.98737Q635.354 907.98737 636.9634 909.753Q638.5884 911.503 638.5884 914.67487Q638.5884 916.61237 637.7759 918.1436Q636.9634 919.65924 635.4321 920.503Q633.9165 921.34674 631.854 921.34674Q630.0571 921.34674 628.51025 920.61237Q626.9634 919.878 626.0571 918.54987Q625.1665 917.22174 625.1196 915.53424L629.0259 915.53424Q629.1509 916.7686 629.88525 917.47174Q630.63525 918.15924 631.8384 918.15924Q633.1821 918.15924 633.9009 917.1905Q634.63525 916.22174 634.63525 914.4561Q634.63525 912.7686 633.7915 911.86237Q632.9634 910.9561 631.4321 910.9561Q630.0259 910.9561 629.1509 911.7061L628.7759 912.04987L625.6196 911.2686ZM651.76025 900.9561L651.76025 904.2061L651.3696 904.2061Q648.69775 904.253 647.0571 905.61237Q645.4321 906.9561 645.104 909.36237Q646.6821 907.753 649.104 907.753Q651.69775 907.753 653.229 909.61237Q654.76025 911.47174 654.76025 914.503Q654.76025 916.4405 653.9165 918.0186Q653.0884 919.5811 651.5415 920.47174Q650.01025 921.34674 648.0571 921.34674Q644.9165 921.34674 642.979 919.15924Q641.0571 916.9561 641.0571 913.3155L641.0571 911.8936Q641.0571 908.6436 642.2759 906.17487Q643.4946 903.6905 645.7759 902.3311Q648.07275 900.97174 651.104 900.9561L651.76025 900.9561ZM647.9009 910.92487Q646.94775 910.92487 646.1665 911.42487Q645.38525 911.92487 645.01025 912.73737L645.01025 913.9405Q645.01025 915.92487 645.7915 917.04987Q646.57275 918.15924 647.979 918.15924Q649.26025 918.15924 650.0415 917.15924Q650.82275 916.1436 650.82275 914.54987Q650.82275 912.90924 650.0259 911.92487Q649.2446 910.92487 647.9009 910.92487Z" fill-rule="nonzero"/><path fill="#ffffff" d="M670.1196 906.59674Q672.1196 904.67487 673.57275 902.79987L667.82275 902.79987L666.729 904.3311Q668.6196 905.34674 670.1196 906.59674ZM678.354 902.42487Q674.729 907.65924 671.104 910.3936L680.13525 910.3936L680.13525 922.92487L676.7915 922.92487L676.7915 921.9405L667.9946 921.9405L667.9946 923.253L664.6509 923.253L664.6509 914.79987Q662.1821 916.2061 658.854 917.3936L657.5884 913.753Q663.2134 912.1905 667.44775 908.8311Q666.9321 908.23737 664.7446 906.78424Q662.8384 908.59674 659.729 910.28424L657.5415 907.61237Q663.9946 904.3311 666.4946 897.3936L669.57275 898.0811Q670.9321 899.4561 669.3384 899.6905L669.4009 899.5655L675.479 899.5655L675.8384 898.84674L678.729 900.90924Q680.01025 902.1905 678.354 902.42487ZM676.7915 913.628L667.9946 913.628L667.9946 918.7061L676.7915 918.7061L676.7915 913.628ZM693.479 923.98737Q690.4634 920.59674 687.1665 918.4405L689.479 915.34674Q693.51025 917.73737 696.19775 920.8155L693.479 923.98737ZM726.1196 905.9561Q724.0415 917.8311 711.7915 923.253L708.9634 920.2686Q720.1821 915.6905 722.1665 905.97174L714.44775 905.97174Q712.0571 909.92487 708.9321 912.79987L705.7446 910.72174Q711.854 905.1905 713.5884 897.86237L716.7446 898.9561Q718.6196 899.8936 716.7759 900.5811Q716.4009 901.78424 716.07275 902.40924L722.82275 902.40924L724.0571 901.72174L726.3384 904.003Q727.7915 905.4561 726.1196 905.9561ZM726.13525 903.7061Q724.0884 900.7686 721.9634 899.0655L724.3071 897.0811Q726.57275 899.09674 728.5884 901.78424L726.13525 903.7061ZM729.38525 902.42487Q727.26025 899.7686 725.4321 898.0811L727.5571 895.9561Q729.63525 897.8936 731.51025 900.29987L729.38525 902.42487ZM749.2446 916.47174Q753.104 914.97174 757.5259 908.8936L759.7759 911.9561Q755.2759 918.11237 748.7915 920.6905L747.6196 921.2686L745.229 919.48737L745.57275 918.628L745.57275 900.54987L748.51025 900.54987Q750.6821 901.03424 749.2446 902.2686L749.2446 916.47174ZM733.0884 920.36237Q738.9009 914.7686 738.9009 907.253L738.9009 901.753L741.8384 901.753Q744.01025 902.23737 742.57275 903.47174L742.57275 907.1436Q742.57275 916.5811 736.26025 922.42487L733.0884 920.36237ZM761.9946 912.09674L761.9946 908.53424L787.5415 908.53424L787.5415 912.09674L761.9946 912.09674ZM810.26025 901.09674Q810.9009 901.09674 811.2759 900.72174Q811.6509 900.34674 811.6509 899.7061Q811.6509 899.0655 811.2759 898.6905Q810.9009 898.3155 810.26025 898.3155Q809.6196 898.3155 809.2446 898.6905Q808.8696 899.0655 808.8696 899.7061Q808.8696 900.34674 809.2446 900.72174Q809.6196 901.09674 810.26025 901.09674ZM810.26025 903.34674Q808.7134 903.34674 807.6665 902.29987Q806.6196 901.253 806.6196 899.7061Q806.6196 898.15924 807.6665 897.11237Q808.7134 896.0655 810.26025 896.0655Q811.8071 896.0655 812.854 897.11237Q813.9009 898.15924 813.9009 899.7061Q813.9009 901.253 812.854 902.29987Q811.8071 903.34674 810.26025 903.34674ZM790.104 904.7686L790.104 901.2061L807.0571 901.2061L810.3071 903.5811Q809.729 917.53424 794.5259 921.79987L791.729 918.378Q805.88525 915.09674 806.479 904.7686L790.104 904.7686Z" fill-rule="nonzero"/><path fill="#ffffff" d="M816.6196 911.2686L817.7759 901.15924L828.9321 901.15924L828.9321 904.4561L821.01025 904.4561L820.5259 908.73737Q821.9321 907.98737 823.51025 907.98737Q826.354 907.98737 827.9634 909.753Q829.5884 911.503 829.5884 914.67487Q829.5884 916.61237 828.7759 918.1436Q827.9634 919.65924 826.4321 920.503Q824.9165 921.34674 822.854 921.34674Q821.0571 921.34674 819.51025 920.61237Q817.9634 919.878 817.0571 918.54987Q816.1665 917.22174 816.1196 915.53424L820.0259 915.53424Q820.1509 916.7686 820.88525 917.47174Q821.63525 918.15924 822.8384 918.15924Q824.1821 918.15924 824.9009 917.1905Q825.63525 916.22174 825.63525 914.4561Q825.63525 912.7686 824.7915 911.86237Q823.9634 910.9561 822.4321 910.9561Q821.0259 910.9561 820.1509 911.7061L819.7759 912.04987L816.6196 911.2686ZM841.2759 913.11237Q839.729 914.628 837.6665 914.628Q835.0259 914.628 833.4321 912.8155Q831.854 911.003 831.854 907.92487Q831.854 905.97174 832.7134 904.34674Q833.57275 902.7061 835.104 901.79987Q836.63525 900.878 838.5415 900.878Q840.51025 900.878 842.0415 901.86237Q843.57275 902.84674 844.4165 904.7061Q845.2759 906.54987 845.2915 908.92487L845.2915 910.3936Q845.2915 915.36237 842.8071 918.2061Q840.3384 921.04987 835.7915 921.23737L834.82275 921.253L834.82275 917.9561L835.69775 917.9405Q840.854 917.72174 841.2759 913.11237ZM838.63525 911.59674Q839.604 911.59674 840.2915 911.11237Q840.979 910.61237 841.3384 909.92487L841.3384 908.29987Q841.3384 906.28424 840.57275 905.17487Q839.8071 904.0655 838.51025 904.0655Q837.32275 904.0655 836.5571 905.15924Q835.7915 906.23737 835.7915 907.878Q835.7915 909.5186 836.5415 910.5655Q837.2915 911.59674 838.63525 911.59674Z" fill-rule="nonzero"/><path fill="#ffffff" d="M861.1196 906.59674Q863.1196 904.67487 864.57275 902.79987L858.82275 902.79987L857.729 904.3311Q859.6196 905.34674 861.1196 906.59674ZM869.354 902.42487Q865.729 907.65924 862.104 910.3936L871.13525 910.3936L871.13525 922.92487L867.7915 922.92487L867.7915 921.9405L858.9946 921.9405L858.9946 923.253L855.6509 923.253L855.6509 914.79987Q853.1821 916.2061 849.854 917.3936L848.5884 913.753Q854.2134 912.1905 858.44775 908.8311Q857.9321 908.23737 855.7446 906.78424Q853.8384 908.59674 850.729 910.28424L848.5415 907.61237Q854.9946 904.3311 857.4946 897.3936L860.57275 898.0811Q861.9321 899.4561 860.3384 899.6905L860.4009 899.5655L866.479 899.5655L866.8384 898.84674L869.729 900.90924Q871.01025 902.1905 869.354 902.42487ZM867.7915 913.628L858.9946 913.628L858.9946 918.7061L867.7915 918.7061L867.7915 913.628Z" fill-rule="nonzero"/><path fill="#ffffff" d="M884.01025 913.28424Q884.01025 916.378 883.1196 919.23737Q882.229 922.09674 880.5571 924.28424Q878.9009 926.47174 876.9946 927.28424L876.229 925.1905Q878.1665 923.73737 879.2915 920.6905Q880.4165 917.628 880.44775 913.67487L880.44775 912.9405Q880.44775 908.86237 879.3384 905.753Q878.229 902.628 876.229 901.0655L876.9946 898.97174Q878.854 899.78424 880.4946 901.90924Q882.1509 904.0186 883.0571 906.8311Q883.9634 909.6436 884.01025 912.67487L884.01025 913.28424Z" fill-rule="nonzero"/><path fill="#000000" d="M73.82188 221.37877L73.82188 225.2069L59.4 225.2069Q59.634377 223.03502 60.80625 221.09752Q61.978127 219.16002 65.43125 215.94127Q68.2125 213.36314 68.85313 212.42564Q69.69688 211.16002 69.69688 209.91002Q69.69688 208.53502 68.94688 207.80064Q68.2125 207.05064 66.91563 207.05064Q65.61875 207.05064 64.85313 207.8319Q64.10313 208.61314 63.978127 210.41002L59.884377 210.00377Q60.24375 206.59752 62.18125 205.12877Q64.11875 203.6444 67.00938 203.6444Q70.19688 203.6444 72.00938 205.36314Q73.82188 207.06627 73.82188 209.61314Q73.82188 211.06627 73.30625 212.37877Q72.79063 213.69127 71.66563 215.12877Q70.91563 216.0819 68.9625 217.87877Q67.00938 219.66002 66.49375 220.25377Q65.97813 220.8319 65.65 221.37877L73.82188 221.37877ZM83.88438 203.6444Q87.00938 203.6444 88.75938 205.86314Q90.85313 208.50377 90.85313 214.61314Q90.85313 220.7069 88.74375 223.37877Q87.00938 225.56627 83.88438 225.56627Q80.74375 225.56627 78.82188 223.16002Q76.91563 220.75377 76.91563 214.56627Q76.91563 208.50377 79.025 205.84752Q80.75938 203.6444 83.88438 203.6444ZM83.88438 207.05064Q83.13438 207.05064 82.54063 207.53502Q81.9625 208.00377 81.63438 209.23814Q81.2125 210.8319 81.2125 214.61314Q81.2125 218.3944 81.5875 219.81627Q81.97813 221.22252 82.55625 221.69127Q83.13438 222.16002 83.88438 222.16002Q84.63438 222.16002 85.2125 221.69127Q85.80625 221.2069 86.11875 219.97252Q86.55625 218.3944 86.55625 214.61314Q86.55625 210.8319 86.16563 209.42564Q85.79063 208.00377 85.2125 207.53502Q84.63438 207.05064 83.88438 207.05064ZM104.4625 225.2069L100.3375 225.2069L100.3375 209.69127Q98.0875 211.80064 95.025 212.81627L95.025 209.0819Q96.63438 208.55064 98.525 207.0819Q100.41563 205.61314 101.11875 203.6444L104.4625 203.6444L104.4625 225.2069ZM111.00938 220.23814L114.99375 219.80064Q115.15 221.0194 115.75938 221.61314Q116.36875 222.19127 117.38438 222.19127Q118.66563 222.19127 119.55625 221.0194Q120.44688 219.84752 120.69688 216.16002Q119.15 217.9569 116.80625 217.9569Q114.275 217.9569 112.43125 216.00377Q110.60313 214.05064 110.60313 210.91002Q110.60313 207.6444 112.54063 205.6444Q114.47813 203.6444 117.49375 203.6444Q120.75938 203.6444 122.85313 206.17564Q124.94688 208.69127 124.94688 214.48814Q124.94688 220.37877 122.75938 222.98814Q120.57188 225.5819 117.07188 225.5819Q114.55625 225.5819 112.99375 224.25377Q111.44688 222.91002 111.00938 220.23814ZM120.32188 211.25377Q120.32188 209.25377 119.4 208.16002Q118.49375 207.05064 117.29063 207.05064Q116.15 207.05064 115.4 207.9569Q114.65 208.86314 114.65 210.91002Q114.65 212.98814 115.4625 213.97252Q116.29063 214.94127 117.50938 214.94127Q118.69688 214.94127 119.50938 214.00377Q120.32188 213.06627 120.32188 211.25377Z" fill-rule="nonzero"/><path fill="#000000" d="M137.00937 206.92564Q134.91562 210.5819 131.04062 213.61314L128.61874 210.50377Q133.75937 206.73814 135.63437 199.67564L139.0875 200.5819Q140.55624 202.06627 138.85312 202.30064L138.4 203.44127L154.61874 203.44127L154.61874 206.92564L146.07187 206.92564L146.07187 209.66002L153.10312 209.66002L153.10312 213.12877L146.07187 213.12877L146.07187 217.16002L155.91562 217.16002L155.91562 220.62877L146.07187 220.62877L146.07187 227.67564L142.47812 227.67564L142.47812 220.62877L128.99374 220.62877L128.99374 217.16002L134.275 217.16002L134.275 209.66002L142.47812 209.66002L142.47812 206.92564L137.00937 206.92564ZM137.86874 217.16002L142.47812 217.16002L142.47812 213.12877L137.86874 213.12877L137.86874 217.16002Z" fill-rule="nonzero"/><path fill="#000000" d="M73.82188 452.5742L73.82188 456.4023L59.4 456.4023Q59.634377 454.23044 60.80625 452.29294Q61.978127 450.35544 65.43125 447.1367Q68.2125 444.55856 68.85313 443.62106Q69.69688 442.35544 69.69688 441.10544Q69.69688 439.73044 68.94688 438.99606Q68.2125 438.24606 66.91563 438.24606Q65.61875 438.24606 64.85313 439.0273Q64.10313 439.80856 63.978127 441.60544L59.884377 441.1992Q60.24375 437.79294 62.18125 436.3242Q64.11875 434.8398 67.00938 434.8398Q70.19688 434.8398 72.00938 436.55856Q73.82188 438.2617 73.82188 440.80856Q73.82188 442.2617 73.30625 443.5742Q72.79063 444.8867 71.66563 446.3242Q70.91563 447.2773 68.9625 449.0742Q67.00938 450.85544 66.49375 451.4492Q65.97813 452.0273 65.65 452.5742L73.82188 452.5742ZM83.88438 434.8398Q87.00938 434.8398 88.75938 437.05856Q90.85313 439.6992 90.85313 445.80856Q90.85313 451.9023 88.74375 454.5742Q87.00938 456.7617 83.88438 456.7617Q80.74375 456.7617 78.82188 454.35544Q76.91563 451.9492 76.91563 445.7617Q76.91563 439.6992 79.025 437.04294Q80.75938 434.8398 83.88438 434.8398ZM83.88438 438.24606Q83.13438 438.24606 82.54063 438.73044Q81.9625 439.1992 81.63438 440.43356Q81.2125 442.0273 81.2125 445.80856Q81.2125 449.5898 81.5875 451.0117Q81.97813 452.41794 82.55625 452.8867Q83.13438 453.35544 83.88438 453.35544Q84.63438 453.35544 85.2125 452.8867Q85.80625 452.4023 86.11875 451.16794Q86.55625 449.5898 86.55625 445.80856Q86.55625 442.0273 86.16563 440.62106Q85.79063 439.1992 85.2125 438.73044Q84.63438 438.24606 83.88438 438.24606ZM107.82188 452.5742L107.82188 456.4023L93.4 456.4023Q93.63438 454.23044 94.80625 452.29294Q95.97813 450.35544 99.43125 447.1367Q102.2125 444.55856 102.85313 443.62106Q103.69688 442.35544 103.69688 441.10544Q103.69688 439.73044 102.94688 438.99606Q102.2125 438.24606 100.91563 438.24606Q99.61875 438.24606 98.85313 439.0273Q98.10313 439.80856 97.97813 441.60544L93.88438 441.1992Q94.24375 437.79294 96.18125 436.3242Q98.11875 434.8398 101.00938 434.8398Q104.19688 434.8398 106.00938 436.55856Q107.82188 438.2617 107.82188 440.80856Q107.82188 442.2617 107.30625 443.5742Q106.79063 444.8867 105.66563 446.3242Q104.91563 447.2773 102.9625 449.0742Q101.00938 450.85544 100.49375 451.4492Q99.97813 452.0273 99.65 452.5742L107.82188 452.5742ZM117.88438 434.8398Q121.00938 434.8398 122.75938 437.05856Q124.85313 439.6992 124.85313 445.80856Q124.85313 451.9023 122.74375 454.5742Q121.00938 456.7617 117.88438 456.7617Q114.74375 456.7617 112.82188 454.35544Q110.91563 451.9492 110.91563 445.7617Q110.91563 439.6992 113.025 437.04294Q114.75938 434.8398 117.88438 434.8398ZM117.88438 438.24606Q117.13438 438.24606 116.54063 438.73044Q115.9625 439.1992 115.63438 440.43356Q115.2125 442.0273 115.2125 445.80856Q115.2125 449.5898 115.5875 451.0117Q115.97813 452.41794 116.55625 452.8867Q117.13438 453.35544 117.88438 453.35544Q118.63438 453.35544 119.2125 452.8867Q119.80625 452.4023 120.11875 451.16794Q120.55625 449.5898 120.55625 445.80856Q120.55625 442.0273 120.16563 440.62106Q119.79063 439.1992 119.2125 438.73044Q118.63438 438.24606 117.88438 438.24606Z" fill-rule="nonzero"/><path fill="#000000" d="M137.00937 438.12106Q134.91562 441.7773 131.04062 444.80856L128.61874 441.6992Q133.75937 437.93356 135.63437 430.87106L139.0875 431.7773Q140.55624 433.2617 138.85312 433.49606L138.4 434.6367L154.61874 434.6367L154.61874 438.12106L146.07187 438.12106L146.07187 440.85544L153.10312 440.85544L153.10312 444.3242L146.07187 444.3242L146.07187 448.35544L155.91562 448.35544L155.91562 451.8242L146.07187 451.8242L146.07187 458.87106L142.47812 458.87106L142.47812 451.8242L128.99374 451.8242L128.99374 448.35544L134.275 448.35544L134.275 440.85544L142.47812 440.85544L142.47812 438.12106L137.00937 438.12106ZM137.86874 448.35544L142.47812 448.35544L142.47812 444.3242L137.86874 444.3242L137.86874 448.35544Z" fill-rule="nonzero"/><path fill="#000000" d="M73.82188 683.7696L73.82188 687.5977L59.4 687.5977Q59.634377 685.42584 60.80625 683.48834Q61.978127 681.55084 65.43125 678.3321Q68.2125 675.75397 68.85313 674.81647Q69.69688 673.55084 69.69688 672.30084Q69.69688 670.92584 68.94688 670.19147Q68.2125 669.44147 66.91563 669.44147Q65.61875 669.44147 64.85313 670.2227Q64.10313 671.00397 63.978127 672.80084L59.884377 672.3946Q60.24375 668.98834 62.18125 667.5196Q64.11875 666.0352 67.00938 666.0352Q70.19688 666.0352 72.00938 667.75397Q73.82188 669.4571 73.82188 672.00397Q73.82188 673.4571 73.30625 674.7696Q72.79063 676.0821 71.66563 677.5196Q70.91563 678.4727 68.9625 680.2696Q67.00938 682.05084 66.49375 682.6446Q65.97813 683.2227 65.65 683.7696L73.82188 683.7696ZM83.88438 666.0352Q87.00938 666.0352 88.75938 668.25397Q90.85313 670.8946 90.85313 677.00397Q90.85313 683.0977 88.74375 685.7696Q87.00938 687.9571 83.88438 687.9571Q80.74375 687.9571 78.82188 685.55084Q76.91563 683.1446 76.91563 676.9571Q76.91563 670.8946 79.025 668.23834Q80.75938 666.0352 83.88438 666.0352ZM83.88438 669.44147Q83.13438 669.44147 82.54063 669.92584Q81.9625 670.3946 81.63438 671.62897Q81.2125 673.2227 81.2125 677.00397Q81.2125 680.7852 81.5875 682.2071Q81.97813 683.61334 82.55625 684.0821Q83.13438 684.55084 83.88438 684.55084Q84.63438 684.55084 85.2125 684.0821Q85.80625 683.5977 86.11875 682.36334Q86.55625 680.7852 86.55625 677.00397Q86.55625 673.2227 86.16563 671.81647Q85.79063 670.3946 85.2125 669.92584Q84.63438 669.44147 83.88438 669.44147ZM107.82188 683.7696L107.82188 687.5977L93.4 687.5977Q93.63438 685.42584 94.80625 683.48834Q95.97813 681.55084 99.43125 678.3321Q102.2125 675.75397 102.85313 674.81647Q103.69688 673.55084 103.69688 672.30084Q103.69688 670.92584 102.94688 670.19147Q102.2125 669.44147 100.91563 669.44147Q99.61875 669.44147 98.85313 670.2227Q98.10313 671.00397 97.97813 672.80084L93.88438 672.3946Q94.24375 668.98834 96.18125 667.5196Q98.11875 666.0352 101.00938 666.0352Q104.19688 666.0352 106.00938 667.75397Q107.82188 669.4571 107.82188 672.00397Q107.82188 673.4571 107.30625 674.7696Q106.79063 676.0821 105.66563 677.5196Q104.91563 678.4727 102.9625 680.2696Q101.00938 682.05084 100.49375 682.6446Q99.97813 683.2227 99.65 683.7696L107.82188 683.7696ZM121.4625 687.5977L117.3375 687.5977L117.3375 672.0821Q115.0875 674.19147 112.025 675.2071L112.025 671.4727Q113.63438 670.94147 115.525 669.4727Q117.41563 668.00397 118.11875 666.0352L121.4625 666.0352L121.4625 687.5977Z" fill-rule="nonzero"/><path fill="#000000" d="M137.00937 669.31647Q134.91562 672.9727 131.04062 676.00397L128.61874 672.8946Q133.75937 669.12897 135.63437 662.06647L139.0875 662.9727Q140.55624 664.4571 138.85312 664.69147L138.4 665.8321L154.61874 665.8321L154.61874 669.31647L146.07187 669.31647L146.07187 672.05084L153.10312 672.05084L153.10312 675.5196L146.07187 675.5196L146.07187 679.55084L155.91562 679.55084L155.91562 683.0196L146.07187 683.0196L146.07187 690.06647L142.47812 690.06647L142.47812 683.0196L128.99374 683.0196L128.99374 679.55084L134.275 679.55084L134.275 672.05084L142.47812 672.05084L142.47812 669.31647L137.00937 669.31647ZM137.86874 679.55084L142.47812 679.55084L142.47812 675.5196L137.86874 675.5196L137.86874 679.55084Z" fill-rule="nonzero"/><path fill="#000000" d="M73.82188 914.96497L73.82188 918.7931L59.4 918.7931Q59.634377 916.6212 60.80625 914.6837Q61.978127 912.7462 65.43125 909.52747Q68.2125 906.94934 68.85313 906.01184Q69.69688 904.7462 69.69688 903.4962Q69.69688 902.1212 68.94688 901.38684Q68.2125 900.63684 66.91563 900.63684Q65.61875 900.63684 64.85313 901.4181Q64.10313 902.19934 63.978127 903.9962L59.884377 903.58997Q60.24375 900.1837 62.18125 898.71497Q64.11875 897.2306 67.00938 897.2306Q70.19688 897.2306 72.00938 898.94934Q73.82188 900.65247 73.82188 903.19934Q73.82188 904.65247 73.30625 905.96497Q72.79063 907.27747 71.66563 908.71497Q70.91563 909.6681 68.9625 911.46497Q67.00938 913.2462 66.49375 913.83997Q65.97813 914.4181 65.65 914.96497L73.82188 914.96497ZM83.88438 897.2306Q87.00938 897.2306 88.75938 899.44934Q90.85313 902.08997 90.85313 908.19934Q90.85313 914.2931 88.74375 916.96497Q87.00938 919.15247 83.88438 919.15247Q80.74375 919.15247 78.82188 916.7462Q76.91563 914.33997 76.91563 908.15247Q76.91563 902.08997 79.025 899.4337Q80.75938 897.2306 83.88438 897.2306ZM83.88438 900.63684Q83.13438 900.63684 82.54063 901.1212Q81.9625 901.58997 81.63438 902.82434Q81.2125 904.4181 81.2125 908.19934Q81.2125 911.9806 81.5875 913.40247Q81.97813 914.8087 82.55625 915.27747Q83.13438 915.7462 83.88438 915.7462Q84.63438 915.7462 85.2125 915.27747Q85.80625 914.7931 86.11875 913.5587Q86.55625 911.9806 86.55625 908.19934Q86.55625 904.4181 86.16563 903.01184Q85.79063 901.58997 85.2125 901.1212Q84.63438 900.63684 83.88438 900.63684ZM107.82188 914.96497L107.82188 918.7931L93.4 918.7931Q93.63438 916.6212 94.80625 914.6837Q95.97813 912.7462 99.43125 909.52747Q102.2125 906.94934 102.85313 906.01184Q103.69688 904.7462 103.69688 903.4962Q103.69688 902.1212 102.94688 901.38684Q102.2125 900.63684 100.91563 900.63684Q99.61875 900.63684 98.85313 901.4181Q98.10313 902.19934 97.97813 903.9962L93.88438 903.58997Q94.24375 900.1837 96.18125 898.71497Q98.11875 897.2306 101.00938 897.2306Q104.19688 897.2306 106.00938 898.94934Q107.82188 900.65247 107.82188 903.19934Q107.82188 904.65247 107.30625 905.96497Q106.79063 907.27747 105.66563 908.71497Q104.91563 909.6681 102.9625 911.46497Q101.00938 913.2462 100.49375 913.83997Q99.97813 914.4181 99.65 914.96497L107.82188 914.96497ZM124.82188 914.96497L124.82188 918.7931L110.4 918.7931Q110.63438 916.6212 111.80625 914.6837Q112.97813 912.7462 116.43125 909.52747Q119.2125 906.94934 119.85313 906.01184Q120.69688 904.7462 120.69688 903.4962Q120.69688 902.1212 119.94688 901.38684Q119.2125 900.63684 117.91563 900.63684Q116.61875 900.63684 115.85313 901.4181Q115.10313 902.19934 114.97813 903.9962L110.88438 903.58997Q111.24375 900.1837 113.18125 898.71497Q115.11875 897.2306 118.00938 897.2306Q121.19688 897.2306 123.00938 898.94934Q124.82188 900.65247 124.82188 903.19934Q124.82188 904.65247 124.30625 905.96497Q123.79063 907.27747 122.66563 908.71497Q121.91563 909.6681 119.9625 911.46497Q118.00938 913.2462 117.49375 913.83997Q116.97813 914.4181 116.65 914.96497L124.82188 914.96497Z" fill-rule="nonzero"/><path fill="#000000" d="M137.00937 900.51184Q134.91562 904.1681 131.04062 907.19934L128.61874 904.08997Q133.75937 900.32434 135.63437 893.26184L139.0875 894.1681Q140.55624 895.65247 138.85312 895.88684L138.4 897.02747L154.61874 897.02747L154.61874 900.51184L146.07187 900.51184L146.07187 903.2462L153.10312 903.2462L153.10312 906.71497L146.07187 906.71497L146.07187 910.7462L155.91562 910.7462L155.91562 914.21497L146.07187 914.21497L146.07187 921.26184L142.47812 921.26184L142.47812 914.21497L128.99374 914.21497L128.99374 910.7462L134.275 910.7462L134.275 903.2462L142.47812 903.2462L142.47812 900.51184L137.00937 900.51184ZM137.86874 910.7462L142.47812 910.7462L142.47812 906.71497L137.86874 906.71497L137.86874 910.7462Z" fill-rule="nonzero"/><path fill="#000000" d="M172.38437 1085.7875Q175.50937 1085.7875 177.25937 1088.0062Q179.35312 1090.6469 179.35312 1096.7562Q179.35312 1102.85 177.24374 1105.5219Q175.50937 1107.7094 172.38437 1107.7094Q169.24374 1107.7094 167.32187 1105.3031Q165.41562 1102.8969 165.41562 1096.7094Q165.41562 1090.6469 167.525 1087.9906Q169.25937 1085.7875 172.38437 1085.7875ZM172.38437 1089.1937Q171.63437 1089.1937 171.04062 1089.6781Q170.4625 1090.1469 170.13437 1091.3812Q169.7125 1092.975 169.7125 1096.7562Q169.7125 1100.5375 170.0875 1101.9594Q170.47812 1103.3656 171.05624 1103.8344Q171.63437 1104.3031 172.38437 1104.3031Q173.13437 1104.3031 173.7125 1103.8344Q174.30624 1103.35 174.61874 1102.1156Q175.05624 1100.5375 175.05624 1096.7562Q175.05624 1092.975 174.66562 1091.5687Q174.29062 1090.1469 173.7125 1089.6781Q173.13437 1089.1937 172.38437 1089.1937Z" fill-rule="nonzero"/><path fill="#000000" d="M383.91812 1101.8344L388.0275 1101.3969Q388.19937 1102.7875 389.05875 1103.6Q389.93375 1104.4125 391.05875 1104.4125Q392.34 1104.4125 393.23062 1103.3656Q394.13687 1102.3187 394.13687 1100.2094Q394.13687 1098.2406 393.24625 1097.2562Q392.35562 1096.2562 390.93375 1096.2562Q389.16812 1096.2562 387.76187 1097.8344L384.41812 1097.35L386.5275 1086.1625L397.41812 1086.1625L397.41812 1090.0219L389.6525 1090.0219L389.01187 1093.6625Q390.38687 1092.975 391.82437 1092.975Q394.55875 1092.975 396.465 1094.975Q398.37125 1096.9594 398.37125 1100.1469Q398.37125 1102.7875 396.82437 1104.8812Q394.73062 1107.7094 391.01187 1107.7094Q388.04312 1107.7094 386.16812 1106.1156Q384.29312 1104.5219 383.91812 1101.8344ZM407.82437 1085.7875Q410.94937 1085.7875 412.69937 1088.0062Q414.79312 1090.6469 414.79312 1096.7562Q414.79312 1102.85 412.68375 1105.5219Q410.94937 1107.7094 407.82437 1107.7094Q404.68375 1107.7094 402.76187 1105.3031Q400.85562 1102.8969 400.85562 1096.7094Q400.85562 1090.6469 402.965 1087.9906Q404.69937 1085.7875 407.82437 1085.7875ZM407.82437 1089.1937Q407.07437 1089.1937 406.48062 1089.6781Q405.9025 1090.1469 405.57437 1091.3812Q405.1525 1092.975 405.1525 1096.7562Q405.1525 1100.5375 405.5275 1101.9594Q405.91812 1103.3656 406.49625 1103.8344Q407.07437 1104.3031 407.82437 1104.3031Q408.57437 1104.3031 409.1525 1103.8344Q409.74625 1103.35 410.05875 1102.1156Q410.49625 1100.5375 410.49625 1096.7562Q410.49625 1092.975 410.10562 1091.5687Q409.73062 1090.1469 409.1525 1089.6781Q408.57437 1089.1937 407.82437 1089.1937Z" fill-rule="nonzero"/><path fill="#000000" d="M612.8425 1107.35L608.7175 1107.35L608.7175 1091.8344Q606.4675 1093.9437 603.405 1094.9594L603.405 1091.225Q605.0144 1090.6937 606.905 1089.225Q608.79565 1087.7562 609.4988 1085.7875L612.8425 1085.7875L612.8425 1107.35ZM626.2644 1085.7875Q629.3894 1085.7875 631.1394 1088.0062Q633.23315 1090.6469 633.23315 1096.7562Q633.23315 1102.85 631.1238 1105.5219Q629.3894 1107.7094 626.2644 1107.7094Q623.1238 1107.7094 621.2019 1105.3031Q619.29565 1102.8969 619.29565 1096.7094Q619.29565 1090.6469 621.405 1087.9906Q623.1394 1085.7875 626.2644 1085.7875ZM626.2644 1089.1937Q625.5144 1089.1937 624.92065 1089.6781Q624.3425 1090.1469 624.0144 1091.3812Q623.5925 1092.975 623.5925 1096.7562Q623.5925 1100.5375 623.9675 1101.9594Q624.35815 1103.3656 624.9363 1103.8344Q625.5144 1104.3031 626.2644 1104.3031Q627.0144 1104.3031 627.5925 1103.8344Q628.1863 1103.35 628.4988 1102.1156Q628.9363 1100.5375 628.9363 1096.7562Q628.9363 1092.975 628.54565 1091.5687Q628.17065 1090.1469 627.5925 1089.6781Q627.0144 1089.1937 626.2644 1089.1937ZM643.2644 1085.7875Q646.3894 1085.7875 648.1394 1088.0062Q650.23315 1090.6469 650.23315 1096.7562Q650.23315 1102.85 648.1238 1105.5219Q646.3894 1107.7094 643.2644 1107.7094Q640.1238 1107.7094 638.2019 1105.3031Q636.29565 1102.8969 636.29565 1096.7094Q636.29565 1090.6469 638.405 1087.9906Q640.1394 1085.7875 643.2644 1085.7875ZM643.2644 1089.1937Q642.5144 1089.1937 641.92065 1089.6781Q641.3425 1090.1469 641.0144 1091.3812Q640.5925 1092.975 640.5925 1096.7562Q640.5925 1100.5375 640.9675 1101.9594Q641.35815 1103.3656 641.9363 1103.8344Q642.5144 1104.3031 643.2644 1104.3031Q644.0144 1104.3031 644.5925 1103.8344Q645.1863 1103.35 645.4988 1102.1156Q645.9363 1100.5375 645.9363 1096.7562Q645.9363 1092.975 645.54565 1091.5687Q645.17065 1090.1469 644.5925 1089.6781Q644.0144 1089.1937 643.2644 1089.1937Z" fill-rule="nonzero"/><path fill="#000000" d="M839.7825 1107.35L835.6575 1107.35L835.6575 1091.8344Q833.4075 1093.9437 830.345 1094.9594L830.345 1091.225Q831.95435 1090.6937 833.845 1089.225Q835.7356 1087.7562 836.4387 1085.7875L839.7825 1085.7875L839.7825 1107.35ZM846.2981 1101.8344L850.4075 1101.3969Q850.57935 1102.7875 851.4387 1103.6Q852.3137 1104.4125 853.4387 1104.4125Q854.72 1104.4125 855.6106 1103.3656Q856.51685 1102.3187 856.51685 1100.2094Q856.51685 1098.2406 855.6262 1097.2562Q854.7356 1096.2562 853.3137 1096.2562Q851.5481 1096.2562 850.14185 1097.8344L846.7981 1097.35L848.9075 1086.1625L859.7981 1086.1625L859.7981 1090.0219L852.0325 1090.0219L851.39185 1093.6625Q852.76685 1092.975 854.20435 1092.975Q856.9387 1092.975 858.845 1094.975Q860.7512 1096.9594 860.7512 1100.1469Q860.7512 1102.7875 859.20435 1104.8812Q857.1106 1107.7094 853.39185 1107.7094Q850.4231 1107.7094 848.5481 1106.1156Q846.6731 1104.5219 846.2981 1101.8344ZM870.20435 1085.7875Q873.32935 1085.7875 875.07935 1088.0062Q877.1731 1090.6469 877.1731 1096.7562Q877.1731 1102.85 875.0637 1105.5219Q873.32935 1107.7094 870.20435 1107.7094Q867.0637 1107.7094 865.14185 1105.3031Q863.2356 1102.8969 863.2356 1096.7094Q863.2356 1090.6469 865.345 1087.9906Q867.07935 1085.7875 870.20435 1085.7875ZM870.20435 1089.1937Q869.45435 1089.1937 868.8606 1089.6781Q868.2825 1090.1469 867.95435 1091.3812Q867.5325 1092.975 867.5325 1096.7562Q867.5325 1100.5375 867.9075 1101.9594Q868.2981 1103.3656 868.8762 1103.8344Q869.45435 1104.3031 870.20435 1104.3031Q870.95435 1104.3031 871.5325 1103.8344Q872.1262 1103.35 872.4387 1102.1156Q872.8762 1100.5375 872.8762 1096.7562Q872.8762 1092.975 872.4856 1091.5687Q872.1106 1090.1469 871.5325 1089.6781Q870.95435 1089.1937 870.20435 1089.1937Z" fill-rule="nonzero"/><path fill="#000000" d="M1070.0819 1103.5219L1070.0819 1107.35L1055.66 1107.35Q1055.8944 1105.1781 1057.0663 1103.2406Q1058.2382 1101.3031 1061.6913 1098.0844Q1064.4725 1095.5062 1065.1132 1094.5687Q1065.9569 1093.3031 1065.9569 1092.0531Q1065.9569 1090.6781 1065.2069 1089.9437Q1064.4725 1089.1937 1063.1757 1089.1937Q1061.8788 1089.1937 1061.1132 1089.975Q1060.3632 1090.7562 1060.2382 1092.5531L1056.1444 1092.1469Q1056.5038 1088.7406 1058.4413 1087.2719Q1060.3788 1085.7875 1063.2694 1085.7875Q1066.4569 1085.7875 1068.2694 1087.5062Q1070.0819 1089.2094 1070.0819 1091.7562Q1070.0819 1093.2094 1069.5663 1094.5219Q1069.0507 1095.8344 1067.9257 1097.2719Q1067.1757 1098.225 1065.2225 1100.0219Q1063.2694 1101.8031 1062.7538 1102.3969Q1062.2382 1102.975 1061.91 1103.5219L1070.0819 1103.5219ZM1080.1444 1085.7875Q1083.2694 1085.7875 1085.0194 1088.0062Q1087.1132 1090.6469 1087.1132 1096.7562Q1087.1132 1102.85 1085.0038 1105.5219Q1083.2694 1107.7094 1080.1444 1107.7094Q1077.0038 1107.7094 1075.0819 1105.3031Q1073.1757 1102.8969 1073.1757 1096.7094Q1073.1757 1090.6469 1075.285 1087.9906Q1077.0194 1085.7875 1080.1444 1085.7875ZM1080.1444 1089.1937Q1079.3944 1089.1937 1078.8007 1089.6781Q1078.2225 1090.1469 1077.8944 1091.3812Q1077.4725 1092.975 1077.4725 1096.7562Q1077.4725 1100.5375 1077.8475 1101.9594Q1078.2382 1103.3656 1078.8163 1103.8344Q1079.3944 1104.3031 1080.1444 1104.3031Q1080.8944 1104.3031 1081.4725 1103.8344Q1082.0663 1103.35 1082.3788 1102.1156Q1082.8163 1100.5375 1082.8163 1096.7562Q1082.8163 1092.975 1082.4257 1091.5687Q1082.0507 1090.1469 1081.4725 1089.6781Q1080.8944 1089.1937 1080.1444 1089.1937ZM1097.1444 1085.7875Q1100.2694 1085.7875 1102.0194 1088.0062Q1104.1132 1090.6469 1104.1132 1096.7562Q1104.1132 1102.85 1102.0038 1105.5219Q1100.2694 1107.7094 1097.1444 1107.7094Q1094.0038 1107.7094 1092.0819 1105.3031Q1090.1757 1102.8969 1090.1757 1096.7094Q1090.1757 1090.6469 1092.285 1087.9906Q1094.0194 1085.7875 1097.1444 1085.7875ZM1097.1444 1089.1937Q1096.3944 1089.1937 1095.8007 1089.6781Q1095.2225 1090.1469 1094.8944 1091.3812Q1094.4725 1092.975 1094.4725 1096.7562Q1094.4725 1100.5375 1094.8475 1101.9594Q1095.2382 1103.3656 1095.8163 1103.8344Q1096.3944 1104.3031 1097.1444 1104.3031Q1097.8944 1104.3031 1098.4725 1103.8344Q1099.0663 1103.35 1099.3788 1102.1156Q1099.8163 1100.5375 1099.8163 1096.7562Q1099.8163 1092.975 1099.4257 1091.5687Q1099.0507 1090.1469 1098.4725 1089.6781Q1097.8944 1089.1937 1097.1444 1089.1937Z" fill-rule="nonzero"/><path fill="#000000" d="M1297.0219 1103.5219L1297.0219 1107.35L1282.6 1107.35Q1282.8344 1105.1781 1284.0062 1103.2406Q1285.1781 1101.3031 1288.6312 1098.0844Q1291.4125 1095.5062 1292.0531 1094.5687Q1292.8969 1093.3031 1292.8969 1092.0531Q1292.8969 1090.6781 1292.1469 1089.9437Q1291.4125 1089.1937 1290.1156 1089.1937Q1288.8187 1089.1937 1288.0531 1089.975Q1287.3031 1090.7562 1287.1781 1092.5531L1283.0844 1092.1469Q1283.4437 1088.7406 1285.3812 1087.2719Q1287.3187 1085.7875 1290.2094 1085.7875Q1293.3969 1085.7875 1295.2094 1087.5062Q1297.0219 1089.2094 1297.0219 1091.7562Q1297.0219 1093.2094 1296.5062 1094.5219Q1295.9906 1095.8344 1294.8656 1097.2719Q1294.1156 1098.225 1292.1625 1100.0219Q1290.2094 1101.8031 1289.6937 1102.3969Q1289.1781 1102.975 1288.85 1103.5219L1297.0219 1103.5219ZM1300.1781 1101.8344L1304.2875 1101.3969Q1304.4594 1102.7875 1305.3187 1103.6Q1306.1937 1104.4125 1307.3187 1104.4125Q1308.6 1104.4125 1309.4906 1103.3656Q1310.3969 1102.3187 1310.3969 1100.2094Q1310.3969 1098.2406 1309.5062 1097.2562Q1308.6156 1096.2562 1307.1937 1096.2562Q1305.4281 1096.2562 1304.0219 1097.8344L1300.6781 1097.35L1302.7875 1086.1625L1313.6781 1086.1625L1313.6781 1090.0219L1305.9125 1090.0219L1305.2719 1093.6625Q1306.6469 1092.975 1308.0844 1092.975Q1310.8187 1092.975 1312.725 1094.975Q1314.6312 1096.9594 1314.6312 1100.1469Q1314.6312 1102.7875 1313.0844 1104.8812Q1310.9906 1107.7094 1307.2719 1107.7094Q1304.3031 1107.7094 1302.4281 1106.1156Q1300.5531 1104.5219 1300.1781 1101.8344ZM1324.0844 1085.7875Q1327.2094 1085.7875 1328.9594 1088.0062Q1331.0531 1090.6469 1331.0531 1096.7562Q1331.0531 1102.85 1328.9437 1105.5219Q1327.2094 1107.7094 1324.0844 1107.7094Q1320.9437 1107.7094 1319.0219 1105.3031Q1317.1156 1102.8969 1317.1156 1096.7094Q1317.1156 1090.6469 1319.225 1087.9906Q1320.9594 1085.7875 1324.0844 1085.7875ZM1324.0844 1089.1937Q1323.3344 1089.1937 1322.7406 1089.6781Q1322.1625 1090.1469 1321.8344 1091.3812Q1321.4125 1092.975 1321.4125 1096.7562Q1321.4125 1100.5375 1321.7875 1101.9594Q1322.1781 1103.3656 1322.7562 1103.8344Q1323.3344 1104.3031 1324.0844 1104.3031Q1324.8344 1104.3031 1325.4125 1103.8344Q1326.0062 1103.35 1326.3187 1102.1156Q1326.7562 1100.5375 1326.7562 1096.7562Q1326.7562 1092.975 1326.3656 1091.5687Q1325.9906 1090.1469 1325.4125 1089.6781Q1324.8344 1089.1937 1324.0844 1089.1937Z" fill-rule="nonzero"/></svg>