<svg xmlns="http://www.w3.org/2000/svg" xmlns:xlink="http://www.w3.org/1999/xlink" width="1330" zoomAndPan="magnify" viewBox="0 0 997.5 487.499991" height="650" preserveAspectRatio="xMidYMid meet" version="1.0"><defs><g/></defs><g fill="#000000" fill-opacity="1"><g transform="translate(113.894692, 225.787735)"><g><path d="M 86.917969 -80.105469 C 83.949219 -79.335938 80.433594 -79.226562 78.234375 -79.226562 L 27.46875 -79.226562 C 23.84375 -79.226562 17.582031 -79.773438 14.285156 -80.105469 L 14.285156 -64.609375 C 17.140625 -64.832031 22.414062 -65.050781 27.359375 -65.050781 L 78.566406 -65.050781 C 77.136719 -55.710938 72.960938 -43.183594 65.710938 -34.0625 C 56.808594 -22.964844 44.390625 -13.40625 22.636719 -8.351562 L 34.613281 4.835938 C 54.171875 -1.429688 68.785156 -12.308594 78.785156 -25.492188 C 87.90625 -37.691406 92.742188 -54.722656 95.269531 -65.488281 C 95.816406 -67.90625 96.695312 -70.984375 97.683594 -73.179688 Z M 86.917969 -80.105469 "/></g></g></g><g fill="#000000" fill-opacity="1"><g transform="translate(223.774199, 225.787735)"><g><path d="M 21.425781 -84.28125 C 21.757812 -81.863281 21.867188 -78.015625 21.867188 -75.929688 L 21.867188 -38.898438 C 21.867188 -35.601562 21.425781 -31.316406 21.316406 -29.230469 L 37.578125 -29.230469 C 37.359375 -31.757812 37.25 -36.042969 37.25 -38.789062 L 37.25 -75.929688 C 37.25 -79.445312 37.359375 -81.863281 37.578125 -84.28125 Z M 71.972656 -85.269531 C 72.414062 -82.191406 72.632812 -78.675781 72.632812 -74.28125 L 72.632812 -53.402344 C 72.632812 -36.261719 71.203125 -28.019531 63.730469 -19.777344 C 57.027344 -12.636719 47.796875 -8.460938 36.8125 -5.933594 L 48.347656 6.152344 C 56.371094 3.625 67.796875 -1.757812 75.050781 -9.78125 C 83.179688 -18.789062 87.796875 -28.898438 87.796875 -52.523438 L 87.796875 -74.28125 C 87.796875 -78.675781 88.015625 -82.191406 88.234375 -85.269531 Z M 71.972656 -85.269531 "/></g></g></g><g fill="#000000" fill-opacity="1"><g transform="translate(333.653706, 225.787735)"><g><path d="M 10.109375 -33.625 C 14.175781 -33.953125 21.535156 -34.171875 27.800781 -34.171875 L 86.808594 -34.171875 C 91.421875 -34.171875 97.027344 -33.734375 99.664062 -33.625 L 99.664062 -50.875 C 96.804688 -50.65625 91.863281 -50.214844 86.808594 -50.214844 L 27.800781 -50.214844 C 22.085938 -50.214844 14.066406 -50.546875 10.109375 -50.875 Z M 10.109375 -33.625 "/></g></g></g><g fill="#000000" fill-opacity="1"><g transform="translate(443.533213, 225.787735)"><g><path d="M 89.554688 -58.457031 C 88.015625 -57.796875 85.050781 -57.359375 81.53125 -57.359375 L 27.140625 -57.359375 C 23.734375 -57.359375 19.007812 -57.578125 14.394531 -58.019531 L 14.394531 -43.734375 C 19.007812 -44.171875 24.503906 -44.28125 27.140625 -44.28125 L 80.214844 -44.28125 C 78.234375 -38.128906 74.828125 -31.316406 68.894531 -25.273438 C 60.546875 -16.703125 47.359375 -9.449219 30.765625 -6.042969 L 41.753906 6.375 C 55.820312 2.417969 69.886719 -5.054688 80.984375 -17.363281 C 89.222656 -26.480469 93.949219 -37.140625 97.246094 -47.796875 C 97.683594 -49.007812 98.5625 -50.984375 99.332031 -52.414062 Z M 24.503906 -70.105469 C 27.691406 -70.324219 32.414062 -70.433594 35.929688 -70.433594 L 78.015625 -70.433594 C 81.972656 -70.433594 87.136719 -70.324219 90.101562 -70.105469 L 90.101562 -84.28125 C 87.027344 -83.839844 81.640625 -83.730469 78.234375 -83.730469 L 35.929688 -83.730469 C 32.195312 -83.730469 27.582031 -83.839844 24.503906 -84.28125 Z M 24.503906 -70.105469 "/></g></g></g><g fill="#000000" fill-opacity="1"><g transform="translate(553.41272, 225.787735)"><g><path d="M 26.480469 -83.511719 L 16.152344 -72.523438 C 24.175781 -66.917969 37.910156 -54.941406 43.625 -48.789062 L 54.832031 -60.324219 C 48.457031 -66.917969 34.171875 -78.347656 26.480469 -83.511719 Z M 12.746094 -10.328125 L 21.976562 4.175781 C 37.46875 1.539062 51.644531 -4.613281 62.742188 -11.316406 C 80.433594 -21.976562 95.046875 -37.140625 103.398438 -51.972656 L 94.828125 -67.46875 C 87.90625 -52.632812 73.511719 -35.820312 54.832031 -24.722656 C 44.171875 -18.351562 29.886719 -12.746094 12.746094 -10.328125 Z M 12.746094 -10.328125 "/></g></g></g><g fill="#000000" fill-opacity="1"><g transform="translate(663.292204, 225.787735)"><g><path d="M 82.632812 -81.203125 C 80.433594 -80.433594 76.039062 -79.773438 71.203125 -79.773438 L 32.523438 -79.773438 C 29.230469 -79.773438 22.527344 -80.105469 19.558594 -80.542969 L 19.558594 -64.941406 C 21.867188 -65.050781 27.910156 -65.710938 32.523438 -65.710938 L 69.773438 -65.710938 C 67.359375 -57.90625 60.65625 -47.03125 53.402344 -38.789062 C 43.074219 -27.25 26.042969 -13.953125 8.351562 -7.253906 L 19.667969 4.613281 C 34.722656 -2.527344 49.335938 -13.953125 60.984375 -26.261719 C 71.3125 -16.261719 81.53125 -5.054688 88.675781 4.835938 L 101.203125 -6.042969 C 94.71875 -13.953125 81.421875 -28.019531 70.542969 -37.46875 C 77.90625 -47.359375 84.058594 -59.117188 87.796875 -67.6875 C 88.785156 -69.886719 90.761719 -73.292969 91.640625 -74.5 Z M 82.632812 -81.203125 "/></g></g></g><g fill="#000000" fill-opacity="1"><g transform="translate(773.171688, 225.787735)"><g><path d="M 29.996094 -19.777344 C 25.933594 -19.777344 21.535156 -25.164062 21.535156 -36.152344 C 21.535156 -48.128906 31.097656 -63.953125 49.117188 -67.6875 C 47.796875 -58.675781 45.820312 -49.335938 43.292969 -41.316406 C 38.898438 -26.589844 34.503906 -19.777344 29.996094 -19.777344 Z M 59.886719 4.503906 C 87.355469 0.328125 101.421875 -15.933594 101.421875 -38.789062 C 101.421875 -62.523438 84.390625 -81.3125 57.46875 -81.3125 C 29.230469 -81.3125 7.363281 -59.777344 7.363281 -34.722656 C 7.363281 -16.371094 17.582031 -3.078125 29.558594 -3.078125 C 41.425781 -3.078125 50.875 -16.480469 57.359375 -38.457031 C 60.433594 -48.679688 62.304688 -58.785156 63.839844 -68.015625 C 78.457031 -65.488281 86.585938 -54.28125 86.585938 -39.226562 C 86.585938 -23.40625 75.820312 -13.40625 61.863281 -10.109375 C 59.007812 -9.449219 55.929688 -8.902344 51.753906 -8.351562 Z M 59.886719 4.503906 "/></g></g></g><g fill="#000000" fill-opacity="1"><g transform="translate(113.894692, 353.368253)"><g><path d="M 48.789062 -17.472656 C 48.789062 -10.328125 46.261719 -7.140625 39.226562 -7.140625 C 31.644531 -7.140625 26.152344 -9.121094 26.152344 -14.503906 C 26.152344 -19.121094 31.207031 -21.976562 39.667969 -21.976562 C 42.746094 -21.976562 45.820312 -21.648438 48.679688 -21.207031 C 48.789062 -19.777344 48.789062 -18.460938 48.789062 -17.472656 Z M 95.816406 -12.417969 C 88.34375 -19.449219 76.589844 -26.921875 62.742188 -31.097656 C 62.195312 -39.117188 61.753906 -47.6875 61.535156 -54.28125 C 70.324219 -54.5 83.289062 -54.941406 92.410156 -55.820312 L 91.863281 -68.785156 C 82.851562 -67.796875 70.105469 -67.359375 61.535156 -67.136719 C 61.535156 -69.886719 61.535156 -72.632812 61.535156 -75.050781 C 61.753906 -79.335938 62.082031 -84.609375 62.523438 -87.796875 L 46.152344 -87.796875 C 46.808594 -85.050781 47.140625 -80.433594 47.25 -75.050781 C 47.359375 -70.433594 47.46875 -63.953125 47.46875 -57.359375 C 47.46875 -51.644531 47.910156 -42.304688 48.238281 -33.84375 C 46.152344 -34.0625 43.953125 -34.171875 41.753906 -34.171875 C 21.757812 -34.171875 12.085938 -25.164062 12.085938 -13.84375 C 12.085938 0.988281 24.832031 6.042969 40.328125 6.042969 C 58.566406 6.042969 63.511719 -3.1875 63.511719 -12.746094 C 63.511719 -13.84375 63.511719 -15.054688 63.402344 -16.480469 C 73.070312 -12.085938 81.3125 -5.605469 87.464844 0.550781 Z M 95.816406 -12.417969 "/></g></g></g><g fill="#000000" fill-opacity="1"><g transform="translate(223.774199, 353.368253)"><g><path d="M 74.941406 -36.152344 C 74.941406 -19.121094 57.6875 -10.328125 30.65625 -7.253906 L 38.570312 6.375 C 68.785156 2.199219 90.324219 -12.308594 90.324219 -35.601562 C 90.324219 -52.632812 78.234375 -62.414062 60.984375 -62.414062 C 48.347656 -62.414062 36.152344 -59.226562 28.128906 -57.46875 C 24.613281 -56.699219 19.890625 -55.929688 16.261719 -55.601562 L 20.328125 -40.105469 C 23.515625 -41.207031 27.691406 -42.855469 30.875 -43.84375 C 36.480469 -45.492188 47.25 -49.117188 59.226562 -49.117188 C 69.445312 -49.226562 74.941406 -43.292969 74.941406 -36.152344 Z M 32.304688 -88.457031 L 30.109375 -75.269531 C 42.632812 -73.070312 66.257812 -70.984375 79.003906 -70.105469 L 81.203125 -83.511719 C 69.664062 -83.511719 44.941406 -85.707031 32.304688 -88.457031 Z M 32.304688 -88.457031 "/></g></g></g><g fill="#000000" fill-opacity="1"><g transform="translate(333.653706, 353.368253)"><g><path d="M 103.730469 -59.996094 C 98.234375 -63.953125 84.71875 -71.3125 76.917969 -74.71875 L 69.886719 -63.953125 C 77.355469 -60.65625 89.773438 -53.511719 96.039062 -48.457031 Z M 62.742188 -76.699219 C 58.457031 -75.378906 53.402344 -74.171875 48.128906 -73.292969 C 49.667969 -79.117188 50.984375 -84.609375 51.863281 -88.125 L 36.8125 -89.664062 C 36.589844 -84.058594 35.382812 -77.46875 33.84375 -71.421875 C 30.546875 -71.203125 27.25 -71.09375 24.0625 -71.09375 C 20.109375 -71.09375 14.285156 -71.3125 9.558594 -71.863281 L 10.546875 -59.117188 C 15.273438 -58.898438 19.667969 -58.785156 24.175781 -58.785156 C 26.042969 -58.785156 27.910156 -58.785156 29.777344 -58.898438 C 24.941406 -47.140625 16.371094 -31.097656 7.582031 -20.4375 L 20.878906 -13.734375 C 29.667969 -26.152344 39.007812 -45.050781 44.171875 -60.324219 C 51.425781 -61.3125 58.128906 -62.742188 63.074219 -64.0625 Z M 65.378906 -16.152344 C 65.378906 -10.328125 62.960938 -6.042969 55.601562 -6.042969 C 49.667969 -6.042969 46.261719 -8.789062 46.261719 -12.855469 C 46.261719 -16.703125 50.324219 -19.339844 56.589844 -19.339844 C 59.667969 -19.339844 62.523438 -18.898438 65.378906 -18.242188 Z M 63.621094 -54.28125 C 63.953125 -47.6875 64.5 -38.128906 64.832031 -29.996094 C 62.523438 -30.21875 59.996094 -30.4375 57.46875 -30.4375 C 42.304688 -30.4375 33.402344 -22.195312 33.402344 -11.539062 C 33.402344 0.441406 44.0625 6.484375 57.578125 6.484375 C 73.070312 6.484375 78.566406 -1.429688 78.566406 -11.539062 L 78.566406 -12.527344 C 84.5 -8.902344 89.445312 -4.503906 93.289062 -0.988281 L 100.542969 -12.636719 C 95.046875 -17.582031 87.355469 -23.074219 78.015625 -26.589844 C 77.6875 -31.976562 77.46875 -37.25 77.355469 -40.328125 C 77.246094 -45.160156 77.027344 -49.667969 77.355469 -54.28125 Z M 63.621094 -54.28125 "/></g></g></g><g fill="#000000" fill-opacity="1"><g transform="translate(443.533213, 353.368253)"><g><path d="M 65.160156 -7.363281 L 65.160156 -36.261719 L 96.257812 -36.261719 L 96.257812 -49.007812 L 65.160156 -49.007812 L 65.160156 -73.179688 L 101.972656 -73.179688 L 101.972656 -85.929688 L 8.902344 -85.929688 L 8.902344 -73.179688 L 51.316406 -73.179688 L 51.316406 -7.363281 L 32.195312 -7.363281 L 32.195312 -56.148438 L 18.570312 -56.148438 L 18.570312 -7.363281 L 5.054688 -7.363281 L 5.054688 5.492188 L 104.9375 5.492188 L 104.9375 -7.363281 Z M 65.160156 -7.363281 "/></g></g></g><g fill="#000000" fill-opacity="1"><g transform="translate(553.41272, 353.368253)"><g><path d="M 52.195312 -30.988281 C 49.886719 -33.183594 41.425781 -40.765625 36.152344 -45.050781 C 41.425781 -52.304688 45.820312 -60.214844 49.117188 -68.566406 L 41.753906 -73.292969 L 39.449219 -72.742188 L 34.503906 -72.742188 L 34.503906 -92.960938 L 21.535156 -92.960938 L 21.535156 -72.742188 L 5.933594 -72.742188 L 5.933594 -60.984375 L 32.523438 -60.984375 C 25.273438 -48.238281 13.734375 -36.699219 1.757812 -30.21875 C 3.734375 -27.691406 6.8125 -21.316406 7.910156 -17.800781 C 12.527344 -20.65625 17.140625 -24.285156 21.535156 -28.351562 L 21.535156 9.558594 L 34.503906 9.558594 L 34.503906 -31.867188 C 38.238281 -27.800781 41.976562 -23.40625 44.28125 -20.328125 Z M 83.839844 -6.375 L 83.839844 -46.589844 L 104.609375 -46.589844 L 104.609375 -59.226562 L 83.839844 -59.226562 L 83.839844 -92.082031 L 70.433594 -92.082031 L 70.433594 -59.226562 L 49.558594 -59.226562 L 49.558594 -46.589844 L 70.433594 -46.589844 L 70.433594 -6.375 L 45.050781 -6.375 L 45.050781 6.375 L 107.246094 6.375 L 107.246094 -6.375 Z M 83.839844 -6.375 "/></g></g></g><g fill="#000000" fill-opacity="1"><g transform="translate(663.292204, 353.368253)"><g><path d="M 77.355469 -72.300781 L 32.964844 -72.300781 L 32.964844 -79.445312 L 77.355469 -79.445312 Z M 91.3125 -89.664062 L 19.777344 -89.664062 L 19.777344 -62.195312 L 91.3125 -62.195312 Z M 27.800781 -23.183594 L 81.640625 -23.183594 L 81.640625 -18.351562 L 27.800781 -18.351562 Z M 27.800781 -36.261719 L 81.640625 -36.261719 L 81.640625 -31.535156 L 27.800781 -31.535156 Z M 27.800781 -49.226562 L 81.640625 -49.226562 L 81.640625 -44.503906 L 27.800781 -44.503906 Z M 95.15625 -9.449219 L 95.15625 -58.128906 L 14.835938 -58.128906 L 14.835938 -9.449219 L 31.867188 -9.449219 C 24.394531 -5.714844 13.1875 -1.867188 3.734375 0.21875 C 6.703125 2.746094 11.207031 6.8125 13.625 9.558594 C 24.722656 6.8125 38.789062 1.539062 47.6875 -3.625 L 39.335938 -9.449219 L 69.117188 -9.449219 L 59.996094 -2.96875 C 71.644531 0.441406 86.808594 5.824219 95.269531 9.78125 L 106.804688 0.550781 C 99.222656 -2.417969 88.015625 -6.375 77.796875 -9.449219 Z M 95.15625 -9.449219 "/></g></g></g></svg>