<svg version="1.1" viewBox="0.0 0.0 808.0 690.0" fill="none" stroke="none" stroke-linecap="square" stroke-miterlimit="10" width="808" height="690" xmlns:xlink="http://www.w3.org/1999/xlink" xmlns="http://www.w3.org/2000/svg"><path fill="#ffffff" d="M0 0L808.0 0L808.0 690.0L0 690.0L0 0Z" fill-rule="nonzero"/><path stroke="#333333" stroke-width="1.0" stroke-linecap="butt" d="M100.5 605.5L773.5 605.5" fill-rule="nonzero"/><path stroke="#cccccc" stroke-width="1.0" stroke-linecap="butt" d="M100.5 478.5L773.5 478.5" fill-rule="nonzero"/><path stroke="#cccccc" stroke-width="1.0" stroke-linecap="butt" d="M100.5 352.5L773.5 352.5" fill-rule="nonzero"/><path stroke="#cccccc" stroke-width="1.0" stroke-linecap="butt" d="M100.5 225.5L773.5 225.5" fill-rule="nonzero"/><path stroke="#cccccc" stroke-width="1.0" stroke-linecap="butt" d="M100.5 99.5L773.5 99.5" fill-rule="nonzero"/><clipPath id="id_0"><path d="M100.5 99.0L773.5 99.0L773.5 605.5L100.5 605.5L100.5 99.0Z" clip-rule="nonzero"/></clipPath><path stroke="#000000" stroke-width="2.0" stroke-linecap="butt" stroke-opacity="0.0" clip-path="url(#id_0)" d="M302.0 606.0L171.0 606.0L171.0 544.0C171.0 542.89545 171.89543 542.0 173.0 542.0L300.0 542.0C301.10458 542.0 302.0 542.89545 302.0 544.0Z" fill-rule="nonzero"/><path fill="#4285f4" clip-path="url(#id_0)" d="M302.0 606.0L171.0 606.0L171.0 544.0C171.0 542.89545 171.89543 542.0 173.0 542.0L300.0 542.0C301.10458 542.0 302.0 542.89545 302.0 544.0Z" fill-rule="nonzero"/><path stroke="#000000" stroke-width="2.0" stroke-linecap="butt" stroke-opacity="0.0" clip-path="url(#id_0)" d="M503.0 606.0L372.0 606.0L372.0 348.0C372.0 346.89542 372.89542 346.0 374.0 346.0L501.0 346.0C502.10458 346.0 503.0 346.89542 503.0 348.0Z" fill-rule="nonzero"/><path fill="#4285f4" clip-path="url(#id_0)" d="M503.0 606.0L372.0 606.0L372.0 348.0C372.0 346.89542 372.89542 346.0 374.0 346.0L501.0 346.0C502.10458 346.0 503.0 346.89542 503.0 348.0Z" fill-rule="nonzero"/><path stroke="#000000" stroke-width="2.0" stroke-linecap="butt" stroke-opacity="0.0" clip-path="url(#id_0)" d="M704.0 606.0L573.0 606.0L573.0 209.0C573.0 207.89543 573.89545 207.0 575.0 207.0L702.0 207.0C703.10455 207.0 704.0 207.89543 704.0 209.0Z" fill-rule="nonzero"/><path fill="#4285f4" clip-path="url(#id_0)" d="M704.0 606.0L573.0 606.0L573.0 209.0C573.0 207.89543 573.89545 207.0 575.0 207.0L702.0 207.0C703.10455 207.0 704.0 207.89543 704.0 209.0Z" fill-rule="nonzero"/><path stroke="#4285f4" stroke-width="3.0" stroke-linejoin="round" stroke-linecap="round" d="M230.8125 582.1875L226.6875 582.1875L226.6875 566.6719Q224.4375 568.78125 221.375 569.7969L221.375 566.0625Q222.98438 565.53125 224.875 564.0625Q226.76562 562.59375 227.46875 560.625L230.8125 560.625L230.8125 582.1875ZM244.23438 560.625Q247.35938 560.625 249.10938 562.84375Q251.20312 565.4844 251.20312 571.59375Q251.20312 577.6875 249.09375 580.3594Q247.35938 582.5469 244.23438 582.5469Q241.09375 582.5469 239.17188 580.1406Q237.26562 577.7344 237.26562 571.5469Q237.26562 565.4844 239.375 562.8281Q241.10938 560.625 244.23438 560.625ZM244.23438 564.03125Q243.48438 564.03125 242.89062 564.5156Q242.3125 564.9844 241.98438 566.21875Q241.5625 567.8125 241.5625 571.59375Q241.5625 575.375 241.9375 576.7969Q242.32812 578.2031 242.90625 578.6719Q243.48438 579.1406 244.23438 579.1406Q244.98438 579.1406 245.5625 578.6719Q246.15625 578.1875 246.46875 576.9531Q246.90625 575.375 246.90625 571.59375Q246.90625 567.8125 246.51562 566.40625Q246.14062 564.9844 245.5625 564.5156Q244.98438 564.03125 244.23438 564.03125Z" fill-rule="nonzero"/><path fill="#ffffff" d="M230.8125 582.1875L226.6875 582.1875L226.6875 566.6719Q224.4375 568.78125 221.375 569.7969L221.375 566.0625Q222.98438 565.53125 224.875 564.0625Q226.76562 562.59375 227.46875 560.625L230.8125 560.625L230.8125 582.1875ZM244.23438 560.625Q247.35938 560.625 249.10938 562.84375Q251.20312 565.4844 251.20312 571.59375Q251.20312 577.6875 249.09375 580.3594Q247.35938 582.5469 244.23438 582.5469Q241.09375 582.5469 239.17188 580.1406Q237.26562 577.7344 237.26562 571.5469Q237.26562 565.4844 239.375 562.8281Q241.10938 560.625 244.23438 560.625ZM244.23438 564.03125Q243.48438 564.03125 242.89062 564.5156Q242.3125 564.9844 241.98438 566.21875Q241.5625 567.8125 241.5625 571.59375Q241.5625 575.375 241.9375 576.7969Q242.32812 578.2031 242.90625 578.6719Q243.48438 579.1406 244.23438 579.1406Q244.98438 579.1406 245.5625 578.6719Q246.15625 578.1875 246.46875 576.9531Q246.90625 575.375 246.90625 571.59375Q246.90625 567.8125 246.51562 566.40625Q246.14062 564.9844 245.5625 564.5156Q244.98438 564.03125 244.23438 564.03125Z" fill-rule="nonzero"/><path stroke="#4285f4" stroke-width="3.0" stroke-linejoin="round" stroke-linecap="round" d="M429.34375 385.91876L429.34375 381.59064L420.5625 381.59064L420.5625 377.9969L429.875 364.35626L433.32812 364.35626L433.32812 377.98126L436.0 377.98126L436.0 381.59064L433.32812 381.59064L433.32812 385.91876L429.34375 385.91876ZM429.34375 377.98126L429.34375 370.6375L424.40625 377.98126L429.34375 377.98126ZM448.8125 385.91876L444.6875 385.91876L444.6875 370.40314Q442.4375 372.5125 439.375 373.52814L439.375 369.79376Q440.98438 369.2625 442.875 367.79376Q444.76562 366.325 445.46875 364.35626L448.8125 364.35626L448.8125 385.91876Z" fill-rule="nonzero"/><path fill="#ffffff" d="M429.34375 385.91876L429.34375 381.59064L420.5625 381.59064L420.5625 377.9969L429.875 364.35626L433.32812 364.35626L433.32812 377.98126L436.0 377.98126L436.0 381.59064L433.32812 381.59064L433.32812 385.91876L429.34375 385.91876ZM429.34375 377.98126L429.34375 370.6375L424.40625 377.98126L429.34375 377.98126ZM448.8125 385.91876L444.6875 385.91876L444.6875 370.40314Q442.4375 372.5125 439.375 373.52814L439.375 369.79376Q440.98438 369.2625 442.875 367.79376Q444.76562 366.325 445.46875 364.35626L448.8125 364.35626L448.8125 385.91876Z" fill-rule="nonzero"/><path stroke="#4285f4" stroke-width="3.0" stroke-linejoin="round" stroke-linecap="round" d="M636.21875 230.4125L632.2344 230.85Q632.09375 229.63126 631.46875 229.05313Q630.8594 228.45938 629.875 228.45938Q628.5781 228.45938 627.6719 229.63126Q626.7656 230.80313 626.53125 234.50626Q628.0781 232.67813 630.3594 232.67813Q632.9375 232.67813 634.7656 234.64688Q636.6094 236.61563 636.6094 239.70938Q636.6094 243.00626 634.6719 245.00626Q632.75 246.99063 629.71875 246.99063Q626.46875 246.99063 624.375 244.475Q622.28125 241.94376 622.28125 236.19376Q622.28125 230.2875 624.4531 227.67813Q626.6406 225.06876 630.125 225.06876Q632.5781 225.06876 634.1719 226.44376Q635.78125 227.80313 636.21875 230.4125ZM626.8906 239.39688Q626.8906 241.39688 627.8125 242.49063Q628.7344 243.58438 629.9219 243.58438Q631.0625 243.58438 631.8281 242.69376Q632.59375 241.80313 632.59375 239.75626Q632.59375 237.6625 631.7656 236.69376Q630.9531 235.725 629.71875 235.725Q628.53125 235.725 627.7031 236.6625Q626.8906 237.58438 626.8906 239.39688ZM639.125 240.92813L643.1094 240.44376Q643.2969 241.975 644.125 242.7875Q644.96875 243.58438 646.15625 243.58438Q647.4375 243.58438 648.2969 242.61563Q649.1719 241.64688 649.1719 240.00626Q649.1719 238.45938 648.3281 237.55313Q647.5 236.64688 646.3125 236.64688Q645.5156 236.64688 644.4219 236.94376L644.875 233.6Q646.5469 233.63126 647.4219 232.86563Q648.2969 232.1 648.2969 230.81876Q648.2969 229.74063 647.65625 229.1Q647.0156 228.45938 645.9375 228.45938Q644.8906 228.45938 644.1406 229.19376Q643.3906 229.9125 643.2344 231.31876L639.4375 230.67813Q639.8281 228.725 640.625 227.56876Q641.4219 226.39688 642.84375 225.74063Q644.28125 225.06876 646.0625 225.06876Q649.09375 225.06876 650.9219 227.00626Q652.4219 228.58438 652.4219 230.56876Q652.4219 233.39688 649.34375 235.08438Q651.1875 235.49063 652.28125 236.86563Q653.3906 238.24063 653.3906 240.17813Q653.3906 243.00626 651.3281 245.00626Q649.2656 246.99063 646.1875 246.99063Q643.28125 246.99063 641.3594 245.31876Q639.4375 243.64688 639.125 240.92813Z" fill-rule="nonzero"/><path fill="#ffffff" d="M636.21875 230.4125L632.2344 230.85Q632.09375 229.63126 631.46875 229.05313Q630.8594 228.45938 629.875 228.45938Q628.5781 228.45938 627.6719 229.63126Q626.7656 230.80313 626.53125 234.50626Q628.0781 232.67813 630.3594 232.67813Q632.9375 232.67813 634.7656 234.64688Q636.6094 236.61563 636.6094 239.70938Q636.6094 243.00626 634.6719 245.00626Q632.75 246.99063 629.71875 246.99063Q626.46875 246.99063 624.375 244.475Q622.28125 241.94376 622.28125 236.19376Q622.28125 230.2875 624.4531 227.67813Q626.6406 225.06876 630.125 225.06876Q632.5781 225.06876 634.1719 226.44376Q635.78125 227.80313 636.21875 230.4125ZM626.8906 239.39688Q626.8906 241.39688 627.8125 242.49063Q628.7344 243.58438 629.9219 243.58438Q631.0625 243.58438 631.8281 242.69376Q632.59375 241.80313 632.59375 239.75626Q632.59375 237.6625 631.7656 236.69376Q630.9531 235.725 629.71875 235.725Q628.53125 235.725 627.7031 236.6625Q626.8906 237.58438 626.8906 239.39688ZM639.125 240.92813L643.1094 240.44376Q643.2969 241.975 644.125 242.7875Q644.96875 243.58438 646.15625 243.58438Q647.4375 243.58438 648.2969 242.61563Q649.1719 241.64688 649.1719 240.00626Q649.1719 238.45938 648.3281 237.55313Q647.5 236.64688 646.3125 236.64688Q645.5156 236.64688 644.4219 236.94376L644.875 233.6Q646.5469 233.63126 647.4219 232.86563Q648.2969 232.1 648.2969 230.81876Q648.2969 229.74063 647.65625 229.1Q647.0156 228.45938 645.9375 228.45938Q644.8906 228.45938 644.1406 229.19376Q643.3906 229.9125 643.2344 231.31876L639.4375 230.67813Q639.8281 228.725 640.625 227.56876Q641.4219 226.39688 642.84375 225.74063Q644.28125 225.06876 646.0625 225.06876Q649.09375 225.06876 650.9219 227.00626Q652.4219 228.58438 652.4219 230.56876Q652.4219 233.39688 649.34375 235.08438Q651.1875 235.49063 652.28125 236.86563Q653.3906 238.24063 653.3906 240.17813Q653.3906 243.00626 651.3281 245.00626Q649.2656 246.99063 646.1875 246.99063Q643.28125 246.99063 641.3594 245.31876Q639.4375 243.64688 639.125 240.92813Z" fill-rule="nonzero"/><path fill="#000000" d="M76.734375 594.4375Q79.859375 594.4375 81.609375 596.65625Q83.703125 599.2969 83.703125 605.40625Q83.703125 611.5 81.59375 614.1719Q79.859375 616.3594 76.734375 616.3594Q73.59375 616.3594 71.671875 613.9531Q69.765625 611.5469 69.765625 605.3594Q69.765625 599.2969 71.875 596.6406Q73.609375 594.4375 76.734375 594.4375ZM76.734375 597.84375Q75.984375 597.84375 75.390625 598.3281Q74.8125 598.7969 74.484375 600.03125Q74.0625 601.625 74.0625 605.40625Q74.0625 609.1875 74.4375 610.6094Q74.828125 612.0156 75.40625 612.4844Q75.984375 612.9531 76.734375 612.9531Q77.484375 612.9531 78.0625 612.4844Q78.65625 612.0 78.96875 610.7656Q79.40625 609.1875 79.40625 605.40625Q79.40625 601.625 79.015625 600.21875Q78.640625 598.7969 78.0625 598.3281Q77.484375 597.84375 76.734375 597.84375Z" fill-rule="nonzero"/><path fill="#000000" d="M66.671875 485.54688L66.671875 489.375L52.25 489.375Q52.484375 487.20312 53.65625 485.26562Q54.828125 483.32812 58.28125 480.10938Q61.0625 477.53125 61.703125 476.59375Q62.546875 475.32812 62.546875 474.07812Q62.546875 472.70312 61.796875 471.96875Q61.0625 471.21875 59.765625 471.21875Q58.46875 471.21875 57.703125 472.0Q56.953125 472.78125 56.828125 474.57812L52.734375 474.17188Q53.09375 470.76562 55.03125 469.29688Q56.96875 467.8125 59.859375 467.8125Q63.046875 467.8125 64.859375 469.53125Q66.671875 471.23438 66.671875 473.78125Q66.671875 475.23438 66.15625 476.54688Q65.640625 477.85938 64.515625 479.29688Q63.765625 480.25 61.8125 482.04688Q59.859375 483.82812 59.34375 484.42188Q58.828125 485.0 58.5 485.54688L66.671875 485.54688ZM76.734375 467.8125Q79.859375 467.8125 81.609375 470.03125Q83.703125 472.67188 83.703125 478.78125Q83.703125 484.875 81.59375 487.54688Q79.859375 489.73438 76.734375 489.73438Q73.59375 489.73438 71.671875 487.32812Q69.765625 484.92188 69.765625 478.73438Q69.765625 472.67188 71.875 470.01562Q73.609375 467.8125 76.734375 467.8125ZM76.734375 471.21875Q75.984375 471.21875 75.390625 471.70312Q74.8125 472.17188 74.484375 473.40625Q74.0625 475.0 74.0625 478.78125Q74.0625 482.5625 74.4375 483.98438Q74.828125 485.39062 75.40625 485.85938Q75.984375 486.32812 76.734375 486.32812Q77.484375 486.32812 78.0625 485.85938Q78.65625 485.375 78.96875 484.14062Q79.40625 482.5625 79.40625 478.78125Q79.40625 475.0 79.015625 473.59375Q78.640625 472.17188 78.0625 471.70312Q77.484375 471.21875 76.734375 471.21875Z" fill-rule="nonzero"/><path fill="#000000" d="M60.84375 362.75L60.84375 358.42188L52.0625 358.42188L52.0625 354.82812L61.375 341.1875L64.828125 341.1875L64.828125 354.8125L67.5 354.8125L67.5 358.42188L64.828125 358.42188L64.828125 362.75L60.84375 362.75ZM60.84375 354.8125L60.84375 347.46875L55.90625 354.8125L60.84375 354.8125ZM76.734375 341.1875Q79.859375 341.1875 81.609375 343.40625Q83.703125 346.04688 83.703125 352.15625Q83.703125 358.25 81.59375 360.92188Q79.859375 363.10938 76.734375 363.10938Q73.59375 363.10938 71.671875 360.70312Q69.765625 358.29688 69.765625 352.10938Q69.765625 346.04688 71.875 343.39062Q73.609375 341.1875 76.734375 341.1875ZM76.734375 344.59375Q75.984375 344.59375 75.390625 345.07812Q74.8125 345.54688 74.484375 346.78125Q74.0625 348.375 74.0625 352.15625Q74.0625 355.9375 74.4375 357.35938Q74.828125 358.76562 75.40625 359.23438Q75.984375 359.70312 76.734375 359.70312Q77.484375 359.70312 78.0625 359.23438Q78.65625 358.75 78.96875 357.51562Q79.40625 355.9375 79.40625 352.15625Q79.40625 348.375 79.015625 346.96875Q78.640625 345.54688 78.0625 345.07812Q77.484375 344.59375 76.734375 344.59375Z" fill-rule="nonzero"/><path fill="#000000" d="M66.71875 219.90625L62.734375 220.34375Q62.59375 219.125 61.96875 218.54688Q61.359375 217.95312 60.375 217.95312Q59.078125 217.95312 58.171875 219.125Q57.265625 220.29688 57.03125 224.0Q58.578125 222.17188 60.859375 222.17188Q63.4375 222.17188 65.265625 224.14062Q67.109375 226.10938 67.109375 229.20312Q67.109375 232.5 65.171875 234.5Q63.25 236.48438 60.21875 236.48438Q56.96875 236.48438 54.875 233.96875Q52.78125 231.4375 52.78125 225.6875Q52.78125 219.78125 54.953125 217.17188Q57.140625 214.5625 60.625 214.5625Q63.078125 214.5625 64.671875 215.9375Q66.28125 217.29688 66.71875 219.90625ZM57.390625 228.89062Q57.390625 230.89062 58.3125 231.98438Q59.234375 233.07812 60.421875 233.07812Q61.5625 233.07812 62.328125 232.1875Q63.09375 231.29688 63.09375 229.25Q63.09375 227.15625 62.265625 226.1875Q61.453125 225.21875 60.21875 225.21875Q59.03125 225.21875 58.203125 226.15625Q57.390625 227.07812 57.390625 228.89062ZM76.734375 214.5625Q79.859375 214.5625 81.609375 216.78125Q83.703125 219.42188 83.703125 225.53125Q83.703125 231.625 81.59375 234.29688Q79.859375 236.48438 76.734375 236.48438Q73.59375 236.48438 71.671875 234.07812Q69.765625 231.67188 69.765625 225.48438Q69.765625 219.42188 71.875 216.76562Q73.609375 214.5625 76.734375 214.5625ZM76.734375 217.96875Q75.984375 217.96875 75.390625 218.45312Q74.8125 218.92188 74.484375 220.15625Q74.0625 221.75 74.0625 225.53125Q74.0625 229.3125 74.4375 230.73438Q74.828125 232.14062 75.40625 232.60938Q75.984375 233.07812 76.734375 233.07812Q77.484375 233.07812 78.0625 232.60938Q78.65625 232.125 78.96875 230.89062Q79.40625 229.3125 79.40625 225.53125Q79.40625 221.75 79.015625 220.34375Q78.640625 218.92188 78.0625 218.45312Q77.484375 217.96875 76.734375 217.96875Z" fill-rule="nonzero"/><path fill="#000000" d="M56.3125 97.90625Q54.703125 97.234375 53.984375 96.0625Q53.265625 94.875 53.265625 93.46875Q53.265625 91.078125 54.9375 89.515625Q56.609375 87.9375 59.703125 87.9375Q62.765625 87.9375 64.453125 89.515625Q66.15625 91.078125 66.15625 93.46875Q66.15625 94.96875 65.375 96.140625Q64.59375 97.296875 63.1875 97.90625Q64.984375 98.625 65.90625 100.015625Q66.84375 101.390625 66.84375 103.1875Q66.84375 106.15625 64.9375 108.015625Q63.046875 109.875 59.890625 109.875Q56.96875 109.875 55.015625 108.34375Q52.71875 106.53125 52.71875 103.359375Q52.71875 101.625 53.578125 100.171875Q54.4375 98.703125 56.3125 97.90625ZM57.15625 93.765625Q57.15625 95.0 57.84375 95.6875Q58.546875 96.375 59.703125 96.375Q60.875 96.375 61.578125 95.6875Q62.28125 94.984375 62.28125 93.75Q62.28125 92.59375 61.578125 91.90625Q60.890625 91.203125 59.75 91.203125Q58.5625 91.203125 57.859375 91.90625Q57.15625 92.609375 57.15625 93.765625ZM56.78125 102.96875Q56.78125 104.671875 57.640625 105.625Q58.515625 106.5625 59.828125 106.5625Q61.09375 106.5625 61.921875 105.65625Q62.765625 104.734375 62.765625 103.015625Q62.765625 101.5 61.90625 100.59375Q61.0625 99.671875 59.765625 99.671875Q58.25 99.671875 57.515625 100.71875Q56.78125 101.75 56.78125 102.96875ZM76.734375 87.9375Q79.859375 87.9375 81.609375 90.15625Q83.703125 92.796875 83.703125 98.90625Q83.703125 105.0 81.59375 107.671875Q79.859375 109.859375 76.734375 109.859375Q73.59375 109.859375 71.671875 107.453125Q69.765625 105.046875 69.765625 98.859375Q69.765625 92.796875 71.875 90.140625Q73.609375 87.9375 76.734375 87.9375ZM76.734375 91.34375Q75.984375 91.34375 75.390625 91.828125Q74.8125 92.296875 74.484375 93.53125Q74.0625 95.125 74.0625 98.90625Q74.0625 102.6875 74.4375 104.109375Q74.828125 105.515625 75.40625 105.984375Q75.984375 106.453125 76.734375 106.453125Q77.484375 106.453125 78.0625 105.984375Q78.65625 105.5 78.96875 104.265625Q79.40625 102.6875 79.40625 98.90625Q79.40625 95.125 79.015625 93.71875Q78.640625 92.296875 78.0625 91.828125Q77.484375 91.34375 76.734375 91.34375Z" fill-rule="nonzero"/><path fill="#000000" d="M201.77635 644.6719L201.77635 648.5L187.35448 648.5Q187.58885 646.3281 188.76073 644.3906Q189.9326 642.4531 193.38573 639.2344Q196.16698 636.65625 196.8076 635.71875Q197.65135 634.4531 197.65135 633.2031Q197.65135 631.8281 196.90135 631.09375Q196.16698 630.34375 194.8701 630.34375Q193.57323 630.34375 192.8076 631.125Q192.0576 631.90625 191.9326 633.7031L187.83885 633.2969Q188.19823 629.8906 190.13573 628.4219Q192.07323 626.9375 194.96385 626.9375Q198.15135 626.9375 199.96385 628.65625Q201.77635 630.3594 201.77635 632.90625Q201.77635 634.3594 201.26073 635.6719Q200.7451 636.9844 199.6201 638.4219Q198.8701 639.375 196.91698 641.1719Q194.96385 642.9531 194.44823 643.5469Q193.9326 644.125 193.60448 644.6719L201.77635 644.6719ZM211.83885 626.9375Q214.96385 626.9375 216.71385 629.15625Q218.8076 631.7969 218.8076 637.90625Q218.8076 644.0 216.69823 646.6719Q214.96385 648.8594 211.83885 648.8594Q208.69823 648.8594 206.77635 646.4531Q204.8701 644.0469 204.8701 637.8594Q204.8701 631.7969 206.97948 629.1406Q208.71385 626.9375 211.83885 626.9375ZM211.83885 630.34375Q211.08885 630.34375 210.4951 630.8281Q209.91698 631.2969 209.58885 632.53125Q209.16698 634.125 209.16698 637.90625Q209.16698 641.6875 209.54198 643.1094Q209.9326 644.5156 210.51073 644.9844Q211.08885 645.4531 211.83885 645.4531Q212.58885 645.4531 213.16698 644.9844Q213.76073 644.5 214.07323 643.2656Q214.51073 641.6875 214.51073 637.90625Q214.51073 634.125 214.1201 632.71875Q213.7451 631.2969 213.16698 630.8281Q212.58885 630.34375 211.83885 630.34375ZM232.41698 648.5L228.29198 648.5L228.29198 632.9844Q226.04198 635.09375 222.97948 636.1094L222.97948 632.375Q224.58885 631.84375 226.47948 630.375Q228.3701 628.90625 229.07323 626.9375L232.41698 626.9375L232.41698 648.5ZM238.96385 643.53125L242.94823 643.09375Q243.10448 644.3125 243.71385 644.90625Q244.32323 645.4844 245.33885 645.4844Q246.6201 645.4844 247.51073 644.3125Q248.40135 643.1406 248.65135 639.4531Q247.10448 641.25 244.76073 641.25Q242.22948 641.25 240.38573 639.2969Q238.5576 637.34375 238.5576 634.2031Q238.5576 630.9375 240.4951 628.9375Q242.4326 626.9375 245.44823 626.9375Q248.71385 626.9375 250.8076 629.46875Q252.90135 631.9844 252.90135 637.78125Q252.90135 643.6719 250.71385 646.28125Q248.52635 648.875 245.02635 648.875Q242.51073 648.875 240.94823 647.5469Q239.40135 646.2031 238.96385 643.53125ZM248.27635 634.5469Q248.27635 632.5469 247.35448 631.4531Q246.44823 630.34375 245.2451 630.34375Q244.10448 630.34375 243.35448 631.25Q242.60448 632.15625 242.60448 634.2031Q242.60448 636.28125 243.41698 637.2656Q244.2451 638.2344 245.46385 638.2344Q246.65135 638.2344 247.46385 637.2969Q248.27635 636.3594 248.27635 634.5469Z" fill-rule="nonzero"/><path fill="#000000" d="M264.96387 630.21875Q262.87012 633.875 258.99512 636.90625L256.57324 633.7969Q261.71387 630.03125 263.58887 622.96875L267.042 623.875Q268.51074 625.3594 266.80762 625.59375L266.3545 626.7344L282.57324 626.7344L282.57324 630.21875L274.02637 630.21875L274.02637 632.9531L281.05762 632.9531L281.05762 636.4219L274.02637 636.4219L274.02637 640.4531L283.87012 640.4531L283.87012 643.9219L274.02637 643.9219L274.02637 650.96875L270.43262 650.96875L270.43262 643.9219L256.94824 643.9219L256.94824 640.4531L262.2295 640.4531L262.2295 632.9531L270.43262 632.9531L270.43262 630.21875L264.96387 630.21875ZM265.82324 640.4531L270.43262 640.4531L270.43262 636.4219L265.82324 636.4219L265.82324 640.4531Z" fill-rule="nonzero"/><path fill="#000000" d="M402.67188 644.6719L402.67188 648.5L388.25 648.5Q388.48438 646.3281 389.65625 644.3906Q390.82812 642.4531 394.28125 639.2344Q397.0625 636.65625 397.70312 635.71875Q398.54688 634.4531 398.54688 633.2031Q398.54688 631.8281 397.79688 631.09375Q397.0625 630.34375 395.76562 630.34375Q394.46875 630.34375 393.70312 631.125Q392.95312 631.90625 392.82812 633.7031L388.73438 633.2969Q389.09375 629.8906 391.03125 628.4219Q392.96875 626.9375 395.85938 626.9375Q399.04688 626.9375 400.85938 628.65625Q402.67188 630.3594 402.67188 632.90625Q402.67188 634.3594 402.15625 635.6719Q401.64062 636.9844 400.51562 638.4219Q399.76562 639.375 397.8125 641.1719Q395.85938 642.9531 395.34375 643.5469Q394.82812 644.125 394.5 644.6719L402.67188 644.6719ZM412.73438 626.9375Q415.85938 626.9375 417.60938 629.15625Q419.70312 631.7969 419.70312 637.90625Q419.70312 644.0 417.59375 646.6719Q415.85938 648.8594 412.73438 648.8594Q409.59375 648.8594 407.67188 646.4531Q405.76562 644.0469 405.76562 637.8594Q405.76562 631.7969 407.875 629.1406Q409.60938 626.9375 412.73438 626.9375ZM412.73438 630.34375Q411.98438 630.34375 411.39062 630.8281Q410.8125 631.2969 410.48438 632.53125Q410.0625 634.125 410.0625 637.90625Q410.0625 641.6875 410.4375 643.1094Q410.82812 644.5156 411.40625 644.9844Q411.98438 645.4531 412.73438 645.4531Q413.48438 645.4531 414.0625 644.9844Q414.65625 644.5 414.96875 643.2656Q415.40625 641.6875 415.40625 637.90625Q415.40625 634.125 415.01562 632.71875Q414.64062 631.2969 414.0625 630.8281Q413.48438 630.34375 412.73438 630.34375ZM436.67188 644.6719L436.67188 648.5L422.25 648.5Q422.48438 646.3281 423.65625 644.3906Q424.82812 642.4531 428.28125 639.2344Q431.0625 636.65625 431.70312 635.71875Q432.54688 634.4531 432.54688 633.2031Q432.54688 631.8281 431.79688 631.09375Q431.0625 630.34375 429.76562 630.34375Q428.46875 630.34375 427.70312 631.125Q426.95312 631.90625 426.82812 633.7031L422.73438 633.2969Q423.09375 629.8906 425.03125 628.4219Q426.96875 626.9375 429.85938 626.9375Q433.04688 626.9375 434.85938 628.65625Q436.67188 630.3594 436.67188 632.90625Q436.67188 634.3594 436.15625 635.6719Q435.64062 636.9844 434.51562 638.4219Q433.76562 639.375 431.8125 641.1719Q429.85938 642.9531 429.34375 643.5469Q428.82812 644.125 428.5 644.6719L436.67188 644.6719ZM446.73438 626.9375Q449.85938 626.9375 451.60938 629.15625Q453.70312 631.7969 453.70312 637.90625Q453.70312 644.0 451.59375 646.6719Q449.85938 648.8594 446.73438 648.8594Q443.59375 648.8594 441.67188 646.4531Q439.76562 644.0469 439.76562 637.8594Q439.76562 631.7969 441.875 629.1406Q443.60938 626.9375 446.73438 626.9375ZM446.73438 630.34375Q445.98438 630.34375 445.39062 630.8281Q444.8125 631.2969 444.48438 632.53125Q444.0625 634.125 444.0625 637.90625Q444.0625 641.6875 444.4375 643.1094Q444.82812 644.5156 445.40625 644.9844Q445.98438 645.4531 446.73438 645.4531Q447.48438 645.4531 448.0625 644.9844Q448.65625 644.5 448.96875 643.2656Q449.40625 641.6875 449.40625 637.90625Q449.40625 634.125 449.01562 632.71875Q448.64062 631.2969 448.0625 630.8281Q447.48438 630.34375 446.73438 630.34375Z" fill-rule="nonzero"/><path fill="#000000" d="M465.85938 630.21875Q463.76562 633.875 459.89062 636.90625L457.46875 633.7969Q462.60938 630.03125 464.48438 622.96875L467.9375 623.875Q469.40625 625.3594 467.70312 625.59375L467.25 626.7344L483.46875 626.7344L483.46875 630.21875L474.92188 630.21875L474.92188 632.9531L481.95312 632.9531L481.95312 636.4219L474.92188 636.4219L474.92188 640.4531L484.76562 640.4531L484.76562 643.9219L474.92188 643.9219L474.92188 650.96875L471.32812 650.96875L471.32812 643.9219L457.84375 643.9219L457.84375 640.4531L463.125 640.4531L463.125 632.9531L471.32812 632.9531L471.32812 630.21875L465.85938 630.21875ZM466.71875 640.4531L471.32812 640.4531L471.32812 636.4219L466.71875 636.4219L466.71875 640.4531Z" fill-rule="nonzero"/><path fill="#000000" d="M603.5674 644.6719L603.5674 648.5L589.1455 648.5Q589.3799 646.3281 590.55176 644.3906Q591.72363 642.4531 595.17676 639.2344Q597.958 636.65625 598.59863 635.71875Q599.4424 634.4531 599.4424 633.2031Q599.4424 631.8281 598.6924 631.09375Q597.958 630.34375 596.66113 630.34375Q595.36426 630.34375 594.59863 631.125Q593.84863 631.90625 593.72363 633.7031L589.6299 633.2969Q589.98926 629.8906 591.92676 628.4219Q593.86426 626.9375 596.7549 626.9375Q599.9424 626.9375 601.7549 628.65625Q603.5674 630.3594 603.5674 632.90625Q603.5674 634.3594 603.05176 635.6719Q602.53613 636.9844 601.41113 638.4219Q600.66113 639.375 598.708 641.1719Q596.7549 642.9531 596.23926 643.5469Q595.72363 644.125 595.3955 644.6719L603.5674 644.6719ZM613.6299 626.9375Q616.7549 626.9375 618.5049 629.15625Q620.59863 631.7969 620.59863 637.90625Q620.59863 644.0 618.48926 646.6719Q616.7549 648.8594 613.6299 648.8594Q610.48926 648.8594 608.5674 646.4531Q606.66113 644.0469 606.66113 637.8594Q606.66113 631.7969 608.7705 629.1406Q610.5049 626.9375 613.6299 626.9375ZM613.6299 630.34375Q612.8799 630.34375 612.28613 630.8281Q611.708 631.2969 611.3799 632.53125Q610.958 634.125 610.958 637.90625Q610.958 641.6875 611.333 643.1094Q611.72363 644.5156 612.30176 644.9844Q612.8799 645.4531 613.6299 645.4531Q614.3799 645.4531 614.958 644.9844Q615.55176 644.5 615.86426 643.2656Q616.30176 641.6875 616.30176 637.90625Q616.30176 634.125 615.91113 632.71875Q615.53613 631.2969 614.958 630.8281Q614.3799 630.34375 613.6299 630.34375ZM637.5674 644.6719L637.5674 648.5L623.1455 648.5Q623.3799 646.3281 624.55176 644.3906Q625.72363 642.4531 629.17676 639.2344Q631.958 636.65625 632.59863 635.71875Q633.4424 634.4531 633.4424 633.2031Q633.4424 631.8281 632.6924 631.09375Q631.958 630.34375 630.66113 630.34375Q629.36426 630.34375 628.59863 631.125Q627.84863 631.90625 627.72363 633.7031L623.6299 633.2969Q623.98926 629.8906 625.92676 628.4219Q627.86426 626.9375 630.7549 626.9375Q633.9424 626.9375 635.7549 628.65625Q637.5674 630.3594 637.5674 632.90625Q637.5674 634.3594 637.05176 635.6719Q636.53613 636.9844 635.41113 638.4219Q634.66113 639.375 632.708 641.1719Q630.7549 642.9531 630.23926 643.5469Q629.72363 644.125 629.3955 644.6719L637.5674 644.6719ZM651.208 648.5L647.083 648.5L647.083 632.9844Q644.833 635.09375 641.7705 636.1094L641.7705 632.375Q643.3799 631.84375 645.2705 630.375Q647.16113 628.90625 647.86426 626.9375L651.208 626.9375L651.208 648.5Z" fill-rule="nonzero"/><path fill="#000000" d="M666.7549 630.21875Q664.66113 633.875 660.78613 636.90625L658.36426 633.7969Q663.5049 630.03125 665.3799 622.96875L668.833 623.875Q670.30176 625.3594 668.59863 625.59375L668.1455 626.7344L684.36426 626.7344L684.36426 630.21875L675.8174 630.21875L675.8174 632.9531L682.84863 632.9531L682.84863 636.4219L675.8174 636.4219L675.8174 640.4531L685.66113 640.4531L685.66113 643.9219L675.8174 643.9219L675.8174 650.96875L672.22363 650.96875L672.22363 643.9219L658.73926 643.9219L658.73926 640.4531L664.0205 640.4531L664.0205 632.9531L672.22363 632.9531L672.22363 630.21875L666.7549 630.21875ZM667.61426 640.4531L672.22363 640.4531L672.22363 636.4219L667.61426 636.4219L667.61426 640.4531Z" fill-rule="nonzero"/><path fill="#757575" d="M658.4844 57.703125L656.6094 57.703125Q655.1094 55.453125 654.3281 53.03125Q653.5469 50.59375 653.5469 48.3125Q653.5469 45.484375 654.5156 42.96875Q655.3594 40.78125 656.6406 38.9375L658.5156 38.9375Q657.1719 41.890625 656.6719 43.96875Q656.1719 46.046875 656.1719 48.375Q656.1719 49.96875 656.46875 51.65625Q656.7656 53.328125 657.28125 54.84375Q657.625 55.84375 658.4844 57.703125Z" fill-rule="nonzero"/><path fill="#757575" d="M675.1875 40.34375L676.875 40.34375L676.875 49.203125L674.5 49.203125L674.5 48.734375L671.0156 48.734375L671.0156 49.5625L679.21875 49.5625L679.21875 51.859375L671.0156 51.859375L671.0156 55.140625L668.6406 55.140625L668.6406 51.859375L660.59375 51.859375L660.59375 49.5625L668.6406 49.5625L668.6406 48.734375L665.2344 48.734375L665.2344 49.359375L662.8594 49.359375L662.8594 40.34375L672.34375 40.34375L674.9531 36.359375L676.78125 37.609375Q678.09375 38.65625 676.5156 38.65625L675.1875 40.34375ZM669.375 36.5625Q671.1719 38.0625 671.9219 39.46875L669.7656 41.046875Q668.9531 39.515625 667.40625 38.0625L669.375 36.5625ZM668.6406 43.46875L668.6406 42.640625L665.2344 42.640625L665.2344 43.46875L668.6406 43.46875ZM674.5 43.46875L674.5 42.640625L671.0156 42.640625L671.0156 43.46875L674.5 43.46875ZM668.6406 46.4375L668.6406 45.765625L665.2344 45.765625L665.2344 46.4375L668.6406 46.4375ZM674.5 46.4375L674.5 45.765625L671.0156 45.765625L671.0156 46.4375L674.5 46.4375ZM664.75 41.09375Q663.9531 39.515625 662.5625 38.21875L664.5469 36.703125Q666.09375 38.15625 666.9219 39.71875L664.75 41.09375ZM696.6719 44.671875Q696.0781 47.8125 694.7031 51.515625L699.1406 51.515625L699.1406 53.8125L685.28125 53.8125L685.28125 51.515625L692.1094 51.515625Q693.4219 47.140625 694.2031 42.96875L696.6406 43.65625Q697.46875 44.203125 696.6719 44.671875ZM683.0156 55.0625L683.1719 45.71875Q683.28125 45.828125 681.65625 47.671875L680.1719 45.375Q683.4219 42.203125 684.1719 36.625L686.46875 37.328125Q687.7969 37.984375 686.5 38.484375Q685.9219 40.890625 685.1875 42.234375L685.34375 42.171875Q686.03125 42.859375 685.3906 43.25L685.3906 55.0625L683.0156 55.0625ZM689.4219 43.765625Q690.7656 46.640625 691.46875 50.078125L688.8906 50.96875Q688.1875 47.4375 686.9375 44.5625L689.4219 43.765625ZM698.28125 40.734375L698.28125 43.03125L686.1406 43.03125L686.1406 40.734375L690.90625 40.734375L690.90625 36.90625L692.8281 36.90625Q694.5 37.109375 693.28125 37.984375L693.28125 40.734375L698.28125 40.734375Z" fill-rule="nonzero"/><path fill="#757575" d="M701.46875 45.875L701.46875 43.125L704.2031 43.125L704.2031 45.875L701.46875 45.875ZM701.46875 53.5L701.46875 50.75L704.2031 50.75L704.2031 53.5L701.46875 53.5Z" fill-rule="nonzero"/><path fill="#757575" d="M725.9844 37.765625L725.9844 40.296875L718.25 40.296875L717.875 42.0625L723.9531 42.0625L723.9531 54.75L721.34375 54.75L721.34375 53.734375L712.7031 53.734375L712.7031 55.0625L710.09375 55.0625L710.09375 42.0625L715.15625 42.0625L715.4844 40.296875L707.8281 40.296875L707.8281 37.765625L725.9844 37.765625ZM712.7031 49.046875L712.7031 51.4375L721.34375 51.4375L721.34375 49.046875L712.7031 49.046875ZM721.34375 46.75L721.34375 44.359375L712.7031 44.359375L712.7031 46.75L721.34375 46.75ZM734.0 40.765625L728.21875 40.765625L728.21875 38.234375L745.75 38.234375L745.75 40.765625L736.6094 40.765625Q736.6094 42.015625 736.5 43.234375L744.34375 43.234375Q744.34375 48.859375 743.46875 51.875Q742.7656 54.4375 740.2656 54.4375L736.875 54.4375L736.4219 51.90625L739.71875 51.90625Q740.7344 51.90625 740.96875 51.109375Q741.5781 49.046875 741.6406 45.765625L736.1406 45.765625Q734.9219 51.5625 729.5156 54.484375L727.875 52.078125Q734.0 49.015625 734.0 41.6875L734.0 40.765625ZM764.7344 52.859375Q764.7344 54.515625 763.0781 54.515625L760.7344 54.515625L760.0469 51.984375L762.21875 51.984375Q762.21875 52.078125 762.125 52.078125L762.125 47.25L751.4531 47.25L751.4531 54.59375L748.84375 54.59375L748.84375 37.921875L764.7344 37.921875L764.7344 52.859375ZM762.125 40.21875L757.9375 40.21875L757.9375 44.953125L762.125 44.953125L762.125 40.21875ZM751.4531 40.21875L751.4531 44.953125L755.5625 44.953125L755.5625 40.21875L751.4531 40.21875Z" fill-rule="nonzero"/><path fill="#757575" d="M767.1719 57.703125Q767.9844 55.96875 768.3125 55.03125Q768.65625 54.109375 768.9375 52.90625Q769.21875 51.6875 769.34375 50.609375Q769.4844 49.515625 769.4844 48.375Q769.4844 46.046875 768.9844 43.96875Q768.5 41.890625 767.15625 38.9375L769.0156 38.9375Q770.5 41.03125 771.3125 43.390625Q772.125 45.75 772.125 48.171875Q772.125 50.203125 771.4844 52.546875Q770.75 55.15625 769.0625 57.703125L767.1719 57.703125Z" fill-rule="nonzero"/></svg>