<svg version="1.1" viewBox="0.0 0.0 802.0 685.0" fill="none" stroke="none" stroke-linecap="square" stroke-miterlimit="10" width="802" height="685" xmlns:xlink="http://www.w3.org/1999/xlink" xmlns="http://www.w3.org/2000/svg"><path fill="#ffffff" d="M0 0L802.0 0L802.0 685.0L0 685.0L0 0Z" fill-rule="nonzero"/><path stroke="#333333" stroke-width="1.0" stroke-linecap="butt" d="M100.5 600.5L767.5 600.5" fill-rule="nonzero"/><path stroke="#cccccc" stroke-width="1.0" stroke-linecap="butt" d="M100.5 508.5L767.5 508.5" fill-rule="nonzero"/><path stroke="#cccccc" stroke-width="1.0" stroke-linecap="butt" d="M100.5 416.5L767.5 416.5" fill-rule="nonzero"/><path stroke="#cccccc" stroke-width="1.0" stroke-linecap="butt" d="M100.5 325.5L767.5 325.5" fill-rule="nonzero"/><path stroke="#cccccc" stroke-width="1.0" stroke-linecap="butt" d="M100.5 233.5L767.5 233.5" fill-rule="nonzero"/><path stroke="#cccccc" stroke-width="1.0" stroke-linecap="butt" d="M100.5 141.5L767.5 141.5" fill-rule="nonzero"/><clipPath id="id_0"><path d="M100.25 141.27174L767.75 141.27174L767.75 600.75L100.25 600.75L100.25 141.27174Z" clip-rule="nonzero"/></clipPath><path stroke="#000000" stroke-width="2.0" stroke-linecap="butt" stroke-opacity="0.0" clip-path="url(#id_0)" d="M254.0 601.0L154.0 601.0L154.0 582.0L254.0 582.0Z" fill-rule="nonzero"/><path fill="#4285f4" clip-path="url(#id_0)" d="M254.0 601.0L154.0 601.0L154.0 582.0L254.0 582.0Z" fill-rule="nonzero"/><path stroke="#000000" stroke-width="2.0" stroke-linecap="butt" stroke-opacity="0.0" clip-path="url(#id_0)" d="M407.0 601.0L307.0 601.0L307.0 525.0L407.0 525.0Z" fill-rule="nonzero"/><path fill="#4285f4" clip-path="url(#id_0)" d="M407.0 601.0L307.0 601.0L307.0 525.0L407.0 525.0Z" fill-rule="nonzero"/><path stroke="#000000" stroke-width="2.0" stroke-linecap="butt" stroke-opacity="0.0" clip-path="url(#id_0)" d="M561.0 601.0L461.0 601.0L461.0 485.0L561.0 485.0Z" fill-rule="nonzero"/><path fill="#4285f4" clip-path="url(#id_0)" d="M561.0 601.0L461.0 601.0L461.0 485.0L561.0 485.0Z" fill-rule="nonzero"/><path stroke="#000000" stroke-width="2.0" stroke-linecap="butt" stroke-opacity="0.0" clip-path="url(#id_0)" d="M714.0 601.0L614.0 601.0L614.0 393.0L714.0 393.0Z" fill-rule="nonzero"/><path fill="#4285f4" clip-path="url(#id_0)" d="M714.0 601.0L614.0 601.0L614.0 393.0L714.0 393.0Z" fill-rule="nonzero"/><path stroke="#000000" stroke-width="2.0" stroke-linecap="butt" stroke-opacity="0.0" clip-path="url(#id_0)" d="M254.0 582.0L154.0 582.0L154.0 582.0L254.0 582.0Z" fill-rule="nonzero"/><path fill="#f39800" clip-path="url(#id_0)" d="M254.0 582.0L154.0 582.0L154.0 582.0L254.0 582.0Z" fill-rule="nonzero"/><path stroke="#000000" stroke-width="2.0" stroke-linecap="butt" stroke-opacity="0.0" clip-path="url(#id_0)" d="M407.0 525.0L307.0 525.0L307.0 525.0L407.0 525.0Z" fill-rule="nonzero"/><path fill="#f39800" clip-path="url(#id_0)" d="M407.0 525.0L307.0 525.0L307.0 525.0L407.0 525.0Z" fill-rule="nonzero"/><path stroke="#000000" stroke-width="2.0" stroke-linecap="butt" stroke-opacity="0.0" clip-path="url(#id_0)" d="M561.0 485.0L461.0 485.0L461.0 478.0C461.0 476.89542 461.89542 476.0 463.0 476.0L559.0 476.0C560.10455 476.0 561.0 476.89542 561.0 478.0Z" fill-rule="nonzero"/><path fill="#f39800" clip-path="url(#id_0)" d="M561.0 485.0L461.0 485.0L461.0 478.0C461.0 476.89542 461.89542 476.0 463.0 476.0L559.0 476.0C560.10455 476.0 561.0 476.89542 561.0 478.0Z" fill-rule="nonzero"/><path stroke="#000000" stroke-width="2.0" stroke-linecap="butt" stroke-opacity="0.0" clip-path="url(#id_0)" d="M714.0 393.0L614.0 393.0L614.0 288.0C614.0 286.89542 614.89545 286.0 616.0 286.0L712.0 286.0C713.10455 286.0 714.0 286.89542 714.0 288.0Z" fill-rule="nonzero"/><path fill="#f39800" clip-path="url(#id_0)" d="M714.0 393.0L614.0 393.0L614.0 288.0C614.0 286.89542 614.89545 286.0 616.0 286.0L712.0 286.0C713.10455 286.0 714.0 286.89542 714.0 288.0Z" fill-rule="nonzero"/><path stroke="#ffffff" stroke-width="3.0" stroke-linejoin="round" stroke-linecap="round" d="M198.17188 538.37085L193.23438 538.37085L193.23438 519.7615Q190.51562 522.2927 186.84375 523.49585L186.84375 519.0115Q188.78125 518.3865 191.04688 516.62085Q193.3125 514.8552 194.15625 512.49585L198.17188 512.49585L198.17188 538.37085ZM213.875 512.49585Q217.625 512.49585 219.73438 515.1677Q222.25 518.324 222.25 525.6677Q222.25 532.9802 219.71875 536.1677Q217.625 538.80835 213.875 538.80835Q210.125 538.80835 207.8125 535.9177Q205.51562 533.0271 205.51562 525.6052Q205.51562 518.324 208.04688 515.1365Q210.14062 512.49585 213.875 512.49585ZM213.875 516.5896Q212.98438 516.5896 212.28125 517.1677Q211.57812 517.7302 211.1875 519.2146Q210.6875 521.12085 210.6875 525.6677Q210.6875 530.199 211.14062 531.9021Q211.59375 533.5896 212.28125 534.1521Q212.98438 534.7146 213.875 534.7146Q214.78125 534.7146 215.48438 534.1521Q216.1875 533.574 216.5625 532.0896Q217.07812 530.199 217.07812 525.6677Q217.07812 521.12085 216.625 519.43335Q216.17188 517.7302 215.46875 517.1677Q214.78125 516.5896 213.875 516.5896Z" fill-rule="nonzero"/><path fill="#4285f4" d="M198.17188 538.37085L193.23438 538.37085L193.23438 519.7615Q190.51562 522.2927 186.84375 523.49585L186.84375 519.0115Q188.78125 518.3865 191.04688 516.62085Q193.3125 514.8552 194.15625 512.49585L198.17188 512.49585L198.17188 538.37085ZM213.875 512.49585Q217.625 512.49585 219.73438 515.1677Q222.25 518.324 222.25 525.6677Q222.25 532.9802 219.71875 536.1677Q217.625 538.80835 213.875 538.80835Q210.125 538.80835 207.8125 535.9177Q205.51562 533.0271 205.51562 525.6052Q205.51562 518.324 208.04688 515.1365Q210.14062 512.49585 213.875 512.49585ZM213.875 516.5896Q212.98438 516.5896 212.28125 517.1677Q211.57812 517.7302 211.1875 519.2146Q210.6875 521.12085 210.6875 525.6677Q210.6875 530.199 211.14062 531.9021Q211.59375 533.5896 212.28125 534.1521Q212.98438 534.7146 213.875 534.7146Q214.78125 534.7146 215.48438 534.1521Q216.1875 533.574 216.5625 532.0896Q217.07812 530.199 217.07812 525.6677Q217.07812 521.12085 216.625 519.43335Q216.17188 517.7302 215.46875 517.1677Q214.78125 516.5896 213.875 516.5896Z" fill-rule="nonzero"/><path stroke="#ffffff" stroke-width="3.0" stroke-linejoin="round" stroke-linecap="round" d="M348.21875 481.39557L348.21875 476.20807L337.67188 476.20807L337.67188 471.87994L348.84375 455.52057L353.0 455.52057L353.0 471.86432L356.20312 471.86432L356.20312 476.20807L353.0 476.20807L353.0 481.39557L348.21875 481.39557ZM348.21875 471.86432L348.21875 463.06744L342.29688 471.86432L348.21875 471.86432ZM371.17188 481.39557L366.23438 481.39557L366.23438 462.7862Q363.51562 465.31744 359.84375 466.52057L359.84375 462.0362Q361.78125 461.4112 364.04688 459.64557Q366.3125 457.87994 367.15625 455.52057L371.17188 455.52057L371.17188 481.39557Z" fill-rule="nonzero"/><path fill="#4285f4" d="M348.21875 481.39557L348.21875 476.20807L337.67188 476.20807L337.67188 471.87994L348.84375 455.52057L353.0 455.52057L353.0 471.86432L356.20312 471.86432L356.20312 476.20807L353.0 476.20807L353.0 481.39557L348.21875 481.39557ZM348.21875 471.86432L348.21875 463.06744L342.29688 471.86432L348.21875 471.86432ZM371.17188 481.39557L366.23438 481.39557L366.23438 462.7862Q363.51562 465.31744 359.84375 466.52057L359.84375 462.0362Q361.78125 461.4112 364.04688 459.64557Q366.3125 457.87994 367.15625 455.52057L371.17188 455.52057L371.17188 481.39557Z" fill-rule="nonzero"/><path stroke="#ffffff" stroke-width="3.0" stroke-linejoin="round" stroke-linecap="round" d="M509.26562 412.3188L504.48438 412.8344Q504.3125 411.36566 503.5625 410.66254Q502.82812 409.9594 501.65625 409.9594Q500.09375 409.9594 499.0 411.36566Q497.92188 412.7719 497.64062 417.2094Q499.48438 415.03754 502.23438 415.03754Q505.32812 415.03754 507.53125 417.3969Q509.73438 419.74066 509.73438 423.47504Q509.73438 427.42816 507.40625 429.8188Q505.09375 432.2094 501.45312 432.2094Q497.5625 432.2094 495.04688 429.17816Q492.53125 426.1469 492.53125 419.24066Q492.53125 412.1469 495.14062 409.0219Q497.76562 405.8969 501.95312 405.8969Q504.89062 405.8969 506.8125 407.53754Q508.73438 409.17816 509.26562 412.3188ZM498.0625 423.0844Q498.0625 425.49066 499.17188 426.80316Q500.28125 428.11566 501.70312 428.11566Q503.07812 428.11566 503.98438 427.05316Q504.90625 425.97504 504.90625 423.5219Q504.90625 421.0063 503.92188 419.85004Q502.9375 418.67816 501.45312 418.67816Q500.03125 418.67816 499.04688 419.80316Q498.0625 420.91254 498.0625 423.0844ZM516.7656 417.86566Q514.84375 417.05316 513.96875 415.6469Q513.1094 414.22504 513.1094 412.53754Q513.1094 409.66254 515.125 407.78754Q517.1406 405.8969 520.84375 405.8969Q524.5156 405.8969 526.5469 407.78754Q528.5781 409.66254 528.5781 412.53754Q528.5781 414.3344 527.6406 415.74066Q526.71875 417.1313 525.03125 417.86566Q527.1719 418.72504 528.28125 420.3813Q529.40625 422.03754 529.40625 424.1938Q529.40625 427.7563 527.125 429.99066Q524.8594 432.22504 521.0781 432.22504Q517.5625 432.22504 515.21875 430.3813Q512.4531 428.2094 512.4531 424.41254Q512.4531 422.3188 513.4844 420.5688Q514.53125 418.8188 516.7656 417.86566ZM517.78125 412.8969Q517.78125 414.36566 518.6094 415.1938Q519.4531 416.0219 520.84375 416.0219Q522.25 416.0219 523.09375 415.1938Q523.9375 414.35004 523.9375 412.8813Q523.9375 411.49066 523.09375 410.66254Q522.2656 409.8188 520.8906 409.8188Q519.46875 409.8188 518.625 410.66254Q517.78125 411.5063 517.78125 412.8969ZM517.3281 423.92816Q517.3281 425.97504 518.375 427.11566Q519.4219 428.2563 520.9844 428.2563Q522.5156 428.2563 523.5156 427.16254Q524.5156 426.05316 524.5156 423.99066Q524.5156 422.17816 523.5 421.0844Q522.4844 419.97504 520.9219 419.97504Q519.1094 419.97504 518.21875 421.22504Q517.3281 422.47504 517.3281 423.92816Z" fill-rule="nonzero"/><path fill="#4285f4" d="M509.26562 412.3188L504.48438 412.8344Q504.3125 411.36566 503.5625 410.66254Q502.82812 409.9594 501.65625 409.9594Q500.09375 409.9594 499.0 411.36566Q497.92188 412.7719 497.64062 417.2094Q499.48438 415.03754 502.23438 415.03754Q505.32812 415.03754 507.53125 417.3969Q509.73438 419.74066 509.73438 423.47504Q509.73438 427.42816 507.40625 429.8188Q505.09375 432.2094 501.45312 432.2094Q497.5625 432.2094 495.04688 429.17816Q492.53125 426.1469 492.53125 419.24066Q492.53125 412.1469 495.14062 409.0219Q497.76562 405.8969 501.95312 405.8969Q504.89062 405.8969 506.8125 407.53754Q508.73438 409.17816 509.26562 412.3188ZM498.0625 423.0844Q498.0625 425.49066 499.17188 426.80316Q500.28125 428.11566 501.70312 428.11566Q503.07812 428.11566 503.98438 427.05316Q504.90625 425.97504 504.90625 423.5219Q504.90625 421.0063 503.92188 419.85004Q502.9375 418.67816 501.45312 418.67816Q500.03125 418.67816 499.04688 419.80316Q498.0625 420.91254 498.0625 423.0844ZM516.7656 417.86566Q514.84375 417.05316 513.96875 415.6469Q513.1094 414.22504 513.1094 412.53754Q513.1094 409.66254 515.125 407.78754Q517.1406 405.8969 520.84375 405.8969Q524.5156 405.8969 526.5469 407.78754Q528.5781 409.66254 528.5781 412.53754Q528.5781 414.3344 527.6406 415.74066Q526.71875 417.1313 525.03125 417.86566Q527.1719 418.72504 528.28125 420.3813Q529.40625 422.03754 529.40625 424.1938Q529.40625 427.7563 527.125 429.99066Q524.8594 432.22504 521.0781 432.22504Q517.5625 432.22504 515.21875 430.3813Q512.4531 428.2094 512.4531 424.41254Q512.4531 422.3188 513.4844 420.5688Q514.53125 418.8188 516.7656 417.86566ZM517.78125 412.8969Q517.78125 414.36566 518.6094 415.1938Q519.4531 416.0219 520.84375 416.0219Q522.25 416.0219 523.09375 415.1938Q523.9375 414.35004 523.9375 412.8813Q523.9375 411.49066 523.09375 410.66254Q522.2656 409.8188 520.8906 409.8188Q519.46875 409.8188 518.625 410.66254Q517.78125 411.5063 517.78125 412.8969ZM517.3281 423.92816Q517.3281 425.97504 518.375 427.11566Q519.4219 428.2563 520.9844 428.2563Q522.5156 428.2563 523.5156 427.16254Q524.5156 426.05316 524.5156 423.99066Q524.5156 422.17816 523.5 421.0844Q522.4844 419.97504 520.9219 419.97504Q519.1094 419.97504 518.21875 421.22504Q517.3281 422.47504 517.3281 423.92816Z" fill-rule="nonzero"/><path stroke="#ffffff" stroke-width="3.0" stroke-linejoin="round" stroke-linecap="round" d="M648.1719 242.46687L643.2344 242.46687L643.2344 223.8575Q640.5156 226.38875 636.84375 227.59187L636.84375 223.1075Q638.78125 222.4825 641.0469 220.71687Q643.3125 218.95125 644.15625 216.59187L648.1719 216.59187L648.1719 242.46687ZM655.53125 221.63875L655.53125 217.045L672.4219 217.045L672.4219 220.63875Q670.3281 222.68562 668.15625 226.545Q666.0 230.38875 664.8594 234.7325Q663.7344 239.06062 663.75 242.46687L659.0 242.46687Q659.1094 237.12312 661.1875 231.57625Q663.28125 226.01375 666.7656 221.63875L655.53125 221.63875ZM688.1719 242.46687L683.2344 242.46687L683.2344 223.8575Q680.5156 226.38875 676.84375 227.59187L676.84375 223.1075Q678.78125 222.4825 681.0469 220.71687Q683.3125 218.95125 684.15625 216.59187L688.1719 216.59187L688.1719 242.46687Z" fill-rule="nonzero"/><path fill="#4285f4" d="M648.1719 242.46687L643.2344 242.46687L643.2344 223.8575Q640.5156 226.38875 636.84375 227.59187L636.84375 223.1075Q638.78125 222.4825 641.0469 220.71687Q643.3125 218.95125 644.15625 216.59187L648.1719 216.59187L648.1719 242.46687ZM655.53125 221.63875L655.53125 217.045L672.4219 217.045L672.4219 220.63875Q670.3281 222.68562 668.15625 226.545Q666.0 230.38875 664.8594 234.7325Q663.7344 239.06062 663.75 242.46687L659.0 242.46687Q659.1094 237.12312 661.1875 231.57625Q663.28125 226.01375 666.7656 221.63875L655.53125 221.63875ZM688.1719 242.46687L683.2344 242.46687L683.2344 223.8575Q680.5156 226.38875 676.84375 227.59187L676.84375 223.1075Q678.78125 222.4825 681.0469 220.71687Q683.3125 218.95125 684.15625 216.59187L688.1719 216.59187L688.1719 242.46687Z" fill-rule="nonzero"/><path fill="#000000" d="M76.484375 589.6875Q79.609375 589.6875 81.359375 591.90625Q83.453125 594.5469 83.453125 600.65625Q83.453125 606.75 81.34375 609.4219Q79.609375 611.6094 76.484375 611.6094Q73.34375 611.6094 71.421875 609.2031Q69.515625 606.7969 69.515625 600.6094Q69.515625 594.5469 71.625 591.8906Q73.359375 589.6875 76.484375 589.6875ZM76.484375 593.09375Q75.734375 593.09375 75.140625 593.5781Q74.5625 594.0469 74.234375 595.28125Q73.8125 596.875 73.8125 600.65625Q73.8125 604.4375 74.1875 605.8594Q74.578125 607.2656 75.15625 607.7344Q75.734375 608.2031 76.484375 608.2031Q77.234375 608.2031 77.8125 607.7344Q78.40625 607.25 78.71875 606.0156Q79.15625 604.4375 79.15625 600.65625Q79.15625 596.875 78.765625 595.46875Q78.390625 594.0469 77.8125 593.5781Q77.234375 593.09375 76.484375 593.09375Z" fill-rule="nonzero"/><path fill="#000000" d="M52.578125 513.83875L56.6875 513.40125Q56.859375 514.7919 57.71875 515.6044Q58.59375 516.4169 59.71875 516.4169Q61.0 516.4169 61.890625 515.37Q62.796875 514.3231 62.796875 512.21375Q62.796875 510.245 61.90625 509.26062Q61.015625 508.26062 59.59375 508.26062Q57.828125 508.26062 56.421875 509.83875L53.078125 509.35437L55.1875 498.16687L66.078125 498.16687L66.078125 502.02625L58.3125 502.02625L57.671875 505.66687Q59.046875 504.97937 60.484375 504.97937Q63.21875 504.97937 65.125 506.97937Q67.03125 508.96375 67.03125 512.15125Q67.03125 514.7919 65.484375 516.8856Q63.390625 519.71375 59.671875 519.71375Q56.703125 519.71375 54.828125 518.12Q52.953125 516.52625 52.578125 513.83875ZM76.484375 497.79187Q79.609375 497.79187 81.359375 500.01062Q83.453125 502.65125 83.453125 508.76062Q83.453125 514.8544 81.34375 517.52625Q79.609375 519.71375 76.484375 519.71375Q73.34375 519.71375 71.421875 517.3075Q69.515625 514.90125 69.515625 508.71375Q69.515625 502.65125 71.625 499.995Q73.359375 497.79187 76.484375 497.79187ZM76.484375 501.19812Q75.734375 501.19812 75.140625 501.6825Q74.5625 502.15125 74.234375 503.38562Q73.8125 504.97937 73.8125 508.76062Q73.8125 512.5419 74.1875 513.96375Q74.578125 515.37 75.15625 515.83875Q75.734375 516.3075 76.484375 516.3075Q77.234375 516.3075 77.8125 515.83875Q78.40625 515.3544 78.71875 514.12Q79.15625 512.5419 79.15625 508.76062Q79.15625 504.97937 78.765625 503.57312Q78.390625 502.15125 77.8125 501.6825Q77.234375 501.19812 76.484375 501.19812Z" fill-rule="nonzero"/><path fill="#000000" d="M46.0625 427.4587L41.9375 427.4587L41.9375 411.94308Q39.6875 414.05246 36.625 415.06808L36.625 411.3337Q38.234375 410.80246 40.125 409.3337Q42.015625 407.86496 42.71875 405.8962L46.0625 405.8962L46.0625 427.4587ZM59.484375 405.8962Q62.609375 405.8962 64.359375 408.11496Q66.453125 410.75558 66.453125 416.86496Q66.453125 422.9587 64.34375 425.63058Q62.609375 427.81808 59.484375 427.81808Q56.34375 427.81808 54.421875 425.41183Q52.515625 423.00558 52.515625 416.81808Q52.515625 410.75558 54.625 408.09933Q56.359375 405.8962 59.484375 405.8962ZM59.484375 409.30246Q58.734375 409.30246 58.140625 409.78683Q57.5625 410.25558 57.234375 411.48996Q56.8125 413.0837 56.8125 416.86496Q56.8125 420.6462 57.1875 422.06808Q57.578125 423.47433 58.15625 423.94308Q58.734375 424.41183 59.484375 424.41183Q60.234375 424.41183 60.8125 423.94308Q61.40625 423.4587 61.71875 422.22433Q62.15625 420.6462 62.15625 416.86496Q62.15625 413.0837 61.765625 411.67746Q61.390625 410.25558 60.8125 409.78683Q60.234375 409.30246 59.484375 409.30246ZM76.484375 405.8962Q79.609375 405.8962 81.359375 408.11496Q83.453125 410.75558 83.453125 416.86496Q83.453125 422.9587 81.34375 425.63058Q79.609375 427.81808 76.484375 427.81808Q73.34375 427.81808 71.421875 425.41183Q69.515625 423.00558 69.515625 416.81808Q69.515625 410.75558 71.625 408.09933Q73.359375 405.8962 76.484375 405.8962ZM76.484375 409.30246Q75.734375 409.30246 75.140625 409.78683Q74.5625 410.25558 74.234375 411.48996Q73.8125 413.0837 73.8125 416.86496Q73.8125 420.6462 74.1875 422.06808Q74.578125 423.47433 75.15625 423.94308Q75.734375 424.41183 76.484375 424.41183Q77.234375 424.41183 77.8125 423.94308Q78.40625 423.4587 78.71875 422.22433Q79.15625 420.6462 79.15625 416.86496Q79.15625 413.0837 78.765625 411.67746Q78.390625 410.25558 77.8125 409.78683Q77.234375 409.30246 76.484375 409.30246Z" fill-rule="nonzero"/><path fill="#000000" d="M46.0625 335.56305L41.9375 335.56305L41.9375 320.04742Q39.6875 322.1568 36.625 323.17242L36.625 319.43805Q38.234375 318.9068 40.125 317.43805Q42.015625 315.9693 42.71875 314.00055L46.0625 314.00055L46.0625 335.56305ZM52.578125 330.04742L56.6875 329.60992Q56.859375 331.00055 57.71875 331.81305Q58.59375 332.62555 59.71875 332.62555Q61.0 332.62555 61.890625 331.57867Q62.796875 330.5318 62.796875 328.42242Q62.796875 326.45367 61.90625 325.4693Q61.015625 324.4693 59.59375 324.4693Q57.828125 324.4693 56.421875 326.04742L53.078125 325.56305L55.1875 314.37555L66.078125 314.37555L66.078125 318.23492L58.3125 318.23492L57.671875 321.87555Q59.046875 321.18805 60.484375 321.18805Q63.21875 321.18805 65.125 323.18805Q67.03125 325.17242 67.03125 328.35992Q67.03125 331.00055 65.484375 333.0943Q63.390625 335.92242 59.671875 335.92242Q56.703125 335.92242 54.828125 334.32867Q52.953125 332.73492 52.578125 330.04742ZM76.484375 314.00055Q79.609375 314.00055 81.359375 316.2193Q83.453125 318.85992 83.453125 324.9693Q83.453125 331.06305 81.34375 333.73492Q79.609375 335.92242 76.484375 335.92242Q73.34375 335.92242 71.421875 333.51617Q69.515625 331.10992 69.515625 324.92242Q69.515625 318.85992 71.625 316.20367Q73.359375 314.00055 76.484375 314.00055ZM76.484375 317.4068Q75.734375 317.4068 75.140625 317.89117Q74.5625 318.35992 74.234375 319.5943Q73.8125 321.18805 73.8125 324.9693Q73.8125 328.75055 74.1875 330.17242Q74.578125 331.57867 75.15625 332.04742Q75.734375 332.51617 76.484375 332.51617Q77.234375 332.51617 77.8125 332.04742Q78.40625 331.56305 78.71875 330.32867Q79.15625 328.75055 79.15625 324.9693Q79.15625 321.18805 78.765625 319.7818Q78.390625 318.35992 77.8125 317.89117Q77.234375 317.4068 76.484375 317.4068Z" fill-rule="nonzero"/><path fill="#000000" d="M49.421875 239.83926L49.421875 243.66739L35.0 243.66739Q35.234375 241.49551 36.40625 239.55801Q37.578125 237.62051 41.03125 234.40176Q43.8125 231.82364 44.453125 230.88614Q45.296875 229.62051 45.296875 228.37051Q45.296875 226.99551 44.546875 226.26114Q43.8125 225.51114 42.515625 225.51114Q41.21875 225.51114 40.453125 226.29239Q39.703125 227.07364 39.578125 228.87051L35.484375 228.46426Q35.84375 225.05801 37.78125 223.58926Q39.71875 222.10489 42.609375 222.10489Q45.796875 222.10489 47.609375 223.82364Q49.421875 225.52676 49.421875 228.07364Q49.421875 229.52676 48.90625 230.83926Q48.390625 232.15176 47.265625 233.58926Q46.515625 234.54239 44.5625 236.33926Q42.609375 238.12051 42.09375 238.71426Q41.578125 239.29239 41.25 239.83926L49.421875 239.83926ZM59.484375 222.10489Q62.609375 222.10489 64.359375 224.32364Q66.453125 226.96426 66.453125 233.07364Q66.453125 239.16739 64.34375 241.83926Q62.609375 244.02676 59.484375 244.02676Q56.34375 244.02676 54.421875 241.62051Q52.515625 239.21426 52.515625 233.02676Q52.515625 226.96426 54.625 224.30801Q56.359375 222.10489 59.484375 222.10489ZM59.484375 225.51114Q58.734375 225.51114 58.140625 225.99551Q57.5625 226.46426 57.234375 227.69864Q56.8125 229.29239 56.8125 233.07364Q56.8125 236.85489 57.1875 238.27676Q57.578125 239.68301 58.15625 240.15176Q58.734375 240.62051 59.484375 240.62051Q60.234375 240.62051 60.8125 240.15176Q61.40625 239.66739 61.71875 238.43301Q62.15625 236.85489 62.15625 233.07364Q62.15625 229.29239 61.765625 227.88614Q61.390625 226.46426 60.8125 225.99551Q60.234375 225.51114 59.484375 225.51114ZM76.484375 222.10489Q79.609375 222.10489 81.359375 224.32364Q83.453125 226.96426 83.453125 233.07364Q83.453125 239.16739 81.34375 241.83926Q79.609375 244.02676 76.484375 244.02676Q73.34375 244.02676 71.421875 241.62051Q69.515625 239.21426 69.515625 233.02676Q69.515625 226.96426 71.625 224.30801Q73.359375 222.10489 76.484375 222.10489ZM76.484375 225.51114Q75.734375 225.51114 75.140625 225.99551Q74.5625 226.46426 74.234375 227.69864Q73.8125 229.29239 73.8125 233.07364Q73.8125 236.85489 74.1875 238.27676Q74.578125 239.68301 75.15625 240.15176Q75.734375 240.62051 76.484375 240.62051Q77.234375 240.62051 77.8125 240.15176Q78.40625 239.66739 78.71875 238.43301Q79.15625 236.85489 79.15625 233.07364Q79.15625 229.29239 78.765625 227.88614Q78.390625 226.46426 77.8125 225.99551Q77.234375 225.51114 76.484375 225.51114Z" fill-rule="nonzero"/><path fill="#000000" d="M49.421875 147.94362L49.421875 151.77174L35.0 151.77174Q35.234375 149.59987 36.40625 147.66237Q37.578125 145.72487 41.03125 142.50612Q43.8125 139.928 44.453125 138.9905Q45.296875 137.72487 45.296875 136.47487Q45.296875 135.09987 44.546875 134.3655Q43.8125 133.6155 42.515625 133.6155Q41.21875 133.6155 40.453125 134.39674Q39.703125 135.178 39.578125 136.97487L35.484375 136.56862Q35.84375 133.16237 37.78125 131.69362Q39.71875 130.20924 42.609375 130.20924Q45.796875 130.20924 47.609375 131.928Q49.421875 133.63112 49.421875 136.178Q49.421875 137.63112 48.90625 138.94362Q48.390625 140.25612 47.265625 141.69362Q46.515625 142.64674 44.5625 144.44362Q42.609375 146.22487 42.09375 146.81862Q41.578125 147.39674 41.25 147.94362L49.421875 147.94362ZM52.578125 146.25612L56.6875 145.81862Q56.859375 147.20924 57.71875 148.02174Q58.59375 148.83424 59.71875 148.83424Q61.0 148.83424 61.890625 147.78737Q62.796875 146.7405 62.796875 144.63112Q62.796875 142.66237 61.90625 141.678Q61.015625 140.678 59.59375 140.678Q57.828125 140.678 56.421875 142.25612L53.078125 141.77174L55.1875 130.58424L66.078125 130.58424L66.078125 134.44362L58.3125 134.44362L57.671875 138.08424Q59.046875 137.39674 60.484375 137.39674Q63.21875 137.39674 65.125 139.39674Q67.03125 141.38112 67.03125 144.56862Q67.03125 147.20924 65.484375 149.303Q63.390625 152.13112 59.671875 152.13112Q56.703125 152.13112 54.828125 150.53737Q52.953125 148.94362 52.578125 146.25612ZM76.484375 130.20924Q79.609375 130.20924 81.359375 132.428Q83.453125 135.06862 83.453125 141.178Q83.453125 147.27174 81.34375 149.94362Q79.609375 152.13112 76.484375 152.13112Q73.34375 152.13112 71.421875 149.72487Q69.515625 147.31862 69.515625 141.13112Q69.515625 135.06862 71.625 132.41237Q73.359375 130.20924 76.484375 130.20924ZM76.484375 133.6155Q75.734375 133.6155 75.140625 134.09987Q74.5625 134.56862 74.234375 135.803Q73.8125 137.39674 73.8125 141.178Q73.8125 144.95924 74.1875 146.38112Q74.578125 147.78737 75.15625 148.25612Q75.734375 148.72487 76.484375 148.72487Q77.234375 148.72487 77.8125 148.25612Q78.40625 147.77174 78.71875 146.53737Q79.15625 144.95924 79.15625 141.178Q79.15625 137.39674 78.765625 135.9905Q78.390625 134.56862 77.8125 134.09987Q77.234375 133.6155 76.484375 133.6155Z" fill-rule="nonzero"/><path fill="#000000" d="M169.49947 639.9219L169.49947 643.75L155.07759 643.75Q155.31197 641.5781 156.48384 639.6406Q157.65572 637.7031 161.10884 634.4844Q163.89009 631.90625 164.53072 630.96875Q165.37447 629.7031 165.37447 628.4531Q165.37447 627.0781 164.62447 626.34375Q163.89009 625.59375 162.59322 625.59375Q161.29634 625.59375 160.53072 626.375Q159.78072 627.15625 159.65572 628.9531L155.56197 628.5469Q155.92134 625.1406 157.85884 623.6719Q159.79634 622.1875 162.68697 622.1875Q165.87447 622.1875 167.68697 623.90625Q169.49947 625.6094 169.49947 628.15625Q169.49947 629.6094 168.98384 630.9219Q168.46822 632.2344 167.34322 633.6719Q166.59322 634.625 164.64009 636.4219Q162.68697 638.2031 162.17134 638.7969Q161.65572 639.375 161.32759 639.9219L169.49947 639.9219ZM179.56197 622.1875Q182.68697 622.1875 184.43697 624.40625Q186.53072 627.0469 186.53072 633.15625Q186.53072 639.25 184.42134 641.9219Q182.68697 644.1094 179.56197 644.1094Q176.42134 644.1094 174.49947 641.7031Q172.59322 639.2969 172.59322 633.1094Q172.59322 627.0469 174.70259 624.3906Q176.43697 622.1875 179.56197 622.1875ZM179.56197 625.59375Q178.81197 625.59375 178.21822 626.0781Q177.64009 626.5469 177.31197 627.78125Q176.89009 629.375 176.89009 633.15625Q176.89009 636.9375 177.26509 638.3594Q177.65572 639.7656 178.23384 640.2344Q178.81197 640.7031 179.56197 640.7031Q180.31197 640.7031 180.89009 640.2344Q181.48384 639.75 181.79634 638.5156Q182.23384 636.9375 182.23384 633.15625Q182.23384 629.375 181.84322 627.96875Q181.46822 626.5469 180.89009 626.0781Q180.31197 625.59375 179.56197 625.59375ZM200.14009 643.75L196.01509 643.75L196.01509 628.2344Q193.76509 630.34375 190.70259 631.3594L190.70259 627.625Q192.31197 627.09375 194.20259 625.625Q196.09322 624.15625 196.79634 622.1875L200.14009 622.1875L200.14009 643.75ZM206.68697 638.78125L210.67134 638.34375Q210.82759 639.5625 211.43697 640.15625Q212.04634 640.7344 213.06197 640.7344Q214.34322 640.7344 215.23384 639.5625Q216.12447 638.3906 216.37447 634.7031Q214.82759 636.5 212.48384 636.5Q209.95259 636.5 208.10884 634.5469Q206.28072 632.59375 206.28072 629.4531Q206.28072 626.1875 208.21822 624.1875Q210.15572 622.1875 213.17134 622.1875Q216.43697 622.1875 218.53072 624.71875Q220.62447 627.2344 220.62447 633.03125Q220.62447 638.9219 218.43697 641.53125Q216.24947 644.125 212.74947 644.125Q210.23384 644.125 208.67134 642.7969Q207.12447 641.4531 206.68697 638.78125ZM215.99947 629.7969Q215.99947 627.7969 215.07759 626.7031Q214.17134 625.59375 212.96822 625.59375Q211.82759 625.59375 211.07759 626.5Q210.32759 627.40625 210.32759 629.4531Q210.32759 631.53125 211.14009 632.5156Q211.96822 633.4844 213.18697 633.4844Q214.37447 633.4844 215.18697 632.5469Q215.99947 631.6094 215.99947 629.7969Z" fill-rule="nonzero"/><path fill="#000000" d="M232.68697 625.46875Q230.59322 629.125 226.71822 632.15625L224.29634 629.0469Q229.43697 625.28125 231.31197 618.21875L234.76509 619.125Q236.23384 620.6094 234.53072 620.84375L234.07759 621.9844L250.29634 621.9844L250.29634 625.46875L241.74947 625.46875L241.74947 628.2031L248.78072 628.2031L248.78072 631.6719L241.74947 631.6719L241.74947 635.7031L251.59322 635.7031L251.59322 639.1719L241.74947 639.1719L241.74947 646.21875L238.15572 646.21875L238.15572 639.1719L224.67134 639.1719L224.67134 635.7031L229.95259 635.7031L229.95259 628.2031L238.15572 628.2031L238.15572 625.46875L232.68697 625.46875ZM233.54634 635.7031L238.15572 635.7031L238.15572 631.6719L233.54634 631.6719L233.54634 635.7031Z" fill-rule="nonzero"/><path fill="#000000" d="M322.94772 639.9219L322.94772 643.75L308.52585 643.75Q308.76022 641.5781 309.9321 639.6406Q311.10397 637.7031 314.5571 634.4844Q317.33835 631.90625 317.97897 630.96875Q318.82272 629.7031 318.82272 628.4531Q318.82272 627.0781 318.07272 626.34375Q317.33835 625.59375 316.04147 625.59375Q314.7446 625.59375 313.97897 626.375Q313.22897 627.15625 313.10397 628.9531L309.01022 628.5469Q309.3696 625.1406 311.3071 623.6719Q313.2446 622.1875 316.13522 622.1875Q319.32272 622.1875 321.13522 623.90625Q322.94772 625.6094 322.94772 628.15625Q322.94772 629.6094 322.4321 630.9219Q321.91647 632.2344 320.79147 633.6719Q320.04147 634.625 318.08835 636.4219Q316.13522 638.2031 315.6196 638.7969Q315.10397 639.375 314.77585 639.9219L322.94772 639.9219ZM333.01022 622.1875Q336.13522 622.1875 337.88522 624.40625Q339.97897 627.0469 339.97897 633.15625Q339.97897 639.25 337.8696 641.9219Q336.13522 644.1094 333.01022 644.1094Q329.8696 644.1094 327.94772 641.7031Q326.04147 639.2969 326.04147 633.1094Q326.04147 627.0469 328.15085 624.3906Q329.88522 622.1875 333.01022 622.1875ZM333.01022 625.59375Q332.26022 625.59375 331.66647 626.0781Q331.08835 626.5469 330.76022 627.78125Q330.33835 629.375 330.33835 633.15625Q330.33835 636.9375 330.71335 638.3594Q331.10397 639.7656 331.6821 640.2344Q332.26022 640.7031 333.01022 640.7031Q333.76022 640.7031 334.33835 640.2344Q334.9321 639.75 335.2446 638.5156Q335.6821 636.9375 335.6821 633.15625Q335.6821 629.375 335.29147 627.96875Q334.91647 626.5469 334.33835 626.0781Q333.76022 625.59375 333.01022 625.59375ZM356.94772 639.9219L356.94772 643.75L342.52585 643.75Q342.76022 641.5781 343.9321 639.6406Q345.10397 637.7031 348.5571 634.4844Q351.33835 631.90625 351.97897 630.96875Q352.82272 629.7031 352.82272 628.4531Q352.82272 627.0781 352.07272 626.34375Q351.33835 625.59375 350.04147 625.59375Q348.7446 625.59375 347.97897 626.375Q347.22897 627.15625 347.10397 628.9531L343.01022 628.5469Q343.3696 625.1406 345.3071 623.6719Q347.2446 622.1875 350.13522 622.1875Q353.32272 622.1875 355.13522 623.90625Q356.94772 625.6094 356.94772 628.15625Q356.94772 629.6094 356.4321 630.9219Q355.91647 632.2344 354.79147 633.6719Q354.04147 634.625 352.08835 636.4219Q350.13522 638.2031 349.6196 638.7969Q349.10397 639.375 348.77585 639.9219L356.94772 639.9219ZM367.01022 622.1875Q370.13522 622.1875 371.88522 624.40625Q373.97897 627.0469 373.97897 633.15625Q373.97897 639.25 371.8696 641.9219Q370.13522 644.1094 367.01022 644.1094Q363.8696 644.1094 361.94772 641.7031Q360.04147 639.2969 360.04147 633.1094Q360.04147 627.0469 362.15085 624.3906Q363.88522 622.1875 367.01022 622.1875ZM367.01022 625.59375Q366.26022 625.59375 365.66647 626.0781Q365.08835 626.5469 364.76022 627.78125Q364.33835 629.375 364.33835 633.15625Q364.33835 636.9375 364.71335 638.3594Q365.10397 639.7656 365.6821 640.2344Q366.26022 640.7031 367.01022 640.7031Q367.76022 640.7031 368.33835 640.2344Q368.9321 639.75 369.2446 638.5156Q369.6821 636.9375 369.6821 633.15625Q369.6821 629.375 369.29147 627.96875Q368.91647 626.5469 368.33835 626.0781Q367.76022 625.59375 367.01022 625.59375Z" fill-rule="nonzero"/><path fill="#000000" d="M386.13522 625.46875Q384.04147 629.125 380.16647 632.15625L377.7446 629.0469Q382.88522 625.28125 384.76022 618.21875L388.21335 619.125Q389.6821 620.6094 387.97897 620.84375L387.52585 621.9844L403.7446 621.9844L403.7446 625.46875L395.19772 625.46875L395.19772 628.2031L402.22897 628.2031L402.22897 631.6719L395.19772 631.6719L395.19772 635.7031L405.04147 635.7031L405.04147 639.1719L395.19772 639.1719L395.19772 646.21875L391.60397 646.21875L391.60397 639.1719L378.1196 639.1719L378.1196 635.7031L383.40085 635.7031L383.40085 628.2031L391.60397 628.2031L391.60397 625.46875L386.13522 625.46875ZM386.9946 635.7031L391.60397 635.7031L391.60397 631.6719L386.9946 631.6719L386.9946 635.7031Z" fill-rule="nonzero"/><path fill="#000000" d="M476.39603 639.9219L476.39603 643.75L461.97415 643.75Q462.20853 641.5781 463.3804 639.6406Q464.55228 637.7031 468.0054 634.4844Q470.78665 631.90625 471.42728 630.96875Q472.27103 629.7031 472.27103 628.4531Q472.27103 627.0781 471.52103 626.34375Q470.78665 625.59375 469.48978 625.59375Q468.1929 625.59375 467.42728 626.375Q466.67728 627.15625 466.55228 628.9531L462.45853 628.5469Q462.8179 625.1406 464.7554 623.6719Q466.6929 622.1875 469.58353 622.1875Q472.77103 622.1875 474.58353 623.90625Q476.39603 625.6094 476.39603 628.15625Q476.39603 629.6094 475.8804 630.9219Q475.36478 632.2344 474.23978 633.6719Q473.48978 634.625 471.53665 636.4219Q469.58353 638.2031 469.0679 638.7969Q468.55228 639.375 468.22415 639.9219L476.39603 639.9219ZM486.45853 622.1875Q489.58353 622.1875 491.33353 624.40625Q493.42728 627.0469 493.42728 633.15625Q493.42728 639.25 491.3179 641.9219Q489.58353 644.1094 486.45853 644.1094Q483.3179 644.1094 481.39603 641.7031Q479.48978 639.2969 479.48978 633.1094Q479.48978 627.0469 481.59915 624.3906Q483.33353 622.1875 486.45853 622.1875ZM486.45853 625.59375Q485.70853 625.59375 485.11478 626.0781Q484.53665 626.5469 484.20853 627.78125Q483.78665 629.375 483.78665 633.15625Q483.78665 636.9375 484.16165 638.3594Q484.55228 639.7656 485.1304 640.2344Q485.70853 640.7031 486.45853 640.7031Q487.20853 640.7031 487.78665 640.2344Q488.3804 639.75 488.6929 638.5156Q489.1304 636.9375 489.1304 633.15625Q489.1304 629.375 488.73978 627.96875Q488.36478 626.5469 487.78665 626.0781Q487.20853 625.59375 486.45853 625.59375ZM510.39603 639.9219L510.39603 643.75L495.97415 643.75Q496.20853 641.5781 497.3804 639.6406Q498.55228 637.7031 502.0054 634.4844Q504.78665 631.90625 505.42728 630.96875Q506.27103 629.7031 506.27103 628.4531Q506.27103 627.0781 505.52103 626.34375Q504.78665 625.59375 503.48978 625.59375Q502.1929 625.59375 501.42728 626.375Q500.67728 627.15625 500.55228 628.9531L496.45853 628.5469Q496.8179 625.1406 498.7554 623.6719Q500.6929 622.1875 503.58353 622.1875Q506.77103 622.1875 508.58353 623.90625Q510.39603 625.6094 510.39603 628.15625Q510.39603 629.6094 509.8804 630.9219Q509.36478 632.2344 508.23978 633.6719Q507.48978 634.625 505.53665 636.4219Q503.58353 638.2031 503.0679 638.7969Q502.55228 639.375 502.22415 639.9219L510.39603 639.9219ZM524.0366 643.75L519.9116 643.75L519.9116 628.2344Q517.6616 630.34375 514.5991 631.3594L514.5991 627.625Q516.2085 627.09375 518.0991 625.625Q519.98975 624.15625 520.6929 622.1875L524.0366 622.1875L524.0366 643.75Z" fill-rule="nonzero"/><path fill="#000000" d="M539.5835 625.46875Q537.48975 629.125 533.61475 632.15625L531.1929 629.0469Q536.3335 625.28125 538.2085 618.21875L541.6616 619.125Q543.1304 620.6094 541.42725 620.84375L540.9741 621.9844L557.1929 621.9844L557.1929 625.46875L548.646 625.46875L548.646 628.2031L555.67725 628.2031L555.67725 631.6719L548.646 631.6719L548.646 635.7031L558.48975 635.7031L558.48975 639.1719L548.646 639.1719L548.646 646.21875L545.05225 646.21875L545.05225 639.1719L531.5679 639.1719L531.5679 635.7031L536.8491 635.7031L536.8491 628.2031L545.05225 628.2031L545.05225 625.46875L539.5835 625.46875ZM540.4429 635.7031L545.05225 635.7031L545.05225 631.6719L540.4429 631.6719L540.4429 635.7031Z" fill-rule="nonzero"/><path fill="#000000" d="M629.8443 639.9219L629.8443 643.75L615.4224 643.75Q615.6568 641.5781 616.8287 639.6406Q618.00055 637.7031 621.4537 634.4844Q624.2349 631.90625 624.87555 630.96875Q625.7193 629.7031 625.7193 628.4531Q625.7193 627.0781 624.9693 626.34375Q624.2349 625.59375 622.93805 625.59375Q621.6412 625.59375 620.87555 626.375Q620.12555 627.15625 620.00055 628.9531L615.9068 628.5469Q616.2662 625.1406 618.2037 623.6719Q620.1412 622.1875 623.0318 622.1875Q626.2193 622.1875 628.0318 623.90625Q629.8443 625.6094 629.8443 628.15625Q629.8443 629.6094 629.3287 630.9219Q628.81305 632.2344 627.68805 633.6719Q626.93805 634.625 624.9849 636.4219Q623.0318 638.2031 622.5162 638.7969Q622.00055 639.375 621.6724 639.9219L629.8443 639.9219ZM639.9068 622.1875Q643.0318 622.1875 644.7818 624.40625Q646.87555 627.0469 646.87555 633.15625Q646.87555 639.25 644.7662 641.9219Q643.0318 644.1094 639.9068 644.1094Q636.7662 644.1094 634.8443 641.7031Q632.93805 639.2969 632.93805 633.1094Q632.93805 627.0469 635.0474 624.3906Q636.7818 622.1875 639.9068 622.1875ZM639.9068 625.59375Q639.1568 625.59375 638.56305 626.0781Q637.9849 626.5469 637.6568 627.78125Q637.2349 629.375 637.2349 633.15625Q637.2349 636.9375 637.6099 638.3594Q638.00055 639.7656 638.5787 640.2344Q639.1568 640.7031 639.9068 640.7031Q640.6568 640.7031 641.2349 640.2344Q641.8287 639.75 642.1412 638.5156Q642.5787 636.9375 642.5787 633.15625Q642.5787 629.375 642.18805 627.96875Q641.81305 626.5469 641.2349 626.0781Q640.6568 625.59375 639.9068 625.59375ZM663.8443 639.9219L663.8443 643.75L649.4224 643.75Q649.6568 641.5781 650.8287 639.6406Q652.00055 637.7031 655.4537 634.4844Q658.2349 631.90625 658.87555 630.96875Q659.7193 629.7031 659.7193 628.4531Q659.7193 627.0781 658.9693 626.34375Q658.2349 625.59375 656.93805 625.59375Q655.6412 625.59375 654.87555 626.375Q654.12555 627.15625 654.00055 628.9531L649.9068 628.5469Q650.2662 625.1406 652.2037 623.6719Q654.1412 622.1875 657.0318 622.1875Q660.2193 622.1875 662.0318 623.90625Q663.8443 625.6094 663.8443 628.15625Q663.8443 629.6094 663.3287 630.9219Q662.81305 632.2344 661.68805 633.6719Q660.93805 634.625 658.9849 636.4219Q657.0318 638.2031 656.5162 638.7969Q656.00055 639.375 655.6724 639.9219L663.8443 639.9219ZM680.8443 639.9219L680.8443 643.75L666.4224 643.75Q666.6568 641.5781 667.8287 639.6406Q669.00055 637.7031 672.4537 634.4844Q675.2349 631.90625 675.87555 630.96875Q676.7193 629.7031 676.7193 628.4531Q676.7193 627.0781 675.9693 626.34375Q675.2349 625.59375 673.93805 625.59375Q672.6412 625.59375 671.87555 626.375Q671.12555 627.15625 671.00055 628.9531L666.9068 628.5469Q667.2662 625.1406 669.2037 623.6719Q671.1412 622.1875 674.0318 622.1875Q677.2193 622.1875 679.0318 623.90625Q680.8443 625.6094 680.8443 628.15625Q680.8443 629.6094 680.3287 630.9219Q679.81305 632.2344 678.68805 633.6719Q677.93805 634.625 675.9849 636.4219Q674.0318 638.2031 673.5162 638.7969Q673.00055 639.375 672.6724 639.9219L680.8443 639.9219Z" fill-rule="nonzero"/><path fill="#000000" d="M693.0318 625.46875Q690.93805 629.125 687.06305 632.15625L684.6412 629.0469Q689.7818 625.28125 691.6568 618.21875L695.1099 619.125Q696.5787 620.6094 694.87555 620.84375L694.4224 621.9844L710.6412 621.9844L710.6412 625.46875L702.0943 625.46875L702.0943 628.2031L709.12555 628.2031L709.12555 631.6719L702.0943 631.6719L702.0943 635.7031L711.93805 635.7031L711.93805 639.1719L702.0943 639.1719L702.0943 646.21875L698.50055 646.21875L698.50055 639.1719L685.0162 639.1719L685.0162 635.7031L690.2974 635.7031L690.2974 628.2031L698.50055 628.2031L698.50055 625.46875L693.0318 625.46875ZM693.8912 635.7031L698.50055 635.7031L698.50055 631.6719L693.8912 631.6719L693.8912 635.7031Z" fill-rule="nonzero"/><path fill="#f39800" d="M224.32178 82.945656C224.32178 82.393364 224.7695 81.945656 225.32178 81.945656L235.32178 81.945656C235.87407 81.945656 236.32178 82.393364 236.32178 82.945656L236.32178 92.945656C236.32178 93.49794 235.87407 93.945656 235.32178 93.945656L225.32178 93.945656C224.7695 93.945656 224.32178 93.49794 224.32178 92.945656Z" fill-rule="nonzero"/><path fill="#1a1a1a" d="M259.61865 84.14878Q258.13428 92.633156 249.3999 96.508156L247.38428 94.383156Q255.38428 91.11753 256.80615 84.164406L251.29053 84.164406Q249.57178 86.99253 247.35303 89.039406L245.07178 87.55503Q249.44678 83.61753 250.68115 78.383156L252.93115 79.164406Q254.25928 79.820656 252.94678 80.320656Q252.68115 81.18003 252.44678 81.633156L257.2749 81.633156L258.16553 81.14878L259.7749 82.77378Q260.80615 83.789406 259.61865 84.14878ZM259.63428 82.539406Q258.18115 80.445656 256.66553 79.24253L258.32178 77.83628Q259.94678 79.258156 261.38428 81.18003L259.63428 82.539406ZM261.9624 81.633156Q260.44678 79.74253 259.13428 78.539406L260.6499 77.02378Q262.13428 78.39878 263.47803 80.11753L261.9624 81.633156ZM275.85303 91.68003Q278.61865 90.61753 281.7749 86.27378L283.36865 88.445656Q280.16553 92.83628 275.54053 94.68003L274.69678 95.08628L272.99365 93.820656L273.24365 93.21128L273.24365 80.30503L275.3374 80.30503Q276.86865 80.64878 275.85303 81.52378L275.85303 91.68003ZM264.32178 94.445656Q268.47803 90.46128 268.47803 85.08628L268.47803 81.164406L270.57178 81.164406Q272.10303 81.508156 271.0874 82.383156L271.0874 85.008156Q271.0874 91.74253 266.5874 95.914406L264.32178 94.445656ZM284.25928 88.539406L284.25928 86.008156L302.49365 86.008156L302.49365 88.539406L284.25928 88.539406ZM317.72803 80.695656Q318.18115 80.695656 318.4624 80.43003Q318.72803 80.14878 318.72803 79.695656Q318.72803 79.24253 318.4624 78.96128Q318.18115 78.695656 317.72803 78.695656Q317.2749 78.695656 316.99365 78.96128Q316.72803 79.24253 316.72803 79.695656Q316.72803 80.14878 316.99365 80.43003Q317.2749 80.695656 317.72803 80.695656ZM317.72803 82.289406Q316.61865 82.289406 315.88428 81.539406Q315.13428 80.80503 315.13428 79.695656Q315.13428 78.58628 315.88428 77.851906Q316.61865 77.101906 317.72803 77.101906Q318.8374 77.101906 319.57178 77.851906Q320.32178 78.58628 320.32178 79.695656Q320.32178 80.80503 319.57178 81.539406Q318.8374 82.289406 317.72803 82.289406ZM303.3374 83.30503L303.3374 80.77378L315.43115 80.77378L317.75928 82.46128Q317.3374 92.43003 306.49365 95.476906L304.49365 93.039406Q314.60303 90.695656 315.0249 83.30503L303.3374 83.30503ZM331.94678 79.49253Q334.63428 82.86753 339.94678 84.52378L338.8374 87.08628Q333.05615 84.96128 330.32178 81.18003Q329.16553 83.570656 327.66553 84.601906L335.43115 84.601906L335.43115 86.89878L325.86865 86.89878L325.86865 85.96128Q325.0874 86.601906 322.86865 87.61753L321.2749 85.476906Q327.29053 82.68003 329.1499 78.05503L331.49365 78.508156Q333.13428 78.74253 331.94678 79.49253ZM326.8374 96.508156L324.4624 96.508156L324.4624 87.96128L336.91553 87.96128L336.91553 96.27378L334.54053 96.27378L334.54053 95.414406L326.8374 95.414406L326.8374 96.508156ZM326.8374 93.11753L334.54053 93.11753L334.54053 90.258156L326.8374 90.258156L326.8374 93.11753ZM353.60303 84.36753L353.60303 78.11753L355.54053 78.11753Q357.43115 78.49253 355.97803 79.30503L355.97803 84.36753L359.9624 84.36753L359.9624 86.664406L355.97803 86.664406L355.97803 96.351906L353.60303 96.351906L353.60303 86.664406L349.38428 86.664406L349.38428 84.36753L353.60303 84.36753ZM349.57178 96.11753L347.19678 96.11753L347.19678 95.33628L344.80615 95.33628L344.80615 96.43003L342.43115 96.43003L342.43115 89.21128L349.57178 89.21128L349.57178 96.11753ZM344.80615 91.27378L344.80615 93.27378L347.19678 93.27378L347.19678 91.27378L344.80615 91.27378ZM349.10303 86.55503L349.10303 88.851906L342.8999 88.851906L342.8999 86.55503L349.10303 86.55503ZM342.8999 83.976906L349.10303 83.976906L349.10303 86.27378L342.8999 86.27378L342.8999 83.976906ZM341.41553 81.39878L350.50928 81.39878L350.50928 83.695656L341.41553 83.695656L341.41553 81.39878ZM349.10303 78.58628L349.10303 80.883156L342.8999 80.883156L342.8999 78.58628L349.10303 78.58628Z" fill-rule="nonzero"/><path fill="#4285f4" d="M376.32178 82.945656C376.32178 82.393364 376.7695 81.945656 377.32178 81.945656L387.32178 81.945656C387.87405 81.945656 388.32178 82.393364 388.32178 82.945656L388.32178 92.945656C388.32178 93.49794 387.87405 93.945656 387.32178 93.945656L377.32178 93.945656C376.7695 93.945656 376.32178 93.49794 376.32178 92.945656Z" fill-rule="nonzero"/><path fill="#1a1a1a" d="M410.88428 81.39878L414.47803 81.39878L414.47803 83.93003L410.88428 83.93003L410.88428 85.539406L415.80615 85.539406L415.80615 88.070656L411.32178 88.070656Q412.3374 89.86753 416.47803 92.351906L415.1499 94.914406Q411.66553 92.39878 410.88428 91.258156L410.88428 96.74253L408.50928 96.74253L408.50928 91.58628Q407.57178 93.18003 404.24365 95.43003L402.99365 93.164406Q406.5874 90.664406 408.11865 88.070656L403.8999 88.070656L403.8999 85.539406L408.50928 85.539406L408.50928 83.93003L406.99365 83.93003Q406.60303 84.83628 405.41553 86.24253L403.5874 84.30503Q405.19678 82.61753 406.13428 79.36753L408.11865 79.851906Q409.60303 80.601906 408.13428 80.976906L407.99365 81.39878L408.50928 81.39878L408.50928 77.883156L410.43115 77.883156Q412.10303 78.08628 410.88428 78.96128L410.88428 81.39878ZM402.5249 96.74253L400.1499 96.74253L400.1499 90.55503Q400.13428 90.61753 398.22803 92.71128L396.75928 90.33628Q399.32178 87.695656 399.99365 84.24253L397.49365 84.24253L397.49365 81.71128L400.1499 81.71128L400.1499 77.883156L402.0874 77.883156Q403.74365 78.289406 402.5249 78.99253L402.5249 81.71128L404.7124 81.71128L404.7124 84.24253L402.5249 84.24253L402.5249 85.883156Q403.9624 86.820656 405.29053 88.52378L403.55615 90.71128Q402.41553 88.851906 402.49365 88.86753L402.5249 96.74253ZM431.61865 91.46128Q432.50928 93.11753 433.05615 93.11753Q433.05615 93.14878 433.04053 92.99253L433.25928 91.133156L435.7749 92.27378L435.41553 94.445656Q435.11865 96.11753 433.60303 96.11753Q431.00928 96.11753 429.25928 92.695656Q427.6499 89.55503 427.57178 84.320656L417.9624 84.320656L417.9624 81.789406L427.49365 81.789406L427.49365 78.195656L429.66553 78.195656Q431.44678 78.55503 430.10303 79.445656L430.10303 81.789406L435.57178 81.789406L435.57178 84.320656L430.13428 84.320656Q430.41553 89.27378 431.61865 91.46128ZM428.68115 93.36753Q423.91553 94.39878 419.72803 95.133156Q419.43115 96.46128 418.4624 95.101906L417.9624 92.601906Q420.35303 92.414406 421.86865 92.164406L421.86865 88.46128L418.74365 88.46128L418.74365 86.164406L427.29053 86.164406L427.29053 88.46128L424.24365 88.46128L424.24365 91.80503Q425.57178 91.633156 428.30615 91.08628L428.68115 93.36753ZM431.74365 78.508156Q433.13428 79.195656 434.5249 80.49253L432.47803 82.195656Q431.47803 81.195656 429.7749 80.24253L431.74365 78.508156ZM449.43115 84.133156Q447.99365 83.351906 446.55615 80.883156Q445.1499 83.18003 443.8374 84.133156L449.43115 84.133156ZM454.94678 86.64878Q453.2124 86.24253 451.5874 85.320656L451.5874 86.664406L441.94678 86.664406L441.94678 85.476906Q440.41553 86.55503 438.11865 87.226906L437.13428 84.570656Q442.85303 83.02378 445.57178 78.008156L447.47803 78.27378Q449.13428 78.476906 448.07178 79.258156Q450.25928 82.539406 456.04053 84.02378L454.94678 86.64878ZM452.86865 96.64878Q452.05615 95.508156 451.35303 94.883156L440.35303 96.101906Q439.80615 96.633156 439.10303 96.11753L438.38428 93.539406L441.86865 93.36753L443.61865 90.18003L438.2749 90.18003L438.2749 87.64878L455.10303 87.64878L455.10303 90.18003L446.49365 90.18003L444.66553 93.21128L449.35303 92.86753Q449.04053 92.58628 447.35303 91.320656L449.47803 89.89878Q453.50928 92.914406 455.2124 95.195656L452.86865 96.64878ZM462.99365 81.476906L464.05615 81.476906L464.54053 80.99253L466.3374 82.789406L465.47803 83.414406Q464.57178 85.14878 463.2749 86.758156Q464.72803 87.21128 466.54053 88.46128L465.30615 90.96128Q463.60303 89.570656 462.99365 89.21128L462.99365 96.664406L460.61865 96.664406L460.61865 89.43003Q459.85303 90.101906 457.94678 91.21128L456.8999 88.89878Q460.88428 86.74253 462.5874 83.77378L457.72803 83.77378L457.72803 81.476906L460.61865 81.476906L460.61865 78.11753L462.54053 78.11753Q464.2124 78.320656 462.99365 79.195656L462.99365 81.476906ZM471.1499 78.58628Q472.93115 78.945656 471.5874 79.83628L471.5874 83.351906L475.18115 83.351906L475.18115 85.883156L471.5874 85.883156L471.5874 93.195656L475.88428 93.195656L475.88428 95.726906L464.36865 95.726906L464.36865 93.195656L468.97803 93.195656L468.97803 85.883156L465.61865 85.883156L465.61865 83.351906L468.97803 83.351906L468.97803 78.58628L471.1499 78.58628ZM491.61865 84.14878Q490.13428 92.633156 481.3999 96.508156L479.38428 94.383156Q487.38428 91.11753 488.80615 84.164406L483.29053 84.164406Q481.57178 86.99253 479.35303 89.039406L477.07178 87.55503Q481.44678 83.61753 482.68115 78.383156L484.93115 79.164406Q486.25928 79.820656 484.94678 80.320656Q484.68115 81.18003 484.44678 81.633156L489.2749 81.633156L490.16553 81.14878L491.7749 82.77378Q492.80615 83.789406 491.61865 84.14878ZM505.24365 87.664406Q505.24365 93.77378 499.30615 96.58628L497.05615 94.664406Q502.55615 92.164406 502.63428 87.58628L502.63428 79.36753L504.72803 79.36753Q506.43115 79.71128 505.24365 80.601906L505.24365 87.664406ZM497.19678 89.789406L494.5874 89.789406L494.5874 80.14878L496.72803 80.14878Q498.54053 80.33628 497.19678 81.383156L497.19678 89.789406ZM517.6968 87.539406Q517.8218 92.726906 512.103 96.320656L510.2124 94.195656Q515.05615 91.570656 515.05615 87.27378L515.05615 83.508156L517.11865 83.508156Q518.7749 83.695656 517.6655 84.64878L517.6655 85.68003Q519.7749 84.101906 520.728 82.789406L508.44678 83.24253L508.22803 80.633156L522.8218 80.226906L523.5718 80.008156L524.9155 81.633156Q525.74365 82.71128 524.3999 82.55503Q522.1655 85.445656 518.5718 88.351906L517.6968 87.539406Z" fill-rule="nonzero"/><path fill="#757575" d="M652.7344 57.453125L650.8594 57.453125Q649.3594 55.203125 648.5781 52.78125Q647.7969 50.34375 647.7969 48.0625Q647.7969 45.234375 648.7656 42.71875Q649.6094 40.53125 650.8906 38.6875L652.7656 38.6875Q651.4219 41.640625 650.9219 43.71875Q650.4219 45.796875 650.4219 48.125Q650.4219 49.71875 650.71875 51.40625Q651.0156 53.078125 651.53125 54.59375Q651.875 55.59375 652.7344 57.453125Z" fill-rule="nonzero"/><path fill="#757575" d="M669.4375 40.09375L671.125 40.09375L671.125 48.953125L668.75 48.953125L668.75 48.484375L665.2656 48.484375L665.2656 49.3125L673.46875 49.3125L673.46875 51.609375L665.2656 51.609375L665.2656 54.890625L662.8906 54.890625L662.8906 51.609375L654.84375 51.609375L654.84375 49.3125L662.8906 49.3125L662.8906 48.484375L659.4844 48.484375L659.4844 49.109375L657.1094 49.109375L657.1094 40.09375L666.59375 40.09375L669.2031 36.109375L671.03125 37.359375Q672.34375 38.40625 670.7656 38.40625L669.4375 40.09375ZM663.625 36.3125Q665.4219 37.8125 666.1719 39.21875L664.0156 40.796875Q663.2031 39.265625 661.65625 37.8125L663.625 36.3125ZM662.8906 43.21875L662.8906 42.390625L659.4844 42.390625L659.4844 43.21875L662.8906 43.21875ZM668.75 43.21875L668.75 42.390625L665.2656 42.390625L665.2656 43.21875L668.75 43.21875ZM662.8906 46.1875L662.8906 45.515625L659.4844 45.515625L659.4844 46.1875L662.8906 46.1875ZM668.75 46.1875L668.75 45.515625L665.2656 45.515625L665.2656 46.1875L668.75 46.1875ZM659.0 40.84375Q658.2031 39.265625 656.8125 37.96875L658.7969 36.453125Q660.34375 37.90625 661.1719 39.46875L659.0 40.84375ZM690.9219 44.421875Q690.3281 47.5625 688.9531 51.265625L693.3906 51.265625L693.3906 53.5625L679.53125 53.5625L679.53125 51.265625L686.3594 51.265625Q687.6719 46.890625 688.4531 42.71875L690.8906 43.40625Q691.71875 43.953125 690.9219 44.421875ZM677.2656 54.8125L677.4219 45.46875Q677.53125 45.578125 675.90625 47.421875L674.4219 45.125Q677.6719 41.953125 678.4219 36.375L680.71875 37.078125Q682.0469 37.734375 680.75 38.234375Q680.1719 40.640625 679.4375 41.984375L679.59375 41.921875Q680.28125 42.609375 679.6406 43.0L679.6406 54.8125L677.2656 54.8125ZM683.6719 43.515625Q685.0156 46.390625 685.71875 49.828125L683.1406 50.71875Q682.4375 47.1875 681.1875 44.3125L683.6719 43.515625ZM692.53125 40.484375L692.53125 42.78125L680.3906 42.78125L680.3906 40.484375L685.15625 40.484375L685.15625 36.65625L687.0781 36.65625Q688.75 36.859375 687.53125 37.734375L687.53125 40.484375L692.53125 40.484375Z" fill-rule="nonzero"/><path fill="#757575" d="M695.71875 45.625L695.71875 42.875L698.4531 42.875L698.4531 45.625L695.71875 45.625ZM695.71875 53.25L695.71875 50.5L698.4531 50.5L698.4531 53.25L695.71875 53.25Z" fill-rule="nonzero"/><path fill="#757575" d="M720.2344 37.515625L720.2344 40.046875L712.5 40.046875L712.125 41.8125L718.2031 41.8125L718.2031 54.5L715.59375 54.5L715.59375 53.484375L706.9531 53.484375L706.9531 54.8125L704.34375 54.8125L704.34375 41.8125L709.40625 41.8125L709.7344 40.046875L702.0781 40.046875L702.0781 37.515625L720.2344 37.515625ZM706.9531 48.796875L706.9531 51.1875L715.59375 51.1875L715.59375 48.796875L706.9531 48.796875ZM715.59375 46.5L715.59375 44.109375L706.9531 44.109375L706.9531 46.5L715.59375 46.5ZM728.25 40.515625L722.46875 40.515625L722.46875 37.984375L740.0 37.984375L740.0 40.515625L730.8594 40.515625Q730.8594 41.765625 730.75 42.984375L738.59375 42.984375Q738.59375 48.609375 737.71875 51.625Q737.0156 54.1875 734.5156 54.1875L731.125 54.1875L730.6719 51.65625L733.96875 51.65625Q734.9844 51.65625 735.21875 50.859375Q735.8281 48.796875 735.8906 45.515625L730.3906 45.515625Q729.1719 51.3125 723.7656 54.234375L722.125 51.828125Q728.25 48.765625 728.25 41.4375L728.25 40.515625ZM758.9844 52.609375Q758.9844 54.265625 757.3281 54.265625L754.9844 54.265625L754.2969 51.734375L756.46875 51.734375Q756.46875 51.828125 756.375 51.828125L756.375 47.0L745.7031 47.0L745.7031 54.34375L743.09375 54.34375L743.09375 37.671875L758.9844 37.671875L758.9844 52.609375ZM756.375 39.96875L752.1875 39.96875L752.1875 44.703125L756.375 44.703125L756.375 39.96875ZM745.7031 39.96875L745.7031 44.703125L749.8125 44.703125L749.8125 39.96875L745.7031 39.96875Z" fill-rule="nonzero"/><path fill="#757575" d="M761.4219 57.453125Q762.2344 55.71875 762.5625 54.78125Q762.90625 53.859375 763.1875 52.65625Q763.46875 51.4375 763.59375 50.359375Q763.7344 49.265625 763.7344 48.125Q763.7344 45.796875 763.2344 43.71875Q762.75 41.640625 761.40625 38.6875L763.2656 38.6875Q764.75 40.78125 765.5625 43.140625Q766.375 45.5 766.375 47.921875Q766.375 49.953125 765.7344 52.296875Q765.0 54.90625 763.3125 57.453125L761.4219 57.453125Z" fill-rule="nonzero"/></svg>