<svg version="1.1" viewBox="0.0 0.0 798.0 690.0" fill="none" stroke="none" stroke-linecap="square" stroke-miterlimit="10" width="798" height="690" xmlns:xlink="http://www.w3.org/1999/xlink" xmlns="http://www.w3.org/2000/svg"><path fill="#ffffff" d="M0 0L798.0 0L798.0 690.0L0 690.0L0 0Z" fill-rule="nonzero"/><path fill="#ea4335" d="M129.24959 243.73987C160.86697 120.59826 271.8642 34.5 399.0 34.5L399.0 173.75C335.4321 173.75 279.9335 216.79913 264.1248 278.36993Z" fill-rule="nonzero"/><path fill="#4285f4" d="M399.0 34.5C518.0434 34.5 623.92456 110.163795 662.4848 222.789C701.045 335.4142 663.7573 460.09564 569.69464 533.05817C475.6319 606.0207 345.59448 611.1299 246.09715 545.77234C146.59981 480.41483 99.6447 359.04327 129.24959 243.73987L264.1248 278.36993C249.32236 336.02164 272.7999 396.7074 322.54858 429.38617C372.29724 462.06494 437.31595 459.51035 484.34732 423.02908C531.37866 386.54782 550.0225 324.2071 530.7424 267.8945C511.46228 211.5819 458.5217 173.75 399.0 173.75Z" fill-rule="nonzero"/><path fill="#000000" d="M477.05222 469.7155L477.05222 465.12177L493.94284 465.12177L493.94284 468.7155Q491.8491 470.7624 489.67722 474.62177Q487.52097 478.4655 486.38034 482.80927Q485.25534 487.1374 485.27097 490.54364L480.52097 490.54364Q480.63034 485.1999 482.70847 479.653Q484.80222 474.0905 488.2866 469.7155L477.05222 469.7155ZM497.1616 484.5905L501.94284 484.05927Q502.11472 485.5124 502.8491 486.2155Q503.58347 486.91864 504.80222 486.91864Q506.33347 486.91864 507.39597 485.5124Q508.4741 484.10614 508.77097 479.68427Q506.9116 481.8405 504.11472 481.8405Q501.08347 481.8405 498.86472 479.49677Q496.6616 477.153 496.6616 473.3874Q496.6616 469.4655 498.98972 467.0749Q501.31784 464.66864 504.92722 464.66864Q508.8491 464.66864 511.36472 467.6999Q513.8804 470.73114 513.8804 477.66864Q513.8804 484.74677 511.25534 487.87177Q508.63034 490.99677 504.42722 490.99677Q501.4116 490.99677 499.5366 489.3874Q497.67722 487.778 497.1616 484.5905ZM508.33347 473.79364Q508.33347 471.403 507.23972 470.0905Q506.14597 468.7624 504.69284 468.7624Q503.33347 468.7624 502.42722 469.8405Q501.52097 470.91864 501.52097 473.3874Q501.52097 475.8874 502.50534 477.05927Q503.48972 478.2155 504.95847 478.2155Q506.38034 478.2155 507.3491 477.0905Q508.33347 475.9655 508.33347 473.79364ZM518.0991 490.54364L518.0991 485.60614L523.05225 485.60614L523.05225 490.54364L518.0991 490.54364ZM535.396 464.66864Q539.146 464.66864 541.2554 467.3405Q543.771 470.49677 543.771 477.8405Q543.771 485.153 541.23975 488.3405Q539.146 490.98114 535.396 490.98114Q531.646 490.98114 529.3335 488.0905Q527.0366 485.1999 527.0366 477.778Q527.0366 470.49677 529.5679 467.30927Q531.6616 464.66864 535.396 464.66864ZM535.396 468.7624Q534.5054 468.7624 533.80225 469.3405Q533.0991 469.903 532.7085 471.3874Q532.2085 473.29364 532.2085 477.8405Q532.2085 482.37177 532.6616 484.0749Q533.11475 485.7624 533.80225 486.3249Q534.5054 486.8874 535.396 486.8874Q536.30225 486.8874 537.0054 486.3249Q537.7085 485.74677 538.0835 484.2624Q538.5991 482.37177 538.5991 477.8405Q538.5991 473.29364 538.146 471.60614Q537.6929 469.903 536.98975 469.3405Q536.30225 468.7624 535.396 468.7624ZM547.0835 471.1374Q547.0835 467.66864 548.5991 466.0124Q550.1304 464.3405 552.7241 464.3405Q555.4116 464.3405 556.92725 465.99677Q558.4585 467.653 558.4585 471.1374Q558.4585 474.60614 556.92725 476.278Q555.4116 477.93427 552.8179 477.93427Q550.1304 477.93427 548.5991 476.278Q547.0835 474.62177 547.0835 471.1374ZM550.9429 471.10614Q550.9429 473.62177 551.521 474.48114Q551.9585 475.10614 552.7241 475.10614Q553.521 475.10614 553.9585 474.48114Q554.521 473.62177 554.521 471.10614Q554.521 468.5905 553.9585 467.74677Q553.521 467.0905 552.7241 467.0905Q551.9585 467.0905 551.521 467.73114Q550.9429 468.5905 550.9429 471.10614ZM556.48975 491.528L552.8335 491.528L566.5679 464.3405L570.11475 464.3405L556.48975 491.528ZM564.4741 484.7624Q564.4741 481.29364 565.98975 479.62177Q567.5054 477.9499 570.146 477.9499Q572.80225 477.9499 574.3179 479.62177Q575.8491 481.29364 575.8491 484.7624Q575.8491 488.24677 574.3179 489.91864Q572.80225 491.5749 570.2085 491.5749Q567.5054 491.5749 565.98975 489.91864Q564.4741 488.24677 564.4741 484.7624ZM568.3179 484.74677Q568.3179 487.2624 568.896 488.10614Q569.3335 488.74677 570.11475 488.74677Q570.9116 488.74677 571.3335 488.12177Q571.9116 487.2624 571.9116 484.74677Q571.9116 482.23114 571.3491 481.37177Q570.9116 480.73114 570.11475 480.73114Q569.3179 480.73114 568.896 481.37177Q568.3179 482.23114 568.3179 484.74677Z" fill-rule="nonzero"/><path fill="#000000" d="M237.69778 155.86263L237.69778 160.45638L220.36966 160.45638Q220.65091 157.847 222.05716 155.51888Q223.46341 153.19075 227.61966 149.347Q230.96341 146.23763 231.71341 145.12825Q232.72903 143.597 232.72903 142.097Q232.72903 140.45638 231.83841 139.56575Q230.96341 138.67513 229.40091 138.67513Q227.85403 138.67513 226.93216 139.61263Q226.02591 140.5345 225.88528 142.70638L220.96341 142.20638Q221.40091 138.12825 223.71341 136.36263Q226.04153 134.58138 229.51028 134.58138Q233.33841 134.58138 235.51028 136.64388Q237.69778 138.69075 237.69778 141.75325Q237.69778 143.48763 237.07278 145.06575Q236.44778 146.64388 235.08841 148.36263Q234.19778 149.50325 231.85403 151.6595Q229.51028 153.80013 228.88528 154.50325Q228.27591 155.20638 227.88528 155.86263L237.69778 155.86263ZM253.65091 160.45638L248.71341 160.45638L248.71341 141.847Q245.99466 144.37825 242.32278 145.58138L242.32278 141.097Q244.26028 140.472 246.52591 138.70638Q248.79153 136.94075 249.63528 134.58138L253.65091 134.58138L253.65091 160.45638ZM262.05716 160.45638L262.05716 155.51888L267.01028 155.51888L267.01028 160.45638L262.05716 160.45638ZM279.35403 134.58138Q283.10403 134.58138 285.2134 137.25325Q287.72903 140.4095 287.72903 147.75325Q287.72903 155.06575 285.19778 158.25325Q283.10403 160.89388 279.35403 160.89388Q275.60403 160.89388 273.29153 158.00325Q270.99466 155.11263 270.99466 147.69075Q270.99466 140.4095 273.5259 137.222Q275.61966 134.58138 279.35403 134.58138ZM279.35403 138.67513Q278.4634 138.67513 277.76028 139.25325Q277.05716 139.81575 276.66653 141.30013Q276.16653 143.20638 276.16653 147.75325Q276.16653 152.2845 276.61966 153.98763Q277.07278 155.67513 277.76028 156.23763Q278.4634 156.80013 279.35403 156.80013Q280.26028 156.80013 280.9634 156.23763Q281.66653 155.6595 282.04153 154.17513Q282.55716 152.2845 282.55716 147.75325Q282.55716 143.20638 282.10403 141.51888Q281.6509 139.81575 280.94778 139.25325Q280.26028 138.67513 279.35403 138.67513ZM291.04153 141.05013Q291.04153 137.58138 292.55716 135.92513Q294.0884 134.25325 296.68216 134.25325Q299.36966 134.25325 300.88528 135.9095Q302.41653 137.56575 302.41653 141.05013Q302.41653 144.51888 300.88528 146.19075Q299.36966 147.847 296.7759 147.847Q294.0884 147.847 292.55716 146.19075Q291.04153 144.5345 291.04153 141.05013ZM294.9009 141.01888Q294.9009 143.5345 295.47903 144.39388Q295.91653 145.01888 296.68216 145.01888Q297.47903 145.01888 297.91653 144.39388Q298.47903 143.5345 298.47903 141.01888Q298.47903 138.50325 297.91653 137.6595Q297.47903 137.00325 296.68216 137.00325Q295.91653 137.00325 295.47903 137.64388Q294.9009 138.50325 294.9009 141.01888ZM300.44778 161.44075L296.79153 161.44075L310.5259 134.25325L314.07278 134.25325L300.44778 161.44075ZM308.43216 154.67513Q308.43216 151.20638 309.94778 149.5345Q311.4634 147.86263 314.10403 147.86263Q316.76028 147.86263 318.2759 149.5345Q319.80716 151.20638 319.80716 154.67513Q319.80716 158.1595 318.2759 159.83138Q316.76028 161.48763 314.16653 161.48763Q311.4634 161.48763 309.94778 159.83138Q308.43216 158.1595 308.43216 154.67513ZM312.2759 154.6595Q312.2759 157.17513 312.85403 158.01888Q313.29153 158.6595 314.07278 158.6595Q314.86966 158.6595 315.29153 158.0345Q315.86966 157.17513 315.86966 154.6595Q315.86966 152.14388 315.30716 151.2845Q314.86966 150.64388 314.07278 150.64388Q313.2759 150.64388 312.85403 151.2845Q312.2759 152.14388 312.2759 154.6595Z" fill-rule="nonzero"/><path fill="#4285f4" d="M346.0 635.0C346.0 638.3137 343.31372 641.0 340.0 641.0C336.68628 641.0 334.0 638.3137 334.0 635.0C334.0 631.6863 336.68628 629.0 340.0 629.0C343.31372 629.0 346.0 631.6863 346.0 635.0Z" fill-rule="nonzero"/><path fill="#1a1a1a" d="M382.42188 639.625L374.09375 639.625Q372.70312 649.09375 358.46875 651.2344L356.79688 646.6406Q368.07812 645.7656 369.67188 639.625L358.64062 639.625L358.64062 635.875L370.375 635.875Q370.45312 634.875 370.53125 633.8594L364.64062 633.8594L364.64062 635.125L360.32812 635.125L360.32812 618.0156L385.3125 618.0156L385.3125 634.7031L381.0 634.7031L381.0 633.8594L374.84375 633.8594Q374.76562 635.0 374.6875 635.875L387.54688 635.875L385.85938 646.71875Q385.34375 650.1719 380.48438 650.1719L375.79688 650.1719L375.79688 646.0L380.34375 646.0Q381.5 646.0 381.5625 645.3906L382.42188 639.625ZM381.0 621.7656L375.04688 621.7656L375.04688 623.9219L381.0 623.9219L381.0 621.7656ZM370.73438 621.7656L364.64062 621.7656L364.64062 623.9219L370.73438 623.9219L370.73438 621.7656ZM370.73438 627.6719L364.64062 627.6719L364.64062 630.1094L370.73438 630.1094L370.73438 627.6719ZM375.04688 627.6719L375.04688 630.1094L381.0 630.1094L381.0 627.6719L375.04688 627.6719Z" fill-rule="nonzero"/><path fill="#ea4335" d="M419.0 635.0C419.0 638.3137 416.31372 641.0 413.0 641.0C409.68628 641.0 407.0 638.3137 407.0 635.0C407.0 631.6863 409.68628 629.0 413.0 629.0C416.31372 629.0 419.0 631.6863 419.0 635.0Z" fill-rule="nonzero"/><path fill="#1a1a1a" d="M461.96875 625.3281L461.96875 629.9219L454.78125 629.9219Q453.48438 635.375 451.1875 638.875Q455.84375 641.3281 460.84375 644.7031L458.03125 649.1094Q452.9375 645.125 448.28125 642.6094Q443.71875 647.3125 431.4375 649.1406L430.01562 644.2656Q440.53125 643.21875 443.98438 640.40625Q441.95312 639.2969 439.0625 638.4844L437.57812 640.8594L433.42188 638.5781Q437.20312 632.90625 438.32812 629.9219L429.39062 629.9219L429.39062 625.3281L440.0625 625.3281Q441.8125 621.3281 442.8125 617.4375L446.54688 618.3281Q450.07812 619.75 446.75 620.65625Q445.75 623.53125 445.03125 625.3281L461.96875 625.3281ZM441.04688 634.7344Q443.89062 635.5 447.04688 636.9531Q449.26562 633.7969 450.03125 629.9219L443.28125 629.9219Q442.35938 632.0156 441.04688 634.7344Z" fill-rule="nonzero"/></svg>