<svg version="1.1" viewBox="0.0 0.0 798.0 690.0" fill="none" stroke="none" stroke-linecap="square" stroke-miterlimit="10" width="798" height="690" xmlns:xlink="http://www.w3.org/1999/xlink" xmlns="http://www.w3.org/2000/svg"><path fill="#ffffff" d="M0 0L798.0 0L798.0 690.0L0 690.0L0 0Z" fill-rule="nonzero"/><path fill="#4285f4" d="M399.0 34.5C442.12042 34.5 484.54224 45.392067 522.3289 66.16549L460.66446 178.33275C441.77112 167.94603 420.5602 162.5 399.0 162.5Z" fill-rule="nonzero"/><path fill="#ea4335" d="M522.3289 66.16549C640.75604 131.27133 688.177 277.21808 630.63574 399.4995L514.8179 344.99976C543.5885 283.85904 519.878 210.88567 460.66446 178.33275Z" fill-rule="nonzero"/><path fill="#ff6d01" d="M182.85205 153.32834C229.81165 79.33186 311.3605 34.5 399.0 34.5L399.0 162.5C355.18024 162.5 314.40582 184.91592 290.92603 221.91417Z" fill-rule="nonzero"/><path fill="#34a853" d="M201.74861 453.68054C131.05452 368.22607 123.42568 246.96931 182.85205 153.32834L290.92603 221.91417C261.21283 268.73465 265.02725 329.36304 300.3743 372.09027Z" fill-rule="nonzero"/><path fill="#fbbc04" d="M630.63574 399.4995C593.3206 478.7981 518.03375 533.4972 431.0853 544.4814C344.13687 555.4655 257.61212 521.20795 201.74861 453.68054L300.3743 372.09027C328.30606 405.85397 371.56842 422.98276 415.04266 417.4907C458.51688 411.9986 496.1603 384.64905 514.8179 344.99976Z" fill-rule="nonzero"/><path fill="#000000" d="M411.01407 103.125786Q409.0922 102.313286 408.2172 100.907036Q407.35782 99.48516 407.35782 97.79766Q407.35782 94.92266 409.37344 93.04766Q411.38907 91.157036 415.0922 91.157036Q418.76407 91.157036 420.79532 93.04766Q422.82657 94.92266 422.82657 97.79766Q422.82657 99.594536 421.88907 101.000786Q420.9672 102.39141 419.2797 103.125786Q421.42032 103.98516 422.5297 105.64141Q423.6547 107.29766 423.6547 109.45391Q423.6547 113.01641 421.37344 115.250786Q419.10782 117.48516 415.32657 117.48516Q411.81094 117.48516 409.4672 115.64141Q406.70157 113.469536 406.70157 109.67266Q406.70157 107.57891 407.73282 105.82891Q408.7797 104.07891 411.01407 103.125786ZM412.0297 98.157036Q412.0297 99.625786 412.85782 100.45391Q413.70157 101.282036 415.0922 101.282036Q416.49844 101.282036 417.3422 100.45391Q418.18594 99.61016 418.18594 98.14141Q418.18594 96.750786 417.3422 95.92266Q416.51407 95.07891 415.13907 95.07891Q413.7172 95.07891 412.87344 95.92266Q412.0297 96.76641 412.0297 98.157036ZM411.57657 109.188286Q411.57657 111.23516 412.62344 112.375786Q413.67032 113.51641 415.23282 113.51641Q416.76407 113.51641 417.76407 112.42266Q418.76407 111.313286 418.76407 109.250786Q418.76407 107.438286 417.74844 106.344536Q416.73282 105.23516 415.17032 105.23516Q413.35782 105.23516 412.4672 106.48516Q411.57657 107.73516 411.57657 109.188286ZM427.82657 117.032036L427.82657 112.094536L432.7797 112.094536L432.7797 117.032036L427.82657 117.032036ZM445.12344 91.157036Q448.87344 91.157036 450.98282 93.82891Q453.49844 96.98516 453.49844 104.32891Q453.49844 111.64141 450.9672 114.82891Q448.87344 117.469536 445.12344 117.469536Q441.37344 117.469536 439.06094 114.57891Q436.76407 111.688286 436.76407 104.26641Q436.76407 96.98516 439.29532 93.79766Q441.38907 91.157036 445.12344 91.157036ZM445.12344 95.250786Q444.23282 95.250786 443.5297 95.82891Q442.82657 96.39141 442.43594 97.875786Q441.93594 99.782036 441.93594 104.32891Q441.93594 108.86016 442.38907 110.563286Q442.8422 112.250786 443.5297 112.813286Q444.23282 113.375786 445.12344 113.375786Q446.0297 113.375786 446.73282 112.813286Q447.43594 112.23516 447.81094 110.750786Q448.32657 108.86016 448.32657 104.32891Q448.32657 99.782036 447.87344 98.094536Q447.42032 96.39141 446.7172 95.82891Q446.0297 95.250786 445.12344 95.250786ZM456.81094 97.625786Q456.81094 94.157036 458.32657 92.500786Q459.85782 90.82891 462.45157 90.82891Q465.13907 90.82891 466.6547 92.48516Q468.18594 94.14141 468.18594 97.625786Q468.18594 101.094536 466.6547 102.76641Q465.13907 104.42266 462.54532 104.42266Q459.85782 104.42266 458.32657 102.76641Q456.81094 101.11016 456.81094 97.625786ZM460.67032 97.594536Q460.67032 100.11016 461.24844 100.969536Q461.68594 101.594536 462.45157 101.594536Q463.24844 101.594536 463.68594 100.969536Q464.24844 100.11016 464.24844 97.594536Q464.24844 95.07891 463.68594 94.23516Q463.24844 93.57891 462.45157 93.57891Q461.68594 93.57891 461.24844 94.219536Q460.67032 95.07891 460.67032 97.594536ZM466.2172 118.01641L462.56094 118.01641L476.29532 90.82891L479.8422 90.82891L466.2172 118.01641ZM474.20157 111.250786Q474.20157 107.782036 475.7172 106.11016Q477.23282 104.438286 479.87344 104.438286Q482.5297 104.438286 484.04532 106.11016Q485.57657 107.782036 485.57657 111.250786Q485.57657 114.73516 484.04532 116.407036Q482.5297 118.063286 479.93594 118.063286Q477.23282 118.063286 475.7172 116.407036Q474.20157 114.73516 474.20157 111.250786ZM478.04532 111.23516Q478.04532 113.750786 478.62344 114.594536Q479.06094 115.23516 479.8422 115.23516Q480.63907 115.23516 481.06094 114.61016Q481.63907 113.750786 481.63907 111.23516Q481.63907 108.719536 481.07657 107.86016Q480.63907 107.219536 479.8422 107.219536Q479.04532 107.219536 478.62344 107.86016Q478.04532 108.719536 478.04532 111.23516Z" fill-rule="nonzero"/><path fill="#000000" d="M548.3216 239.07498L548.3216 243.66873L530.99347 243.66873Q531.2747 241.05936 532.68097 238.73123Q534.0872 236.4031 538.24347 232.55936Q541.5872 229.44998 542.3372 228.3406Q543.35284 226.80936 543.35284 225.30936Q543.35284 223.66873 542.4622 222.7781Q541.5872 221.88748 540.0247 221.88748Q538.47784 221.88748 537.55597 222.82498Q536.6497 223.74686 536.5091 225.91873L531.5872 225.41873Q532.0247 221.3406 534.3372 219.57498Q536.66534 217.79373 540.1341 217.79373Q543.9622 217.79373 546.1341 219.85623Q548.3216 221.9031 548.3216 224.9656Q548.3216 226.69998 547.6966 228.2781Q547.0716 229.85623 545.7122 231.57498Q544.8216 232.7156 542.47784 234.87186Q540.1341 237.01248 539.5091 237.7156Q538.8997 238.41873 538.5091 239.07498L548.3216 239.07498ZM561.3216 243.66873L561.3216 238.48123L550.7747 238.48123L550.7747 234.1531L561.9466 217.79373L566.10284 217.79373L566.10284 234.13748L569.30597 234.13748L569.30597 238.48123L566.10284 238.48123L566.10284 243.66873L561.3216 243.66873ZM561.3216 234.13748L561.3216 225.3406L555.3997 234.13748L561.3216 234.13748ZM572.68097 243.66873L572.68097 238.73123L577.6341 238.73123L577.6341 243.66873L572.68097 243.66873ZM589.97784 217.79373Q593.72784 217.79373 595.8372 220.4656Q598.35284 223.62186 598.35284 230.9656Q598.35284 238.2781 595.8216 241.4656Q593.72784 244.10623 589.97784 244.10623Q586.22784 244.10623 583.91534 241.2156Q581.61847 238.32498 581.61847 230.9031Q581.61847 223.62186 584.1497 220.43436Q586.24347 217.79373 589.97784 217.79373ZM589.97784 221.88748Q589.0872 221.88748 588.3841 222.4656Q587.68097 223.0281 587.29034 224.51248Q586.79034 226.41873 586.79034 230.9656Q586.79034 235.49686 587.24347 237.19998Q587.6966 238.88748 588.3841 239.44998Q589.0872 240.01248 589.97784 240.01248Q590.8841 240.01248 591.5872 239.44998Q592.29034 238.87186 592.66534 237.38748Q593.18097 235.49686 593.18097 230.9656Q593.18097 226.41873 592.72784 224.73123Q592.2747 223.0281 591.5716 222.4656Q590.8841 221.88748 589.97784 221.88748ZM601.66534 224.26248Q601.66534 220.79373 603.18097 219.13748Q604.7122 217.4656 607.30597 217.4656Q609.99347 217.4656 611.5091 219.12186Q613.04034 220.7781 613.04034 224.26248Q613.04034 227.73123 611.5091 229.4031Q609.99347 231.05936 607.3997 231.05936Q604.7122 231.05936 603.18097 229.4031Q601.66534 227.74686 601.66534 224.26248ZM605.5247 224.23123Q605.5247 226.74686 606.10284 227.60623Q606.54034 228.23123 607.30597 228.23123Q608.10284 228.23123 608.54034 227.60623Q609.10284 226.74686 609.10284 224.23123Q609.10284 221.7156 608.54034 220.87186Q608.10284 220.2156 607.30597 220.2156Q606.54034 220.2156 606.10284 220.85623Q605.5247 221.7156 605.5247 224.23123ZM611.0716 244.6531L607.41534 244.6531L621.1497 217.4656L624.6966 217.4656L611.0716 244.6531ZM619.05597 237.88748Q619.05597 234.41873 620.5716 232.74686Q622.0872 231.07498 624.72784 231.07498Q627.3841 231.07498 628.8997 232.74686Q630.43097 234.41873 630.43097 237.88748Q630.43097 241.37186 628.8997 243.04373Q627.3841 244.69998 624.79034 244.69998Q622.0872 244.69998 620.5716 243.04373Q619.05597 241.37186 619.05597 237.88748ZM622.8997 237.87186Q622.8997 240.38748 623.47784 241.23123Q623.91534 241.87186 624.6966 241.87186Q625.49347 241.87186 625.91534 241.24686Q626.49347 240.38748 626.49347 237.87186Q626.49347 235.35623 625.93097 234.49686Q625.49347 233.85623 624.6966 233.85623Q623.8997 233.85623 623.47784 234.49686Q622.8997 235.35623 622.8997 237.87186Z" fill-rule="nonzero"/><path fill="#000000" d="M372.92337 486.64227L377.70462 486.06415Q377.92337 487.89227 378.92337 488.86102Q379.939 489.82977 381.36087 489.82977Q382.89212 489.82977 383.92337 488.67352Q384.97025 487.50165 384.97025 485.5329Q384.97025 483.67352 383.97025 482.5954Q382.97025 481.50165 381.53275 481.50165Q380.57962 481.50165 379.26712 481.86102L379.814 477.8454Q381.814 477.89227 382.86087 476.9704Q383.92337 476.04852 383.92337 474.51727Q383.92337 473.2204 383.14212 472.45477Q382.3765 471.67352 381.09525 471.67352Q379.82962 471.67352 378.92337 472.54852Q378.03275 473.42352 377.84525 475.11102L373.28275 474.3454Q373.76712 472.00165 374.72025 470.61102Q375.67337 469.20477 377.39212 468.4079Q379.11087 467.61102 381.23587 467.61102Q384.8765 467.61102 387.064 469.92352Q388.8765 471.82977 388.8765 474.2204Q388.8765 477.61102 385.17337 479.62665Q387.39212 480.11102 388.70462 481.76727Q390.03275 483.4079 390.03275 485.75165Q390.03275 489.14227 387.54837 491.5329Q385.07962 493.92352 381.39212 493.92352Q377.89212 493.92352 375.57962 491.9079Q373.28275 489.89227 372.92337 486.64227ZM409.78275 488.89227L409.78275 493.48602L392.45462 493.48602Q392.73587 490.87665 394.14212 488.54852Q395.54837 486.2204 399.70462 482.37665Q403.04837 479.26727 403.79837 478.1579Q404.814 476.62665 404.814 475.12665Q404.814 473.48602 403.92337 472.5954Q403.04837 471.70477 401.48587 471.70477Q399.939 471.70477 399.01712 472.64227Q398.11087 473.56415 397.97025 475.73602L393.04837 475.23602Q393.48587 471.1579 395.79837 469.39227Q398.1265 467.61102 401.59525 467.61102Q405.42337 467.61102 407.59525 469.67352Q409.78275 471.7204 409.78275 474.7829Q409.78275 476.51727 409.15775 478.0954Q408.53275 479.67352 407.17337 481.39227Q406.28275 482.5329 403.939 484.68915Q401.59525 486.82977 400.97025 487.5329Q400.36087 488.23602 399.97025 488.89227L409.78275 488.89227ZM414.14212 493.48602L414.14212 488.54852L419.09525 488.54852L419.09525 493.48602L414.14212 493.48602ZM431.439 467.61102Q435.189 467.61102 437.29837 470.2829Q439.814 473.43915 439.814 480.7829Q439.814 488.0954 437.28275 491.2829Q435.189 493.92352 431.439 493.92352Q427.689 493.92352 425.3765 491.0329Q423.07962 488.14227 423.07962 480.7204Q423.07962 473.43915 425.61087 470.25165Q427.70462 467.61102 431.439 467.61102ZM431.439 471.70477Q430.54837 471.70477 429.84525 472.2829Q429.14212 472.8454 428.7515 474.32977Q428.2515 476.23602 428.2515 480.7829Q428.2515 485.31415 428.70462 487.01727Q429.15775 488.70477 429.84525 489.26727Q430.54837 489.82977 431.439 489.82977Q432.34525 489.82977 433.04837 489.26727Q433.7515 488.68915 434.1265 487.20477Q434.64212 485.31415 434.64212 480.7829Q434.64212 476.23602 434.189 474.54852Q433.73587 472.8454 433.03275 472.2829Q432.34525 471.70477 431.439 471.70477ZM443.1265 474.07977Q443.1265 470.61102 444.64212 468.95477Q446.17337 467.2829 448.76712 467.2829Q451.45462 467.2829 452.97025 468.93915Q454.5015 470.5954 454.5015 474.07977Q454.5015 477.54852 452.97025 479.2204Q451.45462 480.87665 448.86087 480.87665Q446.17337 480.87665 444.64212 479.2204Q443.1265 477.56415 443.1265 474.07977ZM446.98587 474.04852Q446.98587 476.56415 447.564 477.42352Q448.0015 478.04852 448.76712 478.04852Q449.564 478.04852 450.0015 477.42352Q450.564 476.56415 450.564 474.04852Q450.564 471.5329 450.0015 470.68915Q449.564 470.0329 448.76712 470.0329Q448.0015 470.0329 447.564 470.67352Q446.98587 471.5329 446.98587 474.04852ZM452.53275 494.4704L448.8765 494.4704L462.61087 467.2829L466.15775 467.2829L452.53275 494.4704ZM460.51712 487.70477Q460.51712 484.23602 462.03275 482.56415Q463.54837 480.89227 466.189 480.89227Q468.84525 480.89227 470.36087 482.56415Q471.89212 484.23602 471.89212 487.70477Q471.89212 491.18915 470.36087 492.86102Q468.84525 494.51727 466.2515 494.51727Q463.54837 494.51727 462.03275 492.86102Q460.51712 491.18915 460.51712 487.70477ZM464.36087 487.68915Q464.36087 490.20477 464.939 491.04852Q465.3765 491.68915 466.15775 491.68915Q466.95462 491.68915 467.3765 491.06415Q467.95462 490.20477 467.95462 487.68915Q467.95462 485.17352 467.39212 484.31415Q466.95462 483.67352 466.15775 483.67352Q465.36087 483.67352 464.939 484.31415Q464.36087 485.17352 464.36087 487.68915Z" fill-rule="nonzero"/><path fill="#000000" d="M174.09763 310.46204L174.09763 315.0558L156.7695 315.0558Q157.05075 312.4464 158.457 310.1183Q159.86325 307.79016 164.0195 303.9464Q167.36325 300.83704 168.11325 299.72766Q169.12888 298.1964 169.12888 296.6964Q169.12888 295.0558 168.23825 294.16516Q167.36325 293.27454 165.80075 293.27454Q164.25388 293.27454 163.332 294.21204Q162.42575 295.1339 162.28513 297.3058L157.36325 296.8058Q157.80075 292.72766 160.11325 290.96204Q162.44138 289.1808 165.91013 289.1808Q169.73825 289.1808 171.91013 291.2433Q174.09763 293.29016 174.09763 296.35266Q174.09763 298.08704 173.47263 299.66516Q172.84763 301.2433 171.48825 302.96204Q170.59763 304.10266 168.25388 306.2589Q165.91013 308.39954 165.28513 309.10266Q164.67575 309.8058 164.28513 310.46204L174.09763 310.46204ZM185.75388 289.1808Q189.50388 289.1808 191.61325 291.85266Q194.12888 295.0089 194.12888 302.35266Q194.12888 309.66516 191.59763 312.85266Q189.50388 315.4933 185.75388 315.4933Q182.00388 315.4933 179.69138 312.60266Q177.3945 309.71204 177.3945 302.29016Q177.3945 295.0089 179.92575 291.8214Q182.0195 289.1808 185.75388 289.1808ZM185.75388 293.27454Q184.86325 293.27454 184.16013 293.85266Q183.457 294.41516 183.06638 295.89954Q182.56638 297.8058 182.56638 302.35266Q182.56638 306.8839 183.0195 308.58704Q183.47263 310.27454 184.16013 310.83704Q184.86325 311.39954 185.75388 311.39954Q186.66013 311.39954 187.36325 310.83704Q188.06638 310.2589 188.44138 308.77454Q188.957 306.8839 188.957 302.35266Q188.957 297.8058 188.50388 296.1183Q188.05075 294.41516 187.34763 293.85266Q186.66013 293.27454 185.75388 293.27454ZM198.457 315.0558L198.457 310.1183L203.41013 310.1183L203.41013 315.0558L198.457 315.0558ZM215.75388 289.1808Q219.50388 289.1808 221.61325 291.85266Q224.12888 295.0089 224.12888 302.35266Q224.12888 309.66516 221.59763 312.85266Q219.50388 315.4933 215.75388 315.4933Q212.00388 315.4933 209.69138 312.60266Q207.3945 309.71204 207.3945 302.29016Q207.3945 295.0089 209.92575 291.8214Q212.0195 289.1808 215.75388 289.1808ZM215.75388 293.27454Q214.86325 293.27454 214.16013 293.85266Q213.457 294.41516 213.06638 295.89954Q212.56638 297.8058 212.56638 302.35266Q212.56638 306.8839 213.0195 308.58704Q213.47263 310.27454 214.16013 310.83704Q214.86325 311.39954 215.75388 311.39954Q216.66013 311.39954 217.36325 310.83704Q218.06638 310.2589 218.44138 308.77454Q218.957 306.8839 218.957 302.35266Q218.957 297.8058 218.50388 296.1183Q218.05075 294.41516 217.34763 293.85266Q216.66013 293.27454 215.75388 293.27454ZM227.44138 295.64954Q227.44138 292.1808 228.957 290.52454Q230.48825 288.85266 233.082 288.85266Q235.7695 288.85266 237.28513 290.5089Q238.81638 292.16516 238.81638 295.64954Q238.81638 299.1183 237.28513 300.79016Q235.7695 302.4464 233.17575 302.4464Q230.48825 302.4464 228.957 300.79016Q227.44138 299.1339 227.44138 295.64954ZM231.30075 295.6183Q231.30075 298.1339 231.87888 298.9933Q232.31638 299.6183 233.082 299.6183Q233.87888 299.6183 234.31638 298.9933Q234.87888 298.1339 234.87888 295.6183Q234.87888 293.10266 234.31638 292.2589Q233.87888 291.60266 233.082 291.60266Q232.31638 291.60266 231.87888 292.2433Q231.30075 293.10266 231.30075 295.6183ZM236.84763 316.04016L233.19138 316.04016L246.92575 288.85266L250.47263 288.85266L236.84763 316.04016ZM244.832 309.27454Q244.832 305.8058 246.34763 304.1339Q247.86325 302.46204 250.50388 302.46204Q253.16013 302.46204 254.67575 304.1339Q256.207 305.8058 256.207 309.27454Q256.207 312.7589 254.67575 314.4308Q253.16013 316.08704 250.56638 316.08704Q247.86325 316.08704 246.34763 314.4308Q244.832 312.7589 244.832 309.27454ZM248.67575 309.2589Q248.67575 311.77454 249.25388 312.6183Q249.69138 313.2589 250.47263 313.2589Q251.2695 313.2589 251.69138 312.6339Q252.2695 311.77454 252.2695 309.2589Q252.2695 306.7433 251.707 305.8839Q251.2695 305.2433 250.47263 305.2433Q249.67575 305.2433 249.25388 305.8839Q248.67575 306.7433 248.67575 309.2589Z" fill-rule="nonzero"/><path fill="#000000" d="M269.17517 134.74911L264.23767 134.74911L264.23767 116.13974Q261.51892 118.67099 257.84705 119.874115L257.84705 115.38974Q259.78455 114.76474 262.05017 112.999115Q264.3158 111.23349 265.15955 108.874115L269.17517 108.874115L269.17517 134.74911ZM293.26892 115.29599L288.48767 115.811615Q288.3158 114.342865 287.5658 113.63974Q286.83142 112.936615 285.65955 112.936615Q284.09705 112.936615 283.0033 114.342865Q281.92517 115.749115 281.64392 120.186615Q283.48767 118.01474 286.23767 118.01474Q289.33142 118.01474 291.53455 120.374115Q293.73767 122.717865 293.73767 126.45224Q293.73767 130.40536 291.40955 132.79599Q289.09705 135.18661 285.45642 135.18661Q281.5658 135.18661 279.05017 132.15536Q276.53455 129.12411 276.53455 122.217865Q276.53455 115.124115 279.14392 111.999115Q281.76892 108.874115 285.95642 108.874115Q288.89392 108.874115 290.8158 110.51474Q292.73767 112.155365 293.26892 115.29599ZM282.0658 126.061615Q282.0658 128.46786 283.17517 129.78036Q284.28455 131.09286 285.70642 131.09286Q287.08142 131.09286 287.98767 130.03036Q288.90955 128.95224 288.90955 126.499115Q288.90955 123.98349 287.92517 122.82724Q286.9408 121.655365 285.45642 121.655365Q284.03455 121.655365 283.05017 122.780365Q282.0658 123.88974 282.0658 126.061615ZM297.58142 134.74911L297.58142 129.81161L302.53455 129.81161L302.53455 134.74911L297.58142 134.74911ZM314.8783 108.874115Q318.6283 108.874115 320.73767 111.54599Q323.2533 114.70224 323.2533 122.04599Q323.2533 129.35849 320.72205 132.54599Q318.6283 135.18661 314.8783 135.18661Q311.1283 135.18661 308.8158 132.29599Q306.51892 129.40536 306.51892 121.98349Q306.51892 114.70224 309.05017 111.51474Q311.14392 108.874115 314.8783 108.874115ZM314.8783 112.967865Q313.98767 112.967865 313.28455 113.54599Q312.58142 114.10849 312.1908 115.592865Q311.6908 117.499115 311.6908 122.04599Q311.6908 126.57724 312.14392 128.28036Q312.59705 129.96786 313.28455 130.53036Q313.98767 131.09286 314.8783 131.09286Q315.78455 131.09286 316.48767 130.53036Q317.1908 129.95224 317.5658 128.46786Q318.08142 126.57724 318.08142 122.04599Q318.08142 117.499115 317.6283 115.811615Q317.17517 114.10849 316.47205 113.54599Q315.78455 112.967865 314.8783 112.967865ZM326.5658 115.342865Q326.5658 111.874115 328.08142 110.217865Q329.61267 108.54599 332.20642 108.54599Q334.89392 108.54599 336.40955 110.20224Q337.9408 111.85849 337.9408 115.342865Q337.9408 118.811615 336.40955 120.48349Q334.89392 122.13974 332.30017 122.13974Q329.61267 122.13974 328.08142 120.48349Q326.5658 118.82724 326.5658 115.342865ZM330.42517 115.311615Q330.42517 117.82724 331.0033 118.686615Q331.4408 119.311615 332.20642 119.311615Q333.0033 119.311615 333.4408 118.686615Q334.0033 117.82724 334.0033 115.311615Q334.0033 112.79599 333.4408 111.95224Q333.0033 111.29599 332.20642 111.29599Q331.4408 111.29599 331.0033 111.936615Q330.42517 112.79599 330.42517 115.311615ZM335.97205 135.73349L332.3158 135.73349L346.05017 108.54599L349.59705 108.54599L335.97205 135.73349ZM343.95642 128.96786Q343.95642 125.499115 345.47205 123.82724Q346.98767 122.155365 349.6283 122.155365Q352.28455 122.155365 353.80017 123.82724Q355.33142 125.499115 355.33142 128.96786Q355.33142 132.45224 353.80017 134.12411Q352.28455 135.78036 349.6908 135.78036Q346.98767 135.78036 345.47205 134.12411Q343.95642 132.45224 343.95642 128.96786ZM347.80017 128.95224Q347.80017 131.46786 348.3783 132.31161Q348.8158 132.95224 349.59705 132.95224Q350.39392 132.95224 350.8158 132.32724Q351.39392 131.46786 351.39392 128.95224Q351.39392 126.436615 350.83142 125.57724Q350.39392 124.936615 349.59705 124.936615Q348.80017 124.936615 348.3783 125.57724Q347.80017 126.436615 347.80017 128.95224Z" fill-rule="nonzero"/><path fill="#4285f4" d="M85.0 590.0C85.0 593.3137 82.313705 596.0 79.0 596.0C75.686295 596.0 73.0 593.3137 73.0 590.0C73.0 586.6863 75.686295 584.0 79.0 584.0C82.313705 584.0 85.0 586.6863 85.0 590.0Z" fill-rule="nonzero"/><path fill="#1a1a1a" d="M102.875 576.625Q106.625 576.625 108.734375 579.2969Q111.25 582.4531 111.25 589.7969Q111.25 597.1094 108.71875 600.2969Q106.625 602.9375 102.875 602.9375Q99.125 602.9375 96.8125 600.0469Q94.515625 597.15625 94.515625 589.7344Q94.515625 582.4531 97.046875 579.2656Q99.140625 576.625 102.875 576.625ZM102.875 580.71875Q101.984375 580.71875 101.28125 581.2969Q100.578125 581.8594 100.1875 583.34375Q99.6875 585.25 99.6875 589.7969Q99.6875 594.3281 100.140625 596.03125Q100.59375 597.71875 101.28125 598.28125Q101.984375 598.84375 102.875 598.84375Q103.78125 598.84375 104.484375 598.28125Q105.1875 597.7031 105.5625 596.21875Q106.078125 594.3281 106.078125 589.7969Q106.078125 585.25 105.625 583.5625Q105.171875 581.8594 104.46875 581.2969Q103.78125 580.71875 102.875 580.71875ZM114.171875 593.375L114.171875 588.8281Q116.40625 586.3906 119.375 586.3906Q120.484375 586.3906 121.421875 586.625Q122.359375 586.84375 124.765625 587.8125Q127.1875 588.78125 128.04688 588.78125Q129.03125 588.78125 130.3125 588.1875Q131.60938 587.5781 132.84375 586.25L132.84375 591.0Q132.03125 591.84375 130.57812 592.59375Q129.14062 593.3281 127.59375 593.3281Q126.71875 593.3281 125.875 593.125Q125.046875 592.90625 123.234375 592.1094Q120.53125 590.9375 118.984375 590.9375Q116.515625 590.9375 114.171875 593.375ZM135.59375 595.875L140.51562 595.3594Q140.73438 597.03125 141.76562 598.0156Q142.8125 598.9844 144.15625 598.9844Q145.70312 598.9844 146.78125 597.7344Q147.85938 596.46875 147.85938 593.9375Q147.85938 591.5625 146.78125 590.375Q145.71875 589.1875 144.01562 589.1875Q141.89062 589.1875 140.20312 591.0781L136.20312 590.5L138.73438 577.0781L151.79688 577.0781L151.79688 581.7031L142.46875 581.7031L141.70312 586.0781Q143.35938 585.25 145.07812 585.25Q148.35938 585.25 150.64062 587.6406Q152.9375 590.03125 152.9375 593.84375Q152.9375 597.03125 151.09375 599.53125Q148.57812 602.9375 144.10938 602.9375Q140.54688 602.9375 138.29688 601.03125Q136.04688 599.1094 135.59375 595.875ZM163.875 576.625Q167.625 576.625 169.73438 579.2969Q172.25 582.4531 172.25 589.7969Q172.25 597.1094 169.71875 600.2969Q167.625 602.9375 163.875 602.9375Q160.125 602.9375 157.8125 600.0469Q155.51562 597.15625 155.51562 589.7344Q155.51562 582.4531 158.04688 579.2656Q160.14062 576.625 163.875 576.625ZM163.875 580.71875Q162.98438 580.71875 162.28125 581.2969Q161.57812 581.8594 161.1875 583.34375Q160.6875 585.25 160.6875 589.7969Q160.6875 594.3281 161.14062 596.03125Q161.59375 597.71875 162.28125 598.28125Q162.98438 598.84375 163.875 598.84375Q164.78125 598.84375 165.48438 598.28125Q166.1875 597.7031 166.5625 596.21875Q167.07812 594.3281 167.07812 589.7969Q167.07812 585.25 166.625 583.5625Q166.17188 581.8594 165.46875 581.2969Q164.78125 580.71875 163.875 580.71875Z" fill-rule="nonzero"/><path fill="#1a1a1a" d="M187.5 579.5781L177.09375 579.5781L177.09375 574.9844L208.6875 574.9844L208.6875 579.5781L192.23438 579.5781Q192.23438 581.8125 192.03125 583.9844L206.15625 583.9844Q206.15625 594.125 204.57812 599.5625Q203.3125 604.1875 198.79688 604.1875L192.6875 604.1875L191.84375 599.59375L197.8125 599.59375Q199.64062 599.59375 200.04688 598.1719Q201.14062 594.46875 201.26562 588.5781L191.39062 588.5781Q189.1875 599.0156 179.4375 604.28125L176.45312 599.9219Q187.5 594.3906 187.5 581.21875L187.5 579.5781Z" fill-rule="nonzero"/><path fill="#ea4335" d="M239.0 590.0C239.0 593.3137 236.3137 596.0 233.0 596.0C229.6863 596.0 227.0 593.3137 227.0 590.0C227.0 586.6863 229.6863 584.0 233.0 584.0C236.3137 584.0 239.0 586.6863 239.0 590.0Z" fill-rule="nonzero"/><path fill="#1a1a1a" d="M248.59375 595.875L253.51562 595.3594Q253.73438 597.03125 254.76562 598.0156Q255.8125 598.9844 257.15625 598.9844Q258.70312 598.9844 259.78125 597.7344Q260.85938 596.46875 260.85938 593.9375Q260.85938 591.5625 259.78125 590.375Q258.71875 589.1875 257.01562 589.1875Q254.89062 589.1875 253.20312 591.0781L249.20312 590.5L251.73438 577.0781L264.79688 577.0781L264.79688 581.7031L255.46875 581.7031L254.70312 586.0781Q256.35938 585.25 258.07812 585.25Q261.35938 585.25 263.64062 587.6406Q265.9375 590.03125 265.9375 593.84375Q265.9375 597.03125 264.09375 599.53125Q261.57812 602.9375 257.10938 602.9375Q253.54688 602.9375 251.29688 601.03125Q249.04688 599.1094 248.59375 595.875ZM276.875 576.625Q280.625 576.625 282.73438 579.2969Q285.25 582.4531 285.25 589.7969Q285.25 597.1094 282.71875 600.2969Q280.625 602.9375 276.875 602.9375Q273.125 602.9375 270.8125 600.0469Q268.51562 597.15625 268.51562 589.7344Q268.51562 582.4531 271.04688 579.2656Q273.14062 576.625 276.875 576.625ZM276.875 580.71875Q275.98438 580.71875 275.28125 581.2969Q274.57812 581.8594 274.1875 583.34375Q273.6875 585.25 273.6875 589.7969Q273.6875 594.3281 274.14062 596.03125Q274.59375 597.71875 275.28125 598.28125Q275.98438 598.84375 276.875 598.84375Q277.78125 598.84375 278.48438 598.28125Q279.1875 597.7031 279.5625 596.21875Q280.07812 594.3281 280.07812 589.7969Q280.07812 585.25 279.625 583.5625Q279.17188 581.8594 278.46875 581.2969Q277.78125 580.71875 276.875 580.71875Z" fill-rule="nonzero"/><path fill="#1a1a1a" d="M300.5 579.5781L290.09375 579.5781L290.09375 574.9844L321.6875 574.9844L321.6875 579.5781L305.23438 579.5781Q305.23438 581.8125 305.03125 583.9844L319.15625 583.9844Q319.15625 594.125 317.57812 599.5625Q316.3125 604.1875 311.79688 604.1875L305.6875 604.1875L304.84375 599.59375L310.8125 599.59375Q312.64062 599.59375 313.04688 598.1719Q314.14062 594.46875 314.26562 588.5781L304.39062 588.5781Q302.1875 599.0156 292.4375 604.28125L289.45312 599.9219Q300.5 594.3906 300.5 581.21875L300.5 579.5781ZM336.14062 583.84375Q339.15625 583.84375 342.85938 586.0625Q346.46875 588.2031 348.79688 588.2031Q350.3125 588.2031 351.92188 586.59375Q352.6875 585.8281 353.92188 583.5625L357.96875 587.0Q355.96875 589.7344 354.23438 591.3281Q351.76562 593.6406 348.375 593.6406Q345.78125 593.6406 341.375 591.0Q338.32812 589.1406 336.42188 589.1406Q334.39062 589.1406 333.34375 590.4219Q332.0625 591.9531 331.75 593.53125L327.26562 590.7656Q328.78125 587.9219 330.84375 586.0156Q333.17188 583.84375 336.14062 583.84375Z" fill-rule="nonzero"/><path fill="#1a1a1a" d="M375.17188 602.5L370.23438 602.5L370.23438 583.8906Q367.51562 586.4219 363.84375 587.625L363.84375 583.1406Q365.78125 582.5156 368.04688 580.75Q370.3125 578.9844 371.15625 576.625L375.17188 576.625L375.17188 602.5ZM390.875 576.625Q394.625 576.625 396.73438 579.2969Q399.25 582.4531 399.25 589.7969Q399.25 597.1094 396.71875 600.2969Q394.625 602.9375 390.875 602.9375Q387.125 602.9375 384.8125 600.0469Q382.51562 597.15625 382.51562 589.7344Q382.51562 582.4531 385.04688 579.2656Q387.14062 576.625 390.875 576.625ZM390.875 580.71875Q389.98438 580.71875 389.28125 581.2969Q388.57812 581.8594 388.1875 583.34375Q387.6875 585.25 387.6875 589.7969Q387.6875 594.3281 388.14062 596.03125Q388.59375 597.71875 389.28125 598.28125Q389.98438 598.84375 390.875 598.84375Q391.78125 598.84375 392.48438 598.28125Q393.1875 597.7031 393.5625 596.21875Q394.07812 594.3281 394.07812 589.7969Q394.07812 585.25 393.625 583.5625Q393.17188 581.8594 392.46875 581.2969Q391.78125 580.71875 390.875 580.71875ZM410.875 576.625Q414.625 576.625 416.73438 579.2969Q419.25 582.4531 419.25 589.7969Q419.25 597.1094 416.71875 600.2969Q414.625 602.9375 410.875 602.9375Q407.125 602.9375 404.8125 600.0469Q402.51562 597.15625 402.51562 589.7344Q402.51562 582.4531 405.04688 579.2656Q407.14062 576.625 410.875 576.625ZM410.875 580.71875Q409.98438 580.71875 409.28125 581.2969Q408.57812 581.8594 408.1875 583.34375Q407.6875 585.25 407.6875 589.7969Q407.6875 594.3281 408.14062 596.03125Q408.59375 597.71875 409.28125 598.28125Q409.98438 598.84375 410.875 598.84375Q411.78125 598.84375 412.48438 598.28125Q413.1875 597.7031 413.5625 596.21875Q414.07812 594.3281 414.07812 589.7969Q414.07812 585.25 413.625 583.5625Q413.17188 581.8594 412.46875 581.2969Q411.78125 580.71875 410.875 580.71875Z" fill-rule="nonzero"/><path fill="#1a1a1a" d="M434.5 579.5781L424.09375 579.5781L424.09375 574.9844L455.6875 574.9844L455.6875 579.5781L439.23438 579.5781Q439.23438 581.8125 439.03125 583.9844L453.15625 583.9844Q453.15625 594.125 451.57812 599.5625Q450.3125 604.1875 445.79688 604.1875L439.6875 604.1875L438.84375 599.59375L444.8125 599.59375Q446.64062 599.59375 447.04688 598.1719Q448.14062 594.46875 448.26562 588.5781L438.39062 588.5781Q436.1875 599.0156 426.4375 604.28125L423.45312 599.9219Q434.5 594.3906 434.5 581.21875L434.5 579.5781Z" fill-rule="nonzero"/><path fill="#fbbc04" d="M486.0 590.0C486.0 593.3137 483.31372 596.0 480.0 596.0C476.68628 596.0 474.0 593.3137 474.0 590.0C474.0 586.6863 476.68628 584.0 480.0 584.0C483.31372 584.0 486.0 586.6863 486.0 590.0Z" fill-rule="nonzero"/><path fill="#1a1a1a" d="M508.17188 602.5L503.23438 602.5L503.23438 583.8906Q500.51562 586.4219 496.84375 587.625L496.84375 583.1406Q498.78125 582.5156 501.04688 580.75Q503.3125 578.9844 504.15625 576.625L508.17188 576.625L508.17188 602.5ZM523.875 576.625Q527.625 576.625 529.7344 579.2969Q532.25 582.4531 532.25 589.7969Q532.25 597.1094 529.71875 600.2969Q527.625 602.9375 523.875 602.9375Q520.125 602.9375 517.8125 600.0469Q515.5156 597.15625 515.5156 589.7344Q515.5156 582.4531 518.0469 579.2656Q520.1406 576.625 523.875 576.625ZM523.875 580.71875Q522.9844 580.71875 522.28125 581.2969Q521.5781 581.8594 521.1875 583.34375Q520.6875 585.25 520.6875 589.7969Q520.6875 594.3281 521.1406 596.03125Q521.59375 597.71875 522.28125 598.28125Q522.9844 598.84375 523.875 598.84375Q524.78125 598.84375 525.4844 598.28125Q526.1875 597.7031 526.5625 596.21875Q527.0781 594.3281 527.0781 589.7969Q527.0781 585.25 526.625 583.5625Q526.1719 581.8594 525.46875 581.2969Q524.78125 580.71875 523.875 580.71875ZM543.875 576.625Q547.625 576.625 549.7344 579.2969Q552.25 582.4531 552.25 589.7969Q552.25 597.1094 549.71875 600.2969Q547.625 602.9375 543.875 602.9375Q540.125 602.9375 537.8125 600.0469Q535.5156 597.15625 535.5156 589.7344Q535.5156 582.4531 538.0469 579.2656Q540.1406 576.625 543.875 576.625ZM543.875 580.71875Q542.9844 580.71875 542.28125 581.2969Q541.5781 581.8594 541.1875 583.34375Q540.6875 585.25 540.6875 589.7969Q540.6875 594.3281 541.1406 596.03125Q541.59375 597.71875 542.28125 598.28125Q542.9844 598.84375 543.875 598.84375Q544.78125 598.84375 545.4844 598.28125Q546.1875 597.7031 546.5625 596.21875Q547.0781 594.3281 547.0781 589.7969Q547.0781 585.25 546.625 583.5625Q546.1719 581.8594 545.46875 581.2969Q544.78125 580.71875 543.875 580.71875Z" fill-rule="nonzero"/><path fill="#1a1a1a" d="M567.5 579.5781L557.09375 579.5781L557.09375 574.9844L588.6875 574.9844L588.6875 579.5781L572.2344 579.5781Q572.2344 581.8125 572.03125 583.9844L586.15625 583.9844Q586.15625 594.125 584.5781 599.5625Q583.3125 604.1875 578.7969 604.1875L572.6875 604.1875L571.84375 599.59375L577.8125 599.59375Q579.6406 599.59375 580.0469 598.1719Q581.1406 594.46875 581.2656 588.5781L571.3906 588.5781Q569.1875 599.0156 559.4375 604.28125L556.4531 599.9219Q567.5 594.3906 567.5 581.21875L567.5 579.5781ZM603.1406 583.84375Q606.15625 583.84375 609.8594 586.0625Q613.46875 588.2031 615.7969 588.2031Q617.3125 588.2031 618.9219 586.59375Q619.6875 585.8281 620.9219 583.5625L624.96875 587.0Q622.96875 589.7344 621.2344 591.3281Q618.7656 593.6406 615.375 593.6406Q612.78125 593.6406 608.375 591.0Q605.3281 589.1406 603.4219 589.1406Q601.3906 589.1406 600.34375 590.4219Q599.0625 591.9531 598.75 593.53125L594.2656 590.7656Q595.78125 587.9219 597.84375 586.0156Q600.1719 583.84375 603.1406 583.84375Z" fill-rule="nonzero"/><path fill="#1a1a1a" d="M642.1719 602.5L637.2344 602.5L637.2344 583.8906Q634.5156 586.4219 630.84375 587.625L630.84375 583.1406Q632.78125 582.5156 635.0469 580.75Q637.3125 578.9844 638.15625 576.625L642.1719 576.625L642.1719 602.5ZM649.59375 595.875L654.5156 595.3594Q654.7344 597.03125 655.7656 598.0156Q656.8125 598.9844 658.15625 598.9844Q659.7031 598.9844 660.78125 597.7344Q661.8594 596.46875 661.8594 593.9375Q661.8594 591.5625 660.78125 590.375Q659.71875 589.1875 658.0156 589.1875Q655.8906 589.1875 654.2031 591.0781L650.2031 590.5L652.7344 577.0781L665.7969 577.0781L665.7969 581.7031L656.46875 581.7031L655.7031 586.0781Q657.3594 585.25 659.0781 585.25Q662.3594 585.25 664.6406 587.6406Q666.9375 590.03125 666.9375 593.84375Q666.9375 597.03125 665.09375 599.53125Q662.5781 602.9375 658.1094 602.9375Q654.5469 602.9375 652.2969 601.03125Q650.0469 599.1094 649.59375 595.875ZM677.875 576.625Q681.625 576.625 683.7344 579.2969Q686.25 582.4531 686.25 589.7969Q686.25 597.1094 683.71875 600.2969Q681.625 602.9375 677.875 602.9375Q674.125 602.9375 671.8125 600.0469Q669.5156 597.15625 669.5156 589.7344Q669.5156 582.4531 672.0469 579.2656Q674.1406 576.625 677.875 576.625ZM677.875 580.71875Q676.9844 580.71875 676.28125 581.2969Q675.5781 581.8594 675.1875 583.34375Q674.6875 585.25 674.6875 589.7969Q674.6875 594.3281 675.1406 596.03125Q675.59375 597.71875 676.28125 598.28125Q676.9844 598.84375 677.875 598.84375Q678.78125 598.84375 679.4844 598.28125Q680.1875 597.7031 680.5625 596.21875Q681.0781 594.3281 681.0781 589.7969Q681.0781 585.25 680.625 583.5625Q680.1719 581.8594 679.46875 581.2969Q678.78125 580.71875 677.875 580.71875Z" fill-rule="nonzero"/><path fill="#1a1a1a" d="M701.5 579.5781L691.09375 579.5781L691.09375 574.9844L722.6875 574.9844L722.6875 579.5781L706.2344 579.5781Q706.2344 581.8125 706.03125 583.9844L720.15625 583.9844Q720.15625 594.125 718.5781 599.5625Q717.3125 604.1875 712.7969 604.1875L706.6875 604.1875L705.84375 599.59375L711.8125 599.59375Q713.6406 599.59375 714.0469 598.1719Q715.1406 594.46875 715.2656 588.5781L705.3906 588.5781Q703.1875 599.0156 693.4375 604.28125L690.4531 599.9219Q701.5 594.3906 701.5 581.21875L701.5 579.5781Z" fill-rule="nonzero"/><path fill="#34a853" d="M182.0 635.0C182.0 638.3137 179.3137 641.0 176.0 641.0C172.6863 641.0 170.0 638.3137 170.0 635.0C170.0 631.6863 172.6863 629.0 176.0 629.0C179.3137 629.0 182.0 631.6863 182.0 635.0Z" fill-rule="nonzero"/><path fill="#1a1a1a" d="M204.17188 647.5L199.23438 647.5L199.23438 628.8906Q196.51562 631.4219 192.84375 632.625L192.84375 628.1406Q194.78125 627.5156 197.04688 625.75Q199.3125 623.9844 200.15625 621.625L204.17188 621.625L204.17188 647.5ZM211.59375 640.875L216.51562 640.3594Q216.73438 642.03125 217.76562 643.0156Q218.8125 643.9844 220.15625 643.9844Q221.70312 643.9844 222.78125 642.7344Q223.85938 641.46875 223.85938 638.9375Q223.85938 636.5625 222.78125 635.375Q221.71875 634.1875 220.01562 634.1875Q217.89062 634.1875 216.20312 636.0781L212.20312 635.5L214.73438 622.0781L227.79688 622.0781L227.79688 626.7031L218.46875 626.7031L217.70312 631.0781Q219.35938 630.25 221.07812 630.25Q224.35938 630.25 226.64062 632.6406Q228.9375 635.03125 228.9375 638.84375Q228.9375 642.03125 227.09375 644.53125Q224.57812 647.9375 220.10938 647.9375Q216.54688 647.9375 214.29688 646.03125Q212.04688 644.1094 211.59375 640.875ZM239.875 621.625Q243.625 621.625 245.73438 624.2969Q248.25 627.4531 248.25 634.7969Q248.25 642.1094 245.71875 645.2969Q243.625 647.9375 239.875 647.9375Q236.125 647.9375 233.8125 645.0469Q231.51562 642.15625 231.51562 634.7344Q231.51562 627.4531 234.04688 624.2656Q236.14062 621.625 239.875 621.625ZM239.875 625.71875Q238.98438 625.71875 238.28125 626.2969Q237.57812 626.8594 237.1875 628.34375Q236.6875 630.25 236.6875 634.7969Q236.6875 639.3281 237.14062 641.03125Q237.59375 642.71875 238.28125 643.28125Q238.98438 643.84375 239.875 643.84375Q240.78125 643.84375 241.48438 643.28125Q242.1875 642.7031 242.5625 641.21875Q243.07812 639.3281 243.07812 634.7969Q243.07812 630.25 242.625 628.5625Q242.17188 626.8594 241.46875 626.2969Q240.78125 625.71875 239.875 625.71875Z" fill-rule="nonzero"/><path fill="#1a1a1a" d="M263.5 624.5781L253.09375 624.5781L253.09375 619.9844L284.6875 619.9844L284.6875 624.5781L268.23438 624.5781Q268.23438 626.8125 268.03125 628.9844L282.15625 628.9844Q282.15625 639.125 280.57812 644.5625Q279.3125 649.1875 274.79688 649.1875L268.6875 649.1875L267.84375 644.59375L273.8125 644.59375Q275.64062 644.59375 276.04688 643.1719Q277.14062 639.46875 277.26562 633.5781L267.39062 633.5781Q265.1875 644.0156 255.4375 649.28125L252.45312 644.9219Q263.5 639.3906 263.5 626.21875L263.5 624.5781ZM299.14062 628.84375Q302.15625 628.84375 305.85938 631.0625Q309.46875 633.2031 311.79688 633.2031Q313.3125 633.2031 314.92188 631.59375Q315.6875 630.8281 316.92188 628.5625L320.96875 632.0Q318.96875 634.7344 317.23438 636.3281Q314.76562 638.6406 311.375 638.6406Q308.78125 638.6406 304.375 636.0Q301.32812 634.1406 299.42188 634.1406Q297.39062 634.1406 296.34375 635.4219Q295.0625 636.9531 294.75 638.53125L290.26562 635.7656Q291.78125 632.9219 293.84375 631.0156Q296.17188 628.84375 299.14062 628.84375Z" fill-rule="nonzero"/><path fill="#1a1a1a" d="M342.21875 642.90625L342.21875 647.5L324.89062 647.5Q325.17188 644.8906 326.57812 642.5625Q327.98438 640.2344 332.14062 636.3906Q335.48438 633.28125 336.23438 632.1719Q337.25 630.6406 337.25 629.1406Q337.25 627.5 336.35938 626.6094Q335.48438 625.71875 333.92188 625.71875Q332.375 625.71875 331.45312 626.65625Q330.54688 627.5781 330.40625 629.75L325.48438 629.25Q325.92188 625.1719 328.23438 623.40625Q330.5625 621.625 334.03125 621.625Q337.85938 621.625 340.03125 623.6875Q342.21875 625.7344 342.21875 628.7969Q342.21875 630.53125 341.59375 632.1094Q340.96875 633.6875 339.60938 635.40625Q338.71875 636.5469 336.375 638.7031Q334.03125 640.84375 333.40625 641.5469Q332.79688 642.25 332.40625 642.90625L342.21875 642.90625ZM353.875 621.625Q357.625 621.625 359.73438 624.2969Q362.25 627.4531 362.25 634.7969Q362.25 642.1094 359.71875 645.2969Q357.625 647.9375 353.875 647.9375Q350.125 647.9375 347.8125 645.0469Q345.51562 642.15625 345.51562 634.7344Q345.51562 627.4531 348.04688 624.2656Q350.14062 621.625 353.875 621.625ZM353.875 625.71875Q352.98438 625.71875 352.28125 626.2969Q351.57812 626.8594 351.1875 628.34375Q350.6875 630.25 350.6875 634.7969Q350.6875 639.3281 351.14062 641.03125Q351.59375 642.71875 352.28125 643.28125Q352.98438 643.84375 353.875 643.84375Q354.78125 643.84375 355.48438 643.28125Q356.1875 642.7031 356.5625 641.21875Q357.07812 639.3281 357.07812 634.7969Q357.07812 630.25 356.625 628.5625Q356.17188 626.8594 355.46875 626.2969Q354.78125 625.71875 353.875 625.71875ZM373.875 621.625Q377.625 621.625 379.73438 624.2969Q382.25 627.4531 382.25 634.7969Q382.25 642.1094 379.71875 645.2969Q377.625 647.9375 373.875 647.9375Q370.125 647.9375 367.8125 645.0469Q365.51562 642.15625 365.51562 634.7344Q365.51562 627.4531 368.04688 624.2656Q370.14062 621.625 373.875 621.625ZM373.875 625.71875Q372.98438 625.71875 372.28125 626.2969Q371.57812 626.8594 371.1875 628.34375Q370.6875 630.25 370.6875 634.7969Q370.6875 639.3281 371.14062 641.03125Q371.59375 642.71875 372.28125 643.28125Q372.98438 643.84375 373.875 643.84375Q374.78125 643.84375 375.48438 643.28125Q376.1875 642.7031 376.5625 641.21875Q377.07812 639.3281 377.07812 634.7969Q377.07812 630.25 376.625 628.5625Q376.17188 626.8594 375.46875 626.2969Q374.78125 625.71875 373.875 625.71875Z" fill-rule="nonzero"/><path fill="#1a1a1a" d="M397.5 624.5781L387.09375 624.5781L387.09375 619.9844L418.6875 619.9844L418.6875 624.5781L402.23438 624.5781Q402.23438 626.8125 402.03125 628.9844L416.15625 628.9844Q416.15625 639.125 414.57812 644.5625Q413.3125 649.1875 408.79688 649.1875L402.6875 649.1875L401.84375 644.59375L407.8125 644.59375Q409.64062 644.59375 410.04688 643.1719Q411.14062 639.46875 411.26562 633.5781L401.39062 633.5781Q399.1875 644.0156 389.4375 649.28125L386.45312 644.9219Q397.5 639.3906 397.5 626.21875L397.5 624.5781Z" fill-rule="nonzero"/><path fill="#ff6d01" d="M449.0 635.0C449.0 638.3137 446.31372 641.0 443.0 641.0C439.68628 641.0 437.0 638.3137 437.0 635.0C437.0 631.6863 439.68628 629.0 443.0 629.0C446.31372 629.0 449.0 631.6863 449.0 635.0Z" fill-rule="nonzero"/><path fill="#1a1a1a" d="M475.21875 642.90625L475.21875 647.5L457.89062 647.5Q458.17188 644.8906 459.57812 642.5625Q460.98438 640.2344 465.14062 636.3906Q468.48438 633.28125 469.23438 632.1719Q470.25 630.6406 470.25 629.1406Q470.25 627.5 469.35938 626.6094Q468.48438 625.71875 466.92188 625.71875Q465.375 625.71875 464.45312 626.65625Q463.54688 627.5781 463.40625 629.75L458.48438 629.25Q458.92188 625.1719 461.23438 623.40625Q463.5625 621.625 467.03125 621.625Q470.85938 621.625 473.03125 623.6875Q475.21875 625.7344 475.21875 628.7969Q475.21875 630.53125 474.59375 632.1094Q473.96875 633.6875 472.60938 635.40625Q471.71875 636.5469 469.375 638.7031Q467.03125 640.84375 466.40625 641.5469Q465.79688 642.25 465.40625 642.90625L475.21875 642.90625ZM486.875 621.625Q490.625 621.625 492.73438 624.2969Q495.25 627.4531 495.25 634.7969Q495.25 642.1094 492.71875 645.2969Q490.625 647.9375 486.875 647.9375Q483.125 647.9375 480.8125 645.0469Q478.51562 642.15625 478.51562 634.7344Q478.51562 627.4531 481.04688 624.2656Q483.14062 621.625 486.875 621.625ZM486.875 625.71875Q485.98438 625.71875 485.28125 626.2969Q484.57812 626.8594 484.1875 628.34375Q483.6875 630.25 483.6875 634.7969Q483.6875 639.3281 484.14062 641.03125Q484.59375 642.71875 485.28125 643.28125Q485.98438 643.84375 486.875 643.84375Q487.78125 643.84375 488.48438 643.28125Q489.1875 642.7031 489.5625 641.21875Q490.07812 639.3281 490.07812 634.7969Q490.07812 630.25 489.625 628.5625Q489.17188 626.8594 488.46875 626.2969Q487.78125 625.71875 486.875 625.71875ZM506.875 621.625Q510.625 621.625 512.7344 624.2969Q515.25 627.4531 515.25 634.7969Q515.25 642.1094 512.71875 645.2969Q510.625 647.9375 506.875 647.9375Q503.125 647.9375 500.8125 645.0469Q498.51562 642.15625 498.51562 634.7344Q498.51562 627.4531 501.04688 624.2656Q503.14062 621.625 506.875 621.625ZM506.875 625.71875Q505.98438 625.71875 505.28125 626.2969Q504.57812 626.8594 504.1875 628.34375Q503.6875 630.25 503.6875 634.7969Q503.6875 639.3281 504.14062 641.03125Q504.59375 642.71875 505.28125 643.28125Q505.98438 643.84375 506.875 643.84375Q507.78125 643.84375 508.48438 643.28125Q509.1875 642.7031 509.5625 641.21875Q510.07812 639.3281 510.07812 634.7969Q510.07812 630.25 509.625 628.5625Q509.17188 626.8594 508.46875 626.2969Q507.78125 625.71875 506.875 625.71875Z" fill-rule="nonzero"/><path fill="#1a1a1a" d="M530.5 624.5781L520.09375 624.5781L520.09375 619.9844L551.6875 619.9844L551.6875 624.5781L535.2344 624.5781Q535.2344 626.8125 535.03125 628.9844L549.15625 628.9844Q549.15625 639.125 547.5781 644.5625Q546.3125 649.1875 541.7969 649.1875L535.6875 649.1875L534.84375 644.59375L540.8125 644.59375Q542.6406 644.59375 543.0469 643.1719Q544.1406 639.46875 544.2656 633.5781L534.3906 633.5781Q532.1875 644.0156 522.4375 649.28125L519.4531 644.9219Q530.5 639.3906 530.5 626.21875L530.5 624.5781ZM580.4375 619.4844L583.9375 619.84375Q586.9844 620.2344 584.75 621.8281L584.75 631.5625Q584.75 636.6719 583.2656 639.5156L590.09375 645.0781L587.03125 649.15625L581.1406 643.2656Q577.8281 647.84375 567.34375 650.2969L565.6875 645.71875Q573.65625 644.5 577.0 641.15625Q580.4375 637.71875 580.4375 630.5781L580.4375 619.4844ZM577.2344 636.5156Q572.1875 640.625 561.1719 647.09375Q560.5625 649.4844 558.875 647.125L557.0781 643.3594Q558.6719 642.8281 560.875 641.6719L560.0156 620.3281L563.8281 620.6875Q566.875 621.0781 564.65625 622.65625L565.2969 639.4375Q570.5 636.4219 575.0781 632.8281L577.2344 636.5156ZM570.2969 620.8906Q573.7031 623.28125 576.6094 627.21875L572.59375 630.2344Q569.6875 626.2031 566.78125 624.2031L570.2969 620.8906ZM606.0469 643.0469L606.0469 618.15625L609.96875 618.15625Q613.21875 618.8125 610.78125 620.4375L610.78125 627.4375L622.1719 627.4375L622.1719 632.03125L610.78125 632.03125L610.78125 643.0469L625.40625 643.0469L625.40625 647.6406L593.3906 647.6406L593.3906 643.0469L606.0469 643.0469Z" fill-rule="nonzero"/></svg>