<svg version="1.1" viewBox="0.0 0.0 798.0 690.0" fill="none" stroke="none" stroke-linecap="square" stroke-miterlimit="10" width="798" height="690" xmlns:xlink="http://www.w3.org/1999/xlink" xmlns="http://www.w3.org/2000/svg"><path fill="#ffffff" d="M0 0L798.0 0L798.0 690.0L0 690.0L0 0Z" fill-rule="nonzero"/><path fill="#4285f4" d="M399.0 34.5C504.35678 34.5 600.69464 93.95301 647.9348 188.12527L523.4674 250.56264C499.84732 203.4765 451.6784 173.75 399.0 173.75Z" fill-rule="nonzero"/><path fill="#ea4335" d="M647.9348 188.12527C715.0699 321.9574 664.3751 484.91992 533.1684 557.0514L466.0842 435.0257C531.68756 398.95996 557.0349 317.4787 523.4674 250.56264Z" fill-rule="nonzero"/><path fill="#fbbc04" d="M533.1684 557.0514C431.19363 613.1125 305.11298 599.8609 217.02237 523.8231C128.93175 447.78534 97.40405 324.99307 137.96696 215.92268C178.52988 106.852295 282.6312 34.5 399.0 34.5L399.0 173.75C340.81558 173.75 288.76495 209.92615 268.4835 264.46133C248.20203 318.99655 263.96588 380.39267 308.01117 418.41156C352.0565 456.43045 415.0968 463.05624 466.0842 435.0257Z" fill-rule="nonzero"/><path fill="#000000" d="M471.36774 147.74854L466.43024 147.74854L466.43024 129.13916Q463.7115 131.67041 460.0396 132.87354L460.0396 128.38916Q461.9771 127.76416 464.24274 125.998535Q466.50836 124.23291 467.3521 121.873535L471.36774 121.873535L471.36774 147.74854ZM478.7271 126.92041L478.7271 122.32666L495.61774 122.32666L495.61774 125.92041Q493.524 127.967285 491.3521 131.82666Q489.19586 135.67041 488.05524 140.01416Q486.93024 144.34229 486.94586 147.74854L482.19586 147.74854Q482.30524 142.40479 484.38336 136.85791Q486.4771 131.29541 489.9615 126.92041L478.7271 126.92041ZM499.774 147.74854L499.774 142.81104L504.7271 142.81104L504.7271 147.74854L499.774 147.74854ZM525.4615 128.29541L520.68024 128.81104Q520.50836 127.342285 519.75836 126.63916Q519.024 125.936035 517.8521 125.936035Q516.2896 125.936035 515.19586 127.342285Q514.11774 128.74854 513.8365 133.18604Q515.68024 131.01416 518.43024 131.01416Q521.524 131.01416 523.7271 133.37354Q525.93024 135.71729 525.93024 139.45166Q525.93024 143.40479 523.6021 145.79541Q521.2896 148.18604 517.649 148.18604Q513.75836 148.18604 511.24274 145.15479Q508.7271 142.12354 508.7271 135.21729Q508.7271 128.12354 511.3365 124.998535Q513.9615 121.873535 518.149 121.873535Q521.0865 121.873535 523.00836 123.51416Q524.93024 125.154785 525.4615 128.29541ZM514.25836 139.06104Q514.25836 141.46729 515.36774 142.77979Q516.4771 144.09229 517.899 144.09229Q519.274 144.09229 520.18024 143.02979Q521.1021 141.95166 521.1021 139.49854Q521.1021 136.98291 520.11774 135.82666Q519.13336 134.65479 517.649 134.65479Q516.2271 134.65479 515.24274 135.77979Q514.25836 136.88916 514.25836 139.06104ZM528.75836 128.34229Q528.75836 124.873535 530.274 123.217285Q531.80524 121.54541 534.399 121.54541Q537.0865 121.54541 538.6021 123.20166Q540.13336 124.85791 540.13336 128.34229Q540.13336 131.81104 538.6021 133.48291Q537.0865 135.13916 534.49274 135.13916Q531.80524 135.13916 530.274 133.48291Q528.75836 131.82666 528.75836 128.34229ZM532.61774 128.31104Q532.61774 130.82666 533.19586 131.68604Q533.63336 132.31104 534.399 132.31104Q535.19586 132.31104 535.63336 131.68604Q536.19586 130.82666 536.19586 128.31104Q536.19586 125.79541 535.63336 124.95166Q535.19586 124.29541 534.399 124.29541Q533.63336 124.29541 533.19586 124.936035Q532.61774 125.79541 532.61774 128.31104ZM538.1646 148.73291L534.50836 148.73291L548.24274 121.54541L551.7896 121.54541L538.1646 148.73291ZM546.149 141.96729Q546.149 138.49854 547.6646 136.82666Q549.18024 135.15479 551.82086 135.15479Q554.4771 135.15479 555.99274 136.82666Q557.524 138.49854 557.524 141.96729Q557.524 145.45166 555.99274 147.12354Q554.4771 148.77979 551.88336 148.77979Q549.18024 148.77979 547.6646 147.12354Q546.149 145.45166 546.149 141.96729ZM549.99274 141.95166Q549.99274 144.46729 550.57086 145.31104Q551.00836 145.95166 551.7896 145.95166Q552.5865 145.95166 553.00836 145.32666Q553.5865 144.46729 553.5865 141.95166Q553.5865 139.43604 553.024 138.57666Q552.5865 137.93604 551.7896 137.93604Q550.99274 137.93604 550.57086 138.57666Q549.99274 139.43604 549.99274 141.95166Z" fill-rule="nonzero"/><path fill="#000000" d="M565.1661 382.9508L565.1661 387.54456L547.83795 387.54456Q548.1192 384.93518 549.52545 382.60706Q550.9317 380.27893 555.08795 376.43518Q558.4317 373.3258 559.1817 372.21643Q560.1973 370.68518 560.1973 369.18518Q560.1973 367.54456 559.3067 366.65393Q558.4317 365.7633 556.8692 365.7633Q555.3223 365.7633 554.40045 366.7008Q553.4942 367.62268 553.3536 369.79456L548.4317 369.29456Q548.8692 365.21643 551.1817 363.4508Q553.5098 361.66956 556.9786 361.66956Q560.8067 361.66956 562.9786 363.73206Q565.1661 365.77893 565.1661 368.84143Q565.1661 370.5758 564.5411 372.15393Q563.9161 373.73206 562.5567 375.4508Q561.6661 376.59143 559.3223 378.74768Q556.9786 380.8883 556.3536 381.59143Q555.7442 382.29456 555.3536 382.9508L565.1661 382.9508ZM578.1661 387.54456L578.1661 382.35706L567.6192 382.35706L567.6192 378.02893L578.7911 361.66956L582.9473 361.66956L582.9473 378.0133L586.15045 378.0133L586.15045 382.35706L582.9473 382.35706L582.9473 387.54456L578.1661 387.54456ZM578.1661 378.0133L578.1661 369.21643L572.2442 378.0133L578.1661 378.0133ZM589.52545 387.54456L589.52545 382.60706L594.4786 382.60706L594.4786 387.54456L589.52545 387.54456ZM608.1661 387.54456L608.1661 382.35706L597.6192 382.35706L597.6192 378.02893L608.7911 361.66956L612.9473 361.66956L612.9473 378.0133L616.15045 378.0133L616.15045 382.35706L612.9473 382.35706L612.9473 387.54456L608.1661 387.54456ZM608.1661 378.0133L608.1661 369.21643L602.2442 378.0133L608.1661 378.0133ZM618.5098 368.1383Q618.5098 364.66956 620.02545 363.0133Q621.5567 361.34143 624.15045 361.34143Q626.83795 361.34143 628.3536 362.99768Q629.8848 364.65393 629.8848 368.1383Q629.8848 371.60706 628.3536 373.27893Q626.83795 374.93518 624.2442 374.93518Q621.5567 374.93518 620.02545 373.27893Q618.5098 371.62268 618.5098 368.1383ZM622.3692 368.10706Q622.3692 370.62268 622.9473 371.48206Q623.3848 372.10706 624.15045 372.10706Q624.9473 372.10706 625.3848 371.48206Q625.9473 370.62268 625.9473 368.10706Q625.9473 365.59143 625.3848 364.74768Q624.9473 364.09143 624.15045 364.09143Q623.3848 364.09143 622.9473 364.73206Q622.3692 365.59143 622.3692 368.10706ZM627.9161 388.52893L624.2598 388.52893L637.9942 361.34143L641.5411 361.34143L627.9161 388.52893ZM635.90045 381.7633Q635.90045 378.29456 637.4161 376.62268Q638.9317 374.9508 641.5723 374.9508Q644.2286 374.9508 645.7442 376.62268Q647.27545 378.29456 647.27545 381.7633Q647.27545 385.24768 645.7442 386.91956Q644.2286 388.5758 641.6348 388.5758Q638.9317 388.5758 637.4161 386.91956Q635.90045 385.24768 635.90045 381.7633ZM639.7442 381.74768Q639.7442 384.2633 640.3223 385.10706Q640.7598 385.74768 641.5411 385.74768Q642.33795 385.74768 642.7598 385.12268Q643.33795 384.2633 643.33795 381.74768Q643.33795 379.23206 642.77545 378.37268Q642.33795 377.73206 641.5411 377.73206Q640.7442 377.73206 640.3223 378.37268Q639.7442 379.23206 639.7442 381.74768Z" fill-rule="nonzero"/><path fill="#000000" d="M146.78094 370.8201L151.70282 370.30447Q151.92157 371.97635 152.95282 372.96072Q153.9997 373.92947 155.34344 373.92947Q156.89032 373.92947 157.96844 372.67947Q159.04657 371.41385 159.04657 368.8826Q159.04657 366.5076 157.96844 365.3201Q156.90594 364.1326 155.20282 364.1326Q153.07782 364.1326 151.39032 366.02322L147.39032 365.4451L149.92157 352.02322L162.98407 352.02322L162.98407 356.64822L153.65594 356.64822L152.89032 361.02322Q154.54657 360.1951 156.26532 360.1951Q159.54657 360.1951 161.82782 362.58572Q164.1247 364.97635 164.1247 368.78885Q164.1247 371.97635 162.28094 374.47635Q159.76532 377.8826 155.29657 377.8826Q151.73407 377.8826 149.48407 375.97635Q147.23407 374.05447 146.78094 370.8201ZM170.95282 363.53885Q169.03094 362.72635 168.15594 361.3201Q167.29657 359.89822 167.29657 358.21072Q167.29657 355.33572 169.3122 353.46072Q171.32782 351.5701 175.03094 351.5701Q178.70282 351.5701 180.73407 353.46072Q182.76532 355.33572 182.76532 358.21072Q182.76532 360.0076 181.82782 361.41385Q180.90594 362.80447 179.21844 363.53885Q181.35907 364.39822 182.46844 366.05447Q183.59344 367.71072 183.59344 369.86697Q183.59344 373.42947 181.3122 375.66385Q179.04657 377.89822 175.26532 377.89822Q171.7497 377.89822 169.40594 376.05447Q166.64032 373.8826 166.64032 370.08572Q166.64032 367.99197 167.67157 366.24197Q168.71844 364.49197 170.95282 363.53885ZM171.96844 358.5701Q171.96844 360.03885 172.79657 360.86697Q173.64032 361.6951 175.03094 361.6951Q176.4372 361.6951 177.28094 360.86697Q178.1247 360.02322 178.1247 358.55447Q178.1247 357.16385 177.28094 356.33572Q176.45282 355.49197 175.07782 355.49197Q173.65594 355.49197 172.8122 356.33572Q171.96844 357.17947 171.96844 358.5701ZM171.51532 369.60135Q171.51532 371.64822 172.5622 372.78885Q173.60907 373.92947 175.17157 373.92947Q176.70282 373.92947 177.70282 372.83572Q178.70282 371.72635 178.70282 369.66385Q178.70282 367.85135 177.6872 366.7576Q176.67157 365.64822 175.10907 365.64822Q173.29657 365.64822 172.40594 366.89822Q171.51532 368.14822 171.51532 369.60135ZM187.76532 377.4451L187.76532 372.5076L192.71844 372.5076L192.71844 377.4451L187.76532 377.4451ZM205.0622 351.5701Q208.8122 351.5701 210.92157 354.24197Q213.4372 357.39822 213.4372 364.74197Q213.4372 372.05447 210.90594 375.24197Q208.8122 377.8826 205.0622 377.8826Q201.3122 377.8826 198.9997 374.99197Q196.70282 372.10135 196.70282 364.67947Q196.70282 357.39822 199.23407 354.21072Q201.32782 351.5701 205.0622 351.5701ZM205.0622 355.66385Q204.17157 355.66385 203.46844 356.24197Q202.76532 356.80447 202.3747 358.28885Q201.8747 360.1951 201.8747 364.74197Q201.8747 369.27322 202.32782 370.97635Q202.78094 372.66385 203.46844 373.22635Q204.17157 373.78885 205.0622 373.78885Q205.96844 373.78885 206.67157 373.22635Q207.3747 372.64822 207.7497 371.16385Q208.26532 369.27322 208.26532 364.74197Q208.26532 360.1951 207.8122 358.5076Q207.35907 356.80447 206.65594 356.24197Q205.96844 355.66385 205.0622 355.66385ZM216.7497 358.03885Q216.7497 354.5701 218.26532 352.91385Q219.79657 351.24197 222.39032 351.24197Q225.07782 351.24197 226.59344 352.89822Q228.1247 354.55447 228.1247 358.03885Q228.1247 361.5076 226.59344 363.17947Q225.07782 364.83572 222.48407 364.83572Q219.79657 364.83572 218.26532 363.17947Q216.7497 361.52322 216.7497 358.03885ZM220.60907 358.0076Q220.60907 360.52322 221.1872 361.3826Q221.6247 362.0076 222.39032 362.0076Q223.1872 362.0076 223.6247 361.3826Q224.1872 360.52322 224.1872 358.0076Q224.1872 355.49197 223.6247 354.64822Q223.1872 353.99197 222.39032 353.99197Q221.6247 353.99197 221.1872 354.6326Q220.60907 355.49197 220.60907 358.0076ZM226.15594 378.42947L222.4997 378.42947L236.23407 351.24197L239.78094 351.24197L226.15594 378.42947ZM234.14032 371.66385Q234.14032 368.1951 235.65594 366.52322Q237.17157 364.85135 239.8122 364.85135Q242.46844 364.85135 243.98407 366.52322Q245.51532 368.1951 245.51532 371.66385Q245.51532 375.14822 243.98407 376.8201Q242.46844 378.47635 239.8747 378.47635Q237.17157 378.47635 235.65594 376.8201Q234.14032 375.14822 234.14032 371.66385ZM237.98407 371.64822Q237.98407 374.16385 238.5622 375.0076Q238.9997 375.64822 239.78094 375.64822Q240.57782 375.64822 240.9997 375.02322Q241.57782 374.16385 241.57782 371.64822Q241.57782 369.1326 241.01532 368.27322Q240.57782 367.6326 239.78094 367.6326Q238.98407 367.6326 238.5622 368.27322Q237.98407 369.1326 237.98407 371.64822Z" fill-rule="nonzero"/><path fill="#4285f4" d="M98.5 635.0C98.5 638.3137 95.813705 641.0 92.5 641.0C89.186295 641.0 86.5 638.3137 86.5 635.0C86.5 631.6863 89.186295 629.0 92.5 629.0C95.813705 629.0 98.5 631.6863 98.5 635.0Z" fill-rule="nonzero"/><path fill="#1a1a1a" d="M134.39062 641.71875Q127.6875 649.0469 120.328125 649.0469Q114.953125 649.0469 112.34375 646.4375Q110.296875 644.3906 110.296875 638.875L110.296875 619.28125L114.078125 619.28125Q116.890625 619.90625 115.03125 621.5L115.03125 638.875Q115.03125 642.0781 116.078125 643.125Q117.40625 644.4531 120.1875 644.4531Q125.34375 644.4531 131.34375 637.8594L134.39062 641.71875ZM167.51562 625.4219Q161.82812 625.4219 159.14062 626.3594Q156.20312 627.4219 153.65625 629.9844Q151.20312 632.4375 151.20312 636.34375Q151.20312 639.40625 153.09375 641.2969Q155.70312 643.90625 164.45312 644.2031L162.78125 648.7969Q153.64062 648.3281 150.20312 644.8906Q146.75 641.4375 146.75 636.4844Q146.75 629.5 149.79688 627.2656Q146.20312 627.7969 138.64062 628.8906L137.40625 624.125Q152.04688 623.0781 166.67188 620.5781L167.51562 625.4219ZM185.90625 639.4375Q184.39062 643.34375 182.90625 645.125Q180.71875 647.78125 178.39062 647.78125Q174.375 647.78125 172.5 643.2344Q171.45312 640.7031 171.45312 632.6875Q171.45312 627.03125 172.10938 620.375L175.89062 621.2656Q179.28125 622.125 176.5625 623.84375Q176.04688 628.65625 176.04688 632.8281Q176.04688 638.4844 176.71875 640.7656Q177.26562 642.625 178.10938 642.625Q179.1875 642.625 180.10938 640.7969Q180.79688 639.4219 181.8125 636.5781L185.90625 639.4375ZM193.4375 622.3281Q200.32812 629.53125 201.875 639.8594L196.64062 641.21875Q194.84375 630.78125 189.14062 624.78125L193.4375 622.3281ZM224.70312 645.21875Q225.98438 645.0469 227.34375 643.6875Q228.8125 642.21875 228.8125 639.71875Q228.8125 636.9375 227.20312 635.3281Q225.59375 633.71875 221.96875 633.71875Q217.57812 633.71875 215.23438 635.40625Q212.90625 637.0469 208.67188 641.90625L205.125 638.7656Q215.78125 628.1094 219.85938 622.8125Q216.98438 623.1719 211.71875 623.6406L210.26562 618.8594Q218.125 618.8594 223.3125 618.1719L224.95312 617.4531L226.84375 619.34375Q229.5 621.75 226.01562 622.40625Q221.96875 627.0 219.375 629.84375Q220.04688 629.6875 222.10938 629.6875Q227.76562 629.6875 230.51562 632.4375Q233.26562 635.1875 233.26562 639.4375Q233.26562 643.8281 230.79688 646.2969Q227.20312 649.8906 221.6875 649.8906Q216.45312 649.8906 213.98438 647.4219Q211.9375 645.375 211.9375 642.53125Q211.9375 640.53125 213.42188 639.0469Q215.04688 637.4219 217.1875 637.4219Q220.03125 637.4219 221.9375 639.3281Q224.07812 641.46875 224.70312 645.21875ZM220.5625 645.84375Q220.125 643.15625 219.04688 642.0781Q218.28125 641.3125 217.60938 641.3125Q216.79688 641.3125 216.45312 641.65625Q215.96875 642.1406 215.96875 642.6719Q215.96875 643.625 216.875 644.53125Q218.0625 645.71875 220.0 645.71875Q220.5625 645.71875 220.5625 645.84375Z" fill-rule="nonzero"/><path fill="#ea4335" d="M263.5 635.0C263.5 638.3137 260.81372 641.0 257.5 641.0C254.1863 641.0 251.5 638.3137 251.5 635.0C251.5 631.6863 254.1863 629.0 257.5 629.0C260.81372 629.0 263.5 631.6863 263.5 635.0Z" fill-rule="nonzero"/><path fill="#1a1a1a" d="M273.21875 629.8906Q284.09375 625.4844 288.59375 617.0625L292.07812 617.8906Q295.0625 618.3125 292.375 620.0L292.4375 619.875Q298.9375 626.1094 306.9375 628.375L305.35938 633.5469Q294.84375 629.375 289.96875 623.21875Q286.6875 627.4844 285.28125 628.4219L298.45312 628.4219L298.45312 633.0156L281.0625 633.0156L281.0625 631.4375Q278.64062 633.0781 275.23438 634.3281L273.21875 629.8906ZM298.17188 633.59375L301.42188 635.7656Q303.09375 637.4375 301.07812 637.71875Q298.25 645.9219 295.5 650.9375L290.71875 648.9375Q294.0625 643.0625 295.5 639.2031L277.82812 639.2031L277.82812 634.6094L297.5625 634.6094L298.17188 633.59375ZM335.90625 629.46875Q336.15625 634.09375 335.90625 638.9219Q339.70312 640.3125 344.29688 643.59375L341.79688 647.5625Q338.25 644.8594 335.875 643.71875Q335.875 645.375 334.10938 647.1406Q332.20312 649.0469 328.65625 649.0469Q325.10938 649.0469 323.20312 647.1406Q321.57812 645.5156 321.57812 642.9531Q321.57812 640.6719 322.92188 639.3281Q324.82812 637.4219 328.51562 637.4219Q330.42188 637.4219 331.46875 637.65625Q331.70312 633.8125 331.46875 629.6875L321.01562 630.3906L321.01562 625.9375L331.10938 625.375Q331.0 622.2031 330.46875 618.2969L334.34375 618.2969Q337.78125 618.9219 335.32812 620.5625Q335.45312 623.09375 335.5625 625.1406L343.1875 624.71875L343.1875 629.1875L335.90625 629.46875ZM313.25 648.46875Q312.57812 643.7031 312.57812 638.4531Q312.57812 626.96875 314.45312 619.3125L318.32812 620.0156Q320.875 621.1094 318.59375 622.25Q317.17188 626.75 317.17188 638.4531Q317.17188 643.71875 318.03125 647.6406L313.25 648.46875ZM331.45312 641.9844Q329.67188 641.4531 328.51562 641.4531Q326.85938 641.4531 326.23438 642.0781Q325.75 642.5625 325.75 642.9531Q325.75 643.7656 326.09375 644.1094Q326.85938 644.875 328.51562 644.875Q330.14062 644.875 330.76562 644.15625Q331.54688 643.25 331.45312 641.9844ZM373.39062 641.71875Q366.6875 649.0469 359.32812 649.0469Q353.95312 649.0469 351.34375 646.4375Q349.29688 644.3906 349.29688 638.875L349.29688 619.28125L353.07812 619.28125Q355.89062 619.90625 354.03125 621.5L354.03125 638.875Q354.03125 642.0781 355.07812 643.125Q356.40625 644.4531 359.1875 644.4531Q364.34375 644.4531 370.34375 637.8594L373.39062 641.71875ZM406.51562 625.4219Q400.82812 625.4219 398.14062 626.3594Q395.20312 627.4219 392.65625 629.9844Q390.20312 632.4375 390.20312 636.34375Q390.20312 639.40625 392.09375 641.2969Q394.70312 643.90625 403.45312 644.2031L401.78125 648.7969Q392.64062 648.3281 389.20312 644.8906Q385.75 641.4375 385.75 636.4844Q385.75 629.5 388.79688 627.2656Q385.20312 627.7969 377.64062 628.8906L376.40625 624.125Q391.04688 623.0781 405.67188 620.5781L406.51562 625.4219ZM424.90625 639.4375Q423.39062 643.34375 421.90625 645.125Q419.71875 647.78125 417.39062 647.78125Q413.375 647.78125 411.5 643.2344Q410.45312 640.7031 410.45312 632.6875Q410.45312 627.03125 411.10938 620.375L414.89062 621.2656Q418.28125 622.125 415.5625 623.84375Q415.04688 628.65625 415.04688 632.8281Q415.04688 638.4844 415.71875 640.7656Q416.26562 642.625 417.10938 642.625Q418.1875 642.625 419.10938 640.7969Q419.79688 639.4219 420.8125 636.5781L424.90625 639.4375ZM432.4375 622.3281Q439.32812 629.53125 440.875 639.8594L435.64062 641.21875Q433.84375 630.78125 428.14062 624.78125L432.4375 622.3281ZM466.23438 630.1094Q469.67188 630.7344 467.20312 632.3906L467.20312 639.59375Q470.25 640.5781 474.82812 642.9375L472.32812 646.9219Q468.67188 644.7656 467.0625 644.2344Q466.73438 646.5469 465.15625 648.125Q463.25 650.03125 459.98438 650.03125Q455.73438 650.03125 453.96875 648.2656Q452.34375 646.6406 452.34375 644.0781Q452.34375 641.9375 453.96875 640.3125Q456.01562 638.2656 459.84375 638.2656Q462.34375 638.2656 462.89062 638.4219L462.89062 630.1094L466.23438 630.1094ZM450.0625 628.375Q448.92188 628.5156 444.84375 628.5156L444.21875 624.0625Q448.5625 624.0625 451.53125 623.8281Q452.07812 621.8125 453.25 616.8125L456.59375 617.9219Q459.75 619.1875 456.95312 620.3125L456.09375 623.375Q457.3125 623.2344 460.53125 622.3281L461.59375 626.7969Q456.84375 627.8125 454.78125 627.9219Q452.67188 634.65625 447.9375 643.8125L443.75 641.71875Q448.46875 633.375 450.0625 628.375ZM464.1875 622.34375Q468.8125 623.8281 475.04688 626.21875L473.17188 630.5781Q466.625 627.7656 462.5 626.5625L464.1875 622.34375ZM462.89062 642.65625Q461.82812 642.2969 459.84375 642.2969Q457.90625 642.2969 457.28125 642.9219Q456.79688 643.40625 456.79688 644.0781Q456.79688 644.75 457.14062 645.09375Q457.76562 645.71875 459.5625 645.71875Q461.21875 645.71875 461.84375 645.09375Q462.89062 644.0469 462.89062 642.65625ZM492.90625 639.4375Q491.39062 643.34375 489.90625 645.125Q487.71875 647.78125 485.39062 647.78125Q481.375 647.78125 479.5 643.2344Q478.45312 640.7031 478.45312 632.6875Q478.45312 627.03125 479.10938 620.375L482.89062 621.2656Q486.28125 622.125 483.5625 623.84375Q483.04688 628.65625 483.04688 632.8281Q483.04688 638.4844 483.71875 640.7656Q484.26562 642.625 485.10938 642.625Q486.1875 642.625 487.10938 640.7969Q487.79688 639.4219 488.8125 636.5781L492.90625 639.4375ZM500.4375 622.3281Q507.32812 629.53125 508.875 639.8594L503.64062 641.21875Q501.84375 630.78125 496.14062 624.78125L500.4375 622.3281Z" fill-rule="nonzero"/><path fill="#fbbc04" d="M538.5 635.0C538.5 638.3137 535.8137 641.0 532.5 641.0C529.1863 641.0 526.5 638.3137 526.5 635.0C526.5 631.6863 529.1863 629.0 532.5 629.0C535.8137 629.0 538.5 631.6863 538.5 635.0Z" fill-rule="nonzero"/><path fill="#1a1a1a" d="M574.3906 641.71875Q567.6875 649.0469 560.3281 649.0469Q554.9531 649.0469 552.34375 646.4375Q550.2969 644.3906 550.2969 638.875L550.2969 619.28125L554.0781 619.28125Q556.8906 619.90625 555.03125 621.5L555.03125 638.875Q555.03125 642.0781 556.0781 643.125Q557.40625 644.4531 560.1875 644.4531Q565.34375 644.4531 571.34375 637.8594L574.3906 641.71875ZM607.5156 625.4219Q601.8281 625.4219 599.1406 626.3594Q596.2031 627.4219 593.65625 629.9844Q591.2031 632.4375 591.2031 636.34375Q591.2031 639.40625 593.09375 641.2969Q595.7031 643.90625 604.4531 644.2031L602.78125 648.7969Q593.6406 648.3281 590.2031 644.8906Q586.75 641.4375 586.75 636.4844Q586.75 629.5 589.7969 627.2656Q586.2031 627.7969 578.6406 628.8906L577.40625 624.125Q592.0469 623.0781 606.6719 620.5781L607.5156 625.4219ZM625.90625 639.4375Q624.3906 643.34375 622.90625 645.125Q620.71875 647.78125 618.3906 647.78125Q614.375 647.78125 612.5 643.2344Q611.4531 640.7031 611.4531 632.6875Q611.4531 627.03125 612.1094 620.375L615.8906 621.2656Q619.28125 622.125 616.5625 623.84375Q616.0469 628.65625 616.0469 632.8281Q616.0469 638.4844 616.71875 640.7656Q617.2656 642.625 618.1094 642.625Q619.1875 642.625 620.1094 640.7969Q620.7969 639.4219 621.8125 636.5781L625.90625 639.4375ZM633.4375 622.3281Q640.3281 629.53125 641.875 639.8594L636.6406 641.21875Q634.84375 630.78125 629.1406 624.78125L633.4375 622.3281ZM667.2344 630.1094Q670.6719 630.7344 668.2031 632.3906L668.2031 639.59375Q671.25 640.5781 675.8281 642.9375L673.3281 646.9219Q669.6719 644.7656 668.0625 644.2344Q667.7344 646.5469 666.15625 648.125Q664.25 650.03125 660.9844 650.03125Q656.7344 650.03125 654.96875 648.2656Q653.34375 646.6406 653.34375 644.0781Q653.34375 641.9375 654.96875 640.3125Q657.0156 638.2656 660.84375 638.2656Q663.34375 638.2656 663.8906 638.4219L663.8906 630.1094L667.2344 630.1094ZM651.0625 628.375Q649.9219 628.5156 645.84375 628.5156L645.21875 624.0625Q649.5625 624.0625 652.53125 623.8281Q653.0781 621.8125 654.25 616.8125L657.59375 617.9219Q660.75 619.1875 657.9531 620.3125L657.09375 623.375Q658.3125 623.2344 661.53125 622.3281L662.59375 626.7969Q657.84375 627.8125 655.78125 627.9219Q653.6719 634.65625 648.9375 643.8125L644.75 641.71875Q649.46875 633.375 651.0625 628.375ZM665.1875 622.34375Q669.8125 623.8281 676.0469 626.21875L674.1719 630.5781Q667.625 627.7656 663.5 626.5625L665.1875 622.34375ZM663.8906 642.65625Q662.8281 642.2969 660.84375 642.2969Q658.90625 642.2969 658.28125 642.9219Q657.7969 643.40625 657.7969 644.0781Q657.7969 644.75 658.1406 645.09375Q658.7656 645.71875 660.5625 645.71875Q662.21875 645.71875 662.84375 645.09375Q663.8906 644.0469 663.8906 642.65625ZM693.90625 639.4375Q692.3906 643.34375 690.90625 645.125Q688.71875 647.78125 686.3906 647.78125Q682.375 647.78125 680.5 643.2344Q679.4531 640.7031 679.4531 632.6875Q679.4531 627.03125 680.1094 620.375L683.8906 621.2656Q687.28125 622.125 684.5625 623.84375Q684.0469 628.65625 684.0469 632.8281Q684.0469 638.4844 684.71875 640.7656Q685.2656 642.625 686.1094 642.625Q687.1875 642.625 688.1094 640.7969Q688.7969 639.4219 689.8125 636.5781L693.90625 639.4375ZM701.4375 622.3281Q708.3281 629.53125 709.875 639.8594L704.6406 641.21875Q702.84375 630.78125 697.1406 624.78125L701.4375 622.3281Z" fill-rule="nonzero"/></svg>