<svg id="Layer_1" data-name="Layer 1" xmlns="http://www.w3.org/2000/svg" viewBox="0 0 400 300" width="406" height="306" class="illustration styles_illustrationTablet__1DWOa"><title>_</title><ellipse cx="197.16" cy="255.63" rx="142.7" ry="7.85" fill="#e6e6e6" opacity="0.45"></ellipse><path d="M101.34,71.26C69.25,83.06,45.45,113,40.75,149.15c-4,30.49,13.54,79.52,70.65,85.37,84.66,8.68,211,15.48,238.6-35.65C368.85,163.93,366,82.94,291.29,61.81,249.08,49.86,164,48.22,101.34,71.26Z" fill="#e6e6e6" opacity="0.3"></path><path d="M322.5,76.84c12.71-17.83,6.23-37.07,6.23-37.07C306.07,51.09,302.11,71.93,301.89,84,298.36,50,268.31,44.22,268.31,44.22c-1,19.27,8.2,31.79,17.24,39.39-22.81-7.06-43,6.79-43,6.79C265.21,108.73,284.88,103,295,97.65,287.1,107,272.72,127,266.38,162c-5,27.47-5,92.07-5,92.07h22.33s-13.37-100.3,20.58-156.9C322.37,128.47,353.17,120,353.17,120c-5.4-12.52-13.85-19.78-22.39-24,19.3-3.48,28.5-19,28.5-19C344.77,71,332.19,72.77,322.5,76.84Z" fill="#e6e6e6"></path><rect x="212.07" y="91.04" width="15.27" height="24.18" fill="#e6e6e6"></rect><rect x="213.73" y="97.61" width="11.95" height="15.05" fill="#ffd200"></rect><path d="M126,78.59s3,6.75,3.48,11.79a3.71,3.71,0,0,1-3.4,4c-2.54.19-6-.29-8.1-3.71l-4.22-5.37a6.65,6.65,0,0,1,.43-7.67C117.12,73.44,124.34,74.38,126,78.59Z" fill="#f4a28c"></path><polygon points="114.51 86.29 118.81 110.16 131.8 106.85 123.45 90.81 114.51 86.29" fill="#f4a28c"></polygon><path d="M124.35,79.48a29.53,29.53,0,0,1-6.61,1.76A6.17,6.17,0,0,1,120,87.63a5,5,0,0,1-5.07,3.9l-3-9a7.52,7.52,0,0,1,1.39-7.6,26.76,26.76,0,0,1,2.48-2.52c2.22-1.93,6.61-1.53,8.32-4.09a1.79,1.79,0,0,1,3.06.17c1.36,2.59,2.37,7.06-.8,9.84A7,7,0,0,1,124.35,79.48Z" fill="#24285b"></path><path d="M120.64,87.16s-1-2.67-2.94-1.75-.53,4.78,2.34,4.18Z" fill="#f4a28c"></path><path d="M127.68,82.94l2.88,2a1.18,1.18,0,0,1-.08,2L128,88.39Z" fill="#f4a28c"></path><path d="M125.43,94.24a8.78,8.78,0,0,1-4.94-1s1.64,4.13,7.68,6.66Z" fill="#ce8172" opacity="0.31"></path><path d="M118.81,110.16l13-3.31s27.55-1.32,34.69,22.53,18.12,57,18.12,57l-35.36,12.52S67,142.17,118.81,110.16Z" fill="#0f86ff"></path><path d="M120.67,131.62s-6,20.51,17.34,32.74,30.56,25.54,30.56,25.54l16-3.55L174.09,155l-52.66-23.9Z" opacity="0.08"></path><path d="M215.68,104c-6.65-4.06-11.12,7.83-11.12,7.83l-16.69,33.73a7.59,7.59,0,0,1-11.34,2.74,105,105,0,0,1-23.41-24.64c-8-11.6-17.25-12.67-24-11.22a12.22,12.22,0,0,0-9.56,13.48c3.7,30.6,42,40.81,61.55,44a13.78,13.78,0,0,0,15.13-8.69l17.16-45S222.32,108,215.68,104Z" fill="#f4a28c"></path><path d="M149.58,199.08,215.71,174a14.76,14.76,0,0,1,18.67,9.1l8.15,23.25-8.1,2.15-7-13.95a7.73,7.73,0,0,0-11.44-2.8C200.36,203.08,155.87,230.73,149.58,199.08Z" fill="#24285b"></path><path d="M234.38,183.1a14.76,14.76,0,0,0-18.67-9.1l-2.19.83c-.05,6.44-.45,12.87-.93,19.3,1.23-.85,2.36-1.65,3.37-2.38a7.73,7.73,0,0,1,11.44,2.8l7,13.95,8.1-2.15Z" fill="#f4a28c"></path><path d="M234.38,183.1a14.76,14.76,0,0,0-18.67-9.1l-2.19.83c-.05,6.44-.45,12.87-.93,19.3,1.23-.85,2.36-1.65,3.37-2.38a7.73,7.73,0,0,1,11.44,2.8l7,13.95,8.1-2.15Z" opacity="0.08"></path><polygon points="163.06 213.5 212.69 214.21 215.71 198.94 191.76 190.86 163.06 213.5" fill="#24285b"></polygon><path d="M215.71,198.94l58.35,9s7.12-10.75,8.68-9-6.67,16.2-6.67,16.2l-63.38-.93Z" fill="#f4a28c"></path><circle cx="227.34" cy="90.75" r="3.74" fill="#ffd200"></circle><path d="M86.18,121.32h0a8.93,8.93,0,0,0-2.85,11.86l45.72,80.59h20.53l-50.72-89.4A8.92,8.92,0,0,0,86.18,121.32Z" fill="#ccc"></path><rect x="201.65" y="111.71" width="13.41" height="217.54" transform="translate(428.84 12.12) rotate(90)" fill="#ccc"></rect><polygon points="120.15 253.49 114.34 253.49 126.15 220.48 131.97 220.48 120.15 253.49" fill="#ccc"></polygon><polygon points="299.36 253.49 305.17 253.49 293.36 220.48 287.54 220.48 299.36 253.49" fill="#ccc"></polygon><path d="M103.76,255.1s4.63-6.66-2.27-8.49,1.66-10.81-4.77-12-5.35,8.31-5.35,8.31-4.44-3.82-7.5-.61,1.22,6.74,1.22,6.74-6.18,2.14-2.33,6Z" fill="#e6e6e6"></path><path d="M94.48,256s2.94-5,7.27-4.41,3.87,4.41,3.87,4.41Z" fill="#c9c9c9"></path></svg>